<svg width="242" height="28" viewBox="0 0 242 28" fill="black" xmlns="http://www.w3.org/2000/svg">
  <path d="M12.34 16.38H4.78L9 5.04L12.34 16.38ZM4.32 17.62H12.7L14.5 24L16.7 23.2L10.12 1.8L9.02 2.5L0.78 23.58L1.88 24L4.32 17.62ZM28.7894 23.22C26.4294 23.22 25.3694 21.8 24.6494 20.18H22.9094V12.58H26.0094C30.6294 12.58 31.6694 16.7 31.6694 18.86C31.6694 20.94 30.8294 23.22 28.7894 23.22ZM24.7294 2.52C28.9094 2.52 30.2494 6.54 30.2494 8.26C30.2494 11.22 26.8894 11.8 25.7494 11.8H22.9094V2.52H24.7294ZM29.0694 11.52C29.0694 11.52 31.5894 9.56 31.6294 6.46C31.6694 4.06 29.5294 1.8 27.0694 1.8H22.8894H21.0294V24H22.9094V21.28C23.5494 22.22 24.9894 24 27.3094 24C31.2694 24 33.1494 20.62 33.1494 17.02C33.1694 12.9 29.0694 11.52 29.0694 11.52ZM47.5058 22.1C40.0858 27.9 32.2058 5.74 40.6858 2.86C44.5458 1.54 47.5258 6.28 48.0658 7.32C50.7258 12.32 50.2458 19.94 47.5058 22.1ZM49.9858 5.7C47.6058 1.52 43.7658 1.52 43.7658 1.52C43.7658 1.52 37.2258 0.539998 35.6858 9.32C34.1458 18.04 39.4058 23.86 42.9458 24.22C44.0658 24.34 45.4858 24.16 46.6858 23.5C46.6858 23.5 49.5058 22.12 50.8058 18.46C52.6458 13.18 51.4858 8.34 49.9858 5.7ZM69.6794 1.8H68.3594V13.38C68.3594 20.24 66.5394 21.86 64.9594 22.66C64.2794 23 63.4794 23.08 62.6794 23.08C59.4594 23.06 57.4194 20.12 57.4194 13.04V1.8H55.1794V13.2C55.1794 19 56.3994 24.2 62.0594 24.2C68.8594 24.2 69.6794 18.62 69.6794 12.34V1.8ZM88.488 1.8H72.488V2.88H79.488V22.68L81.488 24V2.88H88.468C88.488 2.54 88.488 2.14 88.488 1.8ZM111.613 1.8H95.613V2.88H102.613V22.68L104.613 24V2.88H111.593C111.613 2.54 111.613 2.14 111.613 1.8ZM126.497 1.8V12.5H118.737V3.02L116.797 1.8V24H118.737V13.56H126.497V24H128.457V3.02L126.497 1.8ZM135.181 24V1.8H133.301V24H135.181ZM146.916 1.8C141.556 1.8 139.276 6.08 139.436 10.14C139.636 14.76 149.296 10.3 151.216 12.14C153.796 14.64 149.016 23.42 146.876 23.42C141.876 23.42 141.856 18.5 141.856 18.5H139.556C139.556 19.18 139.696 24 146.196 24C149.956 24 154.276 19.34 154.276 14.72C154.276 8.5 142.336 12.44 141.736 9.36C141.136 6.38 142.416 2.72 144.916 2.72C149.496 2.72 150.216 6.28 150.216 6.28H152.916C152.756 5.44 150.916 1.8 146.916 1.8ZM177.552 16H170.412V17.1C170.412 17.1 176.092 17.02 176.092 17.34C176.272 20.2 176.032 21.7 174.652 22.2C166.692 25.1 160.372 6.04 167.192 3.28C168.792 2.64 172.052 2.6 174.712 6.64H177.212C174.532 0.88 169.272 1.8 169.272 1.8C169.272 1.8 162.812 2.42 162.812 11.28C162.812 20.1 168.232 24 172.172 24C174.232 24 177.092 22.68 177.512 17.7C177.612 17.08 177.552 16 177.552 16ZM196.086 1.8H194.766V13.38C194.766 20.24 192.946 21.86 191.366 22.66C190.686 23 189.886 23.08 189.086 23.08C185.866 23.06 183.826 20.12 183.826 13.04V1.8H181.586V13.2C181.586 19 182.806 24.2 188.466 24.2C195.266 24.2 196.086 18.62 196.086 12.34V1.8ZM203.814 24V1.8H201.934V24H203.814ZM210.269 21.94L210.249 2.74H213.289C218.209 2.74 221.709 7.58 221.709 13.5C221.709 22.04 217.049 23.08 213.469 22.58L210.269 21.94ZM213.729 1.8H208.369V24H212.049C228.209 24 227.629 1.8 213.729 1.8ZM230.808 23.12V13.58H238.628V12.72H230.808V2.72H241.408V1.8H228.648V22.66L230.808 24H241.488V23.12H230.808Z" />
  <path d="M12.34 16.38V16.58H12.6074L12.5319 16.3235L12.34 16.38ZM4.78 16.38L4.59256 16.3102L4.49217 16.58H4.78V16.38ZM9 5.04L9.19185 4.98349L9.0221 4.40716L8.81256 4.97024L9 5.04ZM4.32 17.62V17.42H4.18236L4.1332 17.5486L4.32 17.62ZM12.7 17.62L12.8925 17.5657L12.8514 17.42H12.7V17.62ZM14.5 24L14.3075 24.0543L14.366 24.2615L14.5683 24.188L14.5 24ZM16.7 23.2L16.7683 23.388L16.9471 23.323L16.8912 23.1412L16.7 23.2ZM10.12 1.8L10.3112 1.74122L10.234 1.49037L10.0126 1.63127L10.12 1.8ZM9.02 2.5L8.91263 2.33127L8.85751 2.36634L8.83373 2.42719L9.02 2.5ZM0.78 23.58L0.593725 23.5072L0.520335 23.6949L0.70866 23.7668L0.78 23.58ZM1.88 24L1.80866 24.1868L1.9954 24.2581L2.0668 24.0714L1.88 24ZM12.34 16.18H4.78V16.58H12.34V16.18ZM4.96744 16.4498L9.18744 5.10975L8.81256 4.97024L4.59256 16.3102L4.96744 16.4498ZM8.80815 5.09651L12.1481 16.4365L12.5319 16.3235L9.19185 4.98349L8.80815 5.09651ZM4.32 17.82H12.7V17.42H4.32V17.82ZM12.5075 17.6743L14.3075 24.0543L14.6925 23.9457L12.8925 17.5657L12.5075 17.6743ZM14.5683 24.188L16.7683 23.388L16.6317 23.012L14.4317 23.812L14.5683 24.188ZM16.8912 23.1412L10.3112 1.74122L9.92883 1.85878L16.5088 23.2588L16.8912 23.1412ZM10.0126 1.63127L8.91263 2.33127L9.12738 2.66873L10.2274 1.96873L10.0126 1.63127ZM8.83373 2.42719L0.593725 23.5072L0.966275 23.6528L9.20627 2.57281L8.83373 2.42719ZM0.70866 23.7668L1.80866 24.1868L1.95134 23.8132L0.85134 23.3932L0.70866 23.7668ZM2.0668 24.0714L4.5068 17.6914L4.1332 17.5486L1.6932 23.9286L2.0668 24.0714ZM24.6494 20.18L24.8321 20.0988L24.7794 19.98H24.6494V20.18ZM22.9094 20.18H22.7094V20.38H22.9094V20.18ZM22.9094 12.58V12.38H22.7094V12.58H22.9094ZM22.9094 11.8H22.7094V12H22.9094V11.8ZM22.9094 2.52V2.32H22.7094V2.52H22.9094ZM29.0694 11.52L28.9466 11.3621L28.6526 11.5908L29.0056 11.7096L29.0694 11.52ZM31.6294 6.46L31.4294 6.45667L31.4294 6.45742L31.6294 6.46ZM21.0294 1.8V1.6H20.8294V1.8H21.0294ZM21.0294 24H20.8294V24.2H21.0294V24ZM22.9094 24V24.2H23.1094V24H22.9094ZM22.9094 21.28L23.0747 21.1674L22.7094 20.6309V21.28H22.9094ZM33.1494 17.02L32.9494 17.019V17.02H33.1494ZM28.7894 23.02C27.6541 23.02 26.8461 22.6802 26.2346 22.1557C25.6176 21.6265 25.1873 20.898 24.8321 20.0988L24.4666 20.2612C24.8314 21.082 25.2911 21.8735 25.9742 22.4593C26.6627 23.0498 27.5647 23.42 28.7894 23.42V23.02ZM24.6494 19.98H22.9094V20.38H24.6494V19.98ZM23.1094 20.18V12.58H22.7094V20.18H23.1094ZM22.9094 12.78H26.0094V12.38H22.9094V12.78ZM26.0094 12.78C28.2475 12.78 29.6009 13.7721 30.4037 15.0183C31.2142 16.2763 31.4694 17.805 31.4694 18.86H31.8694C31.8694 17.755 31.6046 16.1437 30.74 14.8017C29.8678 13.4479 28.3912 12.38 26.0094 12.38V12.78ZM31.4694 18.86C31.4694 19.8777 31.2632 20.931 30.8199 21.7222C30.3803 22.5069 29.7187 23.02 28.7894 23.02V23.42C29.9001 23.42 30.6784 22.7931 31.1689 21.9178C31.6556 21.049 31.8694 19.9223 31.8694 18.86H31.4694ZM24.7294 2.72C26.7438 2.72 28.0668 3.68416 28.8932 4.86001C29.726 6.04474 30.0494 7.43918 30.0494 8.26H30.4494C30.4494 7.36082 30.1028 5.88526 29.2205 4.62999C28.332 3.36584 26.8949 2.32 24.7294 2.32V2.72ZM30.0494 8.26C30.0494 9.64467 29.2715 10.4714 28.334 10.9629C27.3876 11.4589 26.2966 11.6 25.7494 11.6V12C26.3421 12 27.5011 11.8511 28.5197 11.3171C29.5472 10.7786 30.4494 9.83533 30.4494 8.26H30.0494ZM25.7494 11.6H22.9094V12H25.7494V11.6ZM23.1094 11.8V2.52H22.7094V11.8H23.1094ZM22.9094 2.72H24.7294V2.32H22.9094V2.72ZM29.0694 11.52C29.1922 11.6779 29.1922 11.6778 29.1923 11.6778C29.1923 11.6777 29.1924 11.6777 29.1925 11.6776C29.1927 11.6775 29.1929 11.6773 29.1931 11.6771C29.1936 11.6768 29.1942 11.6763 29.1949 11.6757C29.1965 11.6745 29.1986 11.6728 29.2013 11.6707C29.2067 11.6663 29.2144 11.6601 29.2243 11.652C29.2442 11.6358 29.2726 11.6121 29.3085 11.581C29.3804 11.5189 29.4821 11.4274 29.6038 11.3081C29.847 11.0697 30.171 10.7194 30.4964 10.2697C31.1463 9.37172 31.8087 8.06726 31.8294 6.46258L31.4294 6.45742C31.4101 7.95274 30.7925 9.17828 30.1723 10.0352C29.8627 10.4631 29.5543 10.7965 29.3237 11.0225C29.2086 11.1354 29.1131 11.2212 29.0469 11.2784C29.0139 11.307 28.9882 11.3284 28.971 11.3425C28.9625 11.3495 28.956 11.3546 28.9519 11.3579C28.9499 11.3596 28.9484 11.3607 28.9475 11.3614C28.947 11.3618 28.9467 11.362 28.9466 11.3621C28.9465 11.3622 28.9465 11.3622 28.9465 11.3622C28.9465 11.3622 28.9465 11.3622 28.9465 11.3622C28.9465 11.3622 28.9466 11.3621 29.0694 11.52ZM31.8293 6.46333C31.8712 3.95457 29.6441 1.6 27.0694 1.6V2C29.4147 2 31.4676 4.16543 31.4294 6.45667L31.8293 6.46333ZM27.0694 1.6H22.8894V2H27.0694V1.6ZM22.8894 1.6H21.0294V2H22.8894V1.6ZM20.8294 1.8V24H21.2294V1.8H20.8294ZM21.0294 24.2H22.9094V23.8H21.0294V24.2ZM23.1094 24V21.28H22.7094V24H23.1094ZM22.7441 21.3926C23.3879 22.3383 24.8804 24.2 27.3094 24.2V23.8C25.0984 23.8 23.7108 22.1017 23.0747 21.1674L22.7441 21.3926ZM27.3094 24.2C29.3542 24.2 30.873 23.3238 31.8747 21.9795C32.8716 20.6418 33.3494 18.8516 33.3494 17.02H32.9494C32.9494 18.7884 32.4872 20.4882 31.554 21.7405C30.6257 22.9862 29.2245 23.8 27.3094 23.8V24.2ZM33.3494 17.021C33.3597 14.8849 32.299 13.458 31.2456 12.5719C30.7197 12.1296 30.1939 11.8203 29.7998 11.6214C29.6025 11.5219 29.4375 11.4497 29.3211 11.4022C29.2629 11.3784 29.2168 11.3608 29.1848 11.3489C29.1688 11.343 29.1564 11.3385 29.1477 11.3355C29.1433 11.3339 29.1399 11.3328 29.1375 11.3319C29.1363 11.3315 29.1353 11.3312 29.1346 11.3309C29.1342 11.3308 29.1339 11.3307 29.1337 11.3306C29.1336 11.3306 29.1334 11.3305 29.1334 11.3305C29.1333 11.3305 29.1332 11.3304 29.0694 11.52C29.0056 11.7096 29.0055 11.7095 29.0055 11.7095C29.0055 11.7095 29.0054 11.7095 29.0054 11.7095C29.0054 11.7095 29.0055 11.7095 29.0056 11.7096C29.0059 11.7097 29.0064 11.7098 29.0072 11.7101C29.0087 11.7106 29.0112 11.7115 29.0146 11.7127C29.0214 11.7151 29.032 11.7189 29.046 11.7241C29.0741 11.7345 29.116 11.7505 29.1699 11.7725C29.2776 11.8165 29.4328 11.8843 29.6196 11.9786C29.9936 12.1672 30.4916 12.4604 30.9881 12.8781C31.9797 13.712 32.959 15.0351 32.9494 17.019L33.3494 17.021ZM47.5058 22.1L47.629 22.2576L47.6296 22.2571L47.5058 22.1ZM40.6858 2.86L40.7501 3.04938L40.7505 3.04924L40.6858 2.86ZM48.0658 7.32L47.8883 7.41217L47.8892 7.41393L48.0658 7.32ZM49.9858 5.7L50.1597 5.6012L50.1596 5.60104L49.9858 5.7ZM43.7658 1.52L43.7361 1.71779L43.7509 1.72H43.7658V1.52ZM35.6858 9.32L35.8827 9.35478L35.8828 9.35455L35.6858 9.32ZM42.9458 24.22L42.9671 24.0211L42.966 24.021L42.9458 24.22ZM46.6858 23.5L46.5978 23.3202L46.5894 23.3248L46.6858 23.5ZM50.8058 18.46L50.9943 18.5269L50.9946 18.5258L50.8058 18.46ZM47.3826 21.9424C46.4882 22.6415 45.6007 22.9101 44.747 22.857C43.8896 22.8037 43.0441 22.4247 42.2415 21.7889C40.6324 20.5141 39.2337 18.2364 38.3218 15.6681C37.4107 13.1022 36.9963 10.2767 37.3285 7.92484C37.6606 5.57325 38.7294 3.73565 40.7501 3.04938L40.6215 2.67062C38.4022 3.42435 37.2759 5.43675 36.9324 7.86891C36.589 10.3008 37.0184 13.1928 37.9448 15.8019C38.8704 18.4086 40.303 20.7634 41.9932 22.1024C42.8403 22.7735 43.7615 23.1966 44.7222 23.2563C45.6864 23.3162 46.6683 23.0085 47.629 22.2576L47.3826 21.9424ZM40.7505 3.04924C42.5806 2.42339 44.216 3.22499 45.488 4.35454C46.7588 5.48309 47.6252 6.90557 47.8883 7.41216L48.2433 7.22784C47.9663 6.69443 47.0727 5.22691 45.7536 4.05545C44.4356 2.88501 42.6509 1.97661 40.6211 2.67076L40.7505 3.04924ZM47.8892 7.41393C49.1991 9.87608 49.7397 12.9939 49.611 15.7657C49.5467 17.1505 49.3156 18.4417 48.9348 19.5157C48.553 20.5923 48.0264 21.4349 47.382 21.9429L47.6296 22.2571C48.3552 21.6851 48.9161 20.7652 49.3118 19.6493C49.7084 18.5308 49.9449 17.1995 50.0106 15.7843C50.1419 12.9561 49.5925 9.76392 48.2424 7.22606L47.8892 7.41393ZM50.1596 5.60104C48.9448 3.46745 47.3528 2.39496 46.06 1.85781C45.4147 1.58969 44.8451 1.45533 44.4354 1.38796C44.2305 1.35426 44.0653 1.33728 43.9503 1.32871C43.8928 1.32443 43.8478 1.32225 43.8166 1.32115C43.801 1.32059 43.7889 1.3203 43.7803 1.32016C43.7761 1.32008 43.7727 1.32004 43.7703 1.32002C43.7691 1.32001 43.7681 1.32001 43.7673 1.32C43.767 1.32 43.7666 1.32 43.7664 1.32C43.7663 1.32 43.7661 1.32 43.766 1.32C43.7659 1.32 43.7658 1.32 43.7658 1.52C43.7658 1.72 43.7657 1.72 43.7656 1.72C43.7656 1.72 43.7655 1.72 43.7655 1.72C43.7655 1.72 43.7655 1.72 43.7656 1.72C43.7658 1.72 43.7662 1.72 43.7669 1.72001C43.7681 1.72002 43.7703 1.72004 43.7734 1.7201C43.7795 1.7202 43.7893 1.72043 43.8024 1.72089C43.8286 1.72183 43.8684 1.72373 43.9206 1.72761C44.0249 1.73538 44.1783 1.75105 44.3705 1.78266C44.7552 1.84591 45.2943 1.97281 45.9065 2.22719C47.1288 2.73504 48.6468 3.75255 49.812 5.79896L50.1596 5.60104ZM43.7658 1.52C43.7954 1.32221 43.7953 1.32218 43.7951 1.32216C43.795 1.32214 43.7948 1.32211 43.7946 1.32208C43.7942 1.32203 43.7938 1.32196 43.7932 1.32188C43.792 1.32171 43.7905 1.32149 43.7886 1.32122C43.7847 1.32069 43.7793 1.31995 43.7723 1.31907C43.7584 1.31729 43.7384 1.3149 43.7127 1.31221C43.6613 1.30685 43.5869 1.30033 43.4924 1.29532C43.3034 1.28529 43.0335 1.28125 42.7057 1.30456C42.0503 1.35117 41.1597 1.50732 40.2187 1.94625C38.3251 2.82958 36.2687 4.83902 35.4888 9.28545L35.8828 9.35455C36.6429 5.02098 38.6264 3.13042 40.3878 2.30875C41.2744 1.89518 42.115 1.74758 42.734 1.70356C43.0433 1.68156 43.2965 1.68549 43.4712 1.69476C43.5585 1.69939 43.6261 1.70535 43.6712 1.71006C43.6938 1.71241 43.7107 1.71445 43.7216 1.71584C43.7271 1.71654 43.7311 1.71708 43.7335 1.71742C43.7347 1.71759 43.7356 1.71771 43.736 1.71777C43.7362 1.7178 43.7363 1.71782 43.7364 1.71782C43.7364 1.71783 43.7363 1.71782 43.7363 1.71782C43.7362 1.71781 43.7361 1.71779 43.7658 1.52ZM35.4888 9.28522C34.7104 13.693 35.6496 17.3771 37.2396 20.0084C38.8231 22.629 41.0702 24.2303 42.9255 24.419L42.966 24.021C41.2813 23.8497 39.1285 22.361 37.582 19.8016C36.042 17.2529 35.1212 13.667 35.8827 9.35478L35.4888 9.28522ZM42.9245 24.4189C44.0779 24.5424 45.5403 24.3583 46.7822 23.6752L46.5894 23.3248C45.4312 23.9617 44.0537 24.1376 42.9671 24.0211L42.9245 24.4189ZM46.6858 23.5C46.7737 23.6796 46.7738 23.6796 46.7739 23.6796C46.7739 23.6795 46.774 23.6795 46.7741 23.6794C46.7743 23.6793 46.7745 23.6792 46.7748 
  23.6791C46.7754 23.6788 46.7761 23.6785 46.777 23.678C46.7787 23.6771 46.7812 23.6759 46.7843 23.6743C46.7905 23.6712 46.7993 23.6667 46.8107 23.6607C46.8334 23.6488 46.866 23.6313 46.9077 23.6078C46.9909 23.5609 47.11 23.4904 47.2563 23.3945C47.5489 23.2027 47.9511 22.9091 48.3941 22.4993C49.2803 21.6796 50.3313 20.3934 50.9942 18.5269L50.6173 18.3931C49.9803 20.1866 48.9713 21.4204 48.1225 22.2057C47.698 22.5984 47.3139 22.8785 47.0371 23.0599C46.8988 23.1506 46.7873 23.2165 46.7113 23.2593C46.6733 23.2807 46.6441 23.2964 46.6249 23.3065C46.6152 23.3115 46.6081 23.3152 46.6035 23.3175C46.6013 23.3187 46.5996 23.3195 46.5987 23.3199C46.5982 23.3202 46.5979 23.3203 46.5978 23.3204C46.5977 23.3204 46.5977 23.3204 46.5977 23.3204C46.5977 23.3204 46.5977 23.3204 46.5978 23.3204C46.5978 23.3204 46.5979 23.3204 46.6858 23.5ZM50.9946 18.5258C52.8556 13.1856 51.685 8.28578 50.1597 5.6012L49.8119 5.7988C51.2866 8.39422 52.4359 13.1744 50.6169 18.3942L50.9946 18.5258ZM69.6794 1.8H69.8794V1.6H69.6794V1.8ZM68.3594 1.8V1.6H68.1594V1.8H68.3594ZM64.9594 22.66L65.0488 22.8389L65.0497 22.8384L64.9594 22.66ZM62.6794 23.08L62.6781 23.28H62.6794V23.08ZM57.4194 1.8H57.6194V1.6H57.4194V1.8ZM55.1794 1.8V1.6H54.9794V1.8H55.1794ZM69.6794 1.6H68.3594V2H69.6794V1.6ZM68.1594 1.8V13.38H68.5594V1.8H68.1594ZM68.1594 13.38C68.1594 16.7959 67.7056 18.8819 67.0715 20.2061C66.4425 21.5195 65.63 22.0963 64.869 22.4816L65.0497 22.8384C65.8687 22.4237 66.7563 21.7905 67.4323 20.3789C68.1031 18.9781 68.5594 16.8241 68.5594 13.38H68.1594ZM64.8699 22.4811C64.2325 22.7999 63.4706 22.88 62.6794 22.88V23.28C63.4881 23.28 64.3263 23.2001 65.0488 22.8389L64.8699 22.4811ZM62.6806 22.88C61.1458 22.8705 59.8952 22.1724 59.0162 20.6095C58.1286 19.0312 57.6194 16.567 57.6194 13.04H57.2194C57.2194 16.593 57.7302 19.1388 58.6676 20.8055C59.6136 22.4876 60.9929 23.2695 62.6781 23.28L62.6806 22.88ZM57.6194 13.04V1.8H57.2194V13.04H57.6194ZM57.4194 1.6H55.1794V2H57.4194V1.6ZM54.9794 1.8V13.2H55.3794V1.8H54.9794ZM54.9794 13.2C54.9794 16.1064 55.2837 18.8958 56.318 20.9644C56.837 22.0025 57.5424 22.8643 58.4893 23.4657C59.4367 24.0673 60.6128 24.4 62.0594 24.4V24C60.676 24 59.5771 23.6827 58.7038 23.128C57.8301 22.5732 57.1692 21.7725 56.6758 20.7856C55.6851 18.8042 55.3794 16.0936 55.3794 13.2H54.9794ZM62.0594 24.4C63.7868 24.4 65.1507 24.0455 66.2218 23.4014C67.2939 22.7567 68.0581 21.8307 68.5994 20.7121C69.6766 18.4863 69.8794 15.4785 69.8794 12.34H69.4794C69.4794 15.4815 69.2722 18.4037 68.2393 20.5379C67.7257 21.5993 67.0099 22.4608 66.0157 23.0586C65.0205 23.657 63.732 24 62.0594 24V24.4ZM69.8794 12.34V1.8H69.4794V12.34H69.8794ZM88.488 1.8H88.688V1.6H88.488V1.8ZM72.488 1.8V1.6H72.288V1.8H72.488ZM72.488 2.88H72.288V3.08H72.488V2.88ZM79.488 2.88H79.688V2.68H79.488V2.88ZM79.488 22.68H79.288V22.7876L79.3778 22.8469L79.488 22.68ZM81.488 24L81.3778 24.1669L81.688 24.3716V24H81.488ZM81.488 2.88V2.68H81.288V2.88H81.488ZM88.468 2.88V3.08H88.6565L88.6676 2.89174L88.468 2.88ZM88.488 1.6H72.488V2H88.488V1.6ZM72.288 1.8V2.88H72.688V1.8H72.288ZM72.488 3.08H79.488V2.68H72.488V3.08ZM79.288 2.88V22.68H79.688V2.88H79.288ZM79.3778 22.8469L81.3778 24.1669L81.5981 23.8331L79.5981 22.5131L79.3778 22.8469ZM81.688 24V2.88H81.288V24H81.688ZM81.488 3.08H88.468V2.68H81.488V3.08ZM88.6676 2.89174C88.688 2.54475 88.688 2.13854 88.688 1.8H88.288C88.288 2.14146 88.2879 2.53525 88.2683 2.86826L88.6676 2.89174ZM111.613 1.8H111.813V1.6H111.613V1.8ZM95.613 1.8V1.6H95.413V1.8H95.613ZM95.613 2.88H95.413V3.08H95.613V2.88ZM102.613 2.88H102.813V2.68H102.613V2.88ZM102.613 22.68H102.413V22.7876L102.503 22.8469L102.613 22.68ZM104.613 24L104.503 24.1669L104.813 24.3716V24H104.613ZM104.613 2.88V2.68H104.413V2.88H104.613ZM111.593 2.88V3.08H111.782L111.793 2.89174L111.593 2.88ZM111.613 1.6H95.613V2H111.613V1.6ZM95.413 1.8V2.88H95.813V1.8H95.413ZM95.613 3.08H102.613V2.68H95.613V3.08ZM102.413 2.88V22.68H102.813V2.88H102.413ZM102.503 22.8469L104.503 24.1669L104.723 23.8331L102.723 22.5131L102.503 22.8469ZM104.813 24V2.88H104.413V24H104.813ZM104.613 3.08H111.593V2.68H104.613V3.08ZM111.793 2.89174C111.813 2.54475 111.813 2.13854 111.813 1.8H111.413C111.413 2.14146 111.413 2.53525 111.393 2.86826L111.793 2.89174ZM126.497 1.8L126.603 1.63021L126.297 1.43993V1.8H126.497ZM126.497 12.5V12.7H126.697V12.5H126.497ZM118.737 12.5H118.537V12.7H118.737V12.5ZM118.737 3.02H118.937V2.90951L118.844 2.85069L118.737 3.02ZM116.797 1.8L116.904 1.63069L116.597 1.43797V1.8H116.797ZM116.797 24H116.597V24.2H116.797V24ZM118.737 24V24.2H118.937V24H118.737ZM118.737 13.56V13.36H118.537V13.56H118.737ZM126.497 13.56H126.697V13.36H126.497V13.56ZM126.497 24H126.297V24.2H126.497V24ZM128.457 24V24.2H128.657V24H128.457ZM128.457 3.02H128.657V2.90891L128.563 2.85021L128.457 3.02ZM126.297 1.8V12.5H126.697V1.8H126.297ZM126.497 12.3H118.737V12.7H126.497V12.3ZM118.937 12.5V3.02H118.537V12.5H118.937ZM118.844 2.85069L116.904 1.63069L116.691 1.9693L118.631 3.1893L118.844 2.85069ZM116.597 1.8V24H116.997V1.8H116.597ZM116.797 24.2H118.737V23.8H116.797V24.2ZM118.937 24V13.56H118.537V24H118.937ZM118.737 13.76H126.497V13.36H118.737V13.76ZM126.297 13.56V24H126.697V13.56H126.297ZM126.497 24.2H128.457V23.8H126.497V24.2ZM128.657 24V3.02H128.257V24H128.657ZM128.563 2.85021L126.603 1.63021L126.392 1.96979L128.352 3.18979L128.563 2.85021ZM135.181 24V24.2H135.381V24H135.181ZM135.181 1.8H135.381V1.6H135.181V1.8ZM133.301 1.8V1.6H133.101V1.8H133.301ZM133.301 24H133.101V24.2H133.301V24ZM135.381 24V1.8H134.981V24H135.381ZM135.181 1.6H133.301V2H135.181V1.6ZM133.101 1.8V24H133.501V1.8H133.101ZM133.301 24.2H135.181V23.8H133.301V24.2ZM139.436 10.14L139.236 10.1479L139.236 10.1486L139.436 10.14ZM151.216 12.14L151.355 11.9964L151.355 11.9956L151.216 12.14ZM141.856 18.5L142.056 18.4992L142.055 18.3H141.856V18.5ZM139.556 18.5V18.3H139.356V18.5H139.556ZM141.736 9.36L141.933 9.32176L141.932 9.32052L141.736 9.36ZM150.216 6.28L150.02 6.31965L150.053 6.48H150.216V6.28ZM152.916 6.28V6.48H153.158L153.113 6.24258L152.916 6.28ZM146.916 1.6C144.177 1.6 142.207 2.69693 140.948 4.32515C139.694 5.94705 139.155 8.08095 139.236 10.1479L139.636 10.1321C139.558 8.13905 140.079 6.10295 141.264 4.56985C142.445 3.04307 144.296 2 146.916 2V1.6ZM139.236 10.1486C139.263 10.7635 139.449 11.2455 139.771 11.6096C140.092 11.9713 140.533 12.1991 141.039 12.3359C142.044 12.6073 143.365 12.5348 144.704 12.3812C146.063 12.2252 147.432 11.9874 148.609 11.9004C149.192 11.8572 149.712 11.8531 150.139 11.9133C150.57 11.974 150.882 12.0965 151.078 12.2844L151.355 11.9956C151.071 11.7235 150.661 11.5829 150.195 11.5172C149.726 11.4511 149.174 11.4575 148.579 11.5015C147.398 11.5889 145.979 11.8323 144.658 11.9838C143.317 12.1377 142.066 12.199 141.143 11.9497C140.686 11.8262 140.324 11.6301 140.071 11.3442C139.819 11.0607 139.659 10.6715 139.636 10.1313L139.236 10.1486ZM151.077 12.2836C151.656 12.8444 151.845 13.7834 151.729 14.9371C151.613 16.083 151.199 17.3931 150.634 18.6347C150.07 19.8755 149.361 21.0356 148.665 21.8821C148.317 22.3056 147.977 22.6452 147.664 22.8772C147.346 23.1126 147.08 23.22 146.876 23.22V23.62C147.207 23.62 147.559 23.453 147.902 23.1985C148.25 22.9406 148.614 22.5747 148.975 22.1361C149.696 21.2581 150.422 20.067 150.998 18.8003C151.574 17.5344 152.005 16.1807 152.126 14.9773C152.247 13.7816 152.067 12.6856 151.355 11.9964L151.077 12.2836ZM146.876 23.22C145.661 23.22 144.761 22.9215 144.092 22.4839C143.422 22.0456 142.972 21.46 142.669 20.8688C142.366 20.2768 142.212 19.6825 142.135 19.2346C142.096 19.0111 142.076 18.8253 142.066 18.6961C142.061 18.6316 142.059 18.5813 142.058 18.5477C142.057 18.5309 142.057 18.5182 142.056 18.51C142.056 18.5059 142.056 18.503 142.056 18.5011C142.056 18.5002 142.056 18.4996 142.056 18.4993C142.056 18.4991 142.056 18.499 142.056 18.499C142.056 18.499 142.056 18.499 142.056 18.499C142.056 18.4991 142.056 18.4992 141.856 18.5C141.656 18.5008 141.656 18.5009 141.656 18.5011C141.656 18.5011 141.656 18.5013 141.656 18.5014C141.656 18.5017 141.656 18.5021 141.656 18.5025C141.656 18.5034 141.656 18.5045 141.656 18.506C141.656 18.5089 141.656 18.513 141.657 18.5182C141.657 18.5286 141.657 18.5436 141.658 18.5628C141.659 18.6013 141.662 18.6567 141.667 18.7267C141.678 18.8666 141.699 19.0652 141.74 19.3029C141.823 19.7775 141.986 20.4132 142.313 21.0512C142.64 21.69 143.133 22.3344 143.873 22.8186C144.614 23.3035 145.592 23.62 146.876 23.62V23.22ZM141.856 18.3H139.556V18.7H141.856V18.3ZM139.356 18.5C139.356 18.8523 139.392 20.2754 140.272 21.6148C141.161 22.969 142.889 24.2 146.196 24.2V23.8C143.004 23.8 141.411 22.621 140.606 21.3952C139.791 20.1546 139.756 18.8277 139.756 18.5H139.356ZM146.196 24.2C148.154 24.2 150.224 22.9923 151.796 21.2254C153.37 19.4553 154.476 17.0898 154.476 14.72H154.076C154.076 16.9702 153.022 19.2447 151.497 20.9596C149.968 22.6777 147.999 23.8 146.196 23.8V24.2ZM154.476 14.72C154.476 13.9091 154.281 13.2505 153.929 12.7196C153.577 12.1897 153.077 11.8003 152.489 11.512C151.321 10.9392 149.773 10.7516 148.243 10.6628C146.692 10.5729 145.17 10.5837 143.975 10.424C143.381 10.3445 142.892 10.2251 142.539 10.042C142.193 9.86196 141.993 9.63013 141.933 9.32176L141.54 9.39824C141.63 9.85987 141.934 10.1787 142.355 10.397C142.77 10.6122 143.313 10.739 143.922 10.8204C145.135 10.9825 146.711 10.9746 148.22 11.0622C149.749 11.1509 151.224 11.3371 152.313 11.8711C152.854 12.1363 153.292 12.4836 153.595 12.9408C153.898 13.397 154.076 13.9759 154.076 14.72H154.476ZM141.932 9.32052C141.64 7.8685 141.807 6.25018 142.347 5.00197C142.89 3.74959 143.781 2.92 144.916 2.92V2.52C143.552 2.52 142.553 3.52041 141.98 4.84303C141.406 6.16982 141.233 7.8715 141.54 9.39948L141.932 9.32052ZM144.916 2.92C147.146 2.92 148.416 3.78315 149.131 4.62913C149.491 5.05522 149.715 5.48149 149.848 5.80067C149.914 5.9601 149.958 6.09225 149.984 6.18347C149.998 6.22905 150.007 6.26435 150.013 6.28763C150.016 6.29928 150.018 6.30791 150.019 6.31332C150.019 6.31602 150.02 6.31792 150.02 6.31898C150.02 6.31952 150.02 6.31984 150.02 6.31995C150.02 6.32001 150.02 6.32001 
  150.02 6.31996C150.02 6.31993 150.02 6.31985 150.02 6.31984C150.02 6.31975 150.02 6.31965 150.216 6.28C150.412 6.24035 150.412 6.24022 150.412 6.24008C150.412 6.24001 150.412 6.23985 150.412 6.23972C150.412 6.23945 150.412 6.23913 150.412 6.23875C150.412 6.238 150.412 6.23703 150.411 6.23586C150.411 6.2335 150.41 6.23029 150.409 6.22626C150.407 6.21819 150.405 6.20684 150.401 6.1924C150.394 6.16354 150.383 6.12235 150.368 6.07059C150.338 5.96712 150.289 5.82115 150.217 5.64683C150.072 5.29851 149.829 4.83478 149.436 4.37087C148.647 3.43685 147.266 2.52 144.916 2.52V2.92ZM150.216 6.48H152.916V6.08H150.216V6.48ZM153.113 6.24258C153.067 6.0025 152.911 5.59602 152.648 5.12783C152.383 4.65544 152.003 4.10743 151.5 3.58608C150.492 2.54226 148.983 1.6 146.916 1.6V2C148.849 2 150.26 2.87774 151.212 3.86392C151.689 4.35757 152.049 4.87706 152.299 5.32342C152.552 5.77397 152.686 6.1375 152.72 6.31742L153.113 6.24258ZM177.552 16L177.752 15.9889L177.742 15.8H177.552V16ZM170.412 16V15.8H170.212V16H170.412ZM170.412 17.1H170.212V17.3028L170.415 17.3L170.412 17.1ZM176.092 17.34H175.892L175.893 17.3526L176.092 17.34ZM174.652 22.2L174.584 22.012L174.584 22.0121L174.652 22.2ZM167.192 3.28L167.118 3.0943L167.117 3.09461L167.192 3.28ZM174.712 6.64L174.545 6.74998L174.605 6.84H174.712V6.64ZM177.212 6.64V6.84H177.526L177.394 6.55563L177.212 6.64ZM169.272 1.8L169.291 1.99908L169.299 1.99834L169.307 1.99701L169.272 1.8ZM177.512 17.7L177.315 17.6682L177.314 17.6756L177.313 17.6832L177.512 17.7ZM177.552 15.8H170.412V16.2H177.552V15.8ZM170.212 16V17.1H170.612V16H170.212ZM170.412 17.1C170.415 17.3 170.415 17.3 170.415 17.3C170.415 17.3 170.415 17.3 170.415 17.3C170.416 17.3 170.416 17.3 170.416 17.3C170.417 17.3 170.418 17.2999 170.419 17.2999C170.422 17.2999 170.426 17.2998 170.431 17.2998C170.442 17.2996 170.458 17.2994 170.479 17.2992C170.52 17.2987 170.581 17.298 170.658 17.2972C170.813 17.2956 171.035 17.2937 171.301 17.2925C171.833 17.29 172.541 17.29 173.25 17.3C173.959 17.31 174.664 17.3299 175.191 17.367C175.455 17.3856 175.668 17.4082 175.812 17.4345C175.886 17.448 175.931 17.4607 175.953 17.4697C175.965 17.4746 175.958 17.4737 175.946 17.4629C175.933 17.4521 175.892 17.4112 175.892 17.34H176.292C176.292 17.2488 176.24 17.1887 176.206 17.1595C176.172 17.1301 176.134 17.1116 176.104 17.0994C176.043 17.0745 175.966 17.056 175.884 17.0411C175.718 17.0106 175.487 16.9869 175.219 16.968C174.681 16.9301 173.966 16.91 173.255 16.9C172.543 16.89 171.832 16.89 171.299 16.8925C171.032 16.8938 170.81 16.8956 170.654 16.8972C170.577 16.898 170.515 16.8987 170.474 16.8992C170.453 16.8994 170.437 16.8997 170.426 16.8998C170.421 16.8999 170.416 16.8999 170.414 16.9C170.412 16.9 170.411 16.9 170.411 16.9C170.41 16.9 170.41 16.9 170.41 16.9C170.41 16.9 170.41 16.9 170.41 16.9C170.41 16.9 170.41 16.9 170.412 17.1ZM175.893 17.3526C175.983 18.7817 175.965 19.843 175.764 20.6039C175.567 21.3489 175.201 21.7887 174.584 22.012L174.72 22.388C175.484 22.1113 175.928 21.5511 176.151 20.7061C176.37 19.877 176.382 18.7583 176.292 17.3274L175.893 17.3526ZM174.584 22.0121C172.684 22.7044 170.871 22.0958 169.302 20.7056C167.729 19.3121 166.422 17.1475 165.568 14.7943C164.714 12.4416 164.322 9.92259 164.56 7.83104C164.798 5.73626 165.66 4.11606 167.267 3.46539L167.117 3.09461C165.315 3.82394 164.409 5.62123 164.163 7.78584C163.916 9.95366 164.323 12.5359 165.192 14.9307C166.061 17.325 167.399 19.5542 169.037 21.005C170.678 22.4592 172.641 23.1456 174.721 22.3879L174.584 22.0121ZM167.267 3.46569C168.028 3.16133 169.196 2.99563 170.496 3.39614C171.793 3.79562 173.237 4.76318 174.545 6.74998L174.879 6.53001C173.528 4.47682 172.012 3.44438 170.614 3.01386C169.219 2.58437 167.957 2.75867 167.118 3.0943L167.267 3.46569ZM174.712 6.84H177.212V6.44H174.712V6.84ZM177.394 6.55563C176.027 3.61897 173.994 2.37305 172.294 1.86828C171.447 1.61681 170.687 1.55011 170.137 1.54625C169.863 1.54433 169.64 1.55813 169.485 1.57258C169.408 1.57981 169.347 1.58721 169.305 1.5929C169.284 1.59575 169.268 1.59817 169.257 1.59993C169.251 1.60081 169.247 1.60152 169.243 1.60204C169.242 1.6023 169.241 1.60251 169.24 1.60267C169.239 1.60275 169.239 1.60282 169.239 1.60287C169.238 1.6029 169.238 1.60293 169.238 1.60294C169.238 1.60297 169.238 1.60299 169.272 1.8C169.307 1.99701 169.307 1.99702 169.307 1.99704C169.307 1.99704 169.307 1.99705 169.307 1.99704C169.307 1.99704 169.307 1.99703 169.307 1.997C169.307 1.99694 169.308 1.99683 169.309 1.99667C169.311 1.99635 169.314 1.99583 169.318 1.99515C169.327 1.99378 169.341 1.99173 169.359 1.98925C169.396 1.98427 169.451 1.97753 169.522 1.97085C169.665 1.9575 169.875 1.94442 170.135 1.94624C170.655 1.94989 171.377 2.01319 172.18 2.25172C173.781 2.72695 175.717 3.90103 177.031 6.72437L177.394 6.55563ZM169.272 1.8C169.253 1.60091 169.253 1.60093 169.253 1.60095C169.253 1.60096 169.253 1.60098 169.252 1.601C169.252 1.60103 169.252 1.60108 169.251 1.60114C169.25 1.60125 169.248 1.60141 169.246 1.60162C169.243 1.60202 169.237 1.60262 169.23 1.60343C169.217 1.60505 169.197 1.60753 169.172 1.6111C169.121 1.61825 169.049 1.62979 168.957 1.6476C168.773 1.68322 168.513 1.74398 168.201 1.84508C167.579 2.04718 166.749 2.41128 165.919 3.05993C164.251 4.36372 162.612 6.79416 162.612 11.28H163.012C163.012 6.90584 164.603 4.59628 166.166 3.37507C166.951 2.76122 167.736 2.41657 168.325 2.22554C168.619 2.13008 168.863 2.07319 169.033 2.04029C169.118 2.02384 169.184 2.01341 169.228 2.00715C169.25 2.00402 169.267 2.00194 169.277 2.00067C169.283 2.00003 169.287 1.9996 169.289 1.99935C169.29 1.99922 169.291 1.99914 169.291 1.9991C169.292 1.99908 169.292 1.99906 169.292 1.99906C169.292 1.99906 169.292 1.99907 169.292 1.99907C169.292 1.99907 169.291 1.99908 169.272 1.8ZM162.612 11.28C162.612 20.1877 168.1 24.2 172.172 24.2V23.8C168.364 23.8 163.012 20.0122 163.012 11.28H162.612ZM172.172 24.2C173.244 24.2 174.525 23.8568 175.593 22.864C176.663 21.8699 177.499 20.2438 177.712 17.7168L177.313 17.6832C177.106 20.1362 176.301 21.6601 175.321 22.571C174.34 23.4832 173.161 23.8 172.172 23.8V24.2ZM177.71 17.7318C177.763 17.4041 177.772 16.9647 177.77 16.6161C177.769 16.4399 177.764 16.2835 177.76 16.1711C177.758 16.1149 177.756 16.0696 177.755 16.0382C177.754 16.0225 177.753 16.0103 177.753 16.002C177.753 15.9978 177.752 15.9946 177.752 15.9924C177.752 15.9913 177.752 15.9905 177.752 15.9899C177.752 15.9896 177.752 15.9894 177.752 15.9892C177.752 15.9891 177.752 15.9891 177.752 15.989C177.752 15.989 177.752 15.989 177.752 15.9889C177.752 15.9889 177.752 15.9889 177.552 16C177.353 16.0111 177.353 16.0111 177.353 16.0111C177.353 16.0111 177.353 16.0111 177.353 16.0111C177.353 16.0111 177.353 16.0111 177.353 16.0112C177.353 16.0113 177.353 16.0115 177.353 16.0117C177.353 16.0121 177.353 16.0129 177.353 16.0138C177.353 16.0157 177.353 16.0187 177.353 16.0226C177.354 16.0303 177.354 16.042 177.355 16.057C177.356 16.0871 177.358 16.131 177.36 16.1858C177.364 16.2952 177.369 16.4476 177.37 16.6189C177.372 16.9653 177.362 17.3759 177.315 17.6682L177.71 17.7318ZM196.086 1.8H196.286V1.6H196.086V1.8ZM194.766 1.8V1.6H194.566V1.8H194.766ZM191.366 22.66L191.455 22.8389L191.456 22.8384L191.366 22.66ZM189.086 23.08L189.084 23.28H189.086V23.08ZM183.826 1.8H184.026V1.6H183.826V1.8ZM181.586 1.8V1.6H181.386V1.8H181.586ZM196.086 1.6H194.766V2H196.086V1.6ZM194.566 1.8V13.38H194.966V1.8H194.566ZM194.566 13.38C194.566 16.7959 194.112 18.8819 193.478 20.2061C192.849 21.5195 192.036 22.0963 191.275 22.4816L191.456 22.8384C192.275 22.4237 193.163 21.7905 193.839 20.3789C194.509 18.9781 194.966 16.8241 194.966 13.38H194.566ZM191.276 22.4811C190.639 22.7999 189.877 22.88 189.086 22.88V23.28C189.894 23.28 190.733 23.2001 191.455 22.8389L191.276 22.4811ZM189.087 22.88C187.552 22.8705 186.301 22.1724 185.422 20.6095C184.535 19.0312 184.026 16.567 184.026 13.04H183.626C183.626 16.593 184.136 19.1388 185.074 20.8055C186.02 22.4876 187.399 23.2695 189.084 23.28L189.087 22.88ZM184.026 13.04V1.8H183.626V13.04H184.026ZM183.826 1.6H181.586V2H183.826V1.6ZM181.386 1.8V13.2H181.786V1.8H181.386ZM181.386 13.2C181.386 16.1064 181.69 18.8958 182.724 20.9644C183.243 22.0025 183.949 22.8643 184.896 23.4657C185.843 24.0673 187.019 24.4 188.466 24.4V24C187.082 24 185.983 23.6827 185.11 23.128C184.236 22.5732 183.575 21.7725 183.082 20.7856C182.091 18.8042 181.786 16.0936 181.786 13.2H181.386ZM188.466 24.4C190.193 24.4 191.557 24.0455 192.628 23.4014C193.7 22.7567 194.464 21.8307 195.006 20.7121C196.083 18.4863 196.286 15.4785 196.286 12.34H195.886C195.886 15.4815 195.678 18.4037 194.646 20.5379C194.132 21.5993 193.416 22.4608 192.422 23.0586C191.427 23.657 190.138 24 188.466 24V24.4ZM196.286 12.34V1.8H195.886V12.34H196.286ZM203.814 24V24.2H204.014V24H203.814ZM203.814 1.8H204.014V1.6H203.814V1.8ZM201.934 1.8V1.6H201.734V1.8H201.934ZM201.934 24H201.734V24.2H201.934V24ZM204.014 24V1.8H203.614V24H204.014ZM203.814 1.6H201.934V2H203.814V1.6ZM201.734 1.8V24H202.134V1.8H201.734ZM201.934 24.2H203.814V23.8H201.934V24.2ZM210.269 21.94L210.069 21.9402L210.069 22.104L210.23 22.1361L210.269 21.94ZM210.249 2.74V2.54H210.049L210.049 2.74021L210.249 2.74ZM213.469 22.58L213.43 22.7765L213.441 22.7781L213.469 22.58ZM208.369 1.8V1.6H208.169V1.8H208.369ZM208.369 24H208.169V24.2H208.369V24ZM210.469 21.9398L210.449 2.73979L210.049 2.74021L210.069 21.9402L210.469 21.9398ZM210.249 2.94H213.289V2.54H210.249V2.94ZM213.289 2.94C218.052 2.94 221.509 7.63714 221.509 13.5H221.909C221.909 7.52285 218.366 2.54 213.289 2.54V2.94ZM221.509 13.5C221.509 17.737 220.354 20.0602 218.808 21.2726C217.257 22.4892 215.263 22.6286 213.497 22.3819L213.441 22.7781C215.255 23.0314 217.381 22.9008 219.055 21.5874C220.734 20.2698 221.909 17.803 221.909 13.5H221.509ZM213.508 22.3839L210.308 21.7439L210.23 22.1361L213.43 22.7761L213.508 22.3839ZM213.729 1.6H208.369V2H213.729V1.6ZM208.169 1.8V24H208.569V1.8H208.169ZM208.369 24.2H212.049V23.8H208.369V24.2ZM212.049 24.2C216.138 24.2 219.186 22.7942 221.228 20.6699C223.268 18.5484 224.292 15.7237 224.361 12.905C224.431 
  10.0868 223.548 7.26259 221.756 5.13975C219.961 3.01296 217.262 1.6 213.729 1.6V2C217.146 2 219.732 3.36204 221.45 5.39775C223.172 7.43741 224.029 10.1632 223.962 12.895C223.894 15.6263 222.902 18.3516 220.94 20.3926C218.98 22.4308 216.04 23.8 212.049 23.8V24.2ZM230.808 23.12H230.608V23.32H230.808V23.12ZM230.808 13.58V13.38H230.608V13.58H230.808ZM238.628 13.58V13.78H238.828V13.58H238.628ZM238.628 12.72H238.828V12.52H238.628V12.72ZM230.808 12.72H230.608V12.92H230.808V12.72ZM230.808 2.72V2.52H230.608V2.72H230.808ZM241.408 2.72V2.92H241.608V2.72H241.408ZM241.408 1.8H241.608V1.6H241.408V1.8ZM228.648 1.8V1.6H228.448V1.8H228.648ZM228.648 22.66H228.448V22.7713L228.543 22.83L228.648 22.66ZM230.808 24L230.703 24.17L230.751 24.2H230.808V24ZM241.488 24V24.2H241.688V24H241.488ZM241.488 23.12H241.688V22.92H241.488V23.12ZM231.008 23.12V13.58H230.608V23.12H231.008ZM230.808 13.78H238.628V13.38H230.808V13.78ZM238.828 13.58V12.72H238.428V13.58H238.828ZM238.628 12.52H230.808V12.92H238.628V12.52ZM231.008 12.72V2.72H230.608V12.72H231.008ZM230.808 2.92H241.408V2.52H230.808V2.92ZM241.608 2.72V1.8H241.208V2.72H241.608ZM241.408 1.6H228.648V2H241.408V1.6ZM228.448 1.8V22.66H228.848V1.8H228.448ZM228.543 22.83L230.703 24.17L230.914 23.83L228.754 22.49L228.543 22.83ZM230.808 24.2H241.488V23.8H230.808V24.2ZM241.688 24V23.12H241.288V24H241.688ZM241.488 22.92H230.808V23.32H241.488V22.92Z" />
</svg>
