<svg width="163" height="60" viewBox="0 0 163 60" fill="black" xmlns="http://www.w3.org/2000/svg">
  <path d="M12.34 16.38H4.78L9 5.04L12.34 16.38ZM4.32 17.62H12.7L14.5 24L16.7 23.2L10.12 1.8L9.02 2.5L0.78 23.58L1.88 24L4.32 17.62ZM31.5694 22.22C23.6294 25.1 17.2894 6.06 24.1094 3.3C25.7094 2.64 28.9894 2.62 31.6294 6.64H34.1294C31.4494 0.88 26.1894 1.8 26.1894 1.8C26.1894 1.8 19.7494 2.44 19.7494 11.3C19.7494 20.12 25.1694 24 29.1094 24C31.2094 24 34.1694 22.64 34.4694 17.36H33.0294C33.1894 20.22 32.9494 21.72 31.5694 22.22ZM50.417 22.22C42.477 25.1 36.137 6.06 42.957 3.3C44.557 2.64 47.837 2.62 50.477 6.64H52.977C50.297 0.88 45.037 1.8 45.037 1.8C45.037 1.8 38.597 2.44 38.597 11.3C38.597 20.12 44.017 24 47.957 24C50.057 24 53.017 22.64 53.317 17.36H51.877C52.037 20.22 51.797 21.72 50.417 22.22ZM60.1247 23.12V13.58H67.9447V12.72H60.1247V2.72H70.7247V1.8H57.9647V22.66L60.1247 24H70.8047V23.12H60.1247ZM80.7639 1.8C75.4039 1.8 73.1239 6.08 73.2839 10.14C73.4839 14.76 83.1439 10.3 85.0639 12.14C87.6439 14.64 82.8639 23.42 80.7239 23.42C75.7239 23.42 75.7039 18.5 75.7039 18.5H73.4039C73.4039 19.18 73.5439 24 80.0439 24C83.8039 24 88.1239 19.34 88.1239 14.72C88.1239 8.5 76.1839 12.44 75.5839 9.36C74.9839 6.38 76.2639 2.72 78.7639 2.72C83.3439 2.72 84.0639 6.28 84.0639 6.28H86.7639C86.6039 5.44 84.7639 1.8 80.7639 1.8ZM98.4592 1.8C93.0992 1.8 90.8192 6.08 90.9792 10.14C91.1792 14.76 100.839 10.3 102.759 12.14C105.339 14.64 100.559 23.42 98.4192 23.42C93.4192 23.42 93.3992 18.5 93.3992 18.5H91.0992C91.0992 19.18 91.2392 24 97.7392 24C101.499 24 105.819 19.34 105.819 14.72C105.819 8.5 93.8792 12.44 93.2792 9.36C92.6792 6.38 93.9592 2.72 96.4592 2.72C101.039 2.72 101.759 6.28 101.759 6.28H104.459C104.299 5.44 102.459 1.8 98.4592 1.8ZM112.135 24V1.8H110.255V24H112.135ZM126.289 23.22C123.929 23.22 122.869 21.8 122.149 20.18H120.409V12.58H123.509C128.129 12.58 129.169 16.7 129.169 18.86C129.169 20.94 128.329 23.22 126.289 23.22ZM122.229 2.52C126.409 2.52 127.749 6.54 127.749 8.26C127.749 11.22 124.389 11.8 123.249 11.8H120.409V2.52H122.229ZM126.569 11.52C126.569 11.52 129.089 9.56 129.129 6.46C129.169 4.06 127.029 1.8 124.569 1.8H120.389H118.529V24H120.409V21.28C121.049 22.22 122.489 24 124.809 24C128.769 24 130.649 20.62 130.649 17.02C130.669 12.9 126.569 11.52 126.569 11.52ZM136.506 23V1.8H134.446V24H145.346V23H136.506ZM152.273 23.12V13.58H160.093V12.72H152.273V2.72H162.873V1.8H150.113V22.66L152.273 24H162.953V23.12H152.273ZM14.46 54.22C6.52 57.1 0.18 38.06 7 35.3C8.6 34.64 11.88 34.62 14.52 38.64H17.02C14.34 32.88 9.08 33.8 9.08 33.8C9.08 33.8 2.64 34.44 2.64 43.3C2.64 52.12 8.06 56 12 56C14.1 56 17.06 54.64 17.36 49.36H15.92C16.08 52.22 15.84 53.72 14.46 54.22ZM32.4277 54.1C25.0077 59.9 17.1277 37.74 25.6077 34.86C29.4677 33.54 32.4477 38.28 32.9877 39.32C35.6477 44.32 35.1677 51.94 32.4277 54.1ZM34.9077 37.7C32.5277 33.52 28.6877 33.52 28.6877 33.52C28.6877 33.52 22.1477 32.54 20.6077 41.32C19.0677 50.04 24.3277 55.86 27.8677 56.22C28.9877 56.34 30.4077 56.16 31.6077 55.5C31.6077 55.5 34.4277 54.12 35.7277 50.46C37.5677 45.18 36.4077 40.34 34.9077 37.7ZM43.3613 55V33.8H41.3013V56H52.2013V55H43.3613ZM67.3886 54.1C59.9686 59.9 52.0886 37.74 60.5686 34.86C64.4286 33.54 67.4086 38.28 67.9486 39.32C70.6086 44.32 70.1286 51.94 67.3886 54.1ZM69.8686 37.7C67.4886 33.52 63.6486 33.52 63.6486 33.52C63.6486 33.52 57.1086 32.54 55.5686 41.32C54.0286 50.04 59.2886 55.86 62.8286 56.22C63.9486 56.34 65.3686 56.16 66.5686 55.5C66.5686 55.5 69.3886 54.12 70.6886 50.46C72.5286 45.18 71.3686 40.34 69.8686 37.7ZM78.8622 34.52H80.6822C84.8622 34.52 86.0222 38.46 86.0222 40.2C86.0222 44.56 81.8622 44.58 80.7222 44.78C80.0022 44.9 78.8622 44.9 78.8622 44.9V34.52ZM83.7222 44.82C83.7222 44.82 84.8822 44.18 85.2622 43.88C86.1822 43.14 87.6622 41.86 87.6622 38.4C87.6622 36 85.7222 33.8 83.0222 33.8H76.9622V56H78.8622V45.78C78.8622 45.78 81.8022 45.34 82.9222 46.48C84.3822 47.92 86.6622 56 88.9222 56L89.9222 54.84C88.0622 54.84 85.5222 44.82 83.7222 44.82ZM100.139 33.8C94.7789 33.8 92.4989 38.08 92.6589 42.14C92.8589 46.76 102.519 42.3 104.439 44.14C107.019 46.64 102.239 55.42 100.099 55.42C95.0989 55.42 95.0789 50.5 95.0789 50.5H92.7789C92.7789 51.18 92.9189 56 99.4189 56C103.179 56 107.499 51.34 107.499 46.72C107.499 40.5 95.5589 44.44 94.9589 41.36C94.3589 38.38 95.6389 34.72 98.1389 34.72C102.719 34.72 103.439 38.28 103.439 38.28H106.139C105.979 37.44 104.139 33.8 100.139 33.8Z" />
  <path d="M12.34 16.38V16.58H12.6074L12.5319 16.3235L12.34 16.38ZM4.78 16.38L4.59256 16.3102L4.49217 16.58H4.78V16.38ZM9 5.04L9.19185 4.98349L9.0221 4.40716L8.81256 4.97024L9 5.04ZM4.32 17.62V17.42H4.18236L4.1332 17.5486L4.32 17.62ZM12.7 17.62L12.8925 17.5657L12.8514 17.42H12.7V17.62ZM14.5 24L14.3075 24.0543L14.366 24.2615L14.5683 24.188L14.5 24ZM16.7 23.2L16.7683 23.388L16.9471 23.323L16.8912 23.1412L16.7 23.2ZM10.12 1.8L10.3112 1.74122L10.234 1.49037L10.0126 1.63127L10.12 1.8ZM9.02 2.5L8.91263 2.33127L8.85751 2.36634L8.83373 2.42719L9.02 2.5ZM0.78 23.58L0.593725 23.5072L0.520335 23.6949L0.70866 23.7668L0.78 23.58ZM1.88 24L1.80866 24.1868L1.9954 24.2581L2.0668 24.0714L1.88 24ZM12.34 16.18H4.78V16.58H12.34V16.18ZM4.96744 16.4498L9.18744 5.10975L8.81256 4.97024L4.59256 16.3102L4.96744 16.4498ZM8.80815 5.09651L12.1481 16.4365L12.5319 16.3235L9.19185 4.98349L8.80815 5.09651ZM4.32 17.82H12.7V17.42H4.32V17.82ZM12.5075 17.6743L14.3075 24.0543L14.6925 23.9457L12.8925 17.5657L12.5075 17.6743ZM14.5683 24.188L16.7683 23.388L16.6317 23.012L14.4317 23.812L14.5683 24.188ZM16.8912 23.1412L10.3112 1.74122L9.92883 1.85878L16.5088 23.2588L16.8912 23.1412ZM10.0126 1.63127L8.91263 2.33127L9.12738 2.66873L10.2274 1.96873L10.0126 1.63127ZM8.83373 2.42719L0.593725 23.5072L0.966275 23.6528L9.20627 2.57281L8.83373 2.42719ZM0.70866 23.7668L1.80866 24.1868L1.95134 23.8132L0.85134 23.3932L0.70866 23.7668ZM2.0668 24.0714L4.5068 17.6914L4.1332 17.5486L1.6932 23.9286L2.0668 24.0714ZM31.5694 22.22L31.5012 22.032L31.5012 22.032L31.5694 22.22ZM24.1094 3.3L24.1844 3.4854L24.1856 3.48489L24.1094 3.3ZM31.6294 6.64L31.4622 6.74979L31.5214 6.84H31.6294V6.64ZM34.1294 6.64V6.84H34.443L34.3107 6.55563L34.1294 6.64ZM26.1894 1.8L26.2092 1.99902L26.2165 1.99829L26.2238 1.99701L26.1894 1.8ZM34.4694 17.36L34.6691 17.3713L34.6811 17.16H34.4694V17.36ZM33.0294 17.36V17.16H32.8179L32.8297 17.3712L33.0294 17.36ZM31.5012 22.032C29.6061 22.7194 27.7962 22.1086 26.2277 20.7173C24.6556 19.3227 23.3474 17.1586 22.4923 14.8067C21.6375 12.4552 21.2437 9.93806 21.48 7.84809C21.7167 5.75498 22.5766 4.13605 24.1844 3.48539L24.0343 3.1146C22.2321 3.84395 21.3271 5.64002 21.0825 7.80315C20.8376 9.96944 21.2463 12.5498 22.1164 14.9433C22.9864 17.3364 24.3257 19.5648 25.9623 21.0165C27.6025 22.4714 29.5627 23.1606 31.6376 22.408L31.5012 22.032ZM24.1856 3.48489C25.6973 2.86133 28.875 2.81024 31.4622 6.74979L31.7965 6.53021C29.1037 2.42976 25.7214 2.41867 24.0331 3.11511L24.1856 3.48489ZM31.6294 6.84H34.1294V6.44H31.6294V6.84ZM34.3107 6.55563C32.9443 3.61897 30.9111 2.37305 29.2113 1.86828C28.3645 1.61681 27.604 1.55011 27.0545 1.54625C26.7796 1.54433 26.557 1.55813 26.402 1.57258C26.3246 1.57981 26.2639 1.58721 26.2221 1.5929C26.2012 1.59575 26.185 1.59817 26.1737 1.59993C26.1681 1.60081 26.1637 1.60152 26.1605 1.60204C26.159 1.6023 26.1577 1.60251 26.1568 1.60267C26.1563 1.60275 26.1559 1.60282 26.1556 1.60287C26.1554 1.6029 26.1553 1.60293 26.1552 1.60294C26.155 1.60297 26.1549 1.60299 26.1894 1.8C26.2238 1.99701 26.2237 1.99702 26.2237 1.99704C26.2237 1.99704 26.2236 1.99705 26.2236 1.99704C26.2236 1.99704 26.2237 1.99703 26.2239 1.997C26.2242 1.99694 26.2249 1.99683 26.2259 1.99667C26.2278 1.99635 26.231 1.99583 26.2354 1.99515C26.2442 1.99378 26.2578 1.99173 26.2761 1.98925C26.3126 1.98427 26.3676 1.97753 26.4392 1.97085C26.5824 1.9575 26.7916 1.94442 27.0517 1.94624C27.5723 1.94989 28.2942 2.01319 29.0974 2.25172C30.6977 2.72695 32.6344 3.90103 33.948 6.72437L34.3107 6.55563ZM26.1894 1.8C26.1696 1.60098 26.1694 1.601 26.1693 1.60101C26.1692 1.60102 26.169 1.60104 26.1688 1.60106C26.1684 1.6011 26.1679 1.60115 26.1674 1.60121C26.1662 1.60133 26.1647 1.60149 26.1628 1.6017C26.159 1.60212 26.1536 1.60274 26.1468 1.60357C26.1331 1.60523 26.1135 1.60777 26.0883 1.61143C26.038 1.61874 25.9655 1.6305 25.8739 1.6486C25.6908 1.68479 25.4312 1.74637 25.1207 1.84844C24.4999 2.05248 23.6728 2.41916 22.8457 3.07035C21.1832 4.37917 19.5494 6.8144 19.5494 11.3H19.9494C19.9494 6.9256 21.5356 4.61083 23.0931 3.38464C23.8759 2.76834 24.6589 2.42127 25.2456 2.22844C25.5388 2.13207 25.7823 2.07443 25.9514 2.04101C26.036 2.0243 26.1018 2.01367 26.1458 2.00727C26.1678 2.00408 26.1843 2.00194 26.195 2.00064C26.2004 1.99999 26.2043 1.99955 26.2066 1.99929C26.2078 1.99916 26.2086 1.99908 26.209 1.99903C26.2093 1.99901 26.2094 1.999 26.2094 1.999C26.2094 1.99899 26.2093 1.999 26.2093 1.999C26.2093 1.99901 26.2092 1.99902 26.1894 1.8ZM19.5494 11.3C19.5494 20.2082 25.0379 24.2 29.1094 24.2V23.8C25.3008 23.8 19.9494 20.0318 19.9494 11.3H19.5494ZM29.1094 24.2C30.2008 24.2 31.519 23.8465 32.603 22.8042C33.6883 21.7606 34.517 20.0478 34.6691 17.3713L34.2697 17.3487C34.1218 19.9522 33.3204 21.5594 32.3258 22.5158C31.3298 23.4735 30.1179 23.8 29.1094 23.8V24.2ZM34.4694 17.16H33.0294V17.56H34.4694V17.16ZM32.8297 17.3712C32.9097 18.8005 32.8871 19.8621 32.6837 20.6234C32.4844 21.3688 32.1176 21.8087 31.5012 22.032L31.6375 22.408C32.4012 22.1313 32.8444 21.5712 33.0701 20.7266C33.2916 19.8979 33.3091 18.7795 33.2291 17.3488L32.8297 17.3712ZM50.417 22.22L50.3489 22.032L50.3488 22.032L50.417 22.22ZM42.957 3.3L43.0321 3.4854L43.0333 3.48489L42.957 3.3ZM50.477 6.64L50.3099 6.74979L50.3691 6.84H50.477V6.64ZM52.977 6.64V6.84H53.2907L53.1584 6.55563L52.977 6.64ZM45.037 1.8L45.0568 1.99902L45.0642 1.99829L45.0715 1.99701L45.037 1.8ZM53.317 17.36L53.5167 17.3713L53.5287 17.16H53.317V17.36ZM51.877 17.36V17.16H51.6655L51.6773 17.3712L51.877 17.36ZM50.3488 22.032C48.4538 22.7194 46.6439 22.1086 45.0754 20.7173C43.5032 19.3227 42.195 17.1586 41.34 14.8067C40.4851 12.4552 40.0913 9.93806 40.3276 7.84809C40.5643 5.75498 41.4243 4.13605 43.0321 3.48539L42.882 3.1146C41.0798 3.84395 40.1748 5.64002 39.9302 7.80315C39.6852 9.96944 40.0939 12.5498 40.9641 14.9433C41.834 17.3364 43.1733 19.5648 44.8099 21.0165C46.4502 22.4714 48.4103 23.1606 50.4852 22.408L50.3488 22.032ZM43.0333 3.48489C44.545 2.86133 47.7227 2.81024 50.3099 6.74979L50.6442 6.53021C47.9514 2.42976 44.5691 2.41867 42.8808 3.11511L43.0333 3.48489ZM50.477 6.84H52.977V6.44H50.477V6.84ZM53.1584 6.55563C51.792 3.61897 49.7587 2.37305 48.059 1.86828C47.2122 1.61681 46.4516 1.55011 45.9022 1.54625C45.6273 1.54433 45.4046 1.55813 45.2497 1.57258C45.1722 1.57981 45.1116 1.58721 45.0698 1.5929C45.0489 1.59575 45.0327 1.59817 45.0214 1.59993C45.0157 1.60081 45.0113 1.60152 45.0082 1.60204C45.0066 1.6023 45.0054 1.60251 45.0044 1.60267C45.004 1.60275 45.0036 1.60282 45.0033 1.60287C45.0031 1.6029 45.0029 1.60293 45.0029 1.60294C45.0027 1.60297 45.0026 1.60299 45.037 1.8C45.0715 1.99701 45.0714 1.99702 45.0713 1.99704C45.0713 1.99704 45.0713 1.99705 45.0713 1.99704C45.0713 1.99704 45.0714 1.99703 45.0716 1.997C45.0719 1.99694 45.0726 1.99683 45.0735 1.99667C45.0755 1.99635 45.0786 1.99583 45.083 1.99515C45.0918 1.99378 45.1055 1.99173 45.1237 1.98925C45.1603 1.98427 45.2153 1.97753 45.2869 1.97085C45.43 1.9575 45.6393 1.94442 45.8994 1.94624C46.4199 1.94989 47.1419 2.01319 47.9451 2.25172C49.5453 2.72695 51.4821 3.90103 52.7957 6.72437L53.1584 6.55563ZM45.037 1.8C45.0173 1.60098 45.0171 1.601 45.0169 1.60101C45.0168 1.60102 45.0166 1.60104 45.0164 1.60106C45.0161 1.6011 45.0156 1.60115 45.015 1.60121C45.0139 1.60133 45.0123 1.60149 45.0104 1.6017C45.0066 1.60212 45.0013 1.60274 44.9944 1.60357C44.9807 1.60523 44.9611 1.60777 44.936 1.61143C44.8856 1.61874 44.8131 1.6305 44.7215 1.6486C44.5384 1.68479 44.2789 1.74637 43.9683 1.84844C43.3475 2.05248 42.5205 2.41916 41.6933 3.07035C40.0308 4.37917 38.397 6.8144 38.397 11.3H38.797C38.797 6.9256 40.3832 4.61083 41.9407 3.38464C42.7236 2.76834 43.5065 2.42127 44.0932 2.22844C44.3864 2.13207 44.63 2.07443 44.7991 2.04101C44.8836 2.0243 44.9494 2.01367 44.9935 2.00727C45.0155 2.00408 45.032 2.00194 45.0427 2.00064C45.048 1.99999 45.0519 1.99955 45.0543 1.99929C45.0555 1.99916 45.0563 1.99908 45.0567 1.99903C45.0569 1.99901 45.057 1.999 45.057 1.999C45.0571 1.99899 45.057 1.999 45.057 1.999C45.0569 1.99901 45.0568 1.99902 45.037 1.8ZM38.397 11.3C38.397 20.2082 43.8856 24.2 47.957 24.2V23.8C44.1485 23.8 38.797 20.0318 38.797 11.3H38.397ZM47.957 24.2C49.0485 24.2 50.3666 23.8465 51.4507 22.8042C52.536 21.7606 53.3646 20.0478 53.5167 17.3713L53.1174 17.3487C52.9694 19.9522 52.1681 21.5594 51.1734 22.5158C50.1774 23.4735 48.9656 23.8 47.957 23.8V24.2ZM53.317 17.16H51.877V17.56H53.317V17.16ZM51.6773 17.3712C51.7573 18.8005 51.7348 19.8621 51.5313 20.6234C51.3321 21.3688 50.9652 21.8087 50.3489 22.032L50.4852 22.408C51.2488 22.1313 51.692 21.5712 51.9177 20.7266C52.1393 19.8979 52.1568 18.7795 52.0767 17.3488L51.6773 17.3712ZM60.1247 23.12H59.9247V23.32H60.1247V23.12ZM60.1247 13.58V13.38H59.9247V13.58H60.1247ZM67.9447 13.58V13.78H68.1447V13.58H67.9447ZM67.9447 12.72H68.1447V12.52H67.9447V12.72ZM60.1247 12.72H59.9247V12.92H60.1247V12.72ZM60.1247 2.72V2.52H59.9247V2.72H60.1247ZM70.7247 2.72V2.92H70.9247V2.72H70.7247ZM70.7247 1.8H70.9247V1.6H70.7247V1.8ZM57.9647 1.8V1.6H57.7647V1.8H57.9647ZM57.9647 22.66H57.7647V22.7713L57.8593 22.83L57.9647 22.66ZM60.1247 24L60.0193 24.17L60.0677 24.2H60.1247V24ZM70.8047 24V24.2H71.0047V24H70.8047ZM70.8047 23.12H71.0047V22.92H70.8047V23.12ZM60.3247 23.12V13.58H59.9247V23.12H60.3247ZM60.1247 13.78H67.9447V13.38H60.1247V13.78ZM68.1447 13.58V12.72H67.7447V13.58H68.1447ZM67.9447 12.52H60.1247V12.92H67.9447V12.52ZM60.3247 12.72V2.72H59.9247V12.72H60.3247ZM60.1247 2.92H70.7247V2.52H60.1247V2.92ZM70.9247 2.72V1.8H70.5247V2.72H70.9247ZM70.7247 1.6H57.9647V2H70.7247V1.6ZM57.7647 1.8V22.66H58.1647V1.8H57.7647ZM57.8593 22.83L60.0193 24.17L60.2301 23.83L58.0701 22.49L57.8593 22.83ZM60.1247 24.2H70.8047V23.8H60.1247V24.2ZM71.0047 24V23.12H70.6047V24H71.0047ZM70.8047 22.92H60.1247V23.32H70.8047V22.92ZM73.2839 10.14L73.0841 10.1479L73.0841 10.1486L73.2839 10.14ZM85.0639 12.14L85.2031 11.9964L85.2023 11.9956L85.0639 12.14ZM75.7039 18.5L75.9039 18.4992L75.9031 18.3H75.7039V18.5ZM73.4039 18.5V18.3H73.2039V18.5H73.4039ZM75.5839 9.36L75.7802 9.32176L75.78 9.32052L75.5839 9.36ZM84.0639 6.28L83.8679 6.31965L83.9003 6.48H84.0639V6.28ZM86.7639 6.28V6.48H87.0056L86.9604 6.24258L86.7639 6.28ZM80.7639 1.6C78.0242 1.6 76.0549 2.69693 74.7957 4.32515C73.5414 5.94705 73.0026 8.08095 73.0841 10.1479L73.4837 10.1321C73.4052 8.13905 73.9265 6.10295 75.1121 4.56985C76.2929 3.04307 78.1436 2 80.7639 2V1.6ZM73.0841 10.1486C73.1107 10.7635 73.2964 11.2455 73.6191 11.6096C73.9397 11.9713 74.3802 12.1991 74.8868 12.3359C75.8915 12.6073 77.2128 12.5348 78.5517 12.3812C79.9111 12.2252 81.2799 11.9874 82.4562 11.9004C83.04 11.8572 83.5592 11.8531 83.9868 11.9133C84.4172 11.974 84.7294 12.0965 84.9255 12.2844L85.2023 11.9956C84.9184 11.7235 84.5088 11.5829 84.0426 11.5172C83.5736 11.4511 83.0215 11.4575 82.4267 11.5015C81.2454 11.5889 79.8267 11.8323 78.5061 11.9838C77.165 12.1377 75.9138 12.199 74.9911 11.9497C74.5338 11.8262 74.1718 11.6301 73.9184 11.3442C73.6671 11.0607 73.5071 10.6715 73.4837 10.1313L73.0841 10.1486ZM84.9247 12.2836C85.5034 12.8444 85.6928 13.7834 85.5762 14.9371C85.4603 16.083 85.0463 17.3931 84.4818 18.6347C83.9177 19.8755 83.209 21.0356 82.5132 21.8821C82.165 22.3056 81.8245 22.6452 81.5115 22.8772C81.1939 23.1126 80.9278 23.22 80.7239 23.22V23.62C81.055 23.62 81.4064 23.453 81.7497 23.1985C82.0977 22.9406 82.4615 22.5747 82.8222 22.1361C83.5439 21.2581 84.2701 20.067 84.846 18.8003C85.4215 17.5344 85.8525 16.1807 85.9741 14.9773C86.095 13.7816 85.9144 12.6856 85.2031 11.9964L84.9247 12.2836ZM80.7239 23.22C79.5083 23.22 78.6085 22.9215 77.9397 22.4839C77.2697 22.0456 76.8197 21.46 76.5169 20.8688C76.2137 20.2768 76.0599 19.6825 75.9822 19.2346C75.9435 19.0111 75.9238 18.8253 75.9139 18.6961C75.909 18.6316 75.9065 18.5813 75.9052 18.5477C75.9046 18.5309 75.9042 18.5182 75.9041 18.51C75.904 18.5059 75.9039 18.503 75.9039 18.5011C75.9039 18.5002 75.9039 18.4996 75.9039 18.4993C75.9039 18.4991 75.9039 18.499 75.9039 18.499C75.9039 18.499 75.9039 18.499 75.9039 18.499C75.9039 18.4991 75.9039 18.4992 75.7039 18.5C75.5039 18.5008 75.5039 18.5009 75.5039 18.5011C75.5039 18.5011 75.5039 18.5013 75.5039 18.5014C75.5039 18.5017 75.5039 18.5021 75.5039 18.5025C75.5039 18.5034 75.5039 18.5045 75.504 18.506C75.504 18.5089 75.5041 18.513 75.5042 18.5182C75.5044 18.5286 75.5048 18.5436 75.5055 18.5628C75.507 18.6013 75.5098 18.6567 75.5151 18.7267C75.5258 18.8666 75.5469 19.0652 75.5881 19.3029C75.6704 19.7775 75.8341 20.4132 76.1609 21.0512C76.4881 21.69 76.9806 22.3344 77.7207 22.8186C78.4618 23.3035 79.4396 23.62 80.7239 23.62V23.22ZM75.7039 18.3H73.4039V18.7H75.7039V18.3ZM73.2039 18.5C73.2039 18.8523 73.2393 20.2754 74.1193 21.6148C75.0089 22.969 76.7366 24.2 80.0439 24.2V23.8C76.8512 23.8 75.2589 22.621 74.4536 21.3952C73.6385 20.1546 73.6039 18.8277 73.6039 18.5H73.2039ZM80.0439 24.2C82.0016 24.2 84.0717 22.9923 85.6433 21.2254C87.2179 19.4553 88.3239 17.0898 88.3239 14.72H87.9239C87.9239 16.9702 86.8699 19.2447 85.3445 20.9596C83.8161 22.6777 81.8462 23.8 80.0439 23.8V24.2ZM88.3239 14.72C88.3239 13.9091 88.1288 13.2505 87.7763 12.7196C87.4245 12.1897 86.925 11.8003 86.337 11.512C85.1687 10.9392 83.6211 10.7516 82.0905 10.6628C80.5395 10.5729 79.0179 10.5837 77.8229 10.424C77.2283 10.3445 76.7401 10.2251 76.3871 10.042C76.0402 9.86196 75.8403 9.63013 75.7802 9.32176L75.3876 9.39824C75.4775 9.85987 75.782 10.1787 76.2029 10.397C76.6177 10.6122 77.1607 10.739 77.7699 10.8204C78.9824 10.9825 80.5583 10.9746 82.0673 11.0622C83.5967 11.1509 85.0716 11.3371 86.1609 11.8711C86.7016 12.1363 87.1395 12.4836 87.4431 12.9408C87.7459 13.397 87.9239 13.9759 87.9239 14.72H88.3239ZM75.78 9.32052C75.4876 7.8685 75.6544 6.25018 76.1949 5.00197C76.7372 3.74959 77.6282 2.92 78.7639 2.92V2.52C77.3996 2.52 76.4006 3.52041 75.8279 4.84303C75.2534 6.16982 75.0802 7.8715 75.3878 9.39948L75.78 9.32052ZM78.7639 2.92C80.9938 2.92 82.2634 3.78315 82.9787 4.62913C83.3389 5.05522 83.5622 5.48149 83.6952 5.80067C83.7617 5.9601 83.8053 6.09225 83.8322 6.18347C83.8456 6.22905 83.8547 6.26435 83.8605 6.28763C83.8633 6.29928 83.8653 6.30791 83.8665 6.31332C83.8671 6.31602 83.8675 6.31792 83.8677 6.31898C83.8678 6.31952 83.8679 6.31984 83.8679 6.31995C83.868 6.32001 83.868 6.32001 83.8679 6.31996C83.8679 6.31993 83.8679 6.31985 83.8679 6.31984C83.8679 6.31975 83.8679 6.31965 84.0639 6.28C84.2599 6.24035 84.2599 6.24022 84.2599 6.24008C84.2599 6.24001 84.2598 6.23985 84.2598 6.23972C84.2598 6.23945 84.2597 6.23913 84.2596 6.23875C84.2595 6.238 84.2593 6.23703 84.259 6.23586C84.2585 6.2335 84.2578 6.23029 84.2569 6.22626C84.2551 6.21819 84.2525 6.20684 84.249 6.1924C84.2419 6.16354 84.2311 6.12235 84.2159 6.07059C84.1855 5.96712 84.1371 5.82115 84.0645 5.64683C83.9193 5.29851 83.6764 4.83478 83.2841 4.37087C82.4944 3.43685 81.114 2.52 78.7639 2.52V2.92ZM84.0639 6.48H86.7639V6.08H84.0639V6.48ZM86.9604 6.24258C86.9146 6.0025 86.7583 5.59602 86.4959 5.12783C86.2311 4.65544 85.8512 4.10743 85.3478 3.58608C84.34 2.54226 82.8309 1.6 80.7639 1.6V2C82.6969 2 84.1079 2.87774 85.06 3.86392C85.5367 4.35757 85.8967 4.87706 86.1469 5.32342C86.3995 5.77397 86.5332 6.1375 86.5674 6.31742L86.9604 6.24258ZM90.9792 10.14L90.7794 10.1479L90.7794 10.1486L90.9792 10.14ZM102.759 12.14L102.898 11.9964L102.898 11.9956L102.759 12.14ZM93.3992 18.5L93.5992 18.4992L93.5984 18.3H93.3992V18.5ZM91.0992 18.5V18.3H90.8992V18.5H91.0992ZM93.2792 9.36L93.4755 9.32176L93.4753 9.32052L93.2792 9.36ZM101.759 6.28L101.563 6.31965L101.596 6.48H101.759V6.28ZM104.459 6.28V6.48H104.701L104.656 6.24258L104.459 6.28ZM98.4592 1.6C95.7195 1.6 93.7502 2.69693 92.491 4.32515C91.2367 5.94705 90.6979 8.08095 90.7794 10.1479L91.1791 10.1321C91.1005 8.13905 91.6218 6.10295 92.8074 4.56985C93.9882 3.04307 95.8389 2 98.4592 2V1.6ZM90.7794 10.1486C90.806 10.7635 90.9917 11.2455 91.3144 11.6096C91.6351 11.9713 92.0755 12.1991 92.5821 12.3359C93.5868 12.6073 94.9081 12.5348 96.247 12.3812C97.6064 12.2252 98.9752 11.9874 100.151 11.9004C100.735 11.8572 101.255 11.8531 101.682 11.9133C102.112 11.974 102.425 12.0965 102.621 12.2844L102.898 11.9956C102.614 11.7235 102.204 11.5829 101.738 11.5172C101.269 11.4511 100.717 11.4575 100.122 11.5015C98.9408 11.5889 97.522 11.8323 96.2014 11.9838C94.8603 12.1377 93.6091 12.199 92.6864 11.9497C92.2291 11.8262 91.8671 11.6301 91.6137 11.3442C91.3624 11.0607 91.2024 10.6715 91.179 10.1313L90.7794 10.1486ZM102.62 12.2836C103.199 12.8444 103.388 13.7834 103.271 14.9371C103.156 16.083 102.742 17.3931 102.177 18.6347C101.613 19.8755 100.904 21.0356 100.208 21.8821C99.8603 22.3056 99.5198 22.6452 99.2068 22.8772C98.8892 23.1126 98.6231 23.22 98.4192 23.22V23.62C98.7504 23.62 99.1017 23.453 99.445 23.1985C99.793 22.9406 100.157 22.5747 100.517 22.1361C101.239 21.2581 101.965 20.067 102.541 18.8003C103.117 17.5344 103.548 16.1807 103.669 14.9773C103.79 13.7816 103.61 12.6856 102.898 11.9964L102.62 12.2836ZM98.4192 23.22C97.2036 23.22 96.3038 22.9215 95.635 22.4839C94.965 22.0456 94.515 21.46 94.2122 20.8688C93.909 20.2768 93.7552 19.6825 93.6775 19.2346C93.6388 19.0111 93.6192 18.8253 93.6093 18.6961C93.6043 18.6316 93.6018 18.5813 93.6005 18.5477C93.5999 18.5309 93.5996 18.5182 93.5994 18.51C93.5993 18.5059 93.5993 18.503 93.5992 18.5011C93.5992 18.5002 93.5992 18.4996 93.5992 18.4993C93.5992 18.4991 93.5992 18.499 93.5992 18.499C93.5992 18.499 93.5992 18.499 93.5992 18.499C93.5992 18.4991 93.5992 18.4992 93.3992 18.5C93.1992 18.5008 93.1992 18.5009 93.1992 18.5011C93.1992 18.5011 93.1992 18.5013 93.1992 18.5014C93.1992 18.5017 93.1992 18.5021 93.1992 18.5025C93.1992 18.5034 93.1992 18.5045 93.1993 18.506C93.1993 18.5089 93.1994 18.513 93.1995 18.5182C93.1997 18.5286 93.2001 18.5436 93.2008 18.5628C93.2023 18.6013 93.2051 18.6567 93.2104 18.7267C93.2212 18.8666 93.2422 19.0652 93.2834 19.3029C93.3657 19.7775 93.5294 20.4132 93.8562 21.0512C94.1834 21.69 94.6759 22.3344 95.416 22.8186C96.1571 23.3035 97.1349 23.62 98.4192 23.62V23.22ZM93.3992 18.3H91.0992V18.7H93.3992V18.3ZM90.8992 18.5C90.8992 18.8523 90.9346 20.2754 91.8146 21.6148C92.7042 22.969 94.4319 24.2 97.7392 24.2V23.8C94.5466 23.8 92.9542 22.621 92.1489 21.3952C91.3338 20.1546 91.2992 18.8277 91.2992 18.5H90.8992ZM97.7392 24.2C99.6969 24.2 101.767 22.9923 103.339 21.2254C104.913 19.4553 106.019 17.0898 106.019 14.72H105.619C105.619 16.9702 104.565 19.2447 103.04 20.9596C101.511 22.6777 99.5415 23.8 97.7392 23.8V24.2ZM106.019 14.72C106.019 13.9091 105.824 13.2505 105.472 12.7196C105.12 12.1897 104.62 11.8003 104.032 11.512C102.864 10.9392 101.316 10.7516 99.7858 10.6628C98.2348 10.5729 96.7132 10.5837 95.5182 10.424C94.9237 10.3445 94.4354 10.2251 94.0824 10.042C93.7355 9.86196 93.5356 9.63013 93.4755 9.32176L93.0829 9.39824C93.1728 9.85987 93.4773 10.1787 93.8982 10.397C94.313 10.6122 94.856 10.739 95.4652 10.8204C96.6777 10.9825 98.2536 10.9746 99.7626 11.0622C101.292 11.1509 102.767 11.3371 103.856 11.8711C104.397 12.1363 104.835 12.4836 105.138 12.9408C105.441 13.397 105.619 13.9759 105.619 14.72H106.019ZM93.4753 9.32052C93.1829 7.8685 93.3498 6.25018 93.8903 5.00197C94.4325 3.74959 95.3235 2.92 96.4592 2.92V2.52C95.0949 2.52 94.0959 3.52041 93.5232 4.84303C92.9487 6.16982 92.7755 7.8715 93.0832 9.39948L93.4753 9.32052ZM96.4592 2.92C98.6892 2.92 99.9587 3.78315 100.674 4.62913C101.034 5.05522 101.258 5.48149 101.391 5.80067C101.457 5.9601 101.501 6.09225 101.527 6.18347C101.541 6.22905 101.55 6.26435 101.556 6.28763C101.559 6.29928 101.561 6.30791 101.562 6.31332C101.562 6.31602 101.563 6.31792 101.563 6.31898C101.563 6.31952 101.563 6.31984 101.563 6.31995C101.563 6.32001 101.563 6.32001 101.563 6.31996C101.563 6.31993 101.563 6.31985 101.563 6.31984C101.563 6.31975 101.563 6.31965 101.759 6.28C101.955 6.24035 101.955 6.24022 101.955 6.24008C101.955 6.24001 101.955 6.23985 101.955 6.23972C101.955 6.23945 101.955 6.23913 101.955 6.23875C101.955 6.238 101.955 6.23703 101.954 6.23586C101.954 6.2335 101.953 6.23029 101.952 6.22626C101.95 6.21819 101.948 6.20684 101.944 6.1924C101.937 6.16354 101.926 6.12235 101.911 6.07059C101.881 5.96712 101.832 5.82115 101.76 5.64683C101.615 5.29851 101.372 4.83478 100.979 4.37087C100.19 3.43685 98.8093 2.52 96.4592 2.52V2.92ZM101.759 6.48H104.459V6.08H101.759V6.48ZM104.656 6.24258C104.61 6.0025 104.454 5.59602 104.191 5.12783C103.926 4.65544 103.546 4.10743 103.043 3.58608C102.035 2.54226 100.526 1.6 98.4592 1.6V2C100.392 2 101.803 2.87774 102.755 3.86392C103.232 4.35757 103.592 4.87706 103.842 5.32342C104.095 5.77397 104.228 6.1375 104.263 6.31742L104.656 6.24258ZM112.135 24V24.2H112.335V24H112.135ZM112.135 1.8H112.335V1.6H112.135V1.8ZM110.255 1.8V1.6H110.055V1.8H110.255ZM110.255 24H110.055V24.2H110.255V24ZM112.335 24V1.8H111.935V24H112.335ZM112.135 1.6H110.255V2H112.135V1.6ZM110.055 1.8V24H110.455V1.8H110.055ZM110.255 24.2H112.135V23.8H110.255V24.2ZM122.149 20.18L122.332 20.0988L122.279 19.98H122.149V20.18ZM120.409 20.18H120.209V20.38H120.409V20.18ZM120.409 12.58V12.38H120.209V12.58H120.409ZM120.409 11.8H120.209V12H120.409V11.8ZM120.409 2.52V2.32H120.209V2.52H120.409ZM126.569 11.52L126.447 11.3621L126.153 11.5908L126.506 11.7096L126.569 11.52ZM129.129 6.46L128.929 6.45667V6.45742L129.129 6.46ZM118.529 1.8V1.6H118.329V1.8H118.529ZM118.529 24H118.329V24.2H118.529V24ZM120.409 24V24.2H120.609V24H120.409ZM120.409 21.28L120.575 21.1674L120.209 20.6309V21.28H120.409ZM130.649 17.02L130.449 17.019V17.02H130.649ZM126.289 23.02C125.154 23.02 124.346 22.6802 123.735 22.1557C123.118 21.6265 122.687 20.898 122.332 20.0988L121.967 20.2612C122.331 21.082 122.791 21.8735 123.474 22.4593C124.163 23.0498 125.065 23.42 126.289 23.42V23.02ZM122.149 19.98H120.409V20.38H122.149V19.98ZM120.609 20.18V12.58H120.209V20.18H120.609ZM120.409 12.78H123.509V12.38H120.409V12.78ZM123.509 12.78C125.748 12.78 127.101 13.7721 127.904 15.0183C128.714 16.2763 128.969 17.805 128.969 18.86H129.369C129.369 17.755 129.105 16.1437 128.24 14.8017C127.368 13.4479 125.891 12.38 123.509 12.38V12.78ZM128.969 18.86C128.969 19.8777 128.763 20.931 128.32 21.7222C127.88 22.5069 127.219 23.02 126.289 23.02V23.42C127.4 23.42 128.178 22.7931 128.669 21.9178C129.156 21.049 129.369 19.9223 129.369 18.86H128.969ZM122.229 2.72C124.244 2.72 125.567 3.68416 126.393 4.86001C127.226 6.04474 127.549 7.43918 127.549 8.26H127.949C127.949 7.36082 127.603 5.88526 126.72 4.62999C125.832 3.36584 124.395 2.32 122.229 2.32V2.72ZM127.549 8.26C127.549 9.64467 126.772 10.4714 125.834 10.9629C124.888 11.4589 123.797 11.6 123.249 11.6V12C123.842 12 125.001 11.8511 126.02 11.3171C127.047 10.7786 127.949 9.83533 127.949 8.26H127.549ZM123.249 11.6H120.409V12H123.249V11.6ZM120.609 11.8V2.52H120.209V11.8H120.609ZM120.409 2.72H122.229V2.32H120.409V2.72ZM126.569 11.52C126.692 11.6779 126.692 11.6778 126.692 11.6778C126.692 11.6777 126.692 11.6777 126.693 11.6776C126.693 11.6775 126.693 11.6773 126.693 11.6771C126.694 11.6768 126.694 11.6763 126.695 11.6757C126.696 11.6745 126.699 11.6728 126.701 11.6707C126.707 11.6663 126.714 11.6601 126.724 11.652C126.744 11.6358 126.773 11.6121 126.809 11.581C126.88 11.5189 126.982 11.4274 127.104 11.3081C127.347 11.0697 127.671 10.7194 127.996 10.2697C128.646 9.37172 129.309 8.06726 129.329 6.46258L128.929 6.45742C128.91 7.95274 128.292 9.17828 127.672 10.0352C127.363 10.4631 127.054 10.7965 126.824 11.0225C126.709 11.1354 126.613 11.2212 126.547 11.2784C126.514 11.307 126.488 11.3284 126.471 11.3425C126.462 11.3495 126.456 11.3546 126.452 11.3579C126.45 11.3596 126.448 11.3607 126.447 11.3614C126.447 11.3618 126.447 11.362 126.447 11.3621C126.447 11.3622 126.446 11.3622 126.446 11.3622C126.446 11.3622 126.447 11.3622 126.447 11.3622C126.447 11.3622 126.447 11.3621 126.569 11.52ZM129.329 6.46333C129.371 3.95457 127.144 1.6 124.569 1.6V2C126.915 2 128.968 4.16543 128.929 6.45667L129.329 6.46333ZM124.569 1.6H120.389V2H124.569V1.6ZM120.389 1.6H118.529V2H120.389V1.6ZM118.329 1.8V24H118.729V1.8H118.329ZM118.529 24.2H120.409V23.8H118.529V24.2ZM120.609 24V21.28H120.209V24H120.609ZM120.244 21.3926C120.888 22.3383 122.38 24.2 124.809 24.2V23.8C122.598 23.8 121.211 22.1017 120.575 21.1674L120.244 21.3926ZM124.809 24.2C126.854 24.2 128.373 23.3238 129.375 21.9795C130.372 20.6418 130.849 18.8516 130.849 17.02H130.449C130.449 18.7884 129.987 20.4882 129.054 21.7405C128.126 22.9862 126.725 23.8 124.809 23.8V24.2ZM130.849 17.021C130.86 14.8849 129.799 13.458 128.746 12.5719C128.22 12.1296 127.694 11.8203 127.3 11.6214C127.102 11.5219 126.938 11.4497 126.821 11.4022C126.763 11.3784 126.717 11.3608 126.685 11.3489C126.669 11.343 126.656 11.3385 126.648 11.3355C126.643 11.3339 126.64 11.3328 126.638 11.3319C126.636 11.3315 126.635 11.3312 126.635 11.3309C126.634 11.3308 126.634 11.3307 126.634 11.3306C126.634 11.3306 126.633 11.3305 126.633 11.3305C126.633 11.3305 126.633 11.3304 126.569 11.52C126.506 11.7096 126.506 11.7095 126.505 11.7095C126.505 11.7095 126.505 11.7095 126.505 11.7095C126.505 11.7095 126.506 11.7095 126.506 11.7096C126.506 11.7097 126.506 11.7098 126.507 11.7101C126.509 11.7106 126.511 11.7115 126.515 11.7127C126.521 11.7151 126.532 11.7189 126.546 11.7241C126.574 11.7345 126.616 11.7505 126.67 11.7725C126.778 11.8165 126.933 11.8843 127.12 11.9786C127.494 12.1672 127.992 12.4604 128.488 12.8781C129.48 13.712 130.459 15.0351 130.449 17.019L130.849 17.021ZM136.506 23H136.306V23.2H136.506V23ZM136.506 1.8H136.706V1.6H136.506V1.8ZM134.446 1.8V1.6H134.246V1.8H134.446ZM134.446 24H134.246V24.2H134.446V24ZM145.346 24V24.2H145.546V24H145.346ZM145.346 23H145.546V22.8H145.346V23ZM136.706 23V1.8H136.306V23H136.706ZM136.506 1.6H134.446V2H136.506V1.6ZM134.246 1.8V24H134.646V1.8H134.246ZM134.446 24.2H145.346V23.8H134.446V24.2ZM145.546 24V23H145.146V24H145.546ZM145.346 22.8H136.506V23.2H145.346V22.8ZM152.273 23.12H152.073V23.32H152.273V23.12ZM152.273 13.58V13.38H152.073V13.58H152.273ZM160.093 13.58V13.78H160.293V13.58H160.093ZM160.093 12.72H160.293V12.52H160.093V12.72ZM152.273 12.72H152.073V12.92H152.273V12.72ZM152.273 2.72V2.52H152.073V2.72H152.273ZM162.873 2.72V2.92H163.073V2.72H162.873ZM162.873 1.8H163.073V1.6H162.873V1.8ZM150.113 1.8V1.6H149.913V1.8H150.113ZM150.113 22.66H149.913V22.7713L150.008 22.83L150.113 22.66ZM152.273 24L152.168 24.17L152.216 24.2H152.273V24ZM162.953 24V24.2H163.153V24H162.953ZM162.953 23.12H163.153V22.92H162.953V23.12ZM152.473 23.12V13.58H152.073V23.12H152.473ZM152.273 13.78H160.093V13.38H152.273V13.78ZM160.293 13.58V12.72H159.893V13.58H160.293ZM160.093 12.52H152.273V12.92H160.093V12.52ZM152.473 12.72V2.72H152.073V12.72H152.473ZM152.273 2.92H162.873V2.52H152.273V2.92ZM163.073 2.72V1.8H162.673V2.72H163.073ZM162.873 1.6H150.113V2H162.873V1.6ZM149.913 1.8V22.66H150.313V1.8H149.913ZM150.008 22.83L152.168 24.17L152.379 23.83L150.219 22.49L150.008 22.83ZM152.273 24.2H162.953V23.8H152.273V24.2ZM163.153 24V23.12H162.753V24H163.153ZM162.953 22.92H152.273V23.32H162.953V22.92ZM14.46 54.22L14.3919 54.032L14.3918 54.032L14.46 54.22ZM7 35.3L7.07503 35.4854L7.07627 35.4849L7 35.3ZM14.52 38.64L14.3528 38.7498L14.4121 38.84H14.52V38.64ZM17.02 38.64V38.84H17.3336L17.2013 38.5556L17.02 38.64ZM9.08 33.8L9.09978 33.999L9.10716 33.9983L9.11446 33.997L9.08 33.8ZM17.36 49.36L17.5597 49.3713L17.5717 49.16H17.36V49.36ZM15.92 49.36V49.16H15.7085L15.7203 49.3712L15.92 49.36ZM14.3918 54.032C12.4967 54.7194 10.6868 54.1086 9.11834 52.7173C7.5462 51.3227 6.238 49.1586 5.38296 46.8067C4.52811 44.4552 4.1343 41.9381 4.37061 39.8481C4.60728 37.755 5.46725 36.136 7.07503 35.4854L6.92497 35.1146C5.12275 35.8439 4.21772 37.64 3.97314 39.8032C3.7282 41.9694 4.13689 44.5498 5.00704 46.9433C5.877 49.3364 7.2163 51.5648 8.85291 53.0165C10.4932 54.4714 12.4533 55.1606 14.5282 54.408L14.3918 54.032ZM7.07627 35.4849C8.58793 34.8613 11.7657 34.8102 14.3528 38.7498L14.6872 38.5302C11.9943 34.4298 8.61207 34.4187 6.92373 35.1151L7.07627 35.4849ZM14.52 38.84H17.02V38.44H14.52V38.84ZM17.2013 38.5556C15.835 35.619 13.8017 34.3731 12.1019 33.8683C11.2552 33.6168 10.4946 33.5501 9.94515 33.5463C9.67025 33.5443 9.44761 33.5581 9.29267 33.5726C9.21519 33.5798 9.15457 33.5872 9.11276 33.5929C9.09185 33.5957 9.07563 33.5982 9.06435 33.5999C9.05871 33.6008 9.0543 33.6015 9.05116 33.602C9.04959 33.6023 9.04833 33.6025 9.04739 33.6027C9.04692 33.6028 9.04654 33.6028 9.04623 33.6029C9.04607 33.6029 9.0459 33.6029 9.04582 33.6029C9.04567 33.603 9.04554 33.603 9.08 33.8C9.11446 33.997 9.11437 33.997 9.1143 33.997C9.1143 33.997 9.11425 33.997 9.11425 33.997C9.11427 33.997 9.11436 33.997 9.11453 33.997C9.11487 33.9969 9.11552 33.9968 9.11649 33.9967C9.11842 33.9963 9.1216 33.9958 9.12599 33.9951C9.13478 33.9938 9.14843 33.9917 9.1667 33.9892C9.20324 33.9843 9.25825 33.9775 9.32983 33.9709C9.47302 33.9575 9.68225 33.9444 9.94235 33.9462C10.4629 33.9499 11.1848 34.0132 11.9881 34.2517C13.5883 34.7269 15.525 35.901 16.8387 38.7244L17.2013 38.5556ZM9.08 33.8C9.06022 33.601 9.06007 33.601 9.05988 33.601C9.05979 33.601 9.05958 33.601 9.0594 33.6011C9.05902 33.6011 9.05855 33.6012 9.05798 33.6012C9.05684 33.6013 9.05532 33.6015 9.05341 33.6017C9.04958 33.6021 9.04423 33.6027 9.03739 33.6036C9.02371 33.6052 9.00409 33.6078 8.97893 33.6114C8.92861 33.6187 8.85608 33.6305 8.7645 33.6486C8.58141 33.6848 8.32185 33.7464 8.0113 33.8484C7.3905 34.0525 6.56345 34.4192 5.73629 35.0704C4.0738 36.3792 2.44 38.8144 2.44 43.3H2.84C2.84 38.9256 4.4262 36.6108 5.98372 35.3846C6.76655 34.7683 7.5495 34.4213 8.1362 34.2284C8.4294 34.1321 8.67297 34.0744 8.84206 34.041C8.92658 34.0243 8.99241 34.0137 9.03642 34.0073C9.05843 34.0041 9.07497 34.0019 9.08566 34.0006C9.09101 34 9.09489 33.9996 9.09726 33.9993C9.09844 33.9992 9.09925 33.9991 9.09967 33.999C9.09988 33.999 9.1 33.999 9.10002 33.999C9.10003 33.999 9.09997 33.999 9.09997 33.999C9.09989 33.999 9.09978 33.999 9.08 33.8ZM2.44 43.3C2.44 52.2082 7.92855 56.2 12 56.2V55.8C8.19145 55.8 2.84 52.0318 2.84 43.3H2.44ZM12 56.2C13.0915 56.2 14.4096 55.8465 15.4936 54.8042C16.5789 53.7606 17.4076 52.0478 17.5597 49.3713L17.1603 49.3487C17.0124 51.9522 16.2111 53.5594 15.2164 54.5158C14.2204 55.4735 13.0085 55.8 12 55.8V56.2ZM17.36 49.16H15.92V49.56H17.36V49.16ZM15.7203 49.3712C15.8003 50.8005 15.7778 51.8621 15.5743 52.6234C15.375 53.3688 15.0082 53.8087 14.3919 54.032L14.5281 54.408C15.2918 54.1313 15.735 53.5712 15.9607 52.7266C16.1822 51.8979 16.1997 50.7795 16.1197 49.3488L15.7203 49.3712ZM32.4277 54.1L32.5508 54.2576L32.5515 54.2571L32.4277 54.1ZM25.6077 34.86L25.672 35.0494L25.6724 35.0492L25.6077 34.86ZM32.9877 39.32L32.8102 39.4122L32.8111 39.4139L32.9877 39.32ZM34.9077 37.7L35.0815 37.6012L35.0815 37.601L34.9077 37.7ZM28.6877 33.52L28.658 33.7178L28.6728 33.72H28.6877V33.52ZM20.6077 41.32L20.8046 41.3548L20.8046 41.3546L20.6077 41.32ZM27.8677 56.22L27.889 56.0211L27.8879 56.021L27.8677 56.22ZM31.6077 55.5L31.5196 55.3202L31.5113 55.3248L31.6077 55.5ZM35.7277 50.46L35.9161 50.5269L35.9165 50.5258L35.7277 50.46ZM32.3045 53.9424C31.4101 54.6415 30.5226 54.9101 29.6688 54.857C28.8115 54.8037 27.966 54.4247 27.1634 53.7889C25.5542 52.5141 24.1556 50.2364 23.2436 47.6681C22.3325 45.1022 21.9182 42.2767 22.2504 39.9248C22.5825 37.5732 23.6513 35.7356 25.672 35.0494L25.5433 34.6706C23.324 35.4244 22.1978 37.4367 21.8543 39.8689C21.5108 42.3008 21.9403 45.1928 22.8667 47.8019C23.7922 50.4086 25.2248 52.7634 26.915 54.1024C27.7621 54.7735 28.6834 55.1966 29.644 55.2563C30.6083 55.3162 31.5902 55.0085 32.5508 54.2576L32.3045 53.9424ZM25.6724 35.0492C27.5025 34.4234 29.1379 35.225 30.4099 36.3545C31.6807 37.4831 32.5471 38.9056 32.8102 39.4122L33.1652 39.2278C32.8882 38.6944 31.9946 37.2269 30.6755 36.0555C29.3574 34.885 27.5728 33.9766 25.5429 34.6708L25.6724 35.0492ZM32.8111 39.4139C34.1209 41.8761 34.6616 44.9939 34.5329 47.7657C34.4686 49.1505 34.2375 50.4417 33.8567 51.5157C33.4749 52.5923 32.9482 53.4349 32.3038 53.9429L32.5515 54.2571C33.2771 53.6851 33.8379 52.7652 34.2337 51.6493C34.6303 50.5308 34.8667 49.1995 34.9324 47.7843C35.0638 44.9561 34.5144 41.7639 33.1642 39.2261L32.8111 39.4139ZM35.0815 37.601C33.8666 35.4674 32.2747 34.395 30.9819 33.8578C30.3366 33.5897 29.767 33.4553 29.3573 33.388C29.1524 33.3543 28.9872 33.3373 28.8722 33.3287C28.8146 33.3244 28.7696 33.3223 28.7385 33.3211C28.7229 33.3206 28.7107 33.3203 28.7022 33.3202C28.698 33.3201 28.6946 33.32 28.6922 33.32C28.691 33.32 28.69 33.32 28.6892 33.32C28.6888 33.32 28.6885 33.32 28.6883 33.32C28.6881 33.32 28.688 33.32 28.6879 33.32C28.6878 33.32 28.6877 33.32 28.6877 33.52C28.6877 33.72 28.6876 33.72 28.6875 33.72C28.6875 33.72 28.6874 33.72 28.6874 33.72C28.6874 33.72 28.6874 33.72 28.6875 33.72C28.6877 33.72 28.6881 33.72 28.6887 33.72C28.69 33.72 28.6922 33.72 28.6953 33.7201C28.7014 33.7202 28.7111 33.7204 28.7243 33.7209C28.7505 33.7218 28.7903 33.7237 28.8425 33.7276C28.9467 33.7354 29.1001 33.751 29.2924 33.7827C29.6771 33.8459 30.2162 33.9728 30.8284 34.2272C32.0507 34.735 33.5687 35.7526 34.7339 37.799L35.0815 37.601ZM28.6877 33.52C28.7173 33.3222 28.7171 33.3222 28.717 33.3222C28.7169 33.3221 28.7167 33.3221 28.7165 33.3221C28.7161 33.322 28.7156 33.322 28.7151 33.3219C28.7139 33.3217 28.7124 33.3215 28.7104 33.3212C28.7066 33.3207 28.7011 33.32 28.6942 33.3191C28.6803 33.3173 28.6603 33.3149 28.6346 33.3122C28.5831 33.3069 28.5088 33.3003 28.4142 33.2953C28.2253 33.2853 27.9554 33.2812 27.6275 33.3046C26.9722 33.3512 26.0815 33.5073 25.1406 33.9463C23.247 34.8296 21.1906 36.839 20.4107 41.2854L20.8046 41.3546C21.5648 37.021 23.5483 35.1304 25.3097 34.3087C26.1963 33.8952 27.0369 33.7476 27.6559 33.7036C27.9652 33.6816 28.2183 33.6855 28.393 33.6948C28.4804 33.6994 28.548 33.7054 28.5931 33.7101C28.6156 33.7124 28.6326 33.7144 28.6435 33.7158C28.649 33.7165 28.653 33.7171 28.6554 33.7174C28.6566 33.7176 28.6574 33.7177 28.6579 33.7178C28.6581 33.7178 28.6582 33.7178 28.6582 33.7178C28.6583 33.7178 28.6582 33.7178 28.6582 33.7178C28.6581 33.7178 28.658 33.7178 28.6877 33.52ZM20.4107 41.2852C19.6323 45.693 20.5715 49.3771 22.1615 52.0084C23.745 54.629 25.9921 56.2303 27.8474 56.419L27.8879 56.021C26.2032 55.8497 24.0504 54.361 22.5038 51.8016C20.9638 49.2529 20.043 45.667 20.8046 41.3548L20.4107 41.2852ZM27.8463 56.4189C28.9997 56.5424 30.4622 56.3583 31.704 55.6752L31.5113 55.3248C30.3531 55.9617 28.9756 56.1376 27.889 56.0211L27.8463 56.4189ZM31.6077 55.5C31.6956 55.6796 31.6957 55.6796 31.6958 55.6796C31.6958 55.6795 31.6959 55.6795 31.696 55.6794C31.6962 55.6793 31.6964 55.6792 31.6967 55.6791C31.6972 55.6788 31.698 55.6785 31.6988 55.678C31.7006 55.6771 31.7031 55.6759 31.7062 55.6743C31.7124 55.6712 31.7212 55.6667 31.7325 55.6607C31.7552 55.6488 31.7879 55.6313 31.8296 55.6078C31.9128 55.5609 32.0319 55.4904 32.1782 55.3945C32.4708 55.2027 32.873 54.9091 33.316 54.4993C34.2021 53.6796 35.2532 52.3934 35.9161 50.5269L35.5392 50.3931C34.9021 52.1866 33.8932 53.4204 33.0443 54.2057C32.6199 54.5984 32.2357 54.8785 31.959 55.0599C31.8206 55.1506 31.7092 55.2165 31.6332 55.2593C31.5952 55.2807 31.566 55.2964 31.5467 55.3065C31.5371 55.3116 31.53 55.3152 31.5254 55.3175C31.5231 55.3187 31.5215 55.3195 31.5206 55.3199C31.5201 55.3202 31.5198 55.3203 31.5197 55.3204C31.5196 55.3204 31.5196 55.3204 31.5196 55.3204C31.5196 55.3204 31.5196 55.3204 31.5196 55.3204C31.5197 55.3204 31.5197 55.3204 31.6077 55.5ZM35.9165 50.5258C37.7775 45.1856 36.6069 40.2858 35.0815 37.6012L34.7338 37.7988C36.2084 40.3942 37.3578 45.1744 35.5388 50.3942L35.9165 50.5258ZM43.3613 55H43.1613V55.2H43.3613V55ZM43.3613 33.8H43.5612V33.6H43.3613V33.8ZM41.3013 33.8V33.6H41.1012V33.8H41.3013ZM41.3013 56H41.1012V56.2H41.3013V56ZM52.2013 56V56.2H52.4012V56H52.2013ZM52.2013 55H52.4012V54.8H52.2013V55ZM43.5612 55V33.8H43.1613V55H43.5612ZM43.3613 33.6H41.3013V34H43.3613V33.6ZM41.1012 33.8V56H41.5013V33.8H41.1012ZM41.3013 56.2H52.2013V55.8H41.3013V56.2ZM52.4012 56V55H52.0013V56H52.4012ZM52.2013 54.8H43.3613V55.2H52.2013V54.8ZM67.3886 54.1L67.5118 54.2576L67.5124 54.2571L67.3886 54.1ZM60.5686 34.86L60.6329 35.0494L60.6333 35.0492L60.5686 34.86ZM67.9486 39.32L67.7711 39.4122L67.772 39.4139L67.9486 39.32ZM69.8686 37.7L70.0425 37.6012L70.0424 37.601L69.8686 37.7ZM63.6486 33.52L63.619 33.7178L63.6337 33.72H63.6486V33.52ZM55.5686 41.32L55.7655 41.3548L55.7656 41.3546L55.5686 41.32ZM62.8286 56.22L62.8499 56.0211L62.8488 56.021L62.8286 56.22ZM66.5686 55.5L66.4806 55.3202L66.4722 55.3248L66.5686 55.5ZM70.6886 50.46L70.8771 50.5269L70.8775 50.5258L70.6886 50.46ZM67.2654 53.9424C66.371 54.6415 65.4836 54.9101 64.6298 54.857C63.7724 54.8037 62.9269 54.4247 62.1243 53.7889C60.5152 52.5141 59.1165 50.2364 58.2046 47.6681C57.2935 45.1022 56.8792 42.2767 57.2113 39.9248C57.5434 37.5732 58.6122 35.7356 60.6329 35.0494L60.5043 34.6706C58.285 35.4244 57.1587 37.4367 56.8152 39.8689C56.4718 42.3008 56.9012 45.1928 57.8276 47.8019C58.7532 50.4086 60.1858 52.7634 61.876 54.1024C62.7231 54.7735 63.6443 55.1966 64.605 55.2563C65.5693 55.3162 66.5511 55.0085 67.5118 54.2576L67.2654 53.9424ZM60.6333 35.0492C62.4634 34.4234 64.0988 35.225 65.3708 36.3545C66.6416 37.4831 67.5081 38.9056 67.7711 39.4122L68.1261 39.2278C67.8491 38.6944 66.9556 37.2269 65.6364 36.0555C64.3184 34.885 62.5337 33.9766 60.5039 34.6708L60.6333 35.0492ZM67.772 39.4139C69.0819 41.8761 69.6225 44.9939 69.4938 47.7657C69.4295 49.1505 69.1984 50.4417 68.8176 51.5157C68.4358 52.5923 67.9092 53.4349 67.2648 53.9429L67.5124 54.2571C68.238 53.6851 68.7989 52.7652 69.1946 51.6493C69.5912 50.5308 69.8277 49.1995 69.8934 47.7843C70.0247 44.9561 69.4753 41.7639 68.1252 39.2261L67.772 39.4139ZM70.0424 37.601C68.8276 35.4674 67.2356 34.395 65.9428 33.8578C65.2976 33.5897 64.728 33.4553 64.3182 33.388C64.1133 33.3543 63.9481 33.3373 63.8331 33.3287C63.7756 33.3244 63.7306 33.3223 63.6994 33.3211C63.6838 33.3206 63.6717 33.3203 63.6632 33.3202C63.6589 33.3201 63.6555 33.32 63.6531 33.32C63.6519 33.32 63.6509 33.32 63.6502 33.32C63.6498 33.32 63.6495 33.32 63.6492 33.32C63.6491 33.32 63.6489 33.32 63.6488 33.32C63.6487 33.32 63.6486 33.32 63.6486 33.52C63.6486 33.72 63.6485 33.72 63.6484 33.72C63.6484 33.72 63.6484 33.72 63.6483 33.72C63.6483 33.72 63.6483 33.72 63.6484 33.72C63.6486 33.72 63.649 33.72 63.6497 33.72C63.6509 33.72 63.6531 33.72 63.6562 33.7201C63.6624 33.7202 63.6721 33.7204 63.6852 33.7209C63.7114 33.7218 63.7513 33.7237 63.8034 33.7276C63.9077 33.7354 64.0611 33.751 64.2533 33.7827C64.638 33.8459 65.1771 33.9728 65.7894 34.2272C67.0116 34.735 68.5296 35.7526 69.6948 37.799L70.0424 37.601ZM63.6486 33.52C63.6782 33.3222 63.6781 33.3222 63.6779 33.3222C63.6778 33.3221 63.6776 33.3221 63.6774 33.3221C63.677 33.322 63.6766 33.322 63.676 33.3219C63.6748 33.3217 63.6733 33.3215 63.6714 33.3212C63.6675 33.3207 63.6621 33.32 63.6551 33.3191C63.6412 33.3173 63.6212 33.3149 63.5955 33.3122C63.5441 33.3069 63.4697 33.3003 63.3752 33.2953C63.1862 33.2853 62.9164 33.2812 62.5885 33.3046C61.9331 33.3512 61.0425 33.5073 60.1015 33.9463C58.208 34.8296 56.1515 36.839 55.3716 41.2854L55.7656 41.3546C56.5257 37.021 58.5092 35.1304 60.2706 34.3087C61.1572 33.8952 61.9978 33.7476 62.6168 33.7036C62.9261 33.6816 63.1793 33.6855 63.354 33.6948C63.4413 33.6994 63.5089 33.7054 63.554 33.7101C63.5766 33.7124 63.5935 33.7144 63.6045 33.7158C63.6099 33.7165 63.6139 33.7171 63.6163 33.7174C63.6175 33.7176 63.6184 33.7177 63.6188 33.7178C63.619 33.7178 63.6192 33.7178 63.6192 33.7178C63.6192 33.7178 63.6191 33.7178 63.6191 33.7178C63.6191 33.7178 63.619 33.7178 63.6486 33.52ZM55.3716 41.2852C54.5932 45.693 55.5324 49.3771 57.1224 52.0084C58.7059 54.629 60.953 56.2303 62.8084 56.419L62.8488 56.021C61.1642 55.8497 59.0113 54.361 57.4648 51.8016C55.9248 49.2529 55.004 45.667 55.7655 41.3548L55.3716 41.2852ZM62.8073 56.4189C63.9607 56.5424 65.4231 56.3583 66.665 55.6752L66.4722 55.3248C65.3141 55.9617 63.9365 56.1376 62.8499 56.0211L62.8073 56.4189ZM66.5686 55.5C66.6565 55.6796 66.6566 55.6796 66.6567 55.6796C66.6567 55.6795 66.6568 55.6795 66.6569 55.6794C66.6571 55.6793 66.6574 55.6792 66.6576 55.6791C66.6582 55.6788 66.6589 55.6785 66.6598 55.678C66.6615 55.6771 66.664 55.6759 66.6671 55.6743C66.6733 55.6712 66.6821 55.6667 66.6935 55.6607C66.7162 55.6488 66.7489 55.6313 66.7905 55.6078C66.8737 55.5609 66.9928 55.4904 67.1392 55.3945C67.4318 55.2027 67.8339 54.9091 68.2769 54.4993C69.1631 53.6796 70.2141 52.3934 70.8771 50.5269L70.5001 50.3931C69.8631 52.1866 68.8541 53.4204 68.0053 54.2057C67.5808 54.5984 67.1967 54.8785 66.9199 55.0599C66.7816 55.1506 66.6702 55.2165 66.5941 55.2593C66.5561 55.2807 66.5269 55.2964 66.5077 55.3065C66.498 55.3116 66.4909 55.3152 66.4864 55.3175C66.4841 55.3187 66.4825 55.3195 66.4815 55.3199C66.481 55.3202 66.4807 55.3203 66.4806 55.3204C66.4805 55.3204 66.4805 55.3204 66.4805 55.3204C66.4805 55.3204 66.4806 55.3204 66.4806 55.3204C66.4806 55.3204 66.4807 55.3204 66.5686 55.5ZM70.8775 50.5258C72.7384 45.1856 71.5678 40.2858 70.0425 37.6012L69.6947 37.7988C71.1694 40.3942 72.3187 45.1744 70.4997 50.3942L70.8775 50.5258ZM78.8622 34.52V34.32H78.6622V34.52H78.8622ZM80.7222 44.78L80.7551 44.9773L80.7567 44.977L80.7222 44.78ZM78.8622 44.9H78.6622V45.1H78.8622V44.9ZM83.7222 44.82L83.6256 44.6449L83.7222 45.02V44.82ZM85.2622 43.88L85.3861 44.037L85.3875 44.0358L85.2622 43.88ZM76.9622 33.8V33.6H76.7622V33.8H76.9622ZM76.9622 56H76.7622V56.2H76.9622V56ZM78.8622 56V56.2H79.0622V56H78.8622ZM78.8622 45.78L78.8326 45.5822L78.6622 45.6077V45.78H78.8622ZM82.9222 46.48L82.7795 46.6202L82.7817 46.6224L82.9222 46.48ZM88.9222 56V56.2H89.0138L89.0737 56.1306L88.9222 56ZM89.9222 54.84L90.0737 54.9706L90.3587 54.64H89.9222V54.84ZM78.8622 34.72H80.6822V34.32H78.8622V34.72ZM80.6822 34.72C82.6972 34.72 83.9736 35.6645 84.754 36.8195C85.541 37.9842 85.8222 39.3639 85.8222 40.2H86.2222C86.2222 39.2961 85.9234 37.8358 85.0854 36.5955C84.2408 35.3455 82.8472 34.32 80.6822 34.32V34.72ZM85.8222 40.2C85.8222 41.2569 85.5706 42.036 85.1874 42.6167C84.8038 43.1983 84.2792 43.5944 83.7122 43.8701C82.5634 44.4288 81.293 44.4768 80.6876 44.583L80.7567 44.977C81.2913 44.8832 82.671 44.8212 83.8871 44.2299C84.5027 43.9305 85.0894 43.4917 85.5213 42.837C85.9538 42.1815 86.2222 41.3231 86.2222 40.2H85.8222ZM80.6893 44.5827C80.3423 44.6406 79.8876 44.6702 79.5142 44.6852C79.3286 44.6926 79.1653 44.6963 79.0484 44.6982C78.99 44.6991 78.9432 44.6995 78.9111 44.6998C78.8951 44.6999 78.8828 44.6999 78.8745 44.7C78.8703 44.7 78.8672 44.7 78.8651 44.7C78.8641 44.7 78.8633 44.7 78.8629 44.7C78.8626 44.7 78.8624 44.7 78.8623 44.7C78.8623 44.7 78.8622 44.7 78.8622 44.7C78.8622 44.7 78.8622 44.7 78.8622 44.7C78.8622 44.7 78.8622 44.7 78.8622 44.9C78.8622 45.1 78.8622 45.1 78.8622 45.1C78.8622 45.1 78.8623 45.1 78.8623 45.1C78.8623 45.1 78.8624 45.1 78.8625 45.1C78.8626 45.1 78.8629 45.1 78.8632 45.1C78.8638 45.1 78.8647 45.1 78.8658 45.1C78.8681 45.1 78.8715 45.1 78.8759 45.1C78.8846 45.0999 78.8975 45.0999 78.914 45.0998C78.9471 45.0995 78.995 45.099 79.0547 45.0981C79.1741 45.0962 79.3407 45.0924 79.5302 45.0848C79.9067 45.0698 80.3821 45.0394 80.7551 44.9773L80.6893 44.5827ZM79.0622 44.9V34.52H78.6622V44.9H79.0622ZM83.7222 44.82C83.8188 44.9951 83.8188 44.9951 83.8188 44.9951C83.8188 44.9951 83.8189 44.9951 83.8189 44.9951C83.8189 44.9951 83.819 44.995 83.8191 44.995C83.8192 44.9949 83.8194 44.9948 83.8197 44.9946C83.8203 44.9943 83.8212 44.9938 83.8223 44.9932C83.8246 44.9919 83.8279 44.9901 83.8323 44.9877C83.841 44.9828 83.8538 44.9757 83.8701 44.9666C83.9028 44.9484 83.95 44.922 84.0076 44.8895C84.1229 44.8245 84.2808 44.7345 84.4507 44.6351C84.7855 44.4392 85.1832 44.1972 85.3861 44.037L85.1383 43.723C84.9612 43.8628 84.5889 44.0908 84.2487 44.2899C84.0811 44.388 83.9252 44.4768 83.8111 44.5411C83.7541 44.5733 83.7076 44.5993 83.6754 44.6172C83.6593 44.6262 83.6468 44.6331 83.6384 44.6378C83.6341 44.6402 83.6309 44.6419 83.6287 44.6431C83.6277 44.6437 83.6269 44.6442 83.6263 44.6445C83.6261 44.6446 83.6259 44.6447 83.6257 44.6448C83.6257 44.6448 83.6256 44.6449 83.6256 44.6449C83.6256 44.6449 83.6256 44.6449 83.6256 44.6449C83.6256 44.6449 83.6256 44.6449 83.7222 44.82ZM85.3875 44.0358C85.8523 43.662 86.4765 43.138 86.9806 42.2596C87.4854 41.3802 87.8622 40.1599 87.8622 38.4H87.4622C87.4622 40.1001 87.099 41.2498 86.6337 42.0604C86.1679 42.872 85.5921 43.358 85.1368 43.7242L85.3875 44.0358ZM87.8622 38.4C87.8622 35.8958 85.8388 33.6 83.0222 33.6V34C85.6056 34 87.4622 36.1042 87.4622 38.4H87.8622ZM83.0222 33.6H76.9622V34H83.0222V33.6ZM76.7622 33.8V56H77.1622V33.8H76.7622ZM76.9622 56.2H78.8622V55.8H76.9622V56.2ZM79.0622 56V45.78H78.6622V56H79.0622ZM78.8622 45.78C78.8918 45.9778 78.8918 45.9778 78.8917 45.9778C78.8917 45.9778 78.8917 45.9778 78.8918 45.9778C78.8918 45.9778 78.8919 45.9778 78.892 45.9778C78.8922 45.9777 78.8926 45.9777 78.8932 45.9776C78.8944 45.9774 78.8963 45.9771 78.8989 45.9768C78.904 45.976 78.9118 45.9749 78.9222 45.9735C78.943 45.9707 78.9741 45.9667 79.0143 45.9619C79.0946 45.9524 79.2113 45.9399 79.355 45.9284C79.6428 45.9054 80.0372 45.8865 80.4648 45.9024C80.8932 45.9183 81.3492 45.969 81.7623 46.0825C82.1771 46.1966 82.5336 46.3698 82.7795 46.6202L83.0649 46.3398C82.7508 46.0202 82.3197 45.8209 81.8683 45.6968C81.4152 45.5723 80.9261 45.5192 80.4796 45.5026C80.0322 45.486 79.6216 45.5058 79.3231 45.5297C79.1737 45.5416 79.0519 45.5546 78.9671 45.5647C78.9247 45.5698 78.8915 45.5741 78.8687 45.5771C78.8573 45.5787 78.8485 45.5799 78.8424 45.5808C78.8394 45.5812 78.8371 45.5815 78.8354 45.5818C78.8346 45.5819 78.8339 45.582 78.8335 45.5821C78.8332 45.5821 78.833 45.5821 78.8329 45.5822C78.8328 45.5822 78.8327 45.5822 78.8327 45.5822C78.8326 45.5822 78.8326 45.5822 78.8622 45.78ZM82.7817 46.6224C82.9444 46.7828 83.1289 47.0474 83.3331 47.4023C83.5357 47.7542 83.7507 48.1823 83.977 48.6606C84.2032 49.1385 84.4391 49.6629 84.6839 50.2071C84.9284 50.7505 85.1816 51.3133 85.4412 51.8651C85.9593 52.9663 86.5081 54.0353 87.0735 54.8309C87.3563 55.2287 87.649 55.5665 87.9509 55.8066C88.2526 56.0463 88.5783 56.2 88.9222 56.2V55.8C88.7011 55.8 88.4612 55.7012 88.1998 55.4934C87.9389 55.286 87.6712 54.9813 87.3996 54.5991C86.8563 53.8347 86.3201 52.7937 85.8032 51.6949C85.5453 51.1467 85.2934 50.587 85.0487 50.0429C84.8043 49.4996 84.5668 48.9715 84.3386 48.4894C84.1106 48.0077 83.8903 47.5683 83.6798 47.2027C83.4711 46.8401 83.265 46.5372 83.0626 46.3376L82.7817 46.6224ZM89.0737 56.1306L90.0737 54.9706L89.7707 54.7094L88.7707 55.8694L89.0737 56.1306ZM89.9222 54.64C89.7779 54.64 89.5854 54.5389 89.3431 54.2744C89.1074 54.0171 88.8574 53.6413 88.5962 53.1764C88.0744 52.2477 87.5305 51.0054 86.983 49.75C86.4382 48.5008 85.8896 47.2382 85.3637 46.2887C85.101 45.8144 84.8383 45.4077 84.5781 45.1171C84.3253 44.8349 84.0377 44.62 83.7222 44.62V45.02C83.8567 45.02 84.0422 45.1182 84.2801 45.384C84.5106 45.6413 84.7562 46.0174 85.0138 46.4825C85.5285 47.4118 86.0687 48.6542 86.6164 49.91C87.1614 51.1596 87.7137 52.4223 88.2475 53.3723C88.5141 53.8469 88.7818 54.2538 89.0481 54.5445C89.3077 54.828 89.6015 55.04 89.9222 55.04V54.64ZM92.6589 42.14L92.4591 42.1479L92.4591 42.1487L92.6589 42.14ZM104.439 44.14L104.578 43.9964L104.577 43.9956L104.439 44.14ZM95.0789 50.5L95.2789 50.4992L95.2781 50.3H95.0789V50.5ZM92.7789 50.5V50.3H92.5789V50.5H92.7789ZM94.9589 41.36L95.1552 41.3218L95.155 41.3205L94.9589 41.36ZM103.439 38.28L103.243 38.3196L103.275 38.48H103.439V38.28ZM106.139 38.28V38.48H106.381L106.335 38.2426L106.139 38.28ZM100.139 33.6C97.3992 33.6 95.4299 34.6969 94.1707 36.3251C92.9164 37.947 92.3776 40.0809 92.4591 42.1479L92.8587 42.1321C92.7802 40.1391 93.3015 38.103 94.4871 36.5699C95.6679 35.0431 97.5186 34 100.139 34V33.6ZM92.4591 42.1487C92.4857 42.7635 92.6714 43.2455 92.9941 43.6096C93.3147 43.9713 93.7552 44.1991 94.2618 44.3359C95.2665 44.6073 96.5878 44.5348 97.9267 44.3812C99.2861 44.2252 100.655 43.9874 101.831 43.9004C102.415 43.8572 102.934 43.8531 103.362 43.9133C103.792 43.974 104.104 44.0965 104.301 44.2844L104.577 43.9956C104.293 43.7235 103.884 43.5829 103.418 43.5172C102.949 43.4511 102.397 43.4575 101.802 43.5015C100.62 43.5889 99.2017 43.8323 97.8811 43.9838C96.54 44.1377 95.2888 44.199 94.3661 43.9497C93.9088 43.8262 93.5468 43.6301 93.2934 43.3442C93.0421 43.0607 92.8821 42.6715 92.8587 42.1314L92.4591 42.1487ZM104.3 44.2836C104.878 44.8444 105.068 45.7834 104.951 46.9371C104.835 48.083 104.421 49.3931 103.857 50.6347C103.293 51.8755 102.584 53.0356 101.888 53.8821C101.54 54.3056 101.199 54.6452 100.887 54.8772C100.569 55.1126 100.303 55.22 100.099 55.22V55.62C100.43 55.62 100.781 55.453 101.125 55.1985C101.473 54.9406 101.837 54.5747 102.197 54.1361C102.919 53.2581 103.645 52.067 104.221 50.8003C104.796 49.5344 105.227 48.1807 105.349 46.9773C105.47 45.7816 105.289 44.6856 104.578 43.9964L104.3 44.2836ZM100.099 55.22C98.8833 55.22 97.9835 54.9215 97.3147 54.4839C96.6447 54.0456 96.1947 53.46 95.8919 52.8688C95.5887 52.2768 95.4349 51.6825 95.3572 51.2346C95.3185 51.0111 95.2988 50.8253 95.2889 50.6961C95.284 50.6316 95.2815 50.5813 95.2802 50.5477C95.2796 50.5309 95.2792 50.5182 95.2791 50.51C95.279 50.5059 95.2789 50.503 95.2789 50.5011C95.2789 50.5002 95.2789 50.4996 95.2789 50.4993C95.2789 50.4991 95.2789 50.499 95.2789 50.499C95.2789 50.499 95.2789 50.4991 95.2789 50.499C95.2789 50.4991 95.2789 50.4992 95.0789 50.5C94.8789 50.5008 94.8789 50.5009 94.8789 50.5011C94.8789 50.5011 94.8789 50.5013 94.8789 50.5014C94.8789 50.5017 94.8789 50.5021 94.8789 50.5025C94.8789 50.5034 94.8789 50.5045 94.879 50.506C94.879 50.5089 94.8791 50.513 94.8792 50.5182C94.8794 50.5286 94.8798 50.5436 94.8805 50.5628C94.882 50.6013 94.8848 50.6567 94.8901 50.7267C94.9008 50.8666 94.9219 51.0652 94.9631 51.3029C95.0454 51.7775 95.2091 52.4132 95.5359 53.0512C95.8631 53.69 96.3556 54.3344 97.0957 54.8186C97.8368 55.3035 98.8146 55.62 100.099 55.62V55.22ZM95.0789 50.3H92.7789V50.7H95.0789V50.3ZM92.5789 50.5C92.5789 50.8523 92.6143 52.2754 93.4943 53.6148C94.3839 54.969 96.1116 56.2 99.4189 56.2V55.8C96.2262 55.8 94.6339 54.621 93.8286 53.3952C93.0135 52.1546 92.9789 50.8277 92.9789 50.5H92.5789ZM99.4189 56.2C101.377 56.2 103.447 54.9923 105.018 53.2254C106.593 51.4553 107.699 49.0898 107.699 46.72H107.299C107.299 48.9702 106.245 51.2447 104.719 52.9596C103.191 54.6777 101.221 55.8 99.4189 55.8V56.2ZM107.699 46.72C107.699 45.9091 107.504 45.2505 107.151 44.7196C106.8 44.1897 106.3 43.8003 105.712 43.512C104.544 42.9392 102.996 42.7516 101.465 42.6628C99.9145 42.5729 98.3929 42.5837 97.1979 42.424C96.6033 42.3445 96.1151 42.2251 95.7621 42.042C95.4152 41.862 95.2153 41.6301 95.1552 41.3218L94.7626 41.3982C94.8525 41.8599 95.157 42.1787 95.5779 42.397C95.9927 42.6122 96.5357 42.739 97.1449 42.8204C98.3574 42.9825 99.9333 42.9746 101.442 43.0622C102.972 43.1509 104.447 43.3371 105.536 43.8711C106.077 44.1363 106.515 44.4836 106.818 44.9408C107.121 45.397 107.299 45.9759 107.299 46.72H107.699ZM95.155 41.3205C94.8626 39.8685 95.0294 38.2502 95.5699 37.002C96.1122 35.7496 97.0032 34.92 98.1389 34.92V34.52C96.7746 34.52 95.7756 35.5204 95.2029 36.843C94.6284 38.1698 94.4552 39.8715 94.7628 41.3995L95.155 41.3205ZM98.1389 34.92C100.369 34.92 101.638 35.7831 102.354 36.6291C102.714 37.0552 102.937 37.4815 103.07 37.8007C103.137 37.9601 103.18 38.0923 103.207 38.1835C103.221 38.2291 103.23 38.2644 103.235 38.2876C103.238 38.2993 103.24 38.3079 103.241 38.3133C103.242 38.316 103.243 38.3179 103.243 38.319C103.243 38.3195 103.243 38.3198 103.243 38.32C103.243 38.32 103.243 38.32 103.243 38.32C103.243 38.3199 103.243 38.3199 103.243 38.3198C103.243 38.3198 103.243 38.3196 103.439 38.28C103.635 38.2404 103.635 38.2402 103.635 38.2401C103.635 38.24 103.635 38.2398 103.635 38.2397C103.635 38.2394 103.635 38.2391 103.635 38.2388C103.634 38.238 103.634 38.237 103.634 38.2359C103.633 38.2335 103.633 38.2303 103.632 38.2263C103.63 38.2182 103.627 38.2068 103.624 38.1924C103.617 38.1635 103.606 38.1223 103.591 38.0706C103.56 37.9671 103.512 37.8211 103.439 37.6468C103.294 37.2985 103.051 36.8348 102.659 36.3709C101.869 35.4369 100.489 34.52 98.1389 34.52V34.92ZM103.439 38.48H106.139V38.08H103.439V38.48ZM106.335 38.2426C106.29 38.0025 106.133 37.596 105.871 37.1278C105.606 36.6554 105.226 36.1074 104.723 35.5861C103.715 34.5423 102.206 33.6 100.139 33.6V34C102.072 34 103.483 34.8777 104.435 35.8639C104.912 36.3576 105.272 36.8771 105.522 37.3234C105.775 37.774 105.908 38.1375 105.942 38.3174L106.335 38.2426Z" />
</svg>
