<svg width="160" height="57" viewBox="0 0 160 57" fill="black" xmlns="http://www.w3.org/2000/svg">
  <path d="M12.34 15.38H4.78L9 4.04L12.34 15.38ZM4.32 16.62H12.7L14.5 23L16.7 22.2L10.12 0.8L9.02 1.5L0.78 22.58L1.88 23L4.32 16.62ZM22.1894 22V0.8H20.1294V23H31.0294V22H22.1894ZM56.9367 0.8L49.8367 19.74L46.8567 9.48L50.0967 1.24L48.9767 0.8L46.3567 7.78L44.3567 0.8L42.1367 1.6L45.0967 11.18L41.8767 19.74L36.3967 0.8L34.1967 1.6L40.7767 23L41.8567 22.28L45.5767 12.78L48.7167 23L49.8167 22.28L58.0367 1.24L56.9367 0.8ZM70.9728 15.38H63.4128L67.6328 4.04L70.9728 15.38ZM62.9528 16.62H71.3328L73.1328 23L75.3328 22.2L68.7528 0.8L67.6528 1.5L59.4128 22.58L60.5128 23L62.9528 16.62ZM79.9222 23L88.6422 1.22L87.5422 0.8L83.1622 11.96L77.5622 0.8L75.7422 1.9L82.1222 14.54L78.8222 23H79.9222ZM99.7092 0.8C94.3492 0.8 92.0692 5.08 92.2292 9.14C92.4292 13.76 102.089 9.3 104.009 11.14C106.589 13.64 101.809 22.42 99.6692 22.42C94.6692 22.42 94.6492 17.5 94.6492 17.5H92.3492C92.3492 18.18 92.4892 23 98.9892 23C102.749 23 107.069 18.34 107.069 13.72C107.069 7.5 95.1292 11.44 94.5292 8.36C93.9292 5.38 95.2092 1.72 97.7092 1.72C102.289 1.72 103.009 5.28 103.009 5.28H105.709C105.549 4.44 103.709 0.8 99.7092 0.8ZM128.565 12.88H124.545V2L122.745 0.679999L114.205 12.22C114.205 12.22 114.205 14.04 114.205 14.06H122.745V23H124.545V14.06H128.565V12.88ZM114.825 12.88L122.745 2.24V11.84C122.745 12.36 122.345 12.88 121.845 12.88H114.825ZM136.888 12.12C136.068 12.2 134.168 12.1 134.168 12.06V1.5H135.968C140.168 1.5 141.508 4.32 141.508 6.8C141.508 10.94 138.008 12.02 136.888 12.12ZM138.328 0.8H132.268V23H134.168V13.5C134.168 13.5 134.608 13.42 134.828 13.4C138.748 12.92 140.268 11.36 140.848 10.82C140.848 10.82 142.928 8.78 142.908 5.46C142.888 2.96 141.028 0.8 138.328 0.8ZM159.848 21.76L154.588 11.98L158.908 0.8H157.608L153.908 10.72L148.608 0.8L146.908 1.82L152.988 13.2L149.368 23H150.348L153.648 14.42L158.248 23L159.848 21.76ZM9.26 32.8C3.9 32.8 1.62 37.08 1.78 41.14C1.98 45.76 11.64 41.3 13.56 43.14C16.14 45.64 11.36 54.42 9.22 54.42C4.22 54.42 4.2 49.5 4.2 49.5H1.9C1.9 50.18 2.04 55 8.54 55C12.3 55 16.62 50.34 16.62 45.72C16.62 39.5 4.68 43.44 4.08 40.36C3.48 37.38 4.76 33.72 7.26 33.72C11.84 33.72 12.56 37.28 12.56 37.28H15.26C15.1 36.44 13.26 32.8 9.26 32.8ZM22.9353 55V32.8H21.0553V55H22.9353ZM30.1302 53.92L40.9902 32.98H29.0702L28.4102 33.78H38.1702L27.5702 54.8H39.6102L40.3502 53.92H30.1302ZM48.8728 55V32.8H46.9928V55H48.8728ZM64.1877 32.8L64.0877 52.12L55.7677 32.8H54.1277V55H55.1277V37.22L62.9477 55L65.2477 53.8V32.8H64.1877ZM83.8219 47H76.6819V48.1C76.6819 48.1 82.3619 48.02 82.3619 48.34C82.5419 51.2 82.3019 52.7 80.9219 53.2C72.9619 56.1 66.6419 37.04 73.4619 34.28C75.0619 33.64 78.3219 33.6 80.9819 37.64H83.4819C80.8019 31.88 75.5419 32.8 75.5419 32.8C75.5419 32.8 69.0819 33.42 69.0819 42.28C69.0819 51.1 74.5019 55 78.4419 55C80.5019 55 83.3619 53.68 83.7819 48.7C83.8819 48.08 83.8219 47 83.8219 47Z" />
  <path d="M12.34 15.38V15.58H12.6074L12.5319 15.3235L12.34 15.38ZM4.78 15.38L4.59256 15.3102L4.49217 15.58H4.78V15.38ZM9 4.04L9.19185 3.98349L9.0221 3.40716L8.81256 3.97024L9 4.04ZM4.32 16.62V16.42H4.18236L4.1332 16.5486L4.32 16.62ZM12.7 16.62L12.8925 16.5657L12.8514 16.42H12.7V16.62ZM14.5 23L14.3075 23.0543L14.366 23.2615L14.5683 23.188L14.5 23ZM16.7 22.2L16.7683 22.388L16.9471 22.323L16.8912 22.1412L16.7 22.2ZM10.12 0.8L10.3112 0.74122L10.234 0.490369L10.0126 0.631267L10.12 0.8ZM9.02 1.5L8.91263 1.33127L8.85751 1.36634L8.83373 1.42719L9.02 1.5ZM0.78 22.58L0.593725 22.5072L0.520335 22.6949L0.70866 22.7668L0.78 22.58ZM1.88 23L1.80866 23.1868L1.9954 23.2581L2.0668 23.0714L1.88 23ZM12.34 15.18H4.78V15.58H12.34V15.18ZM4.96744 15.4498L9.18744 4.10975L8.81256 3.97024L4.59256 15.3102L4.96744 15.4498ZM8.80815 4.09651L12.1481 15.4365L12.5319 15.3235L9.19185 3.98349L8.80815 4.09651ZM4.32 16.82H12.7V16.42H4.32V16.82ZM12.5075 16.6743L14.3075 23.0543L14.6925 22.9457L12.8925 16.5657L12.5075 16.6743ZM14.5683 23.188L16.7683 22.388L16.6317 22.012L14.4317 22.812L14.5683 23.188ZM16.8912 22.1412L10.3112 0.74122L9.92883 0.858779L16.5088 22.2588L16.8912 22.1412ZM10.0126 0.631267L8.91263 1.33127L9.12738 1.66873L10.2274 0.968732L10.0126 0.631267ZM8.83373 1.42719L0.593725 22.5072L0.966275 22.6528L9.20627 1.57281L8.83373 1.42719ZM0.70866 22.7668L1.80866 23.1868L1.95134 22.8132L0.85134 22.3932L0.70866 22.7668ZM2.0668 23.0714L4.5068 16.6914L4.1332 16.5486L1.6932 22.9286L2.0668 23.0714ZM22.1894 22H21.9894V22.2H22.1894V22ZM22.1894 0.8H22.3894V0.6H22.1894V0.8ZM20.1294 0.8V0.6H19.9294V0.8H20.1294ZM20.1294 23H19.9294V23.2H20.1294V23ZM31.0294 23V23.2H31.2294V23H31.0294ZM31.0294 22H31.2294V21.8H31.0294V22ZM22.3894 22V0.8H21.9894V22H22.3894ZM22.1894 0.6H20.1294V1H22.1894V0.6ZM19.9294 0.8V23H20.3294V0.8H19.9294ZM20.1294 23.2H31.0294V22.8H20.1294V23.2ZM31.2294 23V22H30.8294V23H31.2294ZM31.0294 21.8H22.1894V22.2H31.0294V21.8ZM56.9367 0.8L57.011 0.614304L56.8212 0.538385L56.7494 0.729797L56.9367 0.8ZM49.8367 19.74L49.6447 19.7958L49.8126 20.3741L50.024 19.8102L49.8367 19.74ZM46.8567 9.48L46.6706 9.40681L46.6456 9.47029L46.6647 9.53578L46.8567 9.48ZM50.0967 1.24L50.2828 1.31319L50.3561 1.127L50.1698 1.05385L50.0967 1.24ZM48.9767 0.8L49.0499 0.613849L48.8608 0.539595L48.7895 0.729716L48.9767 0.8ZM46.3567 7.78L46.1645 7.83509L46.3312 8.41707L46.544 7.85028L46.3567 7.78ZM44.3567 0.8L44.549 0.74491L44.4901 0.539351L44.2889 0.611844L44.3567 0.8ZM42.1367 1.6L42.0689 1.41184L41.8893 1.47658L41.9456 1.65904L42.1367 1.6ZM45.0967 11.18L45.2839 11.2504L45.308 11.1864L45.2878 11.121L45.0967 11.18ZM41.8767 19.74L41.6846 19.7956L41.8519 20.3739L42.0639 19.8104L41.8767 19.74ZM36.3967 0.8L36.5888 0.744413L36.5294 0.538943L36.3284 0.612041L36.3967 0.8ZM34.1967 1.6L34.1284 1.41204L33.9497 1.47702L34.0056 1.65878L34.1967 1.6ZM40.7767 23L40.5856 23.0588L40.6644 23.3152L40.8877 23.1664L40.7767 23ZM41.8567 22.28L41.9677 22.4464L42.02 22.4115L42.0429 22.3529L41.8567 22.28ZM45.5767 12.78L45.7679 12.7213L45.5995 12.1732L45.3905 12.7071L45.5767 12.78ZM48.7167 23L48.5255 23.0587L48.6037 23.313L48.8263 23.1673L48.7167 23ZM49.8167 22.28L49.9263 22.4473L49.9797 22.4123L50.003 22.3528L49.8167 22.28ZM58.0367 1.24L58.223 1.31278L58.2952 1.12799L58.111 1.0543L58.0367 1.24ZM56.7494 0.729797L49.6494 19.6698L50.024 19.8102L57.124 0.870203L56.7494 0.729797ZM50.0288 19.6842L47.0488 9.42421L46.6647 9.53578L49.6447 19.7958L50.0288 19.6842ZM47.0428 9.55319L50.2828 1.31319L49.9106 1.16681L46.6706 9.40681L47.0428 9.55319ZM50.1698 1.05385L49.0499 0.613849L48.9036 0.98615L50.0236 1.42615L50.1698 1.05385ZM48.7895 0.729716L46.1695 7.70972L46.544 7.85028L49.164 0.870283L48.7895 0.729716ZM46.549 7.72491L44.549 0.74491L44.1645 0.855089L46.1645 7.83509L46.549 7.72491ZM44.2889 0.611844L42.0689 1.41184L42.2045 1.78815L44.4245 0.988156L44.2889 0.611844ZM41.9456 1.65904L44.9056 11.239L45.2878 11.121L42.3278 1.54096L41.9456 1.65904ZM44.9095 11.1096L41.6895 19.6696L42.0639 19.8104L45.2839 11.2504L44.9095 11.1096ZM42.0688 19.6844L36.5888 0.744413L36.2046 0.855587L41.6846 19.7956L42.0688 19.6844ZM36.3284 0.612041L34.1284 1.41204L34.2651 1.78796L36.4651 0.987958L36.3284 0.612041ZM34.0056 1.65878L40.5856 23.0588L40.9679 22.9412L34.3879 1.54122L34.0056 1.65878ZM40.8877 23.1664L41.9677 22.4464L41.7458 22.1136L40.6658 22.8336L40.8877 23.1664ZM42.0429 22.3529L45.763 12.8529L45.3905 12.7071L41.6705 22.2071L42.0429 22.3529ZM45.3855 12.8387L48.5255 23.0587L48.9079 22.9413L45.7679 12.7213L45.3855 12.8387ZM48.8263 23.1673L49.9263 22.4473L49.7072 22.1127L48.6072 22.8327L48.8263 23.1673ZM50.003 22.3528L58.223 1.31278L57.8504 1.16722L49.6304 22.2072L50.003 22.3528ZM58.111 1.0543L57.011 0.614304L56.8624 0.985695L57.9624 1.42569L58.111 1.0543ZM70.9728 15.38V15.58H71.2402L71.1647 15.3235L70.9728 15.38ZM63.4128 15.38L63.2254 15.3102L63.125 15.58H63.4128V15.38ZM67.6328 4.04L67.8247 3.98349L67.6549 3.40716L67.4454 3.97024L67.6328 4.04ZM62.9528 16.62V16.42H62.8152L62.766 16.5486L62.9528 16.62ZM71.3328 16.62L71.5253 16.5657L71.4842 16.42H71.3328V16.62ZM73.1328 23L72.9403 23.0543L72.9988 23.2615L73.2012 23.188L73.1328 23ZM75.3328 22.2L75.4012 22.388L75.5799 22.323L75.524 22.1412L75.3328 22.2ZM68.7528 0.8L68.944 0.74122L68.8669 0.490369L68.6454 0.631267L68.7528 0.8ZM67.6528 1.5L67.5454 1.33127L67.4903 1.36634L67.4665 1.42719L67.6528 1.5ZM59.4128 22.58L59.2265 22.5072L59.1531 22.6949L59.3415 22.7668L59.4128 22.58ZM60.5128 23L60.4415 23.1868L60.6282 23.2581L60.6996 23.0714L60.5128 23ZM70.9728 15.18H63.4128V15.58H70.9728V15.18ZM63.6003 15.4498L67.8203 4.10975L67.4454 3.97024L63.2254 15.3102L63.6003 15.4498ZM67.441 4.09651L70.781 15.4365L71.1647 15.3235L67.8247 3.98349L67.441 4.09651ZM62.9528 16.82H71.3328V16.42H62.9528V16.82ZM71.1403 16.6743L72.9403 23.0543L73.3253 22.9457L71.5253 16.5657L71.1403 16.6743ZM73.2012 23.188L75.4012 22.388L75.2645 22.012L73.0645 22.812L73.2012 23.188ZM75.524 22.1412L68.944 0.74122L68.5616 0.858779L75.1416 22.2588L75.524 22.1412ZM68.6454 0.631267L67.5454 1.33127L67.7602 1.66873L68.8602 0.968732L68.6454 0.631267ZM67.4665 1.42719L59.2265 22.5072L59.5991 22.6528L67.8391 1.57281L67.4665 1.42719ZM59.3415 22.7668L60.4415 23.1868L60.5842 22.8132L59.4842 22.3932L59.3415 22.7668ZM60.6996 23.0714L63.1396 16.6914L62.766 16.5486L60.326 22.9286L60.6996 23.0714ZM79.9222 23V23.2H80.0575L80.1079 23.0743L79.9222 23ZM88.6422 1.22L88.8279 1.29433L88.9034 1.10565L88.7135 1.03315L88.6422 1.22ZM87.5422 0.8L87.6135 0.613156L87.4284 0.542474L87.356 0.726931L87.5422 0.8ZM83.1622 11.96L82.9834 12.0497L83.1845 12.4505L83.3484 12.0331L83.1622 11.96ZM77.5622 0.8L77.7409 0.710301L77.6439 0.516918L77.4587 0.628834L77.5622 0.8ZM75.7422 1.9L75.6387 1.72883L75.4801 1.82469L75.5636 1.99012L75.7422 1.9ZM82.1222 14.54L82.3085 14.6127L82.3409 14.5295L82.3007 14.4499L82.1222 14.54ZM78.8222 23L78.6359 22.9273L78.5295 23.2H78.8222V23ZM80.1079 23.0743L88.8279 1.29433L88.4565 1.14566L79.7365 22.9257L80.1079 23.0743ZM88.7135 1.03315L87.6135 0.613156L87.4708 0.986844L88.5708 1.40684L88.7135 1.03315ZM87.356 0.726931L82.976 11.8869L83.3484 12.0331L87.7284 0.873068L87.356 0.726931ZM83.3409 11.8703L77.7409 0.710301L77.3834 0.889699L82.9834 12.0497L83.3409 11.8703ZM77.4587 0.628834L75.6387 1.72883L75.8456 2.07116L77.6656 0.971165L77.4587 0.628834ZM75.5636 1.99012L81.9436 14.6301L82.3007 14.4499L75.9207 1.80988L75.5636 1.99012ZM81.9359 14.4673L78.6359 22.9273L79.0085 23.0727L82.3085 14.6127L81.9359 14.4673ZM78.8222 23.2H79.9222V22.8H78.8222V23.2ZM92.2292 9.14L92.0294 9.14788L92.0294 9.14865L92.2292 9.14ZM104.009 11.14L104.148 10.9964L104.148 10.9956L104.009 11.14ZM94.6492 17.5L94.8492 17.4992L94.8484 17.3H94.6492V17.5ZM92.3492 17.5V17.3H92.1492V17.5H92.3492ZM94.5292 8.36L94.7255 8.32176L94.7253 8.32052L94.5292 8.36ZM103.009 5.28L102.813 5.31965L102.846 5.48H103.009V5.28ZM105.709 5.28V5.48H105.951L105.906 5.24258L105.709 5.28ZM99.7092 0.6C96.9695 0.6 95.0002 1.69693 93.741 3.32515C92.4867 4.94705 91.9479 7.08095 92.0294 9.14787L92.4291 9.13212C92.3505 7.13905 92.8718 5.10295 94.0574 3.56985C95.2382 2.04307 97.0889 1 99.7092 1V0.6ZM92.0294 9.14865C92.056 9.76349 92.2417 10.2455 92.5644 10.6096C92.8851 10.9713 93.3255 11.1991 93.8321 11.3359C94.8368 11.6073 96.1581 11.5348 97.497 11.3812C98.8564 11.2252 100.225 10.9874 101.401 10.9004C101.985 10.8572 102.505 10.8531 102.932 10.9133C103.362 10.974 103.675 11.0965 103.871 11.2844L104.148 10.9956C103.864 10.7235 103.454 10.5829 102.988 10.5172C102.519 10.4511 101.967 10.4575 101.372 10.5015C100.191 10.5889 98.772 10.8323 97.4514 10.9838C96.1103 11.1377 94.8591 11.199 93.9364 10.9497C93.4791 10.8262 93.1171 10.6301 92.8637 10.3442C92.6124 10.0607 92.4524 9.67151 92.429 9.13135L92.0294 9.14865ZM103.87 11.2836C104.449 11.8444 104.638 12.7834 104.521 13.9371C104.406 15.083 103.992 16.3931 103.427 17.6347C102.863 18.8755 102.154 20.0356 101.458 20.8821C101.11 21.3056 100.77 21.6452 100.457 21.8772C100.139 22.1126 99.8731 22.22 99.6692 22.22V22.62C100 22.62 100.352 22.453 100.695 22.1985C101.043 21.9406 101.407 21.5747 101.767 21.1361C102.489 20.2581 103.215 19.067 103.791 17.8003C104.367 16.5344 104.798 15.1807 104.919 13.9773C105.04 12.7816 104.86 11.6856 104.148 10.9964L103.87 11.2836ZM99.6692 22.22C98.4536 22.22 97.5538 21.9215 96.885 21.4839C96.215 21.0456 95.765 20.46 95.4622 19.8688C95.159 19.2768 95.0052 18.6825 94.9275 18.2346C94.8888 18.0111 94.8692 17.8253 94.8593 17.6961C94.8543 17.6316 94.8518 17.5813 94.8505 17.5477C94.8499 17.5309 94.8496 17.5182 94.8494 17.51C94.8493 17.5059 94.8493 17.503 94.8492 17.5011C94.8492 17.5002 94.8492 17.4996 94.8492 17.4993C94.8492 17.4991 94.8492 17.499 94.8492 17.499C94.8492 17.499 94.8492 17.499 94.8492 17.499C94.8492 17.4991 94.8492 17.4992 94.6492 17.5C94.4492 17.5008 94.4492 17.5009 94.4492 17.5011C94.4492 17.5011 94.4492 17.5013 94.4492 17.5014C94.4492 17.5017 94.4492 17.5021 94.4492 17.5025C94.4492 17.5034 94.4492 17.5045 94.4493 17.506C94.4493 17.5089 94.4494 17.513 94.4495 17.5182C94.4497 17.5286 94.4501 17.5436 94.4508 17.5628C94.4523 17.6013 94.4551 17.6567 94.4604 17.7267C94.4712 17.8666 94.4922 18.0652 94.5334 18.3029C94.6157 18.7775 94.7794 19.4132 95.1062 20.0512C95.4334 20.69 95.9259 21.3344 96.666 21.8186C97.4071 22.3035 98.3849 22.62 99.6692 22.62V22.22ZM94.6492 17.3H92.3492V17.7H94.6492V17.3ZM92.1492 17.5C92.1492 17.8523 92.1846 19.2754 93.0646 20.6148C93.9542 21.969 95.6819 23.2 98.9892 23.2V22.8C95.7966 22.8 94.2042 21.621 93.3989 20.3952C92.5838 19.1546 92.5492 17.8277 92.5492 17.5H92.1492ZM98.9892 23.2C100.947 23.2 103.017 21.9923 104.589 20.2254C106.163 18.4553 107.269 16.0898 107.269 13.72H106.869C106.869 15.9702 105.815 18.2447 104.29 19.9596C102.761 21.6777 100.792 22.8 98.9892 22.8V23.2ZM107.269 13.72C107.269 12.9091 107.074 12.2505 106.722 11.7196C106.37 11.1897 105.87 10.8003 105.282 10.512C104.114 9.93916 102.566 9.75162 101.036 9.66284C99.4848 9.57287 97.9632 9.58372 96.7682 9.42395C96.1737 9.34446 95.6854 9.2251 95.3324 9.04196C94.9855 8.86196 94.7856 8.63013 94.7255 8.32176L94.3329 8.39824C94.4228 8.85987 94.7273 9.17866 95.1482 9.39702C95.563 9.61225 96.106 9.73898 96.7152 9.82042C97.9277 9.98253 99.5036 9.97463 101.013 10.0622C102.542 10.1509 104.017 10.3371 105.106 10.8711C105.647 11.1363 106.085 11.4836 106.388 11.9408C106.691 12.397 106.869 12.9759 106.869 13.72H107.269ZM94.7253 8.32052C94.4329 6.8685 94.5998 5.25018 95.1403 4.00197C95.6825 2.74959 96.5735 1.92 97.7092 1.92V1.52C96.3449 1.52 95.3459 2.52041 94.7732 3.84303C94.1987 5.16982 94.0255 6.8715 94.3332 8.39948L94.7253 8.32052ZM97.7092 1.92C99.9392 1.92 101.209 2.78315 101.924 3.62913C102.284 4.05522 102.508 4.48149 102.641 4.80067C102.707 4.9601 102.751 5.09225 102.777 5.18347C102.791 5.22905 102.8 5.26435 102.806 5.28763C102.809 5.29928 102.811 5.30791 102.812 5.31332C102.812 5.31602 102.813 5.31792 102.813 5.31898C102.813 5.31952 102.813 5.31984 102.813 5.31995C102.813 5.32001 102.813 5.32001 102.813 5.31996C102.813 5.31993 102.813 5.31985 102.813 5.31984C102.813 5.31975 102.813 5.31965 103.009 5.28C103.205 5.24035 103.205 5.24022 103.205 5.24008C103.205 5.24001 103.205 5.23985 103.205 5.23972C103.205 5.23945 103.205 5.23913 103.205 5.23875C103.205 5.238 103.205 5.23703 103.204 5.23586C103.204 5.2335 103.203 5.23029 103.202 5.22626C103.2 5.21819 103.198 5.20684 103.194 5.1924C103.187 5.16354 103.176 5.12235 103.161 5.07059C103.131 4.96712 103.082 4.82115 103.01 4.64683C102.865 4.29851 102.622 3.83478 102.229 3.37087C101.44 2.43685 100.059 1.52 97.7092 1.52V1.92ZM103.009 5.48H105.709V5.08H103.009V5.48ZM105.906 5.24258C105.86 5.0025 105.704 4.59602 105.441 4.12783C105.176 3.65544 104.796 3.10743 104.293 2.58608C103.285 1.54226 101.776 0.6 99.7092 0.6V1C101.642 1 103.053 1.87774 104.005 2.86392C104.482 3.35757 104.842 3.87706 105.092 4.32342C105.345 4.77397 105.478 5.1375 105.513 5.31742L105.906 5.24258ZM128.565 12.88H128.765V12.68H128.565V12.88ZM124.545 12.88H124.345V13.08H124.545V12.88ZM124.545 2H124.745V1.89865L124.664 1.83872L124.545 2ZM122.745 0.679999L122.864 0.518718L122.703 0.400958L122.585 0.561027L122.745 0.679999ZM114.205 12.22L114.045 12.101L114.005 12.154V12.22H114.205ZM114.205 14.06H114.005V14.26H114.205V14.06ZM122.745 14.06H122.945V13.86H122.745V14.06ZM122.745 23H122.545V23.2H122.745V23ZM124.545 23V23.2H124.745V23H124.545ZM124.545 14.06V13.86H124.345V14.06H124.545ZM128.565 14.06V14.26H128.765V14.06H128.565ZM114.825 12.88L114.665 12.7606L114.427 13.08H114.825V12.88ZM122.745 2.24H122.945V1.63636L122.585 2.12058L122.745 2.24ZM128.565 12.68H124.545V13.08H128.565V12.68ZM124.745 12.88V2H124.345V12.88H124.745ZM124.664 1.83872L122.864 0.518718L122.627 0.84128L124.427 2.16128L124.664 1.83872ZM122.585 0.561027L114.045 12.101L114.366 12.339L122.906 0.798971L122.585 0.561027ZM114.205 12.22C114.005 12.22 114.005 12.22 114.005 12.22C114.005 12.22 114.005 12.2201 114.005 12.2201C114.005 12.2201 114.005 12.2201 114.005 12.2202C114.005 12.2202 114.005 12.2203 114.005 12.2203C114.005 12.2204 114.005 12.2204 114.005 12.2205C114.005 12.2206 114.005 12.2207 114.005 12.2207C114.005 12.2208 114.005 12.2209 114.005 12.221C114.005 12.2211 114.005 12.2212 114.005 12.2213C114.005 12.2214 114.005 12.2215 114.005 12.2217C114.005 12.2218 114.005 12.2219 114.005 12.2221C114.005 12.2222 114.005 12.2223 114.005 12.2225C114.005 12.2226 114.005 12.2228 114.005 12.223C114.005 12.2231 114.005 12.2233 114.005 12.2235C114.005 12.2236 114.005 12.2238 114.005 12.224C114.005 12.2242 114.005 12.2244 114.005 12.2246C114.005 12.2248 114.005 12.225 114.005 12.2252C114.005 12.2254 114.005 12.2257 114.005 12.2259C114.005 12.2261 114.005 12.2263 114.005 12.2266C114.005 12.2268 114.005 12.2271 114.005 12.2273C114.005 12.2276 114.005 12.2278 114.005 12.2281C114.005 12.2284 114.005 12.2287 114.005 12.2289C114.005 12.2292 114.005 12.2295 114.005 12.2298C114.005 12.2301 114.005 12.2304 114.005 12.2307C114.005 12.231 114.005 12.2313 114.005 12.2316C114.005 12.2319 114.005 12.2323 114.005 12.2326C114.005 12.2329 114.005 12.2333 114.005 12.2336C114.005 12.2339 114.005 12.2343 114.005 12.2347C114.005 12.235 114.005 12.2354 114.005 12.2357C114.005 12.2361 114.005 12.2365 114.005 12.2369C114.005 12.2372 114.005 12.2376 114.005 12.238C114.005 12.2384 114.005 12.2388 114.005 12.2392C114.005 12.2396 114.005 12.24 114.005 12.2404C114.005 12.2409 114.005 12.2413 114.005 12.2417C114.005 12.2421 114.005 12.2426 114.005 12.243C114.005 12.2435 114.005 12.2439 114.005 12.2444C114.005 12.2448 114.005 12.2453 114.005 12.2457C114.005 12.2462 114.005 12.2467 114.005 12.2471C114.005 12.2476 114.005 12.2481 114.005 12.2486C114.005 12.2491 114.005 12.2496 114.005 12.2501C114.005 12.2506 114.005 12.2511 114.005 12.2516C114.005 12.2521 114.005 12.2526 114.005 12.2532C114.005 12.2537 114.005 12.2542 114.005 12.2547C114.005 12.2553 114.005 12.2558 114.005 12.2564C114.005 12.2569 114.005 12.2575 114.005 12.258C114.005 12.2586 114.005 12.2591 114.005 12.2597C114.005 12.2603 114.005 12.2609 114.005 12.2614C114.005 12.262 114.005 12.2626 114.005 12.2632C114.005 12.2638 114.005 12.2644 114.005 12.265C114.005 12.2656 114.005 12.2662 114.005 12.2668C114.005 12.2675 114.005 12.2681 114.005 12.2687C114.005 12.2693 114.005 12.27 114.005 12.2706C114.005 12.2712 114.005 12.2719 114.005 12.2725C114.005 12.2732 114.005 12.2738 114.005 12.2745C114.005 12.2752 114.005 12.2758 114.005 12.2765C114.005 12.2772 114.005 12.2778 114.005 12.2785C114.005 12.2792 114.005 12.2799 114.005 12.2806C114.005 12.2813 114.005 12.282 114.005 12.2827C114.005 12.2834 114.005 12.2841 114.005 12.2848C114.005 12.2855 114.005 12.2862 114.005 12.287C114.005 12.2877 114.005 12.2884 114.005 12.2892C114.005 12.2899 114.005 12.2906 114.005 12.2914C114.005 12.2921 114.005 12.2929 114.005 12.2936C114.005 12.2944 114.005 12.2952 114.005 12.2959C114.005 12.2967 114.005 12.2975 114.005 12.2982C114.005 12.299 114.005 12.2998 114.005 12.3006C114.005 12.3014 114.005 12.3022 114.005 12.303C114.005 12.3038 114.005 12.3046 114.005 12.3054C114.005 12.3062 114.005 12.307 114.005 12.3078C114.005 12.3086 114.005 12.3095 114.005 12.3103C114.005 12.3111 114.005 12.312 114.005 12.3128C114.005 12.3136 114.005 12.3145 114.005 12.3153C114.005 12.3162 114.005 12.317 114.005 12.3179C114.005 12.3188 114.005 12.3196 114.005 12.3205C114.005 12.3214 114.005 12.3222 114.005 12.3231C114.005 12.324 114.005 12.3249 114.005 12.3258C114.005 12.3267 114.005 12.3276 114.005 12.3285C114.005 12.3294 114.005 12.3303 114.005 12.3312C114.005 12.3321 114.005 12.333 114.005 12.3339C114.005 12.3348 114.005 12.3358 114.005 12.3367C114.005 12.3376 114.005 12.3386 114.005 12.3395C114.005 12.3404 114.005 12.3414 114.005 12.3423C114.005 12.3433 114.005 12.3442 114.005 12.3452C114.005 12.3461 114.005 12.3471 114.005 12.3481C114.005 12.349 114.005 12.35 114.005 12.351C114.005 12.352 114.005 12.3529 114.005 12.3539C114.005 12.3549 114.005 12.3559 114.005 12.3569C114.005 12.3579 114.005 12.3589 114.005 12.3599C114.005 12.3609 114.005 12.3619 114.005 12.3629C114.005 12.3639 114.005 12.3649 114.005 12.366C114.005 12.367 114.005 12.368 114.005 12.369C114.005 12.3701 114.005 12.3711 114.005 12.3722C114.005 12.3732 114.005 12.3742 114.005 12.3753C114.005 12.3763 114.005 12.3774 114.005 12.3784C114.005 12.3795 114.005 12.3806 114.005 12.3816C114.005 12.3827 114.005 12.3838 114.005 12.3848C114.005 12.3859 114.005 12.387 114.005 12.3881C114.005 12.3892 114.005 12.3903 114.005 12.3914C114.005 12.3924 114.005 12.3935 114.005 12.3946C114.005 12.3958 114.005 12.3969 114.005 12.398C114.005 12.3991 114.005 12.4002 114.005 12.4013C114.005 12.4024 114.005 12.4036 114.005 12.4047C114.005 12.4058 114.005 12.4069 114.005 12.4081C114.005 12.4092 114.005 12.4103 114.005 12.4115C114.005 12.4126 114.005 12.4138 114.005 12.4149C114.005 12.4161 114.005 12.4172 114.005 12.4184C114.005 12.4196 114.005 12.4207 114.005 12.4219C114.005 12.4231 114.005 12.4242 114.005 12.4254C114.005 12.4266 114.005 12.4278 114.005 12.429C114.005 12.4301 114.005 12.4313 114.005 12.4325C114.005 12.4337 114.005 12.4349 114.005 12.4361C114.005 12.4373 114.005 12.4385 114.005 12.4397C114.005 12.4409 114.005 12.4422 114.005 12.4434C114.005 12.4446 114.005 12.4458 114.005 12.447C114.005 12.4483 114.005 12.4495 114.005 12.4507C114.005 12.452 114.005 12.4532 114.005 12.4544C114.005 12.4557 114.005 12.4569 114.005 12.4582C114.005 12.4594 114.005 12.4607 114.005 12.4619C114.005 12.4632 114.005 12.4644 114.005 12.4657C114.005 12.467 114.005 12.4682 114.005 12.4695C114.005 12.4708 114.005 12.472 114.005 12.4733C114.005 12.4746 114.005 12.4759 114.005 12.4772C114.005 12.4784 114.005 12.4797 114.005 12.481C114.005 12.4823 114.005 12.4836 114.005 12.4849C114.005 12.4862 114.005 12.4875 114.005 12.4888C114.005 12.4901 114.005 12.4914 114.005 12.4928C114.005 12.4941 114.005 12.4954 114.005 12.4967C114.005 12.498 114.005 12.4994 114.005 12.5007C114.005 12.502 114.005 12.5034 114.005 12.5047C114.005 12.506 114.005 12.5074 114.005 12.5087C114.005 12.51 114.005 12.5114 114.005 12.5127C114.005 12.5141 114.005 12.5154 114.005 12.5168C114.005 12.5182 114.005 12.5195 114.005 12.5209C114.005 12.5222 114.005 12.5236 114.005 12.525C114.005 12.5263 114.005 12.5277 114.005 12.5291C114.005 12.5305 114.005 12.5319 114.005 12.5332C114.005 12.5346 114.005 12.536 114.005 12.5374C114.005 12.5388 114.005 12.5402 114.005 12.5416C114.005 12.543 114.005 12.5444 114.005 12.5458C114.005 12.5472 114.005 12.5486 114.005 12.55C114.005 12.5514 114.005 12.5528 114.005 12.5542C114.005 12.5556 114.005 12.5571 114.005 12.5585C114.005 12.5599 114.005 12.5613 114.005 12.5628C114.005 12.5642 114.005 12.5656 114.005 12.567C114.005 12.5685 114.005 12.5699 114.005 12.5714C114.005 12.5728 114.005 12.5742 114.005 12.5757C114.005 12.5771 114.005 12.5786 114.005 12.58C114.005 12.5815 114.005 12.5829 114.005 12.5844C114.005 12.5859 114.005 12.5873 114.005 12.5888C114.005 12.5903 114.005 12.5917 114.005 12.5932C114.005 12.5947 114.005 12.5961 114.005 12.5976C114.005 12.5991 114.005 12.6006 114.005 12.602C114.005 12.6035 114.005 12.605 114.005 12.6065C114.005 12.608 114.005 12.6095 114.005 12.611C114.005 12.6125 114.005 12.614 114.005 12.6155C114.005 12.617 114.005 12.6185 114.005 12.62C114.005 12.6215 114.005 12.623 114.005 12.6245C114.005 12.626 114.005 12.6275 114.005 12.629C114.005 12.6305 114.005 12.6321 114.005 12.6336C114.005 12.6351 114.005 12.6366 114.005 12.6381C114.005 12.6397 114.005 12.6412 114.005 12.6427C114.005 12.6443 114.005 12.6458 114.005 12.6473C114.005 12.6489 114.005 12.6504 114.005 12.6519C114.005 12.6535 114.005 12.655 114.005 12.6566C114.005 12.6581 114.005 12.6597 114.005 12.6612C114.005 12.6628 114.005 12.6643 114.005 12.6659C114.005 12.6674 114.005 12.669 114.005 12.6706C114.005 12.6721 114.005 12.6737 114.005 12.6753C114.005 12.6768 114.005 12.6784 114.005 12.68C114.005 12.6815 114.005 12.6831 114.005 12.6847C114.005 12.6863 114.005 12.6878 114.005 12.6894C114.005 12.691 114.005 12.6926 114.005 12.6942C114.005 12.6958 114.005 12.6974 114.005 12.6989C114.005 12.7005 114.005 12.7021 114.005 12.7037C114.005 12.7053 114.005 12.7069 114.005 12.7085C114.005 12.7101 114.005 12.7117 114.005 12.7133C114.005 12.7149 114.005 12.7165 114.005 12.7181C114.005 12.7197 114.005 12.7214 114.005 12.723C114.005 12.7246 114.005 12.7262 114.005 12.7278C114.005 12.7294 114.005 12.731 114.005 12.7327C114.005 12.7343 114.005 12.7359 114.005 12.7375C114.005 12.7392 114.005 12.7408 114.005 12.7424C114.005 12.7441 114.005 12.7457 114.005 12.7473C114.005 12.749 114.005 12.7506 114.005 12.7522C114.005 12.7539 114.005 12.7555 114.005 12.7571C114.005 12.7588 114.005 12.7604 114.005 12.7621C114.005 12.7637 114.005 12.7654 114.005 12.767C114.005 12.7687 114.005 12.7703 114.005 12.772C114.005 12.7736 114.005 12.7753 114.005 12.7769C114.005 12.7786 114.005 12.7803 114.005 12.7819C114.005 12.7836 114.005 12.7852 114.005 12.7869C114.005 12.7886 114.005 12.7902 114.005 12.7919C114.005 12.7936 114.005 12.7952 114.005 12.7969C114.005 12.7986 114.005 12.8003 114.005 12.8019C114.005 12.8036 114.005 12.8053 114.005 12.807C114.005 12.8086 114.005 12.8103 114.005 12.812C114.005 12.8137 114.005 12.8154 114.005 12.8171C114.005 12.8187 114.005 12.8204 114.005 12.8221C114.005 12.8238 114.005 12.8255 114.005 12.8272C114.005 12.8289 114.005 12.8306 114.005 12.8323C114.005 12.834 114.005 12.8357 114.005 12.8374C114.005 12.8391 114.005 12.8408 114.005 12.8425C114.005 12.8442 114.005 12.8459 114.005 12.8476C114.005 12.8493 114.005 12.851 114.005 12.8527C114.005 12.8544 114.005 12.8561 114.005 12.8578C114.005 12.8595 114.005 12.8612 114.005 12.8629C114.005 12.8647 114.005 12.8664 114.005 12.8681C114.005 12.8698 114.005 12.8715 114.005 12.8732C114.005 12.875 114.005 12.8767 114.005 12.8784C114.005 12.8801 114.005 12.8818 114.005 12.8836C114.005 12.8853 114.005 12.887 114.005 12.8887C114.005 12.8905 114.005 12.8922 114.005 12.8939C114.005 12.8957 114.005 12.8974 114.005 12.8991C114.005 12.9009 114.005 12.9026 114.005 12.9043C114.005 12.9061 114.005 12.9078 114.005 12.9095C114.005 12.9113 114.005 12.913 114.005 12.9147C114.005 12.9165 114.005 12.9182 114.005 12.92C114.005 12.9217 114.005 12.9234 114.005 12.9252C114.005 12.9269 114.005 12.9287 114.005 12.9304C114.005 12.9322 114.005 12.9339 114.005 12.9357C114.005 12.9374 114.005 12.9391 114.005 12.9409C114.005 12.9426 114.005 12.9444 114.005 12.9461C114.005 12.9479 114.005 12.9497 114.005 12.9514C114.005 12.9532 114.005 12.9549 114.005 12.9567C114.005 12.9584 114.005 12.9602 114.005 12.9619C114.005 12.9637 114.005 12.9655 114.005 12.9672C114.005 12.969 114.005 12.9707 114.005 12.9725C114.005 12.9743 114.005 12.976 114.005 12.9778C114.005 12.9795 114.005 12.9813 114.005 12.9831C114.005 12.9848 114.005 12.9866 114.005 12.9884C114.005 12.9901 114.005 12.9919 114.005 12.9937C114.005 12.9954 114.005 12.9972 114.005 12.999C114.005 13.0007 114.005 13.0025 114.005 13.0043C114.005 13.006 114.005 13.0078 114.005 13.0096C114.005 13.0113 114.005 13.0131 114.005 13.0149C114.005 13.0167 114.005 13.0184 114.005 13.0202C114.005 13.022 114.005 13.0238 114.005 13.0255C114.005 13.0273 114.005 13.0291 114.005 13.0309C114.005 13.0326 114.005 13.0344 114.005 13.0362C114.005 13.038 114.005 13.0397 114.005 13.0415C114.005 13.0433 114.005 13.0451 114.005 13.0469C114.005 13.0486 114.005 13.0504 114.005 13.0522C114.005 13.054 114.005 13.0558 114.005 13.0575C114.005 13.0593 114.005 13.0611 114.005 13.0629C114.005 13.0647 114.005 13.0664 114.005 13.0682C114.005 13.07 114.005 13.0718 114.005 13.0736C114.005 13.0754 114.005 13.0771 114.005 13.0789C114.005 13.0807 114.005 13.0825 114.005 13.0843C114.005 13.0861 114.005 13.0878 114.005 13.0896C114.005 13.0914 114.005 13.0932 114.005 13.095C114.005 13.0968 114.005 13.0986 114.005 13.1003C114.005 13.1021 114.005 13.1039 114.005 13.1057C114.005 13.1075 114.005 13.1093 114.005 13.1111C114.005 13.1128 114.005 13.1146 114.005 13.1164C114.005 13.1182 114.005 13.12 114.005 13.1218C114.005 13.1236 114.005 13.1254 114.005 13.1271C114.005 13.1289 114.005 13.1307 114.005 13.1325C114.005 13.1343 114.005 13.1361 114.005 13.1379C114.005 13.1396 114.005 13.1414 114.005 13.1432C114.005 13.145 114.005 13.1468 114.005 13.1486C114.005 13.1504 114.005 13.1522 114.005 13.1539C114.005 13.1557 114.005 13.1575 114.005 13.1593C114.005 13.1611 114.005 13.1629 114.005 13.1647C114.005 13.1665 114.005 13.1682 114.005 13.17C114.005 13.1718 114.005 13.1736 114.005 13.1754C114.005 13.1772 114.005 13.179 114.005 13.1807C114.005 13.1825 114.005 13.1843 114.005 13.1861C114.005 13.1879 114.005 13.1897 114.005 13.1915C114.005 13.1932 114.005 13.195 114.005 13.1968C114.005 13.1986 114.005 13.2004 114.005 13.2022C114.005 13.2039 114.005 13.2057 114.005 13.2075C114.005 13.2093 114.005 13.2111 114.005 13.2129C114.005 13.2146 114.005 13.2164 114.005 13.2182C114.005 13.22 114.005 13.2218 114.005 13.2235C114.005 13.2253 114.005 13.2271 114.005 13.2289C114.005 13.2307 114.005 13.2324 114.005 13.2342C114.005 13.236 114.005 13.2378 114.005 13.2396C114.005 13.2413 114.005 13.2431 114.005 13.2449C114.005 13.2467 114.005 13.2484 114.005 13.2502C114.005 13.252 114.005 13.2538 114.005 13.2555C114.005 13.2573 114.005 13.2591 114.005 13.2609C114.005 13.2626 114.005 13.2644 114.005 13.2662C114.005 13.268 114.005 13.2697 114.005 13.2715C114.005 13.2733 114.005 13.275 114.005 13.2768C114.005 13.2786 114.005 13.2803 114.005 13.2821C114.005 13.2839 114.005 13.2857 114.005 13.2874C114.005 13.2892 114.005 13.2909 114.005 13.2927C114.005 13.2945 114.005 13.2962 114.005 13.298C114.005 13.2998 114.005 13.3015 114.005 13.3033C114.005 13.3051 114.005 13.3068 114.005 13.3086C114.005 13.3103 114.005 13.3121 114.005 13.3139C114.005 13.3156 114.005 13.3174 114.005 13.3191C114.005 13.3209 114.005 13.3226 114.005 13.3244C114.005 13.3262 114.005 13.3279 114.005 13.3297C114.005 13.3314 114.005 13.3332 114.005 13.3349C114.005 13.3367 114.005 13.3384 114.005 13.3402C114.005 13.3419 114.005 13.3437 114.005 13.3454C114.005 13.3472 114.005 13.3489 114.005 13.3506C114.005 13.3524 114.005 13.3541 114.005 13.3559C114.005 13.3576 114.005 13.3594 114.005 13.3611C114.005 13.3628 114.005 13.3646 114.005 13.3663C114.005 13.3681 114.005 13.3698 114.005 13.3715C114.005 13.3733 114.005 13.375 114.005 13.3767C114.005 13.3785 114.005 13.3802 114.005 13.3819C114.005 13.3837 114.005 13.3854 114.005 13.3871C114.005 13.3889 114.005 13.3906 114.005 13.3923C114.005 13.394 114.005 13.3958 114.005 13.3975C114.005 13.3992 114.005 13.4009 114.005 13.4026C114.005 13.4044 114.005 13.4061 114.005 13.4078C114.005 13.4095 114.005 13.4112 114.005 13.413C114.005 13.4147 114.005 13.4164 114.005 13.4181C114.005 13.4198 114.005 13.4215 114.005 13.4232C114.005 13.4249 114.005 13.4266 114.005 13.4284C114.005 13.4301 114.005 13.4318 114.005 13.4335C114.005 13.4352 114.005 13.4369 114.005 13.4386C114.005 13.4403 114.005 13.442 114.005 13.4437C114.005 13.4454 114.005 13.4471 114.005 13.4488C114.005 13.4505 114.005 13.4522 114.005 13.4538C114.005 13.4555 114.005 13.4572 114.005 13.4589C114.005 13.4606 114.005 13.4623 114.005 13.464C114.005 13.4657 114.005 13.4673 114.005 13.469C114.005 13.4707 114.005 13.4724 114.005 13.4741C114.005 13.4757 114.005 13.4774 114.005 13.4791C114.005 13.4808 114.005 13.4824 114.005 13.4841C114.005 13.4858 114.005 13.4875 114.005 13.4891C114.005 13.4908 114.005 13.4925 114.005 13.4941C114.005 13.4958 114.005 13.4974 114.005 13.4991C114.005 13.5008 114.005 13.5024 114.005 13.5041C114.005 13.5057 114.005 13.5074 114.005 13.509C114.005 13.5107 114.005 13.5123 114.005 13.514C114.005 13.5156 114.005 13.5173 114.005 13.5189C114.005 13.5206 114.005 13.5222 114.005 13.5239C114.005 13.5255 114.005 13.5271 114.005 13.5288C114.005 13.5304 114.005 13.5321 114.005 13.5337C114.005 13.5353 114.005 13.537 114.005 13.5386C114.005 13.5402 114.005 13.5418 114.005 13.5435C114.005 13.5451 114.005 13.5467 114.005 13.5483C114.005 13.5499 114.005 13.5516 114.005 13.5532C114.005 13.5548 114.005 13.5564 114.005 13.558C114.005 13.5596 114.005 13.5612 114.005 13.5629C114.005 13.5645 114.005 13.5661 114.005 13.5677C114.005 13.5693 114.005 13.5709 114.005 13.5725C114.005 13.5741 114.005 13.5757 114.005 13.5773C114.005 13.5789 114.005 13.5805 114.005 13.582C114.005 13.5836 114.005 13.5852 114.005 13.5868C114.005 13.5884 114.005 13.59 114.005 13.5916C114.005 13.5931 114.005 13.5947 114.005 13.5963C114.005 13.5979 114.005 13.5994 114.005 13.601C114.005 13.6026 114.005 13.6041 114.005 13.6057C114.005 13.6073 114.005 13.6088 114.005 13.6104C114.005 13.612 114.005 13.6135 114.005 13.6151C114.005 13.6166 114.005 13.6182 114.005 13.6197C114.005 13.6213 114.005 13.6228 114.005 13.6244C114.005 13.6259 114.005 13.6275 114.005 13.629C114.005 13.6306 114.005 13.6321 114.005 13.6336C114.005 13.6352 114.005 13.6367 114.005 13.6382C114.005 13.6398 114.005 13.6413 114.005 13.6428C114.005 13.6443 114.005 13.6459 114.005 13.6474C114.005 13.6489 114.005 13.6504 114.005 13.6519C114.005 13.6534 114.005 13.6549 114.005 13.6565C114.005 13.658 114.005 13.6595 114.005 13.661C114.005 13.6625 114.005 13.664 114.005 13.6655C114.005 13.667 114.005 13.6685 114.005 13.67C114.005 13.6715 114.005 13.6729 114.005 13.6744C114.005 13.6759 114.005 13.6774 114.005 13.6789C114.005 13.6804 114.005 13.6818 114.005 13.6833C114.005 13.6848 114.005 13.6863 114.005 13.6877C114.005 13.6892 114.005 13.6907 114.005 13.6921C114.005 13.6936 114.005 13.6951 114.005 13.6965C114.005 13.698 114.005 13.6994 114.005 13.7009C114.005 13.7023 114.005 13.7038 114.005 13.7052C114.005 13.7067 114.005 13.7081 114.005 13.7095C114.005 13.711 114.005 13.7124 114.005 13.7139C114.005 13.7153 114.005 13.7167 114.005 13.7181C114.005 13.7196 114.005 13.721 114.005 13.7224C114.005 13.7238 114.005 13.7253 114.005 13.7267C114.005 13.7281 114.005 13.7295 114.005 13.7309C114.005 13.7323 114.005 13.7337 114.005 13.7351C114.005 13.7365 114.005 13.7379 114.005 13.7393C114.005 13.7407 114.005 13.7421 114.005 13.7435C114.005 13.7449 114.005 13.7463 114.005 13.7476C114.005 13.749 114.005 13.7504 114.005 13.7518C114.005 13.7532 114.005 13.7545 114.005 13.7559C114.005 13.7573 114.005 13.7586 114.005 13.76C114.005 13.7613 114.005 13.7627 114.005 13.7641C114.005 13.7654 114.005 13.7668 114.005 13.7681C114.005 13.7695 114.005 13.7708 114.005 13.7722C114.005 13.7735 114.005 13.7748 114.005 13.7762C114.005 13.7775 114.005 13.7788 114.005 13.7802C114.005 13.7815 114.005 13.7828 114.005 13.7841C114.005 13.7854 114.005 13.7868 114.005 13.7881C114.005 13.7894 114.005 13.7907 114.005 13.792C114.005 13.7933 114.005 13.7946 114.005 13.7959C114.005 13.7972 114.005 13.7985 114.005 13.7998C114.005 13.8011 114.005 13.8024 114.005 13.8037C114.005 13.8049 114.005 13.8062 114.005 13.8075C114.005 13.8088 114.005 13.8101 114.005 13.8113C114.005 13.8126 114.005 13.8139 114.005 13.8151C114.005 13.8164 114.005 13.8176 114.005 13.8189C114.005 13.8201 114.005 13.8214 114.005 13.8226C114.005 13.8239 114.005 13.8251 114.005 13.8264C114.005 13.8276 114.005 13.8288 114.005 13.8301C114.005 13.8313 114.005 13.8325 114.005 13.8338C114.005 13.835 114.005 13.8362 114.005 13.8374C114.005 13.8386 114.005 13.8398 114.005 13.841C114.005 13.8423 114.005 13.8435 114.005 13.8447C114.005 13.8459 114.005 13.8471 114.005 13.8482C114.005 13.8494 114.005 13.8506 114.005 13.8518C114.005 13.853 114.005 13.8542 114.005 13.8553C114.005 13.8565 114.005 13.8577 114.005 13.8589C114.005 13.86 114.005 13.8612 114.005 13.8624C114.005 13.8635 114.005 13.8647 114.005 13.8658C114.005 13.867 114.005 13.8681 114.005 13.8693C114.005 13.8704 114.005 13.8715 114.005 13.8727C114.005 13.8738 114.005 13.8749 114.005 13.8761C114.005 13.8772 114.005 13.8783 114.005 13.8794C114.005 13.8805 114.005 13.8817 114.005 13.8828C114.005 13.8839 114.005 13.885 114.005 13.8861C114.005 13.8872 114.005 13.8883 114.005 13.8894C114.005 13.8905 114.005 13.8915 114.005 13.8926C114.005 13.8937 114.005 13.8948 114.005 13.8959C114.005 13.8969 114.005 13.898 114.005 13.8991C114.005 13.9001 114.005 13.9012 114.005 13.9023C114.005 13.9033 114.005 13.9044 114.005 13.9054C114.005 13.9065 114.005 13.9075 114.005 13.9085C114.005 13.9096 114.005 13.9106 114.005 13.9116C114.005 13.9127 114.005 13.9137 114.005 13.9147C114.005 13.9157 114.005 13.9168 114.005 13.9178C114.005 13.9188 114.005 13.9198 114.005 13.9208C114.005 13.9218 114.005 13.9228 114.005 13.9238C114.005 13.9248 114.005 13.9258 114.005 13.9268C114.005 13.9277 114.005 13.9287 114.005 13.9297C114.005 13.9307 114.005 13.9316 114.005 13.9326C114.005 13.9336 114.005 13.9345 114.005 13.9355C114.005 13.9364 114.005 13.9374 114.005 13.9383C114.005 13.9393 114.005 13.9402 114.005 13.9412C114.005 13.9421 114.005 13.943 114.005 13.944C114.005 13.9449 114.005 13.9458 114.005 13.9467C114.005 13.9476 114.005 13.9485 114.005 13.9495C114.005 13.9504 114.005 13.9513 114.005 13.9522C114.005 13.9531 114.005 13.954 114.005 13.9548C114.005 13.9557 114.005 13.9566 114.005 13.9575C114.005 13.9584 114.005 13.9592 114.005 13.9601C114.005 13.961 114.005 13.9618 114.005 13.9627C114.005 13.9636 114.005 13.9644 114.005 13.9653C114.005 13.9661 114.005 13.967 114.005 13.9678C114.005 13.9686 114.005 13.9695 114.005 13.9703C114.005 13.9711 114.005 13.9719 114.005 13.9728C114.005 13.9736 114.005 13.9744 114.005 13.9752C114.005 13.976 114.005 13.9768 114.005 13.9776C114.005 13.9784 114.005 13.9792 114.005 13.98C114.005 13.9808 114.005 13.9815 114.005 13.9823C114.005 13.9831 114.005 13.9839 114.005 13.9846C114.005 13.9854 114.005 13.9862 114.005 13.9869C114.005 13.9877 114.005 13.9884 114.005 13.9892C114.005 13.9899 114.005 13.9907 114.005 13.9914C114.005 13.9921 114.005 13.9929 114.005 13.9936C114.005 13.9943 114.005 13.995 114.005 13.9957C114.005 13.9964 114.005 13.9971 114.005 13.9979C114.005 13.9986 114.005 13.9992 114.005 13.9999C114.005 14.0006 114.005 14.0013 114.005 14.002C114.005 14.0027 114.005 14.0034 114.005 14.004C114.005 14.0047 114.005 14.0054 114.005 14.006C114.005 14.0067 114.005 14.0073 114.005 14.008C114.005 14.0086 114.005 14.0093 114.005 14.0099C114.005 14.0105 114.005 14.0112 114.005 14.0118C114.005 14.0124 114.005 14.013 114.005 14.0136C114.005 14.0143 114.005 14.0149 114.005 14.0155C114.005 14.0161 114.005 14.0167 114.005 14.0173C114.005 14.0179 114.005 14.0184 114.005 14.019C114.005 14.0196 114.005 14.0202 114.005 14.0207C114.005 14.0213 114.005 14.0219 114.005 14.0224C114.005 14.023 114.005 14.0235 114.005 14.0241C114.005 14.0246 114.005 14.0252 114.005 14.0257C114.005 14.0262 114.005 14.0268 114.005 14.0273C114.005 14.0278 114.005 14.0283 114.005 14.0288C114.005 14.0293 114.005 14.0298 114.005 14.0303C114.005 14.0308 114.005 14.0313 114.005 14.0318C114.005 14.0323 114.005 14.0328 114.005 14.0333C114.005 14.0337 114.005 14.0342 114.005 14.0347C114.005 14.0351 114.005 14.0356 114.005 14.036C114.005 14.0365 114.005 14.0369 114.005 14.0374C114.005 14.0378 114.005 14.0382 114.005 14.0387C114.005 14.0391 114.005 14.0395 114.005 14.0399C114.005 14.0403 114.005 14.0408 114.005 14.0412C114.005 14.0416 114.005 14.042 114.005 14.0423C114.005 14.0427 114.005 14.0431 114.005 14.0435C114.005 14.0439 114.005 14.0443 114.005 14.0446C114.005 14.045 114.005 14.0453 114.005 14.0457C114.005 14.046 114.005 14.0464 114.005 14.0467C114.005 14.0471 114.005 14.0474 114.005 14.0477C114.005 14.0481 114.005 14.0484 114.005 14.0487C114.005 14.049 114.005 14.0493 114.005 14.0496C114.005 14.0499 114.005 14.0502 114.005 14.0505C114.005 14.0508 114.005 14.0511 114.005 14.0514C114.005 14.0517 114.005 14.0519 114.005 14.0522C114.005 14.0525 114.005 14.0527 114.005 14.053C114.005 14.0532 114.005 14.0535 114.005 14.0537C114.005 14.0539 114.005 14.0542 114.005 14.0544C114.005 14.0546 114.005 14.0548 114.005 14.0551C114.005 14.0553 114.005 14.0555 114.005 14.0557C114.005 14.0559 114.005 14.0561 114.005 14.0563C114.005 14.0564 114.005 14.0566 114.005 14.0568C114.005 14.057 114.005 14.0571 114.005 14.0573C114.005 14.0575 114.005 14.0576 114.005 14.0578C114.005 14.0579 114.005 14.058 114.005 14.0582C114.005 14.0583 114.005 14.0584 114.005 14.0586C114.005 14.0587 114.005 14.0588 114.005 14.0589C114.005 14.059 114.005 14.0591 114.005 14.0592C114.005 14.0593 114.005 14.0594 114.005 14.0595C114.005 14.0595 114.005 14.0596 114.005 14.0597C114.005 14.0597 114.005 14.0598 114.005 14.0599C114.005 14.0599 114.005 14.06 114.005 14.06H114.405C114.405 14.06 114.405 14.0599 114.405 14.0599C114.405 14.0598 114.405 14.0597 114.405 14.0597C114.405 14.0596 114.405 14.0595 114.405 14.0595C114.405 14.0594 114.405 14.0593 114.405 14.0592C114.405 14.0591 114.405 14.059 114.405 14.0589C114.405 14.0588 114.405 14.0587 114.405 14.0586C114.405 14.0584 114.405 14.0583 114.405 14.0582C114.405 14.058 114.405 14.0579 114.405 14.0578C114.405 14.0576 114.405 14.0575 114.405 14.0573C114.405 14.0571 114.405 14.057 114.405 14.0568C114.405 14.0566 114.405 14.0564 114.405 14.0563C114.405 14.0561 114.405 14.0559 114.405 14.0557C114.405 14.0555 114.405 14.0553 114.405 14.0551C114.405 14.0548 114.405 14.0546 114.405 14.0544C114.405 14.0542 114.405 14.0539 114.405 14.0537C114.405 14.0535 114.405 14.0532 114.405 14.053C114.405 14.0527 114.405 14.0525 114.405 14.0522C114.405 14.0519 114.405 14.0517 114.405 14.0514C114.405 14.0511 114.405 14.0508 114.405 14.0505C114.405 14.0502 114.405 14.0499 114.405 14.0496C114.405 14.0493 114.405 14.049 114.405 14.0487C114.405 14.0484 114.405 14.0481 114.405 14.0477C114.405 14.0474 114.405 14.0471 114.405 14.0467C114.405 14.0464 114.405 14.046 114.405 14.0457C114.405 14.0453 114.405 14.045 114.405 14.0446C114.405 14.0443 114.405 14.0439 114.405 14.0435C114.405 14.0431 114.405 14.0427 114.405 14.0423C114.405 14.042 114.405 14.0416 114.405 14.0412C114.405 14.0408 114.405 14.0403 114.405 14.0399C114.405 14.0395 114.405 14.0391 114.405 14.0387C114.405 14.0382 114.405 14.0378 114.405 14.0374C114.405 14.0369 114.405 14.0365 114.405 14.036C114.405 14.0356 114.405 14.0351 114.405 14.0347C114.405 14.0342 114.405 14.0337 114.405 14.0333C114.405 14.0328 114.405 14.0323 114.405 14.0318C114.405 14.0313 114.405 14.0308 114.405 14.0303C114.405 14.0298 114.405 14.0293 114.405 14.0288C114.405 14.0283 114.405 14.0278 114.405 14.0273C114.405 14.0268 114.405 14.0262 114.405 14.0257C114.405 14.0252 114.405 14.0246 114.405 14.0241C114.405 14.0235 114.405 14.023 114.405 14.0224C114.405 14.0219 114.405 14.0213 114.405 14.0207C114.405 14.0202 114.405 14.0196 114.405 14.019C114.405 14.0184 114.405 14.0179 114.405 14.0173C114.405 14.0167 114.405 14.0161 114.405 14.0155C114.405 14.0149 114.405 14.0143 114.405 14.0136C114.405 14.013 114.405 14.0124 114.405 14.0118C114.405 14.0112 114.405 14.0105 114.405 14.0099C114.405 14.0093 114.405 14.0086 114.405 14.008C114.405 14.0073 114.405 14.0067 114.405 14.006C114.405 14.0054 114.405 14.0047 114.405 14.004C114.405 14.0034 114.405 14.0027 114.405 14.002C114.405 14.0013 114.405 14.0006 114.405 13.9999C114.405 13.9992 114.405 13.9986 114.405 13.9979C114.405 13.9971 114.405 13.9964 114.405 13.9957C114.405 13.995 114.405 13.9943 114.405 13.9936C114.405 13.9929 114.405 13.9921 114.405 13.9914C114.405 13.9907 114.405 13.9899 114.405 13.9892C114.405 13.9884 114.405 13.9877 114.405 13.9869C114.405 13.9862 114.405 13.9854 114.405 13.9846C114.405 13.9839 114.405 13.9831 114.405 13.9823C114.405 13.9815 114.405 13.9808 114.405 13.98C114.405 13.9792 114.405 13.9784 114.405 13.9776C114.405 13.9768 114.405 13.976 114.405 13.9752C114.405 13.9744 114.405 13.9736 114.405 13.9728C114.405 13.9719 114.405 13.9711 114.405 13.9703C114.405 13.9695 114.405 13.9686 114.405 13.9678C114.405 13.967 114.405 13.9661 114.405 13.9653C114.405 13.9644 114.405 13.9636 114.405 13.9627C114.405 13.9618 114.405 13.961 114.405 13.9601C114.405 13.9592 114.405 13.9584 114.405 13.9575C114.405 13.9566 114.405 13.9557 114.405 13.9548C114.405 13.954 114.405 13.9531 114.405 13.9522C114.405 13.9513 114.405 13.9504 114.405 13.9495C114.405 13.9485 114.405 13.9476 114.405 13.9467C114.405 13.9458 114.405 13.9449 114.405 13.944C114.405 13.943 114.405 13.9421 114.405 13.9412C114.405 13.9402 114.405 13.9393 114.405 13.9383C114.405 13.9374 114.405 13.9364 114.405 13.9355C114.405 13.9345 114.405 13.9336 114.405 13.9326C114.405 13.9316 114.405 13.9307 114.405 13.9297C114.405 13.9287 114.405 13.9277 114.405 13.9268C114.405 13.9258 114.405 13.9248 114.405 13.9238C114.405 13.9228 114.405 13.9218 114.405 13.9208C114.405 13.9198 114.405 13.9188 114.405 13.9178C114.405 13.9168 114.405 13.9157 114.405 13.9147C114.405 13.9137 114.405 13.9127 114.405 13.9116C114.405 13.9106 114.405 13.9096 114.405 13.9085C114.405 13.9075 114.405 13.9065 114.405 13.9054C114.405 13.9044 114.405 13.9033 114.405 13.9023C114.405 13.9012 114.405 13.9001 114.405 13.8991C114.405 13.898 114.405 13.8969 114.405 13.8959C114.405 13.8948 114.405 13.8937 114.405 13.8926C114.405 13.8915 114.405 13.8905 114.405 13.8894C114.405 13.8883 114.405 13.8872 114.405 13.8861C114.405 13.885 114.405 13.8839 114.405 13.8828C114.405 13.8817 114.405 13.8805 114.405 13.8794C114.405 13.8783 114.405 13.8772 114.405 13.8761C114.405 13.8749 114.405 13.8738 114.405 13.8727C114.405 13.8715 114.405 13.8704 114.405 13.8693C114.405 13.8681 114.405 13.867 114.405 13.8658C114.405 13.8647 114.405 13.8635 114.405 13.8624C114.405 13.8612 114.405 13.86 114.405 13.8589C114.405 13.8577 114.405 13.8565 114.405 13.8553C114.405 13.8542 114.405 13.853 114.405 13.8518C114.405 13.8506 114.405 13.8494 114.405 13.8482C114.405 13.8471 114.405 13.8459 114.405 13.8447C114.405 13.8435 114.405 13.8423 114.405 13.841C114.405 13.8398 114.405 13.8386 114.405 13.8374C114.405 13.8362 114.405 13.835 114.405 13.8338C114.405 13.8325 114.405 13.8313 114.405 13.8301C114.405 13.8288 114.405 13.8276 114.405 13.8264C114.405 13.8251 114.405 13.8239 114.405 13.8226C114.405 13.8214 114.405 13.8201 114.405 13.8189C114.405 13.8176 114.405 13.8164 114.405 13.8151C114.405 13.8139 114.405 13.8126 114.405 13.8113C114.405 13.8101 114.405 13.8088 114.405 13.8075C114.405 13.8062 114.405 13.8049 114.405 13.8037C114.405 13.8024 114.405 13.8011 114.405 13.7998C114.405 13.7985 114.405 13.7972 114.405 13.7959C114.405 13.7946 114.405 13.7933 114.405 13.792C114.405 13.7907 114.405 13.7894 114.405 13.7881C114.405 13.7868 114.405 13.7854 114.405 13.7841C114.405 13.7828 114.405 13.7815 114.405 13.7802C114.405 13.7788 114.405 13.7775 114.405 13.7762C114.405 13.7748 114.405 13.7735 114.405 13.7722C114.405 13.7708 114.405 13.7695 114.405 13.7681C114.405 13.7668 114.405 13.7654 114.405 13.7641C114.405 13.7627 114.405 13.7613 114.405 13.76C114.405 13.7586 114.405 13.7573 114.405 13.7559C114.405 13.7545 114.405 13.7532 114.405 13.7518C114.405 13.7504 114.405 13.749 114.405 13.7476C114.405 13.7463 114.405 13.7449 114.405 13.7435C114.405 13.7421 114.405 13.7407 114.405 13.7393C114.405 13.7379 114.405 13.7365 114.405 13.7351C114.405 13.7337 114.405 13.7323 114.405 13.7309C114.405 13.7295 114.405 13.7281 114.405 13.7267C114.405 13.7253 114.405 13.7238 114.405 13.7224C114.405 13.721 114.405 13.7196 114.405 13.7181C114.405 13.7167 114.405 13.7153 114.405 13.7139C114.405 13.7124 114.405 13.711 114.405 13.7095C114.405 13.7081 114.405 13.7067 114.405 13.7052C114.405 13.7038 114.405 13.7023 114.405 13.7009C114.405 13.6994 114.405 13.698 114.405 13.6965C114.405 13.6951 114.405 13.6936 114.405 13.6921C114.405 13.6907 114.405 13.6892 114.405 13.6877C114.405 13.6863 114.405 13.6848 114.405 13.6833C114.405 13.6818 114.405 13.6804 114.405 13.6789C114.405 13.6774 114.405 13.6759 114.405 13.6744C114.405 13.6729 114.405 13.6715 114.405 13.67C114.405 13.6685 114.405 13.667 114.405 13.6655C114.405 13.664 114.405 13.6625 114.405 13.661C114.405 13.6595 114.405 13.658 114.405 13.6565C114.405 13.6549 114.405 13.6534 114.405 13.6519C114.405 13.6504 114.405 13.6489 114.405 13.6474C114.405 13.6459 114.405 13.6443 114.405 13.6428C114.405 13.6413 114.405 13.6398 114.405 13.6382C114.405 13.6367 114.405 13.6352 114.405 13.6336C114.405 13.6321 114.405 13.6306 114.405 13.629C114.405 13.6275 114.405 13.6259 114.405 13.6244C114.405 13.6228 114.405 13.6213 114.405 13.6197C114.405 13.6182 114.405 13.6166 114.405 13.6151C114.405 13.6135 114.405 13.612 114.405 13.6104C114.405 13.6088 114.405 13.6073 114.405 13.6057C114.405 13.6041 114.405 13.6026 114.405 13.601C114.405 13.5994 114.405 13.5979 114.405 13.5963C114.405 13.5947 114.405 13.5931 114.405 13.5916C114.405 13.59 114.405 13.5884 114.405 13.5868C114.405 13.5852 114.405 13.5836 114.405 13.582C114.405 13.5805 114.405 13.5789 114.405 13.5773C114.405 13.5757 114.405 13.5741 114.405 13.5725C114.405 13.5709 114.405 13.5693 114.405 13.5677C114.405 13.5661 114.405 13.5645 114.405 13.5629C114.405 13.5612 114.405 13.5596 114.405 13.558C114.405 13.5564 114.405 13.5548 114.405 13.5532C114.405 13.5516 114.405 13.5499 114.405 13.5483C114.405 13.5467 114.405 13.5451 114.405 13.5435C114.405 13.5418 114.405 13.5402 114.405 13.5386C114.405 13.537 114.405 13.5353 114.405 13.5337C114.405 13.5321 114.405 13.5304 114.405 13.5288C114.405 13.5271 114.405 13.5255 114.405 13.5239C114.405 13.5222 114.405 13.5206 114.405 13.5189C114.405 13.5173 114.405 13.5156 114.405 13.514C114.405 13.5123 114.405 13.5107 114.405 13.509C114.405 13.5074 114.405 13.5057 114.405 13.5041C114.405 13.5024 114.405 13.5008 114.405 13.4991C114.405 13.4974 114.405 13.4958 114.405 13.4941C114.405 13.4925 114.405 13.4908 114.405 13.4891C114.405 13.4875 114.405 13.4858 114.405 13.4841C114.405 13.4824 114.405 13.4808 114.405 13.4791C114.405 13.4774 114.405 13.4757 114.405 13.4741C114.405 13.4724 114.405 13.4707 114.405 13.469C114.405 13.4673 114.405 13.4657 114.405 13.464C114.405 13.4623 114.405 13.4606 114.405 13.4589C114.405 13.4572 114.405 13.4555 114.405 13.4538C114.405 13.4522 114.405 13.4505 114.405 13.4488C114.405 13.4471 114.405 13.4454 114.405 13.4437C114.405 13.442 114.405 13.4403 114.405 13.4386C114.405 13.4369 114.405 13.4352 114.405 13.4335C114.405 13.4318 114.405 13.4301 114.405 13.4284C114.405 13.4266 114.405 13.4249 114.405 13.4232C114.405 13.4215 114.405 13.4198 114.405 13.4181C114.405 13.4164 114.405 13.4147 114.405 13.413C114.405 13.4112 114.405 13.4095 114.405 13.4078C114.405 13.4061 114.405 13.4044 114.405 13.4026C114.405 13.4009 114.405 13.3992 114.405 13.3975C114.405 13.3958 114.405 13.394 114.405 13.3923C114.405 13.3906 114.405 13.3889 114.405 13.3871C114.405 13.3854 114.405 13.3837 114.405 13.3819C114.405 13.3802 114.405 13.3785 114.405 13.3767C114.405 13.375 114.405 13.3733 114.405 13.3715C114.405 13.3698 114.405 13.3681 114.405 13.3663C114.405 13.3646 114.405 13.3628 114.405 13.3611C114.405 13.3594 114.405 13.3576 114.405 13.3559C114.405 13.3541 114.405 13.3524 114.405 13.3506C114.405 13.3489 114.405 13.3472 114.405 13.3454C114.405 13.3437 114.405 13.3419 114.405 13.3402C114.405 13.3384 114.405 13.3367 114.405 13.3349C114.405 13.3332 114.405 13.3314 114.405 13.3297C114.405 13.3279 114.405 13.3262 114.405 13.3244C114.405 13.3226 114.405 13.3209 114.405 13.3191C114.405 13.3174 114.405 13.3156 114.405 13.3139C114.405 13.3121 114.405 13.3103 114.405 13.3086C114.405 13.3068 114.405 13.3051 114.405 13.3033C114.405 13.3015 114.405 13.2998 114.405 13.298C114.405 13.2962 114.405 13.2945 114.405 13.2927C114.405 13.2909 114.405 13.2892 114.405 13.2874C114.405 13.2857 114.405 13.2839 114.405 13.2821C114.405 13.2803 114.405 13.2786 114.405 13.2768C114.405 13.275 114.405 13.2733 114.405 13.2715C114.405 13.2697 114.405 13.268 114.405 13.2662C114.405 13.2644 114.405 13.2626 114.405 13.2609C114.405 13.2591 114.405 13.2573 114.405 13.2555C114.405 13.2538 114.405 13.252 114.405 13.2502C114.405 13.2484 114.405 13.2467 114.405 13.2449C114.405 13.2431 114.405 13.2413 114.405 13.2396C114.405 13.2378 114.405 13.236 114.405 13.2342C114.405 13.2324 114.405 13.2307 114.405 13.2289C114.405 13.2271 114.405 13.2253 114.405 13.2235C114.405 13.2218 114.405 13.22 114.405 13.2182C114.405 13.2164 114.405 13.2146 114.405 13.2129C114.405 13.2111 114.405 13.2093 114.405 13.2075C114.405 13.2057 114.405 13.2039 114.405 13.2022C114.405 13.2004 114.405 13.1986 114.405 13.1968C114.405 13.195 114.405 13.1932 114.405 13.1915C114.405 13.1897 114.405 13.1879 114.405 13.1861C114.405 13.1843 114.405 13.1825 114.405 13.1807C114.405 13.179 114.405 13.1772 114.405 13.1754C114.405 13.1736 114.405 13.1718 114.405 13.17C114.405 13.1682 114.405 13.1665 114.405 13.1647C114.405 13.1629 114.405 13.1611 114.405 13.1593C114.405 13.1575 114.405 13.1557 114.405 13.1539C114.405 13.1522 114.405 13.1504 114.405 13.1486C114.405 13.1468 114.405 13.145 114.405 13.1432C114.405 13.1414 114.405 13.1396 114.405 13.1379C114.405 13.1361 114.405 13.1343 114.405 13.1325C114.405 13.1307 114.405 13.1289 114.405 13.1271C114.405 13.1254 114.405 13.1236 114.405 13.1218C114.405 13.12 114.405 13.1182 114.405 13.1164C114.405 13.1146 114.405 13.1128 114.405 13.1111C114.405 13.1093 114.405 13.1075 114.405 13.1057C114.405 13.1039 114.405 13.1021 114.405 13.1003C114.405 13.0986 114.405 13.0968 114.405 13.095C114.405 13.0932 114.405 13.0914 114.405 13.0896C114.405 13.0878 114.405 13.0861 114.405 13.0843C114.405 13.0825 114.405 13.0807 114.405 13.0789C114.405 13.0771 114.405 13.0754 114.405 13.0736C114.405 13.0718 114.405 13.07 114.405 13.0682C114.405 13.0664 114.405 13.0647 114.405 13.0629C114.405 13.0611 114.405 13.0593 114.405 13.0575C114.405 13.0558 114.405 13.054 114.405 13.0522C114.405 13.0504 114.405 13.0486 114.405 13.0469C114.405 13.0451 114.405 13.0433 114.405 13.0415C114.405 13.0397 114.405 13.038 114.405 13.0362C114.405 13.0344 114.405 13.0326 114.405 13.0309C114.405 13.0291 114.405 13.0273 114.405 13.0255C114.405 13.0238 114.405 13.022 114.405 13.0202C114.405 13.0184 114.405 13.0167 114.405 13.0149C114.405 13.0131 114.405 13.0113 114.405 13.0096C114.405 13.0078 114.405 13.006 114.405 13.0043C114.405 13.0025 114.405 13.0007 114.405 12.999C114.405 12.9972 114.405 12.9954 114.405 12.9937C114.405 12.9919 114.405 12.9901 114.405 12.9884C114.405 12.9866 114.405 12.9848 114.405 12.9831C114.405 12.9813 114.405 12.9795 114.405 12.9778C114.405 12.976 114.405 12.9743 114.405 12.9725C114.405 12.9707 114.405 12.969 114.405 12.9672C114.405 12.9655 114.405 12.9637 114.405 12.9619C114.405 12.9602 114.405 12.9584 114.405 12.9567C114.405 12.9549 114.405 12.9532 114.405 12.9514C114.405 12.9497 114.405 12.9479 114.405 12.9461C114.405 12.9444 114.405 12.9426 114.405 12.9409C114.405 12.9391 114.405 12.9374 114.405 12.9357C114.405 12.9339 114.405 12.9322 114.405 12.9304C114.405 12.9287 114.405 12.9269 114.405 12.9252C114.405 12.9234 114.405 12.9217 114.405 12.92C114.405 12.9182 114.405 12.9165 114.405 12.9147C114.405 12.913 114.405 12.9113 114.405 12.9095C114.405 12.9078 114.405 12.9061 114.405 12.9043C114.405 12.9026 114.405 12.9009 114.405 12.8991C114.405 12.8974 114.405 12.8957 114.405 12.8939C114.405 12.8922 114.405 12.8905 114.405 12.8887C114.405 12.887 114.405 12.8853 114.405 12.8836C114.405 12.8818 114.405 12.8801 114.405 12.8784C114.405 12.8767 114.405 12.875 114.405 12.8732C114.405 12.8715 114.405 12.8698 114.405 12.8681C114.405 12.8664 114.405 12.8647 114.405 12.8629C114.405 12.8612 114.405 12.8595 114.405 12.8578C114.405 12.8561 114.405 12.8544 114.405 12.8527C114.405 12.851 114.405 12.8493 114.405 12.8476C114.405 12.8459 114.405 12.8442 114.405 12.8425C114.405 12.8408 114.405 12.8391 114.405 12.8374C114.405 12.8357 114.405 12.834 114.405 12.8323C114.405 12.8306 114.405 12.8289 114.405 12.8272C114.405 12.8255 114.405 12.8238 114.405 12.8221C114.405 12.8204 114.405 12.8187 114.405 12.8171C114.405 12.8154 114.405 12.8137 114.405 12.812C114.405 12.8103 114.405 12.8086 114.405 12.807C114.405 12.8053 114.405 12.8036 114.405 12.8019C114.405 12.8003 114.405 12.7986 114.405 12.7969C114.405 12.7952 114.405 12.7936 114.405 12.7919C114.405 12.7902 114.405 12.7886 114.405 12.7869C114.405 12.7852 114.405 12.7836 114.405 12.7819C114.405 12.7803 114.405 12.7786 114.405 12.7769C114.405 12.7753 114.405 12.7736 114.405 12.772C114.405 12.7703 114.405 12.7687 114.405 12.767C114.405 12.7654 114.405 12.7637 114.405 12.7621C114.405 12.7604 114.405 12.7588 114.405 12.7571C114.405 12.7555 114.405 12.7539 114.405 12.7522C114.405 12.7506 114.405 12.749 114.405 12.7473C114.405 12.7457 114.405 12.7441 114.405 12.7424C114.405 12.7408 114.405 12.7392 114.405 12.7375C114.405 12.7359 114.405 12.7343 114.405 12.7327C114.405 12.731 114.405 12.7294 114.405 12.7278C114.405 12.7262 114.405 12.7246 114.405 12.723C114.405 12.7214 114.405 12.7197 114.405 12.7181C114.405 12.7165 114.405 12.7149 114.405 12.7133C114.405 12.7117 114.405 12.7101 114.405 12.7085C114.405 12.7069 114.405 12.7053 114.405 12.7037C114.405 12.7021 114.405 12.7005 114.405 12.6989C114.405 12.6974 114.405 12.6958 114.405 12.6942C114.405 12.6926 114.405 12.691 114.405 12.6894C114.405 12.6878 114.405 12.6863 114.405 12.6847C114.405 12.6831 114.405 12.6815 114.405 12.68C114.405 12.6784 114.405 12.6768 114.405 12.6753C114.405 12.6737 114.405 12.6721 114.405 12.6706C114.405 12.669 114.405 12.6674 114.405 12.6659C114.405 12.6643 114.405 12.6628 114.405 12.6612C114.405 12.6597 114.405 12.6581 114.405 12.6566C114.405 12.655 114.405 12.6535 114.405 12.6519C114.405 12.6504 114.405 12.6489 114.405 12.6473C114.405 12.6458 114.405 12.6443 114.405 12.6427C114.405 12.6412 114.405 12.6397 114.405 12.6381C114.405 12.6366 114.405 12.6351 114.405 12.6336C114.405 12.6321 114.405 12.6305 114.405 12.629C114.405 12.6275 114.405 12.626 114.405 12.6245C114.405 12.623 114.405 12.6215 114.405 12.62C114.405 12.6185 114.405 12.617 114.405 12.6155C114.405 12.614 114.405 12.6125 114.405 12.611C114.405 12.6095 114.405 12.608 114.405 12.6065C114.405 12.605 114.405 12.6035 114.405 12.602C114.405 12.6006 114.405 12.5991 114.405 12.5976C114.405 12.5961 114.405 12.5947 114.405 12.5932C114.405 12.5917 114.405 12.5903 114.405 12.5888C114.405 12.5873 114.405 12.5859 114.405 12.5844C114.405 12.5829 114.405 12.5815 114.405 12.58C114.405 12.5786 114.405 12.5771 114.405 12.5757C114.405 12.5742 114.405 12.5728 114.405 12.5714C114.405 12.5699 114.405 12.5685 114.405 12.567C114.405 12.5656 114.405 12.5642 114.405 12.5628C114.405 12.5613 114.405 12.5599 114.405 12.5585C114.405 12.5571 114.405 12.5556 114.405 12.5542C114.405 12.5528 114.405 12.5514 114.405 12.55C114.405 12.5486 114.405 12.5472 114.405 12.5458C114.405 12.5444 114.405 12.543 114.405 12.5416C114.405 12.5402 114.405 12.5388 114.405 12.5374C114.405 12.536 114.405 12.5346 114.405 12.5332C114.405 12.5319 114.405 12.5305 114.405 12.5291C114.405 12.5277 114.405 12.5263 114.405 12.525C114.405 12.5236 114.405 12.5222 114.405 12.5209C114.405 12.5195 114.405 12.5182 114.405 12.5168C114.405 12.5154 114.405 12.5141 114.405 12.5127C114.405 12.5114 114.405 12.51 114.405 12.5087C114.405 12.5074 114.405 12.506 114.405 12.5047C114.405 12.5034 114.405 12.502 114.405 12.5007C114.405 12.4994 114.405 12.498 114.405 12.4967C114.405 12.4954 114.405 12.4941 114.405 12.4928C114.405 12.4914 114.405 12.4901 114.405 12.4888C114.405 12.4875 114.405 12.4862 114.405 12.4849C114.405 12.4836 114.405 12.4823 114.405 12.481C114.405 12.4797 114.405 12.4784 114.405 12.4772C114.405 12.4759 114.405 12.4746 114.405 12.4733C114.405 12.472 114.405 12.4708 114.405 12.4695C114.405 12.4682 114.405 12.467 114.405 12.4657C114.405 12.4644 114.405 12.4632 114.405 12.4619C114.405 12.4607 114.405 12.4594 114.405 12.4582C114.405 12.4569 114.405 12.4557 114.405 12.4544C114.405 12.4532 114.405 12.452 114.405 12.4507C114.405 12.4495 114.405 12.4483 114.405 12.447C114.405 12.4458 114.405 12.4446 114.405 12.4434C114.405 12.4422 114.405 12.4409 114.405 12.4397C114.405 12.4385 114.405 12.4373 114.405 12.4361C114.405 12.4349 114.405 12.4337 114.405 12.4325C114.405 12.4313 114.405 12.4301 114.405 12.429C114.405 12.4278 114.405 12.4266 114.405 12.4254C114.405 12.4242 114.405 12.4231 114.405 12.4219C114.405 12.4207 114.405 12.4196 114.405 12.4184C114.405 12.4172 114.405 12.4161 114.405 12.4149C114.405 12.4138 114.405 12.4126 114.405 12.4115C114.405 12.4103 114.405 12.4092 114.405 12.4081C114.405 12.4069 114.405 12.4058 114.405 12.4047C114.405 12.4036 114.405 12.4024 114.405 12.4013C114.405 12.4002 114.405 12.3991 114.405 12.398C114.405 12.3969 114.405 12.3958 114.405 12.3946C114.405 12.3935 114.405 12.3924 114.405 12.3914C114.405 12.3903 114.405 12.3892 114.405 12.3881C114.405 12.387 114.405 12.3859 114.405 12.3848C114.405 12.3838 114.405 12.3827 114.405 12.3816C114.405 12.3806 114.405 12.3795 114.405 12.3784C114.405 12.3774 114.405 12.3763 114.405 12.3753C114.405 12.3742 114.405 12.3732 114.405 12.3722C114.405 12.3711 114.405 12.3701 114.405 12.369C114.405 12.368 114.405 12.367 114.405 12.366C114.405 12.3649 114.405 12.3639 114.405 12.3629C114.405 12.3619 114.405 12.3609 114.405 12.3599C114.405 12.3589 114.405 12.3579 114.405 12.3569C114.405 12.3559 114.405 12.3549 114.405 12.3539C114.405 12.3529 114.405 12.352 114.405 12.351C114.405 12.35 114.405 12.349 114.405 12.3481C114.405 12.3471 114.405 12.3461 114.405 12.3452C114.405 12.3442 114.405 12.3433 114.405 12.3423C114.405 12.3414 114.405 12.3404 114.405 12.3395C114.405 12.3386 114.405 12.3376 114.405 12.3367C114.405 12.3358 114.405 12.3348 114.405 12.3339C114.405 12.333 114.405 12.3321 114.405 12.3312C114.405 12.3303 114.405 12.3294 114.405 12.3285C114.405 12.3276 114.405 12.3267 114.405 12.3258C114.405 12.3249 114.405 12.324 114.405 12.3231C114.405 12.3222 114.405 12.3214 114.405 12.3205C114.405 12.3196 114.405 12.3188 114.405 12.3179C114.405 12.317 114.405 12.3162 114.405 12.3153C114.405 12.3145 114.405 12.3136 114.405 12.3128C114.405 12.312 114.405 12.3111 114.405 12.3103C114.405 12.3095 114.405 12.3086 114.405 12.3078C114.405 12.307 114.405 12.3062 114.405 12.3054C114.405 12.3046 114.405 12.3038 114.405 12.303C114.405 12.3022 114.405 12.3014 114.405 12.3006C114.405 12.2998 114.405 12.299 114.405 12.2982C114.405 12.2975 114.405 12.2967 114.405 12.2959C114.405 12.2952 114.405 12.2944 114.405 12.2936C114.405 12.2929 114.405 12.2921 114.405 12.2914C114.405 12.2906 114.405 12.2899 114.405 12.2892C114.405 12.2884 114.405 12.2877 114.405 12.287C114.405 12.2862 114.405 12.2855 114.405 12.2848C114.405 12.2841 114.405 12.2834 114.405 12.2827C114.405 12.282 114.405 12.2813 114.405 12.2806C114.405 12.2799 114.405 12.2792 114.405 12.2785C114.405 12.2778 114.405 12.2772 114.405 12.2765C114.405 12.2758 114.405 12.2752 114.405 12.2745C114.405 12.2738 114.405 12.2732 114.405 12.2725C114.405 12.2719 114.405 12.2712 114.405 12.2706C114.405 12.27 114.405 12.2693 114.405 12.2687C114.405 12.2681 114.405 12.2675 114.405 12.2668C114.405 12.2662 114.405 12.2656 114.405 12.265C114.405 12.2644 114.405 12.2638 114.405 12.2632C114.405 12.2626 114.405 12.262 114.405 12.2614C114.405 12.2609 114.405 12.2603 114.405 12.2597C114.405 12.2591 114.405 12.2586 114.405 12.258C114.405 12.2575 114.405 12.2569 114.405 12.2564C114.405 12.2558 114.405 12.2553 114.405 12.2547C114.405 12.2542 114.405 12.2537 114.405 12.2532C114.405 12.2526 114.405 12.2521 114.405 12.2516C114.405 12.2511 114.405 12.2506 114.405 12.2501C114.405 12.2496 114.405 12.2491 114.405 12.2486C114.405 12.2481 114.405 12.2476 114.405 12.2471C114.405 12.2467 114.405 12.2462 114.405 12.2457C114.405 12.2453 114.405 12.2448 114.405 12.2444C114.405 12.2439 114.405 12.2435 114.405 12.243C114.405 12.2426 114.405 12.2421 114.405 12.2417C114.405 12.2413 114.405 12.2409 114.405 12.2404C114.405 12.24 114.405 12.2396 114.405 12.2392C114.405 12.2388 114.405 12.2384 114.405 12.238C114.405 12.2376 114.405 12.2372 114.405 12.2369C114.405 12.2365 114.405 12.2361 114.405 12.2357C114.405 12.2354 114.405 12.235 114.405 12.2347C114.405 12.2343 114.405 12.2339 114.405 12.2336C114.405 12.2333 114.405 12.2329 114.405 12.2326C114.405 12.2323 114.405 12.2319 114.405 12.2316C114.405 12.2313 114.405 12.231 114.405 12.2307C114.405 12.2304 114.405 12.2301 114.405 12.2298C114.405 12.2295 114.405 12.2292 114.405 12.2289C114.405 12.2287 114.405 12.2284 114.405 12.2281C114.405 12.2278 114.405 12.2276 114.405 12.2273C114.405 12.2271 114.405 12.2268 114.405 12.2266C114.405 12.2263 114.405 12.2261 114.405 12.2259C114.405 12.2257 114.405 12.2254 114.405 12.2252C114.405 12.225 114.405 12.2248 114.405 12.2246C114.405 12.2244 114.405 12.2242 114.405 12.224C114.405 12.2238 114.405 12.2236 114.405 12.2235C114.405 12.2233 114.405 12.2231 114.405 12.223C114.405 12.2228 114.405 12.2226 114.405 12.2225C114.405 12.2223 114.405 12.2222 114.405 12.2221C114.405 12.2219 114.405 12.2218 114.405 12.2217C114.405 12.2215 114.405 12.2214 114.405 12.2213C114.405 12.2212 114.405 12.2211 114.405 12.221C114.405 12.2209 114.405 12.2208 114.405 12.2207C114.405 12.2207 114.405 12.2206 114.405 12.2205C114.405 12.2204 114.405 12.2204 114.405 12.2203C114.405 12.2203 114.405 12.2202 114.405 12.2202C114.405 12.2201 114.405 12.2201 114.405 12.2201C114.405 12.2201 114.405 12.22 114.405 12.22C114.405 12.22 114.405 12.22 114.205 12.22ZM114.205 14.26H122.745V13.86H114.205V14.26ZM122.545 14.06V23H122.945V14.06H122.545ZM122.745 23.2H124.545V22.8H122.745V23.2ZM124.745 23V14.06H124.345V23H124.745ZM124.545 14.26H128.565V13.86H124.545V14.26ZM128.765 14.06V12.88H128.365V14.06H128.765ZM114.986 12.9994L122.906 2.35942L122.585 2.12058L114.665 12.7606L114.986 12.9994ZM122.545 2.24V11.84H122.945V2.24H122.545ZM122.545 11.84C122.545 12.0508 122.463 12.266 122.329 12.427C122.195 12.5876 122.023 12.68 121.845 12.68V13.08C122.168 13.08 122.445 12.9124 122.636 12.683C122.827 12.454 122.945 12.1492 122.945 11.84H122.545ZM121.845 12.68H114.825V13.08H121.845V12.68ZM136.888 12.12L136.87 11.9208L136.868 11.9209L136.888 12.12ZM134.168 1.5V1.3H133.968V1.5H134.168ZM132.268 0.8V0.6H132.068V0.8H132.268ZM132.268 23H132.068V23.2H132.268V23ZM134.168 23V23.2H134.368V23H134.168ZM134.168 13.5L134.132 13.3032L133.968 13.3331V13.5H134.168ZM134.828 13.4L134.846 13.5993L134.852 13.5985L134.828 13.4ZM140.848 10.82L140.984 10.9664L140.988 10.9628L140.848 10.82ZM142.908 5.46L143.108 5.45879V5.4584L142.908 5.46ZM136.868 11.9209C136.473 11.9595 135.804 11.9551 135.227 11.9351C134.94 11.9252 134.68 11.9115 134.492 11.898C134.397 11.8912 134.324 11.8846 134.275 11.8788C134.249 11.8757 134.235 11.8734 134.23 11.8723C134.225 11.8714 134.232 11.8725 134.243 11.8767C134.248 11.8783 134.265 11.8849 134.285 11.8991C134.295 11.9064 134.368 11.9579 134.368 12.06H133.968C133.968 12.1633 134.041 12.2162 134.053 12.2248C134.075 12.2403 134.095 12.2481 134.103 12.2511C134.121 12.2581 134.139 12.262 134.149 12.264C134.171 12.2687 134.199 12.2725 134.227 12.2759C134.285 12.2829 134.366 12.29 134.463 12.297C134.657 12.311 134.923 12.3248 135.213 12.3349C135.791 12.3549 136.483 12.3605 136.907 12.3191L136.868 11.9209ZM134.368 12.06V1.5H133.968V12.06H134.368ZM134.168 1.7H135.968V1.3H134.168V1.7ZM135.968 1.7C138.019 1.7 139.344 2.38639 140.16 3.34929C140.981 4.31824 141.308 5.59248 141.308 6.8H141.708C141.708 5.52752 141.364 4.15176 140.465 3.09071C139.561 2.0236 138.116 1.3 135.968 1.3V1.7ZM141.308 6.8C141.308 8.80417 140.464 10.0529 139.494 10.8179C138.514 11.59 137.398 11.8736 136.87 11.9208L136.905 12.3192C137.497 12.2664 138.691 11.96 139.741 11.1321C140.801 10.2971 141.708 8.93582 141.708 6.8H141.308ZM138.328 0.6H132.268V1H138.328V0.6ZM132.068 0.8V23H132.468V0.8H132.068ZM132.268 23.2H134.168V22.8H132.268V23.2ZM134.368 23V13.5H133.968V23H134.368ZM134.168 13.5C134.203 13.6968 134.203 13.6968 134.203 13.6968C134.203 13.6968 134.203 13.6968 134.203 13.6968C134.204 13.6968 134.204 13.6967 134.204 13.6967C134.204 13.6967 134.204 13.6966 134.205 13.6966C134.205 13.6964 134.207 13.6962 134.208 13.6959C134.211 13.6953 134.216 13.6945 134.222 13.6934C134.234 13.6912 134.252 13.6881 134.274 13.6842C134.318 13.6765 134.38 13.666 134.447 13.6549C134.585 13.6323 134.744 13.6085 134.846 13.5992L134.81 13.2008C134.692 13.2115 134.52 13.2377 134.383 13.2601C134.313 13.2715 134.251 13.2823 134.205 13.2902C134.183 13.2941 134.164 13.2974 134.152 13.2996C134.145 13.3008 134.141 13.3017 134.137 13.3023C134.135 13.3026 134.134 13.3028 134.133 13.303C134.133 13.3031 134.133 13.3031 134.132 13.3032C134.132 13.3032 134.132 13.3032 134.132 13.3032C134.132 13.3032 134.132 13.3032 134.132 13.3032C134.132 13.3032 134.132 13.3032 134.132 13.3032C134.132 13.3032 134.132 13.3032 134.168 13.5ZM134.852 13.5985C136.836 13.3556 138.22 12.8383 139.186 12.3078C140.153 11.777 140.694 11.2362 140.984 10.9664L140.711 10.6736C140.421 10.9438 139.912 11.453 138.994 11.9572C138.075 12.4617 136.74 12.9644 134.803 13.2015L134.852 13.5985ZM140.848 10.82C140.988 10.9628 140.988 10.9627 140.988 10.9627C140.988 10.9626 140.988 10.9625 140.988 10.9625C140.988 10.9623 140.988 10.9622 140.989 10.962C140.989 10.9616 140.989 10.961 140.99 10.9604C140.991 10.9591 140.993 10.9573 140.996 10.955C141 10.9504 141.007 10.9438 141.015 10.9353C141.031 10.9182 141.055 10.8933 141.085 10.8607C141.144 10.7955 141.228 10.6996 141.328 10.5744C141.529 10.3241 141.795 9.95626 142.06 9.48265C142.59 8.53565 143.118 7.16171 143.108 5.45879L142.708 5.4612C142.717 7.07829 142.216 8.38435 141.711 9.28735C141.458 9.73874 141.205 10.0884 141.016 10.3244C140.922 10.4423 140.843 10.5317 140.789 10.591C140.762 10.6207 140.741 10.6428 140.727 10.6573C140.72 10.6645 140.715 10.6698 140.712 10.6731C140.71 10.6748 140.709 10.6759 140.708 10.6766C140.708 10.677 140.708 10.6772 140.708 10.6773C140.707 10.6773 140.707 10.6774 140.707 10.6773C140.707 10.6773 140.708 10.6773 140.708 10.6773C140.708 10.6773 140.708 10.6772 140.848 10.82ZM143.108 5.4584C143.087 2.86103 141.15 0.6 138.328 0.6V1C140.906 1 142.688 3.05896 142.708 5.4616L143.108 5.4584ZM159.848 21.76L159.971 21.9181L160.104 21.8144L160.024 21.6653L159.848 21.76ZM154.588 11.98L154.402 11.9079L154.368 11.9937L154.412 12.0747L154.588 11.98ZM158.908 0.8L159.095 0.872086L159.2 0.6H158.908V0.8ZM157.608 0.8V0.6H157.469L157.421 0.730106L157.608 0.8ZM153.908 10.72L153.732 10.8142L153.941 11.2052L154.096 10.7899L153.908 10.72ZM148.608 0.8L148.785 0.705753L148.685 0.520353L148.505 0.628501L148.608 0.8ZM146.908 1.82L146.805 1.6485L146.642 1.74641L146.732 1.91425L146.908 1.82ZM152.988 13.2L153.176 13.2693L153.207 13.185L153.165 13.1058L152.988 13.2ZM149.368 23L149.181 22.9307L149.081 23.2H149.368V23ZM150.348 23V23.2H150.485L150.535 23.0718L150.348 23ZM153.648 14.42L153.824 14.3255L153.618 13.9408L153.461 14.3482L153.648 14.42ZM158.248 23L158.072 23.0945L158.184 23.303L158.371 23.1581L158.248 23ZM160.024 21.6653L154.764 11.8853L154.412 12.0747L159.672 21.8547L160.024 21.6653ZM154.775 12.0521L159.095 0.872086L158.722 0.727913L154.402 11.9079L154.775 12.0521ZM158.908 0.6H157.608V1H158.908V0.6ZM157.421 0.730106L153.721 10.6501L154.096 10.7899L157.796 0.869893L157.421 0.730106ZM154.085 10.6258L148.785 0.705753L148.432 0.894247L153.732 10.8142L154.085 10.6258ZM148.505 0.628501L146.805 1.6485L147.011 1.9915L148.711 0.971498L148.505 0.628501ZM146.732 1.91425L152.812 13.2942L153.165 13.1058L147.085 1.72575L146.732 1.91425ZM152.801 13.1307L149.181 22.9307L149.556 23.0693L153.176 13.2693L152.801 13.1307ZM149.368 23.2H150.348V22.8H149.368V23.2ZM150.535 23.0718L153.835 14.4918L153.461 14.3482L150.161 22.9282L150.535 23.0718ZM153.472 14.5145L158.072 23.0945L158.424 22.9055L153.824 14.3255L153.472 14.5145ZM158.371 23.1581L159.971 21.9181L159.726 21.6019L158.126 22.8419L158.371 23.1581ZM1.78 41.14L1.58015 41.1479L1.58019 41.1487L1.78 41.14ZM13.56 43.14L13.6992 42.9964L13.6984 42.9956L13.56 43.14ZM4.2 49.5L4.4 49.4992L4.39919 49.3H4.2V49.5ZM1.9 49.5V49.3H1.7V49.5H1.9ZM4.08 40.36L4.27631 40.3218L4.27607 40.3205L4.08 40.36ZM12.56 37.28L12.364 37.3196L12.3964 37.48H12.56V37.28ZM15.26 37.28V37.48H15.5017L15.4565 37.2426L15.26 37.28ZM9.26 32.6C6.52033 32.6 4.55102 33.6969 3.29179 35.3251C2.03745 36.947 1.4987 39.0809 1.58016 41.1479L1.97984 41.1321C1.9013 39.1391 2.42255 37.103 3.60821 35.5699C4.78898 34.0431 6.63967 33 9.26 33V32.6ZM1.58019 41.1487C1.6068 41.7635 1.79247 42.2455 2.11518 42.6096C2.43584 42.9713 2.87633 43.1991 3.38285 43.3359C4.38762 43.6073 5.70889 43.5348 7.0478 43.3812C8.40719 43.2252 9.77597 42.9874 10.9523 42.9004C11.5361 42.8572 12.0553 42.8531 12.4829 42.9133C12.9133 42.974 13.2255 43.0965 13.4216 43.2844L13.6984 42.9956C13.4145 42.7235 13.0049 42.5829 12.5387 42.5172C12.0697 42.4511 11.5176 42.4575 10.9227 42.5015C9.74154 42.5889 8.32281 42.8323 7.0022 42.9838C5.66111 43.1377 4.40988 43.199 3.48715 42.9497C3.02992 42.8262 2.66791 42.6301 2.4145 42.3442C2.16315 42.0607 2.0032 41.6715 1.97981 41.1314L1.58019 41.1487ZM13.4208 43.2836C13.9995 43.8444 14.1889 44.7834 14.0723 45.9371C13.9564 47.083 13.5424 48.3931 12.9779 49.6347C12.4138 50.8755 11.705 52.0356 11.0093 52.8821C10.6611 53.3056 10.3206 53.6452 10.0076 53.8772C9.69003 54.1126 9.42387 54.22 9.22 54.22V54.62C9.55113 54.62 9.90247 54.453 10.2458 54.1985C10.5938 53.9406 10.9576 53.5747 11.3182 53.1361C12.04 52.2581 12.7662 51.067 13.3421 49.8003C13.9176 48.5344 14.3486 47.1807 14.4702 45.9773C14.5911 44.7816 14.4105 43.6856 13.6992 42.9964L13.4208 43.2836ZM9.22 54.22C8.00435 54.22 7.10459 53.9215 6.43575 53.4839C5.7658 53.0456 5.31579 52.46 5.01301 51.8688C4.7098 51.2768 4.556 50.6825 4.47831 50.2346C4.43954 50.0111 4.41994 49.8253 4.41004 49.6961C4.40509 49.6316 4.40258 49.5813 4.4013 49.5477C4.40066 49.5309 4.40034 49.5182 4.40017 49.51C4.40008 49.5059 4.40004 49.503 4.40002 49.5011C4.40001 49.5002 4.4 49.4996 4.4 49.4993C4.4 49.4991 4.4 49.499 4.4 49.499C4.4 49.499 4.4 49.4991 4.4 49.499C4.4 49.4991 4.4 49.4992 4.2 49.5C4 49.5008 4 49.5009 4 49.5011C4 49.5011 4 49.5013 4.00001 49.5014C4.00001 49.5017 4.00001 49.5021 4.00001 49.5025C4.00002 49.5034 4.00003 49.5045 4.00005 49.506C4.00008 49.5089 4.00015 49.513 4.00025 49.5182C4.00047 49.5286 4.00086 49.5436 4.00159 49.5628C4.00305 49.6013 4.00584 49.6567 4.01121 49.7267C4.02194 49.8666 4.04296 50.0652 4.08419 50.3029C4.1665 50.7775 4.3302 51.4132 4.65699 52.0512C4.98421 52.69 5.4767 53.3344 6.21675 53.8186C6.95791 54.3035 7.93565 54.62 9.22 54.62V54.22ZM4.2 49.3H1.9V49.7H4.2V49.3ZM1.7 49.5C1.7 49.8523 1.73538 51.2754 2.61535 52.6148C3.505 53.969 5.23265 55.2 8.54 55.2V54.8C5.34735 54.8 3.755 53.621 2.94965 52.3952C2.13462 51.1546 2.1 49.8277 2.1 49.5H1.7ZM8.54 55.2C10.4977 55.2 12.5678 53.9923 14.1394 52.2254C15.714 50.4553 16.82 48.0898 16.82 45.72H16.42C16.42 47.9702 15.366 50.2447 13.8406 51.9596C12.3122 53.6777 10.3423 54.8 8.54 54.8V55.2ZM16.82 45.72C16.82 44.9091 16.6249 44.2505 16.2724 43.7196C15.9206 43.1897 15.4211 42.8003 14.833 42.512C13.6648 41.9392 12.1172 41.7516 10.5866 41.6628C9.03563 41.5729 7.51403 41.5837 6.319 41.424C5.72443 41.3445 5.23618 41.2251 4.8832 41.042C4.53626 40.862 4.33638 40.6301 4.27631 40.3218L3.88369 40.3982C3.97362 40.8599 4.27811 41.1787 4.69899 41.397C5.11382 41.6122 5.65682 41.739 6.266 41.8204C7.47847 41.9825 9.05437 41.9746 10.5634 42.0622C12.0928 42.1509 13.5677 42.3371 14.657 42.8711C15.1977 43.1363 15.6356 43.4836 15.9392 43.9408C16.242 44.397 16.42 44.9759 16.42 45.72H16.82ZM4.27607 40.3205C3.98371 38.8685 4.15055 37.2502 4.69103 36.002C5.23333 34.7496 6.12428 33.92 7.26 33.92V33.52C5.89572 33.52 4.89667 34.5204 4.32397 35.843C3.74945 37.1698 3.57629 38.8715 3.88393 40.3995L4.27607 40.3205ZM7.26 33.92C9.48994 33.92 10.7595 34.7831 11.4748 35.6291C11.835 36.0552 12.0583 36.4815 12.1913 36.8007C12.2578 36.9601 12.3014 37.0923 12.3282 37.1835C12.3417 37.2291 12.3508 37.2644 12.3565 37.2876C12.3594 37.2993 12.3614 37.3079 12.3626 37.3133C12.3632 37.316 12.3636 37.3179 12.3638 37.319C12.3639 37.3195 12.364 37.3198 12.364 37.32C12.364 37.32 12.364 37.32 12.364 37.32C12.364 37.3199 12.364 37.3199 12.364 37.3198C12.364 37.3198 12.364 37.3196 12.56 37.28C12.756 37.2404 12.756 37.2402 12.756 37.2401C12.756 37.24 12.7559 37.2398 12.7559 37.2397C12.7558 37.2394 12.7558 37.2391 12.7557 37.2388C12.7555 37.238 12.7553 37.237 12.7551 37.2359C12.7546 37.2335 12.7539 37.2303 12.753 37.2263C12.7512 37.2182 12.7486 37.2068 12.745 37.1924C12.738 37.1635 12.7272 37.1223 12.712 37.0706C12.6816 36.9671 12.6332 36.8211 12.5606 36.6468C12.4154 36.2985 12.1725 35.8348 11.7802 35.3709C10.9905 34.4369 9.61006 33.52 7.26 33.52V33.92ZM12.56 37.48H15.26V37.08H12.56V37.48ZM15.4565 37.2426C15.4107 37.0025 15.2544 36.596 14.992 36.1278C14.7272 35.6554 14.3472 35.1074 13.8439 34.5861C12.8361 33.5423 11.327 32.6 9.26 32.6V33C11.193 33 12.604 33.8777 13.5561 34.8639C14.0328 35.3576 14.3928 35.8771 14.643 36.3234C14.8956 36.774 15.0293 37.1375 15.0635 37.3174L15.4565 37.2426ZM22.9353 55V55.2H23.1353V55H22.9353ZM22.9353 32.8H23.1353V32.6H22.9353V32.8ZM21.0553 32.8V32.6H20.8553V32.8H21.0553ZM21.0553 55H20.8553V55.2H21.0553V55ZM23.1353 55V32.8H22.7353V55H23.1353ZM22.9353 32.6H21.0553V33H22.9353V32.6ZM20.8553 32.8V55H21.2553V32.8H20.8553ZM21.0553 55.2H22.9353V54.8H21.0553V55.2ZM30.1302 53.92L29.9526 53.8279L29.8011 54.12H30.1302V53.92ZM40.9902 32.98L41.1677 33.0721L41.3192 32.78H40.9902V32.98ZM29.0702 32.98V32.78H28.9759L28.9159 32.8527L29.0702 32.98ZM28.4102 33.78L28.2559 33.6527L27.9859 33.98H28.4102V33.78ZM38.1702 33.78L38.3487 33.8701L38.495 33.58H38.1702V33.78ZM27.5702 54.8L27.3916 54.7099L27.2453 55H27.5702V54.8ZM39.6102 54.8V55H39.7033L39.7632 54.9287L39.6102 54.8ZM40.3502 53.92L40.5032 54.0487L40.7797 53.72H40.3502V53.92ZM30.3077 54.0121L41.1677 33.0721L40.8126 32.8879L29.9526 53.8279L30.3077 54.0121ZM40.9902 32.78H29.0702V33.18H40.9902V32.78ZM28.9159 32.8527L28.2559 33.6527L28.5644 33.9073L29.2244 33.1073L28.9159 32.8527ZM28.4102 33.98H38.1702V33.58H28.4102V33.98ZM37.9916 33.6899L27.3916 54.7099L27.7487 54.8901L38.3487 33.8701L37.9916 33.6899ZM27.5702 55H39.6102V54.6H27.5702V55ZM39.7632 54.9287L40.5032 54.0487L40.1971 53.7913L39.4571 54.6713L39.7632 54.9287ZM40.3502 53.72H30.1302V54.12H40.3502V53.72ZM48.8728 55V55.2H49.0728V55H48.8728ZM48.8728 32.8H49.0728V32.6H48.8728V32.8ZM46.9928 32.8V32.6H46.7928V32.8H46.9928ZM46.9928 55H46.7928V55.2H46.9928V55ZM49.0728 55V32.8H48.6728V55H49.0728ZM48.8728 32.6H46.9928V33H48.8728V32.6ZM46.7928 32.8V55H47.1928V32.8H46.7928ZM46.9928 55.2H48.8728V54.8H46.9928V55.2ZM64.1877 32.8V32.6H63.9887L63.9877 32.799L64.1877 32.8ZM64.0877 52.12L63.904 52.1991L64.2877 52.121L64.0877 52.12ZM55.7677 32.8L55.9513 32.7209L55.8993 32.6H55.7677V32.8ZM54.1277 32.8V32.6H53.9277V32.8H54.1277ZM54.1277 55H53.9277V55.2H54.1277V55ZM55.1277 55V55.2H55.3277V55H55.1277ZM55.1277 37.22L55.3107 37.1395L54.9277 37.22H55.1277ZM62.9477 55L62.7646 55.0805L62.8506 55.2762L63.0402 55.1773L62.9477 55ZM65.2477 53.8L65.3402 53.9773L65.4477 53.9212V53.8H65.2477ZM65.2477 32.8H65.4477V32.6H65.2477V32.8ZM63.9877 32.799L63.8877 52.119L64.2877 52.121L64.3877 32.801L63.9877 32.799ZM64.2713 52.0409L55.9513 32.7209L55.584 32.8791L63.904 52.1991L64.2713 52.0409ZM55.7677 32.6H54.1277V33H55.7677V32.6ZM53.9277 32.8V55H54.3277V32.8H53.9277ZM54.1277 55.2H55.1277V54.8H54.1277V55.2ZM55.3277 55V37.22H54.9277V55H55.3277ZM54.9446 37.3005L62.7646 55.0805L63.1307 54.9195L55.3107 37.1395L54.9446 37.3005ZM63.0402 55.1773L65.3402 53.9773L65.1551 53.6227L62.8551 54.8227L63.0402 55.1773ZM65.4477 53.8V32.8H65.0477V53.8H65.4477ZM65.2477 32.6H64.1877V33H65.2477V32.6ZM83.8219 47L84.0216 46.9889L84.0111 46.8H83.8219V47ZM76.6819 47V46.8H76.4819V47H76.6819ZM76.6819 48.1H76.4819V48.3028L76.6847 48.3L76.6819 48.1ZM82.3619 48.34H82.1615L82.1623 48.3526L82.3619 48.34ZM80.9219 53.2L80.8537 53.012L80.8534 53.0121L80.9219 53.2ZM73.4619 34.28L73.3876 34.0943L73.3868 34.0946L73.4619 34.28ZM80.9819 37.64L80.8148 37.75L80.8741 37.84H80.9819V37.64ZM83.4819 37.64V37.84H83.7955L83.6632 37.5556L83.4819 37.64ZM75.5419 32.8L75.561 32.9991L75.5687 32.9983L75.5763 32.997L75.5419 32.8ZM83.7819 48.7L83.5844 48.6682L83.5832 48.6756L83.5826 48.6832L83.7819 48.7ZM83.8219 46.8H76.6819V47.2H83.8219V46.8ZM76.4819 47V48.1H76.8819V47H76.4819ZM76.6819 48.1C76.6847 48.3 76.6847 48.3 76.6847 48.3C76.6848 48.3 76.6848 48.3 76.6849 48.3C76.6851 48.3 76.6853 48.3 76.6857 48.3C76.6864 48.3 76.6874 48.2999 76.6887 48.2999C76.6914 48.2999 76.6955 48.2998 76.7008 48.2998C76.7115 48.2996 76.7274 48.2994 76.7481 48.2992C76.7896 48.2987 76.8504 48.298 76.9279 48.2972C77.083 48.2956 77.3045 48.2937 77.5703 48.2925C78.1021 48.29 78.8108 48.29 79.5191 48.3C80.2282 48.31 80.9336 48.3299 81.4603 48.367C81.7248 48.3856 81.9377 48.4082 82.0818 48.4345C82.1555 48.448 82.2003 48.4607 82.2225 48.4697C82.2344 48.4746 82.2279 48.4737 82.2152 48.4629C82.2027 48.4521 82.1619 48.4112 82.1619 48.34H82.5619C82.5619 48.2488 82.51 48.1887 82.4759 48.1595C82.4418 48.1301 82.4034 48.1116 82.3737 48.0994C82.3127 48.0745 82.2354 48.056 82.1538 48.0411C81.9873 48.0106 81.7564 47.9869 81.4884 47.968C80.9501 47.9301 80.2355 47.91 79.5247 47.9C78.813 47.89 78.1016 47.89 77.5684 47.8925C77.3018 47.8938 77.0795 47.8956 76.9239 47.8972C76.8461 47.898 76.785 47.8987 76.7432 47.8992C76.7224 47.8994 76.7063 47.8997 76.6955 47.8998C76.6901 47.8999 76.686 47.8999 76.6833 47.9C76.6819 47.9 76.6808 47.9 76.6801 47.9C76.6798 47.9 76.6795 47.9 76.6793 47.9C76.6793 47.9 76.6792 47.9 76.6791 47.9C76.6791 47.9 76.6791 47.9 76.6819 48.1ZM82.1623 48.3526C82.2522 49.7817 82.2345 50.843 82.0335 51.6039C81.8367 52.3489 81.4701 52.7887 80.8537 53.012L80.99 53.388C81.7537 53.1113 82.197 52.5511 82.4202 51.7061C82.6393 50.877 82.6515 49.7583 82.5615 48.3274L82.1623 48.3526ZM80.8534 53.0121C78.9532 53.7044 77.1409 53.0958 75.5717 51.7056C73.9987 50.3121 72.6912 48.1475 71.8374 45.7943C70.9838 43.4416 70.5918 40.9226 70.8297 38.831C71.0679 36.7363 71.9291 35.1161 73.5369 34.4654L73.3868 34.0946C71.5846 34.8239 70.6784 36.6212 70.4322 38.7858C70.1857 40.9537 70.5925 43.5359 71.4614 45.9307C72.3301 48.325 73.6688 50.5542 75.3064 52.005C76.9479 53.4592 78.9106 54.1456 80.9903 53.3879L80.8534 53.0121ZM73.5362 34.4657C74.2971 34.1613 75.465 33.9956 76.7655 34.3961C78.0626 34.7956 79.5067 35.7632 80.8148 37.75L81.1489 37.53C79.7971 35.4768 78.2811 34.4444 76.8832 34.0139C75.4887 33.5844 74.2267 33.7587 73.3876 34.0943L73.5362 34.4657ZM80.9819 37.84H83.4819V37.44H80.9819V37.84ZM83.6632 37.5556C82.2968 34.619 80.2636 33.3731 78.5638 32.8683C77.717 32.6168 76.9565 32.5501 76.407 32.5463C76.1321 32.5443 75.9095 32.5581 75.7545 32.5726C75.6771 32.5798 75.6164 32.5872 75.5746 32.5929C75.5537 32.5957 75.5375 32.5982 75.5262 32.5999C75.5206 32.6008 75.5162 32.6015 75.513 32.602C75.5115 32.6023 75.5102 32.6025 75.5093 32.6027C75.5088 32.6028 75.5084 32.6028 75.5081 32.6029C75.5079 32.6029 75.5078 32.6029 75.5077 32.6029C75.5075 32.603 75.5074 32.603 75.5419 32.8C75.5763 32.997 75.5762 32.997 75.5762 32.997L75.5761 32.997C75.5761 32.997 75.5762 32.997 75.5764 32.997C75.5767 32.9969 75.5774 32.9968 75.5784 32.9967C75.5803 32.9963 75.5835 32.9958 75.5879 32.9951C75.5967 32.9938 75.6103 32.9917 75.6286 32.9892C75.6651 32.9843 75.7201 32.9775 75.7917 32.9709C75.9349 32.9575 76.1441 32.9444 76.4042 32.9462C76.9248 32.9499 77.6467 33.0132 78.4499 33.2517C80.0502 33.7269 81.9869 34.901 83.3005 37.7244L83.6632 37.5556ZM75.5419 32.8C75.5228 32.6009 75.5226 32.6009 75.5224 32.6009C75.5223 32.601 75.5221 32.601 75.5219 32.601C75.5216 32.601 75.5211 32.6011 75.5205 32.6011C75.5194 32.6013 75.5179 32.6014 75.5159 32.6016C75.5121 32.602 75.5067 32.6026 75.4999 32.6034C75.4862 32.605 75.4665 32.6075 75.4413 32.6111C75.3908 32.6183 75.3181 32.6298 75.2262 32.6476C75.0426 32.6832 74.7822 32.744 74.4708 32.8451C73.8481 33.0472 73.0185 33.4113 72.1887 34.0599C70.5209 35.3637 68.8819 37.7942 68.8819 42.28H69.2819C69.2819 37.9058 70.8729 35.5963 72.4351 34.3751C73.2203 33.7612 74.0057 33.4166 74.5942 33.2255C74.8884 33.1301 75.1327 33.0732 75.3024 33.0403C75.3872 33.0238 75.4532 33.0134 75.4974 33.0071C75.5195 33.004 75.5361 33.0019 75.5468 33.0007C75.5522 33 75.5561 32.9996 75.5584 32.9994C75.5596 32.9992 75.5604 32.9991 75.5609 32.9991C75.5611 32.9991 75.5612 32.9991 75.5612 32.9991C75.5612 32.9991 75.5612 32.9991 75.5612 32.9991C75.5611 32.9991 75.561 32.9991 75.5419 32.8ZM68.8819 42.28C68.8819 51.1877 74.37 55.2 78.4419 55.2V54.8C74.6338 54.8 69.2819 51.0122 69.2819 42.28H68.8819ZM78.4419 55.2C79.513 55.2 80.7947 54.8568 81.863 53.864C82.9328 52.8699 83.768 51.2438 83.9812 48.7168L83.5826 48.6832C83.3757 51.1362 82.571 52.6601 81.5907 53.571C80.609 54.4832 79.4307 54.8 78.4419 54.8V55.2ZM83.9793 48.7318C84.0322 48.4041 84.0419 47.9647 84.0394 47.6161C84.0381 47.4399 84.0337 47.2835 84.0296 47.1711C84.0275 47.1149 84.0255 47.0696 84.024 47.0382C84.0233 47.0225 84.0227 47.0103 84.0223 47.002C84.022 46.9978 84.0219 46.9946 84.0218 46.9924C84.0217 46.9913 84.0217 46.9905 84.0216 46.9899C84.0216 46.9896 84.0216 46.9894 84.0216 46.9892C84.0216 46.9891 84.0216 46.9891 84.0216 46.989C84.0216 46.989 84.0216 46.989 84.0216 46.9889C84.0216 46.9889 84.0216 46.9889 83.8219 47C83.6222 47.0111 83.6222 47.0111 83.6222 47.0111C83.6222 47.0111 83.6222 47.0111 83.6222 47.0111C83.6222 47.0111 83.6222 47.0111 83.6222 47.0112C83.6222 47.0113 83.6222 47.0115 83.6222 47.0117C83.6222 47.0121 83.6223 47.0129 83.6223 47.0138C83.6224 47.0157 83.6226 47.0187 83.6228 47.0226C83.6232 47.0303 83.6238 47.042 83.6245 47.057C83.6259 47.0871 83.6278 47.1311 83.6298 47.1858C83.6338 47.2952 83.6381 47.4476 83.6394 47.6189C83.6419 47.9653 83.6316 48.3759 83.5844 48.6682L83.9793 48.7318Z" />
</svg>
