<svg width="347" height="132" viewBox="0 0 347 132" fill="black" xmlns="http://www.w3.org/2000/svg">
  <path d="M68.918 73.72H65.75V101.512C65.75 117.976 61.382 121.864 57.59 123.784C55.958 124.6 54.038 124.792 52.118 124.792C44.39 124.744 39.494 117.688 39.494 100.696V73.72H34.118V101.08C34.118 115 37.046 127.48 50.63 127.48C66.95 127.48 68.918 114.088 68.918 99.016V73.72ZM87.4666 127V73.72H82.9546V127H87.4666ZM126.161 122.056L126.113 75.976H133.409C145.217 75.976 153.617 87.592 153.617 101.8C153.617 122.296 142.433 124.792 133.841 123.592L126.161 122.056ZM134.465 73.72H121.601V127H130.433C169.217 127 167.825 73.72 134.465 73.72ZM175.456 124.888V101.992H194.224V99.928H175.456V75.928H200.896V73.72H170.272V123.784L175.456 127H201.088V124.888H175.456ZM224.99 73.72C212.126 73.72 206.654 83.992 207.038 93.736C207.518 104.824 230.702 94.12 235.31 98.536C241.502 104.536 230.03 125.608 224.894 125.608C212.894 125.608 212.846 113.8 212.846 113.8H207.326C207.326 115.432 207.662 127 223.262 127C232.286 127 242.654 115.816 242.654 104.728C242.654 89.8 213.998 99.256 212.558 91.864C211.118 84.712 214.19 75.928 220.19 75.928C231.182 75.928 232.91 84.472 232.91 84.472H239.39C239.006 82.456 234.59 73.72 224.99 73.72ZM257.81 127V73.72H253.298V127H257.81ZM303.11 107.8H285.974V110.44C285.974 110.44 299.606 110.248 299.606 111.016C300.038 117.88 299.462 121.48 296.15 122.68C277.046 129.64 261.878 83.896 278.246 77.272C282.086 75.736 289.91 75.64 296.294 85.336H302.294C295.862 71.512 283.238 73.72 283.238 73.72C283.238 73.72 267.734 75.208 267.734 96.472C267.734 117.64 280.742 127 290.198 127C295.142 127 302.006 123.832 303.014 111.88C303.254 110.392 303.11 107.8 303.11 107.8ZM339.238 73.72L338.998 120.088L319.03 73.72H315.094V127H317.494V84.328L336.262 127L341.782 124.12V73.72H339.238Z" />
  <path d="M46.208 5.72L29.36 51.368L12.32 5.72H7.328V59H9.92V15.848L26.72 59L29.984 57.752L45.968 14.6L45.728 59H48.56V5.72H46.208ZM86.342 54.44C68.534 68.36 49.622 15.176 69.974 8.264C79.238 5.096 86.39 16.472 87.686 18.968C94.07 30.968 92.918 49.256 86.342 54.44ZM92.294 15.08C86.582 5.048 77.366 5.048 77.366 5.048C77.366 5.048 61.67 2.696 57.974 23.768C54.278 44.696 66.902 58.664 75.398 59.528C78.086 59.816 81.494 59.384 84.374 57.8C84.374 57.8 91.142 54.488 94.262 45.704C98.678 33.032 95.894 21.416 92.294 15.08ZM128.423 57.128C122.759 57.128 120.215 53.72 118.487 49.832H114.311V31.592H121.751C132.839 31.592 135.335 41.48 135.335 46.664C135.335 51.656 133.319 57.128 128.423 57.128ZM118.679 7.448C128.711 7.448 131.927 17.096 131.927 21.224C131.927 28.328 123.863 29.72 121.127 29.72H114.311V7.448H118.679ZM129.095 29.048C129.095 29.048 135.143 24.344 135.239 16.904C135.335 11.144 130.199 5.72 124.295 5.72H114.263H109.799V59H114.311V52.472C115.847 54.728 119.303 59 124.871 59C134.375 59 138.887 50.888 138.887 42.248C138.935 32.36 129.095 29.048 129.095 29.048ZM153.326 59V5.72H148.814V59H153.326ZM171.458 56.6V5.72H166.514V59H192.674V56.6H171.458ZM209.299 56.888V33.992H228.067V31.928H209.299V7.928H234.739V5.72H204.115V55.784L209.299 59H234.931V56.888H209.299Z" />
</svg>
