<svg width="181" height="28" viewBox="0 0 181 28" fill="black" xmlns="http://www.w3.org/2000/svg">
  <path d="M12.34 16.38H4.78L9 5.04L12.34 16.38ZM4.32 17.62H12.7L14.5 24L16.7 23.2L10.12 1.8L9.02 2.5L0.78 23.58L1.88 24L4.32 17.62ZM33.4294 1.8H32.1094V13.38C32.1094 20.24 30.2894 21.86 28.7094 22.66C28.0294 23 27.2294 23.08 26.4294 23.08C23.2094 23.06 21.1694 20.12 21.1694 13.04V1.8H18.9294V13.2C18.9294 19 20.1494 24.2 25.8094 24.2C32.6094 24.2 33.4294 18.62 33.4294 12.34V1.8ZM52.238 1.8H36.238V2.88H43.238V22.68L45.238 24V2.88H52.218C52.238 2.54 52.238 2.14 52.238 1.8ZM66.8222 22.1C59.4022 27.9 51.5222 5.74 60.0022 2.86C63.8622 1.54 66.8422 6.28 67.3822 7.32C70.0422 12.32 69.5622 19.94 66.8222 22.1ZM69.3022 5.7C66.9222 1.52 63.0822 1.52 63.0822 1.52C63.0822 1.52 56.5422 0.539998 55.0022 9.32C53.4622 18.04 58.7222 23.86 62.2622 24.22C63.3822 24.34 64.8022 24.16 66.0022 23.5C66.0022 23.5 68.8222 22.12 70.1222 18.46C71.9622 13.18 70.8022 8.34 69.3022 5.7ZM83.5566 23V1.8H81.4966V24H92.3966V23H83.5566ZM106.344 16.38H98.7839L103.004 5.04L106.344 16.38ZM98.3239 17.62H106.704L108.504 24L110.704 23.2L104.124 1.8L103.024 2.5L94.7839 23.58L95.8839 24L98.3239 17.62ZM115.293 24L124.013 2.22L122.913 1.8L118.533 12.96L112.933 1.8L111.113 2.9L117.493 15.54L114.193 24H115.293ZM139.4 22.1C131.98 27.9 124.1 5.74 132.58 2.86C136.44 1.54 139.42 6.28 139.96 7.32C142.62 12.32 142.14 19.94 139.4 22.1ZM141.88 5.7C139.5 1.52 135.66 1.52 135.66 1.52C135.66 1.52 129.12 0.539998 127.58 9.32C126.04 18.04 131.3 23.86 134.84 24.22C135.96 24.34 137.38 24.16 138.58 23.5C138.58 23.5 141.4 22.12 142.7 18.46C144.54 13.18 143.38 8.34 141.88 5.7ZM161.574 1.8H160.254V13.38C160.254 20.24 158.434 21.86 156.854 22.66C156.174 23 155.374 23.08 154.574 23.08C151.354 23.06 149.314 20.12 149.314 13.04V1.8H147.074V13.2C147.074 19 148.294 24.2 153.954 24.2C160.754 24.2 161.574 18.62 161.574 12.34V1.8ZM180.383 1.8H164.383V2.88H171.383V22.68L173.383 24V2.88H180.363C180.383 2.54 180.383 2.14 180.383 1.8Z" />
  <path d="M12.34 16.38V16.58H12.6074L12.5319 16.3235L12.34 16.38ZM4.78 16.38L4.59256 16.3102L4.49217 16.58H4.78V16.38ZM9 5.04L9.19185 4.98349L9.0221 4.40716L8.81256 4.97024L9 5.04ZM4.32 17.62V17.42H4.18236L4.1332 17.5486L4.32 17.62ZM12.7 17.62L12.8925 17.5657L12.8514 17.42H12.7V17.62ZM14.5 24L14.3075 24.0543L14.366 24.2615L14.5683 24.188L14.5 24ZM16.7 23.2L16.7683 23.388L16.9471 23.323L16.8912 23.1412L16.7 23.2ZM10.12 1.8L10.3112 1.74122L10.234 1.49037L10.0126 1.63127L10.12 1.8ZM9.02 2.5L8.91263 2.33127L8.85751 2.36634L8.83373 2.42719L9.02 2.5ZM0.78 23.58L0.593725 23.5072L0.520335 23.6949L0.70866 23.7668L0.78 23.58ZM1.88 24L1.80866 24.1868L1.9954 24.2581L2.0668 24.0714L1.88 24ZM12.34 16.18H4.78V16.58H12.34V16.18ZM4.96744 16.4498L9.18744 5.10975L8.81256 4.97024L4.59256 16.3102L4.96744 16.4498ZM8.80815 5.09651L12.1481 16.4365L12.5319 16.3235L9.19185 4.98349L8.80815 5.09651ZM4.32 17.82H12.7V17.42H4.32V17.82ZM12.5075 17.6743L14.3075 24.0543L14.6925 23.9457L12.8925 17.5657L12.5075 17.6743ZM14.5683 24.188L16.7683 23.388L16.6317 23.012L14.4317 23.812L14.5683 24.188ZM16.8912 23.1412L10.3112 1.74122L9.92883 1.85878L16.5088 23.2588L16.8912 23.1412ZM10.0126 1.63127L8.91263 2.33127L9.12738 2.66873L10.2274 1.96873L10.0126 1.63127ZM8.83373 2.42719L0.593725 23.5072L0.966275 23.6528L9.20627 2.57281L8.83373 2.42719ZM0.70866 23.7668L1.80866 24.1868L1.95134 23.8132L0.85134 23.3932L0.70866 23.7668ZM2.0668 24.0714L4.5068 17.6914L4.1332 17.5486L1.6932 23.9286L2.0668 24.0714ZM33.4294 1.8H33.6294V1.6H33.4294V1.8ZM32.1094 1.8V1.6H31.9094V1.8H32.1094ZM28.7094 22.66L28.7988 22.8389L28.7997 22.8384L28.7094 22.66ZM26.4294 23.08L26.4281 23.28H26.4294V23.08ZM21.1694 1.8H21.3694V1.6H21.1694V1.8ZM18.9294 1.8V1.6H18.7294V1.8H18.9294ZM33.4294 1.6H32.1094V2H33.4294V1.6ZM31.9094 1.8V13.38H32.3094V1.8H31.9094ZM31.9094 13.38C31.9094 16.7959 31.4556 18.8819 30.8215 20.2061C30.1925 21.5195 29.38 22.0963 28.619 22.4816L28.7997 22.8384C29.6187 22.4237 30.5063 21.7905 31.1823 20.3789C31.8531 18.9781 32.3094 16.8241 32.3094 13.38H31.9094ZM28.6199 22.4811C27.9825 22.7999 27.2206 22.88 26.4294 22.88V23.28C27.2381 23.28 28.0763 23.2001 28.7988 22.8389L28.6199 22.4811ZM26.4306 22.88C24.8958 22.8705 23.6452 22.1724 22.7662 20.6095C21.8786 19.0312 21.3694 16.567 21.3694 13.04H20.9694C20.9694 16.593 21.4802 19.1388 22.4176 20.8055C23.3636 22.4876 24.7429 23.2695 26.4281 23.28L26.4306 22.88ZM21.3694 13.04V1.8H20.9694V13.04H21.3694ZM21.1694 1.6H18.9294V2H21.1694V1.6ZM18.7294 1.8V13.2H19.1294V1.8H18.7294ZM18.7294 13.2C18.7294 16.1064 19.0337 18.8958 20.068 20.9644C20.587 22.0025 21.2924 22.8643 22.2393 23.4657C23.1867 24.0673 24.3627 24.4 25.8094 24.4V24C24.426 24 23.3271 23.6827 22.4538 23.128C21.5801 22.5732 20.9192 21.7725 20.4258 20.7856C19.4351 18.8042 19.1294 16.0936 19.1294 13.2H18.7294ZM25.8094 24.4C27.5368 24.4 28.9007 24.0455 29.9718 23.4014C31.0439 22.7567 31.8081 21.8307 32.3494 20.7121C33.4266 18.4863 33.6294 15.4785 33.6294 12.34H33.2294C33.2294 15.4815 33.0222 18.4037 31.9893 20.5379C31.4757 21.5993 30.7599 22.4608 29.7657 23.0586C28.7705 23.657 27.482 24 25.8094 24V24.4ZM33.6294 12.34V1.8H33.2294V12.34H33.6294ZM52.238 1.8H52.438V1.6H52.238V1.8ZM36.238 1.8V1.6H36.038V1.8H36.238ZM36.238 2.88H36.038V3.08H36.238V2.88ZM43.238 2.88H43.438V2.68H43.238V2.88ZM43.238 22.68H43.038V22.7876L43.1278 22.8469L43.238 22.68ZM45.238 24L45.1278 24.1669L45.438 24.3716V24H45.238ZM45.238 2.88V2.68H45.038V2.88H45.238ZM52.218 2.88V3.08H52.4066L52.4176 2.89174L52.218 2.88ZM52.238 1.6H36.238V2H52.238V1.6ZM36.038 1.8V2.88H36.438V1.8H36.038ZM36.238 3.08H43.238V2.68H36.238V3.08ZM43.038 2.88V22.68H43.438V2.88H43.038ZM43.1278 22.8469L45.1278 24.1669L45.3481 23.8331L43.3481 22.5131L43.1278 22.8469ZM45.438 24V2.88H45.038V24H45.438ZM45.238 3.08H52.218V2.68H45.238V3.08ZM52.4176 2.89174C52.438 2.54475 52.438 2.13854 52.438 1.8H52.038C52.038 2.14146 52.0379 2.53525 52.0183 2.86826L52.4176 2.89174ZM66.8222 22.1L66.9454 22.2576L66.946 22.2571L66.8222 22.1ZM60.0022 2.86L60.0665 3.04938L60.0669 3.04924L60.0022 2.86ZM67.3822 7.32L67.2047 7.41217L67.2056 7.41393L67.3822 7.32ZM69.3022 5.7L69.4761 5.6012L69.476 5.60104L69.3022 5.7ZM63.0822 1.52L63.0525 1.71779L63.0673 1.72H63.0822V1.52ZM55.0022 9.32L55.1991 9.35478L55.1992 9.35455L55.0022 9.32ZM62.2622 24.22L62.2835 24.0211L62.2824 24.021L62.2622 24.22ZM66.0022 23.5L65.9142 23.3202L65.9058 23.3248L66.0022 23.5ZM70.1222 18.46L70.3107 18.5269L70.3111 18.5258L70.1222 18.46ZM66.699 21.9424C65.8046 22.6415 64.9172 22.9101 64.0634 22.857C63.206 22.8037 62.3605 22.4247 61.5579 21.7889C59.9488 20.5141 58.5501 18.2364 57.6382 15.6681C56.7271 13.1022 56.3128 10.2767 56.6449 7.92484C56.977 5.57325 58.0458 3.73565 60.0665 3.04938L59.9379 2.67062C57.7186 3.42435 56.5923 5.43675 56.2488 7.86891C55.9054 10.3008 56.3348 13.1928 57.2612 15.8019C58.1868 18.4086 59.6194 20.7634 61.3096 22.1024C62.1567 22.7735 63.0779 23.1966 64.0386 23.2563C65.0028 23.3162 65.9847 23.0085 66.9454 22.2576L66.699 21.9424ZM60.0669 3.04924C61.897 2.42339 63.5324 3.22499 64.8044 4.35454C66.0752 5.48309 66.9417 6.90557 67.2047 7.41216L67.5597 7.22784C67.2827 6.69443 66.3892 5.22691 65.07 4.05545C63.752 2.88501 61.9673 1.97661 59.9375 2.67076L60.0669 3.04924ZM67.2056 7.41393C68.5155 9.87608 69.0561 12.9939 68.9274 15.7657C68.8631 17.1505 68.632 18.4417 68.2512 19.5157C67.8694 20.5923 67.3428 21.4349 66.6984 21.9429L66.946 22.2571C67.6716 21.6851 68.2325 20.7652 68.6282 19.6493C69.0248 18.5308 69.2613 17.1995 69.327 15.7843C69.4583 12.9561 68.9089 9.76392 67.5588 7.22606L67.2056 7.41393ZM69.476 5.60104C68.2612 3.46745 66.6692 2.39496 65.3764 1.85781C64.7311 1.58969 64.1615 1.45533 63.7518 1.38796C63.5469 1.35426 63.3817 1.33728 63.2667 1.32871C63.2092 1.32443 63.1642 1.32225 63.133 1.32115C63.1174 1.32059 63.1053 1.3203 63.0968 1.32016C63.0925 1.32008 63.0891 1.32004 63.0867 1.32002C63.0855 1.32001 63.0845 1.32001 63.0837 1.32C63.0834 1.32 63.083 1.32 63.0828 1.32C63.0827 1.32 63.0825 1.32 63.0824 1.32C63.0823 1.32 63.0822 1.32 63.0822 1.52C63.0822 1.72 63.0821 1.72 63.082 1.72C63.082 1.72 63.082 1.72 63.0819 1.72C63.0819 1.72 63.0819 1.72 63.082 1.72C63.0822 1.72 63.0826 1.72 63.0833 1.72001C63.0845 1.72002 63.0867 1.72004 63.0898 1.7201C63.096 1.7202 63.1057 1.72043 63.1188 1.72089C63.145 1.72183 63.1849 1.72373 63.237 1.72761C63.3413 1.73538 63.4947 1.75105 63.6869 1.78266C64.0716 1.84591 64.6107 1.97281 65.2229 2.22719C66.4452 2.73504 67.9632 3.75255 69.1284 5.79896L69.476 5.60104ZM63.0822 1.52C63.1118 1.32221 63.1117 1.32218 63.1115 1.32216C63.1114 1.32214 63.1112 1.32211 63.111 1.32208C63.1106 1.32203 63.1102 1.32196 63.1096 1.32188C63.1084 1.32171 63.1069 1.32149 63.105 1.32122C63.1011 1.32069 63.0957 1.31995 63.0887 1.31907C63.0748 1.31729 63.0548 1.3149 63.0291 1.31221C62.9777 1.30685 62.9033 1.30033 62.8088 1.29532C62.6198 1.28529 62.35 1.28125 62.0221 1.30456C61.3667 1.35117 60.4761 1.50732 59.5351 1.94625C57.6415 2.82958 55.5851 4.83902 54.8052 9.28545L55.1992 9.35455C55.9593 5.02098 57.9428 3.13042 59.7042 2.30875C60.5908 1.89518 61.4314 1.74758 62.0504 1.70356C62.3597 1.68156 62.6129 1.68549 62.7876 1.69476C62.8749 1.69939 62.9425 1.70535 62.9876 1.71006C63.0102 1.71241 63.0271 1.71445 63.038 1.71584C63.0435 1.71654 63.0475 1.71708 63.0499 1.71742C63.0511 1.71759 63.052 1.71771 63.0524 1.71777C63.0526 1.7178 63.0527 1.71782 63.0528 1.71782C63.0528 1.71783 63.0527 1.71782 63.0527 1.71782C63.0527 1.71781 63.0525 1.71779 63.0822 1.52ZM54.8052 9.28522C54.0268 13.693 54.966 17.3771 56.556 20.0084C58.1395 22.629 60.3866 24.2303 62.242 24.419L62.2824 24.021C60.5977 23.8497 58.4449 22.361 56.8984 19.8016C55.3584 17.2529 54.4376 13.667 55.1991 9.35478L54.8052 9.28522ZM62.2409 24.4189C63.3943 24.5424 64.8567 24.3583 66.0986 23.6752L65.9058 23.3248C64.7477 23.9617 63.3701 24.1376 62.2835 24.0211L62.2409 24.4189ZM66.0022 23.5C66.0901 23.6796 66.0902 23.6796 66.0903 23.6796C66.0903 23.6795 66.0904 23.6795 66.0905 23.6794C66.0907 23.6793 66.091 23.6792 66.0912 23.6791C66.0918 23.6788 66.0925 23.6785 66.0934 23.678C66.0951 23.6771 66.0976 23.6759 66.1007 23.6743C66.1069 23.6712 66.1157 23.6667 66.1271 23.6607C66.1498 23.6488 66.1825 23.6313 66.2241 23.6078C66.3073 23.5609 66.4264 23.4904 66.5727 23.3945C66.8654 23.2027 67.2675 22.9091 67.7105 22.4993C68.5967 21.6796 69.6477 20.3934 70.3107 18.5269L69.9337 18.3931C69.2967 20.1866 68.2877 21.4204 67.4389 22.2057C67.0144 22.5984 66.6303 22.8785 66.3535 23.0599C66.2152 23.1506 66.1038 23.2165 66.0277 23.2593C65.9897 23.2807 65.9605 23.2964 65.9413 23.3065C65.9316 23.3115 65.9245 23.3152 65.9199 23.3175C65.9177 23.3187 65.9161 23.3195 65.9151 23.3199C65.9146 23.3202 65.9143 23.3203 65.9142 23.3204C65.9141 23.3204 65.9141 23.3204 65.9141 23.3204C65.9141 23.3204 65.9142 23.3204 65.9142 23.3204C65.9142 23.3204 65.9143 23.3204 66.0022 23.5ZM70.3111 18.5258C72.172 13.1856 71.0014 8.28578 69.4761 5.6012L69.1283 5.7988C70.603 8.39422 71.7523 13.1744 69.9333 18.3942L70.3111 18.5258ZM83.5566 23H83.3566V23.2H83.5566V23ZM83.5566 1.8H83.7566V1.6H83.5566V1.8ZM81.4966 1.8V1.6H81.2966V1.8H81.4966ZM81.4966 24H81.2966V24.2H81.4966V24ZM92.3966 24V24.2H92.5966V24H92.3966ZM92.3966 23H92.5966V22.8H92.3966V23ZM83.7566 23V1.8H83.3566V23H83.7566ZM83.5566 1.6H81.4966V2H83.5566V1.6ZM81.2966 1.8V24H81.6966V1.8H81.2966ZM81.4966 24.2H92.3966V23.8H81.4966V24.2ZM92.5966 24V23H92.1966V24H92.5966ZM92.3966 22.8H83.5566V23.2H92.3966V22.8ZM106.344 16.38V16.58H106.611L106.536 16.3235L106.344 16.38ZM98.7839 16.38L98.5965 16.3102L98.4961 16.58H98.7839V16.38ZM103.004 5.04L103.196 4.98349L103.026 4.40716L102.816 4.97024L103.004 5.04ZM98.3239 17.62V17.42H98.1863L98.1371 17.5486L98.3239 17.62ZM106.704 17.62L106.896 17.5657L106.855 17.42H106.704V17.62ZM108.504 24L108.311 24.0543L108.37 24.2615L108.572 24.188L108.504 24ZM110.704 23.2L110.772 23.388L110.951 23.323L110.895 23.1412L110.704 23.2ZM104.124 1.8L104.315 1.74122L104.238 1.49037L104.017 1.63127L104.124 1.8ZM103.024 2.5L102.917 2.33127L102.861 2.36634L102.838 2.42719L103.024 2.5ZM94.7839 23.58L94.5976 23.5072L94.5242 23.6949L94.7126 23.7668L94.7839 23.58ZM95.8839 24L95.8126 24.1868L95.9993 24.2581L96.0707 24.0714L95.8839 24ZM106.344 16.18H98.7839V16.58H106.344V16.18ZM98.9714 16.4498L103.191 5.10975L102.816 4.97024L98.5965 16.3102L98.9714 16.4498ZM102.812 5.09651L106.152 16.4365L106.536 16.3235L103.196 4.98349L102.812 5.09651ZM98.3239 17.82H106.704V17.42H98.3239V17.82ZM106.511 17.6743L108.311 24.0543L108.696 23.9457L106.896 17.5657L106.511 17.6743ZM108.572 24.188L110.772 23.388L110.636 23.012L108.436 23.812L108.572 24.188ZM110.895 23.1412L104.315 1.74122L103.933 1.85878L110.513 23.2588L110.895 23.1412ZM104.017 1.63127L102.917 2.33127L103.131 2.66873L104.231 1.96873L104.017 1.63127ZM102.838 2.42719L94.5976 23.5072L94.9702 23.6528L103.21 2.57281L102.838 2.42719ZM94.7126 23.7668L95.8126 24.1868L95.9552 23.8132L94.8552 23.3932L94.7126 23.7668ZM96.0707 24.0714L98.5107 17.6914L98.1371 17.5486L95.6971 23.9286L96.0707 24.0714ZM115.293 24V24.2H115.429L115.479 24.0743L115.293 24ZM124.013 2.22L124.199 2.29433L124.274 2.10565L124.085 2.03315L124.013 2.22ZM122.913 1.8L122.985 1.61316L122.799 1.54247L122.727 1.72693L122.913 1.8ZM118.533 12.96L118.355 13.0497L118.556 13.4505L118.719 13.0331L118.533 12.96ZM112.933 1.8L113.112 1.7103L113.015 1.51692L112.83 1.62883L112.933 1.8ZM111.113 2.9L111.01 2.72883L110.851 2.82469L110.935 2.99012L111.113 2.9ZM117.493 15.54L117.68 15.6127L117.712 15.5295L117.672 15.4499L117.493 15.54ZM114.193 24L114.007 23.9273L113.901 24.2H114.193V24ZM115.479 24.0743L124.199 2.29433L123.828 2.14566L115.108 23.9257L115.479 24.0743ZM124.085 2.03315L122.985 1.61316L122.842 1.98684L123.942 2.40684L124.085 2.03315ZM122.727 1.72693L118.347 12.8869L118.719 13.0331L123.099 1.87307L122.727 1.72693ZM118.712 12.8703L113.112 1.7103L112.755 1.8897L118.355 13.0497L118.712 12.8703ZM112.83 1.62883L111.01 2.72883L111.217 3.07116L113.037 1.97117L112.83 1.62883ZM110.935 2.99012L117.315 15.6301L117.672 15.4499L111.292 2.80988L110.935 2.99012ZM117.307 15.4673L114.007 23.9273L114.38 24.0727L117.68 15.6127L117.307 15.4673ZM114.193 24.2H115.293V23.8H114.193V24.2ZM139.4 22.1L139.523 22.2576L139.524 22.2571L139.4 22.1ZM132.58 2.86L132.645 3.04938L132.645 3.04924L132.58 2.86ZM139.96 7.32L139.783 7.41217L139.784 7.41393L139.96 7.32ZM141.88 5.7L142.054 5.6012L142.054 5.60104L141.88 5.7ZM135.66 1.52L135.631 1.71779L135.645 1.72H135.66V1.52ZM127.58 9.32L127.777 9.35478L127.777 9.35455L127.58 9.32ZM134.84 24.22L134.862 24.0211L134.861 24.021L134.84 24.22ZM138.58 23.5L138.492 23.3202L138.484 23.3248L138.58 23.5ZM142.7 18.46L142.889 18.5269L142.889 18.5258L142.7 18.46ZM139.277 21.9424C138.383 22.6415 137.495 22.9101 136.642 22.857C135.784 22.8037 134.939 22.4247 134.136 21.7889C132.527 20.5141 131.128 18.2364 130.216 15.6681C129.305 13.1022 128.891 10.2767 129.223 7.92484C129.555 5.57325 130.624 3.73565 132.645 3.04938L132.516 2.67062C130.297 3.42435 129.17 5.43675 128.827 7.86891C128.483 10.3008 128.913 13.1928 129.839 15.8019C130.765 18.4086 132.197 20.7634 133.888 22.1024C134.735 22.7735 135.656 23.1966 136.617 23.2563C137.581 23.3162 138.563 23.0085 139.523 22.2576L139.277 21.9424ZM132.645 3.04924C134.475 2.42339 136.111 3.22499 137.383 4.35454C138.653 5.48309 139.52 6.90557 139.783 7.41216L140.138 7.22784C139.861 6.69443 138.967 5.22691 137.648 4.05545C136.33 2.88501 134.545 1.97661 132.516 2.67076L132.645 3.04924ZM139.784 7.41393C141.094 9.87608 141.634 12.9939 141.506 15.7657C141.441 17.1505 141.21 18.4417 140.829 19.5157C140.448 20.5923 139.921 21.4349 139.276 21.9429L139.524 22.2571C140.25 21.6851 140.811 20.7652 141.206 19.6493C141.603 18.5308 141.839 17.1995 141.905 15.7843C142.036 12.9561 141.487 9.76392 140.137 7.22606L139.784 7.41393ZM142.054 5.60104C140.839 3.46745 139.247 2.39496 137.955 1.85781C137.309 1.58969 136.74 1.45533 136.33 1.38796C136.125 1.35426 135.96 1.33728 135.845 1.32871C135.787 1.32443 135.742 1.32225 135.711 1.32115C135.696 1.32059 135.683 1.3203 135.675 1.32016C135.671 1.32008 135.667 1.32004 135.665 1.32002C135.664 1.32001 135.663 1.32001 135.662 1.32C135.661 1.32 135.661 1.32 135.661 1.32C135.661 1.32 135.661 1.32 135.661 1.32C135.66 1.32 135.66 1.32 135.66 1.52C135.66 1.72 135.66 1.72 135.66 1.72C135.66 1.72 135.66 1.72 135.66 1.72C135.66 1.72 135.66 1.72 135.66 1.72C135.66 1.72 135.661 1.72 135.661 1.72001C135.663 1.72002 135.665 1.72004 135.668 1.7201C135.674 1.7202 135.684 1.72043 135.697 1.72089C135.723 1.72183 135.763 1.72373 135.815 1.72761C135.919 1.73538 136.073 1.75105 136.265 1.78266C136.65 1.84591 137.189 1.97281 137.801 2.22719C139.023 2.73504 140.541 3.75255 141.707 5.79896L142.054 5.60104ZM135.66 1.52C135.69 1.32221 135.69 1.32218 135.69 1.32216C135.69 1.32214 135.689 1.32211 135.689 1.32208C135.689 1.32203 135.688 1.32196 135.688 1.32188C135.687 1.32171 135.685 1.32149 135.683 1.32122C135.679 1.32069 135.674 1.31995 135.667 1.31907C135.653 1.31729 135.633 1.3149 135.607 1.31221C135.556 1.30685 135.481 1.30033 135.387 1.29532C135.198 1.28529 134.928 1.28125 134.6 1.30456C133.945 1.35117 133.054 1.50732 132.113 1.94625C130.22 2.82958 128.163 4.83902 127.383 9.28545L127.777 9.35455C128.537 5.02098 130.521 3.13042 132.282 2.30875C133.169 1.89518 134.01 1.74758 134.629 1.70356C134.938 1.68156 135.191 1.68549 135.366 1.69476C135.453 1.69939 135.521 1.70535 135.566 1.71006C135.588 1.71241 135.605 1.71445 135.616 1.71584C135.622 1.71654 135.626 1.71708 135.628 1.71742C135.629 1.71759 135.63 1.71771 135.631 1.71777C135.631 1.7178 135.631 1.71782 135.631 1.71782C135.631 1.71783 135.631 1.71782 135.631 1.71782C135.631 1.71781 135.631 1.71779 135.66 1.52ZM127.383 9.28522C126.605 13.693 127.544 17.3771 129.134 20.0084C130.718 22.629 132.965 24.2303 134.82 24.419L134.861 24.021C133.176 23.8497 131.023 22.361 129.476 19.8016C127.936 17.2529 127.016 13.667 127.777 9.35478L127.383 9.28522ZM134.819 24.4189C135.972 24.5424 137.435 24.3583 138.677 23.6752L138.484 23.3248C137.326 23.9617 135.948 24.1376 134.862 24.0211L134.819 24.4189ZM138.58 23.5C138.668 23.6796 138.668 23.6796 138.668 23.6796C138.668 23.6795 138.669 23.6795 138.669 23.6794C138.669 23.6793 138.669 23.6792 138.669 23.6791C138.67 23.6788 138.671 23.6785 138.671 23.678C138.673 23.6771 138.676 23.6759 138.679 23.6743C138.685 23.6712 138.694 23.6667 138.705 23.6607C138.728 23.6488 138.761 23.6313 138.802 23.6078C138.885 23.5609 139.005 23.4904 139.151 23.3945C139.443 23.2027 139.846 22.9091 140.289 22.4993C141.175 21.6796 142.226 20.3934 142.889 18.5269L142.512 18.3931C141.875 20.1866 140.866 21.4204 140.017 22.2057C139.593 22.5984 139.208 22.8785 138.932 23.0599C138.793 23.1506 138.682 23.2165 138.606 23.2593C138.568 23.2807 138.539 23.2964 138.519 23.3065C138.51 23.3115 138.503 23.3152 138.498 23.3175C138.496 23.3187 138.494 23.3195 138.493 23.3199C138.493 23.3202 138.492 23.3203 138.492 23.3204C138.492 23.3204 138.492 23.3204 138.492 23.3204C138.492 23.3204 138.492 23.3204 138.492 23.3204C138.492 23.3204 138.492 23.3204 138.58 23.5ZM142.889 18.5258C144.75 13.1856 143.58 8.28578 142.054 5.6012L141.706 5.7988C143.181 8.39422 144.33 13.1744 142.511 18.3942L142.889 18.5258ZM161.574 1.8H161.774V1.6H161.574V1.8ZM160.254 1.8V1.6H160.054V1.8H160.254ZM156.854 22.66L156.943 22.8389L156.944 22.8384L156.854 22.66ZM154.574 23.08L154.573 23.28H154.574V23.08ZM149.314 1.8H149.514V1.6H149.314V1.8ZM147.074 1.8V1.6H146.874V1.8H147.074ZM161.574 1.6H160.254V2H161.574V1.6ZM160.054 1.8V13.38H160.454V1.8H160.054ZM160.054 13.38C160.054 16.7959 159.6 18.8819 158.966 20.2061C158.337 21.5195 157.525 22.0963 156.764 22.4816L156.944 22.8384C157.763 22.4237 158.651 21.7905 159.327 20.3789C159.998 18.9781 160.454 16.8241 160.454 13.38H160.054ZM156.764 22.4811C156.127 22.7999 155.365 22.88 154.574 22.88V23.28C155.383 23.28 156.221 23.2001 156.943 22.8389L156.764 22.4811ZM154.575 22.88C153.04 22.8705 151.79 22.1724 150.911 20.6095C150.023 19.0312 149.514 16.567 149.514 13.04H149.114C149.114 16.593 149.625 19.1388 150.562 20.8055C151.508 22.4876 152.887 23.2695 154.573 23.28L154.575 22.88ZM149.514 13.04V1.8H149.114V13.04H149.514ZM149.314 1.6H147.074V2H149.314V1.6ZM146.874 1.8V13.2H147.274V1.8H146.874ZM146.874 13.2C146.874 16.1064 147.178 18.8958 148.213 20.9644C148.732 22.0025 149.437 22.8643 150.384 23.4657C151.331 24.0673 152.507 24.4 153.954 24.4V24C152.571 24 151.472 23.6827 150.598 23.128C149.725 22.5732 149.064 21.7725 148.57 20.7856C147.58 18.8042 147.274 16.0936 147.274 13.2H146.874ZM153.954 24.4C155.681 24.4 157.045 24.0455 158.116 23.4014C159.188 22.7567 159.953 21.8307 160.494 20.7121C161.571 18.4863 161.774 15.4785 161.774 12.34H161.374C161.374 15.4815 161.167 18.4037 160.134 20.5379C159.62 21.5993 158.904 22.4608 157.91 23.0586C156.915 23.657 155.627 24 153.954 24V24.4ZM161.774 12.34V1.8H161.374V12.34H161.774ZM180.383 1.8H180.583V1.6H180.383V1.8ZM164.383 1.8V1.6H164.182V1.8H164.383ZM164.383 2.88H164.182V3.08H164.383V2.88ZM171.383 2.88H171.583V2.68H171.383V2.88ZM171.383 22.68H171.182V22.7876L171.272 22.8469L171.383 22.68ZM173.383 24L173.272 24.1669L173.583 24.3716V24H173.383ZM173.383 2.88V2.68H173.182V2.88H173.383ZM180.363 2.88V3.08H180.551L180.562 2.89174L180.363 2.88ZM180.383 1.6H164.383V2H180.383V1.6ZM164.182 1.8V2.88H164.583V1.8H164.182ZM164.383 3.08H171.383V2.68H164.383V3.08ZM171.182 2.88V22.68H171.583V2.88H171.182ZM171.272 22.8469L173.272 24.1669L173.493 23.8331L171.493 22.5131L171.272 22.8469ZM173.583 24V2.88H173.182V24H173.583ZM173.383 3.08H180.363V2.68H173.383V3.08ZM180.562 2.89174C180.583 2.54475 180.583 2.13854 180.583 1.8H180.182C180.182 2.14146 180.182 2.53525 180.163 2.86826L180.562 2.89174Z" />
</svg>
