<svg width="229" height="58" viewBox="0 0 229 58" fill="black" xmlns="http://www.w3.org/2000/svg">
  <path d="M14.46 22.22C6.52 25.1 0.18 6.06 7 3.3C8.6 2.64 11.88 2.62 14.52 6.64H17.02C14.34 0.88 9.08 1.8 9.08 1.8C9.08 1.8 2.64 2.44 2.64 11.3C2.64 20.12 8.06 24 12 24C14.1 24 17.06 22.64 17.36 17.36H15.92C16.08 20.22 15.84 21.72 14.46 22.22ZM32.4277 22.1C25.0077 27.9 17.1277 5.74 25.6077 2.86C29.4677 1.54 32.4477 6.28 32.9877 7.32C35.6477 12.32 35.1677 19.94 32.4277 22.1ZM34.9077 5.7C32.5277 1.52 28.6877 1.52 28.6877 1.52C28.6877 1.52 22.1477 0.539998 20.6077 9.32C19.0677 18.04 24.3277 23.86 27.8677 24.22C28.9877 24.34 30.4077 24.16 31.6077 23.5C31.6077 23.5 34.4277 22.12 35.7277 18.46C37.5677 13.18 36.4077 8.34 34.9077 5.7ZM43.3613 23V1.8H41.3013V24H52.2013V23H43.3613ZM70.1286 1.8H68.8086V13.38C68.8086 20.24 66.9886 21.86 65.4086 22.66C64.7286 23 63.9286 23.08 63.1286 23.08C59.9086 23.06 57.8686 20.12 57.8686 13.04V1.8H55.6286V13.2C55.6286 19 56.8486 24.2 62.5086 24.2C69.3086 24.2 70.1286 18.62 70.1286 12.34V1.8ZM91.0372 1.8L84.0172 20.82L76.9172 1.8H74.8372V24H75.9172V6.02L82.9172 24L84.2772 23.48L90.9372 5.5L90.8372 24H92.0172V1.8H91.0372ZM107.02 1.8L106.92 21.12L98.5997 1.8H96.9597V24H97.9597V6.22L105.78 24L108.08 22.8V1.8H107.02ZM108.914 28.16V28.46C111.134 28.46 113.254 25.38 113.254 22.98C113.254 22.1 112.554 22.1 112.494 22.1C112.254 22.1 111.734 22.28 111.734 23C111.734 25.86 110.154 28.16 108.914 28.16ZM135.834 16H128.694V17.1C128.694 17.1 134.374 17.02 134.374 17.34C134.554 20.2 134.314 21.7 132.934 22.2C124.974 25.1 118.654 6.04 125.474 3.28C127.074 2.64 130.334 2.6 132.994 6.64H135.494C132.814 0.88 127.554 1.8 127.554 1.8C127.554 1.8 121.094 2.42 121.094 11.28C121.094 20.1 126.514 24 130.454 24C132.514 24 135.374 22.68 135.794 17.7C135.894 17.08 135.834 16 135.834 16ZM154.367 1.8H153.047V13.38C153.047 20.24 151.227 21.86 149.647 22.66C148.967 23 148.167 23.08 147.367 23.08C144.147 23.06 142.107 20.12 142.107 13.04V1.8H139.867V13.2C139.867 19 141.087 24.2 146.747 24.2C153.547 24.2 154.367 18.62 154.367 12.34V1.8ZM173.175 1.8H157.175V2.88H164.175V22.68L166.175 24V2.88H173.155C173.175 2.54 173.175 2.14 173.175 1.8ZM190.5 1.8H174.5V2.88H181.5V22.68L183.5 24V2.88H190.48C190.5 2.54 190.5 2.14 190.5 1.8ZM196.824 23.12V13.58H204.644V12.72H196.824V2.72H207.424V1.8H194.664V22.66L196.824 24H207.504V23.12H196.824ZM213.823 2.52H215.643C219.823 2.52 220.983 6.46 220.983 8.2C220.983 12.56 216.823 12.58 215.683 12.78C214.963 12.9 213.823 12.9 213.823 12.9V2.52ZM218.683 12.82C218.683 12.82 219.843 12.18 220.223 11.88C221.143 11.14 222.623 9.86 222.623 6.4C222.623 4 220.683 1.8 217.983 1.8H211.923V24H213.823V13.78C213.823 13.78 216.763 13.34 217.883 14.48C219.343 15.92 221.623 24 223.883 24L224.883 22.84C223.023 22.84 220.483 12.82 218.683 12.82ZM224.5 28.16V28.46C226.72 28.46 228.84 25.38 228.84 22.98C228.84 22.1 228.14 22.1 228.08 22.1C227.84 22.1 227.32 22.28 227.32 23C227.32 25.86 225.74 28.16 224.5 28.16ZM18.42 33.8L11.4 52.82L4.3 33.8H2.22V56H3.3V38.02L10.3 56L11.66 55.48L18.32 37.5L18.22 56H19.4V33.8H18.42ZM33.9025 48.38H26.3425L30.5625 37.04L33.9025 48.38ZM25.8825 49.62H34.2625L36.0625 56L38.2625 55.2L31.6825 33.8L30.5825 34.5L22.3425 55.58L23.4425 56L25.8825 49.62ZM44.2919 34.52H46.1119C50.2919 34.52 51.4519 38.46 51.4519 40.2C51.4519 44.56 47.2919 44.58 46.1519 44.78C45.4319 44.9 44.2919 44.9 44.2919 44.9V34.52ZM49.1519 44.82C49.1519 44.82 50.3119 44.18 50.6919 43.88C51.6119 43.14 53.0919 41.86 53.0919 38.4C53.0919 36 51.1519 33.8 48.4519 33.8H42.3919V56H44.2919V45.78C44.2919 45.78 47.2319 45.34 48.3519 46.48C49.8119 47.92 52.0919 56 54.3519 56L55.3519 54.84C53.4919 54.84 50.9519 44.82 49.1519 44.82ZM72.7086 48H65.5686V49.1C65.5686 49.1 71.2486 49.02 71.2486 49.34C71.4286 52.2 71.1886 53.7 69.8086 54.2C61.8486 57.1 55.5286 38.04 62.3486 35.28C63.9486 34.64 67.2086 34.6 69.8686 38.64H72.3686C69.6886 32.88 64.4286 33.8 64.4286 33.8C64.4286 33.8 57.9686 34.42 57.9686 43.28C57.9686 52.1 63.3886 56 67.3286 56C69.3886 56 72.2486 54.68 72.6686 49.7C72.7686 49.08 72.7086 48 72.7086 48ZM80.1619 56V33.8H78.2819V56H80.1619ZM95.4767 33.8L95.3767 53.12L87.0567 33.8H85.4167V56H86.4167V38.22L94.2367 56L96.5367 54.8V33.8H95.4767Z" />
  <path d="M14.46 22.22L14.3919 22.032L14.3918 22.032L14.46 22.22ZM7 3.3L7.07503 3.4854L7.07627 3.48489L7 3.3ZM14.52 6.64L14.3528 6.74979L14.4121 6.84H14.52V6.64ZM17.02 6.64V6.84H17.3336L17.2013 6.55563L17.02 6.64ZM9.08 1.8L9.09978 1.99902L9.10716 1.99829L9.11446 1.99701L9.08 1.8ZM17.36 17.36L17.5597 17.3713L17.5717 17.16H17.36V17.36ZM15.92 17.36V17.16H15.7085L15.7203 17.3712L15.92 17.36ZM14.3918 22.032C12.4967 22.7194 10.6868 22.1086 9.11834 20.7173C7.5462 19.3227 6.238 17.1586 5.38296 14.8067C4.52811 12.4552 4.1343 9.93806 4.37061 7.84809C4.60728 5.75498 5.46725 4.13605 7.07503 3.48539L6.92497 3.1146C5.12275 3.84395 4.21772 5.64002 3.97314 7.80315C3.7282 9.96944 4.13689 12.5498 5.00704 14.9433C5.877 17.3364 7.2163 19.5648 8.85291 21.0165C10.4932 22.4714 12.4533 23.1606 14.5282 22.408L14.3918 22.032ZM7.07627 3.48489C8.58793 2.86133 11.7657 2.81024 14.3528 6.74979L14.6872 6.53021C11.9943 2.42976 8.61207 2.41867 6.92373 3.11511L7.07627 3.48489ZM14.52 6.84H17.02V6.44H14.52V6.84ZM17.2013 6.55563C15.835 3.61897 13.8017 2.37305 12.1019 1.86828C11.2552 1.61681 10.4946 1.55011 9.94515 1.54625C9.67025 1.54433 9.44761 1.55813 9.29267 1.57258C9.21519 1.57981 9.15457 1.58721 9.11276 1.5929C9.09185 1.59575 9.07563 1.59817 9.06435 1.59993C9.05871 1.60081 9.0543 1.60152 9.05116 1.60204C9.04959 1.6023 9.04833 1.60251 9.04739 1.60267C9.04692 1.60275 9.04654 1.60282 9.04623 1.60287C9.04607 1.6029 9.0459 1.60293 9.04582 1.60294C9.04567 1.60297 9.04554 1.60299 9.08 1.8C9.11446 1.99701 9.11437 1.99702 9.1143 1.99704C9.1143 1.99704 9.11425 1.99705 9.11425 1.99704C9.11427 1.99704 9.11436 1.99703 9.11453 1.997C9.11487 1.99694 9.11552 1.99683 9.11649 1.99667C9.11842 1.99635 9.1216 1.99583 9.12599 1.99515C9.13478 1.99378 9.14843 1.99173 9.1667 1.98925C9.20324 1.98427 9.25825 1.97753 9.32983 1.97085C9.47302 1.9575 9.68225 1.94442 9.94235 1.94624C10.4629 1.94989 11.1848 2.01319 11.9881 2.25172C13.5883 2.72695 15.525 3.90103 16.8387 6.72437L17.2013 6.55563ZM9.08 1.8C9.06022 1.60098 9.06007 1.601 9.05988 1.60101C9.05979 1.60102 9.05958 1.60104 9.0594 1.60106C9.05902 1.6011 9.05855 1.60115 9.05798 1.60121C9.05684 1.60133 9.05532 1.60149 9.05341 1.6017C9.04958 1.60212 9.04423 1.60274 9.03739 1.60357C9.02371 1.60523 9.00409 1.60777 8.97893 1.61143C8.92861 1.61874 8.85608 1.6305 8.7645 1.6486C8.58141 1.68479 8.32185 1.74637 8.0113 1.84844C7.3905 2.05248 6.56345 2.41916 5.73629 3.07035C4.0738 4.37917 2.44 6.8144 2.44 11.3H2.84C2.84 6.9256 4.4262 4.61083 5.98372 3.38464C6.76655 2.76834 7.5495 2.42127 8.1362 2.22844C8.4294 2.13207 8.67297 2.07443 8.84206 2.04101C8.92658 2.0243 8.99241 2.01367 9.03642 2.00727C9.05843 2.00408 9.07497 2.00194 9.08566 2.00064C9.09101 1.99999 9.09489 1.99955 9.09726 1.99929C9.09844 1.99916 9.09925 1.99908 9.09967 1.99903C9.09988 1.99901 9.1 1.999 9.10002 1.999C9.10003 1.99899 9.09997 1.999 9.09997 1.999C9.09989 1.99901 9.09978 1.99902 9.08 1.8ZM2.44 11.3C2.44 20.2082 7.92855 24.2 12 24.2V23.8C8.19145 23.8 2.84 20.0318 2.84 11.3H2.44ZM12 24.2C13.0915 24.2 14.4096 23.8465 15.4936 22.8042C16.5789 21.7606 17.4076 20.0478 17.5597 17.3713L17.1603 17.3487C17.0124 19.9522 16.2111 21.5594 15.2164 22.5158C14.2204 23.4735 13.0085 23.8 12 23.8V24.2ZM17.36 17.16H15.92V17.56H17.36V17.16ZM15.7203 17.3712C15.8003 18.8005 15.7778 19.8621 15.5743 20.6234C15.375 21.3688 15.0082 21.8087 14.3919 22.032L14.5281 22.408C15.2918 22.1313 15.735 21.5712 15.9607 20.7266C16.1822 19.8979 16.1997 18.7795 16.1197 17.3488L15.7203 17.3712ZM32.4277 22.1L32.5508 22.2576L32.5515 22.2571L32.4277 22.1ZM25.6077 2.86L25.672 3.04938L25.6724 3.04924L25.6077 2.86ZM32.9877 7.32L32.8102 7.41217L32.8111 7.41393L32.9877 7.32ZM34.9077 5.7L35.0815 5.6012L35.0815 5.60104L34.9077 5.7ZM28.6877 1.52L28.658 1.71779L28.6728 1.72H28.6877V1.52ZM20.6077 9.32L20.8046 9.35478L20.8046 9.35455L20.6077 9.32ZM27.8677 24.22L27.889 24.0211L27.8879 24.021L27.8677 24.22ZM31.6077 23.5L31.5196 23.3202L31.5113 23.3248L31.6077 23.5ZM35.7277 18.46L35.9161 18.5269L35.9165 18.5258L35.7277 18.46ZM32.3045 21.9424C31.4101 22.6415 30.5226 22.9101 29.6688 22.857C28.8115 22.8037 27.966 22.4247 27.1634 21.7889C25.5542 20.5141 24.1556 18.2364 23.2436 15.6681C22.3325 13.1022 21.9182 10.2767 22.2504 7.92484C22.5825 5.57325 23.6513 3.73565 25.672 3.04938L25.5433 2.67062C23.324 3.42435 22.1978 5.43675 21.8543 7.86891C21.5108 10.3008 21.9403 13.1928 22.8667 15.8019C23.7922 18.4086 25.2248 20.7634 26.915 22.1024C27.7621 22.7735 28.6834 23.1966 29.644 23.2563C30.6083 23.3162 31.5902 23.0085 32.5508 22.2576L32.3045 21.9424ZM25.6724 3.04924C27.5025 2.42339 29.1379 3.22499 30.4099 4.35454C31.6807 5.48309 32.5471 6.90557 32.8102 7.41216L33.1652 7.22784C32.8882 6.69443 31.9946 5.22691 30.6755 4.05545C29.3574 2.88501 27.5728 1.97661 25.5429 2.67076L25.6724 3.04924ZM32.8111 7.41393C34.1209 9.87608 34.6616 12.9939 34.5329 15.7657C34.4686 17.1505 34.2375 18.4417 33.8567 19.5157C33.4749 20.5923 32.9482 21.4349 32.3038 21.9429L32.5515 22.2571C33.2771 21.6851 33.8379 20.7652 34.2337 19.6493C34.6303 18.5308 34.8667 17.1995 34.9324 15.7843C35.0638 12.9561 34.5144 9.76392 33.1642 7.22606L32.8111 7.41393ZM35.0815 5.60104C33.8666 3.46745 32.2747 2.39496 30.9819 1.85781C30.3366 1.58969 29.767 1.45533 29.3573 1.38796C29.1524 1.35426 28.9872 1.33728 28.8722 1.32871C28.8146 1.32443 28.7696 1.32225 28.7385 1.32115C28.7229 1.32059 28.7107 1.3203 28.7022 1.32016C28.698 1.32008 28.6946 1.32004 28.6922 1.32002C28.691 1.32001 28.69 1.32001 28.6892 1.32C28.6888 1.32 28.6885 1.32 28.6883 1.32C28.6881 1.32 28.688 1.32 28.6879 1.32C28.6878 1.32 28.6877 1.32 28.6877 1.52C28.6877 1.72 28.6876 1.72 28.6875 1.72C28.6875 1.72 28.6874 1.72 28.6874 1.72C28.6874 1.72 28.6874 1.72 28.6875 1.72C28.6877 1.72 28.6881 1.72 28.6887 1.72001C28.69 1.72002 28.6922 1.72004 28.6953 1.7201C28.7014 1.7202 28.7111 1.72043 28.7243 1.72089C28.7505 1.72183 28.7903 1.72373 28.8425 1.72761C28.9467 1.73538 29.1001 1.75105 29.2924 1.78266C29.6771 1.84591 30.2162 1.97281 30.8284 2.22719C32.0507 2.73504 33.5687 3.75255 34.7339 5.79896L35.0815 5.60104ZM28.6877 1.52C28.7173 1.32221 28.7171 1.32218 28.717 1.32216C28.7169 1.32214 28.7167 1.32211 28.7165 1.32208C28.7161 1.32203 28.7156 1.32196 28.7151 1.32188C28.7139 1.32171 28.7124 1.32149 28.7104 1.32122C28.7066 1.32069 28.7011 1.31995 28.6942 1.31907C28.6803 1.31729 28.6603 1.3149 28.6346 1.31221C28.5831 1.30685 28.5088 1.30033 28.4142 1.29532C28.2253 1.28529 27.9554 1.28125 27.6275 1.30456C26.9722 1.35117 26.0815 1.50732 25.1406 1.94625C23.247 2.82958 21.1906 4.83902 20.4107 9.28545L20.8046 9.35455C21.5648 5.02098 23.5483 3.13042 25.3097 2.30875C26.1963 1.89518 27.0369 1.74758 27.6559 1.70356C27.9652 1.68156 28.2183 1.68549 28.393 1.69476C28.4804 1.69939 28.548 1.70535 28.5931 1.71006C28.6156 1.71241 28.6326 1.71445 28.6435 1.71584C28.649 1.71654 28.653 1.71708 28.6554 1.71742C28.6566 1.71759 28.6574 1.71771 28.6579 1.71777C28.6581 1.7178 28.6582 1.71782 28.6582 1.71782C28.6583 1.71783 28.6582 1.71782 28.6582 1.71782C28.6581 1.71781 28.658 1.71779 28.6877 1.52ZM20.4107 9.28522C19.6323 13.693 20.5715 17.3771 22.1615 20.0084C23.745 22.629 25.9921 24.2303 27.8474 24.419L27.8879 24.021C26.2032 23.8497 24.0504 22.361 22.5038 19.8016C20.9638 17.2529 20.043 13.667 20.8046 9.35478L20.4107 9.28522ZM27.8463 24.4189C28.9997 24.5424 30.4622 24.3583 31.704 23.6752L31.5113 23.3248C30.3531 23.9617 28.9756 24.1376 27.889 24.0211L27.8463 24.4189ZM31.6077 23.5C31.6956 23.6796 31.6957 23.6796 31.6958 23.6796C31.6958 23.6795 31.6959 23.6795 31.696 23.6794C31.6962 23.6793 31.6964 23.6792 31.6967 23.6791C31.6972 23.6788 31.698 23.6785 31.6988 23.678C31.7006 23.6771 31.7031 23.6759 31.7062 23.6743C31.7124 23.6712 31.7212 23.6667 31.7325 23.6607C31.7552 23.6488 31.7879 23.6313 31.8296 23.6078C31.9128 23.5609 32.0319 23.4904 32.1782 23.3945C32.4708 23.2027 32.873 22.9091 33.316 22.4993C34.2021 21.6796 35.2532 20.3934 35.9161 18.5269L35.5392 18.3931C34.9021 20.1866 33.8932 21.4204 33.0443 22.2057C32.6199 22.5984 32.2357 22.8785 31.959 23.0599C31.8206 23.1506 31.7092 23.2165 31.6332 23.2593C31.5952 23.2807 31.566 23.2964 31.5467 23.3065C31.5371 23.3115 31.53 23.3152 31.5254 23.3175C31.5231 23.3187 31.5215 23.3195 31.5206 23.3199C31.5201 23.3202 31.5198 23.3203 31.5197 23.3204C31.5196 23.3204 31.5196 23.3204 31.5196 23.3204C31.5196 23.3204 31.5196 23.3204 31.5196 23.3204C31.5197 23.3204 31.5197 23.3204 31.6077 23.5ZM35.9165 18.5258C37.7775 13.1856 36.6069 8.28578 35.0815 5.6012L34.7338 5.7988C36.2084 8.39422 37.3578 13.1744 35.5388 18.3942L35.9165 18.5258ZM43.3613 23H43.1613V23.2H43.3613V23ZM43.3613 1.8H43.5612V1.6H43.3613V1.8ZM41.3013 1.8V1.6H41.1012V1.8H41.3013ZM41.3013 24H41.1012V24.2H41.3013V24ZM52.2013 24V24.2H52.4012V24H52.2013ZM52.2013 23H52.4012V22.8H52.2013V23ZM43.5612 23V1.8H43.1613V23H43.5612ZM43.3613 1.6H41.3013V2H43.3613V1.6ZM41.1012 1.8V24H41.5013V1.8H41.1012ZM41.3013 24.2H52.2013V23.8H41.3013V24.2ZM52.4012 24V23H52.0013V24H52.4012ZM52.2013 22.8H43.3613V23.2H52.2013V22.8ZM70.1286 1.8H70.3286V1.6H70.1286V1.8ZM68.8086 1.8V1.6H68.6086V1.8H68.8086ZM65.4086 22.66L65.498 22.8389L65.4989 22.8384L65.4086 22.66ZM63.1286 23.08L63.1274 23.28H63.1286V23.08ZM57.8686 1.8H58.0686V1.6H57.8686V1.8ZM55.6286 1.8V1.6H55.4286V1.8H55.6286ZM70.1286 1.6H68.8086V2H70.1286V1.6ZM68.6086 1.8V13.38H69.0086V1.8H68.6086ZM68.6086 13.38C68.6086 16.7959 68.1549 18.8819 67.5207 20.2061C66.8917 21.5195 66.0792 22.0963 65.3183 22.4816L65.4989 22.8384C66.318 22.4237 67.2055 21.7905 67.8815 20.3789C68.5523 18.9781 69.0086 16.8241 69.0086 13.38H68.6086ZM65.3192 22.4811C64.6817 22.7999 63.9199 22.88 63.1286 22.88V23.28C63.9373 23.28 64.7755 23.2001 65.498 22.8389L65.3192 22.4811ZM63.1298 22.88C61.595 22.8705 60.3444 22.1724 59.4654 20.6095C58.5778 19.0312 58.0686 16.567 58.0686 13.04H57.6686C57.6686 16.593 58.1794 19.1388 59.1168 20.8055C60.0628 22.4876 61.4422 23.2695 63.1274 23.28L63.1298 22.88ZM58.0686 13.04V1.8H57.6686V13.04H58.0686ZM57.8686 1.6H55.6286V2H57.8686V1.6ZM55.4286 1.8V13.2H55.8286V1.8H55.4286ZM55.4286 13.2C55.4286 16.1064 55.7329 18.8958 56.7672 20.9644C57.2862 22.0025 57.9917 22.8643 58.9386 23.4657C59.8859 24.0673 61.062 24.4 62.5086 24.4V24C61.1252 24 60.0263 23.6827 59.153 23.128C58.2793 22.5732 57.6185 21.7725 57.125 20.7856C56.1343 18.8042 55.8286 16.0936 55.8286 13.2H55.4286ZM62.5086 24.4C64.236 24.4 65.5999 24.0455 66.671 23.4014C67.7431 22.7567 68.5073 21.8307 69.0486 20.7121C70.1258 18.4863 70.3286 15.4785 70.3286 12.34H69.9286C69.9286 15.4815 69.7214 18.4037 68.6886 20.5379C68.1749 21.5993 67.4591 22.4608 66.4649 23.0586C65.4697 23.657 64.1812 24 62.5086 24V24.4ZM70.3286 12.34V1.8H69.9286V12.34H70.3286ZM91.0372 1.8V1.6H90.8978L90.8496 1.73075L91.0372 1.8ZM84.0172 20.82L83.8298 20.8899L84.0182 21.3947L84.2048 20.8892L84.0172 20.82ZM76.9172 1.8L77.1046 1.73006L77.056 1.6H76.9172V1.8ZM74.8372 1.8V1.6H74.6372V1.8H74.8372ZM74.8372 24H74.6372V24.2H74.8372V24ZM75.9172 24V24.2H76.1172V24H75.9172ZM75.9172 6.02L76.1036 5.94744L75.7172 6.02H75.9172ZM82.9172 24L82.7308 24.0726L82.8029 24.2578L82.9886 24.1868L82.9172 24ZM84.2772 23.48L84.3486 23.6668L84.4333 23.6344L84.4647 23.5495L84.2772 23.48ZM90.9372 5.5L91.1372 5.50108L90.7496 5.43053L90.9372 5.5ZM90.8372 24L90.6372 23.9989L90.6361 24.2H90.8372V24ZM92.0172 24V24.2H92.2172V24H92.0172ZM92.0172 1.8H92.2172V1.6H92.0172V1.8ZM90.8496 1.73075L83.8296 20.7507L84.2048 20.8892L91.2248 1.86925L90.8496 1.73075ZM84.2046 20.7501L77.1046 1.73006L76.7298 1.86994L83.8298 20.8899L84.2046 20.7501ZM76.9172 1.6H74.8372V2H76.9172V1.6ZM74.6372 1.8V24H75.0372V1.8H74.6372ZM74.8372 24.2H75.9172V23.8H74.8372V24.2ZM76.1172 24V6.02H75.7172V24H76.1172ZM75.7308 6.09256L82.7308 24.0726L83.1036 23.9274L76.1036 5.94744L75.7308 6.09256ZM82.9886 24.1868L84.3486 23.6668L84.2058 23.2932L82.8458 23.8132L82.9886 24.1868ZM84.4647 23.5495L91.1247 5.56947L90.7496 5.43053L84.0896 23.4105L84.4647 23.5495ZM90.7372 5.49892L90.6372 23.9989L91.0372 24.0011L91.1372 5.50108L90.7372 5.49892ZM90.8372 24.2H92.0172V23.8H90.8372V24.2ZM92.2172 24V1.8H91.8172V24H92.2172ZM92.0172 1.6H91.0372V2H92.0172V1.6ZM107.02 1.8V1.6H106.821L106.82 1.79896L107.02 1.8ZM106.92 21.12L106.736 21.1991L107.12 21.121L106.92 21.12ZM98.5997 1.8L98.7834 1.72089L98.7313 1.6H98.5997V1.8ZM96.9597 1.8V1.6H96.7597V1.8H96.9597ZM96.9597 24H96.7597V24.2H96.9597V24ZM97.9597 24V24.2H98.1597V24H97.9597ZM97.9597 6.22L98.1428 6.13948L97.7597 6.22H97.9597ZM105.78 24L105.597 24.0805L105.683 24.2762L105.872 24.1773L105.78 24ZM108.08 22.8L108.172 22.9773L108.28 22.9212V22.8H108.08ZM108.08 1.8H108.28V1.6H108.08V1.8ZM106.82 1.79896L106.72 21.119L107.12 21.121L107.22 1.80103L106.82 1.79896ZM107.103 21.0409L98.7834 1.72089L98.416 1.8791L106.736 21.1991L107.103 21.0409ZM98.5997 1.6H96.9597V2H98.5997V1.6ZM96.7597 1.8V24H97.1597V1.8H96.7597ZM96.9597 24.2H97.9597V23.8H96.9597V24.2ZM98.1597 24V6.22H97.7597V24H98.1597ZM97.7766 6.30052L105.597 24.0805L105.963 23.9195L98.1428 6.13948L97.7766 6.30052ZM105.872 24.1773L108.172 22.9773L107.987 22.6227L105.687 23.8227L105.872 24.1773ZM108.28 22.8V1.8H107.88V22.8H108.28ZM108.08 1.6H107.02V2H108.08V1.6ZM108.914 28.16V27.96H108.714V28.16H108.914ZM108.914 28.46H108.714V28.66H108.914V28.46ZM108.714 28.16V28.46H109.114V28.16H108.714ZM108.914 28.66C110.115 28.66 111.252 27.8327 112.076 26.7405C112.904 25.6437 113.454 24.2324 113.454 22.98H113.054C113.054 24.1276 112.544 25.4563 111.757 26.4995C110.966 27.5473 109.933 28.26 108.914 28.26V28.66ZM113.454 22.98C113.454 22.4763 113.248 22.1881 113 22.0387C112.769 21.8994 112.532 21.9 112.494 21.9V22.3C112.516 22.3 112.659 22.3006 112.793 22.3813C112.91 22.4519 113.054 22.6037 113.054 22.98H113.454ZM112.494 21.9C112.333 21.9 112.096 21.9578 111.895 22.1271C111.686 22.3033 111.534 22.5861 111.534 23H111.934C111.934 22.6939 112.042 22.5267 112.153 22.4329C112.272 22.3322 112.415 22.3 112.494 22.3V21.9ZM111.534 23C111.534 24.3947 111.148 25.6496 110.617 26.5509C110.351 27.0017 110.052 27.3584 109.752 27.6003C109.451 27.8436 109.163 27.96 108.914 27.96V28.36C109.285 28.36 109.66 28.1889 110.003 27.9116C110.349 27.6328 110.677 27.2358 110.961 26.7541C111.53 25.7904 111.934 24.4653 111.934 23H111.534ZM135.834 16L136.033 15.9889L136.023 15.8H135.834V16ZM128.694 16V15.8H128.494V16H128.694ZM128.694 17.1H128.494V17.3028L128.696 17.3L128.694 17.1ZM134.374 17.34H134.173L134.174 17.3526L134.374 17.34ZM132.934 22.2L132.865 22.012L132.865 22.0121L132.934 22.2ZM125.474 3.28L125.399 3.0943L125.399 3.09461L125.474 3.28ZM132.994 6.64L132.827 6.74998L132.886 6.84H132.994V6.64ZM135.494 6.64V6.84H135.807L135.675 6.55563L135.494 6.64ZM127.554 1.8L127.573 1.99908L127.58 1.99834L127.588 1.99701L127.554 1.8ZM135.794 17.7L135.596 17.6682L135.595 17.6756L135.594 17.6832L135.794 17.7ZM135.834 15.8H128.694V16.2H135.834V15.8ZM128.494 16V17.1H128.894V16H128.494ZM128.694 17.1C128.696 17.3 128.696 17.3 128.696 17.3C128.697 17.3 128.697 17.3 128.697 17.3C128.697 17.3 128.697 17.3 128.697 17.3C128.698 17.3 128.699 17.2999 128.7 17.2999C128.703 17.2999 128.707 17.2998 128.713 17.2998C128.723 17.2996 128.739 17.2994 128.76 17.2992C128.801 17.2987 128.862 17.298 128.94 17.2972C129.095 17.2956 129.316 17.2937 129.582 17.2925C130.114 17.29 130.822 17.29 131.531 17.3C132.24 17.31 132.945 17.3299 133.472 17.367C133.737 17.3856 133.949 17.4082 134.094 17.4345C134.167 17.448 134.212 17.4607 134.234 17.4697C134.246 17.4746 134.24 17.4737 134.227 17.4629C134.214 17.4521 134.174 17.4112 134.174 17.34H134.574C134.574 17.2488 134.522 17.1887 134.488 17.1595C134.453 17.1301 134.415 17.1116 134.385 17.0994C134.324 17.0745 134.247 17.056 134.166 17.0411C133.999 17.0106 133.768 16.9869 133.5 16.968C132.962 16.9301 132.247 16.91 131.536 16.9C130.825 16.89 130.113 16.89 129.58 16.8925C129.313 16.8938 129.091 16.8956 128.936 16.8972C128.858 16.898 128.797 16.8987 128.755 16.8992C128.734 16.8994 128.718 16.8997 128.707 16.8998C128.702 16.8999 128.698 16.8999 128.695 16.9C128.694 16.9 128.693 16.9 128.692 16.9C128.691 16.9 128.691 16.9 128.691 16.9C128.691 16.9 128.691 16.9 128.691 16.9C128.691 16.9 128.691 16.9 128.694 17.1ZM134.174 17.3526C134.264 18.7817 134.246 19.843 134.045 20.6039C133.848 21.3489 133.482 21.7887 132.865 22.012L133.002 22.388C133.765 22.1113 134.209 21.5511 134.432 20.7061C134.651 19.877 134.663 18.7583 134.573 17.3274L134.174 17.3526ZM132.865 22.0121C130.965 22.7044 129.153 22.0958 127.583 20.7056C126.01 19.3121 124.703 17.1475 123.849 14.7943C122.995 12.4416 122.604 9.92259 122.841 7.83104C123.08 5.73626 123.941 4.11606 125.549 3.46539L125.399 3.09461C123.596 3.82394 122.69 5.62123 122.444 7.78584C122.197 9.95366 122.604 12.5359 123.473 14.9307C124.342 17.325 125.68 19.5542 127.318 21.005C128.96 22.4592 130.922 23.1456 133.002 22.3879L132.865 22.0121ZM125.548 3.46569C126.309 3.16133 127.477 2.99563 128.777 3.39614C130.074 3.79562 131.518 4.76318 132.827 6.74998L133.161 6.53001C131.809 4.47682 130.293 3.44438 128.895 3.01386C127.5 2.58437 126.238 2.75867 125.399 3.0943L125.548 3.46569ZM132.994 6.84H135.494V6.44H132.994V6.84ZM135.675 6.55563C134.309 3.61897 132.275 2.37305 130.576 1.86828C129.729 1.61681 128.968 1.55011 128.419 1.54625C128.144 1.54433 127.921 1.55813 127.766 1.57258C127.689 1.57981 127.628 1.58721 127.586 1.5929C127.565 1.59575 127.549 1.59817 127.538 1.59993C127.532 1.60081 127.528 1.60152 127.525 1.60204C127.523 1.6023 127.522 1.60251 127.521 1.60267C127.521 1.60275 127.52 1.60282 127.52 1.60287C127.52 1.6029 127.519 1.60293 127.519 1.60294C127.519 1.60297 127.519 1.60299 127.554 1.8C127.588 1.99701 127.588 1.99702 127.588 1.99704C127.588 1.99704 127.588 1.99705 127.588 1.99704C127.588 1.99704 127.588 1.99703 127.588 1.997C127.588 1.99694 127.589 1.99683 127.59 1.99667C127.592 1.99635 127.595 1.99583 127.6 1.99515C127.608 1.99378 127.622 1.99173 127.64 1.98925C127.677 1.98427 127.732 1.97753 127.803 1.97085C127.947 1.9575 128.156 1.94442 128.416 1.94624C128.936 1.94989 129.658 2.01319 130.462 2.25172C132.062 2.72695 133.999 3.90103 135.312 6.72437L135.675 6.55563ZM127.554 1.8C127.534 1.60091 127.534 1.60093 127.534 1.60095C127.534 1.60096 127.534 1.60098 127.534 1.601C127.533 1.60103 127.533 1.60108 127.532 1.60114C127.531 1.60125 127.53 1.60141 127.528 1.60162C127.524 1.60202 127.518 1.60262 127.512 1.60343C127.498 1.60505 127.478 1.60753 127.453 1.6111C127.403 1.61825 127.33 1.62979 127.238 1.6476C127.054 1.68322 126.794 1.74398 126.482 1.84508C125.86 2.04718 125.03 2.41128 124.2 3.05993C122.533 4.36372 120.894 6.79416 120.894 11.28H121.294C121.294 6.90584 122.885 4.59628 124.447 3.37507C125.232 2.76122 126.017 2.41657 126.606 2.22554C126.9 2.13008 127.144 2.07319 127.314 2.04029C127.399 2.02384 127.465 2.01341 127.509 2.00715C127.531 2.00402 127.548 2.00194 127.559 2.00067C127.564 2.00003 127.568 1.9996 127.57 1.99935C127.571 1.99922 127.572 1.99914 127.573 1.9991C127.573 1.99908 127.573 1.99906 127.573 1.99906C127.573 1.99906 127.573 1.99907 127.573 1.99907C127.573 1.99907 127.573 1.99908 127.554 1.8ZM120.894 11.28C120.894 20.1877 126.382 24.2 130.454 24.2V23.8C126.645 23.8 121.294 20.0122 121.294 11.28H120.894ZM130.454 24.2C131.525 24.2 132.806 23.8568 133.875 22.864C134.944 21.8699 135.78 20.2438 135.993 17.7168L135.594 17.6832C135.387 20.1362 134.583 21.6601 133.602 22.571C132.621 23.4832 131.442 23.8 130.454 23.8V24.2ZM135.991 17.7318C136.044 17.4041 136.054 16.9647 136.051 16.6161C136.05 16.4399 136.045 16.2835 136.041 16.1711C136.039 16.1149 136.037 16.0696 136.036 16.0382C136.035 16.0225 136.034 16.0103 136.034 16.002C136.034 15.9978 136.034 15.9946 136.033 15.9924C136.033 15.9913 136.033 15.9905 136.033 15.9899C136.033 15.9896 136.033 15.9894 136.033 15.9892C136.033 15.9891 136.033 15.9891 136.033 15.989C136.033 15.989 136.033 15.989 136.033 15.9889C136.033 15.9889 136.033 15.9889 135.834 16C135.634 16.0111 135.634 16.0111 135.634 16.0111C135.634 16.0111 135.634 16.0111 135.634 16.0111C135.634 16.0111 135.634 16.0111 135.634 16.0112C135.634 16.0113 135.634 16.0115 135.634 16.0117C135.634 16.0121 135.634 16.0129 135.634 16.0138C135.634 16.0157 135.634 16.0187 135.635 16.0226C135.635 16.0303 135.635 16.042 135.636 16.057C135.638 16.0871 135.64 16.131 135.642 16.1858C135.646 16.2952 135.65 16.4476 135.651 16.6189C135.654 16.9653 135.643 17.3759 135.596 17.6682L135.991 17.7318ZM154.367 1.8H154.567V1.6H154.367V1.8ZM153.047 1.8V1.6H152.847V1.8H153.047ZM149.647 22.66L149.736 22.8389L149.737 22.8384L149.647 22.66ZM147.367 23.08L147.366 23.28H147.367V23.08ZM142.107 1.8H142.307V1.6H142.107V1.8ZM139.867 1.8V1.6H139.667V1.8H139.867ZM154.367 1.6H153.047V2H154.367V1.6ZM152.847 1.8V13.38H153.247V1.8H152.847ZM152.847 13.38C152.847 16.7959 152.393 18.8819 151.759 20.2061C151.13 21.5195 150.318 22.0963 149.557 22.4816L149.737 22.8384C150.556 22.4237 151.444 21.7905 152.12 20.3789C152.791 18.9781 153.247 16.8241 153.247 13.38H152.847ZM149.557 22.4811C148.92 22.7999 148.158 22.88 147.367 22.88V23.28C148.176 23.28 149.014 23.2001 149.736 22.8389L149.557 22.4811ZM147.368 22.88C145.833 22.8705 144.583 22.1724 143.704 20.6095C142.816 19.0312 142.307 16.567 142.307 13.04H141.907C141.907 16.593 142.418 19.1388 143.355 20.8055C144.301 22.4876 145.68 23.2695 147.366 23.28L147.368 22.88ZM142.307 13.04V1.8H141.907V13.04H142.307ZM142.107 1.6H139.867V2H142.107V1.6ZM139.667 1.8V13.2H140.067V1.8H139.667ZM139.667 13.2C139.667 16.1064 139.971 18.8958 141.005 20.9644C141.525 22.0025 142.23 22.8643 143.177 23.4657C144.124 24.0673 145.3 24.4 146.747 24.4V24C145.363 24 144.265 23.6827 143.391 23.128C142.518 22.5732 141.857 21.7725 141.363 20.7856C140.373 18.8042 140.067 16.0936 140.067 13.2H139.667ZM146.747 24.4C148.474 24.4 149.838 24.0455 150.909 23.4014C151.981 22.7567 152.746 21.8307 153.287 20.7121C154.364 18.4863 154.567 15.4785 154.567 12.34H154.167C154.167 15.4815 153.96 18.4037 152.927 20.5379C152.413 21.5993 151.697 22.4608 150.703 23.0586C149.708 23.657 148.419 24 146.747 24V24.4ZM154.567 12.34V1.8H154.167V12.34H154.567ZM173.175 1.8H173.375V1.6H173.175V1.8ZM157.175 1.8V1.6H156.975V1.8H157.175ZM157.175 2.88H156.975V3.08H157.175V2.88ZM164.175 2.88H164.375V2.68H164.175V2.88ZM164.175 22.68H163.975V22.7876L164.065 22.8469L164.175 22.68ZM166.175 24L166.065 24.1669L166.375 24.3716V24H166.175ZM166.175 2.88V2.68H165.975V2.88H166.175ZM173.155 2.88V3.08H173.344L173.355 2.89174L173.155 2.88ZM173.175 1.6H157.175V2H173.175V1.6ZM156.975 1.8V2.88H157.375V1.8H156.975ZM157.175 3.08H164.175V2.68H157.175V3.08ZM163.975 2.88V22.68H164.375V2.88H163.975ZM164.065 22.8469L166.065 24.1669L166.286 23.8331L164.286 22.5131L164.065 22.8469ZM166.375 24V2.88H165.975V24H166.375ZM166.175 3.08H173.155V2.68H166.175V3.08ZM173.355 2.89174C173.376 2.54475 173.375 2.13854 173.375 1.8H172.975C172.975 2.14146 172.975 2.53525 172.956 2.86826L173.355 2.89174ZM190.5 1.8H190.7V1.6H190.5V1.8ZM174.5 1.8V1.6H174.3V1.8H174.5ZM174.5 2.88H174.3V3.08H174.5V2.88ZM181.5 2.88H181.7V2.68H181.5V2.88ZM181.5 22.68H181.3V22.7876L181.39 22.8469L181.5 22.68ZM183.5 24L183.39 24.1669L183.7 24.3716V24H183.5ZM183.5 2.88V2.68H183.3V2.88H183.5ZM190.48 2.88V3.08H190.668L190.679 2.89174L190.48 2.88ZM190.5 1.6H174.5V2H190.5V1.6ZM174.3 1.8V2.88H174.7V1.8H174.3ZM174.5 3.08H181.5V2.68H174.5V3.08ZM181.3 2.88V22.68H181.7V2.88H181.3ZM181.39 22.8469L183.39 24.1669L183.61 23.8331L181.61 22.5131L181.39 22.8469ZM183.7 24V2.88H183.3V24H183.7ZM183.5 3.08H190.48V2.68H183.5V3.08ZM190.679 2.89174C190.7 2.54475 190.7 2.13854 190.7 1.8H190.3C190.3 2.14146 190.3 2.53525 190.28 2.86826L190.679 2.89174ZM196.824 23.12H196.624V23.32H196.824V23.12ZM196.824 13.58V13.38H196.624V13.58H196.824ZM204.644 13.58V13.78H204.844V13.58H204.644ZM204.644 12.72H204.844V12.52H204.644V12.72ZM196.824 12.72H196.624V12.92H196.824V12.72ZM196.824 2.72V2.52H196.624V2.72H196.824ZM207.424 2.72V2.92H207.624V2.72H207.424ZM207.424 1.8H207.624V1.6H207.424V1.8ZM194.664 1.8V1.6H194.464V1.8H194.664ZM194.664 22.66H194.464V22.7713L194.558 22.83L194.664 22.66ZM196.824 24L196.718 24.17L196.767 24.2H196.824V24ZM207.504 24V24.2H207.704V24H207.504ZM207.504 23.12H207.704V22.92H207.504V23.12ZM197.024 23.12V13.58H196.624V23.12H197.024ZM196.824 13.78H204.644V13.38H196.824V13.78ZM204.844 13.58V12.72H204.444V13.58H204.844ZM204.644 12.52H196.824V12.92H204.644V12.52ZM197.024 12.72V2.72H196.624V12.72H197.024ZM196.824 2.92H207.424V2.52H196.824V2.92ZM207.624 2.72V1.8H207.224V2.72H207.624ZM207.424 1.6H194.664V2H207.424V1.6ZM194.464 1.8V22.66H194.864V1.8H194.464ZM194.558 22.83L196.718 24.17L196.929 23.83L194.769 22.49L194.558 22.83ZM196.824 24.2H207.504V23.8H196.824V24.2ZM207.704 24V23.12H207.304V24H207.704ZM207.504 22.92H196.824V23.32H207.504V22.92ZM213.823 2.52V2.32H213.623V2.52H213.823ZM215.683 12.78L215.716 12.9773L215.718 12.977L215.683 12.78ZM213.823 12.9H213.623V13.1H213.823V12.9ZM218.683 12.82L218.587 12.6449L218.683 13.02V12.82ZM220.223 11.88L220.347 12.037L220.348 12.0358L220.223 11.88ZM211.923 1.8V1.6H211.723V1.8H211.923ZM211.923 24H211.723V24.2H211.923V24ZM213.823 24V24.2H214.023V24H213.823ZM213.823 13.78L213.794 13.5822L213.623 13.6077V13.78H213.823ZM217.883 14.48L217.74 14.6202L217.743 14.6224L217.883 14.48ZM223.883 24V24.2H223.975L224.035 24.1306L223.883 24ZM224.883 22.84L225.035 22.9706L225.32 22.64H224.883V22.84ZM213.823 2.72H215.643V2.32H213.823V2.72ZM215.643 2.72C217.658 2.72 218.935 3.66449 219.715 4.81947C220.502 5.98424 220.783 7.36388 220.783 8.2H221.183C221.183 7.29612 220.884 5.83576 220.046 4.59553C219.202 3.34551 217.808 2.32 215.643 2.32V2.72ZM220.783 8.2C220.783 9.25692 220.532 10.036 220.148 10.6167C219.765 11.1983 219.24 11.5944 218.673 11.8701C217.524 12.4288 216.254 12.4768 215.649 12.583L215.718 12.977C216.252 12.8832 217.632 12.8212 218.848 12.2299C219.464 11.9306 220.05 11.4917 220.482 10.837C220.915 10.1815 221.183 9.32308 221.183 8.2H220.783ZM215.65 12.5827C215.303 12.6406 214.849 12.6702 214.475 12.6852C214.29 12.6926 214.126 12.6963 214.009 12.6981C213.951 12.6991 213.904 12.6995 213.872 12.6998C213.856 12.6999 213.844 12.6999 213.835 12.7C213.831 12.7 213.828 12.7 213.826 12.7C213.825 12.7 213.824 12.7 213.824 12.7C213.824 12.7 213.823 12.7 213.823 12.7C213.823 12.7 213.823 12.7 213.823 12.7C213.823 12.7 213.823 12.7 213.823 12.7C213.823 12.7 213.823 12.7 213.823 12.9C213.823 13.1 213.823 13.1 213.823 13.1C213.823 13.1 213.823 13.1 213.823 13.1C213.823 13.1 213.823 13.1 213.823 13.1C213.824 13.1 213.824 13.1 213.824 13.1C213.825 13.1 213.826 13.1 213.827 13.1C213.829 13.1 213.832 13.1 213.837 13.1C213.846 13.0999 213.858 13.0999 213.875 13.0998C213.908 13.0995 213.956 13.099 214.016 13.0981C214.135 13.0962 214.302 13.0924 214.491 13.0848C214.868 13.0698 215.343 13.0394 215.716 12.9773L215.65 12.5827ZM214.023 12.9V2.52H213.623V12.9H214.023ZM218.683 12.82C218.78 12.9951 218.78 12.9951 218.78 12.9951C218.78 12.9951 218.78 12.9951 218.78 12.9951C218.78 12.9951 218.78 12.995 218.78 12.995C218.78 12.9949 218.78 12.9948 218.781 12.9946C218.781 12.9943 218.782 12.9938 218.783 12.9932C218.786 12.9919 218.789 12.9901 218.793 12.9877C218.802 12.9828 218.815 12.9757 218.831 12.9666C218.864 12.9484 218.911 12.922 218.969 12.8895C219.084 12.8245 219.242 12.7345 219.412 12.6351C219.746 12.4392 220.144 12.1972 220.347 12.037L220.099 11.723C219.922 11.8628 219.55 12.0908 219.21 12.2899C219.042 12.388 218.886 12.4768 218.772 12.5411C218.715 12.5733 218.669 12.5993 218.636 12.6172C218.62 12.6262 218.608 12.6331 218.599 12.6378C218.595 12.6402 218.592 12.6419 218.59 12.6431C218.589 12.6437 218.588 12.6442 218.587 12.6445C218.587 12.6446 218.587 12.6447 218.587 12.6448C218.587 12.6448 218.587 12.6449 218.587 12.6449C218.587 12.6449 218.587 12.6449 218.587 12.6449C218.587 12.6449 218.587 12.6449 218.683 12.82ZM220.348 12.0358C220.813 11.662 221.437 11.138 221.942 10.2596C222.446 9.38017 222.823 8.15989 222.823 6.4H222.423C222.423 8.10011 222.06 9.24983 221.595 10.0604C221.129 10.872 220.553 11.358 220.098 11.7242L220.348 12.0358ZM222.823 6.4C222.823 3.89579 220.8 1.6 217.983 1.6V2C220.567 2 222.423 4.10421 222.423 6.4H222.823ZM217.983 1.6H211.923V2H217.983V1.6ZM211.723 1.8V24H212.123V1.8H211.723ZM211.923 24.2H213.823V23.8H211.923V24.2ZM214.023 24V13.78H213.623V24H214.023ZM213.823 13.78C213.853 13.9778 213.853 13.9778 213.853 13.9778C213.853 13.9778 213.853 13.9778 213.853 13.9778C213.853 13.9778 213.853 13.9778 213.853 13.9778C213.853 13.9777 213.854 13.9777 213.854 13.9776C213.855 13.9774 213.857 13.9771 213.86 13.9768C213.865 13.976 213.873 13.9749 213.883 13.9735C213.904 13.9707 213.935 13.9667 213.975 13.9619C214.056 13.9524 214.172 13.9399 214.316 13.9284C214.604 13.9054 214.998 13.8865 215.426 13.9024C215.854 13.9183 216.31 13.969 216.723 14.0825C217.138 14.1966 217.495 14.3698 217.74 14.6202L218.026 14.3398C217.712 14.0202 217.281 13.8209 216.829 13.6968C216.376 13.5723 215.887 13.5192 215.441 13.5026C214.993 13.486 214.583 13.5058 214.284 13.5297C214.135 13.5416 214.013 13.5546 213.928 13.5647C213.886 13.5697 213.852 13.5741 213.83 13.5771C213.818 13.5787 213.809 13.5799 213.803 13.5808C213.8 13.5812 213.798 13.5815 213.796 13.5818C213.796 13.5819 213.795 13.582 213.794 13.5821C213.794 13.5821 213.794 13.5821 213.794 13.5822C213.794 13.5822 213.794 13.5822 213.794 13.5822C213.794 13.5822 213.794 13.5822 213.823 13.78ZM217.743 14.6224C217.905 14.7828 218.09 15.0474 218.294 15.4023C218.497 15.7542 218.712 16.1823 218.938 16.6606C219.164 17.1385 219.4 17.6629 219.645 18.2071C219.889 18.7505 220.143 19.3133 220.402 19.8651C220.92 20.9663 221.469 22.0353 222.034 22.8309C222.317 23.2287 222.61 23.5665 222.912 23.8066C223.214 24.0463 223.539 24.2 223.883 24.2V23.8C223.662 23.8 223.422 23.7012 223.161 23.4934C222.9 23.286 222.632 22.9813 222.361 22.5991C221.817 21.8347 221.281 20.7937 220.764 19.6949C220.506 19.1467 220.254 18.587 220.01 18.0429C219.765 17.4996 219.528 16.9715 219.3 16.4894C219.071 16.0077 218.851 15.5683 218.641 15.2027C218.432 14.8401 218.226 14.5372 218.024 14.3376L217.743 14.6224ZM224.035 24.1306L225.035 22.9706L224.732 22.7094L223.732 23.8694L224.035 24.1306ZM224.883 22.64C224.739 22.64 224.546 22.5389 224.304 22.2744C224.068 22.0171 223.818 21.6413 223.557 21.1764C223.035 20.2477 222.491 19.0054 221.944 17.75C221.399 16.5008 220.851 15.2382 220.325 14.2887C220.062 13.8145 219.799 13.4077 219.539 13.1171C219.286 12.8349 218.999 12.62 218.683 12.62V13.02C218.818 13.02 219.003 13.1182 219.241 13.384C219.472 13.6413 219.717 14.0174 219.975 14.4825C220.489 15.4118 221.03 16.6542 221.577 17.91C222.122 19.1596 222.675 20.4223 223.208 21.3723C223.475 21.8469 223.743 22.2538 224.009 22.5445C224.269 22.828 224.562 23.04 224.883 23.04V22.64ZM224.5 28.16V27.96H224.3V28.16H224.5ZM224.5 28.46H224.3V28.66H224.5V28.46ZM224.3 28.16V28.46H224.7V28.16H224.3ZM224.5 28.66C225.701 28.66 226.838 27.8327 227.662 26.7405C228.49 25.6437 229.04 24.2324 229.04 22.98H228.64C228.64 24.1276 228.13 25.4563 227.343 26.4995C226.552 27.5473 225.519 28.26 224.5 28.26V28.66ZM229.04 22.98C229.04 22.4763 228.833 22.1881 228.586 22.0387C228.354 21.8994 228.118 21.9 228.08 21.9V22.3C228.102 22.3 228.245 22.3006 228.379 22.3813C228.496 22.4519 228.64 22.6037 228.64 22.98H229.04ZM228.08 21.9C227.919 21.9 227.682 21.9578 227.481 22.1271C227.272 22.3033 227.12 22.5861 227.12 23H227.52C227.52 22.6939 227.628 22.5267 227.739 22.4329C227.858 22.3322 228.001 22.3 228.08 22.3V21.9ZM227.12 23C227.12 24.3947 226.734 25.6496 226.203 26.5509C225.937 27.0017 225.638 27.3584 225.338 27.6003C225.037 27.8436 224.748 27.96 224.5 27.96V28.36C224.871 28.36 225.246 28.1889 225.589 27.9116C225.935 27.6328 226.263 27.2358 226.547 26.7541C227.116 25.7904 227.52 24.4653 227.52 23H227.12ZM18.42 33.8V33.6H18.2806L18.2324 33.7307L18.42 33.8ZM11.4 52.82L11.2126 52.8899L11.4011 53.3947L11.5876 52.8893L11.4 52.82ZM4.3 33.8L4.48737 33.7301L4.43882 33.6H4.3V33.8ZM2.22 33.8V33.6H2.02V33.8H2.22ZM2.22 56H2.02V56.2H2.22V56ZM3.3 56V56.2H3.5V56H3.3ZM3.3 38.02L3.48637 37.9474L3.1 38.02H3.3ZM10.3 56L10.1136 56.0726L10.1857 56.2578L10.3714 56.1868L10.3 56ZM11.66 55.48L11.7314 55.6668L11.8161 55.6344L11.8475 55.5495L11.66 55.48ZM18.32 37.5L18.52 37.5011L18.1325 37.4305L18.32 37.5ZM18.22 56L18.02 55.9989L18.0189 56.2H18.22V56ZM19.4 56V56.2H19.6V56H19.4ZM19.4 33.8H19.6V33.6H19.4V33.8ZM18.2324 33.7307L11.2124 52.7507L11.5876 52.8893L18.6076 33.8693L18.2324 33.7307ZM11.5874 52.7501L4.48737 33.7301L4.11263 33.8699L11.2126 52.8899L11.5874 52.7501ZM4.3 33.6H2.22V34H4.3V33.6ZM2.02 33.8V56H2.42V33.8H2.02ZM2.22 56.2H3.3V55.8H2.22V56.2ZM3.5 56V38.02H3.1V56H3.5ZM3.11363 38.0926L10.1136 56.0726L10.4864 55.9274L3.48637 37.9474L3.11363 38.0926ZM10.3714 56.1868L11.7314 55.6668L11.5886 55.2932L10.2286 55.8132L10.3714 56.1868ZM11.8475 55.5495L18.5075 37.5695L18.1325 37.4305L11.4725 55.4105L11.8475 55.5495ZM18.12 37.4989L18.02 55.9989L18.42 56.0011L18.52 37.5011L18.12 37.4989ZM18.22 56.2H19.4V55.8H18.22V56.2ZM19.6 56V33.8H19.2V56H19.6ZM19.4 33.6H18.42V34H19.4V33.6ZM33.9025 48.38V48.58H34.1699L34.0944 48.3235L33.9025 48.38ZM26.3425 48.38L26.1551 48.3102L26.0547 48.58H26.3425V48.38ZM30.5625 37.04L30.7544 36.9835L30.5846 36.4072L30.3751 36.9702L30.5625 37.04ZM25.8825 49.62V49.42H25.7449L25.6957 49.5486L25.8825 49.62ZM34.2625 49.62L34.455 49.5657L34.4139 49.42H34.2625V49.62ZM36.0625 56L35.87 56.0543L35.9285 56.2615L36.1308 56.188L36.0625 56ZM38.2625 55.2L38.3308 55.388L38.5096 55.323L38.4537 55.1412L38.2625 55.2ZM31.6825 33.8L31.8737 33.7412L31.7965 33.4904L31.5751 33.6313L31.6825 33.8ZM30.5825 34.5L30.4751 34.3313L30.42 34.3663L30.3962 34.4272L30.5825 34.5ZM22.3425 55.58L22.1562 55.5072L22.0828 55.6949L22.2712 55.7668L22.3425 55.58ZM23.4425 56L23.3712 56.1868L23.5579 56.2581L23.6293 56.0714L23.4425 56ZM33.9025 48.18H26.3425V48.58H33.9025V48.18ZM26.5299 48.4498L30.7499 37.1098L30.3751 36.9702L26.1551 48.3102L26.5299 48.4498ZM30.3706 37.0965L33.7106 48.4365L34.0944 48.3235L30.7544 36.9835L30.3706 37.0965ZM25.8825 49.82H34.2625V49.42H25.8825V49.82ZM34.07 49.6743L35.87 56.0543L36.255 55.9457L34.455 49.5657L34.07 49.6743ZM36.1308 56.188L38.3308 55.388L38.1942 55.012L35.9942 55.812L36.1308 56.188ZM38.4537 55.1412L31.8737 33.7412L31.4913 33.8588L38.0713 55.2588L38.4537 55.1412ZM31.5751 33.6313L30.4751 34.3313L30.6899 34.6687L31.7899 33.9687L31.5751 33.6313ZM30.3962 34.4272L22.1562 55.5072L22.5288 55.6528L30.7688 34.5728L30.3962 34.4272ZM22.2712 55.7668L23.3712 56.1868L23.5138 55.8132L22.4138 55.3932L22.2712 55.7668ZM23.6293 56.0714L26.0693 49.6914L25.6957 49.5486L23.2557 55.9286L23.6293 56.0714ZM44.2919 34.52V34.32H44.0919V34.52H44.2919ZM46.1519 44.78L46.1848 44.9773L46.1864 44.977L46.1519 44.78ZM44.2919 44.9H44.0919V45.1H44.2919V44.9ZM49.1519 44.82L49.0553 44.6449L49.1519 45.02V44.82ZM50.6919 43.88L50.8158 44.037L50.8172 44.0358L50.6919 43.88ZM42.3919 33.8V33.6H42.1919V33.8H42.3919ZM42.3919 56H42.1919V56.2H42.3919V56ZM44.2919 56V56.2H44.4919V56H44.2919ZM44.2919 45.78L44.2623 45.5822L44.0919 45.6077V45.78H44.2919ZM48.3519 46.48L48.2092 46.6202L48.2114 46.6224L48.3519 46.48ZM54.3519 56V56.2H54.4435L54.5034 56.1306L54.3519 56ZM55.3519 54.84L55.5034 54.9706L55.7883 54.64H55.3519V54.84ZM44.2919 34.72H46.1119V34.32H44.2919V34.72ZM46.1119 34.72C48.1269 34.72 49.4033 35.6645 50.1837 36.8195C50.9707 37.9842 51.2519 39.3639 51.2519 40.2H51.6519C51.6519 39.2961 51.3531 37.8358 50.5151 36.5955C49.6705 35.3455 48.2769 34.32 46.1119 34.32V34.72ZM51.2519 40.2C51.2519 41.2569 51.0003 42.036 50.6171 42.6167C50.2334 43.1983 49.7089 43.5944 49.1419 43.8701C47.9931 44.4288 46.7227 44.4768 46.1173 44.583L46.1864 44.977C46.721 44.8832 48.1007 44.8212 49.3168 44.2299C49.9324 43.9305 50.5191 43.4917 50.951 42.837C51.3835 42.1815 51.6519 41.3231 51.6519 40.2H51.2519ZM46.119 44.5827C45.7719 44.6406 45.3173 44.6702 44.9439 44.6852C44.7583 44.6926 44.595 44.6963 44.4781 44.6982C44.4196 44.6991 44.3729 44.6995 44.3408 44.6998C44.3248 44.6999 44.3125 44.6999 44.3042 44.7C44.3 44.7 44.2969 44.7 44.2948 44.7C44.2938 44.7 44.293 44.7 44.2925 44.7C44.2923 44.7 44.2921 44.7 44.292 44.7C44.2919 44.7 44.2919 44.7 44.2919 44.7C44.2919 44.7 44.2919 44.7 44.2919 44.7C44.2919 44.7 44.2919 44.7 44.2919 44.9C44.2919 45.1 44.2919 45.1 44.2919 45.1C44.2919 45.1 44.2919 45.1 44.292 45.1C44.292 45.1 44.2921 45.1 44.2922 45.1C44.2923 45.1 44.2926 45.1 44.2929 45.1C44.2935 45.1 44.2944 45.1 44.2955 45.1C44.2978 45.1 44.3012 45.1 44.3055 45.1C44.3143 45.0999 44.3272 45.0999 44.3437 45.0998C44.3768 45.0995 44.4247 45.099 44.4844 45.0981C44.6038 45.0962 44.7704 45.0924 44.9599 45.0848C45.3364 45.0698 45.8118 45.0394 46.1848 44.9773L46.119 44.5827ZM44.4919 44.9V34.52H44.0919V44.9H44.4919ZM49.1519 44.82C49.2485 44.9951 49.2485 44.9951 49.2485 44.9951C49.2485 44.9951 49.2485 44.9951 49.2486 44.9951C49.2486 44.9951 49.2487 44.995 49.2487 44.995C49.2489 44.9949 49.2491 44.9948 49.2494 44.9946C49.25 44.9943 49.2509 44.9938 49.252 44.9932C49.2543 44.9919 49.2576 44.9901 49.262 44.9877C49.2707 44.9828 49.2834 44.9757 49.2998 44.9666C49.3325 44.9484 49.3796 44.922 49.4373 44.8895C49.5526 44.8245 49.7105 44.7345 49.8804 44.6351C50.2152 44.4392 50.6129 44.1972 50.8158 44.037L50.5679 43.723C50.3909 43.8628 50.0186 44.0908 49.6784 44.2899C49.5108 44.388 49.3549 44.4768 49.2408 44.5411C49.1838 44.5733 49.1373 44.5993 49.1051 44.6172C49.089 44.6262 49.0765 44.6331 49.068 44.6378C49.0638 44.6402 49.0606 44.6419 49.0584 44.6431C49.0574 44.6437 49.0566 44.6442 49.056 44.6445C49.0558 44.6446 49.0556 44.6447 49.0554 44.6448C49.0554 44.6448 49.0553 44.6449 49.0553 44.6449C49.0553 44.6449 49.0553 44.6449 49.0553 44.6449C49.0553 44.6449 49.0553 44.6449 49.1519 44.82ZM50.8172 44.0358C51.282 43.662 51.9061 43.138 52.4103 42.2596C52.9151 41.3802 53.2919 40.1599 53.2919 38.4H52.8919C52.8919 40.1001 52.5287 41.2498 52.0634 42.0604C51.5976 42.872 51.0218 43.358 50.5665 43.7242L50.8172 44.0358ZM53.2919 38.4C53.2919 35.8958 51.2685 33.6 48.4519 33.6V34C51.0353 34 52.8919 36.1042 52.8919 38.4H53.2919ZM48.4519 33.6H42.3919V34H48.4519V33.6ZM42.1919 33.8V56H42.5919V33.8H42.1919ZM42.3919 56.2H44.2919V55.8H42.3919V56.2ZM44.4919 56V45.78H44.0919V56H44.4919ZM44.2919 45.78C44.3215 45.9778 44.3214 45.9778 44.3214 45.9778C44.3214 45.9778 44.3214 45.9778 44.3214 45.9778C44.3215 45.9778 44.3216 45.9778 44.3217 45.9778C44.3219 45.9777 44.3223 45.9777 44.3229 45.9776C44.3241 45.9774 44.326 45.9771 44.3286 45.9768C44.3337 45.976 44.3415 45.9749 44.3519 45.9735C44.3727 45.9707 44.4038 45.9667 44.444 45.9619C44.5243 45.9524 44.641 45.9399 44.7847 45.9284C45.0725 45.9054 45.4669 45.8865 45.8945 45.9024C46.3229 45.9183 46.7788 45.969 47.192 46.0825C47.6068 46.1966 47.9633 46.3698 48.2092 46.6202L48.4945 46.3398C48.1805 46.0202 47.7494 45.8209 47.298 45.6968C46.8449 45.5723 46.3558 45.5192 45.9093 45.5026C45.4619 45.486 45.0513 45.5058 44.7528 45.5297C44.6034 45.5416 44.4816 45.5546 44.3968 45.5647C44.3544 45.5698 44.3212 45.5741 44.2984 45.5771C44.287 45.5787 44.2782 45.5799 44.2721 45.5808C44.2691 45.5812 44.2667 45.5815 44.2651 45.5818C44.2643 45.5819 44.2636 45.582 44.2631 45.5821C44.2629 45.5821 44.2627 45.5821 44.2626 45.5822C44.2625 45.5822 44.2624 45.5822 44.2624 45.5822C44.2623 45.5822 44.2623 45.5822 44.2919 45.78ZM48.2114 46.6224C48.3741 46.7828 48.5586 47.0474 48.7628 47.4023C48.9654 47.7542 49.1804 48.1823 49.4067 48.6606C49.6329 49.1385 49.8688 49.6629 50.1136 50.2071C50.3581 50.7505 50.6113 51.3133 50.8709 51.8651C51.389 52.9663 51.9378 54.0353 52.5032 54.8309C52.786 55.2287 53.0786 55.5665 53.3806 55.8066C53.6823 56.0463 54.008 56.2 54.3519 56.2V55.8C54.1308 55.8 53.8909 55.7012 53.6295 55.4934C53.3685 55.286 53.1009 54.9813 52.8293 54.5991C52.286 53.8347 51.7498 52.7937 51.2328 51.6949C50.9749 51.1467 50.7231 50.587 50.4784 50.0429C50.234 49.4996 49.9964 48.9715 49.7683 48.4894C49.5402 48.0077 49.3199 47.5683 49.1095 47.2027C48.9008 46.8401 48.6946 46.5372 48.4923 46.3376L48.2114 46.6224ZM54.5034 56.1306L55.5034 54.9706L55.2004 54.7094L54.2004 55.8694L54.5034 56.1306ZM55.3519 54.64C55.2076 54.64 55.0151 54.5389 54.7728 54.2744C54.5371 54.0171 54.2871 53.6413 54.0259 53.1764C53.5041 52.2477 52.9602 51.0054 52.4127 49.75C51.8679 48.5008 51.3193 47.2382 50.7934 46.2887C50.5307 45.8144 50.268 45.4077 50.0078 45.1171C49.755 44.8349 49.4674 44.62 49.1519 44.62V45.02C49.2864 45.02 49.4718 45.1182 49.7098 45.384C49.9403 45.6413 50.1859 46.0174 50.4435 46.4825C50.9582 47.4118 51.4984 48.6542 52.0461 49.91C52.591 51.1596 53.1434 52.4223 53.6772 53.3723C53.9438 53.8469 54.2115 54.2538 54.4778 54.5445C54.7374 54.828 55.0311 55.04 55.3519 55.04V54.64ZM72.7086 48L72.9083 47.9889L72.8978 47.8H72.7086V48ZM65.5686 48V47.8H65.3686V48H65.5686ZM65.5686 49.1H65.3686V49.3028L65.5714 49.3L65.5686 49.1ZM71.2486 49.34H71.0482L71.049 49.3526L71.2486 49.34ZM69.8086 54.2L69.7405 54.012L69.7401 54.0121L69.8086 54.2ZM62.3486 35.28L62.2743 35.0943L62.2736 35.0946L62.3486 35.28ZM69.8686 38.64L69.7016 38.75L69.7608 38.84H69.8686V38.64ZM72.3686 38.64V38.84H72.6822L72.5499 38.5556L72.3686 38.64ZM64.4286 33.8L64.4477 33.9991L64.4554 33.9983L64.4631 33.997L64.4286 33.8ZM72.6686 49.7L72.4711 49.6682L72.4699 49.6756L72.4693 49.6832L72.6686 49.7ZM72.7086 47.8H65.5686V48.2H72.7086V47.8ZM65.3686 48V49.1H65.7686V48H65.3686ZM65.5686 49.1C65.5714 49.3 65.5714 49.3 65.5715 49.3C65.5715 49.3 65.5716 49.3 65.5716 49.3C65.5718 49.3 65.5721 49.3 65.5724 49.3C65.5731 49.3 65.5741 49.2999 65.5754 49.2999C65.5781 49.2999 65.5822 49.2998 65.5875 49.2998C65.5982 49.2996 65.6141 49.2994 65.6348 49.2992C65.6763 49.2987 65.7372 49.298 65.8147 49.2972C65.9697 49.2956 66.1912 49.2937 66.457 49.2925C66.9888 49.29 67.6975 49.29 68.4058 49.3C69.1149 49.31 69.8204 49.3299 70.347 49.367C70.6115 49.3856 70.8244 49.4082 70.9685 49.4345C71.0423 49.448 71.087 49.4607 71.1092 49.4697C71.1211 49.4746 71.1146 49.4737 71.102 49.4629C71.0894 49.4521 71.0486 49.4112 71.0486 49.34H71.4486C71.4486 49.2488 71.3967 49.1887 71.3626 49.1595C71.3285 49.1301 71.2901 49.1116 71.2604 49.0994C71.1994 49.0745 71.1221 49.056 71.0406 49.0411C70.874 49.0106 70.6431 48.9869 70.3751 48.968C69.8368 48.9301 69.1223 48.91 68.4114 48.9C67.6997 48.89 66.9884 48.89 66.4552 48.8925C66.1885 48.8938 65.9663 48.8956 65.8106 48.8972C65.7328 48.898 65.6717 48.8987 65.6299 48.8992C65.6091 48.8994 65.5931 48.8997 65.5823 48.8998C65.5769 48.8999 65.5727 48.8999 65.57 48.9C65.5686 48.9 65.5676 48.9 65.5669 48.9C65.5665 48.9 65.5662 48.9 65.5661 48.9C65.566 48.9 65.5659 48.9 65.5659 48.9C65.5658 48.9 65.5658 48.9 65.5686 49.1ZM71.049 49.3526C71.1389 50.7817 71.1212 51.843 70.9202 52.6039C70.7234 53.3489 70.3568 53.7887 69.7405 54.012L69.8767 54.388C70.6404 54.1113 71.0838 53.5511 71.307 52.7061C71.526 51.877 71.5383 50.7583 71.4482 49.3274L71.049 49.3526ZM69.7401 54.0121C67.8399 54.7044 66.0276 54.0958 64.4584 52.7056C62.8854 51.3121 61.5779 49.1475 60.7241 46.7943C59.8705 44.4416 59.4785 41.9226 59.7164 39.831C59.9546 37.7363 60.8158 36.1161 62.4236 35.4654L62.2736 35.0946C60.4714 35.8239 59.5651 37.6212 59.3189 39.7858C59.0724 41.9537 59.4792 44.5359 60.3481 46.9307C61.2168 49.325 62.5555 51.5542 64.1932 53.005C65.8346 54.4592 67.7973 55.1456 69.8771 54.3879L69.7401 54.0121ZM62.4229 35.4657C63.1838 35.1613 64.3518 34.9956 65.6522 35.3961C66.9493 35.7956 68.3934 36.7632 69.7016 38.75L70.0356 38.53C68.6838 36.4768 67.1679 35.4444 65.77 35.0139C64.3754 34.5844 63.1134 34.7587 62.2743 35.0943L62.4229 35.4657ZM69.8686 38.84H72.3686V38.44H69.8686V38.84ZM72.5499 38.5556C71.1836 35.619 69.1503 34.3731 67.4505 33.8683C66.6037 33.6168 65.8432 33.5501 65.2937 33.5463C65.0188 33.5443 64.7962 33.5581 64.6413 33.5726C64.5638 33.5798 64.5032 33.5872 64.4613 33.5929C64.4404 33.5957 64.4242 33.5982 64.4129 33.5999C64.4073 33.6008 64.4029 33.6015 64.3997 33.602C64.3982 33.6023 64.3969 33.6025 64.396 33.6027C64.3955 33.6028 64.3951 33.6028 64.3948 33.6029C64.3947 33.6029 64.3945 33.6029 64.3944 33.6029C64.3943 33.603 64.3941 33.603 64.4286 33.8C64.4631 33.997 64.463 33.997 64.4629 33.997L64.4628 33.997C64.4629 33.997 64.463 33.997 64.4631 33.997C64.4635 33.9969 64.4641 33.9968 64.4651 33.9967C64.467 33.9963 64.4702 33.9958 64.4746 33.9951C64.4834 33.9938 64.497 33.9917 64.5153 33.9892C64.5518 33.9843 64.6068 33.9775 64.6784 33.9709C64.8216 33.9575 65.0308 33.9444 65.2909 33.9462C65.8115 33.9499 66.5334 34.0132 67.3367 34.2517C68.9369 34.7269 70.8736 35.901 72.1873 38.7244L72.5499 38.5556ZM64.4286 33.8C64.4095 33.6009 64.4093 33.6009 64.4091 33.6009C64.4091 33.601 64.4089 33.601 64.4087 33.601C64.4083 33.601 64.4078 33.6011 64.4072 33.6011C64.4061 33.6013 64.4046 33.6014 64.4027 33.6016C64.3988 33.602 64.3935 33.6026 64.3866 33.6034C64.3729 33.605 64.3532 33.6075 64.328 33.6111C64.2775 33.6183 64.2048 33.6298 64.1129 33.6476C63.9293 33.6832 63.669 33.744 63.3575 33.8451C62.7348 34.0472 61.9052 34.4113 61.0754 35.0599C59.4076 36.3637 57.7686 38.7942 57.7686 43.28H58.1686C58.1686 38.9058 59.7596 36.5963 61.3218 35.3751C62.107 34.7612 62.8924 34.4166 63.481 34.2255C63.7751 34.1301 64.0194 34.0732 64.1891 34.0403C64.2739 34.0238 64.3399 34.0134 64.3841 34.0071C64.4062 34.004 64.4228 34.0019 64.4335 34.0007C64.4389 34 64.4428 33.9996 64.4452 33.9994C64.4464 33.9992 64.4472 33.9991 64.4476 33.9991C64.4478 33.9991 64.4479 33.9991 64.4479 33.9991C64.4479 33.9991 64.4479 33.9991 64.4479 33.9991C64.4478 33.9991 64.4477 33.9991 64.4286 33.8ZM57.7686 43.28C57.7686 52.1877 63.2567 56.2 67.3286 56.2V55.8C63.5205 55.8 58.1686 52.0122 58.1686 43.28H57.7686ZM67.3286 56.2C68.3998 56.2 69.6814 55.8568 70.7497 54.864C71.8195 53.8699 72.6548 52.2438 72.8679 49.7168L72.4693 49.6832C72.2624 52.1362 71.4577 53.6601 70.4774 54.571C69.4958 55.4832 68.3174 55.8 67.3286 55.8V56.2ZM72.866 49.7318C72.9189 49.4041 72.9286 48.9647 72.9261 48.6161C72.9248 48.4399 72.9204 48.2835 72.9163 48.1711C72.9142 48.1149 72.9122 48.0696 72.9108 48.0382C72.91 48.0225 72.9094 48.0103 72.909 48.002C72.9088 47.9978 72.9086 47.9946 72.9085 47.9924C72.9084 47.9913 72.9084 47.9905 72.9083 47.9899C72.9083 47.9896 72.9083 47.9894 72.9083 47.9892C72.9083 47.9891 72.9083 47.9891 72.9083 47.989C72.9083 47.989 72.9083 47.989 72.9083 47.9889C72.9083 47.9889 72.9083 47.9889 72.7086 48C72.5089 48.0111 72.5089 48.0111 72.5089 48.0111C72.5089 48.0111 72.5089 48.0111 72.5089 48.0111C72.5089 48.0111 72.5089 48.0111 72.5089 48.0112C72.5089 48.0113 72.5089 48.0115 72.5089 48.0117C72.509 48.0121 72.509 48.0129 72.509 48.0138C72.5092 48.0157 72.5093 48.0187 72.5095 48.0226C72.5099 48.0303 72.5105 48.042 72.5112 48.057C72.5126 48.0871 72.5145 48.1311 72.5165 48.1858C72.5206 48.2952 72.5249 48.4476 72.5261 48.6189C72.5286 48.9653 72.5183 49.3759 72.4711 49.6682L72.866 49.7318ZM80.1619 56V56.2H80.3619V56H80.1619ZM80.1619 33.8H80.3619V33.6H80.1619V33.8ZM78.2819 33.8V33.6H78.0819V33.8H78.2819ZM78.2819 56H78.0819V56.2H78.2819V56ZM80.3619 56V33.8H79.9619V56H80.3619ZM80.1619 33.6H78.2819V34H80.1619V33.6ZM78.0819 33.8V56H78.4819V33.8H78.0819ZM78.2819 56.2H80.1619V55.8H78.2819V56.2ZM95.4767 33.8V33.6H95.2777L95.2767 33.799L95.4767 33.8ZM95.3767 53.12L95.193 53.1991L95.5767 53.121L95.3767 53.12ZM87.0567 33.8L87.2404 33.7209L87.1883 33.6H87.0567V33.8ZM85.4167 33.8V33.6H85.2167V33.8H85.4167ZM85.4167 56H85.2167V56.2H85.4167V56ZM86.4167 56V56.2H86.6167V56H86.4167ZM86.4167 38.22L86.5998 38.1395L86.2167 38.22H86.4167ZM94.2367 56L94.0536 56.0805L94.1397 56.2762L94.3292 56.1773L94.2367 56ZM96.5367 54.8L96.6292 54.9773L96.7367 54.9212V54.8H96.5367ZM96.5367 33.8H96.7367V33.6H96.5367V33.8ZM95.2767 33.799L95.1767 53.119L95.5767 53.121L95.6767 33.801L95.2767 33.799ZM95.5604 53.0409L87.2404 33.7209L86.873 33.8791L95.193 53.1991L95.5604 53.0409ZM87.0567 33.6H85.4167V34H87.0567V33.6ZM85.2167 33.8V56H85.6167V33.8H85.2167ZM85.4167 56.2H86.4167V55.8H85.4167V56.2ZM86.6167 56V38.22H86.2167V56H86.6167ZM86.2336 38.3005L94.0536 56.0805L94.4198 55.9195L86.5998 38.1395L86.2336 38.3005ZM94.3292 56.1773L96.6292 54.9773L96.4442 54.6227L94.1442 55.8227L94.3292 56.1773ZM96.7367 54.8V33.8H96.3367V54.8H96.7367ZM96.5367 33.6H95.4767V34H96.5367V33.6Z" />
</svg>
