<svg width="14" height="89" viewBox="0 0 14 89" fill="black" xmlns="http://www.w3.org/2000/svg">
  <path d="M11.11 81.3012C12.55 85.2712 3.03 88.4413 1.65 85.0312C1.32 84.2313 1.31 82.5912 3.32 81.2712L3.32 80.0212C0.439999 81.3613 0.9 83.9912 0.9 83.9912C0.9 83.9912 1.22 87.2113 5.65 87.2112C10.06 87.2112 12 84.5012 12 82.5312C12 81.4812 11.32 80.0012 8.68 79.8512L8.68 80.5712C10.11 80.4912 10.86 80.6112 11.11 81.3012ZM11.05 72.3174C13.95 76.0274 2.87 79.9674 1.43 75.7274C0.769999 73.7974 3.14 72.3074 3.66 72.0374C6.16 70.7074 9.97 70.9474 11.05 72.3174ZM2.85 71.0774C0.759999 72.2674 0.759999 74.1874 0.759999 74.1874C0.759999 74.1874 0.269999 77.4574 4.66 78.2274C9.02 78.9974 11.93 76.3674 12.11 74.5974C12.17 74.0374 12.08 73.3274 11.75 72.7274C11.75 72.7274 11.06 71.3174 9.23 70.6674C6.59 69.7474 4.17 70.3274 2.85 71.0774ZM0.899999 60.1806L10.41 63.6906L0.899999 67.2406L0.899999 68.2806L12 68.2806L12 67.7406L3.01 67.7406L12 64.2406L11.74 63.5606L2.75 60.2306L12 60.2806L12 59.6906L0.899999 59.6906L0.899999 60.1806ZM6.56 54.5894C6.6 54.9994 6.55 55.9494 6.53 55.9494L1.25 55.9494L1.25 55.0494C1.25 52.9494 2.66 52.2794 3.9 52.2794C5.97 52.2794 6.51 54.0294 6.56 54.5894ZM0.899998 53.8694L0.899998 56.8994L12 56.8994L12 55.9494L7.25 55.9494C7.25 55.9494 7.21 55.7294 7.2 55.6194C6.96 53.6594 6.18 52.8994 5.91 52.6094C5.91 52.6094 4.89 51.5694 3.23 51.5794C1.98 51.5894 0.899998 52.5194 0.899998 53.8694ZM11.05 44.3291C13.95 48.0391 2.87 51.9791 1.43 47.7391C0.769998 45.8091 3.14 44.3191 3.66 44.0491C6.16 42.7191 9.97 42.9591 11.05 44.3291ZM2.85 43.0891C0.759997 44.2791 0.759997 46.1991 0.759997 46.1991C0.759997 46.1991 0.269997 49.4691 4.66 50.2391C9.02 51.0091 11.93 48.3791 12.11 46.6091C12.17 46.0491 12.08 45.3391 11.75 44.7391C11.75 44.7391 11.06 43.3291 9.23 42.6791C6.59 41.7591 4.17 42.3391 2.85 43.0891ZM0.899997 34.9823L10.56 35.0323L0.899998 39.1923L0.899998 40.0123L12 40.0123L12 39.5123L3.11 39.5123L12 35.6023L11.4 34.4523L0.899997 34.4523L0.899997 34.9823ZM11.56 30.7052L6.79 30.7052L6.79 26.7952L6.36 26.7952L6.36 30.7052L1.36 30.7052L1.36 25.4052L0.899997 25.4052L0.899997 31.7852L11.33 31.7852L12 30.7052L12 25.3652L11.56 25.3652L11.56 30.7052ZM0.899997 18.5956L10.56 18.6456L0.899997 22.8056L0.899997 23.6256L12 23.6256L12 23.1256L3.11 23.1256L12 19.2156L11.4 18.0656L0.899997 18.0656L0.899997 18.5956ZM0.899996 8.81852L0.899997 16.8185L1.44 16.8185L1.44 13.3185L11.34 13.3185L12 12.3185L1.44 12.3185L1.44 8.82852C1.27 8.81852 1.07 8.81852 0.899996 8.81852ZM0.899996 3.68641C0.899996 6.36641 3.04 7.50641 5.07 7.42641C7.38 7.32641 5.15 2.49641 6.07 1.53641C7.32 0.246406 11.71 2.63641 11.71 3.70641C11.71 6.20641 9.25 6.21641 9.25 6.21641L9.25 7.36641C9.59 7.36641 12 7.29641 12 4.04641C12 2.16641 9.67 0.0064057 7.36 0.0064058C4.25 0.00640594 6.22 5.97641 4.68 6.27641C3.19 6.57641 1.36 5.93641 1.36 4.68641C1.36 2.39641 3.14 2.03641 3.14 2.03641L3.14 0.686406C2.72 0.766406 0.899996 1.68641 0.899996 3.68641Z" />
  <path d="M11.11 81.3012L11.016 81.3353L11.016 81.3353L11.11 81.3012ZM1.65 85.0312L1.7427 84.9937L1.74244 84.9931L1.65 85.0312ZM3.32 81.2712L3.37489 81.3548L3.42 81.3252L3.42 81.2712L3.32 81.2712ZM3.32 80.0212L3.42 80.0212L3.42 79.8644L3.27781 79.9306L3.32 80.0212ZM0.9 83.9912L0.999783 83.9813L0.998504 83.974L0.9 83.9912ZM8.68 79.8512L8.68567 79.7514L8.58 79.7454L8.58 79.8512L8.68 79.8512ZM8.68 80.5712L8.58 80.5712L8.58 80.677L8.68559 80.6711L8.68 80.5712ZM11.016 81.3353C11.3597 82.2829 11.0543 83.1878 10.3586 83.9721C9.66136 84.7582 8.57932 85.4122 7.40333 85.8398C6.2276 86.2672 4.96903 86.4641 3.92405 86.3459C2.87749 86.2276 2.06802 85.7976 1.7427 84.9937L1.5573 85.0688C1.92197 85.9699 2.82001 86.4224 3.90158 86.5447C4.98472 86.6671 6.2749 86.4628 7.47167 86.0277C8.66818 85.5928 9.78239 84.9231 10.5082 84.1048C11.2357 83.2847 11.5803 82.3046 11.204 81.2672L11.016 81.3353ZM1.74244 84.9931C1.43066 84.2373 1.40512 82.6484 3.37489 81.3548L3.26511 81.1877C1.21488 82.5341 1.20934 84.2252 1.55756 85.0694L1.74244 84.9931ZM3.42 81.2712L3.42 80.0212L3.22 80.0212L3.22 81.2712L3.42 81.2712ZM3.27781 79.9306C1.80949 80.6138 1.18652 81.6304 0.934137 82.4803C0.808403 82.9037 0.775053 83.284 0.773127 83.5587C0.772164 83.6961 0.779064 83.8074 0.786291 83.8849C0.789906 83.9237 0.793605 83.954 0.79645 83.9749C0.797873 83.9853 0.799083 83.9934 0.799962 83.9991C0.800402 84.0019 0.80076 84.0041 0.80102 84.0057C0.80115 84.0065 0.801256 84.0071 0.801336 84.0076C0.801376 84.0078 0.801409 84.008 0.801436 84.0081C0.801449 84.0082 0.801464 84.0083 0.801471 84.0083C0.801484 84.0084 0.801495 84.0085 0.9 83.9912C0.998504 83.974 0.998512 83.9741 0.998518 83.9741C0.998518 83.9741 0.998523 83.9741 0.998522 83.9741C0.998521 83.9741 0.998513 83.9741 0.998499 83.974C0.99847 83.9738 0.998415 83.9735 0.998334 83.973C0.998175 83.972 0.997916 83.9705 0.997573 83.9683C0.996888 83.9639 0.995867 83.957 0.994623 83.9479C0.992137 83.9296 0.988765 83.9021 0.985427 83.8663C0.978747 83.7947 0.972211 83.6901 0.973122 83.5601C0.974946 83.2998 1.0066 82.9388 1.12586 82.5372C1.36347 81.7371 1.95051 80.7687 3.36218 80.1119L3.27781 79.9306ZM0.9 83.9912C0.80049 84.0011 0.800498 84.0012 0.800507 84.0013C0.800511 84.0014 0.800522 84.0015 0.800531 84.0016C0.80055 84.0017 0.800575 84.002 0.800605 84.0023C0.800664 84.0028 0.800746 84.0036 0.800851 84.0045C0.801062 84.0065 0.801368 84.0091 0.801784 84.0126C0.802615 84.0194 0.803886 84.0292 0.805713 84.0418C0.809367 84.0669 0.81525 84.1032 0.8243 84.149C0.842394 84.2405 0.873183 84.3703 0.924218 84.5256C1.02624 84.836 1.20958 85.2495 1.53518 85.6631C2.18959 86.4943 3.4072 87.3112 5.65 87.3112L5.65 87.1112C3.4628 87.1113 2.30541 86.3182 1.69232 85.5394C1.38417 85.148 1.21064 84.7565 1.11422 84.4632C1.06603 84.3166 1.03721 84.1948 1.0205 84.1102C1.01215 84.068 1.00683 84.035 1.00364 84.013C1.00204 84.002 1.00097 83.9938 1.00032 83.9884C0.999997 83.9857 0.999776 83.9838 0.999646 83.9826C0.99958 83.982 0.999537 83.9816 0.999515 83.9814C0.999504 83.9813 0.999498 83.9813 0.999498 83.9812C0.999497 83.9812 0.9995 83.9813 0.9995 83.9813C0.999504 83.9813 0.999509 83.9814 0.9 83.9912ZM5.65 87.3112C10.1041 87.3112 12.1 84.567 12.1 82.5312L11.9 82.5312C11.9 84.4355 10.0159 87.1112 5.65 87.1112L5.65 87.3112ZM12.1 82.5312C12.1 81.9855 11.9233 81.3265 11.4021 80.7844C10.8803 80.2418 10.0239 79.8274 8.68567 79.7514L8.67433 79.9511C9.97608 80.0251 10.7797 80.4257 11.2579 80.9231C11.7367 81.421 11.9 82.027 11.9 82.5312L12.1 82.5312ZM8.58 79.8512L8.58 80.5712L8.78 80.5712L8.78 79.8512L8.58 79.8512ZM8.68559 80.6711C9.40027 80.6311 9.93104 80.6424 10.3117 80.7441C10.6844 80.8437 10.9043 81.0272 11.016 81.3353L11.204 81.2672C11.0657 80.8853 10.7856 80.6638 10.3633 80.5509C9.94896 80.4401 9.38973 80.4314 8.67441 80.4714L8.68559 80.6711ZM11.05 72.3174L11.1288 72.2558L11.1285 72.2555L11.05 72.3174ZM1.43 75.7274L1.52469 75.6953L1.52462 75.6951L1.43 75.7274ZM3.66 72.0374L3.70608 72.1262L3.70697 72.1257L3.66 72.0374ZM2.85 71.0774L2.8006 70.9905L2.80052 70.9905L2.85 71.0774ZM0.759999 74.1874L0.858894 74.2022L0.859999 74.1949L0.859999 74.1874L0.759999 74.1874ZM4.66 78.2274L4.67739 78.1289L4.67728 78.1289L4.66 78.2274ZM12.11 74.5974L12.0106 74.5868L12.0105 74.5873L12.11 74.5974ZM11.75 72.7274L11.6601 72.7714L11.6624 72.7756L11.75 72.7274ZM9.23 70.6674L9.26347 70.5732L9.26291 70.573L9.23 70.6674ZM10.9712 72.379C11.3208 72.8262 11.455 73.2699 11.4285 73.6968C11.4019 74.1255 11.2123 74.5483 10.8944 74.9495C10.257 75.7541 9.1182 76.4535 7.83404 76.9094C6.55108 77.365 5.13833 77.5721 3.96242 77.4061C2.78663 77.24 1.86782 76.7056 1.52469 75.6953L1.33531 75.7596C1.71217 76.8692 2.71837 77.4323 3.93445 77.6041C5.15042 77.7758 6.59642 77.5611 7.90096 77.0979C9.2043 76.6351 10.3817 75.9188 11.0512 75.0737C11.3867 74.6502 11.5983 74.1896 11.6281 73.7092C11.6581 73.2271 11.5042 72.7361 11.1288 72.2558L10.9712 72.379ZM1.52462 75.6951C1.21169 74.78 1.61249 73.9623 2.17727 73.3263C2.74154 72.6909 3.45278 72.2577 3.70608 72.1262L3.61392 71.9487C3.34721 72.0872 2.61346 72.5339 2.02773 73.1935C1.44251 73.8525 0.988304 74.7448 1.33538 75.7598L1.52462 75.6951ZM3.70697 72.1257C4.93804 71.4708 6.49695 71.2005 7.88286 71.2648C8.57524 71.297 9.22084 71.4125 9.75783 71.6029C10.2961 71.7938 10.7175 72.0571 10.9715 72.3793L11.1285 72.2555C10.8425 71.8927 10.3826 71.6123 9.82467 71.4144C9.26541 71.2161 8.59976 71.0979 7.89214 71.065C6.47804 70.9994 4.88196 71.2741 3.61303 71.9491L3.70697 72.1257ZM2.80052 70.9905C1.73372 71.5979 1.19748 72.3939 0.928903 73.0403C0.794844 73.3629 0.727666 73.6477 0.69398 73.8526C0.677131 73.9551 0.668638 74.0377 0.664357 74.0952C0.662216 74.1239 0.661126 74.1464 0.660572 74.162C0.660295 74.1698 0.660152 74.1759 0.660077 74.1801C0.66004 74.1823 0.660021 74.1839 0.66001 74.1852C0.660005 74.1858 0.660002 74.1863 0.660001 74.1866C0.66 74.1868 0.659999 74.187 0.659999 74.1871C0.659999 74.1872 0.659999 74.1873 0.659999 74.1873C0.659999 74.1874 0.659999 74.1874 0.759999 74.1874C0.859999 74.1874 0.859999 74.1875 0.859999 74.1875C0.859999 74.1875 0.859999 74.1875 0.859999 74.1875C0.859999 74.1876 0.859999 74.1875 0.859999 74.1875C0.859999 74.1874 0.86 74.1872 0.860003 74.1869C0.860008 74.1862 0.86002 74.1852 0.860047 74.1836C0.860101 74.1805 0.860213 74.1757 0.860446 74.1691C0.860912 74.156 0.861864 74.1361 0.863805 74.11C0.867687 74.0579 0.875523 73.9812 0.89133 73.8851C0.922956 73.6927 0.986403 73.4232 1.11359 73.117C1.36752 72.5059 1.87627 71.7469 2.89948 71.1643L2.80052 70.9905ZM0.759999 74.1874C0.661103 74.1726 0.661091 74.1727 0.661078 74.1728C0.661071 74.1728 0.661056 74.1729 0.661042 74.173C0.661014 74.1732 0.66098 74.1734 0.660938 74.1737C0.660856 74.1743 0.660746 74.1751 0.660612 74.176C0.660343 74.178 0.659977 74.1807 0.659533 74.1842C0.658645 74.1911 0.657448 74.2011 0.656107 74.214C0.653425 74.2397 0.650166 74.2769 0.647659 74.3241C0.642645 74.4186 0.640623 74.5535 0.652282 74.7175C0.675583 75.0451 0.75366 75.4905 0.973124 75.9609C1.41479 76.9077 2.41951 77.936 4.64272 78.3259L4.67728 78.1289C2.51049 77.7489 1.56521 76.7571 1.15437 75.8764C0.947587 75.4331 0.873789 75.0128 0.851778 74.7033C0.84078 74.5486 0.842743 74.4221 0.847378 74.3347C0.849694 74.2911 0.852676 74.2573 0.855028 74.2347C0.856204 74.2234 0.857223 74.215 0.857921 74.2095C0.858271 74.2068 0.85854 74.2048 0.858709 74.2036C0.858793 74.2029 0.858853 74.2025 0.858885 74.2023C0.8589 74.2022 0.858909 74.2021 0.858911 74.2021C0.858912 74.2021 0.858908 74.2022 0.858908 74.2021C0.858902 74.2022 0.858894 74.2022 0.759999 74.1874ZM4.64261 78.3259C6.84647 78.7151 8.68853 78.2455 10.0042 77.4505C11.3145 76.6588 12.1151 75.5352 12.2095 74.6075L12.0105 74.5873C11.9249 75.4296 11.1805 76.5061 9.90078 77.2793C8.62647 78.0493 6.83352 78.5097 4.67739 78.1289L4.64261 78.3259ZM12.2094 74.6081C12.2712 74.0314 12.1791 73.3002 11.8376 72.6792L11.6624 72.7756C11.9809 73.3547 12.0688 74.0435 12.0106 74.5868L12.2094 74.6081ZM11.75 72.7274C11.8398 72.6835 11.8398 72.6834 11.8398 72.6834C11.8398 72.6834 11.8397 72.6833 11.8397 72.6833C11.8397 72.6832 11.8396 72.683 11.8395 72.6829C11.8394 72.6826 11.8392 72.6823 11.839 72.6818C11.8386 72.6809 11.838 72.6797 11.8372 72.6782C11.8356 72.6751 11.8333 72.6706 11.8304 72.665C11.8244 72.6536 11.8156 72.6373 11.8039 72.6165C11.7804 72.5748 11.7452 72.5153 11.6972 72.4421C11.6014 72.2958 11.4546 72.0948 11.2497 71.8733C10.8398 71.4302 10.1967 70.9047 9.26347 70.5732L9.19653 70.7617C10.0933 71.0802 10.7102 71.5847 11.1028 72.0091C11.2992 72.2213 11.4393 72.4134 11.53 72.5518C11.5753 72.6209 11.6082 72.6766 11.6297 72.7147C11.6404 72.7337 11.6482 72.7483 11.6532 72.7579C11.6558 72.7627 11.6576 72.7663 11.6588 72.7685C11.6593 72.7697 11.6597 72.7705 11.66 72.771C11.6601 72.7712 11.6602 72.7714 11.6602 72.7714C11.6602 72.7715 11.6602 72.7715 11.6602 72.7715C11.6602 72.7715 11.6602 72.7714 11.6602 72.7714C11.6602 72.7714 11.6602 72.7714 11.75 72.7274ZM9.26291 70.573C6.59279 69.6425 4.14289 70.2278 2.8006 70.9905L2.8994 71.1644C4.19711 70.427 6.5872 69.8523 9.19709 70.7619L9.26291 70.573ZM0.899999 60.1806L0.799999 60.1806L0.799999 60.2503L0.865373 60.2744L0.899999 60.1806ZM10.41 63.6906L10.445 63.7843L10.6974 63.6901L10.4446 63.5968L10.41 63.6906ZM0.899999 67.2406L0.865027 67.1469L0.799999 67.1712L0.799999 67.2406L0.899999 67.2406ZM0.899999 68.2806L0.799999 68.2806L0.799999 68.3806L0.899999 68.3806L0.899999 68.2806ZM12 68.2806L12 68.3806L12.1 68.3806L12.1 68.2806L12 68.2806ZM12 67.7406L12.1 67.7406L12.1 67.6406L12 67.6406L12 67.7406ZM3.01 67.7406L2.97372 67.6474L3.01 67.8406L3.01 67.7406ZM12 64.2406L12.0363 64.3338L12.1289 64.2978L12.0934 64.2049L12 64.2406ZM11.74 63.5606L11.8334 63.5249L11.8172 63.4826L11.7747 63.4669L11.74 63.5606ZM2.75 60.2306L2.75054 60.1306L2.71526 60.3244L2.75 60.2306ZM12 60.2806L11.9995 60.3806L12.1 60.3812L12.1 60.2806L12 60.2806ZM12 59.6906L12.1 59.6906L12.1 59.5906L12 59.5906L12 59.6906ZM0.899999 59.6906L0.899999 59.5906L0.799999 59.5906L0.799999 59.6906L0.899999 59.6906ZM0.865373 60.2744L10.3754 63.7844L10.4446 63.5968L0.934624 
  60.0868L0.865373 60.2744ZM10.375 63.5969L0.865027 67.1469L0.934971 67.3343L10.445 63.7843L10.375 63.5969ZM0.799999 67.2406L0.799999 68.2806L0.999999 68.2806L0.999999 67.2406L0.799999 67.2406ZM0.899999 68.3806L12 68.3806L12 68.1806L0.899999 68.1806L0.899999 68.3806ZM12.1 68.2806L12.1 67.7406L11.9 67.7406L11.9 68.2806L12.1 68.2806ZM12 67.6406L3.01 67.6406L3.01 67.8406L12 67.8406L12 67.6406ZM3.04628 67.8338L12.0363 64.3338L11.9637 64.1474L2.97372 67.6474L3.04628 67.8338ZM12.0934 64.2049L11.8334 63.5249L11.6466 63.5963L11.9066 64.2763L12.0934 64.2049ZM11.7747 63.4669L2.78473 60.1369L2.71526 60.3244L11.7053 63.6544L11.7747 63.4669ZM2.74946 60.3306L11.9995 60.3806L12.0005 60.1806L2.75054 60.1306L2.74946 60.3306ZM12.1 60.2806L12.1 59.6906L11.9 59.6906L11.9 60.2806L12.1 60.2806ZM12 59.5906L0.899999 59.5906L0.899999 59.7906L12 59.7906L12 59.5906ZM0.799999 59.6906L0.799999 60.1806L0.999999 60.1806L0.999998 59.6906L0.799999 59.6906ZM6.56 54.5894L6.46039 54.5983L6.46047 54.5991L6.56 54.5894ZM1.25 55.9494L1.15 55.9494L1.15 56.0494L1.25 56.0494L1.25 55.9494ZM0.899998 56.8994L0.799999 56.8994L0.799999 56.9994L0.899998 56.9994L0.899998 56.8994ZM12 56.8994L12 56.9994L12.1 56.9994L12.1 56.8994L12 56.8994ZM12 55.9494L12.1 55.9494L12.1 55.8494L12 55.8494L12 55.9494ZM7.25 55.9494L7.15161 55.9673L7.16654 56.0494L7.25 56.0494L7.25 55.9494ZM7.2 55.6194L7.29964 55.6103L7.29926 55.6072L7.2 55.6194ZM5.91 52.6094L5.98321 52.5412L5.98139 52.5394L5.91 52.6094ZM3.23 51.5794L3.2294 51.4794L3.2292 51.4794L3.23 51.5794ZM6.46047 54.5991C6.47976 54.7968 6.47756 55.131 6.46756 55.4197C6.46259 55.5631 6.45577 55.6934 6.44901 55.7873C6.44561 55.8345 6.4423 55.8714 6.43938 55.8959C6.43786 55.9085 6.43671 55.9156 6.43613 55.9184C6.4357 55.9205 6.43623 55.9171 6.43834 55.9115C6.43917 55.9093 6.44244 55.9006 6.44954 55.8906C6.45318 55.8855 6.47895 55.8494 6.53 55.8494L6.53 56.0494C6.58167 56.0494 6.60808 56.0128 6.61238 56.0067C6.62012 55.9959 6.62407 55.9858 6.62557 55.9818C6.62904 55.9726 6.63099 55.9637 6.63201 55.9588C6.63434 55.9475 6.63627 55.9338 6.63796 55.9196C6.64144 55.8905 6.64501 55.85 6.64849 55.8017C6.65548 55.7047 6.66241 55.5719 6.66744 55.4266C6.67744 55.1378 6.68023 54.7919 6.65953 54.5797L6.46047 54.5991ZM6.53 55.8494L1.25 55.8494L1.25 56.0494L6.53 56.0494L6.53 55.8494ZM1.35 55.9494L1.35 55.0494L1.15 55.0494L1.15 55.9494L1.35 55.9494ZM1.35 55.0494C1.35 54.0237 1.6932 53.3611 2.17464 52.9532C2.65912 52.5427 3.29624 52.3794 3.9 52.3794L3.9 52.1794C3.26376 52.1794 2.57588 52.3511 2.04535 52.8006C1.5118 53.2527 1.15 53.9751 1.15 55.0494L1.35 55.0494ZM3.9 52.3794C4.90209 52.3794 5.52646 52.801 5.90896 53.2863C6.29501 53.7761 6.43682 54.3343 6.46039 54.5983L6.6596 54.5805C6.63317 54.2845 6.47998 53.6877 6.06604 53.1625C5.64853 52.6328 4.96791 52.1794 3.9 52.1794L3.9 52.3794ZM0.799998 53.8694L0.799999 56.8994L0.999998 56.8994L0.999998 53.8694L0.799998 53.8694ZM0.899998 56.9994L12 56.9994L12 56.7994L0.899998 56.7994L0.899998 56.9994ZM12.1 56.8994L12.1 55.9494L11.9 55.9494L11.9 56.8994L12.1 56.8994ZM12 55.8494L7.25 55.8494L7.25 56.0494L12 56.0494L12 55.8494ZM7.25 55.9494C7.34839 55.9315 7.34839 55.9315 7.34839 55.9315C7.34839 55.9315 7.34839 55.9315 7.34839 55.9315C7.34838 55.9315 7.34838 55.9315 7.34838 55.9315C7.34838 55.9314 7.34837 55.9314 7.34836 55.9314C7.34835 55.9313 7.34832 55.9311 7.34828 55.9309C7.34821 55.9305 7.3481 55.9299 7.34796 55.9291C7.34767 55.9275 7.34725 55.9252 7.3467 55.9221C7.34561 55.916 7.34403 55.9071 7.3421 55.8961C7.33824 55.874 7.33299 55.8434 7.32744 55.8095C7.31617 55.7406 7.30423 55.6613 7.29959 55.6103L7.10041 55.6284C7.10577 55.6874 7.11883 55.7731 7.13006 55.8418C7.13576 55.8766 7.14113 55.9079 7.14509 55.9305C7.14706 55.9418 7.14869 55.951 7.14982 55.9573C7.15039 55.9605 7.15083 55.9629 7.15113 55.9646C7.15129 55.9655 7.1514 55.9661 7.15148 55.9666C7.15152 55.9668 7.15155 55.967 7.15158 55.9671C7.15159 55.9671 7.1516 55.9672 7.1516 55.9672C7.1516 55.9672 7.15161 55.9672 7.15161 55.9672C7.15161 55.9673 7.15161 55.9673 7.15161 55.9673C7.15161 55.9673 7.15161 55.9673 7.25 55.9494ZM7.29926 55.6072C7.17781 54.6154 6.91915 53.9231 6.6539 53.44C6.38852 52.9567 6.11808 52.6861 5.98319 52.5412L5.83681 52.6775C5.97192 52.8226 6.22647 53.0771 6.47859 53.5363C6.73085 53.9957 6.98219 54.6634 7.10074 55.6315L7.29926 55.6072ZM5.91 52.6094C5.98139 52.5394 5.98136 52.5393 5.98132 52.5393C5.98131 52.5393 5.98127 52.5392 5.98123 52.5392C5.98116 52.5391 5.98108 52.539 5.98098 52.5389C5.98078 52.5387 5.98052 52.5385 5.98019 52.5381C5.97954 52.5375 5.97864 52.5366 5.9775 52.5354C5.9752 52.5332 5.97191 52.5299 5.96765 52.5258C5.95911 52.5176 5.94664 52.5057 5.93034 52.4908C5.89775 52.4611 5.84979 52.4191 5.78719 52.369C5.66206 52.2688 5.47813 52.1358 5.24132 52.0034C4.76782 51.7384 4.08085 51.4742 3.2294 51.4794L3.2306 51.6794C4.03915 51.6745 4.69217 51.9253 5.14367 52.1779C5.36937 52.3042 5.54419 52.4306 5.66218 52.5251C5.72115 52.5723 5.76584 52.6115 5.79551 52.6386C5.81034 52.6521 5.82141 52.6626 5.82863 52.6696C5.83224 52.6731 5.83488 52.6757 5.83655 52.6773C5.83738 52.6782 5.83797 52.6788 5.83831 52.6791C5.83848 52.6793 5.83859 52.6794 5.83864 52.6794C5.83867 52.6795 5.83868 52.6795 5.83867 52.6795C5.83867 52.6795 5.83865 52.6794 5.83865 52.6794C5.83863 52.6794 5.8386 52.6794 5.91 52.6094ZM3.2292 51.4794C1.93051 51.4898 0.799998 52.4584 0.799998 53.8694L0.999998 53.8694C0.999998 52.5803 2.02948 51.689 3.2308 51.6794L3.2292 51.4794ZM11.05 44.3291L11.1288 44.2676L11.1285 44.2672L11.05 44.3291ZM1.43 47.7391L1.52469 47.707L1.52462 47.7068L1.43 47.7391ZM3.66 44.0491L3.70608 44.1379L3.70696 44.1374L3.66 44.0491ZM2.85 43.0891L2.8006 43.0022L2.80052 43.0022L2.85 43.0891ZM0.759997 46.1991L0.858893 46.214L0.859997 46.2066L0.859997 46.1991L0.759997 46.1991ZM4.66 50.2391L4.67739 50.1407L4.67727 50.1406L4.66 50.2391ZM12.11 46.6091L12.0106 46.5985L12.0105 46.599L12.11 46.6091ZM11.75 44.7391L11.6601 44.7831L11.6624 44.7873L11.75 44.7391ZM9.23 42.6791L9.26347 42.5849L9.26291 42.5847L9.23 42.6791ZM10.9712 44.3907C11.3208 44.8379 11.455 45.2817 11.4285 45.7085C11.4019 46.1372 11.2123 46.56 10.8944 46.9613C10.257 47.7659 9.1182 48.4652 7.83404 48.9212C6.55108 49.3767 5.13833 49.5839 3.96242 49.4178C2.78662 49.2517 1.86782 48.7173 1.52469 47.707L1.33531 47.7713C1.71217 48.881 2.71837 49.4441 3.93445 49.6158C5.15042 49.7875 6.59641 49.5728 7.90096 49.1096C9.2043 48.6468 10.3817 47.9306 11.0512 47.0855C11.3867 46.6619 11.5983 46.2013 11.6281 45.7209C11.6581 45.2388 11.5042 44.7479 11.1288 44.2676L10.9712 44.3907ZM1.52462 47.7068C1.21169 46.7917 1.61249 45.974 2.17727 45.338C2.74154 44.7026 3.45278 44.2694 3.70608 44.1379L3.61392 43.9604C3.34721 44.0989 2.61345 44.5457 2.02772 45.2052C1.4425 45.8643 0.988303 46.7566 1.33538 47.7715L1.52462 47.7068ZM3.70696 44.1374C4.93804 43.4825 6.49695 43.2122 7.88286 43.2765C8.57524 43.3087 9.22083 43.4242 9.75783 43.6146C10.2961 43.8055 10.7175 44.0688 10.9715 44.391L11.1285 44.2672C10.8425 43.9044 10.3826 43.624 9.82467 43.4261C9.26541 43.2278 8.59976 43.1096 7.89214 43.0767C6.47804 43.0111 4.88196 43.2858 3.61303 43.9609L3.70696 44.1374ZM2.80052 43.0022C1.73372 43.6096 1.19748 44.4056 0.928902 45.052C0.794843 45.3747 0.727665 45.6595 0.693979 45.8643C0.67713 45.9668 0.668637 46.0494 0.664356 46.1069C0.662214 46.1356 0.661125 46.1581 0.660571 46.1737C0.660294 46.1815 0.66015 46.1876 0.660076 46.1919C0.660039 46.194 0.660019 46.1957 0.660009 46.1969C0.660004 46.1975 0.660001 46.198 0.659999 46.1984C0.659998 46.1986 0.659998 46.1987 0.659998 46.1988C0.659998 46.1989 0.659997 46.199 0.659997 46.199C0.659997 46.1991 0.659997 46.1991 0.759997 46.1991C0.859997 46.1991 0.859997 46.1992 0.859997 46.1992C0.859997 46.1992 0.859997 46.1993 0.859997 46.1993C0.859997 46.1993 0.859997 46.1993 0.859998 46.1992C0.859998 46.1991 0.859999 46.1989 0.860002 46.1986C0.860007 46.198 0.860019 46.1969 0.860046 46.1953C0.8601 46.1923 0.860211 46.1874 0.860445 46.1808C0.860911 46.1677 0.861862 46.1478 0.863803 46.1217C0.867686 46.0696 0.875521 45.9929 0.891329 45.8968C0.922955 45.7044 0.986402 45.4349 1.11359 45.1288C1.36752 44.5176 1.87627 43.7586 2.89948 43.176L2.80052 43.0022ZM0.759997 46.1991C0.661102 46.1843 0.66109 46.1844 0.661077 46.1845C0.66107 46.1845 0.661054 46.1846 0.661041 46.1847C0.661013 46.1849 0.660979 46.1852 0.660937 46.1854C0.660854 46.186 0.660745 46.1868 0.66061 46.1878C0.660342 46.1897 0.659975 46.1924 0.659531 46.1959C0.658644 46.2028 0.657446 46.2128 0.656106 46.2257C0.653424 46.2514 0.650165 46.2886 0.647657 46.3359C0.642644 46.4303 0.640622 46.5653 0.652281 46.7292C0.675582 47.0569 0.753659 47.5022 0.973123 47.9727C1.41479 48.9195 2.41951 49.9477 4.64272 50.3376L4.67727 50.1406C2.51049 49.7606 1.56521 48.7688 1.15437 47.8881C0.947586 47.4448 0.873788 47.0245 0.851777 46.715C0.840779 46.5604 0.842742 46.4338 0.847376 46.3465C0.849693 46.3028 0.852674 46.269 0.855027 46.2464C0.856203 46.2351 0.857221 46.2267 0.85792 46.2212C0.858269 46.2185 0.858539 46.2165 0.858708 46.2153C0.858792 46.2147 0.858851 46.2143 0.858883 46.214C0.858899 46.2139 0.858908 46.2139 0.85891 46.2138C0.858911 46.2138 0.858907 46.2139 0.858907 46.2139C0.858901 46.2139 0.858893 46.214 0.759997 46.1991ZM4.64261 50.3376C6.84647 50.7268 8.68852 50.2572 10.0042 49.4622C11.3145 48.6705 12.1151 47.5469 12.2095 46.6193L12.0105 46.599C11.9249 47.4414 11.1805 48.5178 9.90078 49.2911C8.62647 50.0611 6.83352 50.5214 4.67739 50.1407L4.64261 50.3376ZM12.2094 46.6198C12.2712 46.0431 12.1791 45.3119 11.8376 44.6909L11.6624 44.7873C11.9809 45.3664 12.0688 46.0552 12.0106 46.5985L12.2094 46.6198ZM11.75 44.7391C11.8398 44.6952 11.8398 44.6951 11.8398 44.6951C11.8398 44.6951 11.8397 44.695 11.8397 44.695C11.8397 44.6949 11.8396 44.6948 11.8395 44.6946C11.8394 44.6944 11.8392 44.694 11.839 44.6935C11.8386 44.6927 11.838 44.6914 11.8372 44.6899C11.8356 44.6868 11.8333 44.6824 11.8304 44.6767C11.8244 44.6654 11.8156 44.649 11.8039 44.6282C11.7804 44.5866 11.7452 44.527 11.6972 44.4539C11.6014 44.3076 11.4546 44.1065 11.2497 43.885C10.8398 
  43.4419 10.1967 42.9164 9.26347 42.5849L9.19653 42.7734C10.0933 43.0919 10.7102 43.5964 11.1028 44.0208C11.2992 44.233 11.4393 44.4251 11.53 44.5635C11.5753 44.6327 11.6082 44.6884 11.6297 44.7264C11.6404 44.7454 11.6482 44.76 11.6532 44.7696C11.6558 44.7744 11.6576 44.778 11.6588 44.7803C11.6593 44.7814 11.6597 44.7822 11.66 44.7827C11.6601 44.7829 11.6602 44.7831 11.6602 44.7831C11.6602 44.7832 11.6602 44.7832 11.6602 44.7832C11.6602 44.7832 11.6602 44.7832 11.6602 44.7832C11.6602 44.7831 11.6602 44.7831 11.75 44.7391ZM9.26291 42.5847C6.59279 41.6542 4.14289 42.2395 2.8006 43.0022L2.8994 43.1761C4.19711 42.4388 6.5872 41.8641 9.19709 42.7736L9.26291 42.5847ZM0.899997 34.9823L0.799998 34.9823L0.799998 35.0818L0.89948 35.0823L0.899997 34.9823ZM10.56 35.0323L10.5996 35.1242L10.5605 34.9323L10.56 35.0323ZM0.899998 39.1923L0.860445 39.1005L0.799998 39.1265L0.799998 39.1923L0.899998 39.1923ZM0.899998 40.0123L0.799998 40.0123L0.799998 40.1123L0.899998 40.1123L0.899998 40.0123ZM12 40.0123L12 40.1123L12.1 40.1123L12.1 40.0123L12 40.0123ZM12 39.5123L12.1 39.5123L12.1 39.4123L12 39.4123L12 39.5123ZM3.11 39.5123L3.06974 39.4208L3.11 39.6123L3.11 39.5123ZM12 35.6023L12.0403 35.6939L12.1381 35.6508L12.0887 35.5561L12 35.6023ZM11.4 34.4523L11.4887 34.4061L11.4606 34.3523L11.4 34.3523L11.4 34.4523ZM0.899997 34.4523L0.899997 34.3523L0.799998 34.3523L0.799998 34.4523L0.899997 34.4523ZM0.89948 35.0823L10.5595 35.1323L10.5605 34.9323L0.900515 34.8823L0.89948 35.0823ZM10.5204 34.9405L0.860445 39.1005L0.93955 39.2842L10.5996 35.1242L10.5204 34.9405ZM0.799998 39.1923L0.799998 40.0123L0.999998 40.0123L0.999998 39.1923L0.799998 39.1923ZM0.899998 40.1123L12 40.1123L12 39.9123L0.899998 39.9123L0.899998 40.1123ZM12.1 40.0123L12.1 39.5123L11.9 39.5123L11.9 40.0123L12.1 40.0123ZM12 39.4123L3.11 39.4123L3.11 39.6123L12 39.6123L12 39.4123ZM3.15026 39.6039L12.0403 35.6939L11.9597 35.5108L3.06974 39.4208L3.15026 39.6039ZM12.0887 35.5561L11.4887 34.4061L11.3113 34.4986L11.9113 35.6486L12.0887 35.5561ZM11.4 34.3523L0.899997 34.3523L0.899997 34.5523L11.4 34.5523L11.4 34.3523ZM0.799998 34.4523L0.799998 34.9823L0.999997 34.9823L0.999997 34.4523L0.799998 34.4523ZM11.56 30.7052L11.56 30.8052L11.66 30.8052L11.66 30.7052L11.56 30.7052ZM6.79 30.7052L6.69 30.7052L6.69 30.8052L6.79 30.8052L6.79 30.7052ZM6.79 26.7952L6.89 26.7952L6.89 26.6952L6.79 26.6952L6.79 26.7952ZM6.36 26.7952L6.36 26.6952L6.26 26.6952L6.26 26.7952L6.36 26.7952ZM6.36 30.7052L6.36 30.8052L6.46 30.8052L6.46 30.7052L6.36 30.7052ZM1.36 30.7052L1.26 30.7052L1.26 30.8052L1.36 30.8052L1.36 30.7052ZM1.36 25.4052L1.46 25.4052L1.46 25.3052L1.36 25.3052L1.36 25.4052ZM0.899997 25.4052L0.899997 25.3052L0.799997 25.3052L0.799997 25.4052L0.899997 25.4052ZM0.899997 31.7852L0.799997 31.7852L0.799997 31.8852L0.899997 31.8852L0.899997 31.7852ZM11.33 31.7852L11.33 31.8852L11.3856 31.8852L11.415 31.838L11.33 31.7852ZM12 30.7052L12.085 30.7579L12.1 30.7337L12.1 30.7052L12 30.7052ZM12 25.3652L12.1 25.3652L12.1 25.2652L12 25.2652L12 25.3652ZM11.56 25.3652L11.56 25.2652L11.46 25.2652L11.46 25.3652L11.56 25.3652ZM11.56 30.6052L6.79 30.6052L6.79 30.8052L11.56 30.8052L11.56 30.6052ZM6.89 30.7052L6.89 26.7952L6.69 26.7952L6.69 30.7052L6.89 30.7052ZM6.79 26.6952L6.36 26.6952L6.36 26.8952L6.79 26.8952L6.79 26.6952ZM6.26 26.7952L6.26 30.7052L6.46 30.7052L6.46 26.7952L6.26 26.7952ZM6.36 30.6052L1.36 30.6052L1.36 30.8052L6.36 30.8052L6.36 30.6052ZM1.46 30.7052L1.46 25.4052L1.26 25.4052L1.26 30.7052L1.46 30.7052ZM1.36 25.3052L0.899997 25.3052L0.899997 25.5052L1.36 25.5052L1.36 25.3052ZM0.799997 25.4052L0.799997 31.7852L0.999997 31.7852L0.999997 25.4052L0.799997 25.4052ZM0.899997 31.8852L11.33 31.8852L11.33 31.6852L0.899997 31.6852L0.899997 31.8852ZM11.415 31.838L12.085 30.7579L11.915 30.6525L11.245 31.7325L11.415 31.838ZM12.1 30.7052L12.1 25.3652L11.9 25.3652L11.9 30.7052L12.1 30.7052ZM12 25.2652L11.56 25.2652L11.56 25.4652L12 25.4652L12 25.2652ZM11.46 25.3652L11.46 30.7052L11.66 30.7052L11.66 25.3652L11.46 25.3652ZM0.899997 18.5956L0.799997 18.5956L0.799997 18.6951L0.899479 18.6956L0.899997 18.5956ZM10.56 18.6456L10.5995 18.7375L10.5605 18.5456L10.56 18.6456ZM0.899997 22.8056L0.860445 22.7138L0.799997 22.7398L0.799997 22.8056L0.899997 22.8056ZM0.899997 23.6256L0.799997 23.6256L0.799997 23.7256L0.899997 23.7256L0.899997 23.6256ZM12 23.6256L12 23.7256L12.1 23.7256L12.1 23.6256L12 23.6256ZM12 23.1256L12.1 23.1256L12.1 23.0256L12 23.0256L12 23.1256ZM3.11 23.1256L3.06974 23.0341L3.11 23.2256L3.11 23.1256ZM12 19.2156L12.0403 19.3072L12.1381 19.2641L12.0887 19.1694L12 19.2156ZM11.4 18.0656L11.4887 18.0194L11.4606 17.9656L11.4 17.9656L11.4 18.0656ZM0.899997 18.0656L0.899997 17.9656L0.799997 17.9656L0.799997 18.0656L0.899997 18.0656ZM0.899479 18.6956L10.5595 18.7456L10.5605 18.5456L0.900514 18.4956L0.899479 18.6956ZM10.5204 18.5538L0.860445 22.7138L0.939549 22.8975L10.5995 18.7375L10.5204 18.5538ZM0.799997 22.8056L0.799997 23.6256L0.999997 23.6256L0.999997 22.8056L0.799997 22.8056ZM0.899997 23.7256L12 23.7256L12 23.5256L0.899997 23.5256L0.899997 23.7256ZM12.1 23.6256L12.1 23.1256L11.9 23.1256L11.9 23.6256L12.1 23.6256ZM12 23.0256L3.11 23.0256L3.11 23.2256L12 23.2256L12 23.0256ZM3.15026 23.2172L12.0403 19.3072L11.9597 19.1241L3.06974 23.0341L3.15026 23.2172ZM12.0887 19.1694L11.4887 18.0194L11.3113 18.1119L11.9113 19.2619L12.0887 19.1694ZM11.4 17.9656L0.899997 17.9656L0.899997 18.1656L11.4 18.1656L11.4 17.9656ZM0.799997 18.0656L0.799997 18.5956L0.999997 18.5956L0.999997 18.0656L0.799997 18.0656ZM0.899996 8.81851L0.899996 8.71851L0.799996 8.71851L0.799996 8.81851L0.899996 8.81851ZM0.899997 16.8185L0.799997 16.8185L0.799997 16.9185L0.899997 16.9185L0.899997 16.8185ZM1.44 16.8185L1.44 16.9185L1.54 16.9185L1.54 16.8185L1.44 16.8185ZM1.44 13.3185L1.44 13.2185L1.34 13.2185L1.34 13.3185L1.44 13.3185ZM11.34 13.3185L11.34 13.4185L11.3938 13.4185L11.4235 13.3736L11.34 13.3185ZM12 12.3185L12.0835 12.3736L12.1858 12.2185L12 12.2185L12 12.3185ZM1.44 12.3185L1.34 12.3185L1.34 12.4185L1.44 12.4185L1.44 12.3185ZM1.44 8.82851L1.54 8.82851L1.54 8.73422L1.44587 8.72869L1.44 8.82851ZM0.799996 8.81851L0.799997 16.8185L0.999997 16.8185L0.999996 8.81851L0.799996 8.81851ZM0.899997 16.9185L1.44 16.9185L1.44 16.7185L0.899997 16.7185L0.899997 16.9185ZM1.54 16.8185L1.54 13.3185L1.34 13.3185L1.34 16.8185L1.54 16.8185ZM1.44 13.4185L11.34 13.4185L11.34 13.2185L1.44 13.2185L1.44 13.4185ZM11.4235 13.3736L12.0835 12.3736L11.9165 12.2634L11.2565 13.2634L11.4235 13.3736ZM12 12.2185L1.44 12.2185L1.44 12.4185L12 12.4185L12 12.2185ZM1.54 12.3185L1.54 8.82851L1.34 8.82851L1.34 12.3185L1.54 12.3185ZM1.44587 8.72869C1.27237 8.71848 1.06927 8.71851 0.899996 8.71851L0.899996 8.91852C1.07072 8.91852 1.26762 8.91855 1.43412 8.92834L1.44587 8.72869ZM5.07 7.42641L5.07393 7.52633L5.07432 7.52631L5.07 7.42641ZM6.07 1.53641L5.99818 1.46682L5.9978 1.46722L6.07 1.53641ZM9.25 6.21641L9.24959 6.11641L9.15 6.11681L9.15 6.21641L9.25 6.21641ZM9.25 7.36641L9.15 7.36641L9.15 7.46641L9.25 7.46641L9.25 7.36641ZM4.68 6.27641L4.66087 6.17825L4.66026 6.17838L4.68 6.27641ZM3.14 2.03641L3.15982 2.13442L3.24 2.1182L3.24 2.03641L3.14 2.03641ZM3.14 0.686409L3.24 0.686409L3.24 0.565559L3.12128 0.588173L3.14 0.686409ZM0.799996 3.68641C0.799996 5.05624 1.34846 6.0409 2.16257 6.67051C2.97352 7.29768 4.04047 7.56705 5.07393 7.52633L5.06606 7.32648C4.06952 7.36575 3.05147 7.10513 2.28492 6.51231C1.52153 5.92191 0.999996 4.99657 0.999996 3.68641L0.799996 3.68641ZM5.07432 7.52631C5.38174 7.51301 5.62277 7.42017 5.80479 7.25881C5.98565 7.09849 6.09954 6.87824 6.16794 6.62498C6.30364 6.1226 6.26741 5.46196 6.19059 4.7925C6.11261 4.11281 5.99369 3.42842 5.95019 2.84028C5.9286 2.54835 5.92653 2.28873 5.95665 2.07497C5.98698 1.85977 6.04822 1.70365 6.14219 1.6056L5.9978 1.46722C5.86177 1.60916 5.79145 1.81398 5.75861 2.04707C5.72557 2.28158 5.72874 2.55759 5.75074 2.85503C5.79442 3.44564 5.91614 4.155 5.9919 4.81531C6.06884 5.48585 6.09948 6.11147 5.97486 6.57283C5.91311 6.80144 5.81505 6.98245 5.67212 7.10915C5.53035 7.23483 5.33575 7.31481 5.06567 7.3265L5.07432 7.52631ZM6.14181 1.606C6.42217 1.31666 6.89167 1.22196 7.46853 1.28027C8.04151 1.3382 8.69654 1.5452 9.31736 1.82744C9.93776 2.1095 10.5178 2.46388 10.941 2.81178C11.1528 2.98585 11.3226 3.15611 11.4386 3.3126C11.5563 3.47139 11.61 3.60447 11.61 3.70641L11.81 3.70641C11.81 3.54084 11.7265 3.36517 11.5993 3.1935C11.4703 3.01951 11.2874 2.83759 11.068 2.65728C10.6291 2.29643 10.0335 1.93332 9.40013 1.64537C8.7672 1.35762 8.09036 1.14211 7.48865 1.08129C6.89082 1.02085 6.34282 1.11115 5.99818 1.46682L6.14181 1.606ZM11.61 3.70641C11.61 4.31423 11.4607 4.76411 11.2419 5.09853C11.0228 5.4335 10.73 5.65851 10.4344 5.8099C10.1384 5.96151 9.84125 6.03841 9.61728 6.07726C9.50553 6.09663 9.41262 6.10644 9.34806 6.11139C9.31579 6.11386 9.29065 6.11512 9.27383 6.11575C9.26542 6.11607 9.2591 6.11624 9.25501 6.11633C9.25296 6.11636 9.25148 6.11639 9.25057 6.11639C9.25011 6.1164 9.2498 6.1164 9.24964 6.11641C9.24956 6.11641 9.24951 6.11641 9.2495 6.11641C9.2495 6.11641 9.24952 6.11641 9.24952 6.11641C9.24955 6.11641 9.24959 6.11641 9.25 6.21641C9.2504 6.31641 9.25046 6.31641 9.25053 6.31641C9.25057 6.31641 9.25064 6.31641 9.25071 6.31641C9.25086 6.31641 9.25103 6.3164 9.25125 6.3164C9.25168 6.3164 9.25226 6.31639 9.25299 6.31638C9.25445 6.31637 9.25649 6.31633 9.2591 6.31628C9.26432 6.31617 9.27181 6.31598 9.28141 6.31561C9.30063 6.31488 9.32834 6.31348 9.36334 6.3108C9.43331 6.30543 9.53259 6.29493 9.65146 6.27431C9.88874 6.23315 10.2066 6.15131 10.5256 5.98791C10.845 5.8243 11.1672 5.57806 11.4093 5.20803C11.6518 4.83746 11.81 4.34858 11.81 3.70641L11.61 3.70641ZM9.15 6.21641L9.15 7.36641L9.35 7.36641L9.35 6.21641L9.15 6.21641ZM9.25 7.46641C9.42617 7.46641 10.1377 7.44871 10.8074 7.00874C11.4845 6.5639 12.1 5.70008 12.1 4.04641L11.9 4.04641C11.9 5.64273 11.3105 6.4389 10.6976 6.84158C10.0773 7.2491 9.41383 7.2664 9.25 7.2664L9.25 7.46641ZM12.1 4.04641C12.1 3.06755 11.4961 2.03252 10.6127 1.24669C9.72763 0.459381 8.54489 -0.0935976 7.36 -0.0935976L7.36 
  0.106407C8.4851 0.106407 9.62237 0.63343 10.4798 1.39613C11.3389 2.16029 11.9 3.14526 11.9 4.04641L12.1 4.04641ZM7.36 -0.0935976C6.95454 -0.0935975 6.62527 0.00395954 6.35979 0.180206C6.09484 0.356087 5.90014 0.605873 5.75599 0.899879C5.46958 1.48402 5.37581 2.25783 5.33141 3.02312C5.28643 3.79859 5.29186 4.55939 5.21197 5.15691C5.17223 5.45419 5.11254 5.69832 5.02098 5.87481C4.93098 6.04827 4.81506 6.14822 4.66087 6.17825L4.69912 6.37456C4.92993 6.3296 5.08933 6.17735 5.19851 5.96691C5.30612 5.7595 5.36949 5.488 5.41021 5.18341C5.49126 4.57717 5.48731 3.78922 5.53108 3.0347C5.57544 2.26999 5.66854 1.53254 5.93557 0.98793C6.06813 0.71756 6.24179 0.498596 6.4704 0.346825C6.69848 0.195419 6.98795 0.106407 7.36 0.106407L7.36 -0.0935976ZM4.66026 6.17838C3.93425 6.32455 3.12509 6.24113 2.50098 5.97089C1.87479 5.69975 1.46 5.25426 1.46 4.68641L1.26 4.68641C1.26 5.36855 1.7602 5.86807 2.42151 6.15442C3.08491 6.44168 3.93575 6.52826 4.69973 6.37444L4.66026 6.17838ZM1.46 4.68641C1.46 3.57143 1.89157 2.93666 2.31456 2.57902C2.52761 2.39889 2.74074 2.28724 2.90033 2.22074C2.98005 2.18753 3.04612 2.1657 3.09173 2.15228C3.11452 2.14558 3.13217 2.14098 3.14381 2.13813C3.14963 2.1367 3.15395 2.13571 3.15665 2.13511C3.15801 2.13481 3.15896 2.13461 3.15949 2.13449C3.15975 2.13444 3.15992 2.1344 3.15997 2.13439C3.16 2.13438 3.16 2.13438 3.15998 2.13439C3.15996 2.13439 3.15992 2.1344 3.15992 2.1344C3.15987 2.13441 3.15982 2.13442 3.14 2.03641C3.12017 1.93839 3.12011 1.9384 3.12003 1.93842C3.12 1.93842 3.11992 1.93844 3.11985 1.93845C3.11972 1.93848 3.11956 1.93851 3.11937 1.93855C3.119 1.93863 3.11851 1.93874 3.11792 1.93886C3.11674 1.93911 3.11514 1.93945 3.11312 1.9399C3.10909 1.9408 3.10341 1.94212 3.0962 1.94389C3.08177 1.94742 3.06117 1.9528 3.03529 1.96041C2.98356 1.97563 2.91057 1.99982 2.82341 2.03613C2.64925 2.1087 2.41738 2.23017 2.18543 2.42629C1.71842 2.82115 1.26 3.51138 1.26 4.68641L1.46 4.68641ZM3.24 2.03641L3.24 0.686409L3.04 0.686409L3.04 2.03641L3.24 2.03641ZM3.12128 0.588173C3.00125 0.611038 2.79801 0.689201 2.56391 0.820427C2.32771 0.952828 2.05371 1.14278 1.79304 1.39446C1.27112 1.89838 0.799996 2.65292 0.799996 3.68641L0.999996 3.68641C0.999996 2.71989 1.43887 2.01443 1.93196 1.53835C2.17878 1.30003 2.43853 1.11999 2.6617 0.994888C2.88698 0.868607 3.06874 0.801773 3.15871 0.784637L3.12128 0.588173Z" />
</svg>
