<svg width="44" height="44" viewBox="0 0 44 44" fill="none" xmlns="http://www.w3.org/2000/svg">
  <rect x="0.75" y="0.75" width="42.5" height="42.5" rx="3.25" stroke="#5B43EA" stroke-opacity="0.5" stroke-width="1.5"/>
  <path d="M9.968 36.568C9.904 36.568 9.844 36.584 9.788 36.616C9.732 36.64 9.668 36.672 9.596 36.712C9.46 36.792 9.288 36.876 9.08 36.964C8.872 37.044 8.6 37.084 8.264 37.084C7.856 37.084 7.476 37.02 7.124 36.892C6.78 36.756 6.48 36.572 6.224 36.34C5.976 36.1 5.78 35.824 5.636 35.512C5.5 35.192 5.432 34.848 5.432 34.48C5.432 34.136 5.492 33.808 5.612 33.496C5.74 33.184 5.92 32.908 6.152 32.668C6.384 32.428 6.668 32.236 7.004 32.092C7.348 31.948 7.736 31.876 8.168 31.876C8.464 31.876 8.704 31.912 8.888 31.984C9.072 32.048 9.228 32.112 9.356 32.176C9.428 32.216 9.496 32.248 9.56 32.272C9.632 32.296 9.704 32.308 9.776 32.308V33.22H9.656C9.616 33.068 9.544 32.936 9.44 32.824C9.336 32.704 9.216 32.604 9.08 32.524C8.944 32.444 8.796 32.384 8.636 32.344C8.476 32.304 8.32 32.284 8.168 32.284C7.84 32.284 7.552 32.344 7.304 32.464C7.056 32.576 6.852 32.728 6.692 32.92C6.532 33.104 6.412 33.316 6.332 33.556C6.252 33.796 6.212 34.044 6.212 34.3C6.212 34.596 6.26 34.888 6.356 35.176C6.452 35.456 6.588 35.708 6.764 35.932C6.948 36.156 7.168 36.336 7.424 36.472C7.68 36.608 7.968 36.676 8.288 36.676C8.512 36.676 8.716 36.644 8.9 36.58C9.092 36.516 9.252 36.432 9.38 36.328C9.516 36.224 9.624 36.112 9.704 35.992C9.784 35.864 9.832 35.744 9.848 35.632H9.968V36.568ZM13.2866 37.084C12.8866 37.084 12.5266 37.02 12.2066 36.892C11.8866 36.756 11.6106 36.576 11.3786 36.352C11.1546 36.12 10.9786 35.848 10.8506 35.536C10.7306 35.224 10.6706 34.884 10.6706 34.516C10.6706 34.124 10.7386 33.768 10.8746 33.448C11.0106 33.12 11.1986 32.84 11.4386 32.608C11.6786 32.376 11.9626 32.196 12.2906 32.068C12.6186 31.94 12.9746 31.876 13.3586 31.876C13.7426 31.876 14.0946 31.94 14.4146 32.068C14.7346 32.188 15.0106 32.36 15.2426 32.584C15.4746 32.808 15.6546 33.076 15.7826 33.388C15.9106 33.692 15.9746 34.028 15.9746 34.396C15.9746 34.74 15.9146 35.076 15.7946 35.404C15.6826 35.724 15.5106 36.008 15.2786 36.256C15.0546 36.504 14.7746 36.704 14.4386 36.856C14.1106 37.008 13.7266 37.084 13.2866 37.084ZM13.2146 32.272C12.9266 32.288 12.6706 32.36 12.4466 32.488C12.2306 32.608 12.0466 32.768 11.8946 32.968C11.7506 33.16 11.6386 33.38 11.5586 33.628C11.4866 33.876 11.4506 34.128 11.4506 34.384C11.4506 34.68 11.4946 34.968 11.5826 35.248C11.6786 35.52 11.8106 35.764 11.9786 35.98C12.1546 36.196 12.3626 36.368 12.6026 36.496C12.8426 36.624 13.1106 36.688 13.4066 36.688C13.7026 36.688 13.9626 36.624 14.1866 36.496C14.4186 36.368 14.6106 36.204 14.7626 36.004C14.9146 35.796 15.0266 35.564 15.0986 35.308C15.1786 35.052 15.2186 34.796 15.2186 34.54C15.2186 34.276 15.1786 34.012 15.0986 33.748C15.0186 33.476 14.8946 33.232 14.7266 33.016C14.5586 32.792 14.3466 32.612 14.0906 32.476C13.8426 32.34 13.5506 32.272 13.2146 32.272ZM21.8718 36.22C21.8718 36.284 21.8798 36.356 21.8958 36.436C21.9118 36.508 21.9358 36.576 21.9678 36.64C22.0078 36.704 22.0478 36.76 22.0878 36.808C22.1358 36.856 22.1918 36.88 22.2558 36.88V37H20.7078V36.88C20.7638 36.88 20.8158 36.856 20.8638 36.808C20.9118 36.76 20.9518 36.704 20.9838 36.64C21.0238 36.576 21.0518 36.508 21.0678 36.436C21.0838 36.356 21.0918 36.284 21.0918 36.22V33.988C21.0918 33.7 21.0518 33.448 20.9718 33.232C20.8918 33.016 20.7838 32.836 20.6478 32.692C20.5118 32.548 20.3558 32.444 20.1798 32.38C20.0118 32.308 19.8398 32.272 19.6638 32.272C19.4878 32.272 19.3118 32.308 19.1358 32.38C18.9678 32.452 18.8158 32.548 18.6798 32.668C18.5518 32.78 18.4438 32.916 18.3558 33.076C18.2758 33.228 18.2358 33.388 18.2358 33.556V36.22C18.2358 36.284 18.2438 36.356 18.2598 36.436C18.2758 36.508 18.2998 36.576 18.3318 36.64C18.3718 36.704 18.4118 36.76 18.4518 36.808C18.4998 36.856 18.5558 36.88 18.6198 36.88V37H17.0598V36.88C17.1158 36.88 17.1678 36.856 17.2158 36.808C17.2638 36.76 17.3038 36.704 17.3358 36.64C17.3758 36.576 17.4038 36.508 17.4198 36.436C17.4358 36.356 17.4438 36.284 17.4438 36.22V32.908C17.4438 32.772 17.4238 32.644 17.3838 32.524C17.3438 32.396 17.2278 32.328 17.0358 32.32V32.212L18.2358 31.828V32.488C18.2918 32.424 18.3638 32.356 18.4518 32.284C18.5398 32.204 18.6438 32.132 18.7638 32.068C18.8918 31.996 19.0358 31.94 19.1958 31.9C19.3638 31.852 19.5598 31.828 19.7838 31.828C20.1598 31.828 20.4798 31.892 20.7438 32.02C21.0078 32.148 21.2238 32.316 21.3918 32.524C21.5598 32.724 21.6798 32.948 21.7518 33.196C21.8318 33.436 21.8718 33.672 21.8718 33.904V36.22ZM24.6105 32.368V35.26C24.6105 35.468 24.6145 35.656 24.6225 35.824C24.6305 35.992 24.6505 36.132 24.6825 36.244C24.7145 36.356 24.7625 36.444 24.8265 36.508C24.8905 36.564 24.9785 36.592 25.0905 36.592C25.2585 36.592 25.4145 36.512 25.5585 36.352C25.7105 36.192 25.8065 36 25.8465 35.776H25.9545V36.652C25.8825 36.652 25.8225 36.676 25.7745 36.724C25.7105 36.78 25.6185 36.84 25.4985 36.904C25.3865 36.968 25.2145 37 24.9825 37C24.6945 37 24.4705 36.944 24.3105 36.832C24.1505 36.72 24.0345 36.572 23.9625 36.388C23.8905 36.204 23.8465 36 23.8305 35.776C23.8225 35.552 23.8185 35.324 23.8185 35.092V32.368H23.1465V31.96H23.8185V30.892C23.8185 30.756 23.7985 30.632 23.7585 30.52C23.7265 30.4 23.6105 30.336 23.4105 30.328V30.208L24.6105 29.824V31.96H25.9545V32.368H24.6105ZM29.7844 32.836C29.6884 32.676 29.5884 32.576 29.4844 32.536C29.3804 32.496 29.2604 32.476 29.1244 32.476C29.0364 32.476 28.9404 32.496 28.8364 32.536C28.7404 32.576 28.6444 32.628 28.5484 32.692C28.4524 32.756 28.3564 32.828 28.2604 32.908C28.1724 32.98 28.0964 33.048 28.0324 33.112V36.232C28.0324 36.296 28.0404 36.364 28.0564 36.436C28.0724 36.508 28.0964 36.58 28.1284 36.652C28.1684 36.716 28.2084 36.772 28.2484 36.82C28.2964 36.86 28.3524 36.88 28.4164 36.88V37H26.8564V36.88C26.9124 36.88 26.9644 36.86 27.0124 36.82C27.0604 36.772 27.1004 36.716 27.1324 36.652C27.1724 36.58 27.2004 36.508 27.2164 36.436C27.2324 36.364 27.2404 36.296 27.2404 36.232V32.884C27.2404 32.772 27.2044 32.66 27.1324 32.548C27.0604 32.436 26.9564 32.364 26.8204 32.332V32.236L28.0324 31.876V32.596C28.1044 32.508 28.1804 32.424 28.2604 32.344C28.3404 32.256 28.4284 32.18 28.5244 32.116C28.6284 32.044 28.7404 31.988 28.8604 31.948C28.9804 31.9 29.1204 31.876 29.2804 31.876C29.3924 31.876 29.5364 31.9 29.7124 31.948C29.8884 31.996 30.0324 32.048 30.1444 32.104L29.7844 32.836ZM33.4194 37.084C33.0194 37.084 32.6594 37.02 32.3394 36.892C32.0194 36.756 31.7434 36.576 31.5114 36.352C31.2874 36.12 31.1114 35.848 30.9834 35.536C30.8634 35.224 30.8034 34.884 30.8034 34.516C30.8034 34.124 30.8714 33.768 31.0074 33.448C31.1434 33.12 31.3314 32.84 31.5714 32.608C31.8114 32.376 32.0954 32.196 32.4234 32.068C32.7514 31.94 33.1074 31.876 33.4914 31.876C33.8754 31.876 34.2274 31.94 34.5474 32.068C34.8674 32.188 35.1434 32.36 35.3754 32.584C35.6074 32.808 35.7874 33.076 35.9154 33.388C36.0434 33.692 36.1074 34.028 36.1074 34.396C36.1074 34.74 36.0474 35.076 35.9274 35.404C35.8154 35.724 35.6434 36.008 35.4114 36.256C35.1874 36.504 34.9074 36.704 34.5714 36.856C34.2434 37.008 33.8594 37.084 33.4194 37.084ZM33.3474 32.272C33.0594 32.288 32.8034 32.36 32.5794 32.488C32.3634 32.608 32.1794 32.768 32.0274 32.968C31.8834 33.16 31.7714 33.38 31.6914 33.628C31.6194 33.876 31.5834 34.128 31.5834 34.384C31.5834 34.68 31.6274 34.968 31.7154 35.248C31.8114 35.52 31.9434 35.764 32.1114 35.98C32.2874 36.196 32.4954 36.368 32.7354 36.496C32.9754 36.624 33.2434 36.688 33.5394 36.688C33.8354 36.688 34.0954 36.624 34.3194 36.496C34.5514 36.368 34.7434 36.204 34.8954 36.004C35.0474 35.796 35.1594 35.564 35.2314 35.308C35.3114 35.052 35.3514 34.796 35.3514 34.54C35.3514 34.276 35.3114 34.012 35.2314 33.748C35.1514 33.476 35.0274 33.232 34.8594 33.016C34.6914 32.792 34.4794 32.612 34.2234 32.476C33.9754 32.34 33.6834 32.272 33.3474 32.272ZM37.2286 37V36.88C37.2926 36.88 37.3486 36.856 37.3966 36.808C37.4446 36.76 37.4846 36.704 37.5166 36.64C37.5566 36.576 37.5846 36.508 37.6006 36.436C37.6166 36.356 37.6246 36.284 37.6246 36.22V30.076C37.6246 29.94 37.6046 29.812 37.5646 29.692C37.5246 29.572 37.4046 29.508 37.2046 29.5V29.38L38.4166 29.008V36.22C38.4166 36.284 38.4246 36.356 38.4406 36.436C38.4566 36.508 38.4806 36.576 38.5126 36.64C38.5526 36.704 38.5926 36.76 38.6326 36.808C38.6806 36.856 38.7366 36.88 38.8006 36.88V37H37.2286Z" fill="black"/>
  <path d="M9.968 36.568V36.668H10.068V36.568H9.968ZM9.788 36.616L9.82765 36.7085L9.83761 36.7028L9.788 36.616ZM9.596 36.712L9.54742 36.6246L9.5453 36.6258L9.596 36.712ZM9.08 36.964L9.11592 37.0574L9.11896 37.0561L9.08 36.964ZM7.124 36.892L7.08722 36.985L7.08983 36.986L7.124 36.892ZM6.224 36.34L6.15442 36.4119L6.15685 36.4141L6.224 36.34ZM5.636 35.512L5.54392 35.5511L5.5452 35.5539L5.636 35.512ZM5.612 33.496L5.51946 33.458L5.51867 33.4601L5.612 33.496ZM7.004 32.092L6.96538 31.9998L6.96461 32.0001L7.004 32.092ZM8.888 31.984L8.85153 32.0772L8.85515 32.0784L8.888 31.984ZM9.356 32.176L9.40461 32.0885L9.40072 32.0866L9.356 32.176ZM9.56 32.272L9.52486 32.3657L9.52838 32.3669L9.56 32.272ZM9.776 32.308H9.876V32.208H9.776V32.308ZM9.776 33.22V33.32H9.876V33.22H9.776ZM9.656 33.22L9.55929 33.2454L9.57891 33.32H9.656V33.22ZM9.44 32.824L9.36439 32.8895L9.36672 32.892L9.44 32.824ZM9.08 32.524L9.1307 32.4378L9.08 32.524ZM8.636 32.344L8.61175 32.441L8.636 32.344ZM7.304 32.464L7.34517 32.5552L7.34756 32.554L7.304 32.464ZM6.692 32.92L6.76748 32.9856L6.76882 32.984L6.692 32.92ZM6.332 33.556L6.42687 33.5876L6.332 33.556ZM6.356 35.176L6.26113 35.2076L6.26141 35.2084L6.356 35.176ZM6.764 35.932L6.68535 35.9938L6.68673 35.9955L6.764 35.932ZM7.424 36.472L7.47092 36.3837L7.424 36.472ZM8.9 36.58L8.86837 36.4851L8.86715 36.4855L8.9 36.58ZM9.38 36.328L9.31923 36.2485L9.31694 36.2504L9.38 36.328ZM9.704 35.992L9.78724 36.0475L9.7888 36.045L9.704 35.992ZM9.848 35.632V35.532H9.76127L9.74901 35.6179L9.848 35.632ZM9.968 35.632H10.068V35.532H9.968V35.632ZM9.968 36.468C9.88646 36.468 9.80937 36.4886 9.73839 36.5292L9.83761 36.7028C9.87863 36.6794 9.92154 36.668 9.968 36.668V36.468ZM9.74861 36.5241C9.68861 36.5498 9.62145 36.5835 9.54744 36.6246L9.64456 36.7994C9.71455 36.7605 9.77539 36.7302 9.82739 36.7079L9.74861 36.5241ZM9.5453 36.6258C9.4143 36.7029 9.24656 36.7849 9.04104 36.8719L9.11896 37.0561C9.32944 36.9671 9.5057 36.8811 9.6467 36.7982L9.5453 36.6258ZM9.0441 36.8707C8.85183 36.9446 8.59334 36.984 8.264 36.984V37.184C8.60666 37.184 8.89217 37.1434 9.1159 37.0573L9.0441 36.8707ZM8.264 36.984C7.86661 36.984 7.49828 36.9217 7.15817 36.798L7.08983 36.986C7.45372 37.1183 7.84539 37.184 8.264 37.184V36.984ZM7.16077 36.799C6.82715 36.6671 6.53763 36.4893 6.29115 36.2659L6.15685 36.4141C6.42237 36.6547 6.73285 36.8449 7.08723 36.985L7.16077 36.799ZM6.29354 36.2681C6.05438 36.0367 5.8656 35.7708 5.7268 35.4701L5.5452 35.5539C5.6944 35.8772 5.89762 36.1633 6.15446 36.4119L6.29354 36.2681ZM5.72803 35.4729C5.59759 35.166 5.532 34.8354 5.532 34.48H5.332C5.332 34.8606 5.40241 35.218 5.54397 35.5511L5.72803 35.4729ZM5.532 34.48C5.532 34.1479 5.58987 33.8321 5.70533 33.5319L5.51867 33.4601C5.39413 33.7839 5.332 34.1241 5.332 34.48H5.532ZM5.70452 33.534C5.82776 33.2336 6.0008 32.9683 6.2239 32.7375L6.0801 32.5985C5.8392 32.8477 5.65224 33.1344 5.51948 33.458L5.70452 33.534ZM6.2239 32.7375C6.44582 32.5079 6.71844 32.3232 7.04339 32.1839L6.96461 32.0001C6.61756 32.1488 6.32218 32.3481 6.0801 32.5985L6.2239 32.7375ZM7.04261 32.1842C7.3726 32.0461 7.74718 31.976 8.168 31.976V31.776C7.72482 31.776 7.3234 31.8499 6.96539 31.9998L7.04261 32.1842ZM8.168 31.976C8.45714 31.976 8.68345 32.0113 8.85156 32.0771L8.92444 31.8909C8.72455 31.8127 8.47086 31.776 8.168 31.776V31.976ZM8.85515 32.0784C9.03643 32.1415 9.18821 32.2039 9.31128 32.2654L9.40072 32.0866C9.26779 32.0201 9.10757 31.9545 8.92085 31.8896L8.85515 32.0784ZM9.30744 32.2634C9.38292 32.3053 9.45543 32.3396 9.52489 32.3656L9.59511 32.1784C9.53657 32.1564 9.47308 32.1267 9.40456 32.0886L9.30744 32.2634ZM9.52838 32.3669C9.61002 32.3941 9.69268 32.408 9.776 32.408V32.208C9.71532 32.208 9.65398 32.1979 9.59162 32.1771L9.52838 32.3669ZM9.676 32.308V33.22H9.876V32.308H9.676ZM9.776 33.12H9.656V33.32H9.776V33.12ZM9.75271 33.1946C9.70864 33.0271 9.6288 32.8804 9.51328 32.756L9.36672 32.892C9.4592 32.9916 9.52336 33.1089 9.55929 33.2454L9.75271 33.1946ZM9.51557 32.7585C9.40451 32.6304 9.27612 32.5233 9.1307 32.4378L9.0293 32.6102C9.15588 32.6847 9.2675 32.7776 9.36443 32.8895L9.51557 32.7585ZM9.1307 32.4378C8.98608 32.3527 8.82912 32.2892 8.66025 32.247L8.61175 32.441C8.76288 32.4788 8.90192 32.5353 9.0293 32.6102L9.1307 32.4378ZM8.66025 32.247C8.49299 32.2052 8.32884 32.184 8.168 32.184V32.384C8.31116 32.384 8.45901 32.4028 8.61175 32.441L8.66025 32.247ZM8.168 32.184C7.82776 32.184 7.52437 32.2463 7.26044 32.374L7.34756 32.554C7.57963 32.4417 7.85224 32.384 8.168 32.384V32.184ZM7.26284 32.3729C7.0023 32.4905 6.7857 32.6514 6.61518 32.856L6.76882 32.984C6.9183 32.8046 7.1097 32.6615 7.34516 32.5551L7.26284 32.3729ZM6.61654 32.8544C6.44757 33.0487 6.32114 33.2724 6.23713 33.5244L6.42687 33.5876C6.50286 33.3596 6.61643 33.1593 6.76746 32.9856L6.61654 32.8544ZM6.23713 33.5244C6.15369 33.7747 6.112 34.0334 6.112 34.3H6.312C6.312 34.0546 6.35031 33.8173 6.42687 33.5876L6.23713 33.5244ZM6.112 34.3C6.112 34.607 6.16182 34.9097 6.26113 35.2076L6.45087 35.1444C6.35818 34.8663 6.312 34.585 6.312 34.3H6.112ZM6.26141 35.2084C6.3609 35.4986 6.50217 35.7606 6.68537 35.9938L6.84263 35.8702C6.67383 35.6554 6.5431 35.4134 6.45059 35.1436L6.26141 35.2084ZM6.68673 35.9955C6.87911 36.2297 7.10943 36.4181 7.37708 36.5603L7.47092 36.3837C7.22657 36.2539 7.01689 36.0823 6.84127 35.8685L6.68673 35.9955ZM7.37708 36.5603C7.64899 36.7048 7.95337 36.776 8.288 36.776V36.576C7.98263 36.576 7.71101 36.5112 7.47092 36.3837L7.37708 36.5603ZM8.288 36.776C8.52154 36.776 8.73684 36.7426 8.93285 36.6744L8.86715 36.4855C8.69516 36.5454 8.50246 36.576 8.288 36.576V36.776ZM8.93162 36.6749C9.13254 36.6079 9.30385 36.5187 9.44306 36.4056L9.31694 36.2504C9.20015 36.3453 9.05146 36.4241 8.86838 36.4851L8.93162 36.6749ZM9.44074 36.4074C9.58391 36.298 9.70007 36.1782 9.78721 36.0475L9.6208 35.9365C9.54793 36.0458 9.44809 36.15 9.31926 36.2486L9.44074 36.4074ZM9.7888 36.045C9.87385 35.9089 9.92848 35.7757 9.947 35.6461L9.74901 35.6179C9.73552 35.7123 9.69415 35.8191 9.6192 35.939L9.7888 36.045ZM9.848 35.732H9.968V35.532H9.848V35.732ZM9.868 35.632V36.568H10.068V35.632H9.868ZM12.2066 36.892L12.1674 36.9841L12.1694 36.9848L12.2066 36.892ZM11.3786 36.352L11.3066 36.4215L11.3091 36.4239L11.3786 36.352ZM10.8506 35.536L10.7572 35.5719L10.758 35.574L10.8506 35.536ZM10.8746 33.448L10.9666 33.4871L10.9669 33.4863L10.8746 33.448ZM11.4386 32.608L11.3691 32.5361L11.4386 32.608ZM12.2906 32.068L12.2542 31.9748L12.2906 32.068ZM14.4146 32.068L14.3774 32.1609L14.3794 32.1616L14.4146 32.068ZM15.2426 32.584L15.312 32.5121L15.2426 32.584ZM15.7826 33.388L15.69 33.426L15.6904 33.4268L15.7826 33.388ZM15.7946 35.404L15.7006 35.3696L15.7002 35.371L15.7946 35.404ZM15.2786 36.256L15.2055 36.1877L15.2044 36.189L15.2786 36.256ZM14.4386 36.856L14.3973 36.7649L14.3965 36.7653L14.4386 36.856ZM13.2146 32.272V32.1718L13.209 32.1722L13.2146 32.272ZM12.4466 32.488L12.4951 32.5754L12.4962 32.5748L12.4466 32.488ZM11.8946 32.968L11.8149 32.9075L11.8146 32.908L11.8946 32.968ZM11.5586 33.628L11.4634 33.5973L11.4625 33.6001L11.5586 33.628ZM11.5826 35.248L11.4871 35.278L11.4883 35.2813L11.5826 35.248ZM11.9786 35.98L11.8996 36.0414L11.901 36.0432L11.9786 35.98ZM12.6026 36.496L12.6496 36.4078L12.6026 36.496ZM14.1866 36.496L14.1382 36.4084L14.1369 36.4092L14.1866 36.496ZM14.7626 36.004L14.8422 36.0645L14.8433 36.063L14.7626 36.004ZM15.0986 35.308L15.0031 35.2782L15.0023 35.2809L15.0986 35.308ZM15.0986 33.748L15.0026 33.7762L15.0029 33.777L15.0986 33.748ZM14.7266 33.016L14.6466 33.076L14.6476 33.0774L14.7266 33.016ZM14.0906 32.476L14.0425 32.5637L14.0436 32.5643L14.0906 32.476ZM13.2866 36.984C12.8973 36.984 12.5502 36.9217 12.2437 36.7992L12.1694 36.9848C12.503 37.1183 12.8759 37.184 13.2866 37.184V36.984ZM12.2457 36.8C11.9361 36.6684 11.6706 36.4949 11.448 36.2801L11.3091 36.4239C11.5506 36.6571 11.8371 36.8436 12.1674 36.984L12.2457 36.8ZM11.4505 36.2825C11.2357 36.0601 11.0665 35.7989 10.9431 35.498L10.758 35.574C10.8906 35.8971 11.0734 36.1799 11.3066 36.4215L11.4505 36.2825ZM10.9439 35.5001C10.8287 35.2007 10.7706 34.873 10.7706 34.516H10.5706C10.5706 34.895 10.6324 35.2473 10.7572 35.5719L10.9439 35.5001ZM10.7706 34.516C10.7706 34.1357 10.8365 33.7933 10.9666 33.4871L10.7825 33.4089C10.6406 33.7427 10.5706 34.1123 10.5706 34.516H10.7706ZM10.9669 33.4863C11.098 33.1701 11.2785 32.9018 11.5081 32.6799L11.3691 32.5361C11.1186 32.7782 10.9231 33.0699 10.7822 33.4097L10.9669 33.4863ZM11.5081 32.6799C11.738 32.4576 12.0106 32.2846 12.3269 32.1612L12.2542 31.9748C11.9145 32.1074 11.6191 32.2944 11.3691 32.5361L11.5081 32.6799ZM12.3269 32.1612C12.6423 32.0381 12.9859 31.976 13.3586 31.976V31.776C12.9633 31.776 12.5948 31.8419 12.2542 31.9748L12.3269 32.1612ZM13.3586 31.976C13.7313 31.976 14.0705 32.0381 14.3774 32.1608L14.4517 31.9752C14.1186 31.8419 13.7538 31.776 13.3586 31.776V31.976ZM14.3794 32.1616C14.6874 32.2771 14.9515 32.442 15.1731 32.6559L15.312 32.5121C15.0696 32.278 14.7817 32.0989 14.4497 31.9744L14.3794 32.1616ZM15.1731 32.6559C15.3947 32.8699 15.5671 33.1262 15.69 33.426L15.8751 33.35C15.7421 33.0258 15.5544 32.7461 15.312 32.5121L15.1731 32.6559ZM15.6904 33.4268C15.8127 33.7172 15.8746 34.0398 15.8746 34.396H16.0746C16.0746 34.0162 16.0085 33.6668 15.8747 33.3492L15.6904 33.4268ZM15.8746 34.396C15.8746 34.7281 15.8167 35.0525 15.7007 35.3696L15.8885 35.4384C16.0124 35.0995 16.0746 34.7519 16.0746 34.396H15.8746ZM15.7002 35.371C15.5928 35.6778 15.4281 35.9498 15.2055 36.1877L15.3516 36.3243C15.5931 36.0662 15.7724 35.7702 15.8889 35.437L15.7002 35.371ZM15.2044 36.189C14.9905 36.4257 14.7221 36.618 14.3973 36.7649L14.4798 36.9471C14.827 36.79 15.1186 36.5823 15.3528 36.323L15.2044 36.189ZM14.3965 36.7653C14.0842 36.91 13.7151 36.984 13.2866 36.984V37.184C13.738 37.184 14.1369 37.106 14.4806 36.9467L14.3965 36.7653ZM13.209 32.1722C12.9074 32.1889 12.6359 32.2646 12.3969 32.4012L12.4962 32.5748C12.7052 32.4554 12.9458 32.3871 13.2201 32.3718L13.209 32.1722ZM12.398 32.4006C12.1697 32.5274 11.9752 32.6967 11.8149 32.9075L11.9742 33.0285C12.1179 32.8393 12.2914 32.6886 12.4951 32.5754L12.398 32.4006ZM11.8146 32.908C11.6634 33.1096 11.5465 33.3397 11.4634 33.5973L11.6537 33.6587C11.7306 33.4203 11.8378 33.2104 11.9746 33.028L11.8146 32.908ZM11.4625 33.6001C11.3879 33.8571 11.3506 34.1185 11.3506 34.384H11.5506C11.5506 34.1375 11.5852 33.8949 11.6546 33.6559L11.4625 33.6001ZM11.3506 34.384C11.3506 34.6901 11.3961 34.9882 11.4872 35.278L11.678 35.218C11.593 34.9478 11.5506 34.6699 11.5506 34.384H11.3506ZM11.4883 35.2813C11.5876 35.5629 11.7247 35.8165 11.8996 36.0414L12.0575 35.9186C11.8964 35.7115 11.7695 35.4771 11.6769 35.2147L11.4883 35.2813ZM11.901 36.0432C12.0852 36.2692 12.3035 36.4498 12.5555 36.5842L12.6496 36.4078C12.4216 36.2862 12.2239 36.1228 12.0561 35.9168L11.901 36.0432ZM12.5555 36.5842C12.8112 36.7206 13.0956 36.788 13.4066 36.788V36.588C13.1255 36.588 12.8739 36.5274 12.6496 36.4078L12.5555 36.5842ZM13.4066 36.788C13.7174 36.788 13.995 36.7207 14.2362 36.5828L14.1369 36.4092C13.9302 36.5273 13.6878 36.588 13.4066 36.588V36.788ZM14.2349 36.5836C14.4784 36.4492 14.6813 36.2762 14.8422 36.0645L14.6829 35.9435C14.5398 36.1318 14.3587 36.2868 14.1383 36.4084L14.2349 36.5836ZM14.8433 36.063C15.0026 35.8451 15.1197 35.6022 15.1948 35.3351L15.0023 35.2809C14.9334 35.5258 14.8266 35.7469 14.6818 35.945L14.8433 36.063ZM15.194 35.3378C15.2769 35.0726 15.3186 34.8066 15.3186 34.54H15.1186C15.1186 34.7854 15.0802 35.0314 15.0031 35.2782L15.194 35.3378ZM15.3186 34.54C15.3186 34.2657 15.277 33.992 15.1943 33.719L15.0029 33.777C15.0801 34.032 15.1186 34.2863 15.1186 34.54H15.3186ZM15.1945 33.7198C15.1111 33.4362 14.9815 33.1809 14.8055 32.9546L14.6476 33.0774C14.8077 33.2831 14.926 33.5158 15.0026 33.7762L15.1945 33.7198ZM14.8066 32.956C14.6294 32.7198 14.406 32.5303 14.1375 32.3877L14.0436 32.5643C14.2871 32.6937 14.4877 32.8642 14.6466 33.076L14.8066 32.956ZM14.1386 32.3883C13.8734 32.2428 13.5642 32.172 13.2146 32.172V32.372C13.5369 32.372 13.8118 32.4372 14.0425 32.5637L14.1386 32.3883ZM21.8958 36.436L21.7977 36.4556L21.7982 36.4577L21.8958 36.436ZM21.9678 36.64L21.878 36.6849L21.883 36.693L21.9678 36.64ZM22.0878 36.808L22.0107 36.8723L22.0171 36.8787L22.0878 36.808ZM22.2558 36.88H22.3558V36.78H22.2558V36.88ZM22.2558 37V37.1H22.3558V37H22.2558ZM20.7078 37H20.6078V37.1H20.7078V37ZM20.7078 36.88V36.78H20.6078V36.88H20.7078ZM20.8638 36.808L20.7931 36.7373H20.7931L20.8638 36.808ZM20.9838 36.64L20.8986 36.5868L20.8944 36.5953L20.9838 36.64ZM21.0678 36.436L21.1655 36.4577L21.1659 36.4556L21.0678 36.436ZM20.9718 33.232L20.878 33.2667L20.9718 33.232ZM20.6478 32.692L20.7205 32.6233L20.6478 32.692ZM20.1798 32.38L20.1404 32.4721L20.1456 32.474L20.1798 32.38ZM19.1358 32.38L19.0979 32.2874L19.0964 32.2881L19.1358 32.38ZM18.6798 32.668L18.7457 32.7433L18.746 32.743L18.6798 32.668ZM18.3558 33.076L18.2682 33.0278L18.2673 33.0294L18.3558 33.076ZM18.2598 36.436L18.1617 36.4556L18.1622 36.4577L18.2598 36.436ZM18.3318 36.64L18.242 36.6849L18.247 36.693L18.3318 36.64ZM18.4518 36.808L18.3747 36.8723L18.3811 36.8787L18.4518 36.808ZM18.6198 36.88H18.7198V36.78H18.6198V36.88ZM18.6198 37V37.1H18.7198V37H18.6198ZM17.0598 37H16.9598V37.1H17.0598V37ZM17.0598 36.88V36.78H16.9598V36.88H17.0598ZM17.2158 36.808L17.2865 36.8787L17.2158 36.808ZM17.3358 36.64L17.2506 36.5868L17.2464 36.5953L17.3358 36.64ZM17.4198 36.436L17.5175 36.4577L17.5179 36.4556L17.4198 36.436ZM17.3838 32.524L17.2883 32.5538L17.2889 32.5556L17.3838 32.524ZM17.0358 32.32H16.9358V32.4159L17.0316 32.4199L17.0358 32.32ZM17.0358 32.212L17.0053 32.1168L16.9358 32.139V32.212H17.0358ZM18.2358 31.828H18.3358V31.691L18.2053 31.7328L18.2358 31.828ZM18.2358 32.488H18.1358V32.7541L18.3111 32.5539L18.2358 32.488ZM18.4518 32.284L18.5152 32.3615L18.5191 32.358L18.4518 32.284ZM18.7638 32.068L18.8109 32.1563L18.8128 32.1552L18.7638 32.068ZM19.1958 31.9L19.2201 31.9971L19.2233 31.9962L19.1958 31.9ZM21.3918 32.524L21.314 32.5868L21.3152 32.5883L21.3918 32.524ZM21.7518 33.196L21.6557 33.2239L21.6569 33.2276L21.7518 33.196ZM21.7718 36.22C21.7718 36.2921 21.7808 36.3708 21.7978 36.4556L21.9939 36.4164C21.9788 36.3412 21.9718 36.2759 21.9718 36.22H21.7718ZM21.7982 36.4577C21.8159 36.5374 21.8426 36.6132 21.8784 36.6847L22.0573 36.5953C22.029 36.5388 22.0077 36.4786 21.9934 36.4143L21.7982 36.4577ZM21.883 36.693C21.9249 36.7601 21.9676 36.8199 22.011 36.872L22.1646 36.744C22.1281 36.7001 22.0907 36.6479 22.0526 36.587L21.883 36.693ZM22.0171 36.8787C22.0826 36.9442 22.1636 36.98 22.2558 36.98V36.78C22.2201 36.78 22.189 36.7678 22.1585 36.7373L22.0171 36.8787ZM22.1558 36.88V37H22.3558V36.88H22.1558ZM22.2558 36.9H20.7078V37.1H22.2558V36.9ZM20.8078 37V36.88H20.6078V37H20.8078ZM20.7078 36.98C20.7958 36.98 20.872 36.9412 20.9345 36.8787L20.7931 36.7373C20.7596 36.7708 20.7318 36.78 20.7078 36.78V36.98ZM20.9345 36.8787C20.9905 36.8227 21.0367 36.7578 21.0733 36.6847L20.8944 36.5953C20.8669 36.6502 20.8331 36.6973 20.7931 36.7373L20.9345 36.8787ZM21.0686 36.693C21.1145 36.6196 21.1469 36.541 21.1654 36.4577L20.9702 36.4143C20.9567 36.475 20.9331 36.5324 20.899 36.587L21.0686 36.693ZM21.1659 36.4556C21.1828 36.3708 21.1918 36.2921 21.1918 36.22H20.9918C20.9918 36.2759 20.9848 36.3412 20.9698 36.4164L21.1659 36.4556ZM21.1918 36.22V33.988H20.9918V36.22H21.1918ZM21.1918 33.988C21.1918 33.691 21.1506 33.4268 21.0656 33.1973L20.878 33.2667C20.953 33.4692 20.9918 33.709 20.9918 33.988H21.1918ZM21.0656 33.1973C20.9817 32.9707 20.8671 32.7786 20.7205 32.6233L20.5751 32.7607C20.7005 32.8934 20.802 33.0613 20.878 33.2667L21.0656 33.1973ZM20.7205 32.6233C20.5745 32.4687 20.4055 32.3556 20.214 32.286L20.1456 32.474C20.3062 32.5323 20.4492 32.6273 20.5751 32.7607L20.7205 32.6233ZM20.2192 32.2881C20.0392 32.211 19.8539 32.172 19.6638 32.172V32.372C19.8257 32.372 19.9844 32.405 20.1404 32.4719L20.2192 32.2881ZM19.6638 32.172C19.4738 32.172 19.285 32.2109 19.0979 32.2874L19.1737 32.4726C19.3386 32.4051 19.5018 32.372 19.6638 32.372V32.172ZM19.0964 32.2881C18.9187 32.3642 18.7577 32.4659 18.6137 32.593L18.746 32.743C18.8739 32.6301 19.0169 32.5398 19.1752 32.4719L19.0964 32.2881ZM18.614 32.5927C18.4766 32.713 18.3614 32.8583 18.2682 33.0278L18.4434 33.1242C18.5262 32.9737 18.6271 32.847 18.7457 32.7433L18.614 32.5927ZM18.2673 33.0294C18.1799 33.1955 18.1358 33.3714 18.1358 33.556H18.3358C18.3358 33.4046 18.3717 33.2605 18.4443 33.1226L18.2673 33.0294ZM18.1358 33.556V36.22H18.3358V33.556H18.1358ZM18.1358 36.22C18.1358 36.2921 18.1448 36.3708 18.1618 36.4556L18.3579 36.4164C18.3428 36.3412 18.3358 36.2759 18.3358 36.22H18.1358ZM18.1622 36.4577C18.1799 36.5374 18.2066 36.6132 18.2424 36.6847L18.4213 36.5953C18.393 36.5388 18.3717 36.4786 18.3574 36.4143L18.1622 36.4577ZM18.247 36.693C18.2889 36.7601 18.3316 36.8199 18.375 36.872L18.5286 36.744C18.4921 36.7001 18.4547 36.6479 18.4166 36.587L18.247 36.693ZM18.3811 36.8787C18.4466 36.9442 18.5276 36.98 18.6198 36.98V36.78C18.5841 36.78 18.553 36.7678 18.5225 36.7373L18.3811 36.8787ZM18.5198 36.88V37H18.7198V36.88H18.5198ZM18.6198 36.9H17.0598V37.1H18.6198V36.9ZM17.1598 37V36.88H16.9598V37H17.1598ZM17.0598 36.98C17.1478 36.98 17.224 36.9412 17.2865 36.8787L17.1451 36.7373C17.1116 36.7708 17.0838 36.78 17.0598 36.78V36.98ZM17.2865 36.8787C17.3425 36.8227 17.3887 36.7578 17.4253 36.6847L17.2464 36.5953C17.2189 36.6502 17.1851 36.6973 17.1451 36.7373L17.2865 36.8787ZM17.4206 36.693C17.4665 36.6196 17.4989 36.541 17.5174 36.4577L17.3222 36.4143C17.3087 36.475 17.2851 36.5324 17.251 36.587L17.4206 36.693ZM17.5179 36.4556C17.5348 36.3708 17.5438 36.2921 17.5438 36.22H17.3438C17.3438 36.2759 17.3368 36.3412 17.3218 36.4164L17.5179 36.4556ZM17.5438 36.22V32.908H17.3438V36.22H17.5438ZM17.5438 32.908C17.5438 32.7621 17.5223 32.6233 17.4787 32.4924L17.2889 32.5556C17.3253 32.6647 17.3438 32.7819 17.3438 32.908H17.5438ZM17.4793 32.4942C17.4518 32.4064 17.3968 32.3373 17.3174 32.2907C17.2405 32.2457 17.1458 32.2245 17.04 32.2201L17.0316 32.4199C17.1179 32.4235 17.1771 32.4403 17.2162 32.4633C17.2528 32.4847 17.2758 32.5136 17.2884 32.5538L17.4793 32.4942ZM17.1358 32.32V32.212H16.9358V32.32H17.1358ZM17.0663 32.3072L18.2663 31.9232L18.2053 31.7328L17.0053 32.1168L17.0663 32.3072ZM18.1358 31.828V32.488H18.3358V31.828H18.1358ZM18.3111 32.5539C18.3624 32.4951 18.4301 32.431 18.5151 32.3614L18.3885 32.2066C18.2975 32.281 18.2212 32.3529 18.1606 32.4221L18.3111 32.5539ZM18.5191 32.358C18.6002 32.2843 18.6971 32.2169 18.8109 32.1562L18.7168 31.9798C18.5905 32.0471 18.4795 32.1237 18.3845 32.21L18.5191 32.358ZM18.8128 32.1552C18.9322 32.088 19.0677 32.0351 19.2201 31.997L19.1716 31.803C19.0039 31.8449 18.8515 31.904 18.7148 31.9808L18.8128 32.1552ZM19.2233 31.9962C19.3802 31.9513 19.5666 31.928 19.7838 31.928V31.728C19.553 31.728 19.3474 31.7527 19.1683 31.8038L19.2233 31.9962ZM19.7838 31.928C20.1488 31.928 20.4531 31.9902 20.7002 32.11L20.7874 31.93C20.5066 31.7938 20.1708 31.728 19.7838 31.728V31.928ZM20.7002 32.11C20.9522 32.2322 21.1561 32.3914 21.314 32.5868L21.4696 32.4612C21.2915 32.2406 21.0634 32.0638 20.7874 31.93L20.7002 32.11ZM21.3152 32.5883C21.4744 32.7778 21.5877 32.9894 21.6558 33.2239L21.8478 33.1681C21.7719 32.9066 21.6452 32.6702 21.4684 32.4597L21.3152 32.5883ZM21.6569 33.2276C21.7339 33.4583 21.7718 33.6837 21.7718 33.904H21.9718C21.9718 33.6603 21.9298 33.4137 21.8467 33.1644L21.6569 33.2276ZM21.7718 33.904V36.22H21.9718V33.904H21.7718ZM24.6105 32.368V32.268H24.5105V32.368H24.6105ZM24.6825 36.244L24.5864 36.2715L24.6825 36.244ZM24.8265 36.508L24.7557 36.5789L24.7607 36.5833L24.8265 36.508ZM25.5585 36.352L25.486 36.2831L25.4842 36.2851L25.5585 36.352ZM25.8465 35.776V35.676H25.7628L25.7481 35.7584L25.8465 35.776ZM25.9545 35.776H26.0545V35.676H25.9545V35.776ZM25.9545 36.652V36.752H26.0545V36.652H25.9545ZM25.7745 36.724L25.8405 36.7994L25.8452 36.7947L25.7745 36.724ZM25.4985 36.904L25.4515 36.8157L25.4489 36.8172L25.4985 36.904ZM23.9625 36.388L23.8694 36.4244V36.4244L23.9625 36.388ZM23.8305 35.776L23.7305 35.7796L23.7308 35.7831L23.8305 35.776ZM23.8185 32.368H23.9185V32.268H23.8185V32.368ZM23.1465 32.368H23.0465V32.468H23.1465V32.368ZM23.1465 31.96V31.86H23.0465V31.96H23.1465ZM23.8185 31.96V32.06H23.9185V31.96H23.8185ZM23.7585 30.52L23.6616 30.5459L23.6644 30.5536L23.7585 30.52ZM23.4105 30.328H23.3105V30.4241L23.4065 30.4279L23.4105 30.328ZM23.4105 30.208L23.3801 30.1128L23.3105 30.135V30.208H23.4105ZM24.6105 29.824H24.7105V29.687L24.5801 29.7288L24.6105 29.824ZM24.6105 31.96H24.5105V32.06H24.6105V31.96ZM25.9545 31.96H26.0545V31.86H25.9545V31.96ZM25.9545 32.368V32.468H26.0545V32.368H25.9545ZM24.5105 32.368V35.26H24.7105V32.368H24.5105ZM24.5105 35.26C24.5105 35.4692 24.5146 35.6589 24.5226 35.8288L24.7224 35.8192C24.7145 35.6531 24.7105 35.4668 24.7105 35.26H24.5105ZM24.5226 35.8288C24.5309 36.0014 24.5516 36.1496 24.5864 36.2715L24.7787 36.2165C24.7495 36.1144 24.7302 35.9826 24.7224 35.8192L24.5226 35.8288ZM24.5864 36.2715C24.6217 36.3952 24.6768 36.4997 24.7558 36.5787L24.8972 36.4373C24.8482 36.3883 24.8073 36.3168 24.7787 36.2165L24.5864 36.2715ZM24.7607 36.5833C24.848 36.6597 24.9621 36.692 25.0905 36.692V36.492C24.9949 36.492 24.933 36.4683 24.8924 36.4327L24.7607 36.5833ZM25.0905 36.692C25.2944 36.692 25.4756 36.5937 25.6329 36.4189L25.4842 36.2851C25.3535 36.4303 25.2227 36.492 25.0905 36.492V36.692ZM25.631 36.4209C25.7969 36.2462 25.9016 36.0362 25.945 35.7936L25.7481 35.7584C25.7114 35.9638 25.6241 36.1378 25.486 36.2831L25.631 36.4209ZM25.8465 35.876H25.9545V35.676H25.8465V35.876ZM25.8545 35.776V36.652H26.0545V35.776H25.8545ZM25.9545 36.552C25.8578 36.552 25.7718 36.5853 25.7038 36.6533L25.8452 36.7947C25.8733 36.7667 25.9073 36.752 25.9545 36.752V36.552ZM25.7087 36.6487C25.6528 36.6976 25.5682 36.7535 25.4515 36.8158L25.5456 36.9922C25.6688 36.9265 25.7683 36.8624 25.8404 36.7993L25.7087 36.6487ZM25.4489 36.8172C25.3598 36.8681 25.209 36.9 24.9825 36.9V37.1C25.22 37.1 25.4133 37.0679 25.5481 36.9908L25.4489 36.8172ZM24.9825 36.9C24.7058 36.9 24.5048 36.8459 24.3679 36.7501L24.2532 36.9139C24.4362 37.0421 24.6833 37.1 24.9825 37.1V36.9ZM24.3679 36.7501C24.2242 36.6495 24.1206 36.5174 24.0557 36.3516L23.8694 36.4244C23.9485 36.6266 24.0768 36.7905 24.2532 36.9139L24.3679 36.7501ZM24.0557 36.3516C23.9878 36.1781 23.9457 35.9842 23.9303 35.7689L23.7308 35.7831C23.7474 36.0158 23.7933 36.2299 23.8694 36.4244L24.0557 36.3516ZM23.9305 35.7724C23.9225 35.5497 23.9185 35.3229 23.9185 35.092H23.7185C23.7185 35.3251 23.7226 35.5543 23.7306 35.7796L23.9305 35.7724ZM23.9185 35.092V32.368H23.7185V35.092H23.9185ZM23.8185 32.268H23.1465V32.468H23.8185V32.268ZM23.2465 32.368V31.96H23.0465V32.368H23.2465ZM23.1465 32.06H23.8185V31.86H23.1465V32.06ZM23.9185 31.96V30.892H23.7185V31.96H23.9185ZM23.9185 30.892C23.9185 30.7462 23.8971 30.6106 23.8527 30.4864L23.6644 30.5536C23.7 30.6534 23.7185 30.7658 23.7185 30.892H23.9185ZM23.8552 30.4942C23.8316 30.406 23.7759 30.3386 23.6958 30.2944C23.6191 30.2521 23.5228 30.2324 23.4145 30.2281L23.4065 30.4279C23.4982 30.4316 23.56 30.4479 23.5992 30.4696C23.6352 30.4894 23.6534 30.514 23.6619 30.5458L23.8552 30.4942ZM23.5105 30.328V30.208H23.3105V30.328H23.5105ZM23.441 30.3032L24.641 29.9192L24.5801 29.7288L23.3801 30.1128L23.441 30.3032ZM24.5105 29.824V31.96H24.7105V29.824H24.5105ZM24.6105 32.06H25.9545V31.86H24.6105V32.06ZM25.8545 31.96V32.368H26.0545V31.96H25.8545ZM25.9545 32.268H24.6105V32.468H25.9545V32.268ZM29.7844 32.836L29.6987 32.8874L29.7931 33.0449L29.8741 32.8801L29.7844 32.836ZM29.4844 32.536L29.4485 32.6293L29.4844 32.536ZM28.8364 32.536L28.8005 32.4426L28.7979 32.4437L28.8364 32.536ZM28.5484 32.692L28.4929 32.6088L28.5484 32.692ZM28.2604 32.908L28.3237 32.9854L28.3244 32.9848L28.2604 32.908ZM28.0324 33.112L27.9617 33.0413L27.9324 33.0706V33.112H28.0324ZM28.0564 36.436L28.154 36.4143H28.154L28.0564 36.436ZM28.1284 36.652L28.0361 36.693L28.0436 36.705L28.1284 36.652ZM28.2484 36.82L28.1716 36.884L28.1774 36.891L28.1844 36.8968L28.2484 36.82ZM28.4164 36.88H28.5164V36.78H28.4164V36.88ZM28.4164 37V37.1H28.5164V37H28.4164ZM26.8564 37H26.7564V37.1H26.8564V37ZM26.8564 36.88V36.78H26.7564V36.88H26.8564ZM27.0124 36.82L27.0767 36.8971L27.0831 36.8907L27.0124 36.82ZM27.1324 36.652L27.0449 36.6034L27.043 36.6073L27.1324 36.652ZM27.2164 36.436L27.1188 36.4143L27.2164 36.436ZM27.1324 32.548L27.0483 32.6021L27.1324 32.548ZM26.8204 32.332H26.7204V32.4112L26.7975 32.4293L26.8204 32.332ZM26.8204 32.236L26.7919 32.1401L26.7204 32.1614V32.236H26.8204ZM28.0324 31.876H28.1324V31.742L28.0039 31.7801L28.0324 31.876ZM28.0324 32.596H27.9324V32.8761L28.1098 32.6593L28.0324 32.596ZM28.2604 32.344L28.3312 32.4148L28.3344 32.4113L28.2604 32.344ZM28.5244 32.116L28.5799 32.1992L28.5813 32.1982L28.5244 32.116ZM28.8604 31.948L28.8921 32.043L28.8975 32.0408L28.8604 31.948ZM29.7124 31.948L29.7387 31.8515L29.7124 31.948ZM30.1444 32.104L30.2341 32.1481L30.278 32.059L30.1891 32.0146L30.1444 32.104ZM29.8702 32.7846C29.7697 32.6172 29.6551 32.4945 29.5203 32.4427L29.4485 32.6293C29.5217 32.6575 29.6071 32.7348 29.6987 32.8874L29.8702 32.7846ZM29.5203 32.4427C29.4026 32.3974 29.2701 32.376 29.1244 32.376V32.576C29.2508 32.576 29.3582 32.5946 29.4485 32.6293L29.5203 32.4427ZM29.1244 32.376C29.0213 32.376 28.913 32.3994 28.8005 32.4427L28.8723 32.6293C28.9678 32.5926 29.0515 32.576 29.1244 32.576V32.376ZM28.7979 32.4437C28.6954 32.4864 28.5937 32.5416 28.4929 32.6088L28.6039 32.7752C28.6951 32.7144 28.7854 32.6656 28.8749 32.6283L28.7979 32.4437ZM28.4929 32.6088C28.3937 32.6749 28.2949 32.7491 28.1964 32.8312L28.3244 32.9848C28.4179 32.9069 28.5111 32.8371 28.6039 32.7752L28.4929 32.6088ZM28.1971 32.8306C28.1071 32.9042 28.0285 32.9744 27.9617 33.0413L28.1031 33.1827C28.1643 33.1216 28.2377 33.0558 28.3237 32.9854L28.1971 32.8306ZM27.9324 33.112V36.232H28.1324V33.112H27.9324ZM27.9324 36.232C27.9324 36.3043 27.9414 36.3796 27.9588 36.4577L28.154 36.4143C28.1394 36.3484 28.1324 36.2877 28.1324 36.232H27.9324ZM27.9588 36.4577C27.9763 36.5366 28.0025 36.6149 28.037 36.6926L28.2198 36.6114C28.1903 36.5451 28.1685 36.4794 28.154 36.4143L27.9588 36.4577ZM28.0436 36.705C28.0855 36.7721 28.1282 36.8319 28.1716 36.884L28.3252 36.756C28.2887 36.7121 28.2513 36.6599 28.2132 36.599L28.0436 36.705ZM28.1844 36.8968C28.2508 36.9522 28.3296 36.98 28.4164 36.98V36.78C28.3752 36.78 28.342 36.7678 28.3124 36.7432L28.1844 36.8968ZM28.3164 36.88V37H28.5164V36.88H28.3164ZM28.4164 36.9H26.8564V37.1H28.4164V36.9ZM26.9564 37V36.88H26.7564V37H26.9564ZM26.8564 36.98C26.9385 36.98 27.0127 36.95 27.0764 36.8968L26.9484 36.7432C26.9161 36.77 26.8863 36.78 26.8564 36.78V36.98ZM27.0831 36.8907C27.1391 36.8347 27.1853 36.7698 27.2218 36.6967L27.043 36.6073C27.0155 36.6622 26.9817 36.7093 26.9417 36.7493L27.0831 36.8907ZM27.2198 36.7006C27.264 36.6211 27.2957 36.5401 27.314 36.4577L27.1188 36.4143C27.1051 36.4759 27.0809 36.5389 27.045 36.6034L27.2198 36.7006ZM27.314 36.4577C27.3314 36.3796 27.3404 36.3043 27.3404 36.232H27.1404C27.1404 36.2877 27.1334 36.3484 27.1188 36.4143L27.314 36.4577ZM27.3404 36.232V32.884H27.1404V36.232H27.3404ZM27.3404 32.884C27.3404 32.7495 27.2969 32.619 27.2165 32.4939L27.0483 32.6021C27.1119 32.701 27.1404 32.7945 27.1404 32.884H27.3404ZM27.2165 32.4939C27.1298 32.3589 27.0032 32.2723 26.8433 32.2347L26.7975 32.4293C26.9096 32.4557 26.9911 32.5131 27.0483 32.6021L27.2165 32.4939ZM26.9204 32.332V32.236H26.7204V32.332H26.9204ZM26.8489 32.3319L28.0609 31.9719L28.0039 31.7801L26.7919 32.1401L26.8489 32.3319ZM27.9324 31.876V32.596H28.1324V31.876H27.9324ZM28.1098 32.6593C28.1797 32.5739 28.2535 32.4923 28.3311 32.4147L28.1897 32.2733C28.1073 32.3557 28.0291 32.4421 27.955 32.5327L28.1098 32.6593ZM28.3344 32.4113C28.4091 32.3291 28.4909 32.2585 28.5799 32.1992L28.4689 32.0328C28.3659 32.1015 28.2717 32.1829 28.1864 32.2767L28.3344 32.4113ZM28.5813 32.1982C28.6775 32.1316 28.781 32.0799 28.892 32.0429L28.8288 31.8531C28.6998 31.8961 28.5793 31.9564 28.4675 32.0338L28.5813 32.1982ZM28.8975 32.0408C29.0033 31.9985 29.1302 31.976 29.2804 31.976V31.776C29.1106 31.776 28.9575 31.8014 28.8233 31.8552L28.8975 32.0408ZM29.2804 31.976C29.3797 31.976 29.514 31.9975 29.6861 32.0445L29.7387 31.8515C29.5588 31.8025 29.4051 31.776 29.2804 31.776V31.976ZM29.6861 32.0445C29.8583 32.0915 29.9956 32.1414 30.0997 32.1934L30.1891 32.0146C30.0692 31.9546 29.9185 31.9005 29.7387 31.8515L29.6861 32.0445ZM30.0547 32.0599L29.6947 32.7919L29.8741 32.8801L30.2341 32.1481L30.0547 32.0599ZM32.3394 36.892L32.3003 36.9841L32.3022 36.9848L32.3394 36.892ZM31.5114 36.352L31.4394 36.4215L31.4419 36.4239L31.5114 36.352ZM30.9834 35.536L30.89 35.5719L30.8909 35.574L30.9834 35.536ZM31.0074 33.448L31.0994 33.4871L31.0997 33.4863L31.0074 33.448ZM31.5714 32.608L31.5019 32.5361L31.5714 32.608ZM32.4234 32.068L32.387 31.9748L32.4234 32.068ZM34.5474 32.068L34.5102 32.1609L34.5123 32.1616L34.5474 32.068ZM35.3754 32.584L35.4448 32.5121L35.3754 32.584ZM35.9154 33.388L35.8229 33.426L35.8232 33.4268L35.9154 33.388ZM35.9274 35.404L35.8335 35.3696L35.833 35.371L35.9274 35.404ZM35.4114 36.256L35.3383 36.1877L35.3372 36.189L35.4114 36.256ZM34.5714 36.856L34.5302 36.7649L34.5293 36.7653L34.5714 36.856ZM33.3474 32.272V32.1718L33.3418 32.1722L33.3474 32.272ZM32.5794 32.488L32.6279 32.5754L32.629 32.5748L32.5794 32.488ZM32.0274 32.968L31.9478 32.9075L31.9474 32.908L32.0274 32.968ZM31.6914 33.628L31.5962 33.5973L31.5953 33.6001L31.6914 33.628ZM31.7154 35.248L31.6199 35.278L31.6211 35.2813L31.7154 35.248ZM32.1114 35.98L32.0324 36.0414L32.0339 36.0432L32.1114 35.98ZM32.7354 36.496L32.7824 36.4078L32.7354 36.496ZM34.3194 36.496L34.2711 36.4084L34.2698 36.4092L34.3194 36.496ZM34.8954 36.004L34.975 36.0645L34.9761 36.063L34.8954 36.004ZM35.2314 35.308L35.1359 35.2782L35.1351 35.2809L35.2314 35.308ZM35.2314 33.748L35.1354 33.7762L35.1357 33.777L35.2314 33.748ZM34.8594 33.016L34.7794 33.076L34.7804 33.0774L34.8594 33.016ZM34.2234 32.476L34.1753 32.5637L34.1765 32.5643L34.2234 32.476ZM33.4194 36.984C33.0301 36.984 32.683 36.9217 32.3765 36.7992L32.3022 36.9848C32.6358 37.1183 33.0087 37.184 33.4194 37.184V36.984ZM32.3785 36.8C32.0689 36.6684 31.8034 36.4949 31.5808 36.2801L31.4419 36.4239C31.6834 36.6571 31.9699 36.8436 32.3003 36.984L32.3785 36.8ZM31.5833 36.2825C31.3685 36.0601 31.1993 35.7989 31.0759 35.498L30.8909 35.574C31.0234 35.8971 31.2062 36.1799 31.4394 36.4215L31.5833 36.2825ZM31.0767 35.5001C30.9615 35.2007 30.9034 34.873 30.9034 34.516H30.7034C30.7034 34.895 30.7652 35.2473 30.89 35.5719L31.0767 35.5001ZM30.9034 34.516C30.9034 34.1357 30.9693 33.7933 31.0994 33.4871L30.9153 33.4089C30.7735 33.7427 30.7034 34.1123 30.7034 34.516H30.9034ZM31.0997 33.4863C31.2308 33.1701 31.4113 32.9018 31.6409 32.6799L31.5019 32.5361C31.2514 32.7782 31.0559 33.0699 30.915 33.4097L31.0997 33.4863ZM31.6409 32.6799C31.8708 32.4576 32.1434 32.2846 32.4597 32.1612L32.387 31.9748C32.0474 32.1074 31.7519 32.2944 31.5019 32.5361L31.6409 32.6799ZM32.4597 32.1612C32.7751 32.0381 33.1187 31.976 33.4914 31.976V31.776C33.0961 31.776 32.7276 31.8419 32.387 31.9748L32.4597 32.1612ZM33.4914 31.976C33.8641 31.976 34.2033 32.0381 34.5102 32.1608L34.5845 31.9752C34.2514 31.8419 33.8866 31.776 33.4914 31.776V31.976ZM34.5123 32.1616C34.8202 32.2771 35.0843 32.442 35.3059 32.6559L35.4448 32.5121C35.2024 32.278 34.9145 32.0989 34.5825 31.9744L34.5123 32.1616ZM35.3059 32.6559C35.5275 32.8699 35.6999 33.1262 35.8229 33.426L36.0079 33.35C35.8749 33.0258 35.6872 32.7461 35.4448 32.5121L35.3059 32.6559ZM35.8232 33.4268C35.9455 33.7172 36.0074 34.0398 36.0074 34.396H36.2074C36.2074 34.0162 36.1413 33.6668 36.0075 33.3492L35.8232 33.4268ZM36.0074 34.396C36.0074 34.7281 35.9495 35.0525 35.8335 35.3696L36.0213 35.4384C36.1453 35.0995 36.2074 34.7519 36.2074 34.396H36.0074ZM35.833 35.371C35.7256 35.6778 35.5609 35.9498 35.3383 36.1877L35.4844 36.3243C35.7259 36.0662 35.9052 35.7702 36.0218 35.437L35.833 35.371ZM35.3372 36.189C35.1233 36.4257 34.8549 36.618 34.5302 36.7649L34.6126 36.9471C34.9598 36.79 35.2514 36.5823 35.4856 36.323L35.3372 36.189ZM34.5293 36.7653C34.217 36.91 33.8479 36.984 33.4194 36.984V37.184C33.8708 37.184 34.2697 37.106 34.6134 36.9467L34.5293 36.7653ZM33.3418 32.1722C33.0402 32.1889 32.7688 32.2646 32.5298 32.4012L32.629 32.5748C32.838 32.4554 33.0786 32.3871 33.3529 32.3718L33.3418 32.1722ZM32.5308 32.4006C32.3025 32.5274 32.108 32.6967 31.9478 32.9075L32.107 33.0285C32.2508 32.8393 32.4242 32.6886 32.6279 32.5754L32.5308 32.4006ZM31.9474 32.908C31.7962 33.1096 31.6793 33.3397 31.5962 33.5973L31.7865 33.6587C31.8634 33.4203 31.9706 33.2104 32.1074 33.028L31.9474 32.908ZM31.5953 33.6001C31.5207 33.8571 31.4834 34.1185 31.4834 34.384H31.6834C31.6834 34.1375 31.718 33.8949 31.7874 33.6559L31.5953 33.6001ZM31.4834 34.384C31.4834 34.6901 31.5289 34.9882 31.62 35.278L31.8108 35.218C31.7258 34.9478 31.6834 34.6699 31.6834 34.384H31.4834ZM31.6211 35.2813C31.7205 35.5629 31.8575 35.8165 32.0324 36.0414L32.1903 35.9186C32.0293 35.7115 31.9023 35.4771 31.8097 35.2147L31.6211 35.2813ZM32.0339 36.0432C32.218 36.2692 32.4363 36.4498 32.6883 36.5842L32.7824 36.4078C32.5544 36.2862 32.3567 36.1228 32.1889 35.9168L32.0339 36.0432ZM32.6883 36.5842C32.9441 36.7206 33.2284 36.788 33.5394 36.788V36.588C33.2583 36.588 33.0067 36.5274 32.7824 36.4078L32.6883 36.5842ZM33.5394 36.788C33.8502 36.788 34.1278 36.7207 34.369 36.5828L34.2698 36.4092C34.063 36.5273 33.8206 36.588 33.5394 36.588V36.788ZM34.3677 36.5836C34.6112 36.4492 34.8141 36.2762 34.975 36.0645L34.8158 35.9435C34.6727 36.1318 34.4915 36.2868 34.2711 36.4084L34.3677 36.5836ZM34.9761 36.063C35.1354 35.8451 35.2525 35.6022 35.3276 35.3351L35.1351 35.2809C35.0662 35.5258 34.9594 35.7469 34.8146 35.945L34.9761 36.063ZM35.3268 35.3378C35.4097 35.0726 35.4514 34.8066 35.4514 34.54H35.2514C35.2514 34.7854 35.2131 35.0314 35.1359 35.2782L35.3268 35.3378ZM35.4514 34.54C35.4514 34.2657 35.4098 33.992 35.3271 33.719L35.1357 33.777C35.213 34.032 35.2514 34.2863 35.2514 34.54H35.4514ZM35.3273 33.7198C35.2439 33.4362 35.1143 33.1809 34.9383 32.9546L34.7804 33.0774C34.9405 33.2831 35.0588 33.5158 35.1354 33.7762L35.3273 33.7198ZM34.9394 32.956C34.7622 32.7198 34.5388 32.5303 34.2703 32.3877L34.1765 32.5643C34.42 32.6937 34.6205 32.8642 34.7794 33.076L34.9394 32.956ZM34.2715 32.3883C34.0062 32.2428 33.697 32.172 33.3474 32.172V32.372C33.6697 32.372 33.9446 32.4372 34.1753 32.5637L34.2715 32.3883ZM37.2286 37H37.1286V37.1H37.2286V37ZM37.2286 36.88V36.78H37.1286V36.88H37.2286ZM37.3966 36.808L37.3259 36.7373L37.3966 36.808ZM37.5166 36.64L37.4314 36.5868L37.4272 36.5953L37.5166 36.64ZM37.6006 36.436L37.6983 36.4577L37.6987 36.4556L37.6006 36.436ZM37.5646 29.692L37.6595 29.6604L37.5646 29.692ZM37.2046 29.5H37.1046V29.5961L37.2006 29.5999L37.2046 29.5ZM37.2046 29.38L37.1753 29.2844L37.1046 29.3061V29.38H37.2046ZM38.4166 29.008H38.5166V28.8727L38.3873 28.9124L38.4166 29.008ZM38.4406 36.436L38.3425 36.4556L38.343 36.4577L38.4406 36.436ZM38.5126 36.64L38.4228 36.6849L38.4278 36.693L38.5126 36.64ZM38.6326 36.808L38.5555 36.8723L38.5619 36.8787L38.6326 36.808ZM38.8006 36.88H38.9006V36.78H38.8006V36.88ZM38.8006 37V37.1H38.9006V37H38.8006ZM37.3286 37V36.88H37.1286V37H37.3286ZM37.2286 36.98C37.3209 36.98 37.4018 36.9442 37.4673 36.8787L37.3259 36.7373C37.2954 36.7678 37.2644 36.78 37.2286 36.78V36.98ZM37.4673 36.8787C37.5233 36.8227 37.5695 36.7578 37.6061 36.6847L37.4272 36.5953C37.3997 36.6502 37.3659 36.6973 37.3259 36.7373L37.4673 36.8787ZM37.6014 36.693C37.6473 36.6196 37.6797 36.541 37.6982 36.4577L37.503 36.4143C37.4895 36.475 37.4659 36.5324 37.4318 36.587L37.6014 36.693ZM37.6987 36.4556C37.7156 36.3708 37.7246 36.2921 37.7246 36.22H37.5246C37.5246 36.2759 37.5176 36.3412 37.5026 36.4164L37.6987 36.4556ZM37.7246 36.22V30.076H37.5246V36.22H37.7246ZM37.7246 30.076C37.7246 29.9301 37.7031 29.7913 37.6595 29.6604L37.4698 29.7236C37.5061 29.8327 37.5246 29.9499 37.5246 30.076H37.7246ZM37.6595 29.6604C37.5993 29.4799 37.4224 29.4086 37.2086 29.4001L37.2006 29.5999C37.3868 29.6074 37.4499 29.6641 37.4698 29.7236L37.6595 29.6604ZM37.3046 29.5V29.38H37.1046V29.5H37.3046ZM37.234 29.4756L38.446 29.1036L38.3873 28.9124L37.1753 29.2844L37.234 29.4756ZM38.3166 29.008V36.22H38.5166V29.008H38.3166ZM38.3166 36.22C38.3166 36.2921 38.3256 36.3708 38.3426 36.4556L38.5387 36.4164C38.5236 36.3412 38.5166 36.2759 38.5166 36.22H38.3166ZM38.343 36.4577C38.3607 36.5374 38.3874 36.6132 38.4232 36.6847L38.6021 36.5953C38.5738 36.5388 38.5525 36.4786 38.5382 36.4143L38.343 36.4577ZM38.4278 36.693C38.4698 36.7601 38.5124 36.8199 38.5558 36.872L38.7094 36.744C38.6729 36.7001 38.6355 36.6479 38.5974 36.587L38.4278 36.693ZM38.5619 36.8787C38.6274 36.9442 38.7084 36.98 38.8006 36.98V36.78C38.7649 36.78 38.7338 36.7678 38.7033 36.7373L38.5619 36.8787ZM38.7006 36.88V37H38.9006V36.88H38.7006ZM38.8006 36.9H37.2286V37.1H38.8006V36.9Z" fill="#5B43EA" fill-opacity="0.5"/>
</svg>
