<svg width="139" height="28" viewBox="0 0 139 28" fill="black" xmlns="http://www.w3.org/2000/svg">
  <path d="M14.46 22.22C6.52 25.1 0.18 6.06 7 3.3C8.6 2.64 11.88 2.62 14.52 6.64H17.02C14.34 0.88 9.08 1.8 9.08 1.8C9.08 1.8 2.64 2.44 2.64 11.3C2.64 20.12 8.06 24 12 24C14.1 24 17.06 22.64 17.36 17.36H15.92C16.08 20.22 15.84 21.72 14.46 22.22ZM32.4277 22.1C25.0077 27.9 17.1277 5.74 25.6077 2.86C29.4677 1.54 32.4477 6.28 32.9877 7.32C35.6477 12.32 35.1677 19.94 32.4277 22.1ZM34.9077 5.7C32.5277 1.52 28.6877 1.52 28.6877 1.52C28.6877 1.52 22.1477 0.539998 20.6077 9.32C19.0677 18.04 24.3277 23.86 27.8677 24.22C28.9877 24.34 30.4077 24.16 31.6077 23.5C31.6077 23.5 34.4277 22.12 35.7277 18.46C37.5677 13.18 36.4077 8.34 34.9077 5.7ZM51.1213 1.8L51.0213 21.12L42.7013 1.8H41.0613V24H42.0613V6.22L49.8813 24L52.1813 22.8V1.8H51.1213ZM70.6755 1.8H54.6755V2.88H61.6755V22.68L63.6755 24V2.88H70.6555C70.6755 2.54 70.6755 2.14 70.6755 1.8ZM76.9997 23.12V13.58H84.8197V12.72H76.9997V2.72H87.5997V1.8H74.8397V22.66L76.9997 24H87.6797V23.12H76.9997ZM101.219 1.8L101.119 21.12L92.7989 1.8H91.1589V24H92.1589V6.22L99.9789 24L102.279 22.8V1.8H101.219ZM120.773 1.8H104.773V2.88H111.773V22.68L113.773 24V2.88H120.753C120.773 2.54 120.773 2.14 120.773 1.8ZM131.037 1.8C125.677 1.8 123.397 6.08 123.557 10.14C123.757 14.76 133.417 10.3 135.337 12.14C137.917 14.64 133.137 23.42 130.997 23.42C125.997 23.42 125.977 18.5 125.977 18.5H123.677C123.677 19.18 123.817 24 130.317 24C134.077 24 138.397 19.34 138.397 14.72C138.397 8.5 126.457 12.44 125.857 9.36C125.257 6.38 126.537 2.72 129.037 2.72C133.617 2.72 134.337 6.28 134.337 6.28H137.037C136.877 5.44 135.037 1.8 131.037 1.8Z"/>
  <path d="M14.46 22.22L14.3919 22.032L14.3918 22.032L14.46 22.22ZM7 3.3L7.07503 3.4854L7.07627 3.48489L7 3.3ZM14.52 6.64L14.3528 6.74979L14.4121 6.84H14.52V6.64ZM17.02 6.64V6.84H17.3336L17.2013 6.55563L17.02 6.64ZM9.08 1.8L9.09978 1.99902L9.10716 1.99829L9.11446 1.99701L9.08 1.8ZM17.36 17.36L17.5597 17.3713L17.5717 17.16H17.36V17.36ZM15.92 17.36V17.16H15.7085L15.7203 17.3712L15.92 17.36ZM14.3918 22.032C12.4967 22.7194 10.6868 22.1086 9.11834 20.7173C7.5462 19.3227 6.238 17.1586 5.38296 14.8067C4.52811 12.4552 4.1343 9.93806 4.37061 7.84809C4.60728 5.75498 5.46725 4.13605 7.07503 3.48539L6.92497 3.1146C5.12275 3.84395 4.21772 5.64002 3.97314 7.80315C3.7282 9.96944 4.13689 12.5498 5.00704 14.9433C5.877 17.3364 7.2163 19.5648 8.85291 21.0165C10.4932 22.4714 12.4533 23.1606 14.5282 22.408L14.3918 22.032ZM7.07627 3.48489C8.58793 2.86133 11.7657 2.81024 14.3528 6.74979L14.6872 6.53021C11.9943 2.42976 8.61207 2.41867 6.92373 3.11511L7.07627 3.48489ZM14.52 6.84H17.02V6.44H14.52V6.84ZM17.2013 6.55563C15.835 3.61897 13.8017 2.37305 12.1019 1.86828C11.2552 1.61681 10.4946 1.55011 9.94515 1.54625C9.67025 1.54433 9.44761 1.55813 9.29267 1.57258C9.21519 1.57981 9.15457 1.58721 9.11276 1.5929C9.09185 1.59575 9.07563 1.59817 9.06435 1.59993C9.05871 1.60081 9.0543 1.60152 9.05116 1.60204C9.04959 1.6023 9.04833 1.60251 9.04739 1.60267C9.04692 1.60275 9.04654 1.60282 9.04623 1.60287C9.04607 1.6029 9.0459 1.60293 9.04582 1.60294C9.04567 1.60297 9.04554 1.60299 9.08 1.8C9.11446 1.99701 9.11437 1.99702 9.1143 1.99704C9.1143 1.99704 9.11425 1.99705 9.11425 1.99704C9.11427 1.99704 9.11436 1.99703 9.11453 1.997C9.11487 1.99694 9.11552 1.99683 9.11649 1.99667C9.11842 1.99635 9.1216 1.99583 9.12599 1.99515C9.13478 1.99378 9.14843 1.99173 9.1667 1.98925C9.20324 1.98427 9.25825 1.97753 9.32983 1.97085C9.47302 1.9575 9.68225 1.94442 9.94235 1.94624C10.4629 1.94989 11.1848 2.01319 11.9881 2.25172C13.5883 2.72695 15.525 3.90103 16.8387 6.72437L17.2013 6.55563ZM9.08 1.8C9.06022 1.60098 9.06007 1.601 9.05988 1.60101C9.05979 1.60102 9.05958 1.60104 9.0594 1.60106C9.05902 1.6011 9.05855 1.60115 9.05798 1.60121C9.05684 1.60133 9.05532 1.60149 9.05341 1.6017C9.04958 1.60212 9.04423 1.60274 9.03739 1.60357C9.02371 1.60523 9.00409 1.60777 8.97893 1.61143C8.92861 1.61874 8.85608 1.6305 8.7645 1.6486C8.58141 1.68479 8.32185 1.74637 8.0113 1.84844C7.3905 2.05248 6.56345 2.41916 5.73629 3.07035C4.0738 4.37917 2.44 6.8144 2.44 11.3H2.84C2.84 6.9256 4.4262 4.61083 5.98372 3.38464C6.76655 2.76834 7.5495 2.42127 8.1362 2.22844C8.4294 2.13207 8.67297 2.07443 8.84206 2.04101C8.92658 2.0243 8.99241 2.01367 9.03642 2.00727C9.05843 2.00408 9.07497 2.00194 9.08566 2.00064C9.09101 1.99999 9.09489 1.99955 9.09726 1.99929C9.09844 1.99916 9.09925 1.99908 9.09967 1.99903C9.09988 1.99901 9.1 1.999 9.10002 1.999C9.10003 1.99899 9.09997 1.999 9.09997 1.999C9.09989 1.99901 9.09978 1.99902 9.08 1.8ZM2.44 11.3C2.44 20.2082 7.92855 24.2 12 24.2V23.8C8.19145 23.8 2.84 20.0318 2.84 11.3H2.44ZM12 24.2C13.0915 24.2 14.4096 23.8465 15.4936 22.8042C16.5789 21.7606 17.4076 20.0478 17.5597 17.3713L17.1603 17.3487C17.0124 19.9522 16.2111 21.5594 15.2164 22.5158C14.2204 23.4735 13.0085 23.8 12 23.8V24.2ZM17.36 17.16H15.92V17.56H17.36V17.16ZM15.7203 17.3712C15.8003 18.8005 15.7778 19.8621 15.5743 20.6234C15.375 21.3688 15.0082 21.8087 14.3919 22.032L14.5281 22.408C15.2918 22.1313 15.735 21.5712 15.9607 20.7266C16.1822 19.8979 16.1997 18.7795 16.1197 17.3488L15.7203 17.3712ZM32.4277 22.1L32.5508 22.2576L32.5515 22.2571L32.4277 22.1ZM25.6077 2.86L25.672 3.04938L25.6724 3.04924L25.6077 2.86ZM32.9877 7.32L32.8102 7.41217L32.8111 7.41393L32.9877 7.32ZM34.9077 5.7L35.0815 5.6012L35.0815 5.60104L34.9077 5.7ZM28.6877 1.52L28.658 1.71779L28.6728 1.72H28.6877V1.52ZM20.6077 9.32L20.8046 9.35478L20.8046 9.35455L20.6077 9.32ZM27.8677 24.22L27.889 24.0211L27.8879 24.021L27.8677 24.22ZM31.6077 23.5L31.5196 23.3202L31.5113 23.3248L31.6077 23.5ZM35.7277 18.46L35.9161 18.5269L35.9165 18.5258L35.7277 18.46ZM32.3045 21.9424C31.4101 22.6415 30.5226 22.9101 29.6688 22.857C28.8115 22.8037 27.966 22.4247 27.1634 21.7889C25.5542 20.5141 24.1556 18.2364 23.2436 15.6681C22.3325 13.1022 21.9182 10.2767 22.2504 7.92484C22.5825 5.57325 23.6513 3.73565 25.672 3.04938L25.5433 2.67062C23.324 3.42435 22.1978 5.43675 21.8543 7.86891C21.5108 10.3008 21.9403 13.1928 22.8667 15.8019C23.7922 18.4086 25.2248 20.7634 26.915 22.1024C27.7621 22.7735 28.6834 23.1966 29.644 23.2563C30.6083 23.3162 31.5902 23.0085 32.5508 22.2576L32.3045 21.9424ZM25.6724 3.04924C27.5025 2.42339 29.1379 3.22499 30.4099 4.35454C31.6807 5.48309 32.5471 6.90557 32.8102 7.41216L33.1652 7.22784C32.8882 6.69443 31.9946 5.22691 30.6755 4.05545C29.3574 2.88501 27.5728 1.97661 25.5429 2.67076L25.6724 3.04924ZM32.8111 7.41393C34.1209 9.87608 34.6616 12.9939 34.5329 15.7657C34.4686 17.1505 34.2375 18.4417 33.8567 19.5157C33.4749 20.5923 32.9482 21.4349 32.3038 21.9429L32.5515 22.2571C33.2771 21.6851 33.8379 20.7652 34.2337 19.6493C34.6303 18.5308 34.8667 17.1995 34.9324 15.7843C35.0638 12.9561 34.5144 9.76392 33.1642 7.22606L32.8111 7.41393ZM35.0815 5.60104C33.8666 3.46745 32.2747 2.39496 30.9819 1.85781C30.3366 1.58969 29.767 1.45533 29.3573 1.38796C29.1524 1.35426 28.9872 1.33728 28.8722 1.32871C28.8146 1.32443 28.7696 1.32225 28.7385 1.32115C28.7229 1.32059 28.7107 1.3203 28.7022 1.32016C28.698 1.32008 28.6946 1.32004 28.6922 1.32002C28.691 1.32001 28.69 1.32001 28.6892 1.32C28.6888 1.32 28.6885 1.32 28.6883 1.32C28.6881 1.32 28.688 1.32 28.6879 1.32C28.6878 1.32 28.6877 1.32 28.6877 1.52C28.6877 1.72 28.6876 1.72 28.6875 1.72C28.6875 1.72 28.6874 1.72 28.6874 1.72C28.6874 1.72 28.6874 1.72 28.6875 1.72C28.6877 1.72 28.6881 1.72 28.6887 1.72001C28.69 1.72002 28.6922 1.72004 28.6953 1.7201C28.7014 1.7202 28.7111 1.72043 28.7243 1.72089C28.7505 1.72183 28.7903 1.72373 28.8425 1.72761C28.9467 1.73538 29.1001 1.75105 29.2924 1.78266C29.6771 1.84591 30.2162 1.97281 30.8284 2.22719C32.0507 2.73504 33.5687 3.75255 34.7339 5.79896L35.0815 5.60104ZM28.6877 1.52C28.7173 1.32221 28.7171 1.32218 28.717 1.32216C28.7169 1.32214 28.7167 1.32211 28.7165 1.32208C28.7161 1.32203 28.7156 1.32196 28.7151 1.32188C28.7139 1.32171 28.7124 1.32149 28.7104 1.32122C28.7066 1.32069 28.7011 1.31995 28.6942 1.31907C28.6803 1.31729 28.6603 1.3149 28.6346 1.31221C28.5831 1.30685 28.5088 1.30033 28.4142 1.29532C28.2253 1.28529 27.9554 1.28125 27.6275 1.30456C26.9722 1.35117 26.0815 1.50732 25.1406 1.94625C23.247 2.82958 21.1906 4.83902 20.4107 9.28545L20.8046 9.35455C21.5648 5.02098 23.5483 3.13042 25.3097 2.30875C26.1963 1.89518 27.0369 1.74758 27.6559 1.70356C27.9652 1.68156 28.2183 1.68549 28.393 1.69476C28.4804 1.69939 28.548 1.70535 28.5931 1.71006C28.6156 1.71241 28.6326 1.71445 28.6435 1.71584C28.649 1.71654 28.653 1.71708 28.6554 1.71742C28.6566 1.71759 28.6574 1.71771 28.6579 1.71777C28.6581 1.7178 28.6582 1.71782 28.6582 1.71782C28.6583 1.71783 28.6582 1.71782 28.6582 1.71782C28.6581 1.71781 28.658 1.71779 28.6877 1.52ZM20.4107 9.28522C19.6323 13.693 20.5715 17.3771 22.1615 20.0084C23.745 22.629 25.9921 24.2303 27.8474 24.419L27.8879 24.021C26.2032 23.8497 24.0504 22.361 22.5038 19.8016C20.9638 17.2529 20.043 13.667 20.8046 9.35478L20.4107 9.28522ZM27.8463 24.4189C28.9997 24.5424 30.4622 24.3583 31.704 23.6752L31.5113 23.3248C30.3531 23.9617 28.9756 24.1376 27.889 24.0211L27.8463 24.4189ZM31.6077 23.5C31.6956 23.6796 31.6957 23.6796 31.6958 23.6796C31.6958 23.6795 31.6959 23.6795 31.696 23.6794C31.6962 23.6793 31.6964 23.6792 31.6967 23.6791C31.6972 23.6788 31.698 23.6785 31.6988 23.678C31.7006 23.6771 31.7031 23.6759 31.7062 23.6743C31.7124 23.6712 31.7212 23.6667 31.7325 23.6607C31.7552 23.6488 31.7879 23.6313 31.8296 23.6078C31.9128 23.5609 32.0319 23.4904 32.1782 23.3945C32.4708 23.2027 32.873 22.9091 33.316 22.4993C34.2021 21.6796 35.2532 20.3934 35.9161 18.5269L35.5392 18.3931C34.9021 20.1866 33.8932 21.4204 33.0443 22.2057C32.6199 22.5984 32.2357 22.8785 31.959 23.0599C31.8206 23.1506 31.7092 23.2165 31.6332 23.2593C31.5952 23.2807 31.566 23.2964 31.5467 23.3065C31.5371 23.3115 31.53 23.3152 31.5254 23.3175C31.5231 23.3187 31.5215 23.3195 31.5206 23.3199C31.5201 23.3202 31.5198 23.3203 31.5197 23.3204C31.5196 23.3204 31.5196 23.3204 31.5196 23.3204C31.5196 23.3204 31.5196 23.3204 31.5196 23.3204C31.5197 23.3204 31.5197 23.3204 31.6077 23.5ZM35.9165 18.5258C37.7775 13.1856 36.6069 8.28578 35.0815 5.6012L34.7338 5.7988C36.2084 8.39422 37.3578 13.1744 35.5388 18.3942L35.9165 18.5258ZM51.1213 1.8V1.6H50.9223L50.9213 1.79896L51.1213 1.8ZM51.0213 21.12L50.8376 21.1991L51.2212 21.121L51.0213 21.12ZM42.7013 1.8L42.8849 1.72089L42.8329 1.6H42.7013V1.8ZM41.0612 1.8V1.6H40.8613V1.8H41.0612ZM41.0612 24H40.8613V24.2H41.0612V24ZM42.0612 24V24.2H42.2612V24H42.0612ZM42.0612 6.22L42.2443 6.13948L41.8613 6.22H42.0612ZM49.8813 24L49.6982 24.0805L49.7842 24.2762L49.9738 24.1773L49.8813 24ZM52.1813 22.8L52.2738 22.9773L52.3813 22.9212V22.8H52.1813ZM52.1813 1.8H52.3813V1.6H52.1813V1.8ZM50.9213 1.79896L50.8213 21.119L51.2212 21.121L51.3212 1.80103L50.9213 1.79896ZM51.2049 21.0409L42.8849 1.72089L42.5176 1.8791L50.8376 21.1991L51.2049 21.0409ZM42.7013 1.6H41.0612V2H42.7013V1.6ZM40.8613 1.8V24H41.2612V1.8H40.8613ZM41.0612 24.2H42.0612V23.8H41.0612V24.2ZM42.2612 24V6.22H41.8613V24H42.2612ZM41.8782 6.30052L49.6982 24.0805L50.0643 23.9195L42.2443 6.13948L41.8782 6.30052ZM49.9738 24.1773L52.2738 22.9773L52.0887 22.6227L49.7887 23.8227L49.9738 24.1773ZM52.3813 22.8V1.8H51.9813V22.8H52.3813ZM52.1813 1.6H51.1213V2H52.1813V1.6ZM70.6755 1.8H70.8755V1.6H70.6755V1.8ZM54.6755 1.8V1.6H54.4755V1.8H54.6755ZM54.6755 2.88H54.4755V3.08H54.6755V2.88ZM61.6755 2.88H61.8755V2.68H61.6755V2.88ZM61.6755 22.68H61.4755V22.7876L61.5653 22.8469L61.6755 22.68ZM63.6755 24L63.5653 24.1669L63.8755 24.3716V24H63.6755ZM63.6755 2.88V2.68H63.4755V2.88H63.6755ZM70.6555 2.88V3.08H70.844L70.8551 2.89174L70.6555 2.88ZM70.6755 1.6H54.6755V2H70.6755V1.6ZM54.4755 1.8V2.88H54.8755V1.8H54.4755ZM54.6755 3.08H61.6755V2.68H54.6755V3.08ZM61.4755 2.88V22.68H61.8755V2.88H61.4755ZM61.5653 22.8469L63.5653 24.1669L63.7856 23.8331L61.7856 22.5131L61.5653 22.8469ZM63.8755 24V2.88H63.4755V24H63.8755ZM63.6755 3.08H70.6555V2.68H63.6755V3.08ZM70.8551 2.89174C70.8755 2.54475 70.8755 2.13854 70.8755 1.8H70.4755C70.4755 2.14146 70.4754 2.53525 70.4558 2.86826L70.8551 2.89174ZM76.9997 23.12H76.7997V23.32H76.9997V23.12ZM76.9997 13.58V13.38H76.7997V13.58H76.9997ZM84.8197 13.58V13.78H85.0197V13.58H84.8197ZM84.8197 12.72H85.0197V12.52H84.8197V12.72ZM76.9997 12.72H76.7997V12.92H76.9997V12.72ZM76.9997 2.72V2.52H76.7997V2.72H76.9997ZM87.5997 2.72V2.92H87.7997V2.72H87.5997ZM87.5997 1.8H87.7997V1.6H87.5997V1.8ZM74.8397 1.8V1.6H74.6397V1.8H74.8397ZM74.8397 22.66H74.6397V22.7713L74.7343 22.83L74.8397 22.66ZM76.9997 24L76.8943 24.17L76.9427 24.2H76.9997V24ZM87.6797 24V24.2H87.8797V24H87.6797ZM87.6797 23.12H87.8797V22.92H87.6797V23.12ZM77.1997 23.12V13.58H76.7997V23.12H77.1997ZM76.9997 13.78H84.8197V13.38H76.9997V13.78ZM85.0197 13.58V12.72H84.6197V13.58H85.0197ZM84.8197 12.52H76.9997V12.92H84.8197V12.52ZM77.1997 12.72V2.72H76.7997V12.72H77.1997ZM76.9997 2.92H87.5997V2.52H76.9997V2.92ZM87.7997 2.72V1.8H87.3997V2.72H87.7997ZM87.5997 1.6H74.8397V2H87.5997V1.6ZM74.6397 1.8V22.66H75.0397V1.8H74.6397ZM74.7343 22.83L76.8943 24.17L77.1051 23.83L74.9451 22.49L74.7343 22.83ZM76.9997 24.2H87.6797V23.8H76.9997V24.2ZM87.8797 24V23.12H87.4797V24H87.8797ZM87.6797 22.92H76.9997V23.32H87.6797V22.92ZM101.219 1.8V1.6H101.02L101.019 1.79896L101.219 1.8ZM101.119 21.12L100.935 21.1991L101.319 21.121L101.119 21.12ZM92.7989 1.8L92.9826 1.72089L92.9305 1.6H92.7989V1.8ZM91.1589 1.8V1.6H90.9589V1.8H91.1589ZM91.1589 24H90.9589V24.2H91.1589V24ZM92.1589 24V24.2H92.3589V24H92.1589ZM92.1589 6.22L92.342 6.13948L91.9589 6.22H92.1589ZM99.9789 24L99.7958 24.0805L99.8819 24.2762L100.071 24.1773L99.9789 24ZM102.279 22.8L102.371 22.9773L102.479 22.9212V22.8H102.279ZM102.279 1.8H102.479V1.6H102.279V1.8ZM101.019 1.79896L100.919 21.119L101.319 21.121L101.419 1.80103L101.019 1.79896ZM101.303 21.0409L92.9826 1.72089L92.6152 1.8791L100.935 21.1991L101.303 21.0409ZM92.7989 1.6H91.1589V2H92.7989V1.6ZM90.9589 1.8V24H91.3589V1.8H90.9589ZM91.1589 24.2H92.1589V23.8H91.1589V24.2ZM92.3589 24V6.22H91.9589V24H92.3589ZM91.9758 6.30052L99.7958 24.0805L100.162 23.9195L92.342 6.13948L91.9758 6.30052ZM100.071 24.1773L102.371 22.9773L102.186 22.6227L99.8864 23.8227L100.071 24.1773ZM102.479 22.8V1.8H102.079V22.8H102.479ZM102.279 1.6H101.219V2H102.279V1.6ZM120.773 1.8H120.973V1.6H120.773V1.8ZM104.773 1.8V1.6H104.573V1.8H104.773ZM104.773 2.88H104.573V3.08H104.773V2.88ZM111.773 2.88H111.973V2.68H111.773V2.88ZM111.773 22.68H111.573V22.7876L111.663 22.8469L111.773 22.68ZM113.773 24L113.663 24.1669L113.973 24.3716V24H113.773ZM113.773 2.88V2.68H113.573V2.88H113.773ZM120.753 2.88V3.08H120.942L120.953 2.89174L120.753 2.88ZM120.773 1.6H104.773V2H120.773V1.6ZM104.573 1.8V2.88H104.973V1.8H104.573ZM104.773 3.08H111.773V2.68H104.773V3.08ZM111.573 2.88V22.68H111.973V2.88H111.573ZM111.663 22.8469L113.663 24.1669L113.883 23.8331L111.883 22.5131L111.663 22.8469ZM113.973 24V2.88H113.573V24H113.973ZM113.773 3.08H120.753V2.68H113.773V3.08ZM120.953 2.89174C120.973 2.54475 120.973 2.13854 120.973 1.8H120.573C120.573 2.14146 120.573 2.53525 120.553 2.86826L120.953 2.89174ZM123.557 10.14L123.357 10.1479L123.358 10.1486L123.557 10.14ZM135.337 12.14L135.477 11.9964L135.476 11.9956L135.337 12.14ZM125.977 18.5L126.177 18.4992L126.177 18.3H125.977V18.5ZM123.677 18.5V18.3H123.477V18.5H123.677ZM125.857 9.36L126.054 9.32176L126.053 9.32052L125.857 9.36ZM134.337 6.28L134.141 6.31965L134.174 6.48H134.337V6.28ZM137.037 6.28V6.48H137.279L137.234 6.24258L137.037 6.28ZM131.037 1.6C128.298 1.6 126.328 2.69693 125.069 4.32515C123.815 5.94705 123.276 8.08095 123.357 10.1479L123.757 10.1321C123.679 8.13905 124.2 6.10295 125.386 4.56985C126.566 3.04307 128.417 2 131.037 2V1.6ZM123.358 10.1486C123.384 10.7635 123.57 11.2455 123.893 11.6096C124.213 11.9713 124.654 12.1991 125.16 12.3359C126.165 12.6073 127.486 12.5348 128.825 12.3812C130.185 12.2252 131.553 11.9874 132.73 11.9004C133.313 11.8572 133.833 11.8531 134.26 11.9133C134.691 11.974 135.003 12.0965 135.199 12.2844L135.476 11.9956C135.192 11.7235 134.782 11.5829 134.316 11.5172C133.847 11.4511 133.295 11.4575 132.7 11.5015C131.519 11.5889 130.1 11.8323 128.78 11.9838C127.438 12.1377 126.187 12.199 125.264 11.9497C124.807 11.8262 124.445 11.6301 124.192 11.3442C123.94 11.0607 123.781 10.6715 123.757 10.1313L123.358 10.1486ZM135.198 12.2836C135.777 12.8444 135.966 13.7834 135.85 14.9371C135.734 16.083 135.32 17.3931 134.755 18.6347C134.191 19.8755 133.482 21.0356 132.787 21.8821C132.438 22.3056 132.098 22.6452 131.785 22.8772C131.467 23.1126 131.201 23.22 130.997 23.22V23.62C131.328 23.62 131.68 23.453 132.023 23.1985C132.371 22.9406 132.735 22.5747 133.096 22.1361C133.817 21.2581 134.544 20.067 135.119 18.8003C135.695 17.5344 136.126 16.1807 136.248 14.9773C136.368 13.7816 136.188 12.6856 135.477 11.9964L135.198 12.2836ZM130.997 23.22C129.782 23.22 128.882 22.9215 128.213 22.4839C127.543 22.0456 127.093 21.46 126.79 20.8688C126.487 20.2768 126.333 19.6825 126.256 19.2346C126.217 19.0111 126.197 18.8253 126.187 18.6961C126.182 18.6316 126.18 18.5813 126.179 18.5477C126.178 18.5309 126.178 18.5182 126.178 18.51C126.177 18.5059 126.177 18.503 126.177 18.5011C126.177 18.5002 126.177 18.4996 126.177 18.4993C126.177 18.4991 126.177 18.499 126.177 18.499C126.177 18.499 126.177 18.499 126.177 18.499C126.177 18.4991 126.177 18.4992 125.977 18.5C125.777 18.5008 125.777 18.5009 125.777 18.5011C125.777 18.5011 125.777 18.5013 125.777 18.5014C125.777 18.5017 125.777 18.5021 125.777 18.5025C125.777 18.5034 125.777 18.5045 125.777 18.506C125.777 18.5089 125.777 18.513 125.778 18.5182C125.778 18.5286 125.778 18.5436 125.779 18.5628C125.78 18.6013 125.783 18.6567 125.789 18.7267C125.799 18.8666 125.82 19.0652 125.862 19.3029C125.944 19.7775 126.108 20.4132 126.434 21.0512C126.762 21.69 127.254 22.3344 127.994 22.8186C128.735 23.3035 129.713 23.62 130.997 23.62V23.22ZM125.977 18.3H123.677V18.7H125.977V18.3ZM123.477 18.5C123.477 18.8523 123.513 20.2754 124.393 21.6148C125.282 22.969 127.01 24.2 130.317 24.2V23.8C127.125 23.8 125.532 22.621 124.727 21.3952C123.912 20.1546 123.877 18.8277 123.877 18.5H123.477ZM130.317 24.2C132.275 24.2 134.345 22.9923 135.917 21.2254C137.491 19.4553 138.597 17.0898 138.597 14.72H138.197C138.197 16.9702 137.143 19.2447 135.618 20.9596C134.09 22.6777 132.12 23.8 130.317 23.8V24.2ZM138.597 14.72C138.597 13.9091 138.402 13.2505 138.05 12.7196C137.698 12.1897 137.198 11.8003 136.61 11.512C135.442 10.9392 133.895 10.7516 132.364 10.6628C130.813 10.5729 129.291 10.5837 128.096 10.424C127.502 10.3445 127.014 10.2251 126.661 10.042C126.314 9.86196 126.114 9.63013 126.054 9.32176L125.661 9.39824C125.751 9.85987 126.055 10.1787 126.476 10.397C126.891 10.6122 127.434 10.739 128.043 10.8204C129.256 10.9825 130.832 10.9746 132.341 11.0622C133.87 11.1509 135.345 11.3371 136.434 11.8711C136.975 12.1363 137.413 12.4836 137.717 12.9408C138.019 13.397 138.197 13.9759 138.197 14.72H138.597ZM126.053 9.32052C125.761 7.8685 125.928 6.25018 126.468 5.00197C127.011 3.74959 127.902 2.92 129.037 2.92V2.52C127.673 2.52 126.674 3.52041 126.101 4.84303C125.527 6.16982 125.354 7.8715 125.661 9.39948L126.053 9.32052ZM129.037 2.92C131.267 2.92 132.537 3.78315 133.252 4.62913C133.612 5.05522 133.836 5.48149 133.969 5.80067C134.035 5.9601 134.079 6.09225 134.106 6.18347C134.119 6.22905 134.128 6.26435 134.134 6.28763C134.137 6.29928 134.139 6.30791 134.14 6.31332C134.141 6.31602 134.141 6.31792 134.141 6.31898C134.141 6.31952 134.141 6.31984 134.141 6.31995C134.141 6.32001 134.141 6.32001 134.141 6.31996C134.141 6.31993 134.141 6.31985 134.141 6.31984C134.141 6.31975 134.141 6.31965 134.337 6.28C134.533 6.24035 134.533 6.24022 134.533 6.24008C134.533 6.24001 134.533 6.23985 134.533 6.23972C134.533 6.23945 134.533 6.23913 134.533 6.23875C134.533 6.238 134.533 6.23703 134.532 6.23586C134.532 6.2335 134.531 6.23029 134.53 6.22626C134.529 6.21819 134.526 6.20684 134.522 6.1924C134.515 6.16354 134.505 6.12235 134.489 6.07059C134.459 5.96712 134.411 5.82115 134.338 5.64683C134.193 5.29851 133.95 4.83478 133.558 4.37087C132.768 3.43685 131.387 2.52 129.037 2.52V2.92ZM134.337 6.48H137.037V6.08H134.337V6.48ZM137.234 6.24258C137.188 6.0025 137.032 5.59602 136.769 5.12783C136.505 4.65544 136.125 4.10743 135.621 3.58608C134.613 2.54226 133.104 1.6 131.037 1.6V2C132.97 2 134.381 2.87774 135.333 3.86392C135.81 4.35757 136.17 4.87706 136.42 5.32342C136.673 5.77397 136.807 6.1375 136.841 6.31742L137.234 6.24258Z" />
</svg>
