<svg width="178" height="60" viewBox="0 0 178 60" fill="black" xmlns="http://www.w3.org/2000/svg">
  <path d="M14.46 22.22C6.52 25.1 0.18 6.06 7 3.3C8.6 2.64 11.88 2.62 14.52 6.64H17.02C14.34 0.88 9.08 1.8 9.08 1.8C9.08 1.8 2.64 2.44 2.64 11.3C2.64 20.12 8.06 24 12 24C14.1 24 17.06 22.64 17.36 17.36H15.92C16.08 20.22 15.84 21.72 14.46 22.22ZM24.4677 2.52H26.2877C30.4677 2.52 31.6277 6.46 31.6277 8.2C31.6277 12.56 27.4677 12.58 26.3277 12.78C25.6077 12.9 24.4677 12.9 24.4677 12.9V2.52ZM29.3277 12.82C29.3277 12.82 30.4877 12.18 30.8677 11.88C31.7877 11.14 33.2677 9.86 33.2677 6.4C33.2677 4 31.3277 1.8 28.6277 1.8H22.5677V24H24.4677V13.78C24.4677 13.78 27.4077 13.34 28.5277 14.48C29.9877 15.92 32.2677 24 34.5277 24L35.5277 22.84C33.6677 22.84 31.1277 12.82 29.3277 12.82ZM41.8044 23.12V13.58H49.6244V12.72H41.8044V2.72H52.4044V1.8H39.6444V22.66L41.8044 24H52.4844V23.12H41.8044ZM65.5236 16.38H57.9636L62.1836 5.04L65.5236 16.38ZM57.5036 17.62H65.8836L67.6836 24L69.8836 23.2L63.3036 1.8L62.2036 2.5L53.9636 23.58L55.0636 24L57.5036 17.62ZM86.613 1.8H70.613V2.88H77.613V22.68L79.613 24V2.88H86.593C86.613 2.54 86.613 2.14 86.613 1.8ZM92.8572 24V1.8H90.9772V24H92.8572ZM108.172 1.8L108.072 21.12L99.752 1.8H98.112V24H99.112V6.22L106.932 24L109.232 22.8V1.8H108.172ZM127.806 16H120.666V17.1C120.666 17.1 126.346 17.02 126.346 17.34C126.526 20.2 126.286 21.7 124.906 22.2C116.946 25.1 110.626 6.04 117.446 3.28C119.046 2.64 122.306 2.6 124.966 6.64H127.466C124.786 0.88 119.526 1.8 119.526 1.8C119.526 1.8 113.066 2.42 113.066 11.28C113.066 20.1 118.486 24 122.426 24C124.486 24 127.346 22.68 127.766 17.7C127.866 17.08 127.806 16 127.806 16ZM14.46 54.22C6.52 57.1 0.18 38.06 7 35.3C8.6 34.64 11.88 34.62 14.52 38.64H17.02C14.34 32.88 9.08 33.8 9.08 33.8C9.08 33.8 2.64 34.44 2.64 43.3C2.64 52.12 8.06 56 12 56C14.1 56 17.06 54.64 17.36 49.36H15.92C16.08 52.22 15.84 53.72 14.46 54.22ZM32.4277 54.1C25.0077 59.9 17.1277 37.74 25.6077 34.86C29.4677 33.54 32.4477 38.28 32.9877 39.32C35.6477 44.32 35.1677 51.94 32.4277 54.1ZM34.9077 37.7C32.5277 33.52 28.6877 33.52 28.6877 33.52C28.6877 33.52 22.1477 32.54 20.6077 41.32C19.0677 50.04 24.3277 55.86 27.8677 56.22C28.9877 56.34 30.4077 56.16 31.6077 55.5C31.6077 55.5 34.4277 54.12 35.7277 50.46C37.5677 45.18 36.4077 40.34 34.9077 37.7ZM56.7013 33.8L49.6813 52.82L42.5813 33.8H40.5013V56H41.5813V38.02L48.5813 56L49.9413 55.48L56.6013 37.5L56.5013 56H57.6813V33.8H56.7013ZM67.8838 45.12C67.0638 45.2 65.1638 45.1 65.1638 45.06V34.5H66.9638C71.1638 34.5 72.5038 37.32 72.5038 39.8C72.5038 43.94 69.0038 45.02 67.8838 45.12ZM69.3238 33.8H63.2638V56H65.1638V46.5C65.1638 46.5 65.6038 46.42 65.8238 46.4C69.7438 45.92 71.2638 44.36 71.8438 43.82C71.8438 43.82 73.9238 41.78 73.9038 38.46C73.8838 35.96 72.0238 33.8 69.3238 33.8ZM88.4042 54.1C80.9842 59.9 73.1042 37.74 81.5842 34.86C85.4442 33.54 88.4242 38.28 88.9642 39.32C91.6242 44.32 91.1442 51.94 88.4042 54.1ZM90.8842 37.7C88.5042 33.52 84.6642 33.52 84.6642 33.52C84.6642 33.52 78.1242 32.54 76.5842 41.32C75.0442 50.04 80.3042 55.86 83.8442 56.22C84.9642 56.34 86.3842 56.16 87.5842 55.5C87.5842 55.5 90.4042 54.12 91.7042 50.46C93.5442 45.18 92.3842 40.34 90.8842 37.7ZM107.098 33.8L106.998 53.12L98.6778 33.8H97.0378V56H98.0378V38.22L105.858 56L108.158 54.8V33.8H107.098ZM115.652 55.12V45.58H123.472V44.72H115.652V34.72H126.252V33.8H113.492V54.66L115.652 56H126.332V55.12H115.652ZM139.871 33.8L139.771 53.12L131.451 33.8H129.811V56H130.811V38.22L138.631 56L140.931 54.8V33.8H139.871ZM159.425 33.8H143.425V34.88H150.425V54.68L152.425 56V34.88H159.405C159.425 34.54 159.425 34.14 159.425 33.8ZM169.69 33.8C164.33 33.8 162.05 38.08 162.21 42.14C162.41 46.76 172.07 42.3 173.99 44.14C176.57 46.64 171.79 55.42 169.65 55.42C164.65 55.42 164.63 50.5 164.63 50.5H162.33C162.33 51.18 162.47 56 168.97 56C172.73 56 177.05 51.34 177.05 46.72C177.05 40.5 165.11 44.44 164.51 41.36C163.91 38.38 165.19 34.72 167.69 34.72C172.27 34.72 172.99 38.28 172.99 38.28H175.69C175.53 37.44 173.69 33.8 169.69 33.8Z" />
  <path d="M14.46 22.22L14.3919 22.032L14.3918 22.032L14.46 22.22ZM7 3.3L7.07503 3.4854L7.07627 3.48489L7 3.3ZM14.52 6.64L14.3528 6.74979L14.4121 6.84H14.52V6.64ZM17.02 6.64V6.84H17.3336L17.2013 6.55563L17.02 6.64ZM9.08 1.8L9.09978 1.99902L9.10716 1.99829L9.11446 1.99701L9.08 1.8ZM17.36 17.36L17.5597 17.3713L17.5717 17.16H17.36V17.36ZM15.92 17.36V17.16H15.7085L15.7203 17.3712L15.92 17.36ZM14.3918 22.032C12.4967 22.7194 10.6868 22.1086 9.11834 20.7173C7.5462 19.3227 6.238 17.1586 5.38296 14.8067C4.52811 12.4552 4.1343 9.93806 4.37061 7.84809C4.60728 5.75498 5.46725 4.13605 7.07503 3.48539L6.92497 3.1146C5.12275 3.84395 4.21772 5.64002 3.97314 7.80315C3.7282 9.96944 4.13689 12.5498 5.00704 14.9433C5.877 17.3364 7.2163 19.5648 8.85291 21.0165C10.4932 22.4714 12.4533 23.1606 14.5282 22.408L14.3918 22.032ZM7.07627 3.48489C8.58793 2.86133 11.7657 2.81024 14.3528 6.74979L14.6872 6.53021C11.9943 2.42976 8.61207 2.41867 6.92373 3.11511L7.07627 3.48489ZM14.52 6.84H17.02V6.44H14.52V6.84ZM17.2013 6.55563C15.835 3.61897 13.8017 2.37305 12.1019 1.86828C11.2552 1.61681 10.4946 1.55011 9.94515 1.54625C9.67025 1.54433 9.44761 1.55813 9.29267 1.57258C9.21519 1.57981 9.15457 1.58721 9.11276 1.5929C9.09185 1.59575 9.07563 1.59817 9.06435 1.59993C9.05871 1.60081 9.0543 1.60152 9.05116 1.60204C9.04959 1.6023 9.04833 1.60251 9.04739 1.60267C9.04692 1.60275 9.04654 1.60282 9.04623 1.60287C9.04607 1.6029 9.0459 1.60293 9.04582 1.60294C9.04567 1.60297 9.04554 1.60299 9.08 1.8C9.11446 1.99701 9.11437 1.99702 9.1143 1.99704C9.1143 1.99704 9.11425 1.99705 9.11425 1.99704C9.11427 1.99704 9.11436 1.99703 9.11453 1.997C9.11487 1.99694 9.11552 1.99683 9.11649 1.99667C9.11842 1.99635 9.1216 1.99583 9.12599 1.99515C9.13478 1.99378 9.14843 1.99173 9.1667 1.98925C9.20324 1.98427 9.25825 1.97753 9.32983 1.97085C9.47302 1.9575 9.68225 1.94442 9.94235 1.94624C10.4629 1.94989 11.1848 2.01319 11.9881 2.25172C13.5883 2.72695 15.525 3.90103 16.8387 6.72437L17.2013 6.55563ZM9.08 1.8C9.06022 1.60098 9.06007 1.601 9.05988 1.60101C9.05979 1.60102 9.05958 1.60104 9.0594 1.60106C9.05902 1.6011 9.05855 1.60115 9.05798 1.60121C9.05684 1.60133 9.05532 1.60149 9.05341 1.6017C9.04958 1.60212 9.04423 1.60274 9.03739 1.60357C9.02371 1.60523 9.00409 1.60777 8.97893 1.61143C8.92861 1.61874 8.85608 1.6305 8.7645 1.6486C8.58141 1.68479 8.32185 1.74637 8.0113 1.84844C7.3905 2.05248 6.56345 2.41916 5.73629 3.07035C4.0738 4.37917 2.44 6.8144 2.44 11.3H2.84C2.84 6.9256 4.4262 4.61083 5.98372 3.38464C6.76655 2.76834 7.5495 2.42127 8.1362 2.22844C8.4294 2.13207 8.67297 2.07443 8.84206 2.04101C8.92658 2.0243 8.99241 2.01367 9.03642 2.00727C9.05843 2.00408 9.07497 2.00194 9.08566 2.00064C9.09101 1.99999 9.09489 1.99955 9.09726 1.99929C9.09844 1.99916 9.09925 1.99908 9.09967 1.99903C9.09988 1.99901 9.1 1.999 9.10002 1.999C9.10003 1.99899 9.09997 1.999 9.09997 1.999C9.09989 1.99901 9.09978 1.99902 9.08 1.8ZM2.44 11.3C2.44 20.2082 7.92855 24.2 12 24.2V23.8C8.19145 23.8 2.84 20.0318 2.84 11.3H2.44ZM12 24.2C13.0915 24.2 14.4096 23.8465 15.4936 22.8042C16.5789 21.7606 17.4076 20.0478 17.5597 17.3713L17.1603 17.3487C17.0124 19.9522 16.2111 21.5594 15.2164 22.5158C14.2204 23.4735 13.0085 23.8 12 23.8V24.2ZM17.36 17.16H15.92V17.56H17.36V17.16ZM15.7203 17.3712C15.8003 18.8005 15.7778 19.8621 15.5743 20.6234C15.375 21.3688 15.0082 21.8087 14.3919 22.032L14.5281 22.408C15.2918 22.1313 15.735 21.5712 15.9607 20.7266C16.1822 19.8979 16.1997 18.7795 16.1197 17.3488L15.7203 17.3712ZM24.4677 2.52V2.32H24.2677V2.52H24.4677ZM26.3277 12.78L26.3605 12.9773L26.3622 12.977L26.3277 12.78ZM24.4677 12.9H24.2677V13.1H24.4677V12.9ZM29.3277 12.82L29.231 12.6449L29.3277 13.02V12.82ZM30.8677 11.88L30.9916 12.037L30.993 12.0358L30.8677 11.88ZM22.5677 1.8V1.6H22.3677V1.8H22.5677ZM22.5677 24H22.3677V24.2H22.5677V24ZM24.4677 24V24.2H24.6677V24H24.4677ZM24.4677 13.78L24.4381 13.5822L24.2677 13.6077V13.78H24.4677ZM28.5277 14.48L28.385 14.6202L28.3872 14.6224L28.5277 14.48ZM34.5277 24V24.2H34.6193L34.6791 24.1306L34.5277 24ZM35.5277 22.84L35.6791 22.9706L35.9641 22.64H35.5277V22.84ZM24.4677 2.72H26.2877V2.32H24.4677V2.72ZM26.2877 2.72C28.3026 2.72 29.579 3.66449 30.3594 4.81947C31.1464 5.98424 31.4277 7.36388 31.4277 8.2H31.8277C31.8277 7.29612 31.5289 5.83576 30.6909 4.59553C29.8463 3.34551 28.4527 2.32 26.2877 2.32V2.72ZM31.4277 8.2C31.4277 9.25692 31.176 10.036 30.7929 10.6167C30.4092 11.1983 29.8847 11.5944 29.3177 11.8701C28.1689 12.4288 26.8985 12.4768 26.2931 12.583L26.3622 12.977C26.8968 12.8832 28.2765 12.8212 29.4926 12.2299C30.1082 11.9306 30.6948 11.4917 31.1268 10.837C31.5593 10.1815 31.8277 9.32308 31.8277 8.2H31.4277ZM26.2948 12.5827C25.9477 12.6406 25.4931 12.6702 25.1197 12.6852C24.9341 12.6926 24.7708 12.6963 24.6539 12.6981C24.5954 12.6991 24.5487 12.6995 24.5166 12.6998C24.5006 12.6999 24.4882 12.6999 24.4799 12.7C24.4758 12.7 24.4727 12.7 24.4706 12.7C24.4696 12.7 24.4688 12.7 24.4683 12.7C24.4681 12.7 24.4679 12.7 24.4678 12.7C24.4677 12.7 24.4677 12.7 24.4677 12.7C24.4677 12.7 24.4677 12.7 24.4676 12.7C24.4677 12.7 24.4677 12.7 24.4677 12.9C24.4677 13.1 24.4677 13.1 24.4677 13.1C24.4677 13.1 24.4677 13.1 24.4678 13.1C24.4678 13.1 24.4679 13.1 24.4679 13.1C24.4681 13.1 24.4683 13.1 24.4687 13.1C24.4693 13.1 24.4701 13.1 24.4713 13.1C24.4736 13.1 24.4769 13.1 24.4813 13.1C24.4901 13.0999 24.5029 13.0999 24.5195 13.0998C24.5526 13.0995 24.6005 13.099 24.6602 13.0981C24.7795 13.0962 24.9462 13.0924 25.1357 13.0848C25.5122 13.0698 25.9876 13.0394 26.3605 12.9773L26.2948 12.5827ZM24.6677 12.9V2.52H24.2677V12.9H24.6677ZM29.3277 12.82C29.4243 12.9951 29.4243 12.9951 29.4243 12.9951C29.4243 12.9951 29.4243 12.9951 29.4243 12.9951C29.4244 12.9951 29.4244 12.995 29.4245 12.995C29.4247 12.9949 29.4249 12.9948 29.4252 12.9946C29.4258 12.9943 29.4266 12.9938 29.4278 12.9932C29.43 12.9919 29.4334 12.9901 29.4377 12.9877C29.4464 12.9828 29.4592 12.9757 29.4756 12.9666C29.5083 12.9484 29.5554 12.922 29.6131 12.8895C29.7284 12.8245 29.8863 12.7345 30.0562 12.6351C30.391 12.4392 30.7887 12.1972 30.9916 12.037L30.7437 11.723C30.5667 11.8628 30.1943 12.0908 29.8541 12.2899C29.6866 12.388 29.5306 12.4768 29.4166 12.5411C29.3596 12.5733 29.3131 12.5993 29.2809 12.6172C29.2648 12.6262 29.2523 12.6331 29.2438 12.6378C29.2396 12.6402 29.2364 12.6419 29.2342 12.6431C29.2331 12.6437 29.2323 12.6442 29.2318 12.6445C29.2315 12.6446 29.2313 12.6447 29.2312 12.6448C29.2311 12.6448 29.2311 12.6449 29.2311 12.6449C29.2311 12.6449 29.2311 12.6449 29.231 12.6449C29.231 12.6449 29.231 12.6449 29.3277 12.82ZM30.993 12.0358C31.4577 11.662 32.0819 11.138 32.5861 10.2596C33.0909 9.38017 33.4677 8.15989 33.4677 6.4H33.0677C33.0677 8.10011 32.7045 9.24983 32.2392 10.0604C31.7734 10.872 31.1976 11.358 30.7423 11.7242L30.993 12.0358ZM33.4677 6.4C33.4677 3.89579 31.4443 1.6 28.6277 1.6V2C31.2111 2 33.0677 4.10421 33.0677 6.4H33.4677ZM28.6277 1.6H22.5677V2H28.6277V1.6ZM22.3677 1.8V24H22.7677V1.8H22.3677ZM22.5677 24.2H24.4677V23.8H22.5677V24.2ZM24.6677 24V13.78H24.2677V24H24.6677ZM24.4677 13.78C24.4973 13.9778 24.4972 13.9778 24.4972 13.9778C24.4972 13.9778 24.4972 13.9778 24.4972 13.9778C24.4973 13.9778 24.4973 13.9778 24.4975 13.9778C24.4977 13.9777 24.4981 13.9777 24.4987 13.9776C24.4999 13.9774 24.5018 13.9771 24.5043 13.9768C24.5095 13.976 24.5173 13.9749 24.5277 13.9735C24.5485 13.9707 24.5796 13.9667 24.6198 13.9619C24.7001 13.9524 24.8168 13.9399 24.9605 13.9284C25.2483 13.9054 25.6426 13.8865 26.0702 13.9024C26.4987 13.9183 26.9546 13.969 27.3678 14.0825C27.7826 14.1966 28.1391 14.3698 28.385 14.6202L28.6703 14.3398C28.3563 14.0202 27.9252 13.8209 27.4738 13.6968C27.0207 13.5723 26.5316 13.5192 26.0851 13.5026C25.6377 13.486 25.227 13.5058 24.9286 13.5297C24.7792 13.5416 24.6574 13.5546 24.5726 13.5647C24.5302 13.5697 24.497 13.5741 24.4742 13.5771C24.4628 13.5787 24.454 13.5799 24.4479 13.5808C24.4449 13.5812 24.4425 13.5815 24.4409 13.5818C24.44 13.5819 24.4394 13.582 24.4389 13.5821C24.4387 13.5821 24.4385 13.5821 24.4384 13.5822C24.4383 13.5822 24.4382 13.5822 24.4382 13.5822C24.4381 13.5822 24.4381 13.5822 24.4677 13.78ZM28.3872 14.6224C28.5499 14.7828 28.7344 15.0474 28.9386 15.4023C29.1412 15.7542 29.3562 16.1823 29.5825 16.6606C29.8087 17.1385 30.0446 17.6629 30.2894 18.2071C30.5339 18.7505 30.7871 19.3133 31.0467 19.8651C31.5648 20.9663 32.1136 22.0353 32.679 22.8309C32.9617 23.2287 33.2544 23.5665 33.5564 23.8066C33.8581 24.0463 34.1837 24.2 34.5277 24.2V23.8C34.3066 23.8 34.0666 23.7012 33.8053 23.4934C33.5443 23.286 33.2767 22.9813 33.0051 22.5991C32.4618 21.8347 31.9256 20.7937 31.4086 19.6949C31.1507 19.1467 30.8989 18.587 30.6542 18.0429C30.4098 17.4996 30.1722 16.9715 29.9441 16.4894C29.716 16.0077 29.4957 15.5683 29.2853 15.2027C29.0766 14.8401 28.8704 14.5372 28.6681 14.3376L28.3872 14.6224ZM34.6791 24.1306L35.6791 22.9706L35.3762 22.7094L34.3762 23.8694L34.6791 24.1306ZM35.5277 22.64C35.3834 22.64 35.1909 22.5389 34.9485 22.2744C34.7129 22.0171 34.4629 21.6413 34.2017 21.1764C33.6799 20.2477 33.136 19.0054 32.5885 17.75C32.0436 16.5008 31.4951 15.2382 30.9692 14.2887C30.7065 13.8145 30.4438 13.4077 30.1836 13.1171C29.9308 12.8349 29.6432 12.62 29.3277 12.62V13.02C29.4621 13.02 29.6476 13.1182 29.8856 13.384C30.116 13.6413 30.3616 14.0174 30.6193 14.4825C31.134 15.4118 31.6742 16.6542 32.2218 17.91C32.7668 19.1596 33.3192 20.4223 33.853 21.3723C34.1196 21.8469 34.3872 22.2538 34.6536 22.5445C34.9132 22.828 35.2069 23.04 35.5277 23.04V22.64ZM41.8044 23.12H41.6044V23.32H41.8044V23.12ZM41.8044 13.58V13.38H41.6044V13.58H41.8044ZM49.6244 13.58V13.78H49.8244V13.58H49.6244ZM49.6244 12.72H49.8244V12.52H49.6244V12.72ZM41.8044 12.72H41.6044V12.92H41.8044V12.72ZM41.8044 2.72V2.52H41.6044V2.72H41.8044ZM52.4044 2.72V2.92H52.6044V2.72H52.4044ZM52.4044 1.8H52.6044V1.6H52.4044V1.8ZM39.6444 1.8V1.6H39.4444V1.8H39.6444ZM39.6444 22.66H39.4444V22.7713L39.5389 22.83L39.6444 22.66ZM41.8044 24L41.6989 24.17L41.7474 24.2H41.8044V24ZM52.4844 24V24.2H52.6844V24H52.4844ZM52.4844 23.12H52.6844V22.92H52.4844V23.12ZM42.0044 23.12V13.58H41.6044V23.12H42.0044ZM41.8044 13.78H49.6244V13.38H41.8044V13.78ZM49.8244 13.58V12.72H49.4244V13.58H49.8244ZM49.6244 12.52H41.8044V12.92H49.6244V12.52ZM42.0044 12.72V2.72H41.6044V12.72H42.0044ZM41.8044 2.92H52.4044V2.52H41.8044V2.92ZM52.6044 2.72V1.8H52.2044V2.72H52.6044ZM52.4044 1.6H39.6444V2H52.4044V1.6ZM39.4444 1.8V22.66H39.8444V1.8H39.4444ZM39.5389 22.83L41.6989 24.17L41.9098 23.83L39.7498 22.49L39.5389 22.83ZM41.8044 24.2H52.4844V23.8H41.8044V24.2ZM52.6844 24V23.12H52.2844V24H52.6844ZM52.4844 22.92H41.8044V23.32H52.4844V22.92ZM65.5236 16.38V16.58H65.791L65.7154 16.3235L65.5236 16.38ZM57.9636 16.38L57.7762 16.3102L57.6758 16.58H57.9636V16.38ZM62.1836 5.04L62.3754 4.98349L62.2057 4.40716L61.9962 4.97024L62.1836 5.04ZM57.5036 17.62V17.42H57.366L57.3168 17.5486L57.5036 17.62ZM65.8836 17.62L66.0761 17.5657L66.035 17.42H65.8836V17.62ZM67.6836 24L67.4911 24.0543L67.5496 24.2615L67.7519 24.188L67.6836 24ZM69.8836 23.2L69.9519 23.388L70.1306 23.323L70.0748 23.1412L69.8836 23.2ZM63.3036 1.8L63.4948 1.74122L63.4176 1.49037L63.1962 1.63127L63.3036 1.8ZM62.2036 2.5L62.0962 2.33127L62.0411 2.36634L62.0173 2.42719L62.2036 2.5ZM53.9636 23.58L53.7773 23.5072L53.7039 23.6949L53.8923 23.7668L53.9636 23.58ZM55.0636 24L54.9923 24.1868L55.179 24.2581L55.2504 24.0714L55.0636 24ZM65.5236 16.18H57.9636V16.58H65.5236V16.18ZM58.151 16.4498L62.371 5.10975L61.9962 4.97024L57.7762 16.3102L58.151 16.4498ZM61.9917 5.09651L65.3317 16.4365L65.7154 16.3235L62.3754 4.98349L61.9917 5.09651ZM57.5036 17.82H65.8836V17.42H57.5036V17.82ZM65.6911 17.6743L67.4911 24.0543L67.8761 23.9457L66.0761 17.5657L65.6911 17.6743ZM67.7519 24.188L69.9519 23.388L69.8152 23.012L67.6152 23.812L67.7519 24.188ZM70.0748 23.1412L63.4948 1.74122L63.1124 1.85878L69.6924 23.2588L70.0748 23.1412ZM63.1962 1.63127L62.0962 2.33127L62.311 2.66873L63.411 1.96873L63.1962 1.63127ZM62.0173 2.42719L53.7773 23.5072L54.1499 23.6528L62.3899 2.57281L62.0173 2.42719ZM53.8923 23.7668L54.9923 24.1868L55.1349 23.8132L54.0349 23.3932L53.8923 23.7668ZM55.2504 24.0714L57.6904 17.6914L57.3168 17.5486L54.8768 23.9286L55.2504 24.0714ZM86.613 1.8H86.813V1.6H86.613V1.8ZM70.613 1.8V1.6H70.413V1.8H70.613ZM70.613 2.88H70.413V3.08H70.613V2.88ZM77.613 2.88H77.813V2.68H77.613V2.88ZM77.613 22.68H77.413V22.7876L77.5028 22.8469L77.613 22.68ZM79.613 24L79.5028 24.1669L79.813 24.3716V24H79.613ZM79.613 2.88V2.68H79.413V2.88H79.613ZM86.593 2.88V3.08H86.7815L86.7926 2.89174L86.593 2.88ZM86.613 1.6H70.613V2H86.613V1.6ZM70.413 1.8V2.88H70.813V1.8H70.413ZM70.613 3.08H77.613V2.68H70.613V3.08ZM77.413 2.88V22.68H77.813V2.88H77.413ZM77.5028 22.8469L79.5028 24.1669L79.7231 23.8331L77.7231 22.5131L77.5028 22.8469ZM79.813 24V2.88H79.413V24H79.813ZM79.613 3.08H86.593V2.68H79.613V3.08ZM86.7926 2.89174C86.813 2.54475 86.813 2.13854 86.813 1.8H86.413C86.413 2.14146 86.4129 2.53525 86.3933 2.86826L86.7926 2.89174ZM92.8572 24V24.2H93.0572V24H92.8572ZM92.8572 1.8H93.0572V1.6H92.8572V1.8ZM90.9772 1.8V1.6H90.7772V1.8H90.9772ZM90.9772 24H90.7772V24.2H90.9772V24ZM93.0572 24V1.8H92.6572V24H93.0572ZM92.8572 1.6H90.9772V2H92.8572V1.6ZM90.7772 1.8V24H91.1772V1.8H90.7772ZM90.9772 24.2H92.8572V23.8H90.9772V24.2ZM108.172 1.8V1.6H107.973L107.972 1.79896L108.172 1.8ZM108.072 21.12L107.888 21.1991L108.272 21.121L108.072 21.12ZM99.752 1.8L99.9357 1.72089L99.8837 1.6H99.752V1.8ZM98.112 1.8V1.6H97.912V1.8H98.112ZM98.112 24H97.912V24.2H98.112V24ZM99.112 24V24.2H99.312V24H99.112ZM99.112 6.22L99.2951 6.13948L98.912 6.22H99.112ZM106.932 24L106.749 24.0805L106.835 24.2762L107.025 24.1773L106.932 24ZM109.232 22.8L109.325 22.9773L109.432 22.9212V22.8H109.232ZM109.232 1.8H109.432V1.6H109.232V1.8ZM107.972 1.79896L107.872 21.119L108.272 21.121L108.372 1.80103L107.972 1.79896ZM108.256 21.0409L99.9357 1.72089L99.5683 1.8791L107.888 21.1991L108.256 21.0409ZM99.752 1.6H98.112V2H99.752V1.6ZM97.912 1.8V24H98.312V1.8H97.912ZM98.112 24.2H99.112V23.8H98.112V24.2ZM99.312 24V6.22H98.912V24H99.312ZM98.929 6.30052L106.749 24.0805L107.115 23.9195L99.2951 6.13948L98.929 6.30052ZM107.025 24.1773L109.325 22.9773L109.14 22.6227L106.84 23.8227L107.025 24.1773ZM109.432 22.8V1.8H109.032V22.8H109.432ZM109.232 1.6H108.172V2H109.232V1.6ZM127.806 16L128.006 15.9889L127.995 15.8H127.806V16ZM120.666 16V15.8H120.466V16H120.666ZM120.666 17.1H120.466V17.3028L120.669 17.3L120.666 17.1ZM126.346 17.34H126.146L126.147 17.3526L126.346 17.34ZM124.906 22.2L124.838 22.012L124.838 22.0121L124.906 22.2ZM117.446 3.28L117.372 3.0943L117.371 3.09461L117.446 3.28ZM124.966 6.64L124.799 6.74998L124.858 6.84H124.966V6.64ZM127.466 6.64V6.84H127.78L127.648 6.55563L127.466 6.64ZM119.526 1.8L119.545 1.99908L119.553 1.99834L119.561 1.99701L119.526 1.8ZM127.766 17.7L127.569 17.6682L127.568 17.6756L127.567 17.6832L127.766 17.7ZM127.806 15.8H120.666V16.2H127.806V15.8ZM120.466 16V17.1H120.866V16H120.466ZM120.666 17.1C120.669 17.3 120.669 17.3 120.669 17.3C120.669 17.3 120.669 17.3 120.669 17.3C120.669 17.3 120.67 17.3 120.67 17.3C120.671 17.3 120.672 17.2999 120.673 17.2999C120.676 17.2999 120.68 17.2998 120.685 17.2998C120.696 17.2996 120.712 17.2994 120.732 17.2992C120.774 17.2987 120.835 17.298 120.912 17.2972C121.067 17.2956 121.289 17.2937 121.555 17.2925C122.086 17.29 122.795 17.29 123.503 17.3C124.213 17.31 124.918 17.3299 125.445 17.367C125.709 17.3856 125.922 17.4082 126.066 17.4345C126.14 17.448 126.185 17.4607 126.207 17.4697C126.219 17.4746 126.212 17.4737 126.2 17.4629C126.187 17.4521 126.146 17.4112 126.146 17.34H126.546C126.546 17.2488 126.494 17.1887 126.46 17.1595C126.426 17.1301 126.388 17.1116 126.358 17.0994C126.297 17.0745 126.22 17.056 126.138 17.0411C125.972 17.0106 125.741 16.9869 125.473 16.968C124.934 16.9301 124.22 16.91 123.509 16.9C122.797 16.89 122.086 16.89 121.553 16.8925C121.286 16.8938 121.064 16.8956 120.908 16.8972C120.83 16.898 120.769 16.8987 120.728 16.8992C120.707 16.8994 120.691 16.8997 120.68 16.8998C120.675 16.8999 120.67 16.8999 120.668 16.9C120.666 16.9 120.665 16.9 120.665 16.9C120.664 16.9 120.664 16.9 120.664 16.9C120.664 16.9 120.664 16.9 120.664 16.9C120.663 16.9 120.663 16.9 120.666 17.1ZM126.147 17.3526C126.237 18.7817 126.219 19.843 126.018 20.6039C125.821 21.3489 125.454 21.7887 124.838 22.012L124.974 22.388C125.738 22.1113 126.181 21.5511 126.405 20.7061C126.624 19.877 126.636 18.7583 126.546 17.3274L126.147 17.3526ZM124.838 22.0121C122.938 22.7044 121.125 22.0958 119.556 20.7056C117.983 19.3121 116.676 17.1475 115.822 14.7943C114.968 12.4416 114.576 9.92259 114.814 7.83104C115.052 5.73626 115.913 4.11606 117.521 3.46539L117.371 3.09461C115.569 3.82394 114.663 5.62123 114.417 7.78584C114.17 9.95366 114.577 12.5359 115.446 14.9307C116.314 17.325 117.653 19.5542 119.291 21.005C120.932 22.4592 122.895 23.1456 124.975 22.3879L124.838 22.0121ZM117.521 3.46569C118.281 3.16133 119.449 2.99563 120.75 3.39614C122.047 3.79562 123.491 4.76318 124.799 6.74998L125.133 6.53001C123.781 4.47682 122.266 3.44438 120.868 3.01386C119.473 2.58437 118.211 2.75867 117.372 3.0943L117.521 3.46569ZM124.966 6.84H127.466V6.44H124.966V6.84ZM127.648 6.55563C126.281 3.61897 124.248 2.37305 122.548 1.86828C121.701 1.61681 120.941 1.55011 120.391 1.54625C120.117 1.54433 119.894 1.55813 119.739 1.57258C119.661 1.57981 119.601 1.58721 119.559 1.5929C119.538 1.59575 119.522 1.59817 119.511 1.59993C119.505 1.60081 119.501 1.60152 119.497 1.60204C119.496 1.6023 119.495 1.60251 119.494 1.60267C119.493 1.60275 119.493 1.60282 119.492 1.60287C119.492 1.6029 119.492 1.60293 119.492 1.60294C119.492 1.60297 119.492 1.60299 119.526 1.8C119.561 1.99701 119.561 1.99702 119.561 1.99704C119.561 1.99704 119.561 1.99705 119.561 1.99704C119.561 1.99704 119.561 1.99703 119.561 1.997C119.561 1.99694 119.562 1.99683 119.563 1.99667C119.565 1.99635 119.568 1.99583 119.572 1.99515C119.581 1.99378 119.595 1.99173 119.613 1.98925C119.649 1.98427 119.705 1.97753 119.776 1.97085C119.919 1.9575 120.129 1.94442 120.389 1.94624C120.909 1.94989 121.631 2.01319 122.434 2.25172C124.035 2.72695 125.971 3.90103 127.285 6.72437L127.648 6.55563ZM119.526 1.8C119.507 1.60091 119.507 1.60093 119.507 1.60095C119.507 1.60096 119.507 1.60098 119.506 1.601C119.506 1.60103 119.505 1.60108 119.505 1.60114C119.504 1.60125 119.502 1.60141 119.5 1.60162C119.496 1.60202 119.491 1.60262 119.484 1.60343C119.471 1.60505 119.451 1.60753 119.426 1.6111C119.375 1.61825 119.302 1.62979 119.211 1.6476C119.027 1.68322 118.767 1.74398 118.455 1.84508C117.832 2.04718 117.003 2.41128 116.173 3.05993C114.505 4.36372 112.866 6.79416 112.866 11.28H113.266C113.266 6.90584 114.857 4.59628 116.419 3.37507C117.205 2.76122 117.99 2.41657 118.579 2.22554C118.873 2.13008 119.117 2.07319 119.287 2.04029C119.372 2.02384 119.438 2.01341 119.482 2.00715C119.504 2.00402 119.52 2.00194 119.531 2.00067C119.537 2.00003 119.54 1.9996 119.543 1.99935C119.544 1.99922 119.545 1.99914 119.545 1.9991C119.545 1.99908 119.546 1.99906 119.546 1.99906C119.546 1.99906 119.546 1.99907 119.546 1.99907C119.545 1.99907 119.545 1.99908 119.526 1.8ZM112.866 11.28C112.866 20.1877 118.354 24.2 122.426 24.2V23.8C118.618 23.8 113.266 20.0122 113.266 11.28H112.866ZM122.426 24.2C123.497 24.2 124.779 23.8568 125.847 22.864C126.917 21.8699 127.752 20.2438 127.966 17.7168L127.567 17.6832C127.36 20.1362 126.555 21.6601 125.575 22.571C124.593 23.4832 123.415 23.8 122.426 23.8V24.2ZM127.964 17.7318C128.017 17.4041 128.026 16.9647 128.024 16.6161C128.022 16.4399 128.018 16.2835 128.014 16.1711C128.012 16.1149 128.01 16.0696 128.008 16.0382C128.008 16.0225 128.007 16.0103 128.007 16.002C128.006 15.9978 128.006 15.9946 128.006 15.9924C128.006 15.9913 128.006 15.9905 128.006 15.9899C128.006 15.9896 128.006 15.9894 128.006 15.9892C128.006 15.9891 128.006 15.9891 128.006 15.989C128.006 15.989 128.006 15.989 128.006 15.9889C128.006 15.9889 128.006 15.9889 127.806 16C127.607 16.0111 127.607 16.0111 127.607 16.0111C127.607 16.0111 127.607 16.0111 127.607 16.0111C127.607 16.0111 127.607 16.0111 127.607 16.0112C127.607 16.0113 127.607 16.0115 127.607 16.0117C127.607 16.0121 127.607 16.0129 127.607 16.0138C127.607 16.0157 127.607 16.0187 127.607 16.0226C127.608 16.0303 127.608 16.042 127.609 16.057C127.61 16.0871 127.612 16.131 127.614 16.1858C127.618 16.2952 127.623 16.4476 127.624 16.6189C127.626 16.9653 127.616 17.3759 127.569 17.6682L127.964 17.7318ZM14.46 54.22L14.3919 54.032L14.3918 54.032L14.46 54.22ZM7 35.3L7.07503 35.4854L7.07627 35.4849L7 35.3ZM14.52 38.64L14.3528 38.7498L14.4121 38.84H14.52V38.64ZM17.02 38.64V38.84H17.3336L17.2013 38.5556L17.02 38.64ZM9.08 33.8L9.09978 33.999L9.10716 33.9983L9.11446 33.997L9.08 33.8ZM17.36 49.36L17.5597 49.3713L17.5717 49.16H17.36V49.36ZM15.92 49.36V49.16H15.7085L15.7203 49.3712L15.92 49.36ZM14.3918 54.032C12.4967 54.7194 10.6868 54.1086 9.11834 52.7173C7.5462 51.3227 6.238 49.1586 5.38296 46.8067C4.52811 44.4552 4.1343 41.9381 4.37061 39.8481C4.60728 37.755 5.46725 36.136 7.07503 35.4854L6.92497 35.1146C5.12275 35.8439 4.21772 37.64 3.97314 39.8032C3.7282 41.9694 4.13689 44.5498 5.00704 46.9433C5.877 49.3364 7.2163 51.5648 8.85291 53.0165C10.4932 54.4714 12.4533 55.1606 14.5282 54.408L14.3918 54.032ZM7.07627 35.4849C8.58793 34.8613 11.7657 34.8102 14.3528 38.7498L14.6872 38.5302C11.9943 34.4298 8.61207 34.4187 6.92373 35.1151L7.07627 35.4849ZM14.52 38.84H17.02V38.44H14.52V38.84ZM17.2013 38.5556C15.835 35.619 13.8017 34.3731 12.1019 33.8683C11.2552 33.6168 10.4946 33.5501 9.94515 33.5463C9.67025 33.5443 9.44761 33.5581 9.29267 33.5726C9.21519 33.5798 9.15457 33.5872 9.11276 33.5929C9.09185 33.5957 9.07563 33.5982 9.06435 33.5999C9.05871 33.6008 9.0543 33.6015 9.05116 33.602C9.04959 33.6023 9.04833 33.6025 9.04739 33.6027C9.04692 33.6028 9.04654 33.6028 9.04623 33.6029C9.04607 33.6029 9.0459 33.6029 9.04582 33.6029C9.04567 33.603 9.04554 33.603 9.08 33.8C9.11446 33.997 9.11437 33.997 9.1143 33.997C9.1143 33.997 9.11425 33.997 9.11425 33.997C9.11427 33.997 9.11436 33.997 9.11453 33.997C9.11487 33.9969 9.11552 33.9968 9.11649 33.9967C9.11842 33.9963 9.1216 33.9958 9.12599 33.9951C9.13478 33.9938 9.14843 33.9917 9.1667 33.9892C9.20324 33.9843 9.25825 33.9775 9.32983 33.9709C9.47302 33.9575 9.68225 33.9444 9.94235 33.9462C10.4629 33.9499 11.1848 34.0132 11.9881 34.2517C13.5883 34.7269 15.525 35.901 16.8387 38.7244L17.2013 38.5556ZM9.08 33.8C9.06022 33.601 9.06007 33.601 9.05988 33.601C9.05979 33.601 9.05958 33.601 9.0594 33.6011C9.05902 33.6011 9.05855 33.6012 9.05798 33.6012C9.05684 33.6013 9.05532 33.6015 9.05341 33.6017C9.04958 33.6021 9.04423 33.6027 9.03739 33.6036C9.02371 33.6052 9.00409 33.6078 8.97893 33.6114C8.92861 33.6187 8.85608 33.6305 8.7645 33.6486C8.58141 33.6848 8.32185 33.7464 8.0113 33.8484C7.3905 34.0525 6.56345 34.4192 5.73629 35.0704C4.0738 36.3792 2.44 38.8144 2.44 43.3H2.84C2.84 38.9256 4.4262 36.6108 5.98372 35.3846C6.76655 34.7683 7.5495 34.4213 8.1362 34.2284C8.4294 34.1321 8.67297 34.0744 8.84206 34.041C8.92658 34.0243 8.99241 34.0137 9.03642 34.0073C9.05843 34.0041 9.07497 34.0019 9.08566 34.0006C9.09101 34 9.09489 33.9996 9.09726 33.9993C9.09844 33.9992 9.09925 33.9991 9.09967 33.999C9.09988 33.999 9.1 33.999 9.10002 33.999C9.10003 33.999 9.09997 33.999 9.09997 33.999C9.09989 33.999 9.09978 33.999 9.08 33.8ZM2.44 43.3C2.44 52.2082 7.92855 56.2 12 56.2V55.8C8.19145 55.8 2.84 52.0318 2.84 43.3H2.44ZM12 56.2C13.0915 56.2 14.4096 55.8465 15.4936 54.8042C16.5789 53.7606 17.4076 52.0478 17.5597 49.3713L17.1603 49.3487C17.0124 51.9522 16.2111 53.5594 15.2164 54.5158C14.2204 55.4735 13.0085 55.8 12 55.8V56.2ZM17.36 49.16H15.92V49.56H17.36V49.16ZM15.7203 49.3712C15.8003 50.8005 15.7778 51.8621 15.5743 52.6234C15.375 53.3688 15.0082 53.8087 14.3919 54.032L14.5281 54.408C15.2918 54.1313 15.735 53.5712 15.9607 52.7266C16.1822 51.8979 16.1997 50.7795 16.1197 49.3488L15.7203 49.3712ZM32.4277 54.1L32.5508 54.2576L32.5515 54.2571L32.4277 54.1ZM25.6077 34.86L25.672 35.0494L25.6724 35.0492L25.6077 34.86ZM32.9877 39.32L32.8102 39.4122L32.8111 39.4139L32.9877 39.32ZM34.9077 37.7L35.0815 37.6012L35.0815 37.601L34.9077 37.7ZM28.6877 33.52L28.658 33.7178L28.6728 33.72H28.6877V33.52ZM20.6077 41.32L20.8046 41.3548L20.8046 41.3546L20.6077 41.32ZM27.8677 56.22L27.889 56.0211L27.8879 56.021L27.8677 56.22ZM31.6077 55.5L31.5196 55.3202L31.5113 55.3248L31.6077 55.5ZM35.7277 50.46L35.9161 50.5269L35.9165 50.5258L35.7277 50.46ZM32.3045 53.9424C31.4101 54.6415 30.5226 54.9101 29.6688 54.857C28.8115 54.8037 27.966 54.4247 27.1634 53.7889C25.5542 52.5141 24.1556 50.2364 23.2436 47.6681C22.3325 45.1022 21.9182 42.2767 22.2504 39.9248C22.5825 37.5732 23.6513 35.7356 25.672 35.0494L25.5433 34.6706C23.324 35.4244 22.1978 37.4367 21.8543 39.8689C21.5108 42.3008 21.9403 45.1928 22.8667 47.8019C23.7922 50.4086 25.2248 52.7634 26.915 54.1024C27.7621 54.7735 28.6834 55.1966 29.644 55.2563C30.6083 55.3162 31.5902 55.0085 32.5508 54.2576L32.3045 53.9424ZM25.6724 35.0492C27.5025 34.4234 29.1379 35.225 30.4099 36.3545C31.6807 37.4831 32.5471 38.9056 32.8102 39.4122L33.1652 39.2278C32.8882 38.6944 31.9946 37.2269 30.6755 36.0555C29.3574 34.885 27.5728 33.9766 25.5429 34.6708L25.6724 35.0492ZM32.8111 39.4139C34.1209 41.8761 34.6616 44.9939 34.5329 47.7657C34.4686 49.1505 34.2375 50.4417 33.8567 51.5157C33.4749 52.5923 32.9482 53.4349 32.3038 53.9429L32.5515 54.2571C33.2771 53.6851 33.8379 52.7652 34.2337 51.6493C34.6303 50.5308 34.8667 49.1995 34.9324 47.7843C35.0638 44.9561 34.5144 41.7639 33.1642 39.2261L32.8111 39.4139ZM35.0815 37.601C33.8666 35.4674 32.2747 34.395 30.9819 33.8578C30.3366 33.5897 29.767 33.4553 29.3573 33.388C29.1524 33.3543 28.9872 33.3373 28.8722 33.3287C28.8146 33.3244 28.7696 33.3223 28.7385 33.3211C28.7229 33.3206 28.7107 33.3203 28.7022 33.3202C28.698 33.3201 28.6946 33.32 28.6922 33.32C28.691 33.32 28.69 33.32 28.6892 33.32C28.6888 33.32 28.6885 33.32 28.6883 33.32C28.6881 33.32 28.688 33.32 28.6879 33.32C28.6878 33.32 28.6877 33.32 28.6877 33.52C28.6877 33.72 28.6876 33.72 28.6875 33.72C28.6875 33.72 28.6874 33.72 28.6874 33.72C28.6874 33.72 28.6874 33.72 28.6875 33.72C28.6877 33.72 28.6881 33.72 28.6887 33.72C28.69 33.72 28.6922 33.72 28.6953 33.7201C28.7014 33.7202 28.7111 33.7204 28.7243 33.7209C28.7505 33.7218 28.7903 33.7237 28.8425 33.7276C28.9467 33.7354 29.1001 33.751 29.2924 33.7827C29.6771 33.8459 30.2162 33.9728 30.8284 34.2272C32.0507 34.735 33.5687 35.7526 34.7339 37.799L35.0815 37.601ZM28.6877 33.52C28.7173 33.3222 28.7171 33.3222 28.717 33.3222C28.7169 33.3221 28.7167 33.3221 28.7165 33.3221C28.7161 33.322 28.7156 33.322 28.7151 33.3219C28.7139 33.3217 28.7124 33.3215 28.7104 33.3212C28.7066 33.3207 28.7011 33.32 28.6942 33.3191C28.6803 33.3173 28.6603 33.3149 28.6346 33.3122C28.5831 33.3069 28.5088 33.3003 28.4142 33.2953C28.2253 33.2853 27.9554 33.2812 27.6275 33.3046C26.9722 33.3512 26.0815 33.5073 25.1406 33.9463C23.247 34.8296 21.1906 36.839 20.4107 41.2854L20.8046 41.3546C21.5648 37.021 23.5483 35.1304 25.3097 34.3087C26.1963 33.8952 27.0369 33.7476 27.6559 33.7036C27.9652 33.6816 28.2183 33.6855 28.393 33.6948C28.4804 33.6994 28.548 33.7054 28.5931 33.7101C28.6156 33.7124 28.6326 33.7144 28.6435 33.7158C28.649 33.7165 28.653 33.7171 28.6554 33.7174C28.6566 33.7176 28.6574 33.7177 28.6579 33.7178C28.6581 33.7178 28.6582 33.7178 28.6582 33.7178C28.6583 33.7178 28.6582 33.7178 28.6582 33.7178C28.6581 33.7178 28.658 33.7178 28.6877 33.52ZM20.4107 41.2852C19.6323 45.693 20.5715 49.3771 22.1615 52.0084C23.745 54.629 25.9921 56.2303 27.8474 56.419L27.8879 56.021C26.2032 55.8497 24.0504 54.361 22.5038 51.8016C20.9638 49.2529 20.043 45.667 20.8046 41.3548L20.4107 41.2852ZM27.8463 56.4189C28.9997 56.5424 30.4622 56.3583 31.704 55.6752L31.5113 55.3248C30.3531 55.9617 28.9756 56.1376 27.889 56.0211L27.8463 56.4189ZM31.6077 55.5C31.6956 55.6796 31.6957 55.6796 31.6958 55.6796C31.6958 55.6795 31.6959 55.6795 31.696 55.6794C31.6962 55.6793 31.6964 55.6792 31.6967 55.6791C31.6972 55.6788 31.698 55.6785 31.6988 55.678C31.7006 55.6771 31.7031 55.6759 31.7062 55.6743C31.7124 55.6712 31.7212 55.6667 31.7325 55.6607C31.7552 55.6488 31.7879 55.6313 31.8296 55.6078C31.9128 55.5609 32.0319 55.4904 32.1782 55.3945C32.4708 55.2027 32.873 54.9091 33.316 54.4993C34.2021 53.6796 35.2532 52.3934 35.9161 50.5269L35.5392 50.3931C34.9021 52.1866 33.8932 53.4204 33.0443 54.2057C32.6199 54.5984 32.2357 54.8785 31.959 55.0599C31.8206 55.1506 31.7092 55.2165 31.6332 55.2593C31.5952 55.2807 31.566 55.2964 31.5467 55.3065C31.5371 55.3116 31.53 55.3152 31.5254 55.3175C31.5231 55.3187 31.5215 55.3195 31.5206 55.3199C31.5201 55.3202 31.5198 55.3203 31.5197 55.3204C31.5196 55.3204 31.5196 55.3204 31.5196 55.3204C31.5196 55.3204 31.5196 55.3204 31.5196 55.3204C31.5197 55.3204 31.5197 55.3204 31.6077 55.5ZM35.9165 50.5258C37.7775 45.1856 36.6069 40.2858 35.0815 37.6012L34.7338 37.7988C36.2084 40.3942 37.3578 45.1744 35.5388 50.3942L35.9165 50.5258ZM56.7013 33.8V33.6H56.5619L56.5136 33.7307L56.7013 33.8ZM49.6813 52.82L49.4939 52.8899L49.6823 53.3947L49.8689 52.8893L49.6813 52.82ZM42.5812 33.8L42.7686 33.7301L42.7201 33.6H42.5812V33.8ZM40.5013 33.8V33.6H40.3013V33.8H40.5013ZM40.5013 56H40.3013V56.2H40.5013V56ZM41.5812 56V56.2H41.7812V56H41.5812ZM41.5812 38.02L41.7676 37.9474L41.3812 38.02H41.5812ZM48.5812 56L48.3949 56.0726L48.467 56.2578L48.6527 56.1868L48.5812 56ZM49.9412 55.48L50.0127 55.6668L50.0973 55.6344L50.1288 55.5495L49.9412 55.48ZM56.6012 37.5L56.8012 37.5011L56.4137 37.4305L56.6012 37.5ZM56.5013 56L56.3013 55.9989L56.3002 56.2H56.5013V56ZM57.6813 56V56.2H57.8813V56H57.6813ZM57.6813 33.8H57.8813V33.6H57.6813V33.8ZM56.5136 33.7307L49.4936 52.7507L49.8689 52.8893L56.8889 33.8693L56.5136 33.7307ZM49.8686 52.7501L42.7686 33.7301L42.3939 33.8699L49.4939 52.8899L49.8686 52.7501ZM42.5812 33.6H40.5013V34H42.5812V33.6ZM40.3013 33.8V56H40.7013V33.8H40.3013ZM40.5013 56.2H41.5812V55.8H40.5013V56.2ZM41.7812 56V38.02H41.3812V56H41.7812ZM41.3949 38.0926L48.3949 56.0726L48.7676 55.9274L41.7676 37.9474L41.3949 38.0926ZM48.6527 56.1868L50.0127 55.6668L49.8698 55.2932L48.5098 55.8132L48.6527 56.1868ZM50.1288 55.5495L56.7888 37.5695L56.4137 37.4305L49.7537 55.4105L50.1288 55.5495ZM56.4013 37.4989L56.3013 55.9989L56.7012 56.0011L56.8012 37.5011L56.4013 37.4989ZM56.5013 56.2H57.6813V55.8H56.5013V56.2ZM57.8813 56V33.8H57.4813V56H57.8813ZM57.6813 33.6H56.7013V34H57.6813V33.6ZM67.8838 45.12L67.866 44.9208L67.8643 44.9209L67.8838 45.12ZM65.1637 34.5V34.3H64.9638V34.5H65.1637ZM63.2637 33.8V33.6H63.0638V33.8H63.2637ZM63.2637 56H63.0638V56.2H63.2637V56ZM65.1637 56V56.2H65.3637V56H65.1637ZM65.1637 46.5L65.128 46.3032L64.9638 46.3331V46.5H65.1637ZM65.8238 46.4L65.8419 46.5993L65.8481 46.5985L65.8238 46.4ZM71.8438 43.82L71.9801 43.9664L71.9838 43.9628L71.8438 43.82ZM73.9037 38.46L74.1037 38.4588V38.4584L73.9037 38.46ZM67.8643 44.9209C67.4688 44.9595 66.8006 44.9551 66.2232 44.9351C65.9362 44.9252 65.6757 44.9115 65.4878 44.898C65.3934 44.8912 65.3196 44.8846 65.2707 44.8788C65.2454 44.8757 65.2313 44.8734 65.2257 44.8723C65.2215 44.8714 65.2283 44.8725 65.2396 44.8767C65.2439 44.8783 65.2614 44.8849 65.2812 44.8991C65.2915 44.9064 65.3637 44.9579 65.3637 45.06H64.9638C64.9638 45.1633 65.037 45.2162 65.049 45.2248C65.0707 45.2402 65.0909 45.2481 65.0989 45.2511C65.1174 45.2581 65.135 45.262 65.1449 45.264C65.1675 45.2687 65.195 45.2725 65.2232 45.2759C65.2814 45.2829 65.3625 45.29 65.4591 45.297C65.6531 45.311 65.9188 45.3248 66.2093 45.3349C66.7869 45.3549 67.4787 45.3605 67.9032 45.3191L67.8643 44.9209ZM65.3637 45.06V34.5H64.9638V45.06H65.3637ZM65.1637 34.7H66.9638V34.3H65.1637V34.7ZM66.9638 34.7C69.0152 34.7 70.3403 35.3864 71.1562 36.3493C71.9771 37.3182 72.3037 38.5925 72.3037 39.8H72.7038C72.7038 38.5275 72.3604 37.1518 71.4613 36.0907C70.5572 35.0236 69.1123 34.3 66.9638 34.3V34.7ZM72.3037 39.8C72.3037 41.8042 71.4605 43.0529 70.4899 43.8179C69.5103 44.59 68.394 44.8736 67.866 44.9208L67.9015 45.3192C68.4935 45.2664 69.6872 44.96 70.7376 44.1321C71.797 43.2971 72.7038 41.9358 72.7038 39.8H72.3037ZM69.3238 33.6H63.2637V34H69.3238V33.6ZM63.0638 33.8V56H63.4637V33.8H63.0638ZM63.2637 56.2H65.1637V55.8H63.2637V56.2ZM65.3637 56V46.5H64.9638V56H65.3637ZM65.1637 46.5C65.1995 46.6968 65.1995 46.6968 65.1995 46.6968C65.1995 46.6968 65.1995 46.6968 65.1995 46.6968C65.1995 46.6968 65.1996 46.6968 65.1996 46.6968C65.1996 46.6968 65.1997 46.6967 65.1998 46.6967C65.2 46.6967 65.2003 46.6966 65.2007 46.6966C65.2014 46.6964 65.2027 46.6962 65.2042 46.6959C65.2074 46.6953 65.2121 46.6945 65.2183 46.6934C65.2305 46.6912 65.2483 46.6881 65.2704 46.6842C65.3146 46.6765 65.3757 46.666 65.4436 46.6549C65.5813 46.6323 65.7398 46.6085 65.8419 46.5992L65.8056 46.2008C65.6877 46.2115 65.5162 46.2377 65.379 46.2601C65.3093 46.2715 65.2467 46.2823 65.2015 46.2902C65.1789 46.2941 65.1606 46.2974 65.1479 46.2996C65.1416 46.3008 65.1366 46.3017 65.1333 46.3023C65.1316 46.3026 65.1303 46.3028 65.1294 46.303C65.1289 46.3031 65.1286 46.3031 65.1284 46.3032C65.1282 46.3032 65.1282 46.3032 65.1281 46.3032C65.1281 46.3032 65.128 46.3032 65.128 46.3032C65.128 46.3032 65.128 46.3032 65.128 46.3032C65.128 46.3032 65.128 46.3032 65.1637 46.5ZM65.8481 46.5985C67.8317 46.3556 69.2164 45.8383 70.1825 45.3078C71.1492 44.7771 71.6903 44.2362 71.98 43.9664L71.7075 43.6736C71.4172 43.9438 70.9083 44.4529 69.99 44.9572C69.0711 45.4617 67.7358 45.9644 65.7994 46.2015L65.8481 46.5985ZM71.8438 43.82C71.9838 43.9628 71.9839 43.9627 71.9839 43.9627C71.984 43.9626 71.984 43.9625 71.9841 43.9625C71.9843 43.9623 71.9844 43.9622 71.9846 43.962C71.985 43.9616 71.9856 43.961 71.9862 43.9604C71.9875 43.9591 71.9893 43.9573 71.9916 43.955C71.9962 43.9504 72.0026 43.9438 72.0109 43.9353C72.0274 43.9182 72.051 43.8933 72.0808 43.8607C72.1403 43.7955 72.2243 43.6996 72.3246 43.5744C72.525 43.3241 72.7908 42.9563 73.0558 42.4826C73.5856 41.5356 74.114 40.1617 74.1037 38.4588L73.7038 38.4612C73.7135 40.0783 73.2119 41.3844 72.7067 42.2873C72.4542 42.7387 72.2013 43.0884 72.0123 43.3244C71.9179 43.4423 71.8395 43.5317 71.7854 43.591C71.7583 43.6207 71.7373 43.6428 71.7233 43.6573C71.7163 43.6645 71.7111 43.6698 71.7078 43.6731C71.7062 43.6748 71.705 43.6759 71.7043 43.6766C71.7039 43.677 71.7037 43.6772 71.7036 43.6773C71.7036 43.6773 71.7036 43.6774 71.7036 43.6773C71.7036 43.6773 71.7036 43.6773 71.7036 43.6773C71.7037 43.6773 71.7037 43.6772 71.8438 43.82ZM74.1037 38.4584C74.083 35.861 72.1456 33.6 69.3238 33.6V34C71.9019 34 73.6845 36.059 73.7038 38.4616L74.1037 38.4584ZM88.4042 54.1L88.5274 54.2576L88.528 54.2571L88.4042 54.1ZM81.5842 34.86L81.6485 35.0494L81.6489 35.0492L81.5842 34.86ZM88.9642 39.32L88.7867 39.4122L88.7877 39.4139L88.9642 39.32ZM90.8842 37.7L91.0581 37.6012L91.058 37.601L90.8842 37.7ZM84.6642 33.52L84.6346 33.7178L84.6493 33.72H84.6642V33.52ZM76.5842 41.32L76.7812 41.3548L76.7812 41.3546L76.5842 41.32ZM83.8442 56.22L83.8655 56.0211L83.8645 56.021L83.8442 56.22ZM87.5842 55.5L87.4962 55.3202L87.4878 55.3248L87.5842 55.5ZM91.7042 50.46L91.8927 50.5269L91.8931 50.5258L91.7042 50.46ZM88.2811 53.9424C87.3867 54.6415 86.4992 54.9101 85.6454 54.857C84.788 54.8037 83.9426 54.4247 83.14 53.7889C81.5308 52.5141 80.1321 50.2364 79.2202 47.6681C78.3091 45.1022 77.8948 42.2767 78.2269 39.9248C78.5591 37.5732 79.6278 35.7356 81.6485 35.0494L81.5199 34.6706C79.3006 35.4244 78.1744 37.4367 77.8309 39.8689C77.4874 42.3008 77.9168 45.1928 78.8432 47.8019C79.7688 50.4086 81.2014 52.7634 82.8916 54.1024C83.7387 54.7735 84.66 55.1966 85.6206 55.2563C86.5849 55.3162 87.5668 55.0085 88.5274 54.2576L88.2811 53.9424ZM81.6489 35.0492C83.4791 34.4234 85.1144 35.225 86.3864 36.3545C87.6573 37.4831 88.5237 38.9056 88.7867 39.4122L89.1417 39.2278C88.8648 38.6944 87.9712 37.2269 86.652 36.0555C85.334 34.885 83.5494 33.9766 81.5195 34.6708L81.6489 35.0492ZM88.7877 39.4139C90.0975 41.8761 90.6381 44.9939 90.5094 47.7657C90.4451 49.1505 90.2141 50.4417 89.8332 51.5157C89.4514 52.5923 88.9248 53.4349 88.2804 53.9429L88.528 54.2571C89.2536 53.6851 89.8145 52.7652 90.2102 51.6493C90.6069 50.5308 90.8433 49.1995 90.909 47.7843C91.0403 44.9561 90.4909 41.7639 89.1408 39.2261L88.7877 39.4139ZM91.058 37.601C89.8432 35.4674 88.2512 34.395 86.9585 33.8578C86.3132 33.5897 85.7436 33.4553 85.3339 33.388C85.1289 33.3543 84.9637 33.3373 84.8487 33.3287C84.7912 33.3244 84.7462 33.3223 84.715 33.3211C84.6994 33.3206 84.6873 33.3203 84.6788 33.3202C84.6745 33.3201 84.6712 33.32 84.6687 33.32C84.6675 33.32 84.6665 33.32 84.6658 33.32C84.6654 33.32 84.6651 33.32 84.6648 33.32C84.6647 33.32 84.6645 33.32 84.6645 33.32C84.6643 33.32 84.6642 33.32 84.6642 33.52C84.6642 33.72 84.6641 33.72 84.664 33.72C84.664 33.72 84.664 33.72 84.664 33.72C84.6639 33.72 84.664 33.72 84.6641 33.72C84.6642 33.72 84.6647 33.72 84.6653 33.72C84.6666 33.72 84.6688 33.72 84.6718 33.7201C84.678 33.7202 84.6877 33.7204 84.7008 33.7209C84.7271 33.7218 84.7669 33.7237 84.819 33.7276C84.9233 33.7354 85.0767 33.751 85.269 33.7827C85.6536 33.8459 86.1928 33.9728 86.805 34.2272C88.0272 34.735 89.5452 35.7526 90.7104 37.799L91.058 37.601ZM84.6642 33.52C84.6939 33.3222 84.6937 33.3222 84.6935 33.3222C84.6934 33.3221 84.6932 33.3221 84.693 33.3221C84.6927 33.322 84.6922 33.322 84.6916 33.3219C84.6905 33.3217 84.6889 33.3215 84.687 33.3212C84.6831 33.3207 84.6777 33.32 84.6707 33.3191C84.6568 33.3173 84.6369 33.3149 84.6111 33.3122C84.5597 33.3069 84.4853 33.3003 84.3908 33.2953C84.2018 33.2853 83.932 33.2812 83.6041 33.3046C82.9488 33.3512 82.0581 33.5073 81.1172 33.9463C79.2236 34.8296 77.1671 36.839 76.3872 41.2854L76.7812 41.3546C77.5413 37.021 79.5249 35.1304 81.2863 34.3087C82.1728 33.8952 83.0134 33.7476 83.6325 33.7036C83.9418 33.6816 84.1949 33.6855 84.3696 33.6948C84.4569 33.6994 84.5245 33.7054 84.5697 33.7101C84.5922 33.7124 84.6091 33.7144 84.6201 33.7158C84.6255 33.7165 84.6295 33.7171 84.632 33.7174C84.6332 33.7176 84.634 33.7177 84.6344 33.7178C84.6347 33.7178 84.6348 33.7178 84.6348 33.7178C84.6348 33.7178 84.6348 33.7178 84.6348 33.7178C84.6347 33.7178 84.6346 33.7178 84.6642 33.52ZM76.3873 41.2852C75.6088 45.693 76.548 49.3771 78.138 52.0084C79.7215 54.629 81.9687 56.2303 83.824 56.419L83.8645 56.021C82.1798 55.8497 80.0269 54.361 78.4804 51.8016C76.9404 49.2529 76.0196 45.667 76.7812 41.3548L76.3873 41.2852ZM83.8229 56.4189C84.9763 56.5424 86.4388 56.3583 87.6806 55.6752L87.4878 55.3248C86.3297 55.9617 84.9521 56.1376 83.8655 56.0211L83.8229 56.4189ZM87.5842 55.5C87.6721 55.6796 87.6722 55.6796 87.6723 55.6796C87.6724 55.6795 87.6725 55.6795 87.6726 55.6794C87.6728 55.6793 87.673 55.6792 87.6733 55.6791C87.6738 55.6788 87.6745 55.6785 87.6754 55.678C87.6772 55.6771 87.6796 55.6759 87.6827 55.6743C87.6889 55.6712 87.6978 55.6667 87.7091 55.6607C87.7318 55.6488 87.7645 55.6313 87.8061 55.6078C87.8894 55.5609 88.0084 55.4904 88.1548 55.3945C88.4474 55.2027 88.8495 54.9091 89.2925 54.4993C90.1787 53.6796 91.2297 52.3934 91.8927 50.5269L91.5158 50.3931C90.8787 52.1866 89.8698 53.4204 89.0209 54.2057C88.5964 54.5984 88.2123 54.8785 87.9355 55.0599C87.7972 55.1506 87.6858 55.2165 87.6097 55.2593C87.5717 55.2807 87.5426 55.2964 87.5233 55.3065C87.5137 55.3116 87.5065 55.3152 87.502 55.3175C87.4997 55.3187 87.4981 55.3195 87.4971 55.3199C87.4967 55.3202 87.4964 55.3203 87.4962 55.3204C87.4961 55.3204 87.4961 55.3204 87.4961 55.3204C87.4961 55.3204 87.4962 55.3204 87.4962 55.3204C87.4962 55.3204 87.4963 55.3204 87.5842 55.5ZM91.8931 50.5258C93.7541 45.1856 92.5834 40.2858 91.0581 37.6012L90.7103 37.7988C92.185 40.3942 93.3344 45.1744 91.5154 50.3942L91.8931 50.5258ZM107.098 33.8V33.6H106.899L106.898 33.799L107.098 33.8ZM106.998 53.12L106.814 53.1991L107.198 53.121L106.998 53.12ZM98.6778 33.8L98.8615 33.7209L98.8094 33.6H98.6778V33.8ZM97.0378 33.8V33.6H96.8378V33.8H97.0378ZM97.0378 56H96.8378V56.2H97.0378V56ZM98.0378 56V56.2H98.2378V56H98.0378ZM98.0378 38.22L98.2209 38.1395L97.8378 38.22H98.0378ZM105.858 56L105.675 56.0805L105.761 56.2762L105.95 56.1773L105.858 56ZM108.158 54.8L108.25 54.9773L108.358 54.9212V54.8H108.158ZM108.158 33.8H108.358V33.6H108.158V33.8ZM106.898 33.799L106.798 53.119L107.198 53.121L107.298 33.801L106.898 33.799ZM107.182 53.0409L98.8615 33.7209L98.4941 33.8791L106.814 53.1991L107.182 53.0409ZM98.6778 33.6H97.0378V34H98.6778V33.6ZM96.8378 33.8V56H97.2378V33.8H96.8378ZM97.0378 56.2H98.0378V55.8H97.0378V56.2ZM98.2378 56V38.22H97.8378V56H98.2378ZM97.8547 38.3005L105.675 56.0805L106.041 55.9195L98.2209 38.1395L97.8547 38.3005ZM105.95 56.1773L108.25 54.9773L108.065 54.6227L105.765 55.8227L105.95 56.1773ZM108.358 54.8V33.8H107.958V54.8H108.358ZM108.158 33.6H107.098V34H108.158V33.6ZM115.652 55.12H115.452V55.32H115.652V55.12ZM115.652 45.58V45.38H115.452V45.58H115.652ZM123.472 45.58V45.78H123.672V45.58H123.472ZM123.472 44.72H123.672V44.52H123.472V44.72ZM115.652 44.72H115.452V44.92H115.652V44.72ZM115.652 34.72V34.52H115.452V34.72H115.652ZM126.252 34.72V34.92H126.452V34.72H126.252ZM126.252 33.8H126.452V33.6H126.252V33.8ZM113.492 33.8V33.6H113.292V33.8H113.492ZM113.492 54.66H113.292V54.7713L113.387 54.83L113.492 54.66ZM115.652 56L115.547 56.17L115.595 56.2H115.652V56ZM126.332 56V56.2H126.532V56H126.332ZM126.332 55.12H126.532V54.92H126.332V55.12ZM115.852 55.12V45.58H115.452V55.12H115.852ZM115.652 45.78H123.472V45.38H115.652V45.78ZM123.672 45.58V44.72H123.272V45.58H123.672ZM123.472 44.52H115.652V44.92H123.472V44.52ZM115.852 44.72V34.72H115.452V44.72H115.852ZM115.652 34.92H126.252V34.52H115.652V34.92ZM126.452 34.72V33.8H126.052V34.72H126.452ZM126.252 33.6H113.492V34H126.252V33.6ZM113.292 33.8V54.66H113.692V33.8H113.292ZM113.387 54.83L115.547 56.17L115.757 55.83L113.597 54.49L113.387 54.83ZM115.652 56.2H126.332V55.8H115.652V56.2ZM126.532 56V55.12H126.132V56H126.532ZM126.332 54.92H115.652V55.32H126.332V54.92ZM139.871 33.8V33.6H139.672L139.671 33.799L139.871 33.8ZM139.771 53.12L139.588 53.1991L139.971 53.121L139.771 53.12ZM131.451 33.8L131.635 33.7209L131.583 33.6H131.451V33.8ZM129.811 33.8V33.6H129.611V33.8H129.811ZM129.811 56H129.611V56.2H129.811V56ZM130.811 56V56.2H131.011V56H130.811ZM130.811 38.22L130.994 38.1395L130.611 38.22H130.811ZM138.631 56L138.448 56.0805L138.534 56.2762L138.724 56.1773L138.631 56ZM140.931 54.8L141.024 54.9773L141.131 54.9212V54.8H140.931ZM140.931 33.8H141.131V33.6H140.931V33.8ZM139.671 33.799L139.571 53.119L139.971 53.121L140.071 33.801L139.671 33.799ZM139.955 53.0409L131.635 33.7209L131.268 33.8791L139.588 53.1991L139.955 53.0409ZM131.451 33.6H129.811V34H131.451V33.6ZM129.611 33.8V56H130.011V33.8H129.611ZM129.811 56.2H130.811V55.8H129.811V56.2ZM131.011 56V38.22H130.611V56H131.011ZM130.628 38.3005L138.448 56.0805L138.814 55.9195L130.994 38.1395L130.628 38.3005ZM138.724 56.1773L141.024 54.9773L140.839 54.6227L138.539 55.8227L138.724 56.1773ZM141.131 54.8V33.8H140.731V54.8H141.131ZM140.931 33.6H139.871V34H140.931V33.6ZM159.425 33.8H159.625V33.6H159.425V33.8ZM143.425 33.8V33.6H143.225V33.8H143.425ZM143.425 34.88H143.225V35.08H143.425V34.88ZM150.425 34.88H150.625V34.68H150.425V34.88ZM150.425 54.68H150.225V54.7876L150.315 54.8469L150.425 54.68ZM152.425 56L152.315 56.1669L152.625 56.3716V56H152.425ZM152.425 34.88V34.68H152.225V34.88H152.425ZM159.405 34.88V35.08H159.594L159.605 34.8917L159.405 34.88ZM159.425 33.6H143.425V34H159.425V33.6ZM143.225 33.8V34.88H143.625V33.8H143.225ZM143.425 35.08H150.425V34.68H143.425V35.08ZM150.225 34.88V54.68H150.625V34.88H150.225ZM150.315 54.8469L152.315 56.1669L152.536 55.8331L150.536 54.5131L150.315 54.8469ZM152.625 56V34.88H152.225V56H152.625ZM152.425 35.08H159.405V34.68H152.425V35.08ZM159.605 34.8917C159.626 34.5447 159.625 34.1385 159.625 33.8H159.225C159.225 34.1415 159.225 34.5352 159.206 34.8683L159.605 34.8917ZM162.21 42.14L162.01 42.1479L162.01 42.1487L162.21 42.14ZM173.99 44.14L174.129 43.9964L174.128 43.9956L173.99 44.14ZM164.63 50.5L164.83 50.4992L164.829 50.3H164.63V50.5ZM162.33 50.5V50.3H162.13V50.5H162.33ZM164.51 41.36L164.706 41.3218L164.706 41.3205L164.51 41.36ZM172.99 38.28L172.794 38.3196L172.826 38.48H172.99V38.28ZM175.69 38.28V38.48H175.931L175.886 38.2426L175.69 38.28ZM169.69 33.6C166.95 33.6 164.981 34.6969 163.721 36.3251C162.467 37.947 161.928 40.0809 162.01 42.1479L162.41 42.1321C162.331 40.1391 162.852 38.103 164.038 36.5699C165.219 35.0431 167.069 34 169.69 34V33.6ZM162.01 42.1487C162.036 42.7635 162.222 43.2455 162.545 43.6096C162.866 43.9713 163.306 44.1991 163.813 44.3359C164.817 44.6073 166.139 44.5348 167.477 44.3812C168.837 44.2252 170.206 43.9874 171.382 43.9004C171.966 43.8572 172.485 43.8531 172.913 43.9133C173.343 43.974 173.655 44.0965 173.851 44.2844L174.128 43.9956C173.844 43.7235 173.435 43.5829 172.968 43.5172C172.499 43.4511 171.947 43.4575 171.352 43.5015C170.171 43.5889 168.753 43.8323 167.432 43.9838C166.091 44.1377 164.84 44.199 163.917 43.9497C163.46 43.8262 163.098 43.6301 162.844 43.3442C162.593 43.0607 162.433 42.6715 162.41 42.1314L162.01 42.1487ZM173.851 44.2836C174.429 44.8444 174.619 45.7834 174.502 46.9371C174.386 48.083 173.972 49.3931 173.408 50.6347C172.844 51.8755 172.135 53.0356 171.439 53.8821C171.091 54.3056 170.75 54.6452 170.437 54.8772C170.12 55.1126 169.854 55.22 169.65 55.22V55.62C169.981 55.62 170.332 55.453 170.676 55.1985C171.023 54.9406 171.387 54.5747 171.748 54.1361C172.47 53.2581 173.196 52.067 173.772 50.8003C174.347 49.5344 174.778 48.1807 174.9 46.9773C175.021 45.7816 174.84 44.6856 174.129 43.9964L173.851 44.2836ZM169.65 55.22C168.434 55.22 167.534 54.9215 166.865 54.4839C166.195 54.0456 165.745 53.46 165.443 52.8688C165.139 52.2768 164.986 51.6825 164.908 51.2346C164.869 51.0111 164.85 50.8253 164.84 50.6961C164.835 50.6316 164.832 50.5813 164.831 50.5477C164.83 50.5309 164.83 50.5182 164.83 50.51C164.83 50.5059 164.83 50.503 164.83 50.5011C164.83 50.5002 164.83 50.4996 164.83 50.4993C164.83 50.4991 164.83 50.499 164.83 50.499C164.83 50.499 164.83 50.4991 164.83 50.499C164.83 50.4991 164.83 50.4992 164.63 50.5C164.43 50.5008 164.43 50.5009 164.43 50.5011C164.43 50.5011 164.43 50.5013 164.43 50.5014C164.43 50.5017 164.43 50.5021 164.43 50.5025C164.43 50.5034 164.43 50.5045 164.43 50.506C164.43 50.5089 164.43 50.513 164.43 50.5182C164.43 50.5286 164.431 50.5436 164.431 50.5628C164.433 50.6013 164.436 50.6567 164.441 50.7267C164.452 50.8666 164.473 51.0652 164.514 51.3029C164.596 51.7775 164.76 52.4132 165.087 53.0512C165.414 53.69 165.906 54.3344 166.646 54.8186C167.388 55.3035 168.365 55.62 169.65 55.62V55.22ZM164.63 50.3H162.33V50.7H164.63V50.3ZM162.13 50.5C162.13 50.8523 162.165 52.2754 163.045 53.6148C163.935 54.969 165.662 56.2 168.97 56.2V55.8C165.777 55.8 164.185 54.621 163.379 53.3952C162.564 52.1546 162.53 50.8277 162.53 50.5H162.13ZM168.97 56.2C170.927 56.2 172.997 54.9923 174.569 53.2254C176.144 51.4553 177.25 49.0898 177.25 46.72H176.85C176.85 48.9702 175.796 51.2447 174.27 52.9596C172.742 54.6777 170.772 55.8 168.97 55.8V56.2ZM177.25 46.72C177.25 45.9091 177.055 45.2505 176.702 44.7196C176.35 44.1897 175.851 43.8003 175.263 43.512C174.094 42.9392 172.547 42.7516 171.016 42.6628C169.465 42.5729 167.944 42.5837 166.749 42.424C166.154 42.3445 165.666 42.2251 165.313 42.042C164.966 41.862 164.766 41.6301 164.706 41.3218L164.313 41.3982C164.403 41.8599 164.708 42.1787 165.129 42.397C165.544 42.6122 166.087 42.739 166.696 42.8204C167.908 42.9825 169.484 42.9746 170.993 43.0622C172.523 43.1509 173.997 43.3371 175.087 43.8711C175.627 44.1363 176.065 44.4836 176.369 44.9408C176.672 45.397 176.85 45.9759 176.85 46.72H177.25ZM164.706 41.3205C164.413 39.8685 164.58 38.2502 165.121 37.002C165.663 35.7496 166.554 34.92 167.69 34.92V34.52C166.325 34.52 165.326 35.5204 164.754 36.843C164.179 38.1698 164.006 39.8715 164.314 41.3995L164.706 41.3205ZM167.69 34.92C169.92 34.92 171.189 35.7831 171.904 36.6291C172.265 37.0552 172.488 37.4815 172.621 37.8007C172.687 37.9601 172.731 38.0923 172.758 38.1835C172.771 38.2291 172.781 38.2644 172.786 38.2876C172.789 38.2993 172.791 38.3079 172.792 38.3133C172.793 38.316 172.793 38.3179 172.794 38.319C172.794 38.3195 172.794 38.3198 172.794 38.32C172.794 38.32 172.794 38.32 172.794 38.32C172.794 38.3199 172.794 38.3199 172.794 38.3198C172.794 38.3198 172.794 38.3196 172.99 38.28C173.186 38.2404 173.186 38.2402 173.186 38.2401C173.186 38.24 173.186 38.2398 173.186 38.2397C173.186 38.2394 173.185 38.2391 173.185 38.2388C173.185 38.238 173.185 38.237 173.185 38.2359C173.184 38.2335 173.184 38.2303 173.183 38.2263C173.181 38.2182 173.178 38.2068 173.175 38.1924C173.168 38.1635 173.157 38.1223 173.142 38.0706C173.111 37.9671 173.063 37.8211 172.99 37.6468C172.845 37.2985 172.602 36.8348 172.21 36.3709C171.42 35.4369 170.04 34.52 167.69 34.52V34.92ZM172.99 38.48H175.69V38.08H172.99V38.48ZM175.886 38.2426C175.84 38.0025 175.684 37.596 175.422 37.1278C175.157 36.6554 174.777 36.1074 174.274 35.5861C173.266 34.5423 171.757 33.6 169.69 33.6V34C171.623 34 173.034 34.8777 173.986 35.8639C174.462 36.3576 174.823 36.8771 175.073 37.3234C175.325 37.774 175.459 38.1375 175.493 38.3174L175.886 38.2426Z" />
</svg>
