<svg width="128" height="57" viewBox="0 0 128 57" fill="black" xmlns="http://www.w3.org/2000/svg">
  <path d="M14.46 22.22C6.52 25.1 0.18 6.06 7 3.3C8.6 2.64 11.88 2.62 14.52 6.64H17.02C14.34 0.88 9.08 1.8 9.08 1.8C9.08 1.8 2.64 2.44 2.64 11.3C2.64 20.12 8.06 24 12 24C14.1 24 17.06 22.64 17.36 17.36H15.92C16.08 20.22 15.84 21.72 14.46 22.22ZM24.4677 2.52H26.2877C30.4677 2.52 31.6277 6.46 31.6277 8.2C31.6277 12.56 27.4677 12.58 26.3277 12.78C25.6077 12.9 24.4677 12.9 24.4677 12.9V2.52ZM29.3277 12.82C29.3277 12.82 30.4877 12.18 30.8677 11.88C31.7877 11.14 33.2677 9.86 33.2677 6.4C33.2677 4 31.3277 1.8 28.6277 1.8H22.5677V24H24.4677V13.78C24.4677 13.78 27.4077 13.34 28.5277 14.48C29.9877 15.92 32.2677 24 34.5277 24L35.5277 22.84C33.6677 22.84 31.1277 12.82 29.3277 12.82ZM41.8044 23.12V13.58H49.6244V12.72H41.8044V2.72H52.4044V1.8H39.6444V22.66L41.8044 24H52.4844V23.12H41.8044ZM65.5236 16.38H57.9636L62.1836 5.04L65.5236 16.38ZM57.5036 17.62H65.8836L67.6836 24L69.8836 23.2L63.3036 1.8L62.2036 2.5L53.9636 23.58L55.0636 24L57.5036 17.62ZM86.613 1.8H70.613V2.88H77.613V22.68L79.613 24V2.88H86.593C86.613 2.54 86.613 2.14 86.613 1.8ZM92.8572 24V1.8H90.9772V24H92.8572ZM108.172 1.8L108.072 21.12L99.752 1.8H98.112V24H99.112V6.22L106.932 24L109.232 22.8V1.8H108.172ZM127.806 16H120.666V17.1C120.666 17.1 126.346 17.02 126.346 17.34C126.526 20.2 126.286 21.7 124.906 22.2C116.946 25.1 110.626 6.04 117.446 3.28C119.046 2.64 122.306 2.6 124.966 6.64H127.466C124.786 0.88 119.526 1.8 119.526 1.8C119.526 1.8 113.066 2.42 113.066 11.28C113.066 20.1 118.486 24 122.426 24C124.486 24 127.346 22.68 127.766 17.7C127.866 17.08 127.806 16 127.806 16ZM8.3 56.06L9.4 55.32L17.66 34.2L16.54 33.8L9.42 52.8L3.92 33.8L1.7 34.56L8.3 56.06ZM27.5158 48.38H19.9558L24.1758 37.04L27.5158 48.38ZM19.4958 49.62H27.8758L29.6758 56L31.8758 55.2L25.2958 33.8L24.1958 34.5L15.9558 55.58L17.0558 56L19.4958 49.62ZM37.9052 34.52H39.7252C43.9052 34.52 45.0652 38.46 45.0652 40.2C45.0652 44.56 40.9052 44.58 39.7652 44.78C39.0452 44.9 37.9052 44.9 37.9052 44.9V34.52ZM42.7652 44.82C42.7652 44.82 43.9252 44.18 44.3052 43.88C45.2252 43.14 46.7052 41.86 46.7052 38.4C46.7052 36 44.7652 33.8 42.0652 33.8H36.0052V56H37.9052V45.78C37.9052 45.78 40.8452 45.34 41.9652 46.48C43.4252 47.92 45.7052 56 47.9652 56L48.9652 54.84C47.1052 54.84 44.5652 44.82 42.7652 44.82ZM55.1619 56V33.8H53.2819V56H55.1619ZM69.9767 48.38H62.4167L66.6367 37.04L69.9767 48.38ZM61.9567 49.62H70.3367L72.1367 56L74.3367 55.2L67.7567 33.8L66.6567 34.5L58.4167 55.58L59.5167 56L61.9567 49.62ZM87.5861 33.8L87.4861 53.12L79.1661 33.8H77.5261V56H78.5261V38.22L86.3461 56L88.6461 54.8V33.8H87.5861ZM107.14 33.8H91.1403V34.88H98.1403V54.68L100.14 56V34.88H107.12C107.14 34.54 107.14 34.14 107.14 33.8ZM117.405 33.8C112.045 33.8 109.765 38.08 109.925 42.14C110.125 46.76 119.785 42.3 121.705 44.14C124.285 46.64 119.505 55.42 117.365 55.42C112.365 55.42 112.345 50.5 112.345 50.5H110.045C110.045 51.18 110.185 56 116.685 56C120.445 56 124.765 51.34 124.765 46.72C124.765 40.5 112.825 44.44 112.225 41.36C111.625 38.38 112.905 34.72 115.405 34.72C119.985 34.72 120.705 38.28 120.705 38.28H123.405C123.245 37.44 121.405 33.8 117.405 33.8Z" />
  <path d="M14.46 22.22L14.3919 22.032L14.3918 22.032L14.46 22.22ZM7 3.3L7.07503 3.4854L7.07627 3.48489L7 3.3ZM14.52 6.64L14.3528 6.74979L14.4121 6.84H14.52V6.64ZM17.02 6.64V6.84H17.3336L17.2013 6.55563L17.02 6.64ZM9.08 1.8L9.09978 1.99902L9.10716 1.99829L9.11446 1.99701L9.08 1.8ZM17.36 17.36L17.5597 17.3713L17.5717 17.16H17.36V17.36ZM15.92 17.36V17.16H15.7085L15.7203 17.3712L15.92 17.36ZM14.3918 22.032C12.4967 22.7194 10.6868 22.1086 9.11834 20.7173C7.5462 19.3227 6.238 17.1586 5.38296 14.8067C4.52811 12.4552 4.1343 9.93806 4.37061 7.84809C4.60728 5.75498 5.46725 4.13605 7.07503 3.48539L6.92497 3.1146C5.12275 3.84395 4.21772 5.64002 3.97314 7.80315C3.7282 9.96944 4.13689 12.5498 5.00704 14.9433C5.877 17.3364 7.2163 19.5648 8.85291 21.0165C10.4932 22.4714 12.4533 23.1606 14.5282 22.408L14.3918 22.032ZM7.07627 3.48489C8.58793 2.86133 11.7657 2.81024 14.3528 6.74979L14.6872 6.53021C11.9943 2.42976 8.61207 2.41867 6.92373 3.11511L7.07627 3.48489ZM14.52 6.84H17.02V6.44H14.52V6.84ZM17.2013 6.55563C15.835 3.61897 13.8017 2.37305 12.1019 1.86828C11.2552 1.61681 10.4946 1.55011 9.94515 1.54625C9.67025 1.54433 9.44761 1.55813 9.29267 1.57258C9.21519 1.57981 9.15457 1.58721 9.11276 1.5929C9.09185 1.59575 9.07563 1.59817 9.06435 1.59993C9.05871 1.60081 9.0543 1.60152 9.05116 1.60204C9.04959 1.6023 9.04833 1.60251 9.04739 1.60267C9.04692 1.60275 9.04654 1.60282 9.04623 1.60287C9.04607 1.6029 9.0459 1.60293 9.04582 1.60294C9.04567 1.60297 9.04554 1.60299 9.08 1.8C9.11446 1.99701 9.11437 1.99702 9.1143 1.99704C9.1143 1.99704 9.11425 1.99705 9.11425 1.99704C9.11427 1.99704 9.11436 1.99703 9.11453 1.997C9.11487 1.99694 9.11552 1.99683 9.11649 1.99667C9.11842 1.99635 9.1216 1.99583 9.12599 1.99515C9.13478 1.99378 9.14843 1.99173 9.1667 1.98925C9.20324 1.98427 9.25825 1.97753 9.32983 1.97085C9.47302 1.9575 9.68225 1.94442 9.94235 1.94624C10.4629 1.94989 11.1848 2.01319 11.9881 2.25172C13.5883 2.72695 15.525 3.90103 16.8387 6.72437L17.2013 6.55563ZM9.08 1.8C9.06022 1.60098 9.06007 1.601 9.05988 1.60101C9.05979 1.60102 9.05958 1.60104 9.0594 1.60106C9.05902 1.6011 9.05855 1.60115 9.05798 1.60121C9.05684 1.60133 9.05532 1.60149 9.05341 1.6017C9.04958 1.60212 9.04423 1.60274 9.03739 1.60357C9.02371 1.60523 9.00409 1.60777 8.97893 1.61143C8.92861 1.61874 8.85608 1.6305 8.7645 1.6486C8.58141 1.68479 8.32185 1.74637 8.0113 1.84844C7.3905 2.05248 6.56345 2.41916 5.73629 3.07035C4.0738 4.37917 2.44 6.8144 2.44 11.3H2.84C2.84 6.9256 4.4262 4.61083 5.98372 3.38464C6.76655 2.76834 7.5495 2.42127 8.1362 2.22844C8.4294 2.13207 8.67297 2.07443 8.84206 2.04101C8.92658 2.0243 8.99241 2.01367 9.03642 2.00727C9.05843 2.00408 9.07497 2.00194 9.08566 2.00064C9.09101 1.99999 9.09489 1.99955 9.09726 1.99929C9.09844 1.99916 9.09925 1.99908 9.09967 1.99903C9.09988 1.99901 9.1 1.999 9.10002 1.999C9.10003 1.99899 9.09997 1.999 9.09997 1.999C9.09989 1.99901 9.09978 1.99902 9.08 1.8ZM2.44 11.3C2.44 20.2082 7.92855 24.2 12 24.2V23.8C8.19145 23.8 2.84 20.0318 2.84 11.3H2.44ZM12 24.2C13.0915 24.2 14.4096 23.8465 15.4936 22.8042C16.5789 21.7606 17.4076 20.0478 17.5597 17.3713L17.1603 17.3487C17.0124 19.9522 16.2111 21.5594 15.2164 22.5158C14.2204 23.4735 13.0085 23.8 12 23.8V24.2ZM17.36 17.16H15.92V17.56H17.36V17.16ZM15.7203 17.3712C15.8003 18.8005 15.7778 19.8621 15.5743 20.6234C15.375 21.3688 15.0082 21.8087 14.3919 22.032L14.5281 22.408C15.2918 22.1313 15.735 21.5712 15.9607 20.7266C16.1822 19.8979 16.1997 18.7795 16.1197 17.3488L15.7203 17.3712ZM24.4677 2.52V2.32H24.2677V2.52H24.4677ZM26.3277 12.78L26.3605 12.9773L26.3622 12.977L26.3277 12.78ZM24.4677 12.9H24.2677V13.1H24.4677V12.9ZM29.3277 12.82L29.231 12.6449L29.3277 13.02V12.82ZM30.8677 11.88L30.9916 12.037L30.993 12.0358L30.8677 11.88ZM22.5677 1.8V1.6H22.3677V1.8H22.5677ZM22.5677 24H22.3677V24.2H22.5677V24ZM24.4677 24V24.2H24.6677V24H24.4677ZM24.4677 13.78L24.4381 13.5822L24.2677 13.6077V13.78H24.4677ZM28.5277 14.48L28.385 14.6202L28.3872 14.6224L28.5277 14.48ZM34.5277 24V24.2H34.6193L34.6791 24.1306L34.5277 24ZM35.5277 22.84L35.6791 22.9706L35.9641 22.64H35.5277V22.84ZM24.4677 2.72H26.2877V2.32H24.4677V2.72ZM26.2877 2.72C28.3026 2.72 29.579 3.66449 30.3594 4.81947C31.1464 5.98424 31.4277 7.36388 31.4277 8.2H31.8277C31.8277 7.29612 31.5289 5.83576 30.6909 4.59553C29.8463 3.34551 28.4527 2.32 26.2877 2.32V2.72ZM31.4277 8.2C31.4277 9.25692 31.176 10.036 30.7929 10.6167C30.4092 11.1983 29.8847 11.5944 29.3177 11.8701C28.1689 12.4288 26.8985 12.4768 26.2931 12.583L26.3622 12.977C26.8968 12.8832 28.2765 12.8212 29.4926 12.2299C30.1082 11.9306 30.6948 11.4917 31.1268 10.837C31.5593 10.1815 31.8277 9.32308 31.8277 8.2H31.4277ZM26.2948 12.5827C25.9477 12.6406 25.4931 12.6702 25.1197 12.6852C24.9341 12.6926 24.7708 12.6963 24.6539 12.6981C24.5954 12.6991 24.5487 12.6995 24.5166 12.6998C24.5006 12.6999 24.4882 12.6999 24.4799 12.7C24.4758 12.7 24.4727 12.7 24.4706 12.7C24.4696 12.7 24.4688 12.7 24.4683 12.7C24.4681 12.7 24.4679 12.7 24.4678 12.7C24.4677 12.7 24.4677 12.7 24.4677 12.7C24.4677 12.7 24.4677 12.7 24.4676 12.7C24.4677 12.7 24.4677 12.7 24.4677 12.9C24.4677 13.1 24.4677 13.1 24.4677 13.1C24.4677 13.1 24.4677 13.1 24.4678 13.1C24.4678 13.1 24.4679 13.1 24.4679 13.1C24.4681 13.1 24.4683 13.1 24.4687 13.1C24.4693 13.1 24.4701 13.1 24.4713 13.1C24.4736 13.1 24.4769 13.1 24.4813 13.1C24.4901 13.0999 24.5029 13.0999 24.5195 13.0998C24.5526 13.0995 24.6005 13.099 24.6602 13.0981C24.7795 13.0962 24.9462 13.0924 25.1357 13.0848C25.5122 13.0698 25.9876 13.0394 26.3605 12.9773L26.2948 12.5827ZM24.6677 12.9V2.52H24.2677V12.9H24.6677ZM29.3277 12.82C29.4243 12.9951 29.4243 12.9951 29.4243 12.9951C29.4243 12.9951 29.4243 12.9951 29.4243 12.9951C29.4244 12.9951 29.4244 12.995 29.4245 12.995C29.4247 12.9949 29.4249 12.9948 29.4252 12.9946C29.4258 12.9943 29.4266 12.9938 29.4278 12.9932C29.43 12.9919 29.4334 12.9901 29.4377 12.9877C29.4464 12.9828 29.4592 12.9757 29.4756 12.9666C29.5083 12.9484 29.5554 12.922 29.6131 12.8895C29.7284 12.8245 29.8863 12.7345 30.0562 12.6351C30.391 12.4392 30.7887 12.1972 30.9916 12.037L30.7437 11.723C30.5667 11.8628 30.1943 12.0908 29.8541 12.2899C29.6866 12.388 29.5306 12.4768 29.4166 12.5411C29.3596 12.5733 29.3131 12.5993 29.2809 12.6172C29.2648 12.6262 29.2523 12.6331 29.2438 12.6378C29.2396 12.6402 29.2364 12.6419 29.2342 12.6431C29.2331 12.6437 29.2323 12.6442 29.2318 12.6445C29.2315 12.6446 29.2313 12.6447 29.2312 12.6448C29.2311 12.6448 29.2311 12.6449 29.2311 12.6449C29.2311 12.6449 29.2311 12.6449 29.231 12.6449C29.231 12.6449 29.231 12.6449 29.3277 12.82ZM30.993 12.0358C31.4577 11.662 32.0819 11.138 32.5861 10.2596C33.0909 9.38017 33.4677 8.15989 33.4677 6.4H33.0677C33.0677 8.10011 32.7045 9.24983 32.2392 10.0604C31.7734 10.872 31.1976 11.358 30.7423 11.7242L30.993 12.0358ZM33.4677 6.4C33.4677 3.89579 31.4443 1.6 28.6277 1.6V2C31.2111 2 33.0677 4.10421 33.0677 6.4H33.4677ZM28.6277 1.6H22.5677V2H28.6277V1.6ZM22.3677 1.8V24H22.7677V1.8H22.3677ZM22.5677 24.2H24.4677V23.8H22.5677V24.2ZM24.6677 24V13.78H24.2677V24H24.6677ZM24.4677 13.78C24.4973 13.9778 24.4972 13.9778 24.4972 13.9778C24.4972 13.9778 24.4972 13.9778 24.4972 13.9778C24.4973 13.9778 24.4973 13.9778 24.4975 13.9778C24.4977 13.9777 24.4981 13.9777 24.4987 13.9776C24.4999 13.9774 24.5018 13.9771 24.5043 13.9768C24.5095 13.976 24.5173 13.9749 24.5277 13.9735C24.5485 13.9707 24.5796 13.9667 24.6198 13.9619C24.7001 13.9524 24.8168 13.9399 24.9605 13.9284C25.2483 13.9054 25.6426 13.8865 26.0702 13.9024C26.4987 13.9183 26.9546 13.969 27.3678 14.0825C27.7826 14.1966 28.1391 14.3698 28.385 14.6202L28.6703 14.3398C28.3563 14.0202 27.9252 13.8209 27.4738 13.6968C27.0207 13.5723 26.5316 13.5192 26.0851 13.5026C25.6377 13.486 25.227 13.5058 24.9286 13.5297C24.7792 13.5416 24.6574 13.5546 24.5726 13.5647C24.5302 13.5697 24.497 13.5741 24.4742 13.5771C24.4628 13.5787 24.454 13.5799 24.4479 13.5808C24.4449 13.5812 24.4425 13.5815 24.4409 13.5818C24.44 13.5819 24.4394 13.582 24.4389 13.5821C24.4387 13.5821 24.4385 13.5821 24.4384 13.5822C24.4383 13.5822 24.4382 13.5822 24.4382 13.5822C24.4381 13.5822 24.4381 13.5822 24.4677 13.78ZM28.3872 14.6224C28.5499 14.7828 28.7344 15.0474 28.9386 15.4023C29.1412 15.7542 29.3562 16.1823 29.5825 16.6606C29.8087 17.1385 30.0446 17.6629 30.2894 18.2071C30.5339 18.7505 30.7871 19.3133 31.0467 19.8651C31.5648 20.9663 32.1136 22.0353 32.679 22.8309C32.9617 23.2287 33.2544 23.5665 33.5564 23.8066C33.8581 24.0463 34.1837 24.2 34.5277 24.2V23.8C34.3066 23.8 34.0666 23.7012 33.8053 23.4934C33.5443 23.286 33.2767 22.9813 33.0051 22.5991C32.4618 21.8347 31.9256 20.7937 31.4086 19.6949C31.1507 19.1467 30.8989 18.587 30.6542 18.0429C30.4098 17.4996 30.1722 16.9715 29.9441 16.4894C29.716 16.0077 29.4957 15.5683 29.2853 15.2027C29.0766 14.8401 28.8704 14.5372 28.6681 14.3376L28.3872 14.6224ZM34.6791 24.1306L35.6791 22.9706L35.3762 22.7094L34.3762 23.8694L34.6791 24.1306ZM35.5277 22.64C35.3834 22.64 35.1909 22.5389 34.9485 22.2744C34.7129 22.0171 34.4629 21.6413 34.2017 21.1764C33.6799 20.2477 33.136 19.0054 32.5885 17.75C32.0436 16.5008 31.4951 15.2382 30.9692 14.2887C30.7065 13.8145 30.4438 13.4077 30.1836 13.1171C29.9308 12.8349 29.6432 12.62 29.3277 12.62V13.02C29.4621 13.02 29.6476 13.1182 29.8856 13.384C30.116 13.6413 30.3616 14.0174 30.6193 14.4825C31.134 15.4118 31.6742 16.6542 32.2218 17.91C32.7668 19.1596 33.3192 20.4223 33.853 21.3723C34.1196 21.8469 34.3872 22.2538 34.6536 22.5445C34.9132 22.828 35.2069 23.04 35.5277 23.04V22.64ZM41.8044 23.12H41.6044V23.32H41.8044V23.12ZM41.8044 13.58V13.38H41.6044V13.58H41.8044ZM49.6244 13.58V13.78H49.8244V13.58H49.6244ZM49.6244 12.72H49.8244V12.52H49.6244V12.72ZM41.8044 12.72H41.6044V12.92H41.8044V12.72ZM41.8044 2.72V2.52H41.6044V2.72H41.8044ZM52.4044 2.72V2.92H52.6044V2.72H52.4044ZM52.4044 1.8H52.6044V1.6H52.4044V1.8ZM39.6444 1.8V1.6H39.4444V1.8H39.6444ZM39.6444 22.66H39.4444V22.7713L39.5389 22.83L39.6444 22.66ZM41.8044 24L41.6989 24.17L41.7474 24.2H41.8044V24ZM52.4844 24V24.2H52.6844V24H52.4844ZM52.4844 23.12H52.6844V22.92H52.4844V23.12ZM42.0044 23.12V13.58H41.6044V23.12H42.0044ZM41.8044 13.78H49.6244V13.38H41.8044V13.78ZM49.8244 13.58V12.72H49.4244V13.58H49.8244ZM49.6244 12.52H41.8044V12.92H49.6244V12.52ZM42.0044 12.72V2.72H41.6044V12.72H42.0044ZM41.8044 2.92H52.4044V2.52H41.8044V2.92ZM52.6044 2.72V1.8H52.2044V2.72H52.6044ZM52.4044 1.6H39.6444V2H52.4044V1.6ZM39.4444 1.8V22.66H39.8444V1.8H39.4444ZM39.5389 22.83L41.6989 24.17L41.9098 23.83L39.7498 22.49L39.5389 22.83ZM41.8044 24.2H52.4844V23.8H41.8044V24.2ZM52.6844 24V23.12H52.2844V24H52.6844ZM52.4844 22.92H41.8044V23.32H52.4844V22.92ZM65.5236 16.38V16.58H65.791L65.7154 16.3235L65.5236 16.38ZM57.9636 16.38L57.7762 16.3102L57.6758 16.58H57.9636V16.38ZM62.1836 5.04L62.3754 4.98349L62.2057 4.40716L61.9962 4.97024L62.1836 5.04ZM57.5036 17.62V17.42H57.366L57.3168 17.5486L57.5036 17.62ZM65.8836 17.62L66.0761 17.5657L66.035 17.42H65.8836V17.62ZM67.6836 24L67.4911 24.0543L67.5496 24.2615L67.7519 24.188L67.6836 24ZM69.8836 23.2L69.9519 23.388L70.1306 23.323L70.0748 23.1412L69.8836 23.2ZM63.3036 1.8L63.4948 1.74122L63.4176 1.49037L63.1962 1.63127L63.3036 1.8ZM62.2036 2.5L62.0962 2.33127L62.0411 2.36634L62.0173 2.42719L62.2036 2.5ZM53.9636 23.58L53.7773 23.5072L53.7039 23.6949L53.8923 23.7668L53.9636 23.58ZM55.0636 24L54.9923 24.1868L55.179 24.2581L55.2504 24.0714L55.0636 24ZM65.5236 16.18H57.9636V16.58H65.5236V16.18ZM58.151 16.4498L62.371 5.10975L61.9962 4.97024L57.7762 16.3102L58.151 16.4498ZM61.9917 5.09651L65.3317 16.4365L65.7154 16.3235L62.3754 4.98349L61.9917 5.09651ZM57.5036 17.82H65.8836V17.42H57.5036V17.82ZM65.6911 17.6743L67.4911 24.0543L67.8761 23.9457L66.0761 17.5657L65.6911 17.6743ZM67.7519 24.188L69.9519 23.388L69.8152 23.012L67.6152 23.812L67.7519 24.188ZM70.0748 23.1412L63.4948 1.74122L63.1124 1.85878L69.6924 23.2588L70.0748 23.1412ZM63.1962 1.63127L62.0962 2.33127L62.311 2.66873L63.411 1.96873L63.1962 1.63127ZM62.0173 2.42719L53.7773 23.5072L54.1499 23.6528L62.3899 2.57281L62.0173 2.42719ZM53.8923 23.7668L54.9923 24.1868L55.1349 23.8132L54.0349 23.3932L53.8923 23.7668ZM55.2504 24.0714L57.6904 17.6914L57.3168 17.5486L54.8768 23.9286L55.2504 24.0714ZM86.613 1.8H86.813V1.6H86.613V1.8ZM70.613 1.8V1.6H70.413V1.8H70.613ZM70.613 2.88H70.413V3.08H70.613V2.88ZM77.613 2.88H77.813V2.68H77.613V2.88ZM77.613 22.68H77.413V22.7876L77.5028 22.8469L77.613 22.68ZM79.613 24L79.5028 24.1669L79.813 24.3716V24H79.613ZM79.613 2.88V2.68H79.413V2.88H79.613ZM86.593 2.88V3.08H86.7815L86.7926 2.89174L86.593 2.88ZM86.613 1.6H70.613V2H86.613V1.6ZM70.413 1.8V2.88H70.813V1.8H70.413ZM70.613 3.08H77.613V2.68H70.613V3.08ZM77.413 2.88V22.68H77.813V2.88H77.413ZM77.5028 22.8469L79.5028 24.1669L79.7231 23.8331L77.7231 22.5131L77.5028 22.8469ZM79.813 24V2.88H79.413V24H79.813ZM79.613 3.08H86.593V2.68H79.613V3.08ZM86.7926 2.89174C86.813 2.54475 86.813 2.13854 86.813 1.8H86.413C86.413 2.14146 86.4129 2.53525 86.3933 2.86826L86.7926 2.89174ZM92.8572 24V24.2H93.0572V24H92.8572ZM92.8572 1.8H93.0572V1.6H92.8572V1.8ZM90.9772 1.8V1.6H90.7772V1.8H90.9772ZM90.9772 24H90.7772V24.2H90.9772V24ZM93.0572 24V1.8H92.6572V24H93.0572ZM92.8572 1.6H90.9772V2H92.8572V1.6ZM90.7772 1.8V24H91.1772V1.8H90.7772ZM90.9772 24.2H92.8572V23.8H90.9772V24.2ZM108.172 1.8V1.6H107.973L107.972 1.79896L108.172 1.8ZM108.072 21.12L107.888 21.1991L108.272 21.121L108.072 21.12ZM99.752 1.8L99.9357 1.72089L99.8837 1.6H99.752V1.8ZM98.112 1.8V1.6H97.912V1.8H98.112ZM98.112 24H97.912V24.2H98.112V24ZM99.112 24V24.2H99.312V24H99.112ZM99.112 6.22L99.2951 6.13948L98.912 6.22H99.112ZM106.932 24L106.749 24.0805L106.835 24.2762L107.025 24.1773L106.932 24ZM109.232 22.8L109.325 22.9773L109.432 22.9212V22.8H109.232ZM109.232 1.8H109.432V1.6H109.232V1.8ZM107.972 1.79896L107.872 21.119L108.272 21.121L108.372 1.80103L107.972 1.79896ZM108.256 21.0409L99.9357 1.72089L99.5683 1.8791L107.888 21.1991L108.256 21.0409ZM99.752 1.6H98.112V2H99.752V1.6ZM97.912 1.8V24H98.312V1.8H97.912ZM98.112 24.2H99.112V23.8H98.112V24.2ZM99.312 24V6.22H98.912V24H99.312ZM98.929 6.30052L106.749 24.0805L107.115 23.9195L99.2951 6.13948L98.929 6.30052ZM107.025 24.1773L109.325 22.9773L109.14 22.6227L106.84 23.8227L107.025 24.1773ZM109.432 22.8V1.8H109.032V22.8H109.432ZM109.232 1.6H108.172V2H109.232V1.6ZM127.806 16L128.006 15.9889L127.995 15.8H127.806V16ZM120.666 16V15.8H120.466V16H120.666ZM120.666 17.1H120.466V17.3028L120.669 17.3L120.666 17.1ZM126.346 17.34H126.146L126.147 17.3526L126.346 17.34ZM124.906 22.2L124.838 22.012L124.838 22.0121L124.906 22.2ZM117.446 3.28L117.372 3.0943L117.371 3.09461L117.446 3.28ZM124.966 6.64L124.799 6.74998L124.858 6.84H124.966V6.64ZM127.466 6.64V6.84H127.78L127.648 6.55563L127.466 6.64ZM119.526 1.8L119.545 1.99908L119.553 1.99834L119.561 1.99701L119.526 1.8ZM127.766 17.7L127.569 17.6682L127.568 17.6756L127.567 17.6832L127.766 17.7ZM127.806 15.8H120.666V16.2H127.806V15.8ZM120.466 16V17.1H120.866V16H120.466ZM120.666 17.1C120.669 17.3 120.669 17.3 120.669 17.3C120.669 17.3 120.669 17.3 120.669 17.3C120.669 17.3 120.67 17.3 120.67 17.3C120.671 17.3 120.672 17.2999 120.673 17.2999C120.676 17.2999 120.68 17.2998 120.685 17.2998C120.696 17.2996 120.712 17.2994 120.732 17.2992C120.774 17.2987 120.835 17.298 120.912 17.2972C121.067 17.2956 121.289 17.2937 121.555 17.2925C122.086 17.29 122.795 17.29 123.503 17.3C124.213 17.31 124.918 17.3299 125.445 17.367C125.709 17.3856 125.922 17.4082 126.066 17.4345C126.14 17.448 126.185 17.4607 126.207 17.4697C126.219 17.4746 126.212 17.4737 126.2 17.4629C126.187 17.4521 126.146 17.4112 126.146 17.34H126.546C126.546 17.2488 126.494 17.1887 126.46 17.1595C126.426 17.1301 126.388 17.1116 126.358 17.0994C126.297 17.0745 126.22 17.056 126.138 17.0411C125.972 17.0106 125.741 16.9869 125.473 16.968C124.934 16.9301 124.22 16.91 123.509 16.9C122.797 16.89 122.086 16.89 121.553 16.8925C121.286 16.8938 121.064 16.8956 120.908 16.8972C120.83 16.898 120.769 16.8987 120.728 16.8992C120.707 16.8994 120.691 16.8997 120.68 16.8998C120.675 16.8999 120.67 16.8999 120.668 16.9C120.666 16.9 120.665 16.9 120.665 16.9C120.664 16.9 120.664 16.9 120.664 16.9C120.664 16.9 120.664 16.9 120.664 16.9C120.663 16.9 120.663 16.9 120.666 17.1ZM126.147 17.3526C126.237 18.7817 126.219 19.843 126.018 20.6039C125.821 21.3489 125.454 21.7887 124.838 22.012L124.974 22.388C125.738 22.1113 126.181 21.5511 126.405 20.7061C126.624 19.877 126.636 18.7583 126.546 17.3274L126.147 17.3526ZM124.838 22.0121C122.938 22.7044 121.125 22.0958 119.556 20.7056C117.983 19.3121 116.676 17.1475 115.822 14.7943C114.968 12.4416 114.576 9.92259 114.814 7.83104C115.052 5.73626 115.913 4.11606 117.521 3.46539L117.371 3.09461C115.569 3.82394 114.663 5.62123 114.417 7.78584C114.17 9.95366 114.577 12.5359 115.446 14.9307C116.314 17.325 117.653 19.5542 119.291 21.005C120.932 22.4592 122.895 23.1456 124.975 22.3879L124.838 22.0121ZM117.521 3.46569C118.281 3.16133 119.449 2.99563 120.75 3.39614C122.047 3.79562 123.491 4.76318 124.799 6.74998L125.133 6.53001C123.781 4.47682 122.266 3.44438 120.868 3.01386C119.473 2.58437 118.211 2.75867 117.372 3.0943L117.521 3.46569ZM124.966 6.84H127.466V6.44H124.966V6.84ZM127.648 6.55563C126.281 3.61897 124.248 2.37305 122.548 1.86828C121.701 1.61681 120.941 1.55011 120.391 1.54625C120.117 1.54433 119.894 1.55813 119.739 1.57258C119.661 1.57981 119.601 1.58721 119.559 1.5929C119.538 1.59575 119.522 1.59817 119.511 1.59993C119.505 1.60081 119.501 1.60152 119.497 1.60204C119.496 1.6023 119.495 1.60251 119.494 1.60267C119.493 1.60275 119.493 1.60282 119.492 1.60287C119.492 1.6029 119.492 1.60293 119.492 1.60294C119.492 1.60297 119.492 1.60299 119.526 1.8C119.561 1.99701 119.561 1.99702 119.561 1.99704C119.561 1.99704 119.561 1.99705 119.561 1.99704C119.561 1.99704 119.561 1.99703 119.561 1.997C119.561 1.99694 119.562 1.99683 119.563 1.99667C119.565 1.99635 119.568 1.99583 119.572 1.99515C119.581 1.99378 119.595 1.99173 119.613 1.98925C119.649 1.98427 119.705 1.97753 119.776 1.97085C119.919 1.9575 120.129 1.94442 120.389 1.94624C120.909 1.94989 121.631 2.01319 122.434 2.25172C124.035 2.72695 125.971 3.90103 127.285 6.72437L127.648 6.55563ZM119.526 1.8C119.507 1.60091 119.507 1.60093 119.507 1.60095C119.507 1.60096 119.507 1.60098 119.506 1.601C119.506 1.60103 119.505 1.60108 119.505 1.60114C119.504 1.60125 119.502 1.60141 119.5 1.60162C119.496 1.60202 119.491 1.60262 119.484 1.60343C119.471 1.60505 119.451 1.60753 119.426 1.6111C119.375 1.61825 119.302 1.62979 119.211 1.6476C119.027 1.68322 118.767 1.74398 118.455 1.84508C117.832 2.04718 117.003 2.41128 116.173 3.05993C114.505 4.36372 112.866 6.79416 112.866 11.28H113.266C113.266 6.90584 114.857 4.59628 116.419 3.37507C117.205 2.76122 117.99 2.41657 118.579 2.22554C118.873 2.13008 119.117 2.07319 119.287 2.04029C119.372 2.02384 119.438 2.01341 119.482 2.00715C119.504 2.00402 119.52 2.00194 119.531 2.00067C119.537 2.00003 119.54 1.9996 119.543 1.99935C119.544 1.99922 119.545 1.99914 119.545 1.9991C119.545 1.99908 119.546 1.99906 119.546 1.99906C119.546 1.99906 119.546 1.99907 119.546 1.99907C119.545 1.99907 119.545 1.99908 119.526 1.8ZM112.866 11.28C112.866 20.1877 118.354 24.2 122.426 24.2V23.8C118.618 23.8 113.266 20.0122 113.266 11.28H112.866ZM122.426 24.2C123.497 24.2 124.779 23.8568 125.847 22.864C126.917 21.8699 127.752 20.2438 127.966 17.7168L127.567 17.6832C127.36 20.1362 126.555 21.6601 125.575 22.571C124.593 23.4832 123.415 23.8 122.426 23.8V24.2ZM127.964 17.7318C128.017 17.4041 128.026 16.9647 128.024 16.6161C128.022 16.4399 128.018 16.2835 128.014 16.1711C128.012 16.1149 128.01 16.0696 128.008 16.0382C128.008 16.0225 128.007 16.0103 128.007 16.002C128.006 15.9978 128.006 15.9946 128.006 15.9924C128.006 15.9913 128.006 15.9905 128.006 15.9899C128.006 15.9896 128.006 15.9894 128.006 15.9892C128.006 15.9891 128.006 15.9891 128.006 15.989C128.006 15.989 128.006 15.989 128.006 15.9889C128.006 15.9889 128.006 15.9889 127.806 16C127.607 16.0111 127.607 16.0111 127.607 16.0111C127.607 16.0111 127.607 16.0111 127.607 16.0111C127.607 16.0111 127.607 16.0111 127.607 16.0112C127.607 16.0113 127.607 16.0115 127.607 16.0117C127.607 16.0121 127.607 16.0129 127.607 16.0138C127.607 16.0157 127.607 16.0187 127.607 16.0226C127.608 16.0303 127.608 16.042 127.609 16.057C127.61 16.0871 127.612 16.131 127.614 16.1858C127.618 16.2952 127.623 16.4476 127.624 16.6189C127.626 16.9653 127.616 17.3759 127.569 17.6682L127.964 17.7318ZM8.3 56.06L8.10881 56.1187L8.18793 56.3764L8.41164 56.2259L8.3 56.06ZM9.4 55.32L9.51164 55.4859L9.5635 55.4511L9.58626 55.3928L9.4 55.32ZM17.66 34.2L17.8463 34.2728L17.9213 34.081L17.7273 34.0117L17.66 34.2ZM16.54 33.8L16.6073 33.6117L16.4218 33.5454L16.3527 33.7298L16.54 33.8ZM9.42 52.8L9.22789 52.8556L9.39561 53.435L9.60728 52.8702L9.42 52.8ZM3.92 33.8L4.11211 33.7444L4.05376 33.5428L3.85522 33.6108L3.92 33.8ZM1.7 34.56L1.63522 34.3708L1.45196 34.4335L1.50881 34.6187L1.7 34.56ZM8.41164 56.2259L9.51164 55.4859L9.28837 55.1541L8.18836 55.8941L8.41164 56.2259ZM9.58626 55.3928L17.8463 34.2728L17.4737 34.1272L9.21374 55.2472L9.58626 55.3928ZM17.7273 34.0117L16.6073 33.6117L16.4727 33.9883L17.5927 34.3883L17.7273 34.0117ZM16.3527 33.7298L9.23272 52.7298L9.60728 52.8702L16.7273 33.8702L16.3527 33.7298ZM9.61211 52.7444L4.11211 33.7444L3.72789 33.8556L9.22789 52.8556L9.61211 52.7444ZM3.85522 33.6108L1.63522 34.3708L1.76478 34.7492L3.98478 33.9892L3.85522 33.6108ZM1.50881 34.6187L8.10881 56.1187L8.49119 56.0013L1.89119 34.5013L1.50881 34.6187ZM27.5158 48.38V48.58H27.7832L27.7076 48.3235L27.5158 48.38ZM19.9558 48.38L19.7683 48.3102L19.668 48.58H19.9558V48.38ZM24.1758 37.04L24.3676 36.9835L24.1979 36.4072L23.9883 36.9702L24.1758 37.04ZM19.4958 49.62V49.42H19.3581L19.309 49.5486L19.4958 49.62ZM27.8758 49.62L28.0683 49.5657L28.0272 49.42H27.8758V49.62ZM29.6758 56L29.4833 56.0543L29.5418 56.2615L29.7441 56.188L29.6758 56ZM31.8758 55.2L31.9441 55.388L32.1228 55.323L32.0669 55.1412L31.8758 55.2ZM25.2958 33.8L25.4869 33.7412L25.4098 33.4904L25.1884 33.6313L25.2958 33.8ZM24.1958 34.5L24.0884 34.3313L24.0333 34.3663L24.0095 34.4272L24.1958 34.5ZM15.9558 55.58L15.7695 55.5072L15.6961 55.6949L15.8844 55.7668L15.9558 55.58ZM17.0558 56L16.9844 56.1868L17.1712 56.2581L17.2426 56.0714L17.0558 56ZM27.5158 48.18H19.9558V48.58H27.5158V48.18ZM20.1432 48.4498L24.3632 37.1098L23.9883 36.9702L19.7683 48.3102L20.1432 48.4498ZM23.9839 37.0965L27.3239 48.4365L27.7076 48.3235L24.3676 36.9835L23.9839 37.0965ZM19.4958 49.82H27.8758V49.42H19.4958V49.82ZM27.6833 49.6743L29.4833 56.0543L29.8683 55.9457L28.0683 49.5657L27.6833 49.6743ZM29.7441 56.188L31.9441 55.388L31.8074 55.012L29.6074 55.812L29.7441 56.188ZM32.0669 55.1412L25.4869 33.7412L25.1046 33.8588L31.6846 55.2588L32.0669 55.1412ZM25.1884 33.6313L24.0884 34.3313L24.3032 34.6687L25.4032 33.9687L25.1884 33.6313ZM24.0095 34.4272L15.7695 55.5072L16.1421 55.6528L24.3821 34.5728L24.0095 34.4272ZM15.8844 55.7668L16.9844 56.1868L17.1271 55.8132L16.0271 55.3932L15.8844 55.7668ZM17.2426 56.0714L19.6826 49.6914L19.309 49.5486L16.869 55.9286L17.2426 56.0714ZM37.9052 34.52V34.32H37.7052V34.52H37.9052ZM39.7652 44.78L39.798 44.9773L39.7997 44.977L39.7652 44.78ZM37.9052 44.9H37.7052V45.1H37.9052V44.9ZM42.7652 44.82L42.6685 44.6449L42.7652 45.02V44.82ZM44.3052 43.88L44.4291 44.037L44.4305 44.0358L44.3052 43.88ZM36.0052 33.8V33.6H35.8052V33.8H36.0052ZM36.0052 56H35.8052V56.2H36.0052V56ZM37.9052 56V56.2H38.1052V56H37.9052ZM37.9052 45.78L37.8756 45.5822L37.7052 45.6077V45.78H37.9052ZM41.9652 46.48L41.8225 46.6202L41.8247 46.6224L41.9652 46.48ZM47.9652 56V56.2H48.0568L48.1166 56.1306L47.9652 56ZM48.9652 54.84L49.1166 54.9706L49.4016 54.64H48.9652V54.84ZM37.9052 34.72H39.7252V34.32H37.9052V34.72ZM39.7252 34.72C41.7401 34.72 43.0165 35.6645 43.7969 36.8195C44.5839 37.9842 44.8652 39.3639 44.8652 40.2H45.2652C45.2652 39.2961 44.9664 37.8358 44.1284 36.5955C43.2838 35.3455 41.8902 34.32 39.7252 34.32V34.72ZM44.8652 40.2C44.8652 41.2569 44.6135 42.036 44.2304 42.6167C43.8467 43.1983 43.3222 43.5944 42.7552 43.8701C41.6064 44.4288 40.336 44.4768 39.7306 44.583L39.7997 44.977C40.3343 44.8832 41.714 44.8212 42.9301 44.2299C43.5457 43.9305 44.1323 43.4917 44.5643 42.837C44.9968 42.1815 45.2652 41.3231 45.2652 40.2H44.8652ZM39.7323 44.5827C39.3852 44.6406 38.9306 44.6702 38.5572 44.6852C38.3716 44.6926 38.2083 44.6963 38.0914 44.6982C38.0329 44.6991 37.9862 44.6995 37.9541 44.6998C37.9381 44.6999 37.9257 44.6999 37.9174 44.7C37.9133 44.7 37.9102 44.7 37.9081 44.7C37.9071 44.7 37.9063 44.7 37.9058 44.7C37.9056 44.7 37.9054 44.7 37.9053 44.7C37.9052 44.7 37.9052 44.7 37.9052 44.7C37.9052 44.7 37.9052 44.7 37.9051 44.7C37.9052 44.7 37.9052 44.7 37.9052 44.9C37.9052 45.1 37.9052 45.1 37.9052 45.1C37.9052 45.1 37.9052 45.1 37.9053 45.1C37.9053 45.1 37.9054 45.1 37.9054 45.1C37.9056 45.1 37.9058 45.1 37.9062 45.1C37.9068 45.1 37.9076 45.1 37.9088 45.1C37.9111 45.1 37.9144 45.1 37.9188 45.1C37.9276 45.0999 37.9404 45.0999 37.957 45.0998C37.9901 45.0995 38.038 45.099 38.0977 45.0981C38.217 45.0962 38.3837 45.0924 38.5732 45.0848C38.9497 45.0698 39.4251 45.0394 39.798 44.9773L39.7323 44.5827ZM38.1052 44.9V34.52H37.7052V44.9H38.1052ZM42.7652 44.82C42.8618 44.9951 42.8618 44.9951 42.8618 44.9951C42.8618 44.9951 42.8618 44.9951 42.8618 44.9951C42.8619 44.9951 42.8619 44.995 42.862 44.995C42.8622 44.9949 42.8624 44.9948 42.8627 44.9946C42.8633 44.9943 42.8641 44.9938 42.8653 44.9932C42.8675 44.9919 42.8709 44.9901 42.8752 44.9877C42.8839 44.9828 42.8967 44.9757 42.9131 44.9666C42.9458 44.9484 42.9929 44.922 43.0506 44.8895C43.1659 44.8245 43.3238 44.7345 43.4937 44.6351C43.8285 44.4392 44.2262 44.1972 44.4291 44.037L44.1812 43.723C44.0042 43.8628 43.6318 44.0908 43.2916 44.2899C43.1241 44.388 42.9681 44.4768 42.8541 44.5411C42.7971 44.5733 42.7506 44.5993 42.7184 44.6172C42.7023 44.6262 42.6898 44.6331 42.6813 44.6378C42.6771 44.6402 42.6739 44.6419 42.6717 44.6431C42.6706 44.6437 42.6698 44.6442 42.6693 44.6445C42.669 44.6446 42.6688 44.6447 42.6687 44.6448C42.6686 44.6448 42.6686 44.6449 42.6686 44.6449C42.6686 44.6449 42.6686 44.6449 42.6685 44.6449C42.6685 44.6449 42.6685 44.6449 42.7652 44.82ZM44.4305 44.0358C44.8952 43.662 45.5194 43.138 46.0236 42.2596C46.5284 41.3802 46.9052 40.1599 46.9052 38.4H46.5052C46.5052 40.1001 46.142 41.2498 45.6767 42.0604C45.2109 42.872 44.6351 43.358 44.1798 43.7242L44.4305 44.0358ZM46.9052 38.4C46.9052 35.8958 44.8818 33.6 42.0652 33.6V34C44.6486 34 46.5052 36.1042 46.5052 38.4H46.9052ZM42.0652 33.6H36.0052V34H42.0652V33.6ZM35.8052 33.8V56H36.2052V33.8H35.8052ZM36.0052 56.2H37.9052V55.8H36.0052V56.2ZM38.1052 56V45.78H37.7052V56H38.1052ZM37.9052 45.78C37.9348 45.9778 37.9347 45.9778 37.9347 45.9778C37.9347 45.9778 37.9347 45.9778 37.9347 45.9778C37.9348 45.9778 37.9348 45.9778 37.935 45.9778C37.9352 45.9777 37.9356 45.9777 37.9362 45.9776C37.9374 45.9774 37.9393 45.9771 37.9418 45.9768C37.947 45.976 37.9548 45.9749 37.9652 45.9735C37.986 45.9707 38.0171 45.9667 38.0573 45.9619C38.1376 45.9524 38.2543 45.9399 38.398 45.9284C38.6858 45.9054 39.0801 45.8865 39.5077 45.9024C39.9362 45.9183 40.3921 45.969 40.8053 46.0825C41.2201 46.1966 41.5766 46.3698 41.8225 46.6202L42.1078 46.3398C41.7938 46.0202 41.3627 45.8209 40.9113 45.6968C40.4582 45.5723 39.9691 45.5192 39.5226 45.5026C39.0752 45.486 38.6645 45.5058 38.3661 45.5297C38.2167 45.5416 38.0949 45.5546 38.0101 45.5647C37.9677 45.5698 37.9345 45.5741 37.9117 45.5771C37.9003 45.5787 37.8915 45.5799 37.8854 45.5808C37.8824 45.5812 37.88 45.5815 37.8784 45.5818C37.8775 45.5819 37.8769 45.582 37.8764 45.5821C37.8762 45.5821 37.876 45.5821 37.8759 45.5822C37.8758 45.5822 37.8757 45.5822 37.8757 45.5822C37.8756 45.5822 37.8756 45.5822 37.9052 45.78ZM41.8247 46.6224C41.9874 46.7828 42.1719 47.0474 42.3761 47.4023C42.5787 47.7542 42.7937 48.1823 43.02 48.6606C43.2462 49.1385 43.4821 49.6629 43.7269 50.2071C43.9714 50.7505 44.2246 51.3133 44.4842 51.8651C45.0023 52.9663 45.5511 54.0353 46.1165 54.8309C46.3992 55.2287 46.6919 55.5665 46.9939 55.8066C47.2956 56.0463 47.6212 56.2 47.9652 56.2V55.8C47.7441 55.8 47.5041 55.7012 47.2428 55.4934C46.9818 55.286 46.7142 54.9813 46.4426 54.5991C45.8993 53.8347 45.3631 52.7937 44.8461 51.6949C44.5882 51.1467 44.3364 50.587 44.0917 50.0429C43.8473 49.4996 43.6097 48.9715 43.3816 48.4894C43.1535 48.0077 42.9332 47.5683 42.7228 47.2027C42.5141 46.8401 42.3079 46.5372 42.1056 46.3376L41.8247 46.6224ZM48.1166 56.1306L49.1166 54.9706L48.8137 54.7094L47.8137 55.8694L48.1166 56.1306ZM48.9652 54.64C48.8209 54.64 48.6284 54.5389 48.386 54.2744C48.1504 54.0171 47.9004 53.6413 47.6392 53.1764C47.1174 52.2477 46.5735 51.0054 46.026 49.75C45.4811 48.5008 44.9326 47.2382 44.4067 46.2887C44.144 45.8144 43.8813 45.4077 43.6211 45.1171C43.3683 44.8349 43.0807 44.62 42.7652 44.62V45.02C42.8996 45.02 43.0851 45.1182 43.3231 45.384C43.5535 45.6413 43.7991 46.0174 44.0568 46.4825C44.5715 47.4118 45.1117 48.6542 45.6593 49.91C46.2043 51.1596 46.7567 52.4223 47.2905 53.3723C47.5571 53.8469 47.8247 54.2538 48.0911 54.5445C48.3507 54.828 48.6444 55.04 48.9652 55.04V54.64ZM55.1619 56V56.2H55.3619V56H55.1619ZM55.1619 33.8H55.3619V33.6H55.1619V33.8ZM53.2819 33.8V33.6H53.0819V33.8H53.2819ZM53.2819 56H53.0819V56.2H53.2819V56ZM55.3619 56V33.8H54.9619V56H55.3619ZM55.1619 33.6H53.2819V34H55.1619V33.6ZM53.0819 33.8V56H53.4819V33.8H53.0819ZM53.2819 56.2H55.1619V55.8H53.2819V56.2ZM69.9767 48.38V48.58H70.2441L70.1686 48.3235L69.9767 48.38ZM62.4167 48.38L62.2293 48.3102L62.1289 48.58H62.4167V48.38ZM66.6367 37.04L66.8286 36.9835L66.6588 36.4072L66.4493 36.9702L66.6367 37.04ZM61.9567 49.62V49.42H61.8191L61.7699 49.5486L61.9567 49.62ZM70.3367 49.62L70.5292 49.5657L70.4881 49.42H70.3367V49.62ZM72.1367 56L71.9442 56.0543L72.0027 56.2615L72.2051 56.188L72.1367 56ZM74.3367 55.2L74.4051 55.388L74.5838 55.323L74.5279 55.1412L74.3367 55.2ZM67.7567 33.8L67.9479 33.7412L67.8708 33.4904L67.6493 33.6313L67.7567 33.8ZM66.6567 34.5L66.5493 34.3313L66.4942 34.3663L66.4704 34.4272L66.6567 34.5ZM58.4167 55.58L58.2304 55.5072L58.1571 55.6949L58.3454 55.7668L58.4167 55.58ZM59.5167 56L59.4454 56.1868L59.6321 56.2581L59.7035 56.0714L59.5167 56ZM69.9767 48.18H62.4167V48.58H69.9767V48.18ZM62.6042 48.4498L66.8242 37.1098L66.4493 36.9702L62.2293 48.3102L62.6042 48.4498ZM66.4449 37.0965L69.7849 48.4365L70.1686 48.3235L66.8286 36.9835L66.4449 37.0965ZM61.9567 49.82H70.3367V49.42H61.9567V49.82ZM70.1442 49.6743L71.9442 56.0543L72.3292 55.9457L70.5292 49.5657L70.1442 49.6743ZM72.2051 56.188L74.4051 55.388L74.2684 55.012L72.0684 55.812L72.2051 56.188ZM74.5279 55.1412L67.9479 33.7412L67.5656 33.8588L74.1456 55.2588L74.5279 55.1412ZM67.6493 33.6313L66.5493 34.3313L66.7641 34.6687L67.8641 33.9687L67.6493 33.6313ZM66.4704 34.4272L58.2304 55.5072L58.603 55.6528L66.843 34.5728L66.4704 34.4272ZM58.3454 55.7668L59.4454 56.1868L59.5881 55.8132L58.4881 55.3932L58.3454 55.7668ZM59.7035 56.0714L62.1435 49.6914L61.7699 49.5486L59.3299 55.9286L59.7035 56.0714ZM87.5861 33.8V33.6H87.3871L87.3861 33.799L87.5861 33.8ZM87.4861 53.12L87.3024 53.1991L87.6861 53.121L87.4861 53.12ZM79.1661 33.8L79.3498 33.7209L79.2977 33.6H79.1661V33.8ZM77.5261 33.8V33.6H77.3261V33.8H77.5261ZM77.5261 56H77.3261V56.2H77.5261V56ZM78.5261 56V56.2H78.7261V56H78.5261ZM78.5261 38.22L78.7092 38.1395L78.3261 38.22H78.5261ZM86.3461 56L86.163 56.0805L86.2491 56.2762L86.4386 56.1773L86.3461 56ZM88.6461 54.8L88.7386 54.9773L88.8461 54.9212V54.8H88.6461ZM88.6461 33.8H88.8461V33.6H88.6461V33.8ZM87.3861 33.799L87.2861 53.119L87.6861 53.121L87.7861 33.801L87.3861 33.799ZM87.6698 53.0409L79.3498 33.7209L78.9824 33.8791L87.3024 53.1991L87.6698 53.0409ZM79.1661 33.6H77.5261V34H79.1661V33.6ZM77.3261 33.8V56H77.7261V33.8H77.3261ZM77.5261 56.2H78.5261V55.8H77.5261V56.2ZM78.7261 56V38.22H78.3261V56H78.7261ZM78.343 38.3005L86.163 56.0805L86.5292 55.9195L78.7092 38.1395L78.343 38.3005ZM86.4386 56.1773L88.7386 54.9773L88.5536 54.6227L86.2536 55.8227L86.4386 56.1773ZM88.8461 54.8V33.8H88.4461V54.8H88.8461ZM88.6461 33.6H87.5861V34H88.6461V33.6ZM107.14 33.8H107.34V33.6H107.14V33.8ZM91.1403 33.8V33.6H90.9403V33.8H91.1403ZM91.1403 34.88H90.9403V35.08H91.1403V34.88ZM98.1403 34.88H98.3403V34.68H98.1403V34.88ZM98.1403 54.68H97.9403V54.7876L98.0301 54.8469L98.1403 54.68ZM100.14 56L100.03 56.1669L100.34 56.3716V56H100.14ZM100.14 34.88V34.68H99.9403V34.88H100.14ZM107.12 34.88V35.08H107.309L107.32 34.8917L107.12 34.88ZM107.14 33.6H91.1403V34H107.14V33.6ZM90.9403 33.8V34.88H91.3403V33.8H90.9403ZM91.1403 35.08H98.1403V34.68H91.1403V35.08ZM97.9403 34.88V54.68H98.3403V34.88H97.9403ZM98.0301 54.8469L100.03 56.1669L100.25 55.8331L98.2505 54.5131L98.0301 54.8469ZM100.34 56V34.88H99.9403V56H100.34ZM100.14 35.08H107.12V34.68H100.14V35.08ZM107.32 34.8917C107.34 34.5447 107.34 34.1385 107.34 33.8H106.94C106.94 34.1415 106.94 34.5352 106.921 34.8683L107.32 34.8917ZM109.925 42.14L109.725 42.1479L109.725 42.1487L109.925 42.14ZM121.705 44.14L121.844 43.9964L121.843 43.9956L121.705 44.14ZM112.345 50.5L112.545 50.4992L112.544 50.3H112.345V50.5ZM110.045 50.5V50.3H109.845V50.5H110.045ZM112.225 41.36L112.421 41.3218L112.421 41.3205L112.225 41.36ZM120.705 38.28L120.508 38.3196L120.541 38.48H120.705V38.28ZM123.405 38.28V38.48H123.646L123.601 38.2426L123.405 38.28ZM117.405 33.6C114.665 33.6 112.696 34.6969 111.436 36.3251C110.182 37.947 109.643 40.0809 109.725 42.1479L110.124 42.1321C110.046 40.1391 110.567 38.103 111.753 36.5699C112.934 35.0431 114.784 34 117.405 34V33.6ZM109.725 42.1487C109.751 42.7635 109.937 43.2455 110.26 43.6096C110.58 43.9713 111.021 44.1991 111.527 44.3359C112.532 44.6073 113.853 44.5348 115.192 44.3812C116.552 44.2252 117.92 43.9874 119.097 43.9004C119.681 43.8572 120.2 43.8531 120.627 43.9133C121.058 43.974 121.37 44.0965 121.566 44.2844L121.843 43.9956C121.559 43.7235 121.149 43.5829 120.683 43.5172C120.214 43.4511 119.662 43.4575 119.067 43.5015C117.886 43.5889 116.467 43.8323 115.147 43.9838C113.806 44.1377 112.554 44.199 111.632 43.9497C111.174 43.8262 110.812 43.6301 110.559 43.3442C110.308 43.0607 110.148 42.6715 110.124 42.1314L109.725 42.1487ZM121.565 44.2836C122.144 44.8444 122.333 45.7834 122.217 46.9371C122.101 48.083 121.687 49.3931 121.122 50.6347C120.558 51.8755 119.85 53.0356 119.154 53.8821C118.806 54.3056 118.465 54.6452 118.152 54.8772C117.835 55.1126 117.568 55.22 117.365 55.22V55.62C117.696 55.62 118.047 55.453 118.39 55.1985C118.738 54.9406 119.102 54.5747 119.463 54.1361C120.184 53.2581 120.911 52.067 121.487 50.8003C122.062 49.5344 122.493 48.1807 122.615 46.9773C122.736 45.7816 122.555 44.6856 121.844 43.9964L121.565 44.2836ZM117.365 55.22C116.149 55.22 115.249 54.9215 114.58 54.4839C113.91 54.0456 113.46 53.46 113.158 52.8688C112.854 52.2768 112.701 51.6825 112.623 51.2346C112.584 51.0111 112.564 50.8253 112.555 50.6961C112.55 50.6316 112.547 50.5813 112.546 50.5477C112.545 50.5309 112.545 50.5182 112.545 50.51C112.545 50.5059 112.545 50.503 112.545 50.5011C112.545 50.5002 112.545 50.4996 112.545 50.4993C112.545 50.4991 112.545 50.499 112.545 50.499C112.545 50.499 112.545 50.4991 112.545 50.499C112.545 50.4991 112.545 50.4992 112.345 50.5C112.145 50.5008 112.145 50.5009 112.145 50.5011C112.145 50.5011 112.145 50.5013 112.145 50.5014C112.145 50.5017 112.145 50.5021 112.145 50.5025C112.145 50.5034 112.145 50.5045 112.145 50.506C112.145 50.5089 112.145 50.513 112.145 50.5182C112.145 50.5286 112.145 50.5436 112.146 50.5628C112.148 50.6013 112.15 50.6567 112.156 50.7267C112.166 50.8666 112.187 51.0652 112.229 51.3029C112.311 51.7775 112.475 52.4132 112.802 53.0512C113.129 53.69 113.621 54.3344 114.361 54.8186C115.102 55.3035 116.08 55.62 117.365 55.62V55.22ZM112.345 50.3H110.045V50.7H112.345V50.3ZM109.845 50.5C109.845 50.8523 109.88 52.2754 110.76 53.6148C111.65 54.969 113.377 56.2 116.685 56.2V55.8C113.492 55.8 111.9 54.621 111.094 53.3952C110.279 52.1546 110.245 50.8277 110.245 50.5H109.845ZM116.685 56.2C118.642 56.2 120.712 54.9923 122.284 53.2254C123.859 51.4553 124.965 49.0898 124.965 46.72H124.565C124.565 48.9702 123.51 51.2447 121.985 52.9596C120.457 54.6777 118.487 55.8 116.685 55.8V56.2ZM124.965 46.72C124.965 45.9091 124.769 45.2505 124.417 44.7196C124.065 44.1897 123.566 43.8003 122.978 43.512C121.809 42.9392 120.262 42.7516 118.731 42.6628C117.18 42.5729 115.659 42.5837 114.464 42.424C113.869 42.3445 113.381 42.2251 113.028 42.042C112.681 41.862 112.481 41.6301 112.421 41.3218L112.028 41.3982C112.118 41.8599 112.423 42.1787 112.844 42.397C113.258 42.6122 113.801 42.739 114.411 42.8204C115.623 42.9825 117.199 42.9746 118.708 43.0622C120.237 43.1509 121.712 43.3371 122.801 43.8711C123.342 44.1363 123.78 44.4836 124.084 44.9408C124.387 45.397 124.565 45.9759 124.565 46.72H124.965ZM112.421 41.3205C112.128 39.8685 112.295 38.2502 112.836 37.002C113.378 35.7496 114.269 34.92 115.405 34.92V34.52C114.04 34.52 113.041 35.5204 112.468 36.843C111.894 38.1698 111.721 39.8715 112.028 41.3995L112.421 41.3205ZM115.405 34.92C117.634 34.92 118.904 35.7831 119.619 36.6291C119.98 37.0552 120.203 37.4815 120.336 37.8007C120.402 37.9601 120.446 38.0923 120.473 38.1835C120.486 38.2291 120.495 38.2644 120.501 38.2876C120.504 38.2993 120.506 38.3079 120.507 38.3133C120.508 38.316 120.508 38.3179 120.508 38.319C120.508 38.3195 120.509 38.3198 120.509 38.32C120.509 38.32 120.509 38.32 120.509 38.32C120.509 38.3199 120.509 38.3199 120.509 38.3198C120.509 38.3198 120.508 38.3196 120.705 38.28C120.901 38.2404 120.901 38.2402 120.901 38.2401C120.9 38.24 120.9 38.2398 120.9 38.2397C120.9 38.2394 120.9 38.2391 120.9 38.2388C120.9 38.238 120.9 38.237 120.9 38.2359C120.899 38.2335 120.898 38.2303 120.898 38.2263C120.896 38.2182 120.893 38.2068 120.89 38.1924C120.882 38.1635 120.872 38.1223 120.857 38.0706C120.826 37.9671 120.778 37.8211 120.705 37.6468C120.56 37.2985 120.317 36.8348 119.925 36.3709C119.135 35.4369 117.755 34.52 115.405 34.52V34.92ZM120.705 38.48H123.405V38.08H120.705V38.48ZM123.601 38.2426C123.555 38.0025 123.399 37.596 123.136 37.1278C122.872 36.6554 122.492 36.1074 121.988 35.5861C120.981 34.5423 119.472 33.6 117.405 33.6V34C119.338 34 120.748 34.8777 121.701 35.8639C122.177 36.3576 122.537 36.8771 122.788 37.3234C123.04 37.774 123.174 38.1375 123.208 38.3174L123.601 38.2426Z" />
</svg>
