<svg width="206" height="26" viewBox="0 0 206 26" fill="black" xmlns="http://www.w3.org/2000/svg">
  <path d="M2.78 13.58H10.6V12.52H2.78V2.84H13.38V1.8H0.62V22.68L2.78 24V13.58ZM17.6306 24V1.8H15.7506V24H17.6306ZM23.1255 24.02H42.4455V23.02H33.6055V1.82H31.5455V23.02H25.1855V1.82H23.1255V24.02ZM74.1516 1.8L67.0516 20.74L64.0716 10.48L67.3116 2.24L66.1916 1.8L63.5716 8.78L61.5716 1.8L59.3516 2.6L62.3116 12.18L59.0916 20.74L53.6116 1.8L51.4116 2.6L57.9916 24L59.0716 23.28L62.7916 13.78L65.9316 24L67.0316 23.28L75.2516 2.24L74.1516 1.8ZM81.0877 24V1.8H79.2077V24H81.0877ZM99.8825 1.8H83.8825V2.88H90.8825V22.68L92.8825 24V2.88H99.8625C99.8825 2.54 99.8825 2.14 99.8825 1.8ZM114.767 1.8V12.5H107.007V3.02L105.067 1.8V24H107.007V13.56H114.767V24H116.727V3.02L114.767 1.8ZM129.252 24V1.8H127.372V24H129.252ZM150.147 1.8L143.127 20.82L136.027 1.8H133.947V24H135.027V6.02L142.027 24L143.387 23.48L150.047 5.5L149.947 24H151.127V1.8H150.147ZM165.629 16.38H158.069L162.289 5.04L165.629 16.38ZM157.609 17.62H165.989L167.789 24L169.989 23.2L163.409 1.8L162.309 2.5L154.069 23.58L155.169 24L157.609 17.62ZM186.798 16H179.658V17.1C179.658 17.1 185.338 17.02 185.338 17.34C185.518 20.2 185.278 21.7 183.898 22.2C175.938 25.1 169.618 6.04 176.438 3.28C178.038 2.64 181.298 2.6 183.958 6.64H186.458C183.778 0.88 178.518 1.8 178.518 1.8C178.518 1.8 172.058 2.42 172.058 11.28C172.058 20.1 177.478 24 181.418 24C183.478 24 186.338 22.68 186.758 17.7C186.858 17.08 186.798 16 186.798 16ZM194.332 23.12V13.58H202.152V12.72H194.332V2.72H204.932V1.8H192.172V22.66L194.332 24H205.012V23.12H194.332Z" />
  <path d="M2.78 13.58V13.38H2.58V13.58H2.78ZM10.6 13.58V13.78H10.8V13.58H10.6ZM10.6 12.52H10.8V12.32H10.6V12.52ZM2.78 12.52H2.58V12.72H2.78V12.52ZM2.78 2.84V2.64H2.58V2.84H2.78ZM13.38 2.84V3.04H13.58V2.84H13.38ZM13.38 1.8H13.58V1.6H13.38V1.8ZM0.62 1.8V1.6H0.42V1.8H0.62ZM0.62 22.68H0.42V22.7922L0.51571 22.8507L0.62 22.68ZM2.78 24L2.67571 24.1707L2.98 24.3566V24H2.78ZM2.78 13.78H10.6V13.38H2.78V13.78ZM10.8 13.58V12.52H10.4V13.58H10.8ZM10.6 12.32H2.78V12.72H10.6V12.32ZM2.98 12.52V2.84H2.58V12.52H2.98ZM2.78 3.04H13.38V2.64H2.78V3.04ZM13.58 2.84V1.8H13.18V2.84H13.58ZM13.38 1.6H0.62V2H13.38V1.6ZM0.42 1.8V22.68H0.82V1.8H0.42ZM0.51571 22.8507L2.67571 24.1707L2.88429 23.8293L0.72429 22.5093L0.51571 22.8507ZM2.98 24V13.58H2.58V24H2.98ZM17.6306 24V24.2H17.8306V24H17.6306ZM17.6306 1.8H17.8306V1.6H17.6306V1.8ZM15.7506 1.8V1.6H15.5506V1.8H15.7506ZM15.7506 24H15.5506V24.2H15.7506V24ZM17.8306 24V1.8H17.4306V24H17.8306ZM17.6306 1.6H15.7506V2H17.6306V1.6ZM15.5506 1.8V24H15.9506V1.8H15.5506ZM15.7506 24.2H17.6306V23.8H15.7506V24.2ZM23.1255 24.02H22.9255V24.22H23.1255V24.02ZM42.4455 24.02V24.22H42.6455V24.02H42.4455ZM42.4455 23.02H42.6455V22.82H42.4455V23.02ZM33.6055 23.02H33.4055V23.22H33.6055V23.02ZM33.6055 1.82H33.8055V1.62H33.6055V1.82ZM31.5455 1.82V1.62H31.3455V1.82H31.5455ZM31.5455 23.02V23.22H31.7455V23.02H31.5455ZM25.1855 23.02H24.9855V23.22H25.1855V23.02ZM25.1855 1.82H25.3855V1.62H25.1855V1.82ZM23.1255 1.82V1.62H22.9255V1.82H23.1255ZM23.1255 24.22H42.4455V23.82H23.1255V24.22ZM42.6455 24.02V23.02H42.2455V24.02H42.6455ZM42.4455 22.82H33.6055V23.22H42.4455V22.82ZM33.8055 23.02V1.82H33.4055V23.02H33.8055ZM33.6055 1.62H31.5455V2.02H33.6055V1.62ZM31.3455 1.82V23.02H31.7455V1.82H31.3455ZM31.5455 22.82H25.1855V23.22H31.5455V22.82ZM25.3855 23.02V1.82H24.9855V23.02H25.3855ZM25.1855 1.62H23.1255V2.02H25.1855V1.62ZM22.9255 1.82V24.02H23.3255V1.82H22.9255ZM74.1516 1.8L74.2258 1.6143L74.036 1.53839L73.9643 1.7298L74.1516 1.8ZM67.0516 20.74L66.8595 20.7958L67.0275 21.3741L67.2388 20.8102L67.0516 20.74ZM64.0716 10.48L63.8854 10.4068L63.8605 10.4703L63.8795 10.5358L64.0716 10.48ZM67.3116 2.24L67.4977 2.31319L67.5709 2.127L67.3847 2.05385L67.3116 2.24ZM66.1916 1.8L66.2647 1.61385L66.0757 1.5396L66.0043 1.72972L66.1916 1.8ZM63.5716 8.78L63.3793 8.83509L63.5461 9.41707L63.7588 8.85028L63.5716 8.78ZM61.5716 1.8L61.7638 1.74491L61.7049 1.53935L61.5038 1.61184L61.5716 1.8ZM59.3516 2.6L59.2838 2.41184L59.1041 2.47658L59.1605 2.65904L59.3516 2.6ZM62.3116 12.18L62.4988 12.2504L62.5229 12.1864L62.5026 12.121L62.3116 12.18ZM59.0916 20.74L58.8994 20.7956L59.0668 21.3739L59.2788 20.8104L59.0916 20.74ZM53.6116 1.8L53.8037 1.74441L53.7442 1.53894L53.5432 1.61204L53.6116 1.8ZM51.4116 2.6L51.3432 2.41204L51.1645 2.47702L51.2204 2.65878L51.4116 2.6ZM57.9916 24L57.8004 24.0588L57.8793 24.3152L58.1025 24.1664L57.9916 24ZM59.0716 23.28L59.1825 23.4464L59.2349 23.4115L59.2578 23.3529L59.0716 23.28ZM62.7916 13.78L62.9827 13.7213L62.8144 13.1732L62.6053 13.7071L62.7916 13.78ZM65.9316 24L65.7404 24.0587L65.8185 24.313L66.0411 24.1673L65.9316 24ZM67.0316 23.28L67.1411 23.4473L67.1946 23.4123L67.2178 23.3528L67.0316 23.28ZM75.2516 2.24L75.4379 2.31278L75.51 2.12799L75.3258 2.0543L75.2516 2.24ZM73.9643 1.7298L66.8643 20.6698L67.2388 20.8102L74.3388 1.8702L73.9643 1.7298ZM67.2436 20.6842L64.2636 10.4242L63.8795 10.5358L66.8595 20.7958L67.2436 20.6842ZM64.2577 10.5532L67.4977 2.31319L67.1254 2.16681L63.8854 10.4068L64.2577 10.5532ZM67.3847 2.05385L66.2647 1.61385L66.1184 1.98615L67.2384 2.42615L67.3847 2.05385ZM66.0043 1.72972L63.3843 8.70972L63.7588 8.85028L66.3788 1.87028L66.0043 1.72972ZM63.7638 8.72491L61.7638 1.74491L61.3793 1.85509L63.3793 8.83509L63.7638 8.72491ZM61.5038 1.61184L59.2838 2.41184L59.4194 2.78815L61.6394 1.98816L61.5038 1.61184ZM59.1605 2.65904L62.1205 12.239L62.5026 12.121L59.5426 2.54096L59.1605 2.65904ZM62.1244 12.1096L58.9044 20.6696L59.2788 20.8104L62.4988 12.2504L62.1244 12.1096ZM59.2837 20.6844L53.8037 1.74441L53.4194 1.85559L58.8994 20.7956L59.2837 20.6844ZM53.5432 1.61204L51.3432 2.41204L51.4799 2.78796L53.6799 1.98796L53.5432 1.61204ZM51.2204 2.65878L57.8004 24.0588L58.1827 23.9412L51.6027 2.54122L51.2204 2.65878ZM58.1025 24.1664L59.1825 23.4464L58.9606 23.1136L57.8806 23.8336L58.1025 24.1664ZM59.2578 23.3529L62.9778 13.8529L62.6053 13.7071L58.8853 23.2071L59.2578 23.3529ZM62.6004 13.8387L65.7404 24.0587L66.1227 23.9413L62.9827 13.7213L62.6004 13.8387ZM66.0411 24.1673L67.1411 23.4473L66.922 23.1127L65.822 23.8327L66.0411 24.1673ZM67.2178 23.3528L75.4379 2.31278L75.0653 2.16722L66.8453 23.2072L67.2178 23.3528ZM75.3258 2.0543L74.2258 1.6143L74.0773 1.9857L75.1773 2.42569L75.3258 2.0543ZM81.0877 24V24.2H81.2877V24H81.0877ZM81.0877 1.8H81.2877V1.6H81.0877V1.8ZM79.2077 1.8V1.6H79.0077V1.8H79.2077ZM79.2077 24H79.0077V24.2H79.2077V24ZM81.2877 24V1.8H80.8877V24H81.2877ZM81.0877 1.6H79.2077V2H81.0877V1.6ZM79.0077 1.8V24H79.4077V1.8H79.0077ZM79.2077 24.2H81.0877V23.8H79.2077V24.2ZM99.8825 1.8H100.083V1.6H99.8825V1.8ZM83.8825 1.8V1.6H83.6825V1.8H83.8825ZM83.8825 2.88H83.6825V3.08H83.8825V2.88ZM90.8825 2.88H91.0825V2.68H90.8825V2.88ZM90.8825 22.68H90.6825V22.7876L90.7723 22.8469L90.8825 22.68ZM92.8825 24L92.7723 24.1669L93.0825 24.3716V24H92.8825ZM92.8825 2.88V2.68H92.6825V2.88H92.8825ZM99.8625 2.88V3.08H100.051L100.062 2.89174L99.8625 2.88ZM99.8825 1.6H83.8825V2H99.8825V1.6ZM83.6825 1.8V2.88H84.0825V1.8H83.6825ZM83.8825 3.08H90.8825V2.68H83.8825V3.08ZM90.6825 2.88V22.68H91.0825V2.88H90.6825ZM90.7723 22.8469L92.7723 24.1669L92.9927 23.8331L90.9927 22.5131L90.7723 22.8469ZM93.0825 24V2.88H92.6825V24H93.0825ZM92.8825 3.08H99.8625V2.68H92.8825V3.08ZM100.062 2.89174C100.083 2.54475 100.083 2.13854 100.083 1.8H99.6825C99.6825 2.14146 99.6824 2.53525 99.6628 2.86826L100.062 2.89174ZM114.767 1.8L114.872 1.63021L114.567 1.43993V1.8H114.767ZM114.767 12.5V12.7H114.967V12.5H114.767ZM107.007 12.5H106.807V12.7H107.007V12.5ZM107.007 3.02H107.207V2.90951L107.113 2.85069L107.007 3.02ZM105.067 1.8L105.173 1.63069L104.867 1.43797V1.8H105.067ZM105.067 24H104.867V24.2H105.067V24ZM107.007 24V24.2H107.207V24H107.007ZM107.007 13.56V13.36H106.807V13.56H107.007ZM114.767 13.56H114.967V13.36H114.767V13.56ZM114.767 24H114.567V24.2H114.767V24ZM116.727 24V24.2H116.927V24H116.727ZM116.727 3.02H116.927V2.90891L116.832 2.85021L116.727 3.02ZM114.567 1.8V12.5H114.967V1.8H114.567ZM114.767 12.3H107.007V12.7H114.767V12.3ZM107.207 12.5V3.02H106.807V12.5H107.207ZM107.113 2.85069L105.173 1.63069L104.96 1.9693L106.9 3.1893L107.113 2.85069ZM104.867 1.8V24H105.267V1.8H104.867ZM105.067 24.2H107.007V23.8H105.067V24.2ZM107.207 24V13.56H106.807V24H107.207ZM107.007 13.76H114.767V13.36H107.007V13.76ZM114.567 13.56V24H114.967V13.56H114.567ZM114.767 24.2H116.727V23.8H114.767V24.2ZM116.927 24V3.02H116.527V24H116.927ZM116.832 2.85021L114.872 1.63021L114.661 1.96979L116.621 3.18979L116.832 2.85021ZM129.252 24V24.2H129.452V24H129.252ZM129.252 1.8H129.452V1.6H129.252V1.8ZM127.372 1.8V1.6H127.172V1.8H127.372ZM127.372 24H127.172V24.2H127.372V24ZM129.452 24V1.8H129.052V24H129.452ZM129.252 1.6H127.372V2H129.252V1.6ZM127.172 1.8V24H127.572V1.8H127.172ZM127.372 24.2H129.252V23.8H127.372V24.2ZM150.147 1.8V1.6H150.007L149.959 1.73075L150.147 1.8ZM143.127 20.82L142.939 20.8899L143.128 21.3947L143.314 20.8892L143.127 20.82ZM136.027 1.8L136.214 1.73006L136.165 1.6H136.027V1.8ZM133.947 1.8V1.6H133.747V1.8H133.947ZM133.947 24H133.747V24.2H133.947V24ZM135.027 24V24.2H135.227V24H135.027ZM135.027 6.02L135.213 5.94744L134.827 6.02H135.027ZM142.027 24L141.84 24.0726L141.912 24.2578L142.098 24.1868L142.027 24ZM143.387 23.48L143.458 23.6668L143.543 23.6344L143.574 23.5495L143.387 23.48ZM150.047 5.5L150.247 5.50108L149.859 5.43053L150.047 5.5ZM149.947 24L149.747 23.9989L149.745 24.2H149.947V24ZM151.127 24V24.2H151.327V24H151.127ZM151.127 1.8H151.327V1.6H151.127V1.8ZM149.959 1.73075L142.939 20.7507L143.314 20.8892L150.334 1.86925L149.959 1.73075ZM143.314 20.7501L136.214 1.73006L135.839 1.86994L142.939 20.8899L143.314 20.7501ZM136.027 1.6H133.947V2H136.027V1.6ZM133.747 1.8V24H134.147V1.8H133.747ZM133.947 24.2H135.027V23.8H133.947V24.2ZM135.227 24V6.02H134.827V24H135.227ZM134.84 6.09256L141.84 24.0726L142.213 23.9274L135.213 5.94744L134.84 6.09256ZM142.098 24.1868L143.458 23.6668L143.315 23.2932L141.955 23.8132L142.098 24.1868ZM143.574 23.5495L150.234 5.56947L149.859 5.43053L143.199 23.4105L143.574 23.5495ZM149.847 5.49892L149.747 23.9989L150.147 24.0011L150.247 5.50108L149.847 5.49892ZM149.947 24.2H151.127V23.8H149.947V24.2ZM151.327 24V1.8H150.927V24H151.327ZM151.127 1.6H150.147V2H151.127V1.6ZM165.629 16.38V16.58H165.896L165.821 16.3235L165.629 16.38ZM158.069 16.38L157.882 16.3102L157.781 16.58H158.069V16.38ZM162.289 5.04L162.481 4.98349L162.311 4.40716L162.102 4.97024L162.289 5.04ZM157.609 17.62V17.42H157.471L157.422 17.5486L157.609 17.62ZM165.989 17.62L166.182 17.5657L166.14 17.42H165.989V17.62ZM167.789 24L167.597 24.0543L167.655 24.2615L167.857 24.188L167.789 24ZM169.989 23.2L170.057 23.388L170.236 23.323L170.18 23.1412L169.989 23.2ZM163.409 1.8L163.6 1.74122L163.523 1.49037L163.302 1.63127L163.409 1.8ZM162.309 2.5L162.202 2.33127L162.147 2.36634L162.123 2.42719L162.309 2.5ZM154.069 23.58L153.883 23.5072L153.809 23.6949L153.998 23.7668L154.069 23.58ZM155.169 24L155.098 24.1868L155.284 24.2581L155.356 24.0714L155.169 24ZM165.629 16.18H158.069V16.58H165.629V16.18ZM158.257 16.4498L162.477 5.10975L162.102 4.97024L157.882 16.3102L158.257 16.4498ZM162.097 5.09651L165.437 16.4365L165.821 16.3235L162.481 4.98349L162.097 5.09651ZM157.609 17.82H165.989V17.42H157.609V17.82ZM165.797 17.6743L167.597 24.0543L167.982 23.9457L166.182 17.5657L165.797 17.6743ZM167.857 24.188L170.057 23.388L169.921 23.012L167.721 23.812L167.857 24.188ZM170.18 23.1412L163.6 1.74122L163.218 1.85878L169.798 23.2588L170.18 23.1412ZM163.302 1.63127L162.202 2.33127L162.416 2.66873L163.516 1.96873L163.302 1.63127ZM162.123 2.42719L153.883 23.5072L154.255 23.6528L162.495 2.57281L162.123 2.42719ZM153.998 23.7668L155.098 24.1868L155.24 23.8132L154.14 23.3932L153.998 23.7668ZM155.356 24.0714L157.796 17.6914L157.422 17.5486L154.982 23.9286L155.356 24.0714ZM186.798 16L186.998 15.9889L186.988 15.8H186.798V16ZM179.658 16V15.8H179.458V16H179.658ZM179.658 17.1H179.458V17.3028L179.661 17.3L179.658 17.1ZM185.338 17.34H185.138L185.139 17.3526L185.338 17.34ZM183.898 22.2L183.83 22.012L183.83 22.0121L183.898 22.2ZM176.438 3.28L176.364 3.0943L176.363 3.09461L176.438 3.28ZM183.958 6.64L183.791 6.74998L183.851 6.84H183.958V6.64ZM186.458 6.64V6.84H186.772L186.64 6.55563L186.458 6.64ZM178.518 1.8L178.538 1.99908L178.545 1.99834L178.553 1.99701L178.518 1.8ZM186.758 17.7L186.561 17.6682L186.56 17.6756L186.559 17.6832L186.758 17.7ZM186.798 15.8H179.658V16.2H186.798V15.8ZM179.458 16V17.1H179.858V16H179.458ZM179.658 17.1C179.661 17.3 179.661 17.3 179.661 17.3C179.661 17.3 179.661 17.3 179.661 17.3C179.662 17.3 179.662 17.3 179.662 17.3C179.663 17.3 179.664 17.2999 179.665 17.2999C179.668 17.2999 179.672 17.2998 179.677 17.2998C179.688 17.2996 179.704 17.2994 179.725 17.2992C179.766 17.2987 179.827 17.298 179.905 17.2972C180.06 17.2956 180.281 17.2937 180.547 17.2925C181.079 17.29 181.787 17.29 182.496 17.3C183.205 17.31 183.91 17.3299 184.437 17.367C184.701 17.3856 184.914 17.4082 185.058 17.4345C185.132 17.448 185.177 17.4607 185.199 17.4697C185.211 17.4746 185.204 17.4737 185.192 17.4629C185.179 17.4521 185.138 17.4112 185.138 17.34H185.538C185.538 17.2488 185.487 17.1887 185.452 17.1595C185.418 17.1301 185.38 17.1116 185.35 17.0994C185.289 17.0745 185.212 17.056 185.13 17.0411C184.964 17.0106 184.733 16.9869 184.465 16.968C183.927 16.9301 183.212 16.91 182.501 16.9C181.79 16.89 181.078 16.89 180.545 16.8925C180.278 16.8938 180.056 16.8956 179.9 16.8972C179.823 16.898 179.762 16.8987 179.72 16.8992C179.699 16.8994 179.683 16.8997 179.672 16.8998C179.667 16.8999 179.663 16.8999 179.66 16.9C179.658 16.9 179.657 16.9 179.657 16.9C179.656 16.9 179.656 16.9 179.656 16.9C179.656 16.9 179.656 16.9 179.656 16.9C179.656 16.9 179.656 16.9 179.658 17.1ZM185.139 17.3526C185.229 18.7817 185.211 19.843 185.01 20.6039C184.813 21.3489 184.447 21.7887 183.83 22.012L183.967 22.388C184.73 22.1113 185.174 21.5511 185.397 20.7061C185.616 19.877 185.628 18.7583 185.538 17.3274L185.139 17.3526ZM183.83 22.0121C181.93 22.7044 180.117 22.0958 178.548 20.7056C176.975 19.3121 175.668 17.1475 174.814 14.7943C173.96 12.4416 173.568 9.92259 173.806 7.83104C174.044 5.73626 174.906 4.11606 176.513 3.46539L176.363 3.09461C174.561 3.82394 173.655 5.62123 173.409 7.78584C173.162 9.95366 173.569 12.5359 174.438 14.9307C175.307 17.325 176.645 19.5542 178.283 21.005C179.924 22.4592 181.887 23.1456 183.967 22.3879L183.83 22.0121ZM176.513 3.46569C177.274 3.16133 178.442 2.99563 179.742 3.39614C181.039 3.79562 182.483 4.76318 183.791 6.74998L184.125 6.53001C182.774 4.47682 181.258 3.44438 179.86 3.01386C178.465 2.58437 177.203 2.75867 176.364 3.0943L176.513 3.46569ZM183.958 6.84H186.458V6.44H183.958V6.84ZM186.64 6.55563C185.273 3.61897 183.24 2.37305 181.54 1.86828C180.694 1.61681 179.933 1.55011 179.384 1.54625C179.109 1.54433 178.886 1.55813 178.731 1.57258C178.654 1.57981 178.593 1.58721 178.551 1.5929C178.53 1.59575 178.514 1.59817 178.503 1.59993C178.497 1.60081 178.493 1.60152 178.49 1.60204C178.488 1.6023 178.487 1.60251 178.486 1.60267C178.485 1.60275 178.485 1.60282 178.485 1.60287C178.485 1.6029 178.484 1.60293 178.484 1.60294C178.484 1.60297 178.484 1.60299 178.518 1.8C178.553 1.99701 178.553 1.99702 178.553 1.99704C178.553 1.99704 178.553 1.99705 178.553 1.99704C178.553 1.99704 178.553 1.99703 178.553 1.997C178.553 1.99694 178.554 1.99683 178.555 1.99667C178.557 1.99635 178.56 1.99583 178.564 1.99515C178.573 1.99378 178.587 1.99173 178.605 1.98925C178.642 1.98427 178.697 1.97753 178.768 1.97085C178.911 1.9575 179.121 1.94442 179.381 1.94624C179.901 1.94989 180.623 2.01319 181.426 2.25172C183.027 2.72695 184.963 3.90103 186.277 6.72437L186.64 6.55563ZM178.518 1.8C178.499 1.60091 178.499 1.60093 178.499 1.60095C178.499 1.60096 178.499 1.60098 178.499 1.601C178.498 1.60103 178.498 1.60108 178.497 1.60114C178.496 1.60125 178.494 1.60141 178.493 1.60162C178.489 1.60202 178.483 1.60262 178.476 1.60343C178.463 1.60505 178.443 1.60753 178.418 1.6111C178.367 1.61825 178.295 1.62979 178.203 1.6476C178.019 1.68322 177.759 1.74398 177.447 1.84508C176.825 2.04718 175.995 2.41128 175.165 3.05993C173.497 4.36372 171.858 6.79416 171.858 11.28H172.258C172.258 6.90584 173.849 4.59628 175.412 3.37507C176.197 2.76122 176.982 2.41657 177.571 2.22554C177.865 2.13008 178.109 2.07319 178.279 2.04029C178.364 2.02384 178.43 2.01341 178.474 2.00715C178.496 2.00402 178.513 2.00194 178.523 2.00067C178.529 2.00003 178.533 1.9996 178.535 1.99935C178.536 1.99922 178.537 1.99914 178.537 1.9991C178.538 1.99908 178.538 1.99906 178.538 1.99906C178.538 1.99906 178.538 1.99907 178.538 1.99907C178.538 1.99907 178.538 1.99908 178.518 1.8ZM171.858 11.28C171.858 20.1877 177.347 24.2 181.418 24.2V23.8C177.61 23.8 172.258 20.0122 172.258 11.28H171.858ZM181.418 24.2C182.49 24.2 183.771 23.8568 184.84 22.864C185.909 21.8699 186.745 20.2438 186.958 17.7168L186.559 17.6832C186.352 20.1362 185.548 21.6601 184.567 22.571C183.586 23.4832 182.407 23.8 181.418 23.8V24.2ZM186.956 17.7318C187.009 17.4041 187.018 16.9647 187.016 16.6161C187.015 16.4399 187.01 16.2835 187.006 16.1711C187.004 16.1149 187.002 16.0696 187.001 16.0382C187 16.0225 186.999 16.0103 186.999 16.002C186.999 15.9978 186.998 15.9946 186.998 15.9924C186.998 15.9913 186.998 15.9905 186.998 15.9899C186.998 15.9896 186.998 15.9894 186.998 15.9892C186.998 15.9891 186.998 15.9891 186.998 15.989C186.998 15.989 186.998 15.989 186.998 15.9889C186.998 15.9889 186.998 15.9889 186.798 16C186.599 16.0111 186.599 16.0111 186.599 16.0111C186.599 16.0111 186.599 16.0111 186.599 16.0111C186.599 16.0111 186.599 16.0111 186.599 16.0112C186.599 16.0113 186.599 16.0115 186.599 16.0117C186.599 16.0121 186.599 16.0129 186.599 16.0138C186.599 16.0157 186.599 16.0187 186.599 16.0226C186.6 16.0303 186.6 16.042 186.601 16.057C186.602 16.0871 186.604 16.131 186.606 16.1858C186.61 16.2952 186.615 16.4476 186.616 16.6189C186.618 16.9653 186.608 17.3759 186.561 17.6682L186.956 17.7318ZM194.332 23.12H194.132V23.32H194.332V23.12ZM194.332 13.58V13.38H194.132V13.58H194.332ZM202.152 13.58V13.78H202.352V13.58H202.152ZM202.152 12.72H202.352V12.52H202.152V12.72ZM194.332 12.72H194.132V12.92H194.332V12.72ZM194.332 2.72V2.52H194.132V2.72H194.332ZM204.932 2.72V2.92H205.132V2.72H204.932ZM204.932 1.8H205.132V1.6H204.932V1.8ZM192.172 1.8V1.6H191.972V1.8H192.172ZM192.172 22.66H191.972V22.7713L192.066 22.83L192.172 22.66ZM194.332 24L194.226 24.17L194.275 24.2H194.332V24ZM205.012 24V24.2H205.212V24H205.012ZM205.012 23.12H205.212V22.92H205.012V23.12ZM194.532 23.12V13.58H194.132V23.12H194.532ZM194.332 13.78H202.152V13.38H194.332V13.78ZM202.352 13.58V12.72H201.952V13.58H202.352ZM202.152 12.52H194.332V12.92H202.152V12.52ZM194.532 12.72V2.72H194.132V12.72H194.532ZM194.332 2.92H204.932V2.52H194.332V2.92ZM205.132 2.72V1.8H204.732V2.72H205.132ZM204.932 1.6H192.172V2H204.932V1.6ZM191.972 1.8V22.66H192.372V1.8H191.972ZM192.066 22.83L194.226 24.17L194.437 23.83L192.277 22.49L192.066 22.83ZM194.332 24.2H205.012V23.8H194.332V24.2ZM205.212 24V23.12H204.812V24H205.212ZM205.012 22.92H194.332V23.32H205.012V22.92Z" />
</svg>
