<svg width="183" height="28" viewBox="0 0 183 28" fill="black" xmlns="http://www.w3.org/2000/svg">
  <path d="M2.78 13.58H10.6V12.52H2.78V2.84H13.38V1.8H0.62V22.68L2.78 24V13.58ZM17.6306 24V1.8H15.7506V24H17.6306ZM32.9455 1.8L32.8455 21.12L24.5255 1.8H22.8855V24H23.8855V6.22L31.7055 24L34.0055 22.8V1.8H32.9455ZM40.1597 21.94L40.1397 2.74H43.1797C48.0997 2.74 51.5997 7.58 51.5997 13.5C51.5997 22.04 46.9397 23.08 43.3597 22.58L40.1597 21.94ZM43.6197 1.8H38.2597V24H41.9397C58.0997 24 57.5197 1.8 43.6197 1.8ZM60.6189 24V1.8H58.7389V24H60.6189ZM75.9338 1.8L75.8338 21.12L67.5138 1.8H65.8738V24H66.8738V6.22L74.6938 24L76.9938 22.8V1.8H75.9338ZM95.568 16H88.428V17.1C88.428 17.1 94.108 17.02 94.108 17.34C94.288 20.2 94.048 21.7 92.668 22.2C84.708 25.1 78.388 6.04 85.208 3.28C86.808 2.64 90.068 2.6 92.728 6.64H95.228C92.548 0.88 87.288 1.8 87.288 1.8C87.288 1.8 80.828 2.42 80.828 11.28C80.828 20.1 86.248 24 90.188 24C92.248 24 95.108 22.68 95.528 17.7C95.628 17.08 95.568 16 95.568 16ZM108.822 24V1.8H106.942V24H108.822ZM125.757 22.22C117.817 25.1 111.477 6.06 118.297 3.3C119.897 2.64 123.177 2.62 125.817 6.64H128.317C125.637 0.88 120.377 1.8 120.377 1.8C120.377 1.8 113.937 2.44 113.937 11.3C113.937 20.12 119.357 24 123.297 24C125.397 24 128.357 22.64 128.657 17.36H127.217C127.377 20.22 127.137 21.72 125.757 22.22ZM143.725 22.1C136.305 27.9 128.425 5.74 136.905 2.86C140.765 1.54 143.745 6.28 144.285 7.32C146.945 12.32 146.465 19.94 143.725 22.1ZM146.205 5.7C143.825 1.52 139.985 1.52 139.985 1.52C139.985 1.52 133.445 0.539998 131.905 9.32C130.365 18.04 135.625 23.86 139.165 24.22C140.285 24.34 141.705 24.16 142.905 23.5C142.905 23.5 145.725 22.12 147.025 18.46C148.865 13.18 147.705 8.34 146.205 5.7ZM162.418 1.8L162.318 21.12L153.998 1.8H152.358V24H153.358V6.22L161.178 24L163.478 22.8V1.8H162.418ZM174.912 1.8C169.552 1.8 167.272 6.08 167.432 10.14C167.632 14.76 177.292 10.3 179.212 12.14C181.792 14.64 177.012 23.42 174.872 23.42C169.872 23.42 169.852 18.5 169.852 18.5H167.552C167.552 19.18 167.692 24 174.192 24C177.952 24 182.272 19.34 182.272 14.72C182.272 8.5 170.332 12.44 169.732 9.36C169.132 6.38 170.412 2.72 172.912 2.72C177.492 2.72 178.212 6.28 178.212 6.28H180.912C180.752 5.44 178.912 1.8 174.912 1.8Z" />
  <path d="M2.78 13.58V13.38H2.58V13.58H2.78ZM10.6 13.58V13.78H10.8V13.58H10.6ZM10.6 12.52H10.8V12.32H10.6V12.52ZM2.78 12.52H2.58V12.72H2.78V12.52ZM2.78 2.84V2.64H2.58V2.84H2.78ZM13.38 2.84V3.04H13.58V2.84H13.38ZM13.38 1.8H13.58V1.6H13.38V1.8ZM0.62 1.8V1.6H0.42V1.8H0.62ZM0.62 22.68H0.42V22.7922L0.51571 22.8507L0.62 22.68ZM2.78 24L2.67571 24.1707L2.98 24.3566V24H2.78ZM2.78 13.78H10.6V13.38H2.78V13.78ZM10.8 13.58V12.52H10.4V13.58H10.8ZM10.6 12.32H2.78V12.72H10.6V12.32ZM2.98 12.52V2.84H2.58V12.52H2.98ZM2.78 3.04H13.38V2.64H2.78V3.04ZM13.58 2.84V1.8H13.18V2.84H13.58ZM13.38 1.6H0.62V2H13.38V1.6ZM0.42 1.8V22.68H0.82V1.8H0.42ZM0.51571 22.8507L2.67571 24.1707L2.88429 23.8293L0.72429 22.5093L0.51571 22.8507ZM2.98 24V13.58H2.58V24H2.98ZM17.6306 24V24.2H17.8306V24H17.6306ZM17.6306 1.8H17.8306V1.6H17.6306V1.8ZM15.7506 1.8V1.6H15.5506V1.8H15.7506ZM15.7506 24H15.5506V24.2H15.7506V24ZM17.8306 24V1.8H17.4306V24H17.8306ZM17.6306 1.6H15.7506V2H17.6306V1.6ZM15.5506 1.8V24H15.9506V1.8H15.5506ZM15.7506 24.2H17.6306V23.8H15.7506V24.2ZM32.9455 1.8V1.6H32.7465L32.7455 1.79896L32.9455 1.8ZM32.8455 21.12L32.6618 21.1991L33.0455 21.121L32.8455 21.12ZM24.5255 1.8L24.7092 1.72089L24.6571 1.6H24.5255V1.8ZM22.8855 1.8V1.6H22.6855V1.8H22.8855ZM22.8855 24H22.6855V24.2H22.8855V24ZM23.8855 24V24.2H24.0855V24H23.8855ZM23.8855 6.22L24.0685 6.13948L23.6855 6.22H23.8855ZM31.7055 24L31.5224 24.0805L31.6085 24.2762L31.798 24.1773L31.7055 24ZM34.0055 22.8L34.098 22.9773L34.2055 22.9212V22.8H34.0055ZM34.0055 1.8H34.2055V1.6H34.0055V1.8ZM32.7455 1.79896L32.6455 21.119L33.0455 21.121L33.1455 1.80103L32.7455 1.79896ZM33.0292 21.0409L24.7092 1.72089L24.3418 1.8791L32.6618 21.1991L33.0292 21.0409ZM24.5255 1.6H22.8855V2H24.5255V1.6ZM22.6855 1.8V24H23.0855V1.8H22.6855ZM22.8855 24.2H23.8855V23.8H22.8855V24.2ZM24.0855 24V6.22H23.6855V24H24.0855ZM23.7024 6.30052L31.5224 24.0805L31.8885 23.9195L24.0685 6.13948L23.7024 6.30052ZM31.798 24.1773L34.098 22.9773L33.913 22.6227L31.613 23.8227L31.798 24.1773ZM34.2055 22.8V1.8H33.8055V22.8H34.2055ZM34.0055 1.6H32.9455V2H34.0055V1.6ZM40.1597 21.94L39.9597 21.9402L39.9599 22.104L40.1205 22.1361L40.1597 21.94ZM40.1397 2.74V2.54H39.9395L39.9397 2.74021L40.1397 2.74ZM43.3597 22.58L43.3204 22.7765L43.332 22.7781L43.3597 22.58ZM38.2597 1.8V1.6H38.0597V1.8H38.2597ZM38.2597 24H38.0597V24.2H38.2597V24ZM40.3597 21.9398L40.3397 2.73979L39.9397 2.74021L39.9597 21.9402L40.3597 21.9398ZM40.1397 2.94H43.1797V2.54H40.1397V2.94ZM43.1797 2.94C47.9426 2.94 51.3997 7.63714 51.3997 13.5H51.7997C51.7997 7.52285 48.2568 2.54 43.1797 2.54V2.94ZM51.3997 13.5C51.3997 17.737 50.2443 20.0602 48.6987 21.2726C47.148 22.4892 45.1535 22.6286 43.3874 22.3819L43.332 22.7781C45.1459 23.0314 47.2713 22.9008 48.9456 21.5874C50.6251 20.2698 51.7997 17.803 51.7997 13.5H51.3997ZM43.3989 22.3839L40.1989 21.7439L40.1205 22.1361L43.3205 22.7761L43.3989 22.3839ZM43.6197 1.6H38.2597V2H43.6197V1.6ZM38.0597 1.8V24H38.4597V1.8H38.0597ZM38.2597 24.2H41.9397V23.8H38.2597V24.2ZM41.9397 24.2C46.0285 24.2 49.0762 22.7942 51.1186 20.6699C53.1582 18.5484 54.1823 15.7237 54.2521 12.905C54.3219 10.0868 53.4383 7.26259 51.6466 5.13975C49.8516 3.01296 47.1529 1.6 43.6197 1.6V2C47.0364 2 49.6228 3.36204 51.3409 5.39775C53.0624 7.43741 53.9199 10.1632 53.8522 12.895C53.7846 15.6263 52.7924 18.3516 50.8302 20.3926C48.8707 22.4308 45.9309 23.8 41.9397 23.8V24.2ZM60.6189 24V24.2H60.8189V24H60.6189ZM60.6189 1.8H60.8189V1.6H60.6189V1.8ZM58.7389 1.8V1.6H58.5389V1.8H58.7389ZM58.7389 24H58.5389V24.2H58.7389V24ZM60.8189 24V1.8H60.4189V24H60.8189ZM60.6189 1.6H58.7389V2H60.6189V1.6ZM58.5389 1.8V24H58.9389V1.8H58.5389ZM58.7389 24.2H60.6189V23.8H58.7389V24.2ZM75.9338 1.8V1.6H75.7348L75.7337 1.79896L75.9338 1.8ZM75.8337 21.12L75.6501 21.1991L76.0337 21.121L75.8337 21.12ZM67.5137 1.8L67.6974 1.72089L67.6454 1.6H67.5137V1.8ZM65.8737 1.8V1.6H65.6738V1.8H65.8737ZM65.8737 24H65.6738V24.2H65.8737V24ZM66.8737 24V24.2H67.0738V24H66.8737ZM66.8737 6.22L67.0568 6.13948L66.6738 6.22H66.8737ZM74.6937 24L74.5107 24.0805L74.5967 24.2762L74.7863 24.1773L74.6937 24ZM76.9938 22.8L77.0863 22.9773L77.1937 22.9212V22.8H76.9938ZM76.9938 1.8H77.1937V1.6H76.9938V1.8ZM75.7337 1.79896L75.6338 21.119L76.0337 21.121L76.1338 1.80103L75.7337 1.79896ZM76.0174 21.0409L67.6974 1.72089L67.3301 1.8791L75.6501 21.1991L76.0174 21.0409ZM67.5137 1.6H65.8737V2H67.5137V1.6ZM65.6738 1.8V24H66.0738V1.8H65.6738ZM65.8737 24.2H66.8737V23.8H65.8737V24.2ZM67.0738 24V6.22H66.6738V24H67.0738ZM66.6907 6.30052L74.5107 24.0805L74.8768 23.9195L67.0568 6.13948L66.6907 6.30052ZM74.7863 24.1773L77.0863 22.9773L76.9012 22.6227L74.6012 23.8227L74.7863 24.1773ZM77.1937 22.8V1.8H76.7938V22.8H77.1937ZM76.9938 1.6H75.9338V2H76.9938V1.6ZM95.568 16L95.7677 15.9889L95.7572 15.8H95.568V16ZM88.428 16V15.8H88.228V16H88.428ZM88.428 17.1H88.228V17.3028L88.4308 17.3L88.428 17.1ZM94.108 17.34H93.9076L93.9084 17.3526L94.108 17.34ZM92.668 22.2L92.5998 22.012L92.5995 22.0121L92.668 22.2ZM85.208 3.28L85.1337 3.0943L85.1329 3.09461L85.208 3.28ZM92.728 6.64L92.5609 6.74998L92.6202 6.84H92.728V6.64ZM95.228 6.64V6.84H95.5416L95.4093 6.55563L95.228 6.64ZM87.288 1.8L87.3071 1.99908L87.3148 1.99834L87.3224 1.99701L87.288 1.8ZM95.528 17.7L95.3305 17.6682L95.3293 17.6756L95.3287 17.6832L95.528 17.7ZM95.568 15.8H88.428V16.2H95.568V15.8ZM88.228 16V17.1H88.628V16H88.228ZM88.428 17.1C88.4308 17.3 88.4308 17.3 88.4308 17.3C88.4309 17.3 88.4309 17.3 88.431 17.3C88.4312 17.3 88.4314 17.3 88.4318 17.3C88.4324 17.3 88.4335 17.2999 88.4348 17.2999C88.4375 17.2999 88.4416 17.2998 88.4469 17.2998C88.4576 17.2996 88.4735 17.2994 88.4942 17.2992C88.5357 17.2987 88.5965 17.298 88.674 17.2972C88.8291 17.2956 89.0506 17.2937 89.3164 17.2925C89.8482 17.29 90.5569 17.29 91.2652 17.3C91.9743 17.31 92.6797 17.3299 93.2064 17.367C93.4709 17.3856 93.6838 17.4082 93.8279 17.4345C93.9016 17.448 93.9464 17.4607 93.9686 17.4697C93.9805 17.4746 93.974 17.4737 93.9613 17.4629C93.9488 17.4521 93.908 17.4112 93.908 17.34H94.308C94.308 17.2488 94.2561 17.1887 94.222 17.1595C94.1879 17.1301 94.1495 17.1116 94.1198 17.0994C94.0588 17.0745 93.9815 17.056 93.8999 17.0411C93.7334 17.0106 93.5025 16.9869 93.2345 16.968C92.6962 16.9301 91.9816 16.91 91.2708 16.9C90.5591 16.89 89.8477 16.89 89.3145 16.8925C89.0479 16.8938 88.8256 16.8956 88.67 16.8972C88.5922 16.898 88.5311 16.8987 88.4893 16.8992C88.4685 16.8994 88.4524 16.8997 88.4416 16.8998C88.4362 16.8999 88.4321 16.8999 88.4294 16.9C88.428 16.9 88.4269 16.9 88.4262 16.9C88.4259 16.9 88.4256 16.9 88.4254 16.9C88.4253 16.9 88.4253 16.9 88.4252 16.9C88.4252 16.9 88.4252 16.9 88.428 17.1ZM93.9084 17.3526C93.9983 18.7817 93.9806 19.843 93.7796 20.6039C93.5828 21.3489 93.2162 21.7887 92.5998 22.012L92.7361 22.388C93.4998 22.1113 93.9431 21.5511 94.1663 20.7061C94.3853 19.877 94.3976 18.7583 94.3076 17.3274L93.9084 17.3526ZM92.5995 22.0121C90.6992 22.7044 88.887 22.0958 87.3178 20.7056C85.7448 19.3121 84.4373 17.1475 83.5835 14.7943C82.7299 12.4416 82.3379 9.92259 82.5758 7.83104C82.814 5.73626 83.6752 4.11606 85.283 3.46539L85.1329 3.09461C83.3307 3.82394 82.4245 5.62123 82.1783 7.78584C81.9318 9.95366 82.3386 12.5359 83.2075 14.9307C84.0762 17.325 85.4149 19.5542 87.0525 21.005C88.694 22.4592 90.6567 23.1456 92.7364 22.3879L92.5995 22.0121ZM85.2822 3.46569C86.0432 3.16133 87.2111 2.99563 88.5116 3.39614C89.8087 3.79562 91.2528 4.76318 92.5609 6.74998L92.895 6.53001C91.5432 4.47682 90.0272 3.44438 88.6293 3.01386C87.2348 2.58437 85.9728 2.75867 85.1337 3.0943L85.2822 3.46569ZM92.728 6.84H95.228V6.44H92.728V6.84ZM95.4093 6.55563C94.0429 3.61897 92.0097 2.37305 90.3099 1.86828C89.4631 1.61681 88.7026 1.55011 88.1531 1.54625C87.8782 1.54433 87.6556 1.55813 87.5006 1.57258C87.4232 1.57981 87.3625 1.58721 87.3207 1.5929C87.2998 1.59575 87.2836 1.59817 87.2723 1.59993C87.2667 1.60081 87.2623 1.60152 87.2591 1.60204C87.2576 1.6023 87.2563 1.60251 87.2554 1.60267C87.2549 1.60275 87.2545 1.60282 87.2542 1.60287C87.254 1.6029 87.2539 1.60293 87.2538 1.60294C87.2536 1.60297 87.2535 1.60299 87.288 1.8C87.3224 1.99701 87.3223 1.99702 87.3223 1.99704C87.3223 1.99704 87.3222 1.99705 87.3222 1.99704C87.3222 1.99704 87.3223 1.99703 87.3225 1.997C87.3228 1.99694 87.3235 1.99683 87.3245 1.99667C87.3264 1.99635 87.3296 1.99583 87.334 1.99515C87.3428 1.99378 87.3564 1.99173 87.3747 1.98925C87.4112 1.98427 87.4662 1.97753 87.5378 1.97085C87.681 1.9575 87.8902 1.94442 88.1503 1.94624C88.6709 1.94989 89.3928 2.01319 90.196 2.25172C91.7963 2.72695 93.733 3.90103 95.0466 6.72437L95.4093 6.55563ZM87.288 1.8C87.2689 1.60091 87.2687 1.60093 87.2685 1.60095C87.2684 1.60096 87.2682 1.60098 87.268 1.601C87.2677 1.60103 87.2672 1.60108 87.2666 1.60114C87.2655 1.60125 87.264 1.60141 87.262 1.60162C87.2582 1.60202 87.2528 1.60262 87.246 1.60343C87.2323 1.60505 87.2126 1.60753 87.1874 1.6111C87.1369 1.61825 87.0642 1.62979 86.9723 1.6476C86.7887 1.68322 86.5283 1.74398 86.2169 1.84508C85.5942 2.04718 84.7646 2.41128 83.9348 3.05993C82.267 4.36372 80.628 6.79416 80.628 11.28H81.028C81.028 6.90584 82.619 4.59628 84.1811 3.37507C84.9664 2.76122 85.7518 2.41657 86.3403 2.22554C86.6345 2.13008 86.8788 2.07319 87.0485 2.04029C87.1333 2.02384 87.1993 2.01341 87.2435 2.00715C87.2656 2.00402 87.2822 2.00194 87.2929 2.00067C87.2983 2.00003 87.3022 1.9996 87.3045 1.99935C87.3057 1.99922 87.3065 1.99914 87.307 1.9991C87.3072 1.99908 87.3073 1.99906 87.3073 1.99906C87.3073 1.99906 87.3073 1.99907 87.3073 1.99907C87.3072 1.99907 87.3071 1.99908 87.288 1.8ZM80.628 11.28C80.628 20.1877 86.1161 24.2 90.188 24.2V23.8C86.3798 23.8 81.028 20.0122 81.028 11.28H80.628ZM90.188 24.2C91.2591 24.2 92.5408 23.8568 93.6091 22.864C94.6789 21.8699 95.5141 20.2438 95.7273 17.7168L95.3287 17.6832C95.1218 20.1362 94.3171 21.6601 93.3368 22.571C92.3551 23.4832 91.1768 23.8 90.188 23.8V24.2ZM95.7254 17.7318C95.7783 17.4041 95.788 16.9647 95.7855 16.6161C95.7842 16.4399 95.7798 16.2835 95.7757 16.1711C95.7736 16.1149 95.7716 16.0696 95.7701 16.0382C95.7694 16.0225 95.7688 16.0103 95.7684 16.002C95.7681 15.9978 95.768 15.9946 95.7679 15.9924C95.7678 15.9913 95.7677 15.9905 95.7677 15.9899C95.7677 15.9896 95.7677 15.9894 95.7677 15.9892C95.7677 15.9891 95.7677 15.9891 95.7677 15.989C95.7677 15.989 95.7677 15.989 95.7677 15.9889C95.7677 15.9889 95.7677 15.9889 95.568 16C95.3683 16.0111 95.3683 16.0111 95.3683 16.0111C95.3683 16.0111 95.3683 16.0111 95.3683 16.0111C95.3683 16.0111 95.3683 16.0111 95.3683 16.0112C95.3683 16.0113 95.3683 16.0115 95.3683 16.0117C95.3683 16.0121 95.3684 16.0129 95.3684 16.0138C95.3685 16.0157 95.3687 16.0187 95.3689 16.0226C95.3693 16.0303 95.3699 16.042 95.3706 16.057C95.372 16.0871 95.3739 16.131 95.3759 16.1858C95.3799 16.2952 95.3842 16.4476 95.3855 16.6189C95.388 16.9653 95.3777 17.3759 95.3305 17.6682L95.7254 17.7318ZM108.822 24V24.2H109.022V24H108.822ZM108.822 1.8H109.022V1.6H108.822V1.8ZM106.942 1.8V1.6H106.742V1.8H106.942ZM106.942 24H106.742V24.2H106.942V24ZM109.022 24V1.8H108.622V24H109.022ZM108.822 1.6H106.942V2H108.822V1.6ZM106.742 1.8V24H107.142V1.8H106.742ZM106.942 24.2H108.822V23.8H106.942V24.2ZM125.757 22.22L125.689 22.032L125.689 22.032L125.757 22.22ZM118.297 3.3L118.372 3.4854L118.373 3.48489L118.297 3.3ZM125.817 6.64L125.65 6.74979L125.709 6.84H125.817V6.64ZM128.317 6.64V6.84H128.631L128.498 6.55563L128.317 6.64ZM120.377 1.8L120.397 1.99902L120.404 1.99829L120.411 1.99701L120.377 1.8ZM128.657 17.36L128.857 17.3713L128.869 17.16H128.657V17.36ZM127.217 17.36V17.16H127.005L127.017 17.3712L127.217 17.36ZM125.689 22.032C123.794 22.7194 121.984 22.1086 120.415 20.7173C118.843 19.3227 117.535 17.1586 116.68 14.8067C115.825 12.4552 115.431 9.93806 115.667 7.84809C115.904 5.75498 116.764 4.13605 118.372 3.48539L118.222 3.1146C116.42 3.84395 115.515 5.64002 115.27 7.80315C115.025 9.96944 115.434 12.5498 116.304 14.9433C117.174 17.3364 118.513 19.5648 120.15 21.0165C121.79 22.4714 123.75 23.1606 125.825 22.408L125.689 22.032ZM118.373 3.48489C119.885 2.86133 123.063 2.81024 125.65 6.74979L125.984 6.53021C123.291 2.42976 119.909 2.41867 118.221 3.11511L118.373 3.48489ZM125.817 6.84H128.317V6.44H125.817V6.84ZM128.498 6.55563C127.132 3.61897 125.099 2.37305 123.399 1.86828C122.552 1.61681 121.791 1.55011 121.242 1.54625C120.967 1.54433 120.744 1.55813 120.59 1.57258C120.512 1.57981 120.451 1.58721 120.41 1.5929C120.389 1.59575 120.373 1.59817 120.361 1.59993C120.356 1.60081 120.351 1.60152 120.348 1.60204C120.346 1.6023 120.345 1.60251 120.344 1.60267C120.344 1.60275 120.343 1.60282 120.343 1.60287C120.343 1.6029 120.343 1.60293 120.343 1.60294C120.343 1.60297 120.342 1.60299 120.377 1.8C120.411 1.99701 120.411 1.99702 120.411 1.99704C120.411 1.99704 120.411 1.99705 120.411 1.99704C120.411 1.99704 120.411 1.99703 120.411 1.997C120.412 1.99694 120.412 1.99683 120.413 1.99667C120.415 1.99635 120.418 1.99583 120.423 1.99515C120.432 1.99378 120.445 1.99173 120.464 1.98925C120.5 1.98427 120.555 1.97753 120.627 1.97085C120.77 1.9575 120.979 1.94442 121.239 1.94624C121.76 1.94989 122.482 2.01319 123.285 2.25172C124.885 2.72695 126.822 3.90103 128.136 6.72437L128.498 6.55563ZM120.377 1.8C120.357 1.60098 120.357 1.601 120.357 1.60101C120.357 1.60102 120.356 1.60104 120.356 1.60106C120.356 1.6011 120.355 1.60115 120.355 1.60121C120.354 1.60133 120.352 1.60149 120.35 1.6017C120.346 1.60212 120.341 1.60274 120.334 1.60357C120.321 1.60523 120.301 1.60777 120.276 1.61143C120.225 1.61874 120.153 1.6305 120.061 1.6486C119.878 1.68479 119.619 1.74637 119.308 1.84844C118.687 2.05248 117.86 2.41916 117.033 3.07035C115.371 4.37917 113.737 6.8144 113.737 11.3H114.137C114.137 6.9256 115.723 4.61083 117.281 3.38464C118.063 2.76834 118.846 2.42127 119.433 2.22844C119.726 2.13207 119.97 2.07443 120.139 2.04101C120.223 2.0243 120.289 2.01367 120.333 2.00727C120.355 2.00408 120.372 2.00194 120.383 2.00064C120.388 1.99999 120.392 1.99955 120.394 1.99929C120.395 1.99916 120.396 1.99908 120.397 1.99903C120.397 1.99901 120.397 1.999 120.397 1.999C120.397 1.99899 120.397 1.999 120.397 1.999C120.397 1.99901 120.397 1.99902 120.377 1.8ZM113.737 11.3C113.737 20.2082 119.225 24.2 123.297 24.2V23.8C119.488 23.8 114.137 20.0318 114.137 11.3H113.737ZM123.297 24.2C124.388 24.2 125.706 23.8465 126.79 22.8042C127.876 21.7606 128.704 20.0478 128.857 17.3713L128.457 17.3487C128.309 19.9522 127.508 21.5594 126.513 22.5158C125.517 23.4735 124.305 23.8 123.297 23.8V24.2ZM128.657 17.16H127.217V17.56H128.657V17.16ZM127.017 17.3712C127.097 18.8005 127.075 19.8621 126.871 20.6234C126.672 21.3688 126.305 21.8087 125.689 22.032L125.825 22.408C126.589 22.1313 127.032 21.5712 127.258 20.7266C127.479 19.8979 127.497 18.7795 127.417 17.3488L127.017 17.3712ZM143.725 22.1L143.848 22.2576L143.848 22.2571L143.725 22.1ZM136.905 2.86L136.969 3.04938L136.969 3.04924L136.905 2.86ZM144.285 7.32L144.107 7.41217L144.108 7.41393L144.285 7.32ZM146.205 5.7L146.378 5.6012L146.378 5.60104L146.205 5.7ZM139.985 1.52L139.955 1.71779L139.97 1.72H139.985V1.52ZM131.905 9.32L132.101 9.35478L132.102 9.35455L131.905 9.32ZM139.165 24.22L139.186 24.0211L139.185 24.021L139.165 24.22ZM142.905 23.5L142.817 23.3202L142.808 23.3248L142.905 23.5ZM147.025 18.46L147.213 18.5269L147.213 18.5258L147.025 18.46ZM143.601 21.9424C142.707 22.6415 141.819 22.9101 140.966 22.857C140.108 22.8037 139.263 22.4247 138.46 21.7889C136.851 20.5141 135.452 18.2364 134.54 15.6681C133.629 13.1022 133.215 10.2767 133.547 7.92484C133.879 5.57325 134.948 3.73565 136.969 3.04938L136.84 2.67062C134.621 3.42435 133.495 5.43675 133.151 7.86891C132.808 10.3008 133.237 13.1928 134.164 15.8019C135.089 18.4086 136.522 20.7634 138.212 22.1024C139.059 22.7735 139.98 23.1966 140.941 23.2563C141.905 23.3162 142.887 23.0085 143.848 22.2576L143.601 21.9424ZM136.969 3.04924C138.799 2.42339 140.435 3.22499 141.707 4.35454C142.978 5.48309 143.844 6.90557 144.107 7.41216L144.462 7.22784C144.185 6.69443 143.292 5.22691 141.972 4.05545C140.654 2.88501 138.87 1.97661 136.84 2.67076L136.969 3.04924ZM144.108 7.41393C145.418 9.87608 145.958 12.9939 145.83 15.7657C145.765 17.1505 145.534 18.4417 145.154 19.5157C144.772 20.5923 144.245 21.4349 143.601 21.9429L143.848 22.2571C144.574 21.6851 145.135 20.7652 145.531 19.6493C145.927 18.5308 146.164 17.1995 146.229 15.7843C146.361 12.9561 145.811 9.76392 144.461 7.22606L144.108 7.41393ZM146.378 5.60104C145.164 3.46745 143.572 2.39496 142.279 1.85781C141.633 1.58969 141.064 1.45533 140.654 1.38796C140.449 1.35426 140.284 1.33728 140.169 1.32871C140.112 1.32443 140.067 1.32225 140.035 1.32115C140.02 1.32059 140.008 1.3203 139.999 1.32016C139.995 1.32008 139.991 1.32004 139.989 1.32002C139.988 1.32001 139.987 1.32001 139.986 1.32C139.986 1.32 139.985 1.32 139.985 1.32C139.985 1.32 139.985 1.32 139.985 1.32C139.985 1.32 139.985 1.32 139.985 1.52C139.985 1.72 139.984 1.72 139.984 1.72C139.984 1.72 139.984 1.72 139.984 1.72C139.984 1.72 139.984 1.72 139.984 1.72C139.985 1.72 139.985 1.72 139.986 1.72001C139.987 1.72002 139.989 1.72004 139.992 1.7201C139.998 1.7202 140.008 1.72043 140.021 1.72089C140.047 1.72183 140.087 1.72373 140.139 1.72761C140.244 1.73538 140.397 1.75105 140.589 1.78266C140.974 1.84591 141.513 1.97281 142.125 2.22719C143.348 2.73504 144.866 3.75255 146.031 5.79896L146.378 5.60104ZM139.985 1.52C140.014 1.32221 140.014 1.32218 140.014 1.32216C140.014 1.32214 140.014 1.32211 140.013 1.32208C140.013 1.32203 140.012 1.32196 140.012 1.32188C140.011 1.32171 140.009 1.32149 140.007 1.32122C140.003 1.32069 139.998 1.31995 139.991 1.31907C139.977 1.31729 139.957 1.3149 139.931 1.31221C139.88 1.30685 139.806 1.30033 139.711 1.29532C139.522 1.28529 139.252 1.28125 138.924 1.30456C138.269 1.35117 137.378 1.50732 136.437 1.94625C134.544 2.82958 132.487 4.83902 131.708 9.28545L132.102 9.35455C132.862 5.02098 134.845 3.13042 136.607 2.30875C137.493 1.89518 138.334 1.74758 138.953 1.70356C139.262 1.68156 139.515 1.68549 139.69 1.69476C139.777 1.69939 139.845 1.70535 139.89 1.71006C139.913 1.71241 139.929 1.71445 139.94 1.71584C139.946 1.71654 139.95 1.71708 139.952 1.71742C139.953 1.71759 139.954 1.71771 139.955 1.71777C139.955 1.7178 139.955 1.71782 139.955 1.71782C139.955 1.71783 139.955 1.71782 139.955 1.71782C139.955 1.71781 139.955 1.71779 139.985 1.52ZM131.708 9.28522C130.929 13.693 131.868 17.3771 133.458 20.0084C135.042 22.629 137.289 24.2303 139.144 24.419L139.185 24.021C137.5 23.8497 135.347 22.361 133.801 19.8016C132.261 17.2529 131.34 13.667 132.101 9.35478L131.708 9.28522ZM139.143 24.4189C140.297 24.5424 141.759 24.3583 143.001 23.6752L142.808 23.3248C141.65 23.9617 140.272 24.1376 139.186 24.0211L139.143 24.4189ZM142.905 23.5C142.992 23.6796 142.993 23.6796 142.993 23.6796C142.993 23.6795 142.993 23.6795 142.993 23.6794C142.993 23.6793 142.993 23.6792 142.994 23.6791C142.994 23.6788 142.995 23.6785 142.996 23.678C142.997 23.6771 143 23.6759 143.003 23.6743C143.009 23.6712 143.018 23.6667 143.029 23.6607C143.052 23.6488 143.085 23.6313 143.126 23.6078C143.21 23.5609 143.329 23.4904 143.475 23.3945C143.768 23.2027 144.17 22.9091 144.613 22.4993C145.499 21.6796 146.55 20.3934 147.213 18.5269L146.836 18.3931C146.199 20.1866 145.19 21.4204 144.341 22.2057C143.917 22.5984 143.533 22.8785 143.256 23.0599C143.117 23.1506 143.006 23.2165 142.93 23.2593C142.892 23.2807 142.863 23.2964 142.844 23.3065C142.834 23.3115 142.827 23.3152 142.822 23.3175C142.82 23.3187 142.818 23.3195 142.817 23.3199C142.817 23.3202 142.817 23.3203 142.817 23.3204C142.816 23.3204 142.816 23.3204 142.816 23.3204C142.816 23.3204 142.816 23.3204 142.816 23.3204C142.817 23.3204 142.817 23.3204 142.905 23.5ZM147.213 18.5258C149.074 13.1856 147.904 8.28578 146.378 5.6012L146.031 5.7988C147.505 8.39422 148.655 13.1744 146.836 18.3942L147.213 18.5258ZM162.418 1.8V1.6H162.219L162.218 1.79896L162.418 1.8ZM162.318 21.12L162.134 21.1991L162.518 21.121L162.318 21.12ZM153.998 1.8L154.182 1.72089L154.13 1.6H153.998V1.8ZM152.358 1.8V1.6H152.158V1.8H152.358ZM152.358 24H152.158V24.2H152.358V24ZM153.358 24V24.2H153.558V24H153.358ZM153.358 6.22L153.541 6.13948L153.158 6.22H153.358ZM161.178 24L160.995 24.0805L161.081 24.2762L161.271 24.1773L161.178 24ZM163.478 22.8L163.571 22.9773L163.678 22.9212V22.8H163.478ZM163.478 1.8H163.678V1.6H163.478V1.8ZM162.218 1.79896L162.118 21.119L162.518 21.121L162.618 1.80103L162.218 1.79896ZM162.502 21.0409L154.182 1.72089L153.814 1.8791L162.134 21.1991L162.502 21.0409ZM153.998 1.6H152.358V2H153.998V1.6ZM152.158 1.8V24H152.558V1.8H152.158ZM152.358 24.2H153.358V23.8H152.358V24.2ZM153.558 24V6.22H153.158V24H153.558ZM153.175 6.30052L160.995 24.0805L161.361 23.9195L153.541 6.13948L153.175 6.30052ZM161.271 24.1773L163.571 22.9773L163.386 22.6227L161.086 23.8227L161.271 24.1773ZM163.678 22.8V1.8H163.278V22.8H163.678ZM163.478 1.6H162.418V2H163.478V1.6ZM167.432 10.14L167.232 10.1479L167.233 10.1486L167.432 10.14ZM179.212 12.14L179.352 11.9964L179.351 11.9956L179.212 12.14ZM169.852 18.5L170.052 18.4992L170.052 18.3H169.852V18.5ZM167.552 18.5V18.3H167.352V18.5H167.552ZM169.732 9.36L169.929 9.32176L169.928 9.32052L169.732 9.36ZM178.212 6.28L178.016 6.31965L178.049 6.48H178.212V6.28ZM180.912 6.28V6.48H181.154L181.109 6.24258L180.912 6.28ZM174.912 1.6C172.173 1.6 170.203 2.69693 168.944 4.32515C167.69 5.94705 167.151 8.08095 167.232 10.1479L167.632 10.1321C167.554 8.13905 168.075 6.10295 169.261 4.56985C170.441 3.04307 172.292 2 174.912 2V1.6ZM167.233 10.1486C167.259 10.7635 167.445 11.2455 167.768 11.6096C168.088 11.9713 168.529 12.1991 169.035 12.3359C170.04 12.6073 171.361 12.5348 172.7 12.3812C174.06 12.2252 175.428 11.9874 176.605 11.9004C177.188 11.8572 177.708 11.8531 178.135 11.9133C178.566 11.974 178.878 12.0965 179.074 12.2844L179.351 11.9956C179.067 11.7235 178.657 11.5829 178.191 11.5172C177.722 11.4511 177.17 11.4575 176.575 11.5015C175.394 11.5889 173.975 11.8323 172.655 11.9838C171.313 12.1377 170.062 12.199 169.139 11.9497C168.682 11.8262 168.32 11.6301 168.067 11.3442C167.815 11.0607 167.656 10.6715 167.632 10.1313L167.233 10.1486ZM179.073 12.2836C179.652 12.8444 179.841 13.7834 179.725 14.9371C179.609 16.083 179.195 17.3931 178.63 18.6347C178.066 19.8755 177.357 21.0356 176.662 21.8821C176.313 22.3056 175.973 22.6452 175.66 22.8772C175.342 23.1126 175.076 23.22 174.872 23.22V23.62C175.203 23.62 175.555 23.453 175.898 23.1985C176.246 22.9406 176.61 22.5747 176.971 22.1361C177.692 21.2581 178.419 20.067 178.994 18.8003C179.57 17.5344 180.001 16.1807 180.123 14.9773C180.243 13.7816 180.063 12.6856 179.352 11.9964L179.073 12.2836ZM174.872 23.22C173.657 23.22 172.757 22.9215 172.088 22.4839C171.418 22.0456 170.968 21.46 170.665 20.8688C170.362 20.2768 170.208 19.6825 170.131 19.2346C170.092 19.0111 170.072 18.8253 170.062 18.6961C170.057 18.6316 170.055 18.5813 170.054 18.5477C170.053 18.5309 170.053 18.5182 170.053 18.51C170.052 18.5059 170.052 18.503 170.052 18.5011C170.052 18.5002 170.052 18.4996 170.052 18.4993C170.052 18.4991 170.052 18.499 170.052 18.499C170.052 18.499 170.052 18.499 170.052 18.499C170.052 18.4991 170.052 18.4992 169.852 18.5C169.652 18.5008 169.652 18.5009 169.652 18.5011C169.652 18.5011 169.652 18.5013 169.652 18.5014C169.652 18.5017 169.652 18.5021 169.652 18.5025C169.652 18.5034 169.652 18.5045 169.652 18.506C169.652 18.5089 169.652 18.513 169.653 18.5182C169.653 18.5286 169.653 18.5436 169.654 18.5628C169.655 18.6013 169.658 18.6567 169.664 18.7267C169.674 18.8666 169.695 19.0652 169.737 19.3029C169.819 19.7775 169.983 20.4132 170.309 21.0512C170.637 21.69 171.129 22.3344 171.869 22.8186C172.61 23.3035 173.588 23.62 174.872 23.62V23.22ZM169.852 18.3H167.552V18.7H169.852V18.3ZM167.352 18.5C167.352 18.8523 167.388 20.2754 168.268 21.6148C169.157 22.969 170.885 24.2 174.192 24.2V23.8C171 23.8 169.407 22.621 168.602 21.3952C167.787 20.1546 167.752 18.8277 167.752 18.5H167.352ZM174.192 24.2C176.15 24.2 178.22 22.9923 179.792 21.2254C181.366 19.4553 182.472 17.0898 182.472 14.72H182.072C182.072 16.9702 181.018 19.2447 179.493 20.9596C177.965 22.6777 175.995 23.8 174.192 23.8V24.2ZM182.472 14.72C182.472 13.9091 182.277 13.2505 181.925 12.7196C181.573 12.1897 181.073 11.8003 180.485 11.512C179.317 10.9392 177.77 10.7516 176.239 10.6628C174.688 10.5729 173.166 10.5837 171.971 10.424C171.377 10.3445 170.889 10.2251 170.536 10.042C170.189 9.86196 169.989 9.63013 169.929 9.32176L169.536 9.39824C169.626 9.85987 169.93 10.1787 170.351 10.397C170.766 10.6122 171.309 10.739 171.918 10.8204C173.131 10.9825 174.707 10.9746 176.216 11.0622C177.745 11.1509 179.22 11.3371 180.309 11.8711C180.85 12.1363 181.288 12.4836 181.592 12.9408C181.894 13.397 182.072 13.9759 182.072 14.72H182.472ZM169.928 9.32052C169.636 7.8685 169.803 6.25018 170.343 5.00197C170.886 3.74959 171.777 2.92 172.912 2.92V2.52C171.548 2.52 170.549 3.52041 169.976 4.84303C169.402 6.16982 169.229 7.8715 169.536 9.39948L169.928 9.32052ZM172.912 2.92C175.142 2.92 176.412 3.78315 177.127 4.62913C177.487 5.05522 177.711 5.48149 177.844 5.80067C177.91 5.9601 177.954 6.09225 177.981 6.18347C177.994 6.22905 178.003 6.26435 178.009 6.28763C178.012 6.29928 178.014 6.30791 178.015 6.31332C178.016 6.31602 178.016 6.31792 178.016 6.31898C178.016 6.31952 178.016 6.31984 178.016 6.31995C178.016 6.32001 178.016 6.32001 178.016 6.31996C178.016 6.31993 178.016 6.31985 178.016 6.31984C178.016 6.31975 178.016 6.31965 178.212 6.28C178.408 6.24035 178.408 6.24022 178.408 6.24008C178.408 6.24001 178.408 6.23985 178.408 6.23972C178.408 6.23945 178.408 6.23913 178.408 6.23875C178.408 6.238 178.408 6.23703 178.407 6.23586C178.407 6.2335 178.406 6.23029 178.405 6.22626C178.404 6.21819 178.401 6.20684 178.397 6.1924C178.39 6.16354 178.38 6.12235 178.364 6.07059C178.334 5.96712 178.286 5.82115 178.213 5.64683C178.068 5.29851 177.825 4.83478 177.433 4.37087C176.643 3.43685 175.262 2.52 172.912 2.52V2.92ZM178.212 6.48H180.912V6.08H178.212V6.48ZM181.109 6.24258C181.063 6.0025 180.907 5.59602 180.644 5.12783C180.38 4.65544 180 4.10743 179.496 3.58608C178.488 2.54226 176.979 1.6 174.912 1.6V2C176.845 2 178.256 2.87774 179.208 3.86392C179.685 4.35757 180.045 4.87706 180.295 5.32342C180.548 5.77397 180.682 6.1375 180.716 6.31742L181.109 6.24258Z" />
</svg>
