<svg width="44" height="44" viewBox="0 0 44 44" fill="none" xmlns="http://www.w3.org/2000/svg">
  <rect x="0.75" y="0.75" width="42.5" height="42.5" rx="3.25" stroke="#5B43EA" stroke-opacity="0.5" stroke-width="1.5"/>
  <path d="M24.6 21.432H26.888V21.592H26.808C26.7227 21.592 26.648 21.624 26.584 21.688C26.52 21.7413 26.4667 21.8107 26.424 21.896C26.3813 21.9813 26.344 22.072 26.312 22.168C26.2907 22.264 26.28 22.3493 26.28 22.424V26.712C26.088 26.7867 25.8693 26.8507 25.624 26.904C25.3787 26.9573 25.1227 27 24.856 27.032C24.5893 27.0747 24.3173 27.1067 24.04 27.128C23.7627 27.1493 23.5067 27.16 23.272 27.16C22.312 27.16 21.4747 27 20.76 26.68C20.0453 26.36 19.4533 25.944 18.984 25.432C18.5147 24.9093 18.1627 24.3227 17.928 23.672C17.704 23.0213 17.592 22.3653 17.592 21.704C17.592 21.0427 17.704 20.3867 17.928 19.736C18.1627 19.0853 18.5147 18.504 18.984 17.992C19.464 17.48 20.0613 17.0693 20.776 16.76C21.5013 16.44 22.36 16.28 23.352 16.28C23.7253 16.28 24.072 16.312 24.392 16.376C24.712 16.44 24.9947 16.4987 25.24 16.552C25.3787 16.584 25.496 16.616 25.592 16.648C25.6987 16.6693 25.7893 16.68 25.864 16.68H26.008V18.376H25.848C25.784 18.0453 25.656 17.7787 25.464 17.576C25.2827 17.3733 25.0693 17.2187 24.824 17.112C24.5787 17.0053 24.3173 16.936 24.04 16.904C23.7733 16.8613 23.5227 16.84 23.288 16.84C22.488 16.84 21.7947 16.984 21.208 17.272C20.6213 17.5493 20.1413 17.912 19.768 18.36C19.3947 18.808 19.1173 19.3147 18.936 19.88C18.7547 20.4347 18.664 20.9893 18.664 21.544C18.664 22.1627 18.7813 22.776 19.016 23.384C19.2507 23.9813 19.5813 24.52 20.008 25C20.4347 25.4693 20.9467 25.8533 21.544 26.152C22.152 26.44 22.824 26.584 23.56 26.584C23.7627 26.584 24.0133 26.5627 24.312 26.52C24.6107 26.4667 24.9093 26.3547 25.208 26.184V22.424C25.208 22.3493 25.1973 22.264 25.176 22.168C25.1547 22.072 25.1173 21.9813 25.064 21.896C25.0213 21.8107 24.968 21.7413 24.904 21.688C24.84 21.624 24.7653 21.592 24.68 21.592H24.6V21.432Z" fill="black"/>
  <path d="M24.6 21.432V21.332H24.5V21.432H24.6ZM26.888 21.432H26.988V21.332H26.888V21.432ZM26.888 21.592V21.692H26.988V21.592H26.888ZM26.584 21.688L26.6483 21.7651L26.6547 21.7587L26.584 21.688ZM26.424 21.896L26.5134 21.9407L26.424 21.896ZM26.312 22.168L26.2166 22.1362L26.2144 22.1463L26.312 22.168ZM26.28 26.712L26.3162 26.8052L26.38 26.7804V26.712H26.28ZM25.624 26.904L25.6452 27.0017L25.624 26.904ZM24.856 27.032L24.8441 26.9326L24.8402 26.9333L24.856 27.032ZM20.76 26.68L20.8009 26.5887L20.76 26.68ZM18.984 25.432L18.9096 25.4988L18.9103 25.4996L18.984 25.432ZM17.928 23.672L17.8334 23.7046L17.8339 23.7059L17.928 23.672ZM17.928 19.736L17.8339 19.7021L17.8334 19.7034L17.928 19.736ZM18.984 17.992L18.911 17.9236L18.9103 17.9244L18.984 17.992ZM20.776 16.76L20.8157 16.8518L20.8164 16.8515L20.776 16.76ZM25.24 16.552L25.2625 16.4546L25.2612 16.4543L25.24 16.552ZM25.592 16.648L25.5601 16.7436L25.5724 16.7461L25.592 16.648ZM26.008 16.68H26.108V16.58H26.008V16.68ZM26.008 18.376V18.476H26.108V18.376H26.008ZM25.848 18.376L25.7498 18.395L25.7655 18.476H25.848V18.376ZM25.464 17.576L25.3894 17.6427L25.3914 17.6448L25.464 17.576ZM24.824 17.112L24.8639 17.0203L24.824 17.112ZM24.04 16.904L24.0242 17.0028L24.0285 17.0033L24.04 16.904ZM21.208 17.272L21.2507 17.3624L21.2521 17.3618L21.208 17.272ZM18.936 19.88L19.0311 19.9111L19.0312 19.9105L18.936 19.88ZM19.016 23.384L18.9227 23.42L18.9229 23.4206L19.016 23.384ZM20.008 25L19.9333 25.0664L19.934 25.0673L20.008 25ZM21.544 26.152L21.4993 26.2415L21.5012 26.2424L21.544 26.152ZM24.312 26.52L24.3262 26.6191L24.3296 26.6184L24.312 26.52ZM25.208 26.184L25.2576 26.2708L25.308 26.242V26.184H25.208ZM25.176 22.168L25.2736 22.1463V22.1463L25.176 22.168ZM25.064 21.896L24.9742 21.9409L24.9792 21.949L25.064 21.896ZM24.904 21.688L24.833 21.759L24.84 21.7648L24.904 21.688ZM24.6 21.592H24.5V21.692H24.6V21.592ZM24.6 21.532H26.888V21.332H24.6V21.532ZM26.788 21.432V21.592H26.988V21.432H26.788ZM26.888 21.492H26.808V21.692H26.888V21.492ZM26.808 21.492C26.6944 21.492 26.5948 21.5358 26.5133 21.6173L26.6547 21.7587C26.7012 21.7122 26.7509 21.692 26.808 21.692V21.492ZM26.52 21.6112C26.444 21.6745 26.3825 21.7554 26.3346 21.8513L26.5134 21.9407C26.5508 21.8659 26.596 21.8081 26.648 21.7648L26.52 21.6112ZM26.3346 21.8513C26.2897 21.9411 26.2505 22.0362 26.2171 22.1364L26.4069 22.1996C26.4375 22.1078 26.473 22.0216 26.5134 21.9407L26.3346 21.8513ZM26.2144 22.1463C26.1919 22.2473 26.18 22.3402 26.18 22.424H26.38C26.38 22.3585 26.3894 22.2807 26.4096 22.1897L26.2144 22.1463ZM26.18 22.424V26.712H26.38V22.424H26.18ZM26.2438 26.6188C26.0575 26.6912 25.844 26.7538 25.6028 26.8063L25.6452 27.0017C25.8946 26.9475 26.1185 26.8821 26.3162 26.8052L26.2438 26.6188ZM25.6028 26.8063C25.3607 26.8589 25.1078 26.9011 24.8441 26.9327L24.8679 27.1313C25.1375 27.0989 25.3966 27.0558 25.6452 27.0017L25.6028 26.8063ZM24.8402 26.9333C24.5763 26.9755 24.307 27.0072 24.0323 27.0283L24.0477 27.2277C24.3276 27.2062 24.6024 27.1739 24.8718 27.1307L24.8402 26.9333ZM24.0323 27.0283C23.7571 27.0495 23.5037 27.06 23.272 27.06V27.26C23.5096 27.26 23.7682 27.2492 24.0477 27.2277L24.0323 27.0283ZM23.272 27.06C22.323 27.06 21.5001 26.9018 20.8009 26.5887L20.7191 26.7713C21.4492 27.0982 22.301 27.26 23.272 27.26V27.06ZM20.8009 26.5887C20.0971 26.2736 19.5167 25.8652 19.0577 25.3644L18.9103 25.4996C19.3899 26.0228 19.9936 26.4464 20.7191 26.7713L20.8009 26.5887ZM19.0584 25.3652C18.5975 24.852 18.2523 24.2764 18.0221 23.6381L17.8339 23.7059C18.073 24.3689 18.4318 24.9667 18.9096 25.4988L19.0584 25.3652ZM18.0226 23.6394C17.802 22.9988 17.692 22.3538 17.692 21.704H17.492C17.492 22.3769 17.606 23.0438 17.8334 23.7046L18.0226 23.6394ZM17.692 21.704C17.692 21.0542 17.802 20.4092 18.0226 19.7686L17.8334 19.7034C17.606 20.3642 17.492 21.0311 17.492 21.704H17.692ZM18.0221 19.7699C18.2522 19.1318 18.5973 18.5619 19.0577 18.0596L18.9103 17.9244C18.432 18.4461 18.0731 19.0389 17.8339 19.7021L18.0221 19.7699ZM19.057 18.0604C19.5266 17.5594 20.1122 17.1563 20.8157 16.8518L20.7363 16.6682C20.0104 16.9824 19.4014 17.4006 18.911 17.9236L19.057 18.0604ZM20.8164 16.8515C21.5262 16.5383 22.3705 16.38 23.352 16.38V16.18C22.3495 16.18 21.4765 16.3417 20.7356 16.6685L20.8164 16.8515ZM23.352 16.38C23.7197 16.38 24.0597 16.4115 24.3724 16.4741L24.4116 16.2779C24.0843 16.2125 23.731 16.18 23.352 16.18V16.38ZM24.3724 16.4741C24.692 16.538 24.9741 16.5965 25.2188 16.6497L25.2612 16.4543C25.0152 16.4008 24.732 16.342 24.4116 16.2779L24.3724 16.4741ZM25.2175 16.6494C25.3542 16.681 25.4683 16.7122 25.5604 16.7429L25.6236 16.5531C25.5237 16.5198 25.4031 16.487 25.2625 16.4546L25.2175 16.6494ZM25.5724 16.7461C25.6829 16.7682 25.7805 16.78 25.864 16.78V16.58C25.7982 16.58 25.7145 16.5705 25.6116 16.5499L25.5724 16.7461ZM25.864 16.78H26.008V16.58H25.864V16.78ZM25.908 16.68V18.376H26.108V16.68H25.908ZM26.008 18.276H25.848V18.476H26.008V18.276ZM25.9462 18.357C25.8793 18.0115 25.7442 17.7263 25.5366 17.5072L25.3914 17.6448C25.5678 17.831 25.6887 18.0791 25.7498 18.395L25.9462 18.357ZM25.5385 17.5093C25.3477 17.2961 25.1226 17.1328 24.8639 17.0203L24.7841 17.2037C25.016 17.3045 25.2176 17.4506 25.3895 17.6427L25.5385 17.5093ZM24.8639 17.0203C24.6091 16.9095 24.3382 16.8377 24.0515 16.8047L24.0285 17.0033C24.2965 17.0343 24.5482 17.1011 24.7841 17.2037L24.8639 17.0203ZM24.0558 16.8053C23.7847 16.7619 23.5287 16.74 23.288 16.74V16.94C23.5167 16.94 23.762 16.9608 24.0242 17.0027L24.0558 16.8053ZM23.288 16.74C22.4761 16.74 21.767 16.8862 21.1639 17.1822L21.2521 17.3618C21.8223 17.0818 22.4999 16.94 23.288 16.94V16.74ZM21.1653 17.1816C20.5669 17.4644 20.0748 17.8356 19.6912 18.296L19.8448 18.424C20.2078 17.9884 20.6757 17.6342 21.2507 17.3624L21.1653 17.1816ZM19.6912 18.296C19.3095 18.754 19.026 19.2721 18.8408 19.8495L19.0312 19.9105C19.2087 19.3572 19.4799 18.862 19.8448 18.424L19.6912 18.296ZM18.841 19.8489C18.6565 20.4131 18.564 20.9782 18.564 21.544H18.764C18.764 21.0004 18.8528 20.4562 19.031 19.9111L18.841 19.8489ZM18.564 21.544C18.564 22.1756 18.6838 22.8011 18.9227 23.42L19.1093 23.348C18.8788 22.7509 18.764 22.1497 18.764 21.544H18.564ZM18.9229 23.4206C19.1619 24.0289 19.4988 24.5776 19.9333 25.0664L20.0827 24.9336C19.6639 24.4624 19.3394 23.9338 19.1091 23.3474L18.9229 23.4206ZM19.934 25.0673C20.3694 25.5462 20.8915 25.9376 21.4993 26.2414L21.5887 26.0626C21.0018 25.7691 20.4999 25.3925 20.082 24.9327L19.934 25.0673ZM21.5012 26.2424C22.1238 26.5373 22.8106 26.684 23.56 26.684V26.484C22.8374 26.484 22.1802 26.3427 21.5868 26.0616L21.5012 26.2424ZM23.56 26.684C23.7691 26.684 24.0248 26.662 24.3261 26.619L24.2979 26.421C24.0018 26.4633 23.7563 26.484 23.56 26.484V26.684ZM24.3296 26.6184C24.6409 26.5628 24.9503 26.4464 25.2576 26.2708L25.1584 26.0972C24.8683 26.2629 24.5804 26.3705 24.2944 26.4216L24.3296 26.6184ZM25.308 26.184V22.424H25.108V26.184H25.308ZM25.308 22.424C25.308 22.3402 25.2961 22.2473 25.2736 22.1463L25.0784 22.1897C25.0986 22.2807 25.108 22.3585 25.108 22.424H25.308ZM25.2736 22.1463C25.2498 22.039 25.208 21.9377 25.1488 21.843L24.9792 21.949C25.0267 22.0249 25.0596 22.105 25.0784 22.1897L25.2736 22.1463ZM25.1534 21.8513C25.1055 21.7554 25.044 21.6745 24.968 21.6112L24.84 21.7648C24.892 21.8081 24.9372 21.8659 24.9746 21.9407L25.1534 21.8513ZM24.9747 21.6173C24.8932 21.5358 24.7936 21.492 24.68 21.492V21.692C24.7371 21.692 24.7868 21.7122 24.8333 21.7587L24.9747 21.6173ZM24.68 21.492H24.6V21.692H24.68V21.492ZM24.7 21.592V21.432H24.5V21.592H24.7Z" fill="#5B43EA" fill-opacity="0.5"/>
</svg>
