<svg width="148" height="26" viewBox="0 0 148 26" fill="black" xmlns="http://www.w3.org/2000/svg">
  <path d="M17.4 16H10.26V17.1C10.26 17.1 15.94 17.02 15.94 17.34C16.12 20.2 15.88 21.7 14.5 22.2C6.54 25.1 0.22 6.04 7.04 3.28C8.64 2.64 11.9 2.6 14.56 6.64H17.06C14.38 0.88 9.12 1.8 9.12 1.8C9.12 1.8 2.66 2.42 2.66 11.28C2.66 20.1 8.08 24 12.02 24C14.08 24 16.94 22.68 17.36 17.7C17.46 17.08 17.4 16 17.4 16ZM25.2333 2.52H27.0533C31.2333 2.52 32.3933 6.46 32.3933 8.2C32.3933 12.56 28.2333 12.58 27.0933 12.78C26.3733 12.9 25.2333 12.9 25.2333 12.9V2.52ZM30.0933 12.82C30.0933 12.82 31.2533 12.18 31.6333 11.88C32.5533 11.14 34.0333 9.86 34.0333 6.4C34.0333 4 32.0933 1.8 29.3933 1.8H23.3333V24H25.2333V13.78C25.2333 13.78 28.1733 13.34 29.2933 14.48C30.7533 15.92 33.0333 24 35.2933 24L36.2933 22.84C34.4333 22.84 31.8933 12.82 30.0933 12.82ZM49.59 16.38H42.03L46.25 5.04L49.59 16.38ZM41.57 17.62H49.95L51.75 24L53.95 23.2L47.37 1.8L46.27 2.5L38.03 23.58L39.13 24L41.57 17.62ZM58.3394 21.94L58.3194 2.74H61.3594C66.2794 2.74 69.7794 7.58 69.7794 13.5C69.7794 22.04 65.1194 23.08 61.5394 22.58L58.3394 21.94ZM61.7994 1.8H56.4394V24H60.1194C76.2794 24 75.6994 1.8 61.7994 1.8ZM78.7986 24V1.8H76.9186V24H78.7986ZM86.5934 23.12V13.58H94.4134V12.72H86.5934V2.72H97.1934V1.8H84.4334V22.66L86.5934 24H97.2734V23.12H86.5934ZM110.813 1.8L110.713 21.12L102.393 1.8H100.753V24H101.753V6.22L109.573 24L111.873 22.8V1.8H110.813ZM130.367 1.8H114.367V2.88H121.367V22.68L123.367 24V2.88H130.347C130.367 2.54 130.367 2.14 130.367 1.8ZM140.631 1.8C135.271 1.8 132.991 6.08 133.151 10.14C133.351 14.76 143.011 10.3 144.931 12.14C147.511 14.64 142.731 23.42 140.591 23.42C135.591 23.42 135.571 18.5 135.571 18.5H133.271C133.271 19.18 133.411 24 139.911 24C143.671 24 147.991 19.34 147.991 14.72C147.991 8.5 136.051 12.44 135.451 9.36C134.851 6.38 136.131 2.72 138.631 2.72C143.211 2.72 143.931 6.28 143.931 6.28H146.631C146.471 5.44 144.631 1.8 140.631 1.8Z" />
  <path d="M17.4 16L17.5997 15.9889L17.5892 15.8H17.4V16ZM10.26 16V15.8H10.06V16H10.26ZM10.26 17.1H10.06V17.3028L10.2628 17.3L10.26 17.1ZM15.94 17.34H15.7396L15.7404 17.3526L15.94 17.34ZM14.5 22.2L14.4319 22.012L14.4315 22.0121L14.5 22.2ZM7.04 3.28L6.96572 3.0943L6.96497 3.09461L7.04 3.28ZM14.56 6.64L14.393 6.74998L14.4522 6.84H14.56V6.64ZM17.06 6.64V6.84H17.3736L17.2413 6.55563L17.06 6.64ZM9.12 1.8L9.13911 1.99908L9.14682 1.99834L9.15446 1.99701L9.12 1.8ZM17.36 17.7L17.1626 17.6682L17.1613 17.6756L17.1607 17.6832L17.36 17.7ZM17.4 15.8H10.26V16.2H17.4V15.8ZM10.06 16V17.1H10.46V16H10.06ZM10.26 17.1C10.2628 17.3 10.2628 17.3 10.2629 17.3C10.2629 17.3 10.263 17.3 10.2631 17.3C10.2632 17.3 10.2635 17.3 10.2638 17.3C10.2645 17.3 10.2655 17.2999 10.2668 17.2999C10.2695 17.2999 10.2736 17.2998 10.2789 17.2998C10.2896 17.2996 10.3055 17.2994 10.3262 17.2992C10.3677 17.2987 10.4286 17.298 10.5061 17.2972C10.6611 17.2956 10.8826 17.2937 11.1484 17.2925C11.6802 17.29 12.3889 17.29 13.0972 17.3C13.8063 17.31 14.5118 17.3299 15.0385 17.367C15.303 17.3856 15.5159 17.4082 15.6599 17.4345C15.7337 17.448 15.7784 17.4607 15.8006 17.4697C15.8125 17.4746 15.806 17.4737 15.7934 17.4629C15.7808 17.4521 15.74 17.4112 15.74 17.34H16.14C16.14 17.2488 16.0881 17.1887 16.054 17.1595C16.0199 17.1301 15.9815 17.1116 15.9518 17.0994C15.8908 17.0745 15.8135 17.056 15.732 17.0411C15.5654 17.0106 15.3345 16.9869 15.0666 16.968C14.5282 16.9301 13.8137 16.91 13.1028 16.9C12.3911 16.89 11.6798 16.89 11.1466 16.8925C10.8799 16.8938 10.6577 16.8956 10.5021 16.8972C10.4242 16.898 10.3631 16.8987 10.3213 16.8992C10.3005 16.8994 10.2845 16.8997 10.2737 16.8998C10.2683 16.8999 10.2642 16.8999 10.2614 16.9C10.26 16.9 10.259 16.9 10.2583 16.9C10.2579 16.9 10.2576 16.9 10.2575 16.9C10.2574 16.9 10.2573 16.9 10.2573 16.9C10.2572 16.9 10.2572 16.9 10.26 17.1ZM15.7404 17.3526C15.8303 18.7817 15.8126 19.843 15.6116 20.6039C15.4148 21.3489 15.0482 21.7887 14.4319 22.012L14.5681 22.388C15.3318 22.1113 15.7752 21.5511 15.9984 20.7061C16.2174 19.877 16.2297 18.7583 16.1396 17.3274L15.7404 17.3526ZM14.4315 22.0121C12.5313 22.7044 10.719 22.0958 9.14981 20.7056C7.57685 19.3121 6.2693 17.1475 5.41551 14.7943C4.5619 12.4416 4.16993 9.92259 4.40778 7.83104C4.646 5.73626 5.50723 4.11606 7.11503 3.46539L6.96497 3.09461C5.16278 3.82394 4.2565 5.62123 4.01034 7.78584C3.76382 9.95366 4.1706 12.5359 5.03949 14.9307C5.9082 17.325 7.2469 19.5542 8.88456 21.005C10.526 22.4592 12.4887 23.1456 14.5685 22.3879L14.4315 22.0121ZM7.11428 3.46569C7.87519 3.16133 9.04318 2.99563 10.3436 3.39614C11.6407 3.79562 13.0848 4.76318 14.393 6.74998L14.727 6.53001C13.3752 4.47682 11.8593 3.44438 10.4614 3.01386C9.06682 2.58437 7.80481 2.75867 6.96572 3.0943L7.11428 3.46569ZM14.56 6.84H17.06V6.44H14.56V6.84ZM17.2413 6.55563C15.875 3.61897 13.8417 2.37305 12.1419 1.86828C11.2952 1.61681 10.5346 1.55011 9.98515 1.54625C9.71025 1.54433 9.48761 1.55813 9.33267 1.57258C9.25519 1.57981 9.19457 1.58721 9.15276 1.5929C9.13185 1.59575 9.11563 1.59817 9.10435 1.59993C9.09871 1.60081 9.0943 1.60152 9.09116 1.60204C9.08959 1.6023 9.08833 1.60251 9.08739 1.60267C9.08692 1.60275 9.08653 1.60282 9.08623 1.60287C9.08607 1.6029 9.0859 1.60293 9.08582 1.60294C9.08567 1.60297 9.08554 1.60299 9.12 1.8C9.15446 1.99701 9.15437 1.99702 9.1543 1.99704C9.1543 1.99704 9.15425 1.99705 9.15425 1.99704C9.15427 1.99704 9.15436 1.99703 9.15453 1.997C9.15487 1.99694 9.15552 1.99683 9.15649 1.99667C9.15842 1.99635 9.1616 1.99583 9.16599 1.99515C9.17478 1.99378 9.18843 1.99173 9.2067 1.98925C9.24324 1.98427 9.29825 1.97753 9.36983 1.97085C9.51302 1.9575 9.72225 1.94442 9.98235 1.94624C10.5029 1.94989 11.2248 2.01319 12.0281 2.25172C13.6283 2.72695 15.565 3.90103 16.8787 6.72437L17.2413 6.55563ZM9.12 1.8C9.10089 1.60091 9.10074 1.60093 9.10055 1.60095C9.10046 1.60096 9.10026 1.60098 9.10007 1.601C9.09969 1.60103 9.09922 1.60108 9.09865 1.60114C9.09751 1.60125 9.09598 1.60141 9.09407 1.60162C9.09024 1.60202 9.08487 1.60262 9.07801 1.60343C9.0643 1.60505 9.04463 1.60753 9.01939 1.6111C8.96893 1.61825 8.89619 1.62979 8.80434 1.6476C8.62071 1.68322 8.36037 1.74398 8.04888 1.84508C7.42621 2.04718 6.59659 2.41128 5.76682 3.05993C4.09901 4.36372 2.46 6.79416 2.46 11.28H2.86C2.86 6.90584 4.45099 4.59628 6.01318 3.37507C6.79841 2.76122 7.58379 2.41657 8.17237 2.22554C8.4665 2.13008 8.71085 2.07319 8.8805 2.04029C8.9653 2.02384 9.03134 2.01341 9.07551 2.00715C9.09759 2.00402 9.11419 2.00194 9.12493 2.00067C9.13029 2.00003 9.13419 1.9996 9.13657 1.99935C9.13776 1.99922 9.13857 1.99914 9.139 1.9991C9.13921 1.99908 9.13932 1.99906 9.13934 1.99906C9.13935 1.99906 9.13929 1.99907 9.1393 1.99907C9.13922 1.99907 9.13911 1.99908 9.12 1.8ZM2.46 11.28C2.46 20.1877 7.94813 24.2 12.02 24.2V23.8C8.21187 23.8 2.86 20.0122 2.86 11.28H2.46ZM12.02 24.2C13.0912 24.2 14.3728 23.8568 15.4411 22.864C16.5109 21.8699 17.3462 20.2438 17.5593 17.7168L17.1607 17.6832C16.9538 20.1362 16.1491 21.6601 15.1689 22.571C14.1872 23.4832 13.0088 23.8 12.02 23.8V24.2ZM17.5574 17.7318C17.6103 17.4041 17.62 16.9647 17.6175 16.6161C17.6162 16.4399 17.6118 16.2835 17.6077 16.1711C17.6056 16.1149 17.6036 16.0696 17.6022 16.0382C17.6014 16.0225 17.6008 16.0103 17.6004 16.002C17.6002 15.9978 17.6 15.9946 17.5999 15.9924C17.5998 15.9913 17.5998 15.9905 17.5997 15.9899C17.5997 15.9896 17.5997 15.9894 17.5997 15.9892C17.5997 15.9891 17.5997 15.9891 17.5997 15.989C17.5997 15.989 17.5997 15.989 17.5997 15.9889C17.5997 15.9889 17.5997 15.9889 17.4 16C17.2003 16.0111 17.2003 16.0111 17.2003 16.0111C17.2003 16.0111 17.2003 16.0111 17.2003 16.0111C17.2003 16.0111 17.2003 16.0111 17.2003 16.0112C17.2003 16.0113 17.2003 16.0115 17.2003 16.0117C17.2004 16.0121 17.2004 16.0129 17.2005 16.0138C17.2006 16.0157 17.2007 16.0187 17.2009 16.0226C17.2013 16.0303 17.2019 16.042 17.2026 16.057C17.204 16.0871 17.2059 16.131 17.2079 16.1858C17.212 16.2952 17.2163 16.4476 17.2175 16.6189C17.22 16.9653 17.2097 17.3759 17.1626 17.6682L17.5574 17.7318ZM25.2333 2.52V2.32H25.0333V2.52H25.2333ZM27.0933 12.78L27.1262 12.9773L27.1278 12.977L27.0933 12.78ZM25.2333 12.9H25.0333V13.1H25.2333V12.9ZM30.0933 12.82L29.9967 12.6449L30.0933 13.02V12.82ZM31.6333 11.88L31.7572 12.037L31.7586 12.0358L31.6333 11.88ZM23.3333 1.8V1.6H23.1333V1.8H23.3333ZM23.3333 24H23.1333V24.2H23.3333V24ZM25.2333 24V24.2H25.4333V24H25.2333ZM25.2333 13.78L25.2037 13.5822L25.0333 13.6077V13.78H25.2333ZM29.2933 14.48L29.1506 14.6202L29.1528 14.6224L29.2933 14.48ZM35.2933 24V24.2H35.3849L35.4448 24.1306L35.2933 24ZM36.2933 22.84L36.4448 22.9706L36.7298 22.64H36.2933V22.84ZM25.2333 2.72H27.0533V2.32H25.2333V2.72ZM27.0533 2.72C29.0683 2.72 30.3447 3.66449 31.1251 4.81947C31.9121 5.98424 32.1933 7.36388 32.1933 8.2H32.5933C32.5933 7.29612 32.2945 5.83576 31.4565 4.59553C30.6119 3.34551 29.2183 2.32 27.0533 2.32V2.72ZM32.1933 8.2C32.1933 9.25692 31.9417 10.036 31.5585 10.6167C31.1748 11.1983 30.6503 11.5944 30.0833 11.8701C28.9345 12.4288 27.6641 12.4768 27.0587 12.583L27.1278 12.977C27.6624 12.8832 29.0421 12.8212 30.2582 12.2299C30.8738 11.9306 31.4605 11.4917 31.8924 10.837C32.3249 10.1815 32.5933 9.32308 32.5933 8.2H32.1933ZM27.0604 12.5827C26.7134 12.6406 26.2587 12.6702 25.8853 12.6852C25.6997 12.6926 25.5364 12.6963 25.4195 12.6981C25.3611 12.6991 25.3143 12.6995 25.2822 12.6998C25.2662 12.6999 25.2539 12.6999 25.2456 12.7C25.2414 12.7 25.2383 12.7 25.2362 12.7C25.2352 12.7 25.2344 12.7 25.2339 12.7C25.2337 12.7 25.2335 12.7 25.2334 12.7C25.2334 12.7 25.2333 12.7 25.2333 12.7C25.2333 12.7 25.2333 12.7 25.2333 12.7C25.2333 12.7 25.2333 12.7 25.2333 12.9C25.2333 13.1 25.2333 13.1 25.2333 13.1C25.2333 13.1 25.2334 13.1 25.2334 13.1C25.2334 13.1 25.2335 13.1 25.2336 13.1C25.2337 13.1 25.234 13.1 25.2343 13.1C25.2349 13.1 25.2358 13.1 25.2369 13.1C25.2392 13.1 25.2426 13.1 25.2469 13.1C25.2557 13.0999 25.2686 13.0999 25.2851 13.0998C25.3182 13.0995 25.3661 13.099 25.4258 13.0981C25.5452 13.0962 25.7118 13.0924 25.9013 13.0848C26.2778 13.0698 26.7532 13.0394 27.1262 12.9773L27.0604 12.5827ZM25.4333 12.9V2.52H25.0333V12.9H25.4333ZM30.0933 12.82C30.1899 12.9951 30.1899 12.9951 30.1899 12.9951C30.1899 12.9951 30.19 12.9951 30.19 12.9951C30.19 12.9951 30.1901 12.995 30.1902 12.995C30.1903 12.9949 30.1905 12.9948 30.1908 12.9946C30.1914 12.9943 30.1923 12.9938 30.1934 12.9932C30.1957 12.9919 30.199 12.9901 30.2034 12.9877C30.2121 12.9828 30.2248 12.9757 30.2412 12.9666C30.2739 12.9484 30.321 12.922 30.3787 12.8895C30.494 12.8245 30.6519 12.7345 30.8218 12.6351C31.1566 12.4392 31.5543 12.1972 31.7572 12.037L31.5094 11.723C31.3323 11.8628 30.96 12.0908 30.6198 12.2899C30.4522 12.388 30.2963 12.4768 30.1822 12.5411C30.1252 12.5733 30.0787 12.5993 30.0465 12.6172C30.0304 12.6262 30.0179 12.6331 30.0094 12.6378C30.0052 12.6402 30.002 12.6419 29.9998 12.6431C29.9988 12.6437 29.998 12.6442 29.9974 12.6445C29.9972 12.6446 29.997 12.6447 29.9968 12.6448C29.9968 12.6448 29.9967 12.6449 29.9967 12.6449C29.9967 12.6449 29.9967 12.6449 29.9967 12.6449C29.9967 12.6449 29.9967 12.6449 30.0933 12.82ZM31.7586 12.0358C32.2234 11.662 32.8476 11.138 33.3517 10.2596C33.8565 9.38017 34.2333 8.15989 34.2333 6.4H33.8333C33.8333 8.10011 33.4701 9.24983 33.0048 10.0604C32.539 10.872 31.9632 11.358 31.5079 11.7242L31.7586 12.0358ZM34.2333 6.4C34.2333 3.89579 32.2099 1.6 29.3933 1.6V2C31.9767 2 33.8333 4.10421 33.8333 6.4H34.2333ZM29.3933 1.6H23.3333V2H29.3933V1.6ZM23.1333 1.8V24H23.5333V1.8H23.1333ZM23.3333 24.2H25.2333V23.8H23.3333V24.2ZM25.4333 24V13.78H25.0333V24H25.4333ZM25.2333 13.78C25.2629 13.9778 25.2629 13.9778 25.2628 13.9778C25.2628 13.9778 25.2628 13.9778 25.2628 13.9778C25.2629 13.9778 25.263 13.9778 25.2631 13.9778C25.2633 13.9777 25.2637 13.9777 25.2643 13.9776C25.2655 13.9774 25.2674 13.9771 25.27 13.9768C25.2751 13.976 25.2829 13.9749 25.2933 13.9735C25.3141 13.9707 25.3452 13.9667 25.3854 13.9619C25.4657 13.9524 25.5824 13.9399 25.7261 13.9284C26.0139 13.9054 26.4083 13.8865 26.8359 13.9024C27.2643 13.9183 27.7203 13.969 28.1334 14.0825C28.5482 14.1966 28.9047 14.3698 29.1506 14.6202L29.4359 14.3398C29.1219 14.0202 28.6908 13.8209 28.2394 13.6968C27.7863 13.5723 27.2972 13.5192 26.8507 13.5026C26.4033 13.486 25.9927 13.5058 25.6942 13.5297C25.5448 13.5416 25.423 13.5546 25.3382 13.5647C25.2958 13.5697 25.2626 13.5741 25.2398 13.5771C25.2284 13.5787 25.2196 13.5799 25.2135 13.5808C25.2105 13.5812 25.2081 13.5815 25.2065 13.5818C25.2057 13.5819 25.205 13.582 25.2046 13.5821C25.2043 13.5821 25.2041 13.5821 25.204 13.5822C25.2039 13.5822 25.2038 13.5822 25.2038 13.5822C25.2037 13.5822 25.2037 13.5822 25.2333 13.78ZM29.1528 14.6224C29.3155 14.7828 29.5 15.0474 29.7042 15.4023C29.9068 15.7542 30.1218 16.1823 30.3481 16.6606C30.5743 17.1385 30.8102 17.6629 31.055 18.2071C31.2995 18.7505 31.5527 19.3133 31.8123 19.8651C32.3304 20.9663 32.8792 22.0353 33.4446 22.8309C33.7274 23.2287 34.0201 23.5665 34.322 23.8066C34.6237 24.0463 34.9494 24.2 35.2933 24.2V23.8C35.0722 23.8 34.8323 23.7012 34.5709 23.4934C34.31 23.286 34.0423 22.9813 33.7707 22.5991C33.2274 21.8347 32.6912 20.7937 32.1743 19.6949C31.9163 19.1467 31.6645 18.587 31.4198 18.0429C31.1754 17.4996 30.9379 16.9715 30.7097 16.4894C30.4816 16.0077 30.2613 15.5683 30.0509 15.2027C29.8422 14.8401 29.636 14.5372 29.4337 14.3376L29.1528 14.6224ZM35.4448 24.1306L36.4448 22.9706L36.1418 22.7094L35.1418 23.8694L35.4448 24.1306ZM36.2933 22.64C36.149 22.64 35.9565 22.5389 35.7142 22.2744C35.4785 22.0171 35.2285 21.6413 34.9673 21.1764C34.4455 20.2477 33.9016 19.0054 33.3541 17.75C32.8093 16.5008 32.2607 15.2382 31.7348 14.2887C31.4721 13.8145 31.2094 13.4077 30.9492 13.1171C30.6964 12.8349 30.4088 12.62 30.0933 12.62V13.02C30.2278 13.02 30.4132 13.1182 30.6512 13.384C30.8817 13.6413 31.1273 14.0174 31.3849 14.4825C31.8996 15.4118 32.4398 16.6542 32.9875 17.91C33.5325 19.1596 34.0848 20.4223 34.6186 21.3723C34.8852 21.8469 35.1529 22.2538 35.4192 22.5445C35.6788 22.828 35.9726 23.04 36.2933 23.04V22.64ZM49.59 16.38V16.58H49.8574L49.7819 16.3235L49.59 16.38ZM42.03 16.38L41.8426 16.3102L41.7422 16.58H42.03V16.38ZM46.25 5.04L46.4419 4.98349L46.2721 4.40716L46.0626 4.97024L46.25 5.04ZM41.57 17.62V17.42H41.4324L41.3832 17.5486L41.57 17.62ZM49.95 17.62L50.1425 17.5657L50.1014 17.42H49.95V17.62ZM51.75 24L51.5575 24.0543L51.616 24.2615L51.8183 24.188L51.75 24ZM53.95 23.2L54.0183 23.388L54.1971 23.323L54.1412 23.1412L53.95 23.2ZM47.37 1.8L47.5612 1.74122L47.484 1.49037L47.2626 1.63127L47.37 1.8ZM46.27 2.5L46.1626 2.33127L46.1075 2.36634L46.0837 2.42719L46.27 2.5ZM38.03 23.58L37.8437 23.5072L37.7703 23.6949L37.9587 23.7668L38.03 23.58ZM39.13 24L39.0587 24.1868L39.2454 24.2581L39.3168 24.0714L39.13 24ZM49.59 16.18H42.03V16.58H49.59V16.18ZM42.2174 16.4498L46.4374 5.10975L46.0626 4.97024L41.8426 16.3102L42.2174 16.4498ZM46.0581 5.09651L49.3981 16.4365L49.7819 16.3235L46.4419 4.98349L46.0581 5.09651ZM41.57 17.82H49.95V17.42H41.57V17.82ZM49.7575 17.6743L51.5575 24.0543L51.9425 23.9457L50.1425 17.5657L49.7575 17.6743ZM51.8183 24.188L54.0183 23.388L53.8817 23.012L51.6817 23.812L51.8183 24.188ZM54.1412 23.1412L47.5612 1.74122L47.1788 1.85878L53.7588 23.2588L54.1412 23.1412ZM47.2626 1.63127L46.1626 2.33127L46.3774 2.66873L47.4774 1.96873L47.2626 1.63127ZM46.0837 2.42719L37.8437 23.5072L38.2163 23.6528L46.4563 2.57281L46.0837 2.42719ZM37.9587 23.7668L39.0587 24.1868L39.2013 23.8132L38.1013 23.3932L37.9587 23.7668ZM39.3168 24.0714L41.7568 17.6914L41.3832 17.5486L38.9432 23.9286L39.3168 24.0714ZM58.3394 21.94L58.1394 21.9402L58.1395 22.104L58.3002 22.1361L58.3394 21.94ZM58.3194 2.74V2.54H58.1192L58.1194 2.74021L58.3194 2.74ZM61.5394 22.58L61.5001 22.7765L61.5117 22.7781L61.5394 22.58ZM56.4394 1.8V1.6H56.2394V1.8H56.4394ZM56.4394 24H56.2394V24.2H56.4394V24ZM58.5394 21.9398L58.5194 2.73979L58.1194 2.74021L58.1394 21.9402L58.5394 21.9398ZM58.3194 2.94H61.3594V2.54H58.3194V2.94ZM61.3594 2.94C66.1223 2.94 69.5794 7.63714 69.5794 13.5H69.9794C69.9794 7.52285 66.4365 2.54 61.3594 2.54V2.94ZM69.5794 13.5C69.5794 17.737 68.4239 20.0602 66.8784 21.2726C65.3277 22.4892 63.3332 22.6286 61.567 22.3819L61.5117 22.7781C63.3256 23.0314 65.451 22.9008 67.1253 21.5874C68.8048 20.2698 69.9794 17.803 69.9794 13.5H69.5794ZM61.5786 22.3839L58.3786 21.7439L58.3002 22.1361L61.5002 22.7761L61.5786 22.3839ZM61.7994 1.6H56.4394V2H61.7994V1.6ZM56.2394 1.8V24H56.6394V1.8H56.2394ZM56.4394 24.2H60.1194V23.8H56.4394V24.2ZM60.1194 24.2C64.2082 24.2 67.2559 22.7942 69.2982 20.6699C71.3379 18.5484 72.362 15.7237 72.4318 12.905C72.5016 10.0868 71.6179 7.26259 69.8263 5.13975C68.0313 3.01296 65.3326 1.6 61.7994 1.6V2C65.2161 2 67.8025 3.36204 69.5206 5.39775C71.2421 7.43741 72.0996 10.1632 72.0319 12.895C71.9643 15.6263 70.9721 18.3516 69.0099 20.3926C67.0504 22.4308 64.1105 23.8 60.1194 23.8V24.2ZM78.7986 24V24.2H78.9986V24H78.7986ZM78.7986 1.8H78.9986V1.6H78.7986V1.8ZM76.9186 1.8V1.6H76.7186V1.8H76.9186ZM76.9186 24H76.7186V24.2H76.9186V24ZM78.9986 24V1.8H78.5986V24H78.9986ZM78.7986 1.6H76.9186V2H78.7986V1.6ZM76.7186 1.8V24H77.1186V1.8H76.7186ZM76.9186 24.2H78.7986V23.8H76.9186V24.2ZM86.5934 23.12H86.3934V23.32H86.5934V23.12ZM86.5934 13.58V13.38H86.3934V13.58H86.5934ZM94.4134 13.58V13.78H94.6134V13.58H94.4134ZM94.4134 12.72H94.6134V12.52H94.4134V12.72ZM86.5934 12.72H86.3934V12.92H86.5934V12.72ZM86.5934 2.72V2.52H86.3934V2.72H86.5934ZM97.1934 2.72V2.92H97.3934V2.72H97.1934ZM97.1934 1.8H97.3934V1.6H97.1934V1.8ZM84.4334 1.8V1.6H84.2334V1.8H84.4334ZM84.4334 22.66H84.2334V22.7713L84.328 22.83L84.4334 22.66ZM86.5934 24L86.488 24.17L86.5364 24.2H86.5934V24ZM97.2734 24V24.2H97.4734V24H97.2734ZM97.2734 23.12H97.4734V22.92H97.2734V23.12ZM86.7934 23.12V13.58H86.3934V23.12H86.7934ZM86.5934 13.78H94.4134V13.38H86.5934V13.78ZM94.6134 13.58V12.72H94.2134V13.58H94.6134ZM94.4134 12.52H86.5934V12.92H94.4134V12.52ZM86.7934 12.72V2.72H86.3934V12.72H86.7934ZM86.5934 2.92H97.1934V2.52H86.5934V2.92ZM97.3934 2.72V1.8H96.9934V2.72H97.3934ZM97.1934 1.6H84.4334V2H97.1934V1.6ZM84.2334 1.8V22.66H84.6334V1.8H84.2334ZM84.328 22.83L86.488 24.17L86.6989 23.83L84.5389 22.49L84.328 22.83ZM86.5934 24.2H97.2734V23.8H86.5934V24.2ZM97.4734 24V23.12H97.0734V24H97.4734ZM97.2734 22.92H86.5934V23.32H97.2734V22.92ZM110.813 1.8V1.6H110.614L110.613 1.79896L110.813 1.8ZM110.713 21.12L110.529 21.1991L110.913 21.121L110.713 21.12ZM102.393 1.8L102.576 1.72089L102.524 1.6H102.393V1.8ZM100.753 1.8V1.6H100.553V1.8H100.753ZM100.753 24H100.553V24.2H100.753V24ZM101.753 24V24.2H101.953V24H101.753ZM101.753 6.22L101.936 6.13948L101.553 6.22H101.753ZM109.573 24L109.39 24.0805L109.476 24.2762L109.665 24.1773L109.573 24ZM111.873 22.8L111.965 22.9773L112.073 22.9212V22.8H111.873ZM111.873 1.8H112.073V1.6H111.873V1.8ZM110.613 1.79896L110.513 21.119L110.913 21.121L111.013 1.80103L110.613 1.79896ZM110.896 21.0409L102.576 1.72089L102.209 1.8791L110.529 21.1991L110.896 21.0409ZM102.393 1.6H100.753V2H102.393V1.6ZM100.553 1.8V24H100.953V1.8H100.553ZM100.753 24.2H101.753V23.8H100.753V24.2ZM101.953 24V6.22H101.553V24H101.953ZM101.57 6.30052L109.39 24.0805L109.756 23.9195L101.936 6.13948L101.57 6.30052ZM109.665 24.1773L111.965 22.9773L111.78 22.6227L109.48 23.8227L109.665 24.1773ZM112.073 22.8V1.8H111.673V22.8H112.073ZM111.873 1.6H110.813V2H111.873V1.6ZM130.367 1.8H130.567V1.6H130.367V1.8ZM114.367 1.8V1.6H114.167V1.8H114.367ZM114.367 2.88H114.167V3.08H114.367V2.88ZM121.367 2.88H121.567V2.68H121.367V2.88ZM121.367 22.68H121.167V22.7876L121.257 22.8469L121.367 22.68ZM123.367 24L123.257 24.1669L123.567 24.3716V24H123.367ZM123.367 2.88V2.68H123.167V2.88H123.367ZM130.347 2.88V3.08H130.535L130.547 2.89174L130.347 2.88ZM130.367 1.6H114.367V2H130.367V1.6ZM114.167 1.8V2.88H114.567V1.8H114.167ZM114.367 3.08H121.367V2.68H114.367V3.08ZM121.167 2.88V22.68H121.567V2.88H121.167ZM121.257 22.8469L123.257 24.1669L123.477 23.8331L121.477 22.5131L121.257 22.8469ZM123.567 24V2.88H123.167V24H123.567ZM123.367 3.08H130.347V2.68H123.367V3.08ZM130.547 2.89174C130.567 2.54475 130.567 2.13854 130.567 1.8H130.167C130.167 2.14146 130.167 2.53525 130.147 2.86826L130.547 2.89174ZM133.151 10.14L132.951 10.1479L132.951 10.1486L133.151 10.14ZM144.931 12.14L145.07 11.9964L145.069 11.9956L144.931 12.14ZM135.571 18.5L135.771 18.4992L135.77 18.3H135.571V18.5ZM133.271 18.5V18.3H133.071V18.5H133.271ZM135.451 9.36L135.647 9.32176L135.647 9.32052L135.451 9.36ZM143.931 6.28L143.735 6.31965L143.768 6.48H143.931V6.28ZM146.631 6.28V6.48H146.873L146.828 6.24258L146.631 6.28ZM140.631 1.6C137.891 1.6 135.922 2.69693 134.663 4.32515C133.409 5.94705 132.87 8.08095 132.951 10.1479L133.351 10.1321C133.272 8.13905 133.794 6.10295 134.979 4.56985C136.16 3.04307 138.011 2 140.631 2V1.6ZM132.951 10.1486C132.978 10.7635 133.164 11.2455 133.486 11.6096C133.807 11.9713 134.247 12.1991 134.754 12.3359C135.759 12.6073 137.08 12.5348 138.419 12.3812C139.778 12.2252 141.147 11.9874 142.323 11.9004C142.907 11.8572 143.426 11.8531 143.854 11.9133C144.284 11.974 144.597 12.0965 144.793 12.2844L145.069 11.9956C144.786 11.7235 144.376 11.5829 143.91 11.5172C143.441 11.4511 142.889 11.4575 142.294 11.5015C141.113 11.5889 139.694 11.8323 138.373 11.9838C137.032 12.1377 135.781 12.199 134.858 11.9497C134.401 11.8262 134.039 11.6301 133.786 11.3442C133.534 11.0607 133.374 10.6715 133.351 10.1313L132.951 10.1486ZM144.792 12.2836C145.371 12.8444 145.56 13.7834 145.443 14.9371C145.328 16.083 144.914 17.3931 144.349 18.6347C143.785 19.8755 143.076 21.0356 142.38 21.8821C142.032 22.3056 141.692 22.6452 141.379 22.8772C141.061 23.1126 140.795 23.22 140.591 23.22V23.62C140.922 23.62 141.274 23.453 141.617 23.1985C141.965 22.9406 142.329 22.5747 142.689 22.1361C143.411 21.2581 144.137 20.067 144.713 18.8003C145.289 17.5344 145.72 16.1807 145.841 14.9773C145.962 13.7816 145.782 12.6856 145.07 11.9964L144.792 12.2836ZM140.591 23.22C139.375 23.22 138.476 22.9215 137.807 22.4839C137.137 22.0456 136.687 21.46 136.384 20.8688C136.081 20.2768 135.927 19.6825 135.849 19.2346C135.811 19.0111 135.791 18.8253 135.781 18.6961C135.776 18.6316 135.774 18.5813 135.772 18.5477C135.772 18.5309 135.771 18.5182 135.771 18.51C135.771 18.5059 135.771 18.503 135.771 18.5011C135.771 18.5002 135.771 18.4996 135.771 18.4993C135.771 18.4991 135.771 18.499 135.771 18.499C135.771 18.499 135.771 18.499 135.771 18.499C135.771 18.4991 135.771 18.4992 135.571 18.5C135.371 18.5008 135.371 18.5009 135.371 18.5011C135.371 18.5011 135.371 18.5013 135.371 18.5014C135.371 18.5017 135.371 18.5021 135.371 18.5025C135.371 18.5034 135.371 18.5045 135.371 18.506C135.371 18.5089 135.371 18.513 135.371 18.5182C135.372 18.5286 135.372 18.5436 135.373 18.5628C135.374 18.6013 135.377 18.6567 135.382 18.7267C135.393 18.8666 135.414 19.0652 135.455 19.3029C135.538 19.7775 135.701 20.4132 136.028 21.0512C136.355 21.69 136.848 22.3344 137.588 22.8186C138.329 23.3035 139.307 23.62 140.591 23.62V23.22ZM135.571 18.3H133.271V18.7H135.571V18.3ZM133.071 18.5C133.071 18.8523 133.106 20.2754 133.986 21.6148C134.876 22.969 136.604 24.2 139.911 24.2V23.8C136.718 23.8 135.126 22.621 134.321 21.3952C133.506 20.1546 133.471 18.8277 133.471 18.5H133.071ZM139.911 24.2C141.869 24.2 143.939 22.9923 145.511 21.2254C147.085 19.4553 148.191 17.0898 148.191 14.72H147.791C147.791 16.9702 146.737 19.2447 145.212 20.9596C143.683 22.6777 141.713 23.8 139.911 23.8V24.2ZM148.191 14.72C148.191 13.9091 147.996 13.2505 147.643 12.7196C147.292 12.1897 146.792 11.8003 146.204 11.512C145.036 10.9392 143.488 10.7516 141.958 10.6628C140.407 10.5729 138.885 10.5837 137.69 10.424C137.096 10.3445 136.607 10.2251 136.254 10.042C135.907 9.86196 135.707 9.63013 135.647 9.32176L135.255 9.39824C135.345 9.85987 135.649 10.1787 136.07 10.397C136.485 10.6122 137.028 10.739 137.637 10.8204C138.85 10.9825 140.425 10.9746 141.935 11.0622C143.464 11.1509 144.939 11.3371 146.028 11.8711C146.569 12.1363 147.007 12.4836 147.31 12.9408C147.613 13.397 147.791 13.9759 147.791 14.72H148.191ZM135.647 9.32052C135.355 7.8685 135.522 6.25018 136.062 5.00197C136.604 3.74959 137.495 2.92 138.631 2.92V2.52C137.267 2.52 136.268 3.52041 135.695 4.84303C135.121 6.16982 134.947 7.8715 135.255 9.39948L135.647 9.32052ZM138.631 2.92C140.861 2.92 142.131 3.78315 142.846 4.62913C143.206 5.05522 143.429 5.48149 143.562 5.80067C143.629 5.9601 143.673 6.09225 143.699 6.18347C143.713 6.22905 143.722 6.26435 143.728 6.28763C143.73 6.29928 143.732 6.30791 143.734 6.31332C143.734 6.31602 143.735 6.31792 143.735 6.31898C143.735 6.31952 143.735 6.31984 143.735 6.31995C143.735 6.32001 143.735 6.32001 143.735 6.31996C143.735 6.31993 143.735 6.31985 143.735 6.31984C143.735 6.31975 143.735 6.31965 143.931 6.28C144.127 6.24035 144.127 6.24022 144.127 6.24008C144.127 6.24001 144.127 6.23985 144.127 6.23972C144.127 6.23945 144.127 6.23913 144.127 6.23875C144.127 6.238 144.126 6.23703 144.126 6.23586C144.126 6.2335 144.125 6.23029 144.124 6.22626C144.122 6.21819 144.12 6.20684 144.116 6.1924C144.109 6.16354 144.098 6.12235 144.083 6.07059C144.053 5.96712 144.004 5.82115 143.932 5.64683C143.787 5.29851 143.544 4.83478 143.151 4.37087C142.362 3.43685 140.981 2.52 138.631 2.52V2.92ZM143.931 6.48H146.631V6.08H143.931V6.48ZM146.828 6.24258C146.782 6.0025 146.626 5.59602 146.363 5.12783C146.098 4.65544 145.718 4.10743 145.215 3.58608C144.207 2.54226 142.698 1.6 140.631 1.6V2C142.564 2 143.975 2.87774 144.927 3.86392C145.404 4.35757 145.764 4.87706 146.014 5.32342C146.267 5.77397 146.4 6.1375 146.435 6.31742L146.828 6.24258Z" />
</svg>
