<svg width="14" height="51" viewBox="0 0 14 51" fill="black" xmlns="http://www.w3.org/2000/svg">
  <path d="M11.5 49.1875L0.9 49.1875L0.9 50.2175L12 50.2175L12 44.7675L11.5 44.7675L11.5 49.1875ZM8.19 37.7939L8.19 41.5739L2.52 39.4639L8.19 37.7939ZM8.81 41.8039L8.81 37.6139L12 36.7139L11.6 35.6139L0.899999 38.9039L1.25 39.4539L11.79 43.5739L12 43.0239L8.81 41.8039ZM12 33.3192L1.11 28.9592L0.899999 29.5092L6.48 31.6992L0.899999 34.4992L1.45 35.4092L7.77 32.2192L12 33.8692L12 33.3192ZM11.05 21.2657C13.95 24.9757 2.87 28.9157 1.43 24.6757C0.769998 22.7457 3.14 21.2557 3.66 20.9857C6.16 19.6557 9.97 19.8957 11.05 21.2657ZM2.85 20.0257C0.759998 21.2157 0.759998 23.1357 0.759998 23.1357C0.759998 23.1357 0.269998 26.4057 4.66 27.1757C9.02 27.9457 11.93 25.3157 12.11 23.5457C12.17 22.9857 12.08 22.2757 11.75 21.6757C11.75 21.6757 11.06 20.2657 9.23 19.6157C6.59 18.6957 4.17 19.2757 2.85 20.0257ZM0.899998 10.1789L0.899998 10.8389L6.69 10.8389C10.12 10.8389 10.93 11.7489 11.33 12.5389C11.5 12.8789 11.54 13.2789 11.54 13.6789C11.53 15.2889 10.06 16.3089 6.52 16.3089L0.899998 16.3089L0.899998 17.4289L6.6 17.4289C9.5 17.4289 12.1 16.8189 12.1 13.9889C12.1 10.5889 9.31 10.1789 6.17 10.1789L0.899998 10.1789ZM0.899998 0.77457L0.899998 8.77457L1.44 8.77457L1.44 5.27457L11.34 5.27457L12 4.27457L1.44 4.27457L1.44 0.78457C1.27 0.77457 1.07 0.77457 0.899998 0.77457Z" />
  <path d="M11.5 49.1875L11.5 49.2875L11.6 49.2875L11.6 49.1875L11.5 49.1875ZM0.9 49.1875L0.9 49.0875L0.8 49.0875L0.8 49.1875L0.9 49.1875ZM0.9 50.2175L0.8 50.2175L0.8 50.3175L0.9 50.3175L0.9 50.2175ZM12 50.2175L12 50.3175L12.1 50.3175L12.1 50.2175L12 50.2175ZM12 44.7675L12.1 44.7675L12.1 44.6675L12 44.6675L12 44.7675ZM11.5 44.7675L11.5 44.6675L11.4 44.6675L11.4 44.7675L11.5 44.7675ZM11.5 49.0875L0.9 49.0875L0.9 49.2875L11.5 49.2875L11.5 49.0875ZM0.8 49.1875L0.8 50.2175L1 50.2175L1 49.1875L0.8 49.1875ZM0.9 50.3175L12 50.3175L12 50.1175L0.9 50.1175L0.9 50.3175ZM12.1 50.2175L12.1 44.7675L11.9 44.7675L11.9 50.2175L12.1 50.2175ZM12 44.6675L11.5 44.6675L11.5 44.8675L12 44.8675L12 44.6675ZM11.4 44.7675L11.4 49.1875L11.6 49.1875L11.6 44.7675L11.4 44.7675ZM8.19 37.7939L8.29 37.7939L8.29 37.6602L8.16175 37.6979L8.19 37.7939ZM8.19 41.5739L8.15512 41.6676L8.29 41.7178L8.29 41.5739L8.19 41.5739ZM2.52 39.4639L2.49175 39.3679L2.20358 39.4528L2.48512 39.5576L2.52 39.4639ZM8.81 41.8039L8.71 41.8039L8.71 41.8727L8.77428 41.8973L8.81 41.8039ZM8.81 37.6139L8.78285 37.5176L8.71 37.5382L8.71 37.6139L8.81 37.6139ZM12 36.7139L12.0272 36.8101L12.1308 36.7809L12.094 36.6797L12 36.7139ZM11.6 35.6139L11.694 35.5797L11.6615 35.4903L11.5706 35.5183L11.6 35.6139ZM0.899999 38.9039L0.870609 38.8083L0.745184 38.8468L0.815633 38.9576L0.899999 38.9039ZM1.25 39.4539L1.16563 39.5076L1.18317 39.5351L1.21359 39.547L1.25 39.4539ZM11.79 43.5739L11.7536 43.667L11.8475 43.7037L11.8834 43.6095L11.79 43.5739ZM12 43.0239L12.0934 43.0595L12.1291 42.9662L12.0357 42.9305L12 43.0239ZM8.09 37.7939L8.09 41.5739L8.29 41.5739L8.29 37.7939L8.09 37.7939ZM8.22488 41.4801L2.55488 39.3701L2.48512 39.5576L8.15512 41.6676L8.22488 41.4801ZM2.54825 39.5598L8.21825 37.8898L8.16175 37.6979L2.49175 39.3679L2.54825 39.5598ZM8.91 41.8039L8.91 37.6139L8.71 37.6139L8.71 41.8039L8.91 41.8039ZM8.83715 37.7101L12.0272 36.8101L11.9728 36.6176L8.78285 37.5176L8.83715 37.7101ZM12.094 36.6797L11.694 35.5797L11.506 35.648L11.906 36.748L12.094 36.6797ZM11.5706 35.5183L0.870609 38.8083L0.929389 38.9995L11.6294 35.7094L11.5706 35.5183ZM0.815633 38.9576L1.16563 39.5076L1.33437 39.4002L0.984365 38.8502L0.815633 38.9576ZM1.21359 39.547L11.7536 43.667L11.8264 43.4807L1.28641 39.3607L1.21359 39.547ZM11.8834 43.6095L12.0934 43.0595L11.9066 42.9882L11.6966 43.5382L11.8834 43.6095ZM12.0357 42.9305L8.84572 41.7105L8.77428 41.8973L11.9643 43.1173L12.0357 42.9305ZM12 33.3192L12.1 33.3192L12.1 33.2515L12.0372 33.2263L12 33.3192ZM1.11 28.9592L1.14717 28.8663L1.05282 28.8286L1.01658 28.9235L1.11 28.9592ZM0.899999 29.5092L0.806577 29.4735L0.771236 29.5661L0.863465 29.6023L0.899999 29.5092ZM6.48 31.6992L6.52485 31.7886L6.72524 31.688L6.51653 31.6061L6.48 31.6992ZM0.899999 34.4992L0.85515 34.4098L0.758458 34.4583L0.814416 34.5509L0.899999 34.4992ZM1.45 35.4092L1.36442 35.4609L1.41234 35.5402L1.49506 35.4985L1.45 35.4092ZM7.77 32.2192L7.80634 32.126L7.76477 32.1098L7.72494 32.1299L7.77 32.2192ZM12 33.8692L11.9637 33.9623L12.1 34.0155L12.1 33.8692L12 33.8692ZM12.0372 33.2263L1.14717 28.8663L1.07283 29.052L11.9628 33.412L12.0372 33.2263ZM1.01658 28.9235L0.806577 29.4735L0.993421 29.5448L1.20342 28.9949L1.01658 28.9235ZM0.863465 29.6023L6.44346 31.7923L6.51653 31.6061L0.936533 29.4161L0.863465 29.6023ZM6.43515 31.6098L0.85515 34.4098L0.944848 34.5886L6.52485 31.7886L6.43515 31.6098ZM0.814416 34.5509L1.36442 35.4609L1.53558 35.3575L0.985582 34.4475L0.814416 34.5509ZM1.49506 35.4985L7.81506 32.3085L7.72494 32.1299L1.40494 35.3199L1.49506 35.4985ZM7.73366 32.3123L11.9637 33.9623L12.0363 33.776L7.80634 32.126L7.73366 32.3123ZM12.1 33.8692L12.1 33.3192L11.9 33.3192L11.9 33.8692L12.1 33.8692ZM11.05 21.2657L11.1288 21.2041L11.1285 21.2038L11.05 21.2657ZM1.43 24.6757L1.52469 24.6435L1.52462 24.6433L1.43 24.6757ZM3.66 20.9857L3.70608 21.0744L3.70697 21.0739L3.66 20.9857ZM2.85 20.0257L2.8006 19.9387L2.80052 19.9388L2.85 20.0257ZM0.759998 23.1357L0.858894 23.1505L0.859998 23.1431L0.859998 23.1357L0.759998 23.1357ZM4.66 27.1757L4.67739 27.0772L4.67727 27.0772L4.66 27.1757ZM12.11 23.5457L12.0106 23.535L12.0105 23.5355L12.11 23.5457ZM11.75 21.6757L11.6601 21.7197L11.6624 21.7239L11.75 21.6757ZM9.23 19.6157L9.26347 19.5214L9.26291 19.5212L9.23 19.6157ZM10.9712 21.3272C11.3208 21.7744 11.455 22.2182 11.4285 22.6451C11.4019 23.0738 11.2123 23.4965 10.8944 23.8978C10.257 24.7024 9.1182 25.4017 7.83404 25.8577C6.55108 26.3132 5.13833 26.5204 3.96242 26.3543C2.78662 26.1882 1.86782 25.6539 1.52469 24.6435L1.33531 24.7078C1.71217 25.8175 2.71837 26.3806 3.93445 26.5523C5.15042 26.7241 6.59642 26.5094 7.90096 26.0462C9.2043 25.5834 10.3817 24.8671 11.0512 24.022C11.3867 23.5984 11.5983 23.1378 11.6281 22.6575C11.6581 22.1753 11.5042 21.6844 11.1288 21.2041L10.9712 21.3272ZM1.52462 24.6433C1.21169 23.7282 1.61249 22.9106 2.17727 22.2746C2.74154 21.6391 3.45278 21.2059 3.70608 21.0744L3.61392 20.8969C3.34721 21.0354 2.61345 21.4822 2.02773 22.1418C1.44251 22.8008 0.988303 23.6931 1.33538 24.708L1.52462 24.6433ZM3.70697 21.0739C4.93804 20.419 6.49695 20.1487 7.88286 20.2131C8.57524 20.2452 9.22083 20.3607 9.75783 20.5512C10.2961 20.7421 10.7175 21.0054 10.9715 21.3276L11.1285 21.2038C10.8425 20.841 10.3826 20.5605 9.82467 20.3627C9.26541 20.1643 8.59976 20.0461 7.89214 20.0133C6.47804 19.9476 4.88196 20.2223 3.61303 20.8974L3.70697 21.0739ZM2.80052 19.9388C1.73372 20.5462 1.19748 21.3422 0.928902 21.9885C0.794844 22.3112 0.727666 22.596 0.693979 22.8008C0.67713 22.9033 0.668638 22.9859 0.664356 23.0434C0.662215 23.0722 0.661126 23.0947 0.660572 23.1103C0.660294 23.1181 0.660151 23.1241 0.660077 23.1284C0.66004 23.1305 0.66002 23.1322 0.66001 23.1334C0.660005 23.134 0.660001 23.1345 0.66 23.1349C0.659999 23.1351 0.659999 23.1352 0.659998 23.1354C0.659998 23.1354 0.659998 23.1355 0.659998 23.1355C0.659998 23.1356 0.659998 23.1357 0.759998 23.1357C0.859998 23.1357 0.859998 23.1357 0.859998 23.1357C0.859998 23.1358 0.859998 23.1358 0.859998 23.1358C0.859998 23.1358 0.859998 23.1358 0.859998 23.1357C0.859998 23.1357 0.86 23.1354 0.860002 23.1351C0.860008 23.1345 0.86002 23.1334 0.860047 23.1319C0.8601 23.1288 0.860212 23.1239 0.860445 23.1174C0.860912 23.1042 0.861863 23.0843 0.863804 23.0583C0.867686 23.0061 0.875522 22.9294 0.891329 22.8333C0.922955 22.641 0.986402 22.3714 1.11359 22.0653C1.36752 21.4542 1.87627 20.6952 2.89948 20.1126L2.80052 19.9388ZM0.759998 23.1357C0.661102 23.1208 0.661091 23.1209 0.661077 23.121C0.66107 23.1211 0.661055 23.1212 0.661041 23.1213C0.661014 23.1214 0.660979 23.1217 0.660938 23.122C0.660855 23.1225 0.660745 23.1233 0.660611 23.1243C0.660342 23.1262 0.659976 23.1289 0.659532 23.1324C0.658644 23.1394 0.657447 23.1493 0.656106 23.1622C0.653425 23.1879 0.650166 23.2251 0.647658 23.2724C0.642644 23.3669 0.640623 23.5018 0.652281 23.6657C0.675582 23.9934 0.753659 24.4387 0.973123 24.9092C1.41479 25.856 2.41951 26.8842 4.64272 27.2742L4.67727 27.0772C2.51049 26.6971 1.56521 25.7053 1.15437 24.8246C0.947587 24.3814 0.873789 23.9611 0.851777 23.6515C0.84078 23.4969 0.842742 23.3703 0.847377 23.283C0.849694 23.2393 0.852675 23.2055 0.855028 23.1829C0.856204 23.1717 0.857222 23.1632 0.857921 23.1577C0.85827 23.155 0.858539 23.153 0.858708 23.1518C0.858793 23.1512 0.858852 23.1508 0.858884 23.1506C0.8589 23.1504 0.858909 23.1504 0.85891 23.1504C0.858911 23.1504 0.858907 23.1504 0.858908 23.1504C0.858902 23.1504 0.858894 23.1505 0.759998 23.1357ZM4.64261 27.2741C6.84647 27.6634 8.68852 27.1938 10.0042 26.3988C11.3145 25.607 12.1151 24.4834 12.2095 23.5558L12.0105 23.5355C11.9249 24.3779 11.1805 25.4543 9.90078 26.2276C8.62647 26.9976 6.83352 27.458 4.67739 27.0772L4.64261 27.2741ZM12.2094 23.5563C12.2712 22.9796 12.1791 22.2484 11.8376 21.6275L11.6624 21.7239C11.9809 22.3029 12.0688 22.9917 12.0106 23.535L12.2094 23.5563ZM11.75 21.6757C11.8398 21.6317 11.8398 21.6317 11.8398 21.6316C11.8398 21.6316 11.8397 21.6315 11.8397 21.6315C11.8397 21.6314 11.8396 21.6313 11.8395 21.6311C11.8394 21.6309 11.8392 21.6305 11.839 21.6301C11.8386 21.6292 11.838 21.628 11.8372 21.6264C11.8356 21.6233 11.8333 21.6189 11.8304 21.6132C11.8244 21.6019 11.8156 21.5855 11.8039 21.5647C11.7804 21.5231 11.7452 21.4636 11.6972 21.3904C11.6014 21.2441 11.4546 21.043 11.2497 20.8215C10.8398 20.3784 10.1967 19.8529 9.26347 19.5214L9.19653 19.7099C10.0933 20.0284 10.7102 20.5329 11.1028 20.9573C11.2992 21.1696 11.4393 21.3616 11.53 21.5C11.5753 21.5692 11.6082 21.6249 11.6297 21.6629C11.6404 21.6819 11.6482 21.6965 11.6532 21.7061C11.6558 21.7109 11.6576 21.7145 11.6588 21.7168C11.6593 21.7179 11.6597 21.7187 11.66 21.7192C11.6601 21.7194 11.6602 21.7196 11.6602 21.7197C11.6602 21.7197 11.6602 21.7197 11.6602 21.7197C11.6602 21.7197 11.6602 21.7197 11.6602 21.7197C11.6602 21.7197 11.6602 21.7196 11.75 21.6757ZM9.26291 19.5212C6.59279 18.5907 4.14289 19.1761 2.8006 19.9387L2.8994 20.1126C4.19711 19.3753 6.5872 18.8006 9.19709 19.7101L9.26291 19.5212ZM0.899998 10.1789L0.899998 10.0789L0.799998 10.0789L0.799998 10.1789L0.899998 10.1789ZM0.899998 10.8389L0.799998 10.8389L0.799998 10.9389L0.899998 10.9389L0.899998 10.8389ZM11.33 12.5389L11.4194 12.4941L11.4192 12.4937L11.33 12.5389ZM11.54 13.6789L11.64 13.6795L11.64 13.6789L11.54 13.6789ZM0.899998 16.3089L0.899998 16.2089L0.799998 16.2089L0.799998 16.3089L0.899998 16.3089ZM0.899998 17.4289L0.799998 17.4289L0.799998 17.5289L0.899998 17.5289L0.899998 17.4289ZM0.799998 10.1789L0.799998 10.8389L0.999998 10.8389L0.999998 10.1789L0.799998 10.1789ZM0.899998 10.9389L6.69 10.9389L6.69 10.7389L0.899998 10.7389L0.899998 10.9389ZM6.69 10.9389C8.39797 10.9389 9.44097 11.1657 10.1031 11.4828C10.7598 11.7973 11.0481 12.2036 11.2408 12.584L11.4192 12.4937C11.2119 12.0842 10.8952 11.6404 10.1894 11.3024C9.48903 10.967 8.41202 10.7389 6.69 10.7389L6.69 10.9389ZM11.2406 12.5836C11.3999 12.9023 11.44 13.2832 11.44 13.6789L11.64 13.6789C11.64 13.2745 11.6001 12.8554 11.4194 12.4941L11.2406 12.5836ZM11.44 13.6782C11.4352 14.4456 11.0862 15.071 10.3047 15.5105C9.51559 15.9543 8.28348 16.2089 6.52 16.2089L6.52 16.4089C8.29651 16.4089 9.56941 16.1535 10.4028 15.6848C11.2438 15.2118 11.6348 14.5221 11.64 13.6795L11.44 13.6782ZM6.52 16.2089L0.899998 16.2089L0.899998 16.4089L6.52 16.4089L6.52 16.2089ZM0.799998 16.3089L0.799998 17.4289L0.999998 17.4289L0.999998 16.3089L0.799998 16.3089ZM0.899998 17.5289L6.6 17.5289L6.6 17.3289L0.899998 17.3289L0.899998 17.5289ZM6.6 17.5289C8.05319 17.5289 9.44791 17.3767 10.4822 16.8596C11.0012 16.6 11.4322 16.2473 11.7329 15.7739C12.0337 15.3002 12.2 14.7122 12.2 13.9889L12 13.9889C12 14.6806 11.8413 15.23 11.564 15.6667C11.2866 16.1035 10.8862 16.4339 10.3928 16.6807C9.40209 17.176 8.04681 17.3289 6.6 17.3289L6.6 17.5289ZM12.2 13.9889C12.2 13.1252 12.0227 12.4432 11.7007 11.9076C11.3784 11.3716 10.9153 10.9895 10.3561 10.7189C9.24316 10.1803 7.73925 10.0789 6.17 10.0789L6.17 10.2789C7.74074 10.2789 9.20184 10.3825 10.2689 10.8989C10.7997 11.1557 11.2304 11.5136 11.5293 12.0107C11.8285 12.5083 12 13.1526 12 13.9889L12.2 13.9889ZM6.17 10.0789L0.899998 10.0789L0.899998 10.2789L6.17 10.2789L6.17 10.0789ZM0.899998 0.774571L0.899998 0.674568L0.799998 0.674568L0.799998 0.774571L0.899998 0.774571ZM0.899998 8.77457L0.799998 8.77457L0.799998 8.87457L0.899998 8.87457L0.899998 8.77457ZM1.44 8.77457L1.44 8.87457L1.54 8.87457L1.54 8.77457L1.44 8.77457ZM1.44 5.27457L1.44 5.17457L1.34 5.17457L1.34 5.27457L1.44 5.27457ZM11.34 5.27457L11.34 5.37457L11.3938 5.37457L11.4235 5.32965L11.34 5.27457ZM12 4.27457L12.0835 4.32965L12.1858 4.17457L12 4.17457L12 4.27457ZM1.44 4.27457L1.34 4.27457L1.34 4.37457L1.44 4.37457L1.44 4.27457ZM1.44 0.784569L1.54 0.784569L1.54 0.690281L1.44587 0.684742L1.44 0.784569ZM0.799998 0.774571L0.799998 8.77457L0.999998 8.77457L0.999998 0.774571L0.799998 0.774571ZM0.899998 8.87457L1.44 8.87457L1.44 8.67457L0.899998 8.67457L0.899998 8.87457ZM1.54 8.77457L1.54 5.27457L1.34 5.27457L1.34 8.77457L1.54 8.77457ZM1.44 5.37457L11.34 5.37457L11.34 5.17457L1.44 5.17457L1.44 5.37457ZM11.4235 5.32965L12.0835 4.32965L11.9165 4.21949L11.2565 5.21949L11.4235 5.32965ZM12 4.17457L1.44 4.17457L1.44 4.37457L12 4.37457L12 4.17457ZM1.54 4.27457L1.54 0.784569L1.34 0.784569L1.34 4.27457L1.54 4.27457ZM1.44587 0.684742C1.27237 0.674538 1.06927 0.674568 0.899998 0.674568L0.899998 0.874569C1.07073 0.874569 1.26762 0.874603 1.43413 0.884396L1.44587 0.684742Z" />
</svg>
