<svg width="14" height="62" viewBox="0 0 14 62" fill="black" xmlns="http://www.w3.org/2000/svg">
  <path d="M11.05 54.0323C13.95 57.7423 2.87 61.6823 1.43 57.4423C0.77 55.5123 3.14 54.0223 3.66 53.7523C6.16 52.4223 9.97 52.6623 11.05 54.0323ZM2.85 52.7923C0.759999 53.9823 0.759999 55.9023 0.759999 55.9023C0.759999 55.9023 0.269999 59.1723 4.66 59.9423C9.02 60.7123 11.93 58.0823 12.11 56.3123C12.17 55.7523 12.08 55.0423 11.75 54.4423C11.75 54.4423 11.06 53.0323 9.23 52.3823C6.59 51.4623 4.17 52.0423 2.85 52.7923ZM11.61 45.2655C11.61 46.4455 10.9 46.9755 10.09 47.3355L10.09 48.2055L6.29 48.2055L6.29 46.6555C6.29 44.3455 8.35 43.8255 9.43 43.8255C10.47 43.8255 11.61 44.2455 11.61 45.2655ZM1.26 47.2955C1.26 45.2055 3.27 44.5355 4.13 44.5355C5.61 44.5355 5.9 46.2155 5.9 46.7855L5.9 48.2055L1.26 48.2055L1.26 47.2955ZM5.76 45.1255C5.76 45.1255 4.78 43.8655 3.23 43.8455C2.03 43.8255 0.899999 44.8955 0.899999 46.1255L0.899999 48.2155L0.899999 49.1455L12 49.1455L12 48.2055L10.64 48.2055C11.11 47.8855 12 47.1655 12 46.0055C12 44.0255 10.31 43.0855 8.51 43.0855C6.45 43.0755 5.76 45.1255 5.76 45.1255ZM0.849999 37.7573L6.84 37.7573C8.24 37.7573 8.53 37.6073 8.82 37.5073C9.89 37.1273 11.01 37.6373 11.28 38.4873C11.7 39.7973 10.84 40.6473 9.64 41.5673L10.55 42.3473C11.53 41.4373 12 40.3073 12 39.3473C12 38.3173 11.29 36.6673 8.77 36.6673L1.49 36.6673L0.849999 37.7573ZM11.56 32.8009L6.79 32.8009L6.79 28.8909L6.36 28.8909L6.36 32.8009L1.36 32.8009L1.36 27.5009L0.899998 27.5009L0.899999 33.8809L11.33 33.8809L12 32.8009L12 27.4609L11.56 27.4609L11.56 32.8009ZM11.11 19.8813C12.55 23.8513 3.03 27.0213 1.65 23.6113C1.32 22.8113 1.31 21.1713 3.32 19.8513L3.32 18.6013C0.439998 19.9413 0.899998 22.5713 0.899998 22.5713C0.899998 22.5713 1.22 25.7913 5.65 25.7913C10.06 25.7913 12 23.0813 12 21.1113C12 20.0613 11.32 18.5813 8.68 18.4313L8.68 19.1513C10.11 19.0713 10.86 19.1913 11.11 19.8813ZM0.899998 9.5275L0.899998 17.5275L1.44 17.5275L1.44 14.0275L11.34 14.0275L12 13.0275L1.44 13.0275L1.44 9.5375C1.27 9.5275 1.07 9.5275 0.899998 9.5275ZM0.899997 4.39539C0.899997 7.07539 3.04 8.21539 5.07 8.13539C7.38 8.03539 5.15 3.20539 6.07 2.24539C7.32 0.95539 11.71 3.34539 11.71 4.41539C11.71 6.91539 9.25 6.92539 9.25 6.92539L9.25 8.07539C9.59 8.07539 12 8.00539 12 4.75539C12 2.87539 9.67 0.71539 7.36 0.71539C4.25 0.71539 6.22 6.68539 4.68 6.98539C3.19 7.28539 1.36 6.64539 1.36 5.39539C1.36 3.10539 3.14 2.74539 3.14 2.74539L3.14 1.39539C2.72 1.47539 0.899997 2.39539 0.899997 4.39539Z" />
  <path d="M11.05 54.0323L11.1288 53.9707L11.1285 53.9704L11.05 54.0323ZM1.43 57.4423L1.52469 57.4101L1.52462 57.4099L1.43 57.4423ZM3.66 53.7523L3.70608 53.841L3.70697 53.8405L3.66 53.7523ZM2.85 52.7923L2.8006 52.7053L2.80052 52.7054L2.85 52.7923ZM0.759999 55.9023L0.858895 55.9171L0.859999 55.9097L0.859999 55.9023L0.759999 55.9023ZM4.66 59.9423L4.67739 59.8438L4.67728 59.8438L4.66 59.9423ZM12.11 56.3123L12.0106 56.3016L12.0105 56.3021L12.11 56.3123ZM11.75 54.4423L11.6601 54.4863L11.6624 54.4905L11.75 54.4423ZM9.23 52.3823L9.26347 52.288L9.26291 52.2878L9.23 52.3823ZM10.9712 54.0939C11.3208 54.541 11.455 54.9848 11.4285 55.4117C11.4019 55.8404 11.2123 56.2631 10.8944 56.6644C10.257 57.469 9.1182 58.1683 7.83404 58.6243C6.55108 59.0798 5.13833 59.287 3.96242 59.1209C2.78663 58.9548 1.86782 58.4205 1.52469 57.4101L1.33531 57.4744C1.71217 58.5841 2.71837 59.1472 3.93445 59.3189C5.15042 59.4907 6.59642 59.276 7.90096 58.8128C9.2043 58.35 10.3817 57.6337 11.0512 56.7886C11.3867 56.365 11.5983 55.9044 11.6281 55.4241C11.6581 54.9419 11.5042 54.451 11.1288 53.9707L10.9712 54.0939ZM1.52462 57.4099C1.21169 56.4948 1.61249 55.6772 2.17727 55.0412C2.74154 54.4057 3.45278 53.9725 3.70608 53.841L3.61392 53.6635C3.34721 53.802 2.61346 54.2488 2.02773 54.9084C1.44251 55.5674 0.988304 56.4597 1.33538 57.4746L1.52462 57.4099ZM3.70697 53.8405C4.93804 53.1856 6.49695 52.9153 7.88286 52.9797C8.57524 53.0118 9.22084 53.1273 9.75783 53.3178C10.2961 53.5087 10.7175 53.772 10.9715 54.0942L11.1285 53.9704C10.8425 53.6076 10.3826 53.3271 9.82467 53.1293C9.26541 52.9309 8.59976 52.8127 7.89214 52.7799C6.47804 52.7142 4.88196 52.9889 3.61303 53.664L3.70697 53.8405ZM2.80052 52.7054C1.73372 53.3128 1.19748 54.1088 0.928903 54.7551C0.794845 55.0778 0.727667 55.3626 0.69398 55.5674C0.677131 55.6699 0.668639 55.7525 0.664357 55.81C0.662216 55.8388 0.661127 55.8613 0.660573 55.8769C0.660295 55.8847 0.660152 55.8907 0.660078 55.895C0.660041 55.8971 0.660021 55.8988 0.660011 55.9C0.660006 55.9006 0.660002 55.9011 0.660001 55.9015C0.66 55.9017 0.66 55.9018 0.659999 55.902C0.659999 55.902 0.659999 55.9021 0.659999 55.9021C0.659999 55.9022 0.659999 55.9023 0.759999 55.9023C0.859999 55.9023 0.859999 55.9023 0.859999 55.9024C0.859999 55.9024 0.859999 55.9024 0.859999 55.9024C0.859999 55.9024 0.859999 55.9024 0.859999 55.9023C0.859999 55.9023 0.860001 55.902 0.860003 55.9017C0.860009 55.9011 0.860021 55.9 0.860048 55.8985C0.860101 55.8954 0.860213 55.8905 0.860446 55.884C0.860913 55.8708 0.861864 55.8509 0.863805 55.8249C0.867687 55.7727 0.875523 55.696 0.89133 55.5999C0.922956 55.4076 0.986403 55.138 1.11359 54.8319C1.36752 54.2208 1.87627 53.4618 2.89948 52.8792L2.80052 52.7054ZM0.759999 55.9023C0.661103 55.8874 0.661092 55.8875 0.661078 55.8876C0.661071 55.8877 0.661056 55.8878 0.661042 55.8879C0.661015 55.888 0.66098 55.8883 0.660939 55.8886C0.660856 55.8891 0.660746 55.8899 0.660612 55.8909C0.660343 55.8928 0.659977 55.8955 0.659533 55.899C0.658645 55.906 0.657448 55.9159 0.656107 55.9288C0.653426 55.9545 0.650167 55.9917 0.647659 56.039C0.642645 56.1335 0.640624 56.2684 0.652282 56.4323C0.675583 56.76 0.753661 57.2053 0.973124 57.6758C1.41479 58.6226 2.41951 59.6508 4.64272 60.0408L4.67728 59.8438C2.51049 59.4637 1.56521 58.4719 1.15437 57.5912C0.947588 57.148 0.87379 56.7277 0.851778 56.4181C0.840781 56.2635 0.842743 56.1369 0.847378 56.0496C0.849695 56.0059 0.852676 55.9721 0.855029 55.9495C0.856205 55.9383 0.857223 55.9298 0.857922 55.9243C0.858271 55.9216 0.85854 55.9196 0.858709 55.9184C0.858794 55.9178 0.858853 55.9174 0.858885 55.9172C0.858901 55.917 0.85891 55.917 0.858912 55.917C0.858912 55.917 0.858908 55.917 0.858909 55.917C0.858903 55.917 0.858895 55.9171 0.759999 55.9023ZM4.64261 60.0407C6.84648 60.43 8.68853 59.9604 10.0042 59.1654C11.3145 58.3736 12.1151 57.25 12.2095 56.3224L12.0105 56.3021C11.9249 57.1445 11.1805 58.2209 9.90078 58.9942C8.62647 59.7642 6.83352 60.2246 4.67739 59.8438L4.64261 60.0407ZM12.2094 56.3229C12.2712 55.7462 12.1791 55.015 11.8376 54.3941L11.6624 54.4905C11.9809 55.0695 12.0688 55.7583 12.0106 56.3016L12.2094 56.3229ZM11.75 54.4423C11.8398 54.3983 11.8398 54.3983 11.8398 54.3982C11.8398 54.3982 11.8397 54.3981 11.8397 54.3981C11.8397 54.398 11.8396 54.3979 11.8395 54.3977C11.8394 54.3975 11.8392 54.3971 11.839 54.3967C11.8386 54.3958 11.838 54.3946 11.8372 54.393C11.8356 54.3899 11.8333 54.3855 11.8304 54.3798C11.8244 54.3685 11.8156 54.3521 11.8039 54.3313C11.7804 54.2897 11.7452 54.2302 11.6972 54.157C11.6014 54.0107 11.4546 53.8096 11.2497 53.5881C10.8398 53.145 10.1967 52.6195 9.26347 52.288L9.19653 52.4765C10.0933 52.795 10.7102 53.2995 11.1028 53.7239C11.2992 53.9362 11.4393 54.1282 11.53 54.2666C11.5753 54.3358 11.6082 54.3915 11.6297 54.4295C11.6404 54.4485 11.6482 54.4631 11.6532 54.4727C11.6558 54.4775 11.6576 54.4811 11.6588 54.4834C11.6593 54.4845 11.6597 54.4853 11.66 54.4858C11.6601 54.486 11.6602 54.4862 11.6602 54.4863C11.6602 54.4863 11.6602 54.4863 11.6602 54.4863C11.6602 54.4863 11.6602 54.4863 11.6602 54.4863C11.6602 54.4863 11.6602 54.4862 11.75 54.4423ZM9.26291 52.2878C6.59279 51.3573 4.14289 51.9427 2.8006 52.7053L2.8994 52.8792C4.19711 52.1419 6.58721 51.5672 9.19709 52.4767L9.26291 52.2878ZM10.09 47.3355L10.0494 47.2441L9.99 47.2705L9.99 47.3355L10.09 47.3355ZM10.09 48.2055L10.09 48.3055L10.19 48.3055L10.19 48.2055L10.09 48.2055ZM6.29 48.2055L6.19 48.2055L6.19 48.3055L6.29 48.3055L6.29 48.2055ZM5.9 48.2055L5.9 48.3055L6 48.3055L6 48.2055L5.9 48.2055ZM1.26 48.2055L1.16 48.2055L1.16 48.3055L1.26 48.3055L1.26 48.2055ZM5.76 45.1255L5.68106 45.1869L5.79538 45.3338L5.85477 45.1574L5.76 45.1255ZM3.23 43.8455L3.22833 43.9455L3.22871 43.9455L3.23 43.8455ZM0.899999 49.1455L0.799999 49.1455L0.799999 49.2455L0.899999 49.2455L0.899999 49.1455ZM12 49.1455L12 49.2455L12.1 49.2455L12.1 49.1455L12 49.1455ZM12 48.2055L12.1 48.2055L12.1 48.1055L12 48.1055L12 48.2055ZM10.64 48.2055L10.5837 48.1228L10.3154 48.3055L10.64 48.3055L10.64 48.2055ZM8.51 43.0855L8.50951 43.1855L8.51 43.1855L8.51 43.0855ZM11.51 45.2655C11.51 45.8331 11.3401 46.2371 11.0778 46.5429C10.8133 46.8513 10.449 47.0665 10.0494 47.2441L10.1306 47.4269C10.541 47.2445 10.9367 47.0146 11.2297 46.6731C11.5249 46.3288 11.71 45.8778 11.71 45.2655L11.51 45.2655ZM9.99 47.3355L9.99 48.2055L10.19 48.2055L10.19 47.3355L9.99 47.3355ZM10.09 48.1055L6.29 48.1055L6.29 48.3055L10.09 48.3055L10.09 48.1055ZM6.39 48.2055L6.39 46.6555L6.19 46.6555L6.19 48.2055L6.39 48.2055ZM6.39 46.6555C6.39 45.5364 6.88607 44.8597 7.50916 44.4583C8.13815 44.0531 8.90247 43.9255 9.43 43.9255L9.43 43.7255C8.87752 43.7255 8.07184 43.8579 7.40084 44.2902C6.72393 44.7262 6.19 45.4645 6.19 46.6555L6.39 46.6555ZM9.43 43.9255C9.93885 43.9255 10.4655 44.0286 10.8611 44.2502C11.2534 44.47 11.51 44.8008 11.51 45.2655L11.71 45.2655C11.71 44.7101 11.3966 44.3209 10.9589 44.0757C10.5245 43.8324 9.96115 43.7255 9.43 43.7255L9.43 43.9255ZM1.36 47.2955C1.36 46.2882 1.84208 45.6268 2.43 45.2135C3.02237 44.7972 3.71959 44.6355 4.13 44.6355L4.13 44.4355C3.68041 44.4355 2.94263 44.6088 2.315 45.0499C1.68292 45.4942 1.16 46.2127 1.16 47.2955L1.36 47.2955ZM4.13 44.6355C4.82233 44.6355 5.23572 45.0244 5.48143 45.4931C5.72947 45.9664 5.8 46.5118 5.8 46.7855L6 46.7855C6 46.4891 5.92553 45.9096 5.65857 45.4003C5.38928 44.8866 4.91766 44.4355 4.13 44.4355L4.13 44.6355ZM5.8 46.7855L5.8 48.2055L6 48.2055L6 46.7855L5.8 46.7855ZM5.9 48.1055L1.26 48.1055L1.26 48.3055L5.9 48.3055L5.9 48.1055ZM1.36 48.2055L1.36 47.2955L1.16 47.2955L1.16 48.2055L1.36 48.2055ZM5.76 45.1255C5.83893 45.0641 5.83891 45.064 5.83888 45.064C5.83886 45.064 5.83883 45.0639 5.8388 45.0639C5.83874 45.0638 5.83866 45.0637 5.83857 45.0636C5.83839 45.0634 5.83815 45.0631 5.83785 45.0627C5.83725 45.0619 5.83641 45.0609 5.83533 45.0595C5.83317 45.0568 5.83006 45.0529 5.826 45.048C5.8179 45.0381 5.80604 45.0238 5.79051 45.0059C5.75945 44.97 5.71371 44.9191 5.65407 44.8583C5.53487 44.7367 5.3597 44.5746 5.13487 44.412C4.68586 44.087 4.03363 43.7558 3.23129 43.7455L3.22871 43.9455C3.97637 43.9551 4.58914 44.2639 5.01762 44.574C5.23155 44.7288 5.39825 44.883 5.51124 44.9983C5.5677 45.0559 5.61062 45.1036 5.63922 45.1367C5.65351 45.1532 5.66422 45.1661 5.67123 45.1746C5.67473 45.1789 5.67731 45.1821 5.67896 45.1842C5.67978 45.1852 5.68037 45.186 5.68072 45.1864C5.68089 45.1866 5.68101 45.1868 5.68107 45.1869C5.6811 45.1869 5.68111 45.1869 5.68111 45.1869C5.68111 45.1869 5.6811 45.1869 5.6811 45.1869C5.68108 45.1869 5.68106 45.1869 5.76 45.1255ZM3.23167 43.7455C1.97728 43.7246 0.799999 44.8381 0.799999 46.1255L0.999999 46.1255C0.999999 44.9528 2.08271 43.9264 3.22833 43.9455L3.23167 43.7455ZM0.799999 46.1255L0.799999 48.2155L0.999999 48.2155L0.999999 46.1255L0.799999 46.1255ZM0.799999 48.2155L0.799999 49.1455L0.999999 49.1455L0.999999 48.2155L0.799999 48.2155ZM0.899999 49.2455L12 49.2455L12 49.0455L0.899999 49.0455L0.899999 49.2455ZM12.1 49.1455L12.1 48.2055L11.9 48.2055L11.9 49.1455L12.1 49.1455ZM12 48.1055L10.64 48.1055L10.64 48.3055L12 48.3055L12 48.1055ZM10.6963 48.2881C11.1691 47.9662 12.1 47.22 12.1 46.0055L11.9 46.0055C11.9 47.111 11.0509 47.8048 10.5837 48.1228L10.6963 48.2881ZM12.1 46.0055C12.1 44.9831 11.6619 44.2237 10.9898 43.7228C10.3209 43.2244 9.42579 42.9855 8.51 42.9855L8.51 43.1855C9.3942 43.1855 10.2441 43.4166 10.8702 43.8832C11.4931 44.3473 11.9 45.0479 11.9 46.0055L12.1 46.0055ZM8.51048 42.9855C7.44246 42.9803 6.72897 43.5106 6.28597 44.0374C6.0648 44.3003 5.91014 44.5632 5.81072 44.7603C5.76095 44.8589 5.72487 44.9414 5.7011 44.9996C5.68921 45.0287 5.68039 45.0517 5.67447 45.0677C5.67151 45.0757 5.66927 45.082 5.66774 45.0863C5.66697 45.0885 5.66638 45.0902 5.66596 45.0914C5.66575 45.092 5.66559 45.0925 5.66546 45.0929C5.6654 45.093 5.66535 45.0932 5.66531 45.0933C5.66529 45.0934 5.66527 45.0934 5.66526 45.0935C5.66524 45.0935 5.66522 45.0936 5.76 45.1255C5.85477 45.1574 5.85476 45.1574 5.85475 45.1574C5.85475 45.1574 5.85475 45.1574 5.85475 45.1574C5.85475 45.1574 5.85476 45.1574 5.85479 45.1573C5.85483 45.1572 5.85492 45.1569 5.85505 45.1566C5.85531 45.1558 5.85574 45.1546 5.85634 45.1529C5.85755 45.1494 5.85944 45.1442 5.86203 45.1372C5.86723 45.1231 5.87524 45.1022 5.88624 45.0752C5.90826 45.0213 5.94217 44.9437 5.98928 44.8504C6.08361 44.6634 6.2302 44.4144 6.43903 44.1661C6.85602 43.6703 7.51753 43.1807 8.50951 43.1855L8.51048 42.9855ZM0.849999 37.7573L0.763765 37.7066L0.67532 37.8573L0.849999 37.8573L0.849999 37.7573ZM8.82 37.5073L8.8526 37.6018L8.85347 37.6015L8.82 37.5073ZM11.28 38.4873L11.1847 38.5175L11.1848 38.5178L11.28 38.4873ZM9.64 41.5673L9.57916 41.4879L9.48129 41.5629L9.57492 41.6432L9.64 41.5673ZM10.55 42.3473L10.4849 42.4232L10.5527 42.4813L10.618 42.4205L10.55 42.3473ZM1.49 36.6673L1.49 36.5673L1.43275 36.5673L1.40376 36.6166L1.49 36.6673ZM0.849999 37.8573L6.84 37.8573L6.84 37.6573L0.849999 37.6573L0.849999 37.8573ZM6.84 37.8573C7.543 37.8573 7.97189 37.8197 8.2636 37.7682C8.55704 37.7165 8.71098 37.6506 8.8526 37.6018L8.7874 37.4127C8.63902 37.4639 8.50296 37.523 8.2289 37.5713C7.9531 37.6199 7.53699 37.6573 6.84 37.6573L6.84 37.8573ZM8.85347 37.6015C9.88259 37.236 10.9356 37.7332 11.1847 38.5175L11.3753 38.457C11.0844 37.5413 9.8974 37.0185 8.78653 37.413L8.85347 37.6015ZM11.1848 38.5178C11.385 39.1423 11.2809 39.6517 10.9831 40.1198C10.6811 40.5947 10.1792 41.0279 9.57916 41.4879L9.70084 41.6466C10.3008 41.1866 10.8289 40.7348 11.1519 40.2272C11.4791 39.7129 11.595 39.1422 11.3752 38.4567L11.1848 38.5178ZM9.57492 41.6432L10.4849 42.4232L10.6151 42.2713L9.70508 41.4913L9.57492 41.6432ZM10.618 42.4205C11.6158 41.4941 12.1 40.3385 12.1 39.3473L11.9 39.3473C11.9 40.2761 11.4442 41.3805 10.482 42.274L10.618 42.4205ZM12.1 39.3473C12.1 38.8117 11.9159 38.1163 11.404 37.5537C10.8896 36.9884 10.0535 36.5673 8.77 36.5673L8.77 36.7673C10.0065 36.7673 10.7854 37.1711 11.256 37.6883C11.7291 38.2082 11.9 38.8528 11.9 39.3473L12.1 39.3473ZM8.77 36.5673L1.49 36.5673L1.49 36.7673L8.77 36.7673L8.77 36.5673ZM1.40376 36.6166L0.763765 37.7066L0.936233 37.8079L1.57623 36.7179L1.40376 36.6166ZM11.56 32.8009L11.56 32.9009L11.66 32.9009L11.66 32.8009L11.56 32.8009ZM6.79 32.8009L6.69 32.8009L6.69 32.9009L6.79 32.9009L6.79 32.8009ZM6.79 28.8909L6.89 28.8909L6.89 28.7909L6.79 28.7909L6.79 28.8909ZM6.36 28.8909L6.36 28.7909L6.26 28.7909L6.26 28.8909L6.36 28.8909ZM6.36 32.8009L6.36 32.9009L6.46 32.9009L6.46 32.8009L6.36 32.8009ZM1.36 32.8009L1.26 32.8009L1.26 32.9009L1.36 32.9009L1.36 32.8009ZM1.36 27.5009L1.46 27.5009L1.46 27.4009L1.36 27.4009L1.36 27.5009ZM0.899998 27.5009L0.899998 27.4009L0.799998 27.4009L0.799998 27.5009L0.899998 27.5009ZM0.899999 33.8809L0.799999 33.8809L0.799999 33.9809L0.899999 33.9809L0.899999 33.8809ZM11.33 33.8809L11.33 33.9809L11.3856 33.9809L11.415 33.9337L11.33 33.8809ZM12 32.8009L12.085 32.8537L12.1 32.8294L12.1 32.8009L12 32.8009ZM12 27.4609L12.1 27.4609L12.1 27.3609L12 27.3609L12 27.4609ZM11.56 27.4609L11.56 27.3609L11.46 27.3609L11.46 27.4609L11.56 27.4609ZM11.56 32.7009L6.79 32.7009L6.79 32.9009L11.56 32.9009L11.56 32.7009ZM6.89 32.8009L6.89 28.8909L6.69 28.8909L6.69 32.8009L6.89 32.8009ZM6.79 28.7909L6.36 28.7909L6.36 28.9909L6.79 28.9909L6.79 28.7909ZM6.26 28.8909L6.26 32.8009L6.46 32.8009L6.46 28.8909L6.26 28.8909ZM6.36 32.7009L1.36 32.7009L1.36 32.9009L6.36 32.9009L6.36 32.7009ZM1.46 32.8009L1.46 27.5009L1.26 27.5009L1.26 32.8009L1.46 32.8009ZM1.36 27.4009L0.899998 27.4009L0.899998 27.6009L1.36 27.6009L1.36 27.4009ZM0.799998 27.5009L0.799999 33.8809L0.999999 33.8809L0.999998 27.5009L0.799998 27.5009ZM0.899999 33.9809L11.33 33.9809L11.33 33.7809L0.899999 33.7809L0.899999 33.9809ZM11.415 33.9337L12.085 32.8537L11.915 32.7482L11.245 33.8282L11.415 33.9337ZM12.1 32.8009L12.1 27.4609L11.9 27.4609L11.9 32.8009L12.1 32.8009ZM12 27.3609L11.56 27.3609L11.56 27.5609L12 27.5609L12 27.3609ZM11.46 27.4609L11.46 32.8009L11.66 32.8009L11.66 27.4609L11.46 27.4609ZM11.11 19.8813L11.016 19.9154L11.016 19.9154L11.11 19.8813ZM1.65 23.6113L1.7427 23.5738L1.74244 23.5732L1.65 23.6113ZM3.32 19.8513L3.37489 19.9349L3.42 19.9053L3.42 19.8513L3.32 19.8513ZM3.32 18.6013L3.42 18.6013L3.42 18.4445L3.27781 18.5107L3.32 18.6013ZM0.899998 22.5713L0.999782 22.5614L0.998503 22.5541L0.899998 22.5713ZM8.68 18.4313L8.68567 18.3315L8.58 18.3255L8.58 18.4313L8.68 18.4313ZM8.68 19.1513L8.58 19.1513L8.58 19.2571L8.68558 19.2512L8.68 19.1513ZM11.016 19.9154C11.3597 20.863 11.0543 21.7679 10.3586 22.5522C9.66136 23.3382 8.57932 23.9923 7.40333 24.4198C6.22759 24.8473 4.96903 25.0442 3.92405 24.926C2.87749 24.8077 2.06802 24.3777 1.74269 23.5738L1.5573 23.6488C1.92197 24.5499 2.82001 25.0025 3.90158 25.1248C4.98472 25.2472 6.2749 25.0429 7.47166 24.6078C8.66818 24.1728 9.78239 23.5032 10.5082 22.6849C11.2357 21.8647 11.5803 20.8847 11.204 19.8472L11.016 19.9154ZM1.74244 23.5732C1.43066 22.8174 1.40512 21.2285 3.37489 19.9349L3.2651 19.7677C1.21488 21.1142 1.20933 22.8053 1.55755 23.6495L1.74244 23.5732ZM3.42 19.8513L3.42 18.6013L3.22 18.6013L3.22 19.8513L3.42 19.8513ZM3.27781 18.5107C1.80948 19.1938 1.18652 20.2105 0.934136 21.0604C0.808401 21.4838 0.775051 21.864 0.773126 22.1388C0.772162 22.2762 0.779063 22.3875 0.78629 22.465C0.789904 22.5037 0.793603 22.534 0.796449 22.555C0.797872 22.5654 0.799081 22.5735 0.799961 22.5792C0.800401 22.582 0.800758 22.5842 0.801018 22.5858C0.801149 22.5865 0.801255 22.5872 0.801334 22.5876C0.801374 22.5879 0.801408 22.5881 0.801434 22.5882C0.801447 22.5883 0.801462 22.5884 0.801469 22.5884C0.801482 22.5885 0.801494 22.5886 0.899998 22.5713C0.998503 22.5541 0.998511 22.5541 0.998517 22.5542C0.998517 22.5542 0.998521 22.5542 0.998521 22.5542C0.998519 22.5542 0.998512 22.5541 0.998497 22.5541C0.998468 22.5539 0.998413 22.5536 0.998333 22.5531C0.998173 22.5521 0.997915 22.5505 0.997572 22.5483C0.996887 22.5439 0.995865 22.5371 0.994622 22.528C0.992135 22.5097 0.988764 22.4822 0.985425 22.4464C0.978746 22.3748 0.972209 22.2702 0.973121 22.1402C0.974945 21.8799 1.0066 21.5189 1.12586 21.1173C1.36347 20.3172 1.95051 19.3488 3.36218 18.692L3.27781 18.5107ZM0.899998 22.5713C0.800488 22.5812 0.800496 22.5813 0.800505 22.5814C0.80051 22.5814 0.80052 22.5815 0.80053 22.5816C0.800549 22.5818 0.800573 22.5821 0.800603 22.5823C0.800663 22.5829 0.800745 22.5837 0.80085 22.5846C0.80106 22.5865 0.801367 22.5892 0.801782 22.5926C0.802613 22.5995 0.803884 22.6093 0.805712 22.6219C0.809366 22.647 0.815248 22.6833 0.824298 22.7291C0.842392 22.8206 0.873182 22.9504 0.924217 23.1057C1.02624 23.4161 1.20958 23.8296 1.53518 24.2432C2.18958 25.0744 3.4072 25.8913 5.65 25.8913L5.65 25.6913C3.4628 25.6913 2.30541 24.8982 1.69232 24.1195C1.38417 23.7281 1.21063 23.3366 1.11422 23.0432C1.06603 22.8966 1.03721 22.7748 1.0205 22.6903C1.01215 22.648 1.00683 22.6151 1.00364 22.5931C1.00204 22.5821 1.00097 22.5738 1.00032 22.5685C0.999995 22.5658 0.999775 22.5639 0.999644 22.5627C0.999579 22.5621 0.999536 22.5617 0.999514 22.5615C0.999503 22.5614 0.999497 22.5613 0.999496 22.5613C0.999496 22.5613 0.999499 22.5613 0.999498 22.5613C0.999503 22.5614 0.999508 22.5614 0.899998 22.5713ZM5.65 25.8913C10.1041 25.8913 12.1 23.1471 12.1 21.1113L11.9 21.1113C11.9 23.0156 10.0159 25.6913 5.65 25.6913L5.65 25.8913ZM12.1 21.1113C12.1 20.5656 11.9232 19.9065 11.4021 19.3645C10.8803 18.8219 10.0239 18.4075 8.68567 18.3315L8.67433 18.5312C9.97608 18.6051 10.7797 19.0058 11.2579 19.5031C11.7367 20.0011 11.9 20.6071 11.9 21.1113L12.1 21.1113ZM8.58 18.4313L8.58 19.1513L8.78 19.1513L8.78 18.4313L8.58 18.4313ZM8.68558 19.2512C9.40027 19.2112 9.93104 19.2224 10.3117 19.3242C10.6844 19.4238 10.9043 19.6072 11.016 19.9154L11.204 19.8473C11.0657 19.4654 10.7856 19.2438 10.3633 19.131C9.94895 19.0202 9.38973 19.0115 8.67441 19.0515L8.68558 19.2512ZM0.899998 9.5275L0.899998 9.4275L0.799998 9.4275L0.799998 9.5275L0.899998 9.5275ZM0.899998 17.5275L0.799998 17.5275L0.799998 17.6275L0.899998 17.6275L0.899998 17.5275ZM1.44 17.5275L1.44 17.6275L1.54 17.6275L1.54 17.5275L1.44 17.5275ZM1.44 14.0275L1.44 13.9275L1.34 13.9275L1.34 14.0275L1.44 14.0275ZM11.34 14.0275L11.34 14.1275L11.3938 14.1275L11.4235 14.0826L11.34 14.0275ZM12 13.0275L12.0835 13.0826L12.1858 12.9275L12 12.9275L12 13.0275ZM1.44 13.0275L1.34 13.0275L1.34 13.1275L1.44 13.1275L1.44 13.0275ZM1.44 9.5375L1.54 9.5375L1.54 9.44321L1.44587 9.43767L1.44 9.5375ZM0.799998 9.5275L0.799998 17.5275L0.999998 17.5275L0.999998 9.5275L0.799998 9.5275ZM0.899998 17.6275L1.44 17.6275L1.44 17.4275L0.899998 17.4275L0.899998 17.6275ZM1.54 17.5275L1.54 14.0275L1.34 14.0275L1.34 17.5275L1.54 17.5275ZM1.44 14.1275L11.34 14.1275L11.34 13.9275L1.44 13.9275L1.44 14.1275ZM11.4235 14.0826L12.0835 13.0826L11.9165 12.9724L11.2565 13.9724L11.4235 14.0826ZM12 12.9275L1.44 12.9275L1.44 13.1275L12 13.1275L12 12.9275ZM1.54 13.0275L1.54 9.5375L1.34 9.5375L1.34 13.0275L1.54 13.0275ZM1.44587 9.43767C1.27237 9.42747 1.06927 9.4275 0.899998 9.4275L0.899998 9.6275C1.07073 9.6275 1.26762 9.62753 1.43413 9.63733L1.44587 9.43767ZM5.07 8.13539L5.07394 8.23531L5.07432 8.2353L5.07 8.13539ZM6.07 2.24539L5.99818 2.1758L5.9978 2.1762L6.07 2.24539ZM9.25 6.92539L9.24959 6.82539L9.15 6.8258L9.15 6.92539L9.25 6.92539ZM9.25 8.07539L9.15 8.07539L9.15 8.17539L9.25 8.17539L9.25 8.07539ZM4.68 6.98539L4.66088 6.88723L4.66026 6.88736L4.68 6.98539ZM3.14 2.74539L3.15982 2.84341L3.24 2.82719L3.24 2.74539L3.14 2.74539ZM3.14 1.39539L3.24 1.39539L3.24 1.27454L3.12129 1.29716L3.14 1.39539ZM0.799997 4.39539C0.799998 5.76523 1.34846 6.74988 2.16257 7.37949C2.97352 8.00666 4.04047 8.27604 5.07394 8.23531L5.06606 8.03547C4.06952 8.07474 3.05147 7.81412 2.28492 7.22129C1.52153 6.6309 0.999997 5.70556 0.999997 4.39539L0.799997 4.39539ZM5.07432 8.2353C5.38174 8.22199 5.62277 8.12915 5.80479 7.9678C5.98565 7.80747 6.09954 7.58723 6.16794 7.33397C6.30364 6.83158 6.26741 6.17095 6.1906 5.50149C6.11261 4.82179 5.9937 4.13741 5.95019 3.54926C5.9286 3.25733 5.92653 2.99772 5.95666 2.78395C5.98698 2.56876 6.04822 2.41264 6.1422 2.31458L5.9978 2.1762C5.86177 2.31814 5.79145 2.52296 5.75861 2.75605C5.72557 2.99056 5.72874 3.26657 5.75074 3.56402C5.79442 4.15462 5.91614 4.86399 5.9919 5.52429C6.06884 6.19484 6.09948 6.82045 5.97486 7.28181C5.91311 7.51043 5.81505 7.69143 5.67212 7.81814C5.53035 7.94381 5.33575 8.02379 5.06567 8.03548L5.07432 8.2353ZM6.14181 2.31498C6.42217 2.02565 6.89167 1.93094 7.46853 1.98926C8.04151 2.04718 8.69654 2.25418 9.31736 2.53642C9.93776 2.81848 10.5178 3.17287 10.941 3.52076C11.1528 3.69484 11.3226 3.8651 11.4386 4.02158C11.5563 4.18038 11.61 4.31346 11.61 4.41539L11.81 4.41539C11.81 4.24982 11.7265 4.07415 11.5993 3.90248C11.4703 3.72849 11.2874 3.54657 11.068 3.36626C10.6291 3.00542 10.0335 2.6423 9.40013 2.35436C8.7672 2.0666 8.09036 1.8511 7.48865 1.79027C6.89082 1.72984 6.34282 1.82013 5.99818 2.1758L6.14181 2.31498ZM11.61 4.41539C11.61 5.02322 11.4607 5.47309 11.2419 5.80752C11.0228 6.14249 10.73 6.3675 10.4344 6.51889C10.1384 6.67049 9.84126 6.74739 9.61728 6.78624C9.50553 6.80562 9.41262 6.81542 9.34806 6.82037C9.31579 6.82285 9.29065 6.8241 9.27383 6.82474C9.26542 6.82506 9.2591 6.82522 9.25501 6.82531C9.25296 6.82535 9.25148 6.82537 9.25057 6.82538C9.25011 6.82539 9.2498 6.82539 9.24964 6.82539C9.24956 6.82539 9.24951 6.82539 9.2495 6.82539C9.2495 6.82539 9.24952 6.82539 9.24952 6.82539C9.24955 6.82539 9.24959 6.82539 9.25 6.92539C9.2504 7.02539 9.25046 7.02539 9.25053 7.02539C9.25057 7.02539 9.25065 7.02539 9.25072 7.02539C9.25086 7.02539 9.25104 7.02539 9.25125 7.02538C9.25168 7.02538 9.25227 7.02538 9.25299 7.02537C9.25445 7.02535 9.25649 7.02532 9.2591 7.02526C9.26432 7.02516 9.27181 7.02496 9.28142 7.0246C9.30063 7.02387 9.32834 7.02247 9.36334 7.01979C9.43331 7.01442 9.53259 7.00391 9.65146 6.9833C9.88874 6.94214 10.2066 6.86029 10.5256 6.6969C10.845 6.53329 11.1672 6.28704 11.4093 5.91701C11.6518 5.54644 11.81 5.05757 11.81 4.41539L11.61 4.41539ZM9.15 6.92539L9.15 8.07539L9.35 8.07539L9.35 6.92539L9.15 6.92539ZM9.25 8.17539C9.42617 8.17539 10.1377 8.1577 10.8074 7.71772C11.4845 7.27289 12.1 6.40906 12.1 4.75539L11.9 4.75539C11.9 6.35172 11.3105 7.14789 10.6976 7.55056C10.0773 7.95808 9.41383 7.97539 9.25 7.97539L9.25 8.17539ZM12.1 4.75539C12.1 3.77653 11.4961 2.74151 10.6127 1.95567C9.72763 1.16837 8.54489 0.615391 7.36 0.615391L7.36 0.815391C8.4851 0.815391 9.62237 1.34241 10.4798 2.10511C11.3389 2.86927 11.9 3.85425 11.9 4.75539L12.1 4.75539ZM7.36 0.615391C6.95454 0.615391 6.62527 0.712944 6.35979 0.889187C6.09485 1.06507 5.90015 1.31486 5.75599 1.60887C5.46958 2.19301 5.37581 2.96681 5.33142 3.7321C5.28643 4.50758 5.29186 5.26838 5.21197 5.86589C5.17223 6.16317 5.11255 6.4073 5.02098 6.58379C4.93098 6.75726 4.81506 6.8572 4.66088 6.88723L4.69912 7.08355C4.92993 7.03858 5.08933 6.88633 5.19851 6.6759C5.30612 6.46848 5.36949 6.19698 5.41021 5.89239C5.49126 5.28616 5.48731 4.4982 5.53108 3.74368C5.57544 2.97897 5.66854 2.24152 5.93557 1.69691C6.06813 1.42655 6.24179 1.20758 6.4704 1.05581C6.69848 0.9044 6.98795 0.815391 7.36 0.815391L7.36 0.615391ZM4.66026 6.88736C3.93425 7.03354 3.12509 6.95012 2.50098 6.67987C1.87479 6.40873 1.46 5.96325 1.46 5.39539L1.26 5.39539C1.26 6.07753 1.7602 6.57705 2.42151 6.86341C3.08491 7.15067 3.93575 7.23725 4.69974 7.08342L4.66026 6.88736ZM1.46 5.39539C1.46 4.28042 1.89157 3.64565 2.31456 3.288C2.52761 3.10787 2.74074 2.99623 2.90033 2.92973C2.98005 2.89651 3.04612 2.87468 3.09173 2.86127C3.11452 2.85456 3.13217 2.84997 3.14382 2.84712C3.14964 2.84569 3.15395 2.8447 3.15666 2.8441C3.15801 2.8438 3.15896 2.84359 3.15949 2.84348C3.15975 2.84342 3.15992 2.84339 3.15997 2.84338C3.16 2.84337 3.16 2.84337 3.15998 2.84337C3.15996 2.84338 3.15992 2.84338 3.15992 2.84339C3.15987 2.8434 3.15982 2.84341 3.14 2.74539C3.12017 2.64737 3.12011 2.64739 3.12003 2.6474C3.12 2.64741 3.11992 2.64743 3.11986 2.64744C3.11972 2.64747 3.11956 2.6475 3.11937 2.64754C3.119 2.64762 3.11851 2.64772 3.11793 2.64784C3.11675 2.64809 3.11514 2.64844 3.11313 2.64889C3.10909 2.64979 3.10342 2.6511 3.0962 2.65287C3.08177 2.65641 3.06117 2.66179 3.03529 2.6694C2.98356 2.68461 2.91057 2.7088 2.82341 2.74511C2.64925 2.81768 2.41739 2.93916 2.18543 3.13528C1.71842 3.53014 1.26 4.22036 1.26 5.39539L1.46 5.39539ZM3.24 2.74539L3.24 1.39539L3.04 1.39539L3.04 2.74539L3.24 2.74539ZM3.12129 1.29716C3.00125 1.32002 2.79801 1.39819 2.56391 1.52941C2.32771 1.66181 2.05371 1.85176 1.79304 2.10345C1.27113 2.60736 0.799997 3.3619 0.799997 4.39539L0.999997 4.39539C0.999997 3.42888 1.43887 2.72342 1.93196 2.24733C2.17878 2.00901 2.43853 1.82897 2.66171 1.70387C2.88698 1.57759 3.06875 1.51076 3.15871 1.49363L3.12129 1.29716Z" />
</svg>
