<svg width="64" height="44" viewBox="0 0 64 44" fill="none" xmlns="http://www.w3.org/2000/svg">
  <rect x="0.75" y="0.75" width="62.5" height="42.5" rx="3.25" stroke="#5B43EA" stroke-opacity="0.5" stroke-width="1.5"/>
  <path d="M10.584 26.96C11.208 26.96 11.768 27.072 12.264 27.296C12.76 27.512 13.18 27.808 13.524 28.184C13.876 28.552 14.144 28.984 14.328 29.48C14.52 29.968 14.616 30.48 14.616 31.016C14.616 31.616 14.504 32.168 14.28 32.672C14.064 33.176 13.764 33.608 13.38 33.968C12.996 34.328 12.548 34.612 12.036 34.82C11.532 35.02 10.992 35.12 10.416 35.12C9.8 35.12 9.244 35.008 8.748 34.784C8.26 34.56 7.844 34.264 7.5 33.896C7.164 33.528 6.904 33.104 6.72 32.624C6.536 32.144 6.444 31.644 6.444 31.124C6.444 30.612 6.536 30.108 6.72 29.612C6.904 29.108 7.172 28.66 7.524 28.268C7.884 27.876 8.32 27.56 8.832 27.32C9.344 27.08 9.928 26.96 10.584 26.96ZM10.572 34.7C11.108 34.676 11.576 34.556 11.976 34.34C12.384 34.116 12.724 33.836 12.996 33.5C13.268 33.156 13.468 32.78 13.596 32.372C13.732 31.964 13.8 31.56 13.8 31.16C13.8 30.72 13.72 30.276 13.56 29.828C13.4 29.38 13.172 28.976 12.876 28.616C12.58 28.248 12.224 27.952 11.808 27.728C11.4 27.496 10.94 27.38 10.428 27.38C9.932 27.38 9.488 27.492 9.096 27.716C8.704 27.932 8.368 28.212 8.088 28.556C7.816 28.9 7.608 29.284 7.464 29.708C7.32 30.132 7.248 30.548 7.248 30.956C7.248 31.396 7.332 31.84 7.5 32.288C7.668 32.728 7.9 33.128 8.196 33.488C8.492 33.848 8.84 34.14 9.24 34.364C9.648 34.588 10.092 34.7 10.572 34.7ZM18.2369 29.876C18.6689 29.876 19.0409 29.948 19.3529 30.092C19.6729 30.236 19.9369 30.428 20.1449 30.668C20.3529 30.908 20.5089 31.184 20.6129 31.496C20.7169 31.8 20.7689 32.112 20.7689 32.432C20.7689 32.76 20.7169 33.084 20.6129 33.404C20.5089 33.716 20.3489 34 20.1329 34.256C19.9249 34.504 19.6649 34.704 19.3529 34.856C19.0409 35.008 18.6809 35.084 18.2729 35.084C17.9689 35.084 17.6929 35.024 17.4449 34.904C17.1969 34.776 17.0009 34.624 16.8569 34.448V35H15.6809V34.88C15.7369 34.88 15.7889 34.856 15.8369 34.808C15.8849 34.76 15.9249 34.704 15.9569 34.64C15.9969 34.576 16.0249 34.508 16.0409 34.436C16.0569 34.356 16.0649 34.284 16.0649 34.22V28.1C16.0649 27.964 16.0449 27.836 16.0049 27.716C15.9649 27.596 15.8489 27.532 15.6569 27.524V27.404L16.8569 27.032V30.464C17.0409 30.28 17.2569 30.136 17.5049 30.032C17.7609 29.928 18.0049 29.876 18.2369 29.876ZM18.3569 34.676C18.6449 34.66 18.8929 34.592 19.1009 34.472C19.3089 34.344 19.4809 34.184 19.6169 33.992C19.7609 33.8 19.8649 33.584 19.9289 33.344C20.0009 33.096 20.0369 32.844 20.0369 32.588C20.0369 32.3 19.9969 32.02 19.9169 31.748C19.8369 31.476 19.7169 31.232 19.5569 31.016C19.4049 30.8 19.2129 30.628 18.9809 30.5C18.7489 30.364 18.4849 30.296 18.1889 30.296C18.0209 30.296 17.8569 30.336 17.6969 30.416C17.5369 30.488 17.3929 30.588 17.2649 30.716C17.1449 30.836 17.0449 30.984 16.9649 31.16C16.8929 31.328 16.8569 31.508 16.8569 31.7V33.188C16.8569 33.42 16.9009 33.628 16.9889 33.812C17.0769 33.996 17.1929 34.152 17.3369 34.28C17.4809 34.408 17.6409 34.508 17.8169 34.58C18.0009 34.644 18.1809 34.676 18.3569 34.676ZM23.105 29.828V34.748C23.105 34.996 23.073 35.224 23.009 35.432C22.953 35.64 22.877 35.832 22.781 36.008C22.685 36.184 22.577 36.34 22.457 36.476C22.337 36.62 22.213 36.748 22.085 36.86C21.781 37.124 21.441 37.336 21.065 37.496L21.017 37.388C21.257 37.236 21.473 37.04 21.665 36.8C21.825 36.6 21.973 36.344 22.109 36.032C22.253 35.728 22.325 35.36 22.325 34.928V30.908C22.325 30.772 22.305 30.644 22.265 30.524C22.225 30.396 22.109 30.328 21.917 30.32V30.212L23.105 29.828ZM22.049 28.664C22.049 28.504 22.105 28.368 22.217 28.256C22.329 28.144 22.465 28.088 22.625 28.088C22.785 28.088 22.917 28.144 23.021 28.256C23.133 28.368 23.189 28.504 23.189 28.664C23.189 28.824 23.133 28.956 23.021 29.06C22.917 29.164 22.785 29.216 22.625 29.216C22.465 29.216 22.329 29.164 22.217 29.06C22.105 28.956 22.049 28.824 22.049 28.664ZM25.0008 32.576C25.0328 32.856 25.1008 33.124 25.2048 33.38C25.3088 33.628 25.4448 33.848 25.6128 34.04C25.7888 34.232 26.0008 34.388 26.2488 34.508C26.4968 34.62 26.7848 34.676 27.1128 34.676C27.2888 34.676 27.4728 34.652 27.6648 34.604C27.8648 34.548 28.0488 34.472 28.2168 34.376C28.3848 34.28 28.5328 34.164 28.6608 34.028C28.7968 33.884 28.8888 33.724 28.9368 33.548H29.0448V34.448C28.9968 34.448 28.9408 34.464 28.8768 34.496C28.8208 34.528 28.7528 34.568 28.6728 34.616C28.5128 34.712 28.2968 34.816 28.0248 34.928C27.7528 35.032 27.3928 35.084 26.9448 35.084C26.5848 35.084 26.2408 35.032 25.9128 34.928C25.5928 34.824 25.3088 34.664 25.0608 34.448C24.8128 34.232 24.6128 33.956 24.4608 33.62C24.3168 33.284 24.2448 32.884 24.2448 32.42C24.2448 32.124 24.2928 31.824 24.3888 31.52C24.4928 31.216 24.6448 30.944 24.8448 30.704C25.0528 30.456 25.3168 30.256 25.6368 30.104C25.9568 29.952 26.3408 29.876 26.7888 29.876C27.1888 29.876 27.5368 29.944 27.8328 30.08C28.1368 30.216 28.3848 30.404 28.5768 30.644C28.7768 30.884 28.9248 31.168 29.0208 31.496C29.1168 31.824 29.1648 32.184 29.1648 32.576H25.0008ZM26.7408 30.272C26.4608 30.272 26.2168 30.328 26.0088 30.44C25.8088 30.552 25.6368 30.696 25.4928 30.872C25.3488 31.048 25.2368 31.248 25.1568 31.472C25.0768 31.696 25.0248 31.92 25.0008 32.144H28.4208C28.4128 31.912 28.3688 31.684 28.2888 31.46C28.2168 31.236 28.1128 31.036 27.9768 30.86C27.8408 30.684 27.6688 30.544 27.4608 30.44C27.2528 30.328 27.0128 30.272 26.7408 30.272ZM34.593 34.568C34.529 34.568 34.469 34.584 34.413 34.616C34.357 34.64 34.293 34.672 34.221 34.712C34.085 34.792 33.913 34.876 33.705 34.964C33.497 35.044 33.225 35.084 32.889 35.084C32.481 35.084 32.101 35.02 31.749 34.892C31.405 34.756 31.105 34.572 30.849 34.34C30.601 34.1 30.405 33.824 30.261 33.512C30.125 33.192 30.057 32.848 30.057 32.48C30.057 32.136 30.117 31.808 30.237 31.496C30.365 31.184 30.545 30.908 30.777 30.668C31.009 30.428 31.293 30.236 31.629 30.092C31.973 29.948 32.361 29.876 32.793 29.876C33.089 29.876 33.329 29.912 33.513 29.984C33.697 30.048 33.853 30.112 33.981 30.176C34.053 30.216 34.121 30.248 34.185 30.272C34.257 30.296 34.329 30.308 34.401 30.308V31.22H34.281C34.241 31.068 34.169 30.936 34.065 30.824C33.961 30.704 33.841 30.604 33.705 30.524C33.569 30.444 33.421 30.384 33.261 30.344C33.101 30.304 32.945 30.284 32.793 30.284C32.465 30.284 32.177 30.344 31.929 30.464C31.681 30.576 31.477 30.728 31.317 30.92C31.157 31.104 31.037 31.316 30.957 31.556C30.877 31.796 30.837 32.044 30.837 32.3C30.837 32.596 30.885 32.888 30.981 33.176C31.077 33.456 31.213 33.708 31.389 33.932C31.573 34.156 31.793 34.336 32.049 34.472C32.305 34.608 32.593 34.676 32.913 34.676C33.137 34.676 33.341 34.644 33.525 34.58C33.717 34.516 33.877 34.432 34.005 34.328C34.141 34.224 34.249 34.112 34.329 33.992C34.409 33.864 34.457 33.744 34.473 33.632H34.593V34.568ZM36.5676 30.368V33.26C36.5676 33.468 36.5716 33.656 36.5796 33.824C36.5876 33.992 36.6076 34.132 36.6396 34.244C36.6716 34.356 36.7196 34.444 36.7836 34.508C36.8476 34.564 36.9356 34.592 37.0476 34.592C37.2156 34.592 37.3716 34.512 37.5156 34.352C37.6676 34.192 37.7636 34 37.8036 33.776H37.9116V34.652C37.8396 34.652 37.7796 34.676 37.7316 34.724C37.6676 34.78 37.5756 34.84 37.4556 34.904C37.3436 34.968 37.1716 35 36.9396 35C36.6516 35 36.4276 34.944 36.2676 34.832C36.1076 34.72 35.9916 34.572 35.9196 34.388C35.8476 34.204 35.8036 34 35.7876 33.776C35.7796 33.552 35.7756 33.324 35.7756 33.092V30.368H35.1036V29.96H35.7756V28.892C35.7756 28.756 35.7556 28.632 35.7156 28.52C35.6836 28.4 35.5676 28.336 35.3676 28.328V28.208L36.5676 27.824V29.96H37.9116V30.368H36.5676ZM41.9306 34.88H41.9906C42.0466 34.88 42.0986 34.856 42.1466 34.808C42.1946 34.76 42.2346 34.704 42.2666 34.64C42.3066 34.576 42.3346 34.508 42.3506 34.436C42.3666 34.356 42.3746 34.284 42.3746 34.22V27.836C42.3746 27.78 42.3666 27.716 42.3506 27.644C42.3346 27.572 42.3066 27.504 42.2666 27.44C42.2346 27.368 42.1906 27.312 42.1346 27.272C42.0866 27.224 42.0306 27.2 41.9666 27.2H41.9066V27.08H43.8746C44.6186 27.08 45.1986 27.244 45.6146 27.572C46.0386 27.9 46.2506 28.336 46.2506 28.88C46.2506 29.112 46.2106 29.32 46.1306 29.504C46.0506 29.688 45.9466 29.852 45.8186 29.996C45.6986 30.14 45.5666 30.264 45.4226 30.368C45.2786 30.464 45.1426 30.544 45.0146 30.608C45.3506 30.672 45.6306 30.78 45.8546 30.932C46.0786 31.084 46.2586 31.26 46.3946 31.46C46.5386 31.652 46.6386 31.86 46.6946 32.084C46.7506 32.308 46.7786 32.528 46.7786 32.744C46.7786 33.16 46.7026 33.512 46.5506 33.8C46.3986 34.08 46.1946 34.312 45.9386 34.496C45.6906 34.672 45.4026 34.8 45.0746 34.88C44.7546 34.96 44.4226 35 44.0786 35H41.9306V34.88ZM45.9626 32.816C45.8986 32.2 45.6906 31.724 45.3386 31.388C44.9866 31.052 44.4906 30.884 43.8506 30.884H43.1786V34.604H43.8746C44.5226 34.604 45.0306 34.46 45.3986 34.172C45.7746 33.876 45.9626 33.468 45.9626 32.948V32.816ZM45.4706 28.988C45.4466 28.524 45.2826 28.156 44.9786 27.884C44.6826 27.612 44.2826 27.476 43.7786 27.476H43.1786V30.5H43.8026C44.1386 30.5 44.4106 30.456 44.6186 30.368C44.8346 30.28 45.0066 30.168 45.1346 30.032C45.2626 29.888 45.3506 29.732 45.3986 29.564C45.4466 29.396 45.4706 29.232 45.4706 29.072V28.988Z" fill="black"/>
  <path d="M12.264 27.296L12.2228 27.3871L12.2241 27.3877L12.264 27.296ZM13.524 28.184L13.4502 28.2515L13.4517 28.2531L13.524 28.184ZM14.328 29.48L14.2342 29.5148L14.2349 29.5166L14.328 29.48ZM14.28 32.672L14.1886 32.6314L14.1881 32.6326L14.28 32.672ZM13.38 33.968L13.3116 33.895L13.38 33.968ZM12.036 34.82L12.0729 34.913L12.0736 34.9126L12.036 34.82ZM8.748 34.784L8.70628 34.8749L8.70684 34.8751L8.748 34.784ZM7.5 33.896L7.42615 33.9634L7.42695 33.9643L7.5 33.896ZM6.72 29.612L6.81376 29.6468L6.81394 29.6463L6.72 29.612ZM7.524 28.268L7.45034 28.2004L7.4496 28.2012L7.524 28.268ZM8.832 27.32L8.78956 27.2295L8.832 27.32ZM10.572 34.7V34.8001L10.5765 34.7999L10.572 34.7ZM11.976 34.34L12.0235 34.428L12.0241 34.4277L11.976 34.34ZM12.996 33.5L13.0737 33.5629L13.0744 33.562L12.996 33.5ZM13.596 32.372L13.5011 32.3404L13.5006 32.3421L13.596 32.372ZM13.56 29.828L13.6542 29.7944L13.56 29.828ZM12.876 28.616L12.7981 28.6787L12.7988 28.6795L12.876 28.616ZM11.808 27.728L11.7586 27.815L11.7606 27.816L11.808 27.728ZM9.096 27.716L9.14427 27.8036L9.14561 27.8028L9.096 27.716ZM8.088 28.556L8.01044 28.4929L8.00956 28.494L8.088 28.556ZM7.464 29.708L7.55869 29.7402L7.464 29.708ZM7.5 32.288L7.40637 32.3231L7.40658 32.3237L7.5 32.288ZM9.24 34.364L9.19114 34.4513L9.19187 34.4517L9.24 34.364ZM10.584 27.06C11.1959 27.06 11.7415 27.1698 12.2228 27.3871L12.3052 27.2049C11.7945 26.9742 11.2201 26.86 10.584 26.86V27.06ZM12.2241 27.3877C12.708 27.5984 13.1163 27.8865 13.4502 28.2515L13.5978 28.1165C13.2437 27.7295 12.812 27.4256 12.3039 27.2043L12.2241 27.3877ZM13.4517 28.2531C13.7939 28.6109 14.0548 29.0311 14.2342 29.5148L14.4218 29.4452C14.2332 28.9369 13.9581 28.4931 13.5963 28.1149L13.4517 28.2531ZM14.2349 29.5166C14.4223 29.9927 14.516 30.4922 14.516 31.016H14.716C14.716 30.4678 14.6177 29.9433 14.4211 29.4434L14.2349 29.5166ZM14.516 31.016C14.516 31.6033 14.4065 32.1413 14.1886 32.6314L14.3714 32.7126C14.6015 32.1947 14.716 31.6287 14.716 31.016H14.516ZM14.1881 32.6326C13.9773 33.1245 13.6851 33.5449 13.3116 33.895L13.4484 34.041C13.8429 33.6711 14.1507 33.2275 14.3719 32.7114L14.1881 32.6326ZM13.3116 33.895C12.937 34.2462 12.4996 34.5237 11.9984 34.7274L12.0736 34.9126C12.5964 34.7003 13.055 34.4098 13.4484 34.041L13.3116 33.895ZM11.9991 34.7271C11.5076 34.9221 10.9802 35.02 10.416 35.02V35.22C11.0038 35.22 11.5564 35.1179 12.0729 34.9129L11.9991 34.7271ZM10.416 35.02C9.81232 35.02 9.27062 34.9103 8.78916 34.6929L8.70684 34.8751C9.21738 35.1057 9.78768 35.22 10.416 35.22V35.02ZM8.78972 34.6931C8.31274 34.4742 7.9076 34.1856 7.57305 33.8277L7.42695 33.9643C7.7804 34.3424 8.20726 34.6458 8.70628 34.8749L8.78972 34.6931ZM7.57385 33.8286C7.24654 33.4701 6.99304 33.0569 6.81337 32.5882L6.62663 32.6598C6.81496 33.1511 7.08146 33.5859 7.42615 33.9634L7.57385 33.8286ZM6.81337 32.5882C6.63381 32.1198 6.544 31.6319 6.544 31.124H6.344C6.344 31.6561 6.43819 32.1682 6.62663 32.6598L6.81337 32.5882ZM6.544 31.124C6.544 30.6243 6.63375 30.132 6.81376 29.6468L6.62624 29.5772C6.43825 30.084 6.344 30.5997 6.344 31.124H6.544ZM6.81394 29.6463C6.99364 29.1541 7.25509 28.7171 7.5984 28.3348L7.4496 28.2012C7.08891 28.6029 6.81436 29.0619 6.62606 29.5777L6.81394 29.6463ZM7.59765 28.3356C7.9483 27.9538 8.37349 27.6454 8.87444 27.4105L8.78956 27.2295C8.26651 27.4746 7.8197 27.7982 7.45035 28.2004L7.59765 28.3356ZM8.87444 27.4105C9.37119 27.1777 9.94033 27.06 10.584 27.06V26.86C9.91567 26.86 9.31681 26.9823 8.78956 27.2295L8.87444 27.4105ZM10.5765 34.7999C11.1248 34.7753 11.6081 34.6523 12.0235 34.428L11.9285 34.252C11.5439 34.4597 11.0912 34.5767 10.5675 34.6001L10.5765 34.7999ZM12.0241 34.4277C12.4426 34.1979 12.7929 33.9098 13.0737 33.5629L12.9183 33.4371C12.6551 33.7622 12.3254 34.0341 11.9279 34.2523L12.0241 34.4277ZM13.0744 33.562C13.3538 33.2087 13.5597 32.8219 13.6914 32.4019L13.5006 32.3421C13.3763 32.7381 13.1822 33.1033 12.9176 33.438L13.0744 33.562ZM13.6909 32.4036C13.83 31.9862 13.9 31.5715 13.9 31.16H13.7C13.7 31.5485 13.634 31.9418 13.5011 32.3404L13.6909 32.4036ZM13.9 31.16C13.9 30.7076 13.8177 30.2523 13.6542 29.7944L13.4658 29.8616C13.6223 30.2997 13.7 30.7324 13.7 31.16H13.9ZM13.6542 29.7944C13.4904 29.3357 13.2567 28.9216 12.9532 28.5525L12.7988 28.6795C13.0873 29.0304 13.3096 29.4243 13.4658 29.8616L13.6542 29.7944ZM12.9539 28.5533C12.6495 28.1749 12.2832 27.8703 11.8554 27.64L11.7606 27.816C12.1648 28.0337 12.5105 28.3211 12.7981 28.6787L12.9539 28.5533ZM11.8574 27.6411C11.433 27.3997 10.9557 27.28 10.428 27.28V27.48C10.9243 27.48 11.367 27.5923 11.7586 27.8149L11.8574 27.6411ZM10.428 27.28C9.91636 27.28 9.45496 27.3957 9.04639 27.6292L9.14561 27.8028C9.52105 27.5883 9.94764 27.48 10.428 27.48V27.28ZM9.04774 27.6284C8.6446 27.8506 8.29862 28.1388 8.01044 28.4929L8.16556 28.6191C8.43738 28.2852 8.7634 28.0134 9.14426 27.8036L9.04774 27.6284ZM8.00956 28.494C7.73033 28.8471 7.5169 29.2413 7.36931 29.6758L7.55869 29.7402C7.6991 29.3267 7.90167 28.9529 8.16644 28.618L8.00956 28.494ZM7.36931 29.6758C7.22214 30.1092 7.148 30.536 7.148 30.956H7.348C7.348 30.56 7.41786 30.1548 7.55869 29.7402L7.36931 29.6758ZM7.148 30.956C7.148 31.409 7.23453 31.8649 7.40637 32.3231L7.59363 32.2529C7.42947 31.8151 7.348 31.383 7.348 30.956H7.148ZM7.40658 32.3237C7.57839 32.7737 7.81582 33.1831 8.11876 33.5515L8.27324 33.4245C7.98418 33.0729 7.75761 32.6823 7.59342 32.2523L7.40658 32.3237ZM8.11876 33.5515C8.42252 33.921 8.7801 34.2211 9.19114 34.4513L9.28886 34.2767C8.8999 34.0589 8.56148 33.775 8.27324 33.4245L8.11876 33.5515ZM9.19187 34.4517C9.6151 34.684 10.0757 34.8 10.572 34.8V34.6C10.1083 34.6 9.68091 34.492 9.28813 34.2763L9.19187 34.4517ZM19.3529 30.092L19.311 30.1828L19.3119 30.1832L19.3529 30.092ZM20.1449 30.668L20.0693 30.7335L20.1449 30.668ZM20.6129 31.496L20.518 31.5276L20.5183 31.5284L20.6129 31.496ZM20.6129 33.404L20.7078 33.4356L20.708 33.4349L20.6129 33.404ZM20.1329 34.256L20.0565 34.1915L20.0563 34.1917L20.1329 34.256ZM19.3529 34.856L19.3967 34.9459L19.3529 34.856ZM17.4449 34.904L17.399 34.9929L17.4014 34.994L17.4449 34.904ZM16.8569 34.448L16.9343 34.3847L16.7569 34.1679V34.448H16.8569ZM16.8569 35V35.1H16.9569V35H16.8569ZM15.6809 35H15.5809V35.1H15.6809V35ZM15.6809 34.88V34.78H15.5809V34.88H15.6809ZM15.8369 34.808L15.9076 34.8787L15.8369 34.808ZM15.9569 34.64L15.8717 34.5868L15.8675 34.5953L15.9569 34.64ZM16.0409 34.436L16.1385 34.4577L16.139 34.4556L16.0409 34.436ZM16.0049 27.716L16.0998 27.6844V27.6844L16.0049 27.716ZM15.6569 27.524H15.5569V27.6199L15.6527 27.6239L15.6569 27.524ZM15.6569 27.404L15.6273 27.3085L15.5569 27.3303V27.404H15.6569ZM16.8569 27.032H16.9569V26.8963L16.8273 26.9365L16.8569 27.032ZM16.8569 30.464H16.7569V30.7054L16.9276 30.5347L16.8569 30.464ZM17.5049 30.032L17.4673 29.9393L17.4662 29.9398L17.5049 30.032ZM18.3569 34.676V34.7762L18.3625 34.7758L18.3569 34.676ZM19.1009 34.472L19.1509 34.5587L19.1533 34.5572L19.1009 34.472ZM19.6169 33.992L19.5369 33.932L19.5353 33.9342L19.6169 33.992ZM19.9289 33.344L19.8328 33.3161L19.8323 33.3182L19.9289 33.344ZM19.9169 31.748L20.0128 31.7198L19.9169 31.748ZM19.5569 31.016L19.4751 31.0736L19.4766 31.0755L19.5569 31.016ZM18.9809 30.5L18.9303 30.5863L18.9326 30.5876L18.9809 30.5ZM17.6969 30.416L17.738 30.5073L17.7416 30.5054L17.6969 30.416ZM17.2649 30.716L17.1942 30.6453L17.2649 30.716ZM16.9649 31.16L16.8738 31.1186L16.873 31.1206L16.9649 31.16ZM16.9889 33.812L16.8987 33.8551L16.9889 33.812ZM17.3369 34.28L17.4033 34.2053L17.3369 34.28ZM17.8169 34.58L17.779 34.6727L17.7841 34.6744L17.8169 34.58ZM18.2369 29.976C18.658 29.976 19.0151 30.0462 19.311 30.1828L19.3948 30.0012C19.0668 29.8498 18.6798 29.776 18.2369 29.776V29.976ZM19.3119 30.1832C19.62 30.3219 19.8718 30.5056 20.0693 30.7335L20.2205 30.6025C20.002 30.3504 19.7258 30.1501 19.3939 30.0008L19.3119 30.1832ZM20.0693 30.7335C20.2684 30.9632 20.418 31.2276 20.518 31.5276L20.7078 31.4644C20.5998 31.1404 20.4374 30.8528 20.2205 30.6025L20.0693 30.7335ZM20.5183 31.5284C20.6187 31.822 20.6689 32.1231 20.6689 32.432H20.8689C20.8689 32.1009 20.8151 31.778 20.7075 31.4636L20.5183 31.5284ZM20.6689 32.432C20.6689 32.7492 20.6186 33.0628 20.5178 33.3731L20.708 33.4349C20.8152 33.1052 20.8689 32.7708 20.8689 32.432H20.6689ZM20.518 33.3724C20.4181 33.6721 20.2645 33.945 20.0565 34.1915L20.2093 34.3205C20.4334 34.055 20.5997 33.7599 20.7078 33.4356L20.518 33.3724ZM20.0563 34.1917C19.8579 34.4282 19.6094 34.6198 19.3091 34.7661L19.3967 34.9459C19.7204 34.7882 19.9919 34.5798 20.2095 34.3203L20.0563 34.1917ZM19.3091 34.7661C19.0129 34.9104 18.6684 34.984 18.2729 34.984V35.184C18.6934 35.184 19.0689 35.1056 19.3967 34.9459L19.3091 34.7661ZM18.2729 34.984C17.9824 34.984 17.7215 34.9268 17.4885 34.814L17.4014 34.994C17.6643 35.1212 17.9554 35.184 18.2729 35.184V34.984ZM17.4908 34.8151C17.2522 34.692 17.0679 34.548 16.9343 34.3847L16.7795 34.5113C16.9339 34.7 17.1416 34.86 17.399 34.9929L17.4908 34.8151ZM16.7569 34.448V35H16.9569V34.448H16.7569ZM16.8569 34.9H15.6809V35.1H16.8569V34.9ZM15.7809 35V34.88H15.5809V35H15.7809ZM15.6809 34.98C15.7689 34.98 15.8451 34.9412 15.9076 34.8787L15.7662 34.7373C15.7327 34.7708 15.7049 34.78 15.6809 34.78V34.98ZM15.9076 34.8787C15.9636 34.8227 16.0098 34.7578 16.0463 34.6847L15.8675 34.5953C15.84 34.6502 15.8062 34.6973 15.7662 34.7373L15.9076 34.8787ZM16.0417 34.693C16.0876 34.6196 16.12 34.541 16.1385 34.4577L15.9433 34.4143C15.9298 34.475 15.9062 34.5324 15.8721 34.587L16.0417 34.693ZM16.139 34.4556C16.1559 34.3708 16.1649 34.2921 16.1649 34.22H15.9649C15.9649 34.2759 15.9579 34.3412 15.9428 34.4164L16.139 34.4556ZM16.1649 34.22V28.1H15.9649L15.9649 34.22H16.1649ZM16.1649 28.1C16.1649 27.9541 16.1434 27.8153 16.0998 27.6844L15.91 27.7476C15.9464 27.8567 15.9649 27.9739 15.9649 28.1H16.1649ZM16.0998 27.6844C16.0402 27.5056 15.8694 27.4328 15.6611 27.4241L15.6527 27.6239C15.8284 27.6312 15.8896 27.6864 15.91 27.7476L16.0998 27.6844ZM15.7569 27.524V27.404H15.5569V27.524H15.7569ZM15.6865 27.4995L16.8865 27.1275L16.8273 26.9365L15.6273 27.3085L15.6865 27.4995ZM16.7569 27.032V30.464H16.9569V27.032H16.7569ZM16.9276 30.5347C17.1021 30.3602 17.3071 30.2234 17.5436 30.1242L17.4662 29.9398C17.2067 30.0486 16.9797 30.1998 16.7862 30.3933L16.9276 30.5347ZM17.5425 30.1246C17.7888 30.0246 18.02 29.976 18.2369 29.976V29.776C17.9898 29.776 17.733 29.8314 17.4673 29.9394L17.5425 30.1246ZM18.3625 34.7758C18.663 34.7592 18.9268 34.6879 19.1509 34.5586L19.0509 34.3854C18.859 34.4961 18.6268 34.5609 18.3514 34.5762L18.3625 34.7758ZM19.1533 34.5572C19.3723 34.4224 19.5544 34.2532 19.6985 34.0498L19.5353 33.9342C19.4074 34.1148 19.2455 34.2656 19.0485 34.3868L19.1533 34.5572ZM19.6969 34.052C19.8489 33.8494 19.9583 33.6217 20.0255 33.3698L19.8323 33.3182C19.7715 33.5463 19.673 33.7506 19.5369 33.932L19.6969 34.052ZM20.0249 33.3719C20.0995 33.1149 20.1369 32.8535 20.1369 32.588H19.9369C19.9369 32.8345 19.9023 33.0771 19.8329 33.3161L20.0249 33.3719ZM20.1369 32.588C20.1369 32.2906 20.0956 32.0011 20.0128 31.7198L19.821 31.7762C19.8982 32.0389 19.9369 32.3094 19.9369 32.588H20.1369ZM20.0128 31.7198C19.9297 31.4371 19.8046 31.1824 19.6373 30.9565L19.4766 31.0755C19.6292 31.2816 19.7441 31.5149 19.821 31.7762L20.0128 31.7198ZM19.6387 30.9585C19.4779 30.73 19.2745 30.5477 19.0292 30.4124L18.9326 30.5876C19.1514 30.7082 19.3319 30.87 19.4751 31.0735L19.6387 30.9585ZM19.0315 30.4137C18.7826 30.2679 18.5008 30.196 18.1889 30.196V30.396C18.469 30.396 18.7152 30.4601 18.9303 30.5863L19.0315 30.4137ZM18.1889 30.196C18.0044 30.196 17.8251 30.2401 17.6522 30.3266L17.7416 30.5054C17.8887 30.4319 18.0374 30.396 18.1889 30.396V30.196ZM17.6559 30.3248C17.4845 30.4019 17.3305 30.509 17.1942 30.6453L17.3356 30.7867C17.4553 30.667 17.5893 30.5741 17.7379 30.5072L17.6559 30.3248ZM17.1942 30.6453C17.0646 30.7749 16.9581 30.9332 16.8739 31.1186L17.0559 31.2014C17.1317 31.0348 17.2252 30.8971 17.3356 30.7867L17.1942 30.6453ZM16.873 31.1206C16.7954 31.3017 16.7569 31.4952 16.7569 31.7H16.9569C16.9569 31.5208 16.9904 31.3543 17.0568 31.1994L16.873 31.1206ZM16.7569 31.7V33.188H16.9569V31.7H16.7569ZM16.7569 33.188C16.7569 33.4329 16.8034 33.6559 16.8987 33.8551L17.0791 33.7689C16.9984 33.6001 16.9569 33.4071 16.9569 33.188H16.7569ZM16.8987 33.8551C16.9921 34.0504 17.1159 34.2174 17.2705 34.3547L17.4033 34.2053C17.2699 34.0866 17.1617 33.9416 17.0791 33.7689L16.8987 33.8551ZM17.2705 34.3547C17.4228 34.4902 17.5924 34.5962 17.779 34.6726L17.8548 34.4874C17.6894 34.4198 17.539 34.3258 17.4033 34.2053L17.2705 34.3547ZM17.7841 34.6744C17.9775 34.7417 18.1686 34.776 18.3569 34.776V34.576C18.1932 34.576 18.0243 34.5463 17.8498 34.4855L17.7841 34.6744ZM23.105 29.828H23.205V29.6906L23.0742 29.7328L23.105 29.828ZM23.009 35.432L22.9133 35.4026L22.9124 35.406L23.009 35.432ZM22.781 36.008L22.8688 36.0559L22.781 36.008ZM22.457 36.476L22.382 36.4098L22.3801 36.412L22.457 36.476ZM22.085 36.86L22.1505 36.9355L22.1508 36.9353L22.085 36.86ZM21.065 37.496L20.9736 37.5366L21.0136 37.6266L21.1041 37.588L21.065 37.496ZM21.017 37.388L20.9635 37.3035L20.8905 37.3497L20.9256 37.4286L21.017 37.388ZM21.665 36.8L21.7431 36.8625L21.665 36.8ZM22.109 36.032L22.0186 35.9892L22.0173 35.992L22.109 36.032ZM22.265 30.524L22.1695 30.5538L22.1701 30.5556L22.265 30.524ZM21.917 30.32H21.817V30.4159L21.9128 30.4199L21.917 30.32ZM21.917 30.212L21.8862 30.1168L21.817 30.1392V30.212H21.917ZM22.217 28.256L22.2877 28.3267L22.217 28.256ZM23.021 28.256L22.9476 28.3241L22.9503 28.3267L23.021 28.256ZM23.021 29.06L22.9529 28.9867L22.9503 28.9893L23.021 29.06ZM22.217 29.06L22.285 28.9867V28.9867L22.217 29.06ZM23.005 29.828V34.748H23.205V29.828H23.005ZM23.005 34.748C23.005 34.9874 22.9741 35.2053 22.9134 35.4026L23.1045 35.4614C23.1719 35.2427 23.205 35.0046 23.205 34.748H23.005ZM22.9124 35.406C22.8583 35.6069 22.7851 35.7915 22.6932 35.9601L22.8688 36.0559C22.9688 35.8725 23.0476 35.6731 23.1055 35.458L22.9124 35.406ZM22.6932 35.9601C22.6004 36.1302 22.4966 36.28 22.382 36.4098L22.532 36.5422C22.6574 36.4 22.7696 36.2378 22.8688 36.0559L22.6932 35.9601ZM22.3801 36.412C22.2632 36.5524 22.1428 36.6765 22.0191 36.7847L22.1508 36.9353C22.2831 36.8195 22.4108 36.6876 22.5338 36.54L22.3801 36.412ZM22.0194 36.7845C21.7234 37.0415 21.3923 37.248 21.0258 37.404L21.1041 37.588C21.4896 37.424 21.8385 37.2065 22.1505 36.9355L22.0194 36.7845ZM21.1564 37.4554L21.1083 37.3474L20.9256 37.4286L20.9736 37.5366L21.1564 37.4554ZM21.0705 37.4725C21.3206 37.3141 21.5447 37.1104 21.7431 36.8625L21.5869 36.7375C21.4012 36.9696 21.1934 37.1579 20.9635 37.3035L21.0705 37.4725ZM21.7431 36.8625C21.91 36.6538 22.0622 36.3896 22.2006 36.072L22.0173 35.992C21.8837 36.2984 21.7399 36.5462 21.5869 36.7375L21.7431 36.8625ZM22.1993 36.0748C22.3512 35.7542 22.425 35.3707 22.425 34.928H22.225C22.225 35.3493 22.1547 35.7018 22.0186 35.9892L22.1993 36.0748ZM22.425 34.928V30.908H22.225V34.928H22.425ZM22.425 30.908C22.425 30.7621 22.4035 30.6233 22.3598 30.4924L22.1701 30.5556C22.2065 30.6647 22.225 30.7819 22.225 30.908H22.425ZM22.3604 30.4942C22.333 30.4064 22.2779 30.3373 22.1985 30.2907C22.1217 30.2457 22.0269 30.2245 21.9211 30.2201L21.9128 30.4199C21.999 30.4235 22.0583 30.4403 22.0974 30.4633C22.134 30.4847 22.157 30.5136 22.1695 30.5538L22.3604 30.4942ZM22.017 30.32V30.212H21.817V30.32H22.017ZM21.9477 30.3072L23.1357 29.9232L23.0742 29.7328L21.8862 30.1168L21.9477 30.3072ZM22.149 28.664C22.149 28.5302 22.1946 28.4197 22.2877 28.3267L22.1463 28.1853C22.0153 28.3163 21.949 28.4778 21.949 28.664H22.149ZM22.2877 28.3267C22.3807 28.2337 22.4912 28.188 22.625 28.188V27.988C22.4387 27.988 22.2772 28.0543 22.1463 28.1853L22.2877 28.3267ZM22.625 28.188C22.7586 28.188 22.8636 28.2335 22.9477 28.324L23.0942 28.188C22.9704 28.0545 22.8113 27.988 22.625 27.988V28.188ZM22.9503 28.3267C23.0433 28.4197 23.089 28.5302 23.089 28.664H23.289C23.289 28.4778 23.2226 28.3163 23.0917 28.1853L22.9503 28.3267ZM23.089 28.664C23.089 28.7977 23.0435 28.9026 22.9529 28.9867L23.089 29.1333C23.2224 29.0094 23.289 28.8503 23.289 28.664H23.089ZM22.9503 28.9893C22.8668 29.0728 22.761 29.116 22.625 29.116V29.316C22.8089 29.316 22.9672 29.2552 23.0917 29.1307L22.9503 28.9893ZM22.625 29.116C22.4889 29.116 22.3776 29.0727 22.285 28.9867L22.1489 29.1333C22.2804 29.2553 22.441 29.316 22.625 29.316V29.116ZM22.285 28.9867C22.1944 28.9026 22.149 28.7977 22.149 28.664H21.949C21.949 28.8503 22.0155 29.0094 22.1489 29.1333L22.285 28.9867ZM25.0008 32.576V32.476H24.8887L24.9014 32.5874L25.0008 32.576ZM25.2048 33.38L25.1121 33.4176L25.1126 33.4187L25.2048 33.38ZM25.6128 34.04L25.5375 34.1059L25.5391 34.1076L25.6128 34.04ZM26.2488 34.508L26.2052 34.598L26.2076 34.5991L26.2488 34.508ZM27.6648 34.604L27.689 34.7011L27.6917 34.7003L27.6648 34.604ZM28.2168 34.376L28.2664 34.4628L28.2168 34.376ZM28.6608 34.028L28.5881 33.9593L28.588 33.9595L28.6608 34.028ZM28.9368 33.548V33.448H28.8604L28.8403 33.5217L28.9368 33.548ZM29.0448 33.548H29.1448V33.448H29.0448V33.548ZM29.0448 34.448V34.548H29.1448V34.448H29.0448ZM28.8768 34.496L28.832 34.4064L28.8272 34.4092L28.8768 34.496ZM28.6728 34.616L28.7242 34.7017L28.6728 34.616ZM28.0248 34.928L28.0605 35.0214L28.0629 35.0205L28.0248 34.928ZM25.9128 34.928L25.8819 35.0231L25.8826 35.0233L25.9128 34.928ZM24.4608 33.62L24.3688 33.6594L24.3697 33.6612L24.4608 33.62ZM24.3888 31.52L24.2941 31.4876L24.2934 31.4899L24.3888 31.52ZM24.8448 30.704L24.7682 30.6397L24.768 30.64L24.8448 30.704ZM25.6368 30.104L25.6797 30.1943L25.6368 30.104ZM27.8328 30.08L27.791 30.1709L27.7919 30.1713L27.8328 30.08ZM28.5768 30.644L28.4987 30.7065L28.5 30.708L28.5768 30.644ZM29.0208 31.496L29.1168 31.4679L29.0208 31.496ZM29.1648 32.576V32.676H29.2648V32.576H29.1648ZM26.0088 30.44L25.9614 30.3519L25.9599 30.3527L26.0088 30.44ZM25.4928 30.872L25.5702 30.9353L25.4928 30.872ZM25.1568 31.472L25.251 31.5056L25.1568 31.472ZM25.0008 32.144L24.9014 32.1333L24.8895 32.244H25.0008V32.144ZM28.4208 32.144V32.244H28.5243L28.5207 32.1406L28.4208 32.144ZM28.2888 31.46L28.1935 31.4906L28.1946 31.4936L28.2888 31.46ZM27.9768 30.86L28.0559 30.7989L27.9768 30.86ZM27.4608 30.44L27.4133 30.5281L27.4161 30.5294L27.4608 30.44ZM24.9014 32.5874C24.9344 32.8762 25.0046 33.1531 25.1121 33.4176L25.2974 33.3424C25.1969 33.0949 25.1311 32.8358 25.1001 32.5646L24.9014 32.5874ZM25.1126 33.4187C25.2205 33.676 25.3621 33.9053 25.5375 34.1059L25.688 33.9741C25.5275 33.7907 25.3971 33.58 25.297 33.3413L25.1126 33.4187ZM25.5391 34.1076C25.7241 34.3094 25.9465 34.4728 26.2052 34.598L26.2923 34.418C26.0551 34.3032 25.8535 34.1546 25.6865 33.9724L25.5391 34.1076ZM26.2076 34.5991C26.4709 34.7181 26.7735 34.776 27.1128 34.776V34.576C26.7961 34.576 26.5226 34.5219 26.2899 34.4169L26.2076 34.5991ZM27.1128 34.776C27.2979 34.776 27.4901 34.7508 27.689 34.701L27.6405 34.507C27.4555 34.5532 27.2797 34.576 27.1128 34.576V34.776ZM27.6917 34.7003C27.8991 34.6422 28.0908 34.5632 28.2664 34.4628L28.1672 34.2892C28.0068 34.3808 27.8305 34.4538 27.6378 34.5077L27.6917 34.7003ZM28.2664 34.4628C28.4427 34.3621 28.5986 34.24 28.7336 34.0965L28.588 33.9595C28.467 34.088 28.3269 34.1979 28.1672 34.2892L28.2664 34.4628ZM28.7335 34.0967C28.8798 33.9418 28.9806 33.7675 29.0333 33.5743L28.8403 33.5217C28.797 33.6805 28.7138 33.8262 28.5881 33.9593L28.7335 34.0967ZM28.9368 33.648H29.0448V33.448H28.9368V33.648ZM28.9448 33.548V34.448H29.1448V33.548H28.9448ZM29.0448 34.348C28.9755 34.348 28.9037 34.3707 28.8321 34.4066L28.9215 34.5854C28.9779 34.5573 29.018 34.548 29.0448 34.548V34.348ZM28.8272 34.4092C28.7703 34.4416 28.7017 34.482 28.6213 34.5303L28.7242 34.7017C28.8039 34.654 28.8712 34.6144 28.9264 34.5828L28.8272 34.4092ZM28.6213 34.5303C28.4673 34.6227 28.2564 34.7245 27.9867 34.8355L28.0629 35.0205C28.3372 34.9075 28.5582 34.8013 28.7242 34.7017L28.6213 34.5303ZM27.9891 34.8346C27.7329 34.9325 27.3864 34.984 26.9448 34.984V35.184C27.3991 35.184 27.7727 35.1315 28.0605 35.0214L27.9891 34.8346ZM26.9448 34.984C26.5946 34.984 26.2608 34.9334 25.943 34.8327L25.8826 35.0233C26.2208 35.1306 26.575 35.184 26.9448 35.184V34.984ZM25.9437 34.8329C25.6362 34.733 25.3641 34.5795 25.1265 34.3726L24.9951 34.5234C25.2535 34.7485 25.5494 34.915 25.8819 35.0231L25.9437 34.8329ZM25.1265 34.3726C24.8905 34.1671 24.6987 33.9033 24.5519 33.5788L24.3697 33.6612C24.5269 34.0087 24.735 34.2969 24.9951 34.5234L25.1265 34.3726ZM24.5527 33.5806C24.4153 33.2599 24.3448 32.874 24.3448 32.42H24.1448C24.1448 32.894 24.2183 33.3081 24.3689 33.6594L24.5527 33.5806ZM24.3448 32.42C24.3448 32.135 24.391 31.8451 24.4841 31.5501L24.2934 31.4899C24.1946 31.8029 24.1448 32.113 24.1448 32.42H24.3448ZM24.4834 31.5524C24.5836 31.2596 24.7296 30.9984 24.9216 30.768L24.768 30.64C24.5599 30.8896 24.402 31.1724 24.2942 31.4876L24.4834 31.5524ZM24.9214 30.7683C25.1193 30.5323 25.3714 30.3408 25.6797 30.1943L25.5939 30.0137C25.2621 30.1712 24.9862 30.3797 24.7682 30.6397L24.9214 30.7683ZM25.6797 30.1943C25.9832 30.0501 26.3518 29.976 26.7888 29.976V29.776C26.3297 29.776 25.9303 29.8538 25.5939 30.0137L25.6797 30.1943ZM26.7888 29.976C27.1776 29.976 27.5108 30.0421 27.791 30.1709L27.8745 29.9891C27.5628 29.8459 27.2 29.776 26.7888 29.776V29.976ZM27.7919 30.1713C28.0827 30.3013 28.3175 30.4799 28.4987 30.7065L28.6549 30.5815C28.4521 30.3281 28.1909 30.1307 27.8736 29.9887L27.7919 30.1713ZM28.5 30.708C28.6904 30.9365 28.8323 31.208 28.9248 31.5241L29.1168 31.4679C29.0173 31.128 28.8632 30.8315 28.6536 30.58L28.5 30.708ZM28.9248 31.5241C29.0178 31.8417 29.0648 32.1921 29.0648 32.576H29.2648C29.2648 32.1759 29.2158 31.8063 29.1168 31.4679L28.9248 31.5241ZM29.1648 32.476H25.0008V32.676H29.1648V32.476ZM26.7408 30.172C26.4473 30.172 26.1864 30.2308 25.9614 30.352L26.0562 30.528C26.2471 30.4252 26.4743 30.372 26.7408 30.372V30.172ZM25.9599 30.3527C25.7491 30.4708 25.5674 30.6229 25.4154 30.8087L25.5702 30.9353C25.7062 30.7691 25.8685 30.6332 26.0576 30.5273L25.9599 30.3527ZM25.4154 30.8087C25.2638 30.9939 25.1463 31.2041 25.0626 31.4384L25.251 31.5056C25.3273 31.2919 25.4338 31.1021 25.5702 30.9353L25.4154 30.8087ZM25.0626 31.4384C24.9801 31.6694 24.9262 31.9011 24.9014 32.1333L25.1002 32.1547C25.1233 31.9389 25.1735 31.7226 25.251 31.5056L25.0626 31.4384ZM25.0008 32.244H28.4208V32.044H25.0008V32.244ZM28.5207 32.1406C28.5124 31.898 28.4663 31.6598 28.383 31.4264L28.1946 31.4936C28.2712 31.7082 28.3132 31.926 28.3208 32.1474L28.5207 32.1406ZM28.384 31.4294C28.3086 31.195 28.1994 30.9845 28.0559 30.7989L27.8977 30.9211C28.0262 31.0875 28.1249 31.277 28.1936 31.4906L28.384 31.4294ZM28.0559 30.7989C27.9103 30.6104 27.7263 30.461 27.5055 30.3506L27.4161 30.5294C27.6112 30.627 27.7713 30.7576 27.8977 30.9211L28.0559 30.7989ZM27.5082 30.352C27.2835 30.231 27.0268 30.172 26.7408 30.172V30.372C26.9988 30.372 27.222 30.425 27.4134 30.528L27.5082 30.352ZM34.593 34.568V34.668H34.693V34.568H34.593ZM34.413 34.616L34.4527 34.7085L34.4626 34.7028L34.413 34.616ZM34.221 34.712L34.1724 34.6246L34.1703 34.6258L34.221 34.712ZM33.705 34.964L33.7409 35.0574L33.744 35.0561L33.705 34.964ZM31.749 34.892L31.7122 34.985L31.7148 34.986L31.749 34.892ZM30.849 34.34L30.7794 34.4119L30.7818 34.4141L30.849 34.34ZM30.261 33.512L30.1689 33.5511L30.1702 33.5539L30.261 33.512ZM30.237 31.496L30.1445 31.458L30.1437 31.4601L30.237 31.496ZM31.629 30.092L31.5904 29.9998L31.5896 30.0001L31.629 30.092ZM33.513 29.984L33.4765 30.0772L33.4801 30.0784L33.513 29.984ZM33.981 30.176L34.0296 30.0885L34.0257 30.0866L33.981 30.176ZM34.185 30.272L34.1499 30.3657L34.1534 30.3669L34.185 30.272ZM34.401 30.308H34.501V30.208H34.401V30.308ZM34.401 31.22V31.32H34.501V31.22H34.401ZM34.281 31.22L34.1843 31.2454L34.2039 31.32H34.281V31.22ZM34.065 30.824L33.9894 30.8895L33.9917 30.892L34.065 30.824ZM33.705 30.524L33.7557 30.4378L33.705 30.524ZM33.261 30.344L33.2367 30.441L33.261 30.344ZM31.929 30.464L31.9702 30.5552L31.9726 30.554L31.929 30.464ZM31.317 30.92L31.3925 30.9856L31.3938 30.984L31.317 30.92ZM30.957 31.556L31.0519 31.5876L30.957 31.556ZM30.981 33.176L30.8861 33.2076L30.8864 33.2084L30.981 33.176ZM31.389 33.932L31.3104 33.9938L31.3117 33.9955L31.389 33.932ZM32.049 34.472L32.0959 34.3837L32.049 34.472ZM33.525 34.58L33.4934 34.4851L33.4921 34.4855L33.525 34.58ZM34.005 34.328L33.9442 34.2485L33.9419 34.2504L34.005 34.328ZM34.329 33.992L34.4122 34.0475L34.4138 34.045L34.329 33.992ZM34.473 33.632V33.532H34.3863L34.374 33.6179L34.473 33.632ZM34.593 33.632H34.693V33.532H34.593V33.632ZM34.593 34.468C34.5115 34.468 34.4344 34.4886 34.3634 34.5292L34.4626 34.7028C34.5036 34.6794 34.5465 34.668 34.593 34.668V34.468ZM34.3736 34.5241C34.3136 34.5498 34.2465 34.5835 34.1724 34.6246L34.2696 34.7994C34.3395 34.7605 34.4004 34.7302 34.4524 34.7079L34.3736 34.5241ZM34.1703 34.6258C34.0393 34.7029 33.8716 34.7849 33.666 34.8719L33.744 35.0561C33.9544 34.9671 34.1307 34.8811 34.2717 34.7982L34.1703 34.6258ZM33.6691 34.8707C33.4768 34.9446 33.2183 34.984 32.889 34.984V35.184C33.2317 35.184 33.5172 35.1434 33.7409 35.0573L33.6691 34.8707ZM32.889 34.984C32.4916 34.984 32.1233 34.9217 31.7832 34.798L31.7148 34.986C32.0787 35.1183 32.4704 35.184 32.889 35.184V34.984ZM31.7858 34.799C31.4522 34.6671 31.1626 34.4893 30.9162 34.2659L30.7818 34.4141C31.0474 34.6547 31.3578 34.8449 31.7122 34.985L31.7858 34.799ZM30.9185 34.2681C30.6794 34.0367 30.4906 33.7708 30.3518 33.4701L30.1702 33.5539C30.3194 33.8772 30.5226 34.1633 30.7795 34.4119L30.9185 34.2681ZM30.353 33.4729C30.2226 33.166 30.157 32.8354 30.157 32.48H29.957C29.957 32.8606 30.0274 33.218 30.169 33.5511L30.353 33.4729ZM30.157 32.48C30.157 32.1479 30.2149 31.8321 30.3303 31.5319L30.1437 31.4601C30.0191 31.7839 29.957 32.1241 29.957 32.48H30.157ZM30.3295 31.534C30.4528 31.2336 30.6258 30.9683 30.8489 30.7375L30.7051 30.5985C30.4642 30.8477 30.2772 31.1344 30.1445 31.458L30.3295 31.534ZM30.8489 30.7375C31.0708 30.5079 31.3434 30.3232 31.6684 30.1839L31.5896 30.0001C31.2426 30.1488 30.9472 30.3481 30.7051 30.5985L30.8489 30.7375ZM31.6676 30.1842C31.9976 30.0461 32.3722 29.976 32.793 29.976V29.776C32.3498 29.776 31.9484 29.8499 31.5904 29.9998L31.6676 30.1842ZM32.793 29.976C33.0821 29.976 33.3084 30.0113 33.4766 30.0771L33.5494 29.8909C33.3496 29.8127 33.0959 29.776 32.793 29.776V29.976ZM33.4801 30.0784C33.6614 30.1415 33.8132 30.2039 33.9363 30.2654L34.0257 30.0866C33.8928 30.0201 33.7326 29.9545 33.5459 29.8896L33.4801 30.0784ZM33.9324 30.2634C34.0079 30.3053 34.0804 30.3396 34.1499 30.3656L34.2201 30.1784C34.1616 30.1564 34.0981 30.1267 34.0296 30.0886L33.9324 30.2634ZM34.1534 30.3669C34.235 30.3941 34.3177 30.408 34.401 30.408V30.208C34.3403 30.208 34.279 30.1979 34.2166 30.1771L34.1534 30.3669ZM34.301 30.308V31.22H34.501V30.308H34.301ZM34.401 31.12H34.281V31.32H34.401V31.12ZM34.3777 31.1946C34.3336 31.0271 34.2538 30.8804 34.1383 30.756L33.9917 30.892C34.0842 30.9916 34.1484 31.1089 34.1843 31.2454L34.3777 31.1946ZM34.1406 30.7585C34.0295 30.6304 33.9011 30.5233 33.7557 30.4378L33.6543 30.6102C33.7809 30.6847 33.8925 30.7776 33.9894 30.8895L34.1406 30.7585ZM33.7557 30.4378C33.6111 30.3527 33.4541 30.2892 33.2853 30.247L33.2367 30.441C33.3879 30.4788 33.5269 30.5353 33.6543 30.6102L33.7557 30.4378ZM33.2853 30.247C33.118 30.2052 32.9538 30.184 32.793 30.184V30.384C32.9362 30.384 33.084 30.4028 33.2367 30.441L33.2853 30.247ZM32.793 30.184C32.4528 30.184 32.1494 30.2463 31.8854 30.374L31.9726 30.554C32.2046 30.4417 32.4772 30.384 32.793 30.384V30.184ZM31.8878 30.3729C31.6273 30.4905 31.4107 30.6514 31.2402 30.856L31.3938 30.984C31.5433 30.8046 31.7347 30.6615 31.9702 30.5551L31.8878 30.3729ZM31.2415 30.8544C31.0726 31.0487 30.9461 31.2724 30.8621 31.5244L31.0519 31.5876C31.1279 31.3596 31.2414 31.1593 31.3925 30.9856L31.2415 30.8544ZM30.8621 31.5244C30.7787 31.7747 30.737 32.0334 30.737 32.3L30.937 32.3C30.937 32.0546 30.9753 31.8173 31.0519 31.5876L30.8621 31.5244ZM30.737 32.3C30.737 32.607 30.7868 32.9097 30.8861 33.2076L31.0759 33.1444C30.9832 32.8663 30.937 32.585 30.937 32.3L30.737 32.3ZM30.8864 33.2084C30.9859 33.4986 31.1272 33.7606 31.3104 33.9938L31.4676 33.8702C31.2988 33.6554 31.1681 33.4134 31.0756 33.1436L30.8864 33.2084ZM31.3117 33.9955C31.5041 34.2297 31.7344 34.4181 32.0021 34.5603L32.0959 34.3837C31.8516 34.2539 31.6419 34.0823 31.4663 33.8685L31.3117 33.9955ZM32.0021 34.5603C32.274 34.7048 32.5784 34.776 32.913 34.776V34.576C32.6076 34.576 32.336 34.5112 32.0959 34.3837L32.0021 34.5603ZM32.913 34.776C33.1465 34.776 33.3618 34.7426 33.5579 34.6744L33.4921 34.4855C33.3202 34.5454 33.1275 34.576 32.913 34.576V34.776ZM33.5566 34.6749C33.7575 34.6079 33.9289 34.5187 34.0681 34.4056L33.9419 34.2504C33.8251 34.3453 33.6765 34.4241 33.4934 34.4851L33.5566 34.6749ZM34.0657 34.4074C34.2089 34.298 34.3251 34.1782 34.4122 34.0475L34.2458 33.9365C34.1729 34.0458 34.0731 34.15 33.9443 34.2486L34.0657 34.4074ZM34.4138 34.045C34.4988 33.9089 34.5535 33.7757 34.572 33.6461L34.374 33.6179C34.3605 33.7123 34.3192 33.8191 34.2442 33.939L34.4138 34.045ZM34.473 33.732H34.593V33.532H34.473V33.732ZM34.493 33.632V34.568H34.693V33.632H34.493ZM36.5676 30.368V30.268H36.4676V30.368H36.5676ZM36.6396 34.244L36.5434 34.2715L36.6396 34.244ZM36.7836 34.508L36.7127 34.5789L36.7177 34.5833L36.7836 34.508ZM37.5156 34.352L37.443 34.2831L37.4412 34.2851L37.5156 34.352ZM37.8036 33.776V33.676H37.7198L37.7051 33.7584L37.8036 33.776ZM37.9116 33.776H38.0116V33.676H37.9116V33.776ZM37.9116 34.652V34.752H38.0116V34.652H37.9116ZM37.7316 34.724L37.7976 34.7994L37.8023 34.7947L37.7316 34.724ZM37.4556 34.904L37.4085 34.8157L37.4059 34.8172L37.4556 34.904ZM35.9196 34.388L35.8264 34.4244V34.4244L35.9196 34.388ZM35.7876 33.776L35.6876 33.7796L35.6878 33.7831L35.7876 33.776ZM35.7756 30.368H35.8756V30.268H35.7756V30.368ZM35.1036 30.368H35.0036V30.468H35.1036V30.368ZM35.1036 29.96V29.86H35.0036V29.96H35.1036ZM35.7756 29.96V30.06H35.8756V29.96H35.7756ZM35.7156 28.52L35.6186 28.5459L35.6214 28.5536L35.7156 28.52ZM35.3676 28.328H35.2676V28.4241L35.3636 28.4279L35.3676 28.328ZM35.3676 28.208L35.3371 28.1128L35.2676 28.135V28.208H35.3676ZM36.5676 27.824H36.6676V27.687L36.5371 27.7288L36.5676 27.824ZM36.5676 29.96H36.4676V30.06H36.5676V29.96ZM37.9116 29.96H38.0116V29.86H37.9116V29.96ZM37.9116 30.368V30.468H38.0116V30.368H37.9116ZM36.4676 30.368V33.26H36.6676V30.368H36.4676ZM36.4676 33.26C36.4676 33.4692 36.4716 33.6589 36.4797 33.8288L36.6794 33.8192C36.6715 33.6531 36.6676 33.4668 36.6676 33.26H36.4676ZM36.4797 33.8288C36.4879 34.0014 36.5086 34.1496 36.5434 34.2715L36.7357 34.2165C36.7065 34.1144 36.6872 33.9826 36.6794 33.8192L36.4797 33.8288ZM36.5434 34.2715C36.5788 34.3952 36.6339 34.4997 36.7129 34.5787L36.8543 34.4373C36.8053 34.3883 36.7644 34.3168 36.7357 34.2165L36.5434 34.2715ZM36.7177 34.5833C36.8051 34.6597 36.9192 34.692 37.0476 34.692V34.492C36.952 34.492 36.8901 34.4683 36.8494 34.4327L36.7177 34.5833ZM37.0476 34.692C37.2514 34.692 37.4326 34.5937 37.5899 34.4189L37.4412 34.2851C37.3105 34.4303 37.1797 34.492 37.0476 34.492V34.692ZM37.5881 34.4209C37.754 34.2462 37.8587 34.0362 37.902 33.7936L37.7051 33.7584C37.6684 33.9638 37.5811 34.1378 37.4431 34.2831L37.5881 34.4209ZM37.8036 33.876H37.9116V33.676H37.8036V33.876ZM37.8116 33.776V34.652H38.0116V33.776H37.8116ZM37.9116 34.552C37.8148 34.552 37.7288 34.5853 37.6609 34.6533L37.8023 34.7947C37.8303 34.7667 37.8643 34.752 37.9116 34.752V34.552ZM37.6657 34.6487C37.6098 34.6976 37.5253 34.7535 37.4085 34.8158L37.5026 34.9922C37.6259 34.9265 37.7253 34.8624 37.7974 34.7993L37.6657 34.6487ZM37.4059 34.8172C37.3168 34.8681 37.1661 34.9 36.9396 34.9V35.1C37.1771 35.1 37.3703 35.0679 37.5052 34.9908L37.4059 34.8172ZM36.9396 34.9C36.6628 34.9 36.4619 34.8459 36.3249 34.7501L36.2102 34.9139C36.3933 35.0421 36.6403 35.1 36.9396 35.1V34.9ZM36.3249 34.7501C36.1813 34.6495 36.0776 34.5174 36.0127 34.3516L35.8264 34.4244C35.9055 34.6266 36.0339 34.7905 36.2102 34.9139L36.3249 34.7501ZM36.0127 34.3516C35.9448 34.1781 35.9027 33.9842 35.8873 33.7689L35.6878 33.7831C35.7044 34.0158 35.7503 34.2299 35.8264 34.4244L36.0127 34.3516ZM35.8875 33.7724C35.8795 33.5497 35.8756 33.3229 35.8756 33.092H35.6756C35.6756 33.3251 35.6796 33.5543 35.6876 33.7796L35.8875 33.7724ZM35.8756 33.092V30.368H35.6756V33.092H35.8756ZM35.7756 30.268H35.1036V30.468H35.7756V30.268ZM35.2036 30.368V29.96H35.0036V30.368H35.2036ZM35.1036 30.06H35.7756V29.86H35.1036V30.06ZM35.8756 29.96V28.892H35.6756V29.96H35.8756ZM35.8756 28.892C35.8756 28.7462 35.8541 28.6106 35.8097 28.4864L35.6214 28.5536C35.657 28.6534 35.6756 28.7658 35.6756 28.892H35.8756ZM35.8122 28.4942C35.7887 28.406 35.7329 28.3386 35.6529 28.2944C35.5761 28.2521 35.4798 28.2324 35.3716 28.2281L35.3636 28.4279C35.4553 28.4316 35.517 28.4479 35.5563 28.4696C35.5922 28.4894 35.6105 28.514 35.6189 28.5458L35.8122 28.4942ZM35.4676 28.328V28.208H35.2676V28.328H35.4676ZM35.398 28.3032L36.598 27.9192L36.5371 27.7288L35.3371 28.1128L35.398 28.3032ZM36.4676 27.824V29.96H36.6676V27.824H36.4676ZM36.5676 30.06H37.9116V29.86H36.5676V30.06ZM37.8116 29.96V30.368H38.0116V29.96H37.8116ZM37.9116 30.268H36.5676V30.468H37.9116V30.268ZM41.9306 34.88V34.78H41.8306V34.88H41.9306ZM42.1466 34.808L42.0759 34.7373L42.1466 34.808ZM42.2666 34.64L42.1814 34.5868L42.1772 34.5953L42.2666 34.64ZM42.3506 34.436L42.4483 34.4577L42.4487 34.4556L42.3506 34.436ZM42.3506 27.644L42.4482 27.6223L42.3506 27.644ZM42.2666 27.44L42.1743 27.481L42.1818 27.493L42.2666 27.44ZM42.1346 27.272L42.0639 27.3427L42.0698 27.3486L42.0765 27.3534L42.1346 27.272ZM41.9066 27.2H41.8066V27.3H41.9066V27.2ZM41.9066 27.08V26.98H41.8066V27.08H41.9066ZM45.6146 27.572L45.5527 27.6505L45.5534 27.6511L45.6146 27.572ZM46.1306 29.504L46.0389 29.4641L46.1306 29.504ZM45.8186 29.996L45.7438 29.9295L45.7418 29.932L45.8186 29.996ZM45.4226 30.368L45.4781 30.4513L45.4812 30.4491L45.4226 30.368ZM45.0146 30.608L44.9699 30.5186L44.7053 30.6509L44.9959 30.7062L45.0146 30.608ZM46.3946 31.46L46.3118 31.5163L46.3146 31.52L46.3946 31.46ZM46.5506 33.8L46.6385 33.8477L46.6391 33.8467L46.5506 33.8ZM45.9386 34.496L45.9965 34.5776L45.997 34.5772L45.9386 34.496ZM45.0746 34.88L45.0509 34.7828L45.0504 34.783L45.0746 34.88ZM41.9306 35H41.8306V35.1H41.9306V35ZM45.9626 32.816H46.0632L46.0621 32.8057L45.9626 32.816ZM45.3386 31.388L45.4077 31.3157L45.3386 31.388ZM43.1786 30.884V30.784H43.0786V30.884H43.1786ZM43.1786 34.604H43.0786V34.704H43.1786V34.604ZM45.3986 34.172L45.4603 34.2508L45.4605 34.2506L45.3986 34.172ZM45.4706 28.988H45.5708L45.5705 28.9828L45.4706 28.988ZM44.9786 27.884L44.911 27.9576L44.9119 27.9585L44.9786 27.884ZM43.1786 27.476V27.376H43.0786V27.476H43.1786ZM43.1786 30.5H43.0786V30.6H43.1786V30.5ZM44.6186 30.368L44.5809 30.2754L44.5797 30.2759L44.6186 30.368ZM45.1346 30.032L45.2075 30.1006L45.2094 30.0984L45.1346 30.032ZM45.3986 29.564L45.4948 29.5915V29.5915L45.3986 29.564ZM41.9306 34.98H41.9906V34.78H41.9306V34.98ZM41.9906 34.98C42.0786 34.98 42.1548 34.9412 42.2173 34.8787L42.0759 34.7373C42.0424 34.7708 42.0146 34.78 41.9906 34.78V34.98ZM42.2173 34.8787C42.2733 34.8227 42.3195 34.7578 42.3561 34.6847L42.1772 34.5953C42.1497 34.6502 42.1159 34.6973 42.0759 34.7373L42.2173 34.8787ZM42.3514 34.693C42.3973 34.6196 42.4297 34.541 42.4482 34.4577L42.253 34.4143C42.2395 34.475 42.2159 34.5324 42.1818 34.587L42.3514 34.693ZM42.4487 34.4556C42.4656 34.3708 42.4746 34.2921 42.4746 34.22H42.2746C42.2746 34.2759 42.2676 34.3412 42.2526 34.4164L42.4487 34.4556ZM42.4746 34.22V27.836H42.2746V34.22H42.4746ZM42.4746 27.836C42.4746 27.7708 42.4654 27.6993 42.4482 27.6223L42.253 27.6657C42.2679 27.7327 42.2746 27.7892 42.2746 27.836H42.4746ZM42.4482 27.6223C42.4297 27.539 42.3973 27.4604 42.3514 27.387L42.1818 27.493C42.2159 27.5476 42.2395 27.605 42.253 27.6657L42.4482 27.6223ZM42.358 27.3994C42.3198 27.3135 42.2653 27.2424 42.1927 27.1906L42.0765 27.3534C42.116 27.3816 42.1494 27.4225 42.1752 27.4806L42.358 27.3994ZM42.2053 27.2013C42.1398 27.1358 42.0589 27.1 41.9666 27.1V27.3C42.0024 27.3 42.0334 27.3122 42.0639 27.3427L42.2053 27.2013ZM41.9666 27.1H41.9066V27.3H41.9666V27.1ZM42.0066 27.2V27.08H41.8066V27.2H42.0066ZM41.9066 27.18H43.8746V26.98H41.9066V27.18ZM43.8746 27.18C44.6051 27.18 45.1603 27.3411 45.5527 27.6505L45.6765 27.4935C45.237 27.1469 44.6322 26.98 43.8746 26.98V27.18ZM45.5534 27.6511C45.9525 27.9598 46.1506 28.3664 46.1506 28.88H46.3506C46.3506 28.3056 46.1247 27.8402 45.6758 27.4929L45.5534 27.6511ZM46.1506 28.88C46.1506 29.1004 46.1127 29.2945 46.0389 29.4641L46.2223 29.5439C46.3086 29.3455 46.3506 29.1236 46.3506 28.88H46.1506ZM46.0389 29.4641C45.963 29.6388 45.8646 29.7938 45.7439 29.9296L45.8934 30.0624C46.0287 29.9102 46.1383 29.7372 46.2223 29.5439L46.0389 29.4641ZM45.7418 29.932C45.6269 30.0699 45.5009 30.1881 45.3641 30.2869L45.4812 30.4491C45.6323 30.3399 45.7704 30.2101 45.8954 30.06L45.7418 29.932ZM45.3672 30.2848C45.2259 30.379 45.0935 30.4567 44.9699 30.5186L45.0593 30.6974C45.1917 30.6313 45.3313 30.549 45.4781 30.4512L45.3672 30.2848ZM44.9959 30.7062C45.3219 30.7683 45.5883 30.8721 45.7985 31.0147L45.9108 30.8493C45.6729 30.6879 45.3793 30.5757 45.0333 30.5098L44.9959 30.7062ZM45.7985 31.0147C46.0133 31.1605 46.1838 31.3278 46.3119 31.5162L46.4773 31.4038C46.3334 31.1922 46.144 31.0075 45.9108 30.8493L45.7985 31.0147ZM46.3146 31.52C46.451 31.7018 46.545 31.8977 46.5976 32.1083L46.7916 32.0597C46.7323 31.8223 46.6263 31.6022 46.4746 31.4L46.3146 31.52ZM46.5976 32.1083C46.6518 32.3249 46.6786 32.5367 46.6786 32.744H46.8786C46.8786 32.5193 46.8495 32.2911 46.7916 32.0597L46.5976 32.1083ZM46.6786 32.744C46.6786 33.1481 46.6048 33.4832 46.4622 33.7533L46.6391 33.8467C46.8005 33.5408 46.8786 33.1719 46.8786 32.744H46.6786ZM46.4627 33.7523C46.3179 34.0192 46.1239 34.2397 45.8803 34.4148L45.997 34.5772C46.2654 34.3843 46.4794 34.1408 46.6385 33.8477L46.4627 33.7523ZM45.8807 34.4144C45.6441 34.5824 45.368 34.7055 45.0509 34.7828L45.0983 34.9772C45.4372 34.8945 45.7371 34.7616 45.9965 34.5776L45.8807 34.4144ZM45.0504 34.783C44.7386 34.8609 44.4148 34.9 44.0786 34.9V35.1C44.4305 35.1 44.7706 35.0591 45.0989 34.977L45.0504 34.783ZM44.0786 34.9H41.9306V35.1H44.0786V34.9ZM42.0306 35V34.88H41.8306V35H42.0306ZM46.0621 32.8057C45.9963 32.1726 45.7811 31.6721 45.4077 31.3157L45.2696 31.4603C45.6001 31.7759 45.8009 32.2274 45.8632 32.8263L46.0621 32.8057ZM45.4077 31.3157C45.0318 30.9569 44.508 30.784 43.8506 30.784V30.984C44.4733 30.984 44.9415 31.1471 45.2696 31.4603L45.4077 31.3157ZM43.8506 30.784H43.1786V30.984H43.8506V30.784ZM43.0786 30.884V34.604H43.2786V30.884H43.0786ZM43.1786 34.704H43.8746V34.504H43.1786V34.704ZM43.8746 34.704C44.5365 34.704 45.069 34.557 45.4603 34.2508L45.337 34.0932C44.9923 34.363 44.5088 34.504 43.8746 34.504V34.704ZM45.4605 34.2506C45.8629 33.9338 46.0626 33.4956 46.0626 32.948H45.8626C45.8626 33.4404 45.6864 33.8182 45.3368 34.0934L45.4605 34.2506ZM46.0626 32.948V32.816H45.8626V32.948H46.0626ZM45.5705 28.9828C45.5453 28.4962 45.372 28.1018 45.0453 27.8095L44.9119 27.9585C45.1933 28.2102 45.3479 28.5518 45.3708 28.9932L45.5705 28.9828ZM45.0463 27.8104C44.7275 27.5174 44.3011 27.376 43.7786 27.376V27.576C44.2642 27.576 44.6378 27.7066 44.911 27.9576L45.0463 27.8104ZM43.7786 27.376H43.1786V27.576H43.7786V27.376ZM43.0786 27.476V30.5H43.2786V27.476H43.0786ZM43.1786 30.6H43.8026V30.4H43.1786V30.6ZM43.8026 30.6C44.1461 30.6 44.4328 30.5552 44.6576 30.4601L44.5797 30.2759C44.3885 30.3568 44.1312 30.4 43.8026 30.4V30.6ZM44.6564 30.4606C44.8824 30.3685 45.0675 30.2492 45.2074 30.1005L45.0618 29.9635C44.9458 30.0868 44.7868 30.1915 44.5809 30.2754L44.6564 30.4606ZM45.2094 30.0984C45.3463 29.9444 45.4422 29.7753 45.4948 29.5915L45.3025 29.5365C45.259 29.6887 45.179 29.8316 45.0599 29.9656L45.2094 30.0984ZM45.4948 29.5915C45.5451 29.4154 45.5706 29.2421 45.5706 29.072H45.3706C45.3706 29.2219 45.3482 29.3766 45.3025 29.5365L45.4948 29.5915ZM45.5706 29.072V28.988H45.3706V29.072H45.5706Z" fill="black"/>
</svg>
