<svg width="44" height="44" viewBox="0 0 44 44" fill="none" xmlns="http://www.w3.org/2000/svg">
  <rect x="0.75" y="0.75" width="42.5" height="42.5" rx="3.25" stroke="#5B43EA" stroke-opacity="0.5" stroke-width="1.5"/>
  <path d="M11.06 37.084C10.66 37.084 10.3 37.02 9.98 36.892C9.66 36.756 9.384 36.576 9.152 36.352C8.928 36.12 8.752 35.848 8.624 35.536C8.504 35.224 8.444 34.884 8.444 34.516C8.444 34.124 8.512 33.768 8.648 33.448C8.784 33.12 8.972 32.84 9.212 32.608C9.452 32.376 9.736 32.196 10.064 32.068C10.392 31.94 10.748 31.876 11.132 31.876C11.516 31.876 11.868 31.94 12.188 32.068C12.508 32.188 12.784 32.36 13.016 32.584C13.248 32.808 13.428 33.076 13.556 33.388C13.684 33.692 13.748 34.028 13.748 34.396C13.748 34.74 13.688 35.076 13.568 35.404C13.456 35.724 13.284 36.008 13.052 36.256C12.828 36.504 12.548 36.704 12.212 36.856C11.884 37.008 11.5 37.084 11.06 37.084ZM10.988 32.272C10.7 32.288 10.444 32.36 10.22 32.488C10.004 32.608 9.82 32.768 9.668 32.968C9.524 33.16 9.412 33.38 9.332 33.628C9.26 33.876 9.224 34.128 9.224 34.384C9.224 34.68 9.268 34.968 9.356 35.248C9.452 35.52 9.584 35.764 9.752 35.98C9.928 36.196 10.136 36.368 10.376 36.496C10.616 36.624 10.884 36.688 11.18 36.688C11.476 36.688 11.736 36.624 11.96 36.496C12.192 36.368 12.384 36.204 12.536 36.004C12.688 35.796 12.8 35.564 12.872 35.308C12.952 35.052 12.992 34.796 12.992 34.54C12.992 34.276 12.952 34.012 12.872 33.748C12.792 33.476 12.668 33.232 12.5 33.016C12.332 32.792 12.12 32.612 11.864 32.476C11.616 32.34 11.324 32.272 10.988 32.272ZM17.3773 31.876C17.8093 31.876 18.1813 31.952 18.4933 32.104C18.8133 32.248 19.0773 32.44 19.2853 32.68C19.5013 32.92 19.6613 33.196 19.7653 33.508C19.8693 33.82 19.9213 34.14 19.9213 34.468C19.9213 34.788 19.8693 35.104 19.7653 35.416C19.6693 35.728 19.5173 36.008 19.3093 36.256C19.1093 36.504 18.8573 36.704 18.5533 36.856C18.2493 37.008 17.8893 37.084 17.4733 37.084C17.2253 37.084 16.9693 37.02 16.7053 36.892C16.4493 36.756 16.2173 36.588 16.0093 36.388V38.74C16.0093 38.804 16.0173 38.872 16.0333 38.944C16.0493 39.024 16.0733 39.096 16.1053 39.16C16.1453 39.224 16.1853 39.28 16.2253 39.328C16.2733 39.376 16.3293 39.4 16.3933 39.4V39.52H14.8333V39.4C14.8893 39.4 14.9413 39.376 14.9893 39.328C15.0373 39.28 15.0773 39.224 15.1093 39.16C15.1493 39.096 15.1773 39.024 15.1933 38.944C15.2093 38.872 15.2173 38.804 15.2173 38.74L15.2173 32.668C15.2173 32.596 15.2133 32.528 15.2053 32.464C15.2053 32.392 15.1933 32.332 15.1693 32.284C15.1453 32.228 15.1053 32.184 15.0493 32.152C15.0013 32.112 14.9293 32.088 14.8333 32.08V31.96H16.0093V32.488C16.1693 32.296 16.3613 32.148 16.5853 32.044C16.8173 31.932 17.0813 31.876 17.3773 31.876ZM17.4853 36.676C17.7653 36.668 18.0093 36.604 18.2173 36.484C18.4253 36.364 18.5973 36.208 18.7333 36.016C18.8693 35.824 18.9693 35.612 19.0333 35.38C19.0973 35.14 19.1293 34.892 19.1293 34.636C19.1293 34.348 19.0893 34.064 19.0093 33.784C18.9293 33.504 18.8133 33.256 18.6613 33.04C18.5093 32.816 18.3213 32.636 18.0973 32.5C17.8813 32.356 17.6333 32.284 17.3533 32.284C17.1853 32.284 17.0173 32.316 16.8493 32.38C16.6893 32.444 16.5453 32.536 16.4173 32.656C16.2973 32.776 16.1973 32.92 16.1173 33.088C16.0453 33.248 16.0093 33.428 16.0093 33.628V35.2C16.0093 35.416 16.0533 35.616 16.1413 35.8C16.2293 35.976 16.3413 36.132 16.4773 36.268C16.6213 36.396 16.7813 36.496 16.9573 36.568C17.1333 36.64 17.3093 36.676 17.4853 36.676ZM22.173 32.368V35.26C22.173 35.468 22.177 35.656 22.185 35.824C22.193 35.992 22.213 36.132 22.245 36.244C22.277 36.356 22.325 36.444 22.389 36.508C22.453 36.564 22.541 36.592 22.653 36.592C22.821 36.592 22.977 36.512 23.121 36.352C23.273 36.192 23.369 36 23.409 35.776H23.517V36.652C23.445 36.652 23.385 36.676 23.337 36.724C23.273 36.78 23.181 36.84 23.061 36.904C22.949 36.968 22.777 37 22.545 37C22.257 37 22.033 36.944 21.873 36.832C21.713 36.72 21.597 36.572 21.525 36.388C21.453 36.204 21.409 36 21.393 35.776C21.385 35.552 21.381 35.324 21.381 35.092V32.368H20.709V31.96H21.381V30.892C21.381 30.756 21.361 30.632 21.321 30.52C21.289 30.4 21.173 30.336 20.973 30.328V30.208L22.173 29.824V31.96H23.517V32.368H22.173ZM24.5869 37V36.88C24.6509 36.88 24.7069 36.856 24.7549 36.808C24.8029 36.76 24.8429 36.704 24.8749 36.64C24.9069 36.576 24.9309 36.508 24.9469 36.436C24.9629 36.356 24.9709 36.284 24.9709 36.22V32.896C24.9709 32.76 24.9509 32.632 24.9109 32.512C24.8709 32.384 24.7549 32.316 24.5629 32.308V32.2L25.7629 31.816V36.22C25.7629 36.284 25.7709 36.356 25.7869 36.436C25.8029 36.508 25.8269 36.576 25.8589 36.64C25.8909 36.704 25.9309 36.76 25.9789 36.808C26.0269 36.856 26.0829 36.88 26.1469 36.88V37H24.5869ZM24.6469 30.664C24.6469 30.504 24.6989 30.368 24.8029 30.256C24.9149 30.144 25.0509 30.088 25.2109 30.088C25.3709 30.088 25.5069 30.144 25.6189 30.256C25.7309 30.368 25.7869 30.504 25.7869 30.664C25.7869 30.824 25.7309 30.956 25.6189 31.06C25.5069 31.164 25.3709 31.216 25.2109 31.216C25.0509 31.216 24.9149 31.164 24.8029 31.06C24.6989 30.956 24.6469 30.824 24.6469 30.664ZM29.9506 37.084C29.5506 37.084 29.1906 37.02 28.8706 36.892C28.5506 36.756 28.2746 36.576 28.0426 36.352C27.8186 36.12 27.6426 35.848 27.5146 35.536C27.3946 35.224 27.3346 34.884 27.3346 34.516C27.3346 34.124 27.4026 33.768 27.5386 33.448C27.6746 33.12 27.8626 32.84 28.1026 32.608C28.3426 32.376 28.6266 32.196 28.9546 32.068C29.2826 31.94 29.6386 31.876 30.0226 31.876C30.4066 31.876 30.7586 31.94 31.0786 32.068C31.3986 32.188 31.6746 32.36 31.9066 32.584C32.1386 32.808 32.3186 33.076 32.4466 33.388C32.5746 33.692 32.6386 34.028 32.6386 34.396C32.6386 34.74 32.5786 35.076 32.4586 35.404C32.3466 35.724 32.1746 36.008 31.9426 36.256C31.7186 36.504 31.4386 36.704 31.1026 36.856C30.7746 37.008 30.3906 37.084 29.9506 37.084ZM29.8786 32.272C29.5906 32.288 29.3346 32.36 29.1106 32.488C28.8946 32.608 28.7106 32.768 28.5586 32.968C28.4146 33.16 28.3026 33.38 28.2226 33.628C28.1506 33.876 28.1146 34.128 28.1146 34.384C28.1146 34.68 28.1586 34.968 28.2466 35.248C28.3426 35.52 28.4746 35.764 28.6426 35.98C28.8186 36.196 29.0266 36.368 29.2666 36.496C29.5066 36.624 29.7746 36.688 30.0706 36.688C30.3666 36.688 30.6266 36.624 30.8506 36.496C31.0826 36.368 31.2746 36.204 31.4266 36.004C31.5786 35.796 31.6906 35.564 31.7626 35.308C31.8426 35.052 31.8826 34.796 31.8826 34.54C31.8826 34.276 31.8426 34.012 31.7626 33.748C31.6826 33.476 31.5586 33.232 31.3906 33.016C31.2226 32.792 31.0106 32.612 30.7546 32.476C30.5066 32.34 30.2146 32.272 29.8786 32.272ZM38.5359 36.22C38.5359 36.284 38.5439 36.356 38.5599 36.436C38.5759 36.508 38.5999 36.576 38.6319 36.64C38.6719 36.704 38.7119 36.76 38.7519 36.808C38.7999 36.856 38.8559 36.88 38.9199 36.88V37H37.3719V36.88C37.4279 36.88 37.4799 36.856 37.5279 36.808C37.5759 36.76 37.6159 36.704 37.6479 36.64C37.6879 36.576 37.7159 36.508 37.7319 36.436C37.7479 36.356 37.7559 36.284 37.7559 36.22V33.988C37.7559 33.7 37.7159 33.448 37.6359 33.232C37.5559 33.016 37.4479 32.836 37.3119 32.692C37.1759 32.548 37.0199 32.444 36.8439 32.38C36.6759 32.308 36.5039 32.272 36.3279 32.272C36.1519 32.272 35.9759 32.308 35.7999 32.38C35.6319 32.452 35.4799 32.548 35.3439 32.668C35.2159 32.78 35.1079 32.916 35.0199 33.076C34.9399 33.228 34.8999 33.388 34.8999 33.556V36.22C34.8999 36.284 34.9079 36.356 34.9239 36.436C34.9399 36.508 34.9639 36.576 34.9959 36.64C35.0359 36.704 35.0759 36.76 35.1159 36.808C35.1639 36.856 35.2199 36.88 35.2839 36.88V37H33.7239V36.88C33.7799 36.88 33.8319 36.856 33.8799 36.808C33.9279 36.76 33.9679 36.704 33.9999 36.64C34.0399 36.576 34.0679 36.508 34.0839 36.436C34.0999 36.356 34.1079 36.284 34.1079 36.22V32.908C34.1079 32.772 34.0879 32.644 34.0479 32.524C34.0079 32.396 33.8919 32.328 33.6999 32.32V32.212L34.8999 31.828V32.488C34.9559 32.424 35.0279 32.356 35.1159 32.284C35.2039 32.204 35.3079 32.132 35.4279 32.068C35.5559 31.996 35.6999 31.94 35.8599 31.9C36.0279 31.852 36.2239 31.828 36.4479 31.828C36.8239 31.828 37.1439 31.892 37.4079 32.02C37.6719 32.148 37.8879 32.316 38.0559 32.524C38.2239 32.724 38.3439 32.948 38.4159 33.196C38.4959 33.436 38.5359 33.672 38.5359 33.904V36.22Z" fill="black"/>
  <path d="M9.98 36.892L9.94088 36.9841L9.94286 36.9848L9.98 36.892ZM9.152 36.352L9.08002 36.4215L9.08254 36.4239L9.152 36.352ZM8.624 35.536L8.53064 35.5719L8.53148 35.574L8.624 35.536ZM8.648 33.448L8.74004 33.4871L8.74037 33.4863L8.648 33.448ZM9.212 32.608L9.1425 32.5361H9.1425L9.212 32.608ZM10.064 32.068L10.0276 31.9748L10.064 32.068ZM12.188 32.068L12.1509 32.1609L12.1529 32.1616L12.188 32.068ZM13.016 32.584L13.0855 32.5121L13.016 32.584ZM13.556 33.388L13.4635 33.426L13.4638 33.4268L13.556 33.388ZM13.568 35.404L13.4741 35.3696L13.4736 35.371L13.568 35.404ZM13.052 36.256L12.979 36.1877L12.9778 36.189L13.052 36.256ZM12.212 36.856L12.1708 36.7649L12.17 36.7653L12.212 36.856ZM10.988 32.272V32.1718L10.9825 32.1722L10.988 32.272ZM10.22 32.488L10.2686 32.5754L10.2696 32.5748L10.22 32.488ZM9.668 32.968L9.58838 32.9075L9.588 32.908L9.668 32.968ZM9.332 33.628L9.23679 33.5973L9.23597 33.6001L9.332 33.628ZM9.356 35.248L9.26054 35.278L9.2617 35.2813L9.356 35.248ZM9.752 35.98L9.67304 36.0414L9.67448 36.0432L9.752 35.98ZM10.376 36.496L10.4231 36.4078L10.376 36.496ZM11.96 36.496L11.9117 36.4084L11.9104 36.4092L11.96 36.496ZM12.536 36.004L12.6156 36.0645L12.6167 36.063L12.536 36.004ZM12.872 35.308L12.7765 35.2782L12.7757 35.2809L12.872 35.308ZM12.872 33.748L12.7761 33.7762L12.7763 33.777L12.872 33.748ZM12.5 33.016L12.42 33.076L12.4211 33.0774L12.5 33.016ZM11.864 32.476L11.8159 32.5637L11.8171 32.5643L11.864 32.476ZM11.06 36.984C10.6707 36.984 10.3236 36.9217 10.0171 36.7992L9.94286 36.9848C10.2764 37.1183 10.6493 37.184 11.06 37.184V36.984ZM10.0191 36.8C9.70949 36.6684 9.44399 36.4949 9.22146 36.2801L9.08254 36.4239C9.32401 36.6571 9.61051 36.8436 9.94089 36.984L10.0191 36.8ZM9.22394 36.2825C9.00913 36.0601 8.83994 35.7989 8.71652 35.498L8.53148 35.574C8.66406 35.8971 8.84687 36.1799 9.08006 36.4215L9.22394 36.2825ZM8.71733 35.5001C8.60216 35.2007 8.544 34.873 8.544 34.516H8.344C8.344 34.895 8.40584 35.2473 8.53067 35.5719L8.71733 35.5001ZM8.544 34.516C8.544 34.1357 8.60992 33.7933 8.74003 33.4871L8.55597 33.4089C8.41408 33.7427 8.344 34.1123 8.344 34.516H8.544ZM8.74037 33.4863C8.87147 33.1701 9.05196 32.9018 9.2815 32.6799L9.1425 32.5361C8.89204 32.7782 8.69653 33.0699 8.55563 33.4097L8.74037 33.4863ZM9.2815 32.6799C9.51145 32.4576 9.78402 32.2846 10.1004 32.1612L10.0276 31.9748C9.68798 32.1074 9.39255 32.2944 9.1425 32.5361L9.2815 32.6799ZM10.1004 32.1612C10.4158 32.0381 10.7593 31.976 11.132 31.976V31.776C10.7367 31.776 10.3682 31.8419 10.0276 31.9748L10.1004 32.1612ZM11.132 31.976C11.5047 31.976 11.8439 32.0381 12.1509 32.1608L12.2251 31.9752C11.8921 31.8419 11.5273 31.776 11.132 31.776V31.976ZM12.1529 32.1616C12.4609 32.2771 12.725 32.442 12.9465 32.6559L13.0855 32.5121C12.843 32.278 12.5551 32.0989 12.2231 31.9744L12.1529 32.1616ZM12.9465 32.6559C13.1681 32.8699 13.3405 33.1262 13.4635 33.426L13.6485 33.35C13.5155 33.0258 13.3279 32.7461 13.0855 32.5121L12.9465 32.6559ZM13.4638 33.4268C13.5861 33.7172 13.648 34.0398 13.648 34.396H13.848C13.848 34.0162 13.7819 33.6668 13.6482 33.3492L13.4638 33.4268ZM13.648 34.396C13.648 34.7281 13.5901 35.0525 13.4741 35.3696L13.6619 35.4384C13.7859 35.0995 13.848 34.7519 13.848 34.396H13.648ZM13.4736 35.371C13.3662 35.6778 13.2015 35.9498 12.979 36.1877L13.125 36.3243C13.3665 36.0662 13.5458 35.7702 13.6624 35.437L13.4736 35.371ZM12.9778 36.189C12.7639 36.4257 12.4956 36.618 12.1708 36.7649L12.2532 36.9471C12.6004 36.79 12.8921 36.5823 13.1262 36.323L12.9778 36.189ZM12.17 36.7653C11.8577 36.91 11.4886 36.984 11.06 36.984V37.184C11.5114 37.184 11.9103 37.106 12.254 36.9467L12.17 36.7653ZM10.9825 32.1722C10.6808 32.1889 10.4094 32.2646 10.1704 32.4012L10.2696 32.5748C10.4786 32.4554 10.7192 32.3871 10.9935 32.3718L10.9825 32.1722ZM10.1714 32.4006C9.94313 32.5274 9.74862 32.6967 9.58838 32.9075L9.74762 33.0285C9.89138 32.8393 10.0649 32.6886 10.2686 32.5754L10.1714 32.4006ZM9.588 32.908C9.43681 33.1096 9.31994 33.3397 9.23683 33.5973L9.42717 33.6587C9.50406 33.4203 9.61119 33.2104 9.748 33.028L9.588 32.908ZM9.23597 33.6001C9.16136 33.8571 9.124 34.1185 9.124 34.384H9.324C9.324 34.1375 9.35864 33.8949 9.42803 33.6559L9.23597 33.6001ZM9.124 34.384C9.124 34.6901 9.16953 34.9882 9.2606 35.278L9.4514 35.218C9.36647 34.9478 9.324 34.6699 9.324 34.384H9.124ZM9.2617 35.2813C9.36108 35.5629 9.49812 35.8165 9.67306 36.0414L9.83094 35.9186C9.66988 35.7115 9.54292 35.4771 9.4503 35.2147L9.2617 35.2813ZM9.67448 36.0432C9.85866 36.2692 10.0769 36.4498 10.3289 36.5842L10.4231 36.4078C10.1951 36.2862 9.99734 36.1228 9.82952 35.9168L9.67448 36.0432ZM10.3289 36.5842C10.5847 36.7206 10.8691 36.788 11.18 36.788V36.588C10.8989 36.588 10.6473 36.5274 10.4231 36.4078L10.3289 36.5842ZM11.18 36.788C11.4908 36.788 11.7684 36.7207 12.0096 36.5828L11.9104 36.4092C11.7036 36.5273 11.4612 36.588 11.18 36.588V36.788ZM12.0083 36.5836C12.2518 36.4492 12.4547 36.2762 12.6156 36.0645L12.4564 35.9435C12.3133 36.1318 12.1322 36.2868 11.9117 36.4084L12.0083 36.5836ZM12.6167 36.063C12.776 35.8451 12.8931 35.6022 12.9683 35.3351L12.7757 35.2809C12.7069 35.5258 12.6 35.7469 12.4553 35.945L12.6167 36.063ZM12.9674 35.3378C13.0503 35.0726 13.092 34.8066 13.092 34.54H12.892C12.892 34.7854 12.8537 35.0314 12.7766 35.2782L12.9674 35.3378ZM13.092 34.54C13.092 34.2657 13.0504 33.992 12.9677 33.719L12.7763 33.777C12.8536 34.032 12.892 34.2863 12.892 34.54H13.092ZM12.9679 33.7198C12.8845 33.4362 12.7549 33.1809 12.5789 32.9546L12.4211 33.0774C12.5811 33.2831 12.6995 33.5158 12.7761 33.7762L12.9679 33.7198ZM12.58 32.956C12.4029 32.7198 12.1794 32.5303 11.9109 32.3877L11.8171 32.5643C12.0606 32.6937 12.2611 32.8642 12.42 33.076L12.58 32.956ZM11.9121 32.3883C11.6468 32.2428 11.3377 32.172 10.988 32.172V32.372C11.3104 32.372 11.5852 32.4372 11.8159 32.5637L11.9121 32.3883ZM18.4932 32.104L18.4494 32.1939L18.4522 32.1952L18.4932 32.104ZM19.2853 32.68L19.2097 32.7455L19.2109 32.7469L19.2853 32.68ZM19.7653 33.508L19.6704 33.5396L19.7653 33.508ZM19.7653 35.416L19.6704 35.3844L19.6697 35.3866L19.7653 35.416ZM19.3092 36.256L19.2326 36.1917L19.2314 36.1932L19.3092 36.256ZM18.5533 36.856L18.5085 36.7666L18.5533 36.856ZM16.7052 36.892L16.6583 36.9804L16.6616 36.982L16.7052 36.892ZM16.0092 36.388L16.0786 36.3159L15.9093 36.1531V36.388H16.0092ZM16.0332 38.944L16.1313 38.9244L16.1309 38.9223L16.0332 38.944ZM16.1053 39.16L16.0154 39.2049L16.0205 39.213L16.1053 39.16ZM16.2253 39.328L16.1481 39.3923L16.1545 39.3987L16.2253 39.328ZM16.3933 39.4H16.4932V39.3H16.3933V39.4ZM16.3933 39.52V39.62H16.4932V39.52H16.3933ZM14.8333 39.52H14.7333V39.62H14.8333V39.52ZM14.8333 39.4V39.3H14.7333V39.4H14.8333ZM15.1093 39.16L15.0241 39.1068L15.0198 39.1153L15.1093 39.16ZM15.1933 38.944L15.0956 38.9223L15.0952 38.9244L15.1933 38.944ZM15.2053 32.464H15.1045L15.106 32.4764L15.2053 32.464ZM15.1693 32.284L15.0772 32.3235L15.0798 32.3287L15.1693 32.284ZM15.0493 32.152L14.9852 32.2288L14.992 32.2345L14.9996 32.2388L15.0493 32.152ZM14.8333 32.08H14.7333V32.172L14.8249 32.1797L14.8333 32.08ZM14.8333 31.96V31.86H14.7333V31.96H14.8333ZM16.0092 31.96H16.1093V31.86H16.0092V31.96ZM16.0092 32.488H15.9093V32.7642L16.0861 32.552L16.0092 32.488ZM16.5852 32.044L16.6274 32.1347L16.6287 32.1341L16.5852 32.044ZM17.4853 36.676V36.776L17.4881 36.776L17.4853 36.676ZM18.7333 36.016L18.8149 36.0738L18.7333 36.016ZM19.0333 35.38L19.1297 35.4066L19.1299 35.4058L19.0333 35.38ZM19.0093 33.784L19.1054 33.7565L19.0093 33.784ZM18.6613 33.04L18.5785 33.0962L18.5795 33.0975L18.6613 33.04ZM18.0972 32.5L18.0417 32.5833L18.0454 32.5855L18.0972 32.5ZM16.8492 32.38L16.8136 32.2865L16.8121 32.2872L16.8492 32.38ZM16.4172 32.656L16.3488 32.583L16.3465 32.5853L16.4172 32.656ZM16.1173 33.088L16.0269 33.045L16.0261 33.047L16.1173 33.088ZM16.1412 35.8L16.051 35.8432L16.0518 35.8447L16.1412 35.8ZM16.4773 36.268L16.4064 36.3388L16.4108 36.3427L16.4773 36.268ZM16.9572 36.568L16.9951 36.4754L16.9572 36.568ZM17.3773 31.976C17.7977 31.976 18.154 32.05 18.4495 32.1939L18.537 32.0141C18.2085 31.854 17.8208 31.776 17.3773 31.776V31.976ZM18.4522 32.1952C18.7604 32.3339 19.0121 32.5176 19.2097 32.7455L19.3608 32.6145C19.1424 32.3624 18.8661 32.1621 18.5343 32.0128L18.4522 32.1952ZM19.2109 32.7469C19.4175 32.9765 19.5706 33.2404 19.6704 33.5396L19.8601 33.4764C19.7519 33.1516 19.585 32.8635 19.3596 32.6131L19.2109 32.7469ZM19.6704 33.5396C19.771 33.8415 19.8212 34.1508 19.8212 34.468H20.0213C20.0213 34.1292 19.9675 33.7985 19.8601 33.4764L19.6704 33.5396ZM19.8212 34.468C19.8212 34.777 19.7711 35.0823 19.6704 35.3844L19.8601 35.4476C19.9674 35.1257 20.0213 34.799 20.0213 34.468H19.8212ZM19.6697 35.3866C19.5776 35.6859 19.432 35.9541 19.2326 36.1917L19.3859 36.3203C19.6025 36.0619 19.7609 35.7701 19.8608 35.4454L19.6697 35.3866ZM19.2314 36.1932C19.041 36.4293 18.8006 36.6205 18.5085 36.7666L18.598 36.9454C18.9139 36.7875 19.1775 36.5787 19.3871 36.3188L19.2314 36.1932ZM18.5085 36.7666C18.2212 36.9102 17.8771 36.984 17.4733 36.984V37.184C17.9014 37.184 18.2773 37.1058 18.598 36.9454L18.5085 36.7666ZM17.4733 36.984C17.2429 36.984 17.0017 36.9246 16.7489 36.802L16.6616 36.982C16.9368 37.1154 17.2076 37.184 17.4733 37.184V36.984ZM16.7522 36.8037C16.5043 36.672 16.2799 36.5095 16.0786 36.3159L15.9399 36.4601C16.1546 36.6665 16.3942 36.84 16.6583 36.9803L16.7522 36.8037ZM15.9093 36.388V38.74H16.1093V36.388H15.9093ZM15.9093 38.74C15.9093 38.8123 15.9183 38.8876 15.9356 38.9657L16.1309 38.9223C16.1162 38.8564 16.1093 38.7957 16.1093 38.74H15.9093ZM15.9352 38.9636C15.9527 39.0511 15.9793 39.1318 16.0158 39.2047L16.1947 39.1153C16.1672 39.0602 16.1458 38.9969 16.1313 38.9244L15.9352 38.9636ZM16.0205 39.213C16.0624 39.2801 16.105 39.3399 16.1484 39.392L16.3021 39.264C16.2655 39.2201 16.2281 39.1679 16.1901 39.107L16.0205 39.213ZM16.1545 39.3987C16.22 39.4642 16.301 39.5 16.3933 39.5V39.3C16.3575 39.3 16.3265 39.2878 16.296 39.2573L16.1545 39.3987ZM16.2933 39.4V39.52H16.4932V39.4H16.2933ZM16.3933 39.42H14.8333V39.62H16.3933V39.42ZM14.9332 39.52V39.4H14.7333V39.52H14.9332ZM14.8333 39.5C14.9212 39.5 14.9975 39.4612 15.06 39.3987L14.9185 39.2573C14.885 39.2908 14.8573 39.3 14.8333 39.3V39.5ZM15.06 39.3987C15.116 39.3427 15.1621 39.2778 15.1987 39.2047L15.0198 39.1153C14.9924 39.1702 14.9585 39.2173 14.9185 39.2573L15.06 39.3987ZM15.194 39.213C15.2409 39.138 15.2731 39.0545 15.2913 38.9636L15.0952 38.9244C15.0814 38.9935 15.0576 39.054 15.0245 39.107L15.194 39.213ZM15.2909 38.9657C15.3082 38.8876 15.3173 38.8123 15.3173 38.74H15.1172C15.1172 38.7957 15.1103 38.8564 15.0956 38.9223L15.2909 38.9657ZM15.3173 38.74L15.3173 32.668H15.1172L15.1172 38.74H15.3173ZM15.3173 32.668C15.3173 32.5923 15.313 32.5202 15.3045 32.4516L15.106 32.4764C15.1135 32.5358 15.1172 32.5997 15.1172 32.668H15.3173ZM15.3053 32.464C15.3053 32.3815 15.2916 32.3051 15.2587 32.2393L15.0798 32.3287C15.0949 32.3589 15.1052 32.4025 15.1052 32.464H15.3053ZM15.2612 32.2446C15.2281 32.1674 15.1726 32.1073 15.0989 32.0652L14.9996 32.2388C15.0379 32.2607 15.0624 32.2886 15.0773 32.3234L15.2612 32.2446ZM15.1133 32.0752C15.043 32.0167 14.9477 31.9892 14.8416 31.9803L14.8249 32.1797C14.9108 32.1868 14.9595 32.2073 14.9852 32.2288L15.1133 32.0752ZM14.9332 32.08V31.96H14.7333V32.08H14.9332ZM14.8333 32.06H16.0092V31.86H14.8333V32.06ZM15.9093 31.96V32.488H16.1093V31.96H15.9093ZM16.0861 32.552C16.2367 32.3712 16.4169 32.2324 16.6274 32.1347L16.5431 31.9533C16.3056 32.0636 16.1018 32.2208 15.9324 32.424L16.0861 32.552ZM16.6287 32.1341C16.8453 32.0295 17.0941 31.976 17.3773 31.976V31.776C17.0684 31.776 16.7892 31.8345 16.5418 31.9539L16.6287 32.1341ZM17.4881 36.776C17.7819 36.7676 18.0426 36.7002 18.2672 36.5706L18.1673 36.3974C17.9759 36.5078 17.7486 36.5684 17.4824 36.576L17.4881 36.776ZM18.2672 36.5706C18.4875 36.4436 18.6703 36.2778 18.8149 36.0738L18.6516 35.9582C18.5242 36.1382 18.363 36.2844 18.1673 36.3974L18.2672 36.5706ZM18.8149 36.0738C18.9577 35.8721 19.0626 35.6495 19.1296 35.4066L18.9369 35.3534C18.8759 35.5745 18.7808 35.7759 18.6516 35.9582L18.8149 36.0738ZM19.1299 35.4058C19.1962 35.1571 19.2292 34.9004 19.2292 34.636H19.0293C19.0293 34.8836 18.9983 35.1229 18.9366 35.3542L19.1299 35.4058ZM19.2292 34.636C19.2292 34.3386 19.1879 34.0454 19.1054 33.7565L18.9131 33.8115C18.9906 34.0826 19.0293 34.3574 19.0293 34.636H19.2292ZM19.1054 33.7565C19.0226 33.4669 18.9021 33.2085 18.743 32.9825L18.5795 33.0975C18.7244 33.3035 18.8359 33.5411 18.9131 33.8115L19.1054 33.7565ZM18.744 32.9838C18.5842 32.7484 18.3858 32.5582 18.1491 32.4145L18.0454 32.5855C18.2567 32.7138 18.4343 32.8836 18.5785 33.0961L18.744 32.9838ZM18.1527 32.4168C17.919 32.261 17.6514 32.184 17.3533 32.184V32.384C17.6151 32.384 17.8435 32.451 18.0418 32.5832L18.1527 32.4168ZM17.3533 32.184C17.1723 32.184 16.9922 32.2185 16.8137 32.2866L16.8848 32.4734C17.0423 32.4135 17.1982 32.384 17.3533 32.384V32.184ZM16.8121 32.2872C16.6403 32.3559 16.4858 32.4547 16.3489 32.583L16.4856 32.729C16.6047 32.6173 16.7382 32.5321 16.8864 32.4728L16.8121 32.2872ZM16.3465 32.5853C16.2177 32.7141 16.1114 32.8677 16.027 33.045L16.2075 33.131C16.2831 32.9723 16.3768 32.8379 16.488 32.7267L16.3465 32.5853ZM16.0261 33.047C15.9475 33.2216 15.9093 33.4158 15.9093 33.628H16.1093C16.1093 33.4402 16.143 33.2744 16.2084 33.129L16.0261 33.047ZM15.9093 33.628V35.2H16.1093V33.628H15.9093ZM15.9093 35.2C15.9093 35.43 15.9562 35.6449 16.051 35.8431L16.2315 35.7569C16.1503 35.5871 16.1093 35.402 16.1093 35.2H15.9093ZM16.0518 35.8447C16.1445 36.0301 16.2628 36.1949 16.4065 36.3387L16.548 36.1973C16.4197 36.0691 16.314 35.9219 16.2307 35.7553L16.0518 35.8447ZM16.4108 36.3427C16.5631 36.4782 16.7328 36.5842 16.9194 36.6606L16.9951 36.4754C16.8297 36.4078 16.6794 36.3138 16.5437 36.1933L16.4108 36.3427ZM16.9194 36.6606C17.1064 36.7371 17.2953 36.776 17.4853 36.776V36.576C17.3232 36.576 17.1601 36.5429 16.9951 36.4754L16.9194 36.6606ZM22.173 32.368V32.268H22.073V32.368H22.173ZM22.245 36.244L22.1489 36.2715L22.245 36.244ZM22.389 36.508L22.3182 36.5789L22.3232 36.5833L22.389 36.508ZM23.121 36.352L23.0485 36.2831L23.0467 36.2851L23.121 36.352ZM23.409 35.776V35.676H23.3253L23.3106 35.7584L23.409 35.776ZM23.517 35.776H23.617V35.676H23.517V35.776ZM23.517 36.652V36.752H23.617V36.652H23.517ZM23.337 36.724L23.403 36.7994L23.4077 36.7947L23.337 36.724ZM23.061 36.904L23.014 36.8157L23.0114 36.8172L23.061 36.904ZM21.525 36.388L21.4319 36.4244V36.4244L21.525 36.388ZM21.393 35.776L21.293 35.7796L21.2933 35.7831L21.393 35.776ZM21.381 32.368H21.481V32.268H21.381V32.368ZM20.709 32.368H20.609V32.468H20.709V32.368ZM20.709 31.96V31.86H20.609V31.96H20.709ZM21.381 31.96V32.06H21.481V31.96H21.381ZM21.321 30.52L21.2241 30.5459L21.2269 30.5536L21.321 30.52ZM20.973 30.328H20.873V30.4241L20.969 30.4279L20.973 30.328ZM20.973 30.208L20.9426 30.1128L20.873 30.135V30.208H20.973ZM22.173 29.824H22.273V29.687L22.1426 29.7288L22.173 29.824ZM22.173 31.96H22.073V32.06H22.173V31.96ZM23.517 31.96H23.617V31.86H23.517V31.96ZM23.517 32.368V32.468H23.617V32.368H23.517ZM22.073 32.368V35.26H22.273V32.368H22.073ZM22.073 35.26C22.073 35.4692 22.0771 35.6589 22.0851 35.8288L22.2849 35.8192C22.277 35.6531 22.273 35.4668 22.273 35.26H22.073ZM22.0851 35.8288C22.0934 36.0014 22.1141 36.1496 22.1489 36.2715L22.3412 36.2165C22.312 36.1144 22.2927 35.9826 22.2849 35.8192L22.0851 35.8288ZM22.1489 36.2715C22.1842 36.3952 22.2393 36.4997 22.3183 36.5787L22.4597 36.4373C22.4107 36.3883 22.3698 36.3168 22.3412 36.2165L22.1489 36.2715ZM22.3232 36.5833C22.4105 36.6597 22.5246 36.692 22.653 36.692V36.492C22.5574 36.492 22.4955 36.4683 22.4549 36.4327L22.3232 36.5833ZM22.653 36.692C22.8569 36.692 23.0381 36.5937 23.1954 36.4189L23.0467 36.2851C22.916 36.4303 22.7852 36.492 22.653 36.492V36.692ZM23.1935 36.4209C23.3594 36.2462 23.4641 36.0362 23.5075 35.7936L23.3106 35.7584C23.2739 35.9638 23.1866 36.1378 23.0485 36.2831L23.1935 36.4209ZM23.409 35.876H23.517V35.676H23.409V35.876ZM23.417 35.776V36.652H23.617V35.776H23.417ZM23.517 36.552C23.4203 36.552 23.3343 36.5853 23.2663 36.6533L23.4077 36.7947C23.4358 36.7667 23.4698 36.752 23.517 36.752V36.552ZM23.2712 36.6487C23.2153 36.6976 23.1307 36.7535 23.014 36.8158L23.1081 36.9922C23.2313 36.9265 23.3308 36.8624 23.4029 36.7993L23.2712 36.6487ZM23.0114 36.8172C22.9223 36.8681 22.7715 36.9 22.545 36.9V37.1C22.7825 37.1 22.9758 37.0679 23.1106 36.9908L23.0114 36.8172ZM22.545 36.9C22.2683 36.9 22.0673 36.8459 21.9304 36.7501L21.8157 36.9139C21.9987 37.0421 22.2458 37.1 22.545 37.1V36.9ZM21.9304 36.7501C21.7867 36.6495 21.6831 36.5174 21.6182 36.3516L21.4319 36.4244C21.511 36.6266 21.6393 36.7905 21.8157 36.9139L21.9304 36.7501ZM21.6182 36.3516C21.5503 36.1781 21.5082 35.9842 21.4928 35.7689L21.2933 35.7831C21.3099 36.0158 21.3558 36.2299 21.4319 36.4244L21.6182 36.3516ZM21.493 35.7724C21.485 35.5497 21.481 35.3229 21.481 35.092H21.281C21.281 35.3251 21.2851 35.5543 21.2931 35.7796L21.493 35.7724ZM21.481 35.092V32.368H21.281V35.092H21.481ZM21.381 32.268H20.709V32.468H21.381V32.268ZM20.809 32.368V31.96H20.609V32.368H20.809ZM20.709 32.06H21.381V31.86H20.709V32.06ZM21.481 31.96V30.892H21.281V31.96H21.481ZM21.481 30.892C21.481 30.7462 21.4596 30.6106 21.4152 30.4864L21.2269 30.5536C21.2625 30.6534 21.281 30.7658 21.281 30.892H21.481ZM21.4177 30.4942C21.3941 30.406 21.3384 30.3386 21.2583 30.2944C21.1816 30.2521 21.0853 30.2324 20.977 30.2281L20.969 30.4279C21.0607 30.4316 21.1225 30.4479 21.1617 30.4696C21.1977 30.4894 21.2159 30.514 21.2244 30.5458L21.4177 30.4942ZM21.073 30.328V30.208H20.873V30.328H21.073ZM21.0035 30.3032L22.2035 29.9192L22.1426 29.7288L20.9426 30.1128L21.0035 30.3032ZM22.073 29.824V31.96H22.273V29.824H22.073ZM22.173 32.06H23.517V31.86H22.173V32.06ZM23.417 31.96V32.368H23.617V31.96H23.417ZM23.517 32.268H22.173V32.468H23.517V32.268ZM24.5869 37H24.4869V37.1H24.5869V37ZM24.5869 36.88V36.78H24.4869V36.88H24.5869ZM24.7549 36.808L24.8256 36.8787L24.7549 36.808ZM24.8749 36.64L24.9643 36.6847L24.8749 36.64ZM24.9469 36.436L25.0445 36.4577L25.045 36.4556L24.9469 36.436ZM24.9109 32.512L24.8154 32.5418L24.816 32.5436L24.9109 32.512ZM24.5629 32.308H24.4629V32.4039L24.5587 32.4079L24.5629 32.308ZM24.5629 32.2L24.5324 32.1048L24.4629 32.127V32.2H24.5629ZM25.7629 31.816H25.8629V31.679L25.7324 31.7208L25.7629 31.816ZM25.7869 36.436L25.6888 36.4556L25.6893 36.4577L25.7869 36.436ZM25.8589 36.64L25.7695 36.6847L25.8589 36.64ZM25.9789 36.808L25.9082 36.8787L25.9789 36.808ZM26.1469 36.88H26.2469V36.78H26.1469V36.88ZM26.1469 37V37.1H26.2469V37H26.1469ZM24.8029 30.256L24.7321 30.1852L24.7296 30.188L24.8029 30.256ZM25.6189 31.06L25.5509 30.9867V30.9867L25.6189 31.06ZM24.8029 31.06L24.7321 31.1308L24.7349 31.1333L24.8029 31.06ZM24.6869 37V36.88H24.4869V37H24.6869ZM24.5869 36.98C24.6792 36.98 24.7601 36.9442 24.8256 36.8787L24.6842 36.7373C24.6537 36.7678 24.6227 36.78 24.5869 36.78V36.98ZM24.8256 36.8787C24.8816 36.8227 24.9278 36.7578 24.9643 36.6847L24.7855 36.5953C24.758 36.6502 24.7242 36.6973 24.6842 36.7373L24.8256 36.8787ZM24.9643 36.6847C25.0001 36.6132 25.0268 36.5374 25.0445 36.4577L24.8493 36.4143C24.835 36.4786 24.8137 36.5388 24.7855 36.5953L24.9643 36.6847ZM25.045 36.4556C25.0619 36.3708 25.0709 36.2921 25.0709 36.22H24.8709C24.8709 36.2759 24.8639 36.3412 24.8488 36.4164L25.045 36.4556ZM25.0709 36.22V32.896H24.8709V36.22H25.0709ZM25.0709 32.896C25.0709 32.7501 25.0494 32.6113 25.0058 32.4804L24.816 32.5436C24.8524 32.6527 24.8709 32.7699 24.8709 32.896H25.0709ZM25.0064 32.4822C24.9789 32.3944 24.9239 32.3253 24.8445 32.2787C24.7676 32.2337 24.6728 32.2125 24.5671 32.2081L24.5587 32.4079C24.645 32.4115 24.7042 32.4283 24.7433 32.4513C24.7799 32.4727 24.8029 32.5016 24.8155 32.5418L25.0064 32.4822ZM24.6629 32.308V32.2H24.4629V32.308H24.6629ZM24.5934 32.2952L25.7934 31.9112L25.7324 31.7208L24.5324 32.1048L24.5934 32.2952ZM25.6629 31.816V36.22H25.8629V31.816H25.6629ZM25.6629 36.22C25.6629 36.2921 25.6719 36.3708 25.6888 36.4556L25.885 36.4164C25.8699 36.3412 25.8629 36.2759 25.8629 36.22H25.6629ZM25.6893 36.4577C25.707 36.5374 25.7337 36.6132 25.7695 36.6847L25.9483 36.5953C25.9201 36.5388 25.8988 36.4786 25.8845 36.4143L25.6893 36.4577ZM25.7695 36.6847C25.806 36.7578 25.8522 36.8227 25.9082 36.8787L26.0496 36.7373C26.0096 36.6973 25.9758 36.6502 25.9483 36.5953L25.7695 36.6847ZM25.9082 36.8787C25.9737 36.9442 26.0547 36.98 26.1469 36.98V36.78C26.1112 36.78 26.0801 36.7678 26.0496 36.7373L25.9082 36.8787ZM26.0469 36.88V37H26.2469V36.88H26.0469ZM26.1469 36.9H24.5869V37.1H26.1469V36.9ZM24.7469 30.664C24.7469 30.5279 24.7902 30.4166 24.8762 30.324L24.7296 30.188C24.6076 30.3194 24.5469 30.4801 24.5469 30.664H24.7469ZM24.8736 30.3267C24.9667 30.2337 25.0771 30.188 25.2109 30.188V29.988C25.0247 29.988 24.8632 30.0543 24.7322 30.1853L24.8736 30.3267ZM25.2109 30.188C25.3447 30.188 25.4552 30.2337 25.5482 30.3267L25.6896 30.1853C25.5587 30.0543 25.3971 29.988 25.2109 29.988V30.188ZM25.5482 30.3267C25.6412 30.4197 25.6869 30.5302 25.6869 30.664H25.8869C25.8869 30.4778 25.8206 30.3163 25.6896 30.1853L25.5482 30.3267ZM25.6869 30.664C25.6869 30.7977 25.6414 30.9026 25.5509 30.9867L25.687 31.1333C25.8204 31.0094 25.8869 30.8503 25.8869 30.664H25.6869ZM25.5509 30.9867C25.4583 31.0727 25.347 31.116 25.2109 31.116V31.316C25.3948 31.316 25.5555 31.2553 25.687 31.1333L25.5509 30.9867ZM25.2109 31.116C25.0748 31.116 24.9635 31.0727 24.871 30.9867L24.7349 31.1333C24.8663 31.2553 25.027 31.316 25.2109 31.316V31.116ZM24.8736 30.9893C24.7901 30.9058 24.7469 30.8 24.7469 30.664H24.5469C24.5469 30.848 24.6077 31.0062 24.7322 31.1307L24.8736 30.9893ZM28.8706 36.892L28.8315 36.9841L28.8335 36.9848L28.8706 36.892ZM28.0426 36.352L27.9706 36.4215L27.9732 36.4239L28.0426 36.352ZM27.5146 35.536L27.4213 35.5719L27.4221 35.574L27.5146 35.536ZM27.5386 33.448L27.6307 33.4871L27.631 33.4863L27.5386 33.448ZM28.1026 32.608L28.0331 32.5361L28.1026 32.608ZM28.9546 32.068L28.9183 31.9748L28.9546 32.068ZM31.0786 32.068L31.0415 32.1609L31.0435 32.1616L31.0786 32.068ZM31.9066 32.584L31.9761 32.5121L31.9066 32.584ZM32.4466 33.388L32.3541 33.426L32.3545 33.4268L32.4466 33.388ZM32.4586 35.404L32.3647 35.3696L32.3642 35.371L32.4586 35.404ZM31.9426 36.256L31.8696 36.1877L31.8684 36.189L31.9426 36.256ZM31.1026 36.856L31.0614 36.7649L31.0606 36.7653L31.1026 36.856ZM29.8786 32.272V32.1718L29.8731 32.1722L29.8786 32.272ZM29.1106 32.488L29.1592 32.5754L29.1602 32.5748L29.1106 32.488ZM28.5586 32.968L28.479 32.9075L28.4786 32.908L28.5586 32.968ZM28.2226 33.628L28.1274 33.5973L28.1266 33.6001L28.2226 33.628ZM28.2466 35.248L28.1512 35.278L28.1523 35.2813L28.2466 35.248ZM28.6426 35.98L28.5637 36.0414L28.5651 36.0432L28.6426 35.98ZM29.2666 36.496L29.3137 36.4078L29.2666 36.496ZM30.8506 36.496L30.8023 36.4084L30.801 36.4092L30.8506 36.496ZM31.4266 36.004L31.5063 36.0645L31.5074 36.063L31.4266 36.004ZM31.7626 35.308L31.6671 35.2782L31.6664 35.2809L31.7626 35.308ZM31.7626 33.748L31.6667 33.7762L31.6669 33.777L31.7626 33.748ZM31.3906 33.016L31.3106 33.076L31.3117 33.0774L31.3906 33.016ZM30.7546 32.476L30.7065 32.5637L30.7077 32.5643L30.7546 32.476ZM29.9506 36.984C29.5613 36.984 29.2142 36.9217 28.9078 36.7992L28.8335 36.9848C29.167 37.1183 29.5399 37.184 29.9506 37.184V36.984ZM28.9097 36.8C28.6001 36.6684 28.3346 36.4949 28.1121 36.2801L27.9732 36.4239C28.2146 36.6571 28.5011 36.8436 28.8315 36.984L28.9097 36.8ZM28.1146 36.2825C27.8998 36.0601 27.7306 35.7989 27.6071 35.498L27.4221 35.574C27.5547 35.8971 27.7375 36.1799 27.9707 36.4215L28.1146 36.2825ZM27.608 35.5001C27.4928 35.2007 27.4346 34.873 27.4346 34.516H27.2346C27.2346 34.895 27.2965 35.2473 27.4213 35.5719L27.608 35.5001ZM27.4346 34.516C27.4346 34.1357 27.5005 33.7933 27.6307 33.4871L27.4466 33.4089C27.3047 33.7427 27.2346 34.1123 27.2346 34.516H27.4346ZM27.631 33.4863C27.7621 33.1701 27.9426 32.9018 28.1721 32.6799L28.0331 32.5361C27.7827 32.7782 27.5872 33.0699 27.4463 33.4097L27.631 33.4863ZM28.1721 32.6799C28.4021 32.4576 28.6746 32.2846 28.991 32.1612L28.9183 31.9748C28.5786 32.1074 28.2832 32.2944 28.0331 32.5361L28.1721 32.6799ZM28.991 32.1612C29.3064 32.0381 29.6499 31.976 30.0226 31.976V31.776C29.6273 31.776 29.2589 31.8419 28.9183 31.9748L28.991 32.1612ZM30.0226 31.976C30.3954 31.976 30.7346 32.0381 31.0415 32.1608L31.1158 31.9752C30.7827 31.8419 30.4179 31.776 30.0226 31.776V31.976ZM31.0435 32.1616C31.3515 32.2771 31.6156 32.442 31.8372 32.6559L31.9761 32.5121C31.7337 32.278 31.4458 32.0989 31.1137 31.9744L31.0435 32.1616ZM31.8372 32.6559C32.0588 32.8699 32.2311 33.1262 32.3541 33.426L32.5391 33.35C32.4061 33.0258 32.2185 32.7461 31.9761 32.5121L31.8372 32.6559ZM32.3545 33.4268C32.4767 33.7172 32.5386 34.0398 32.5386 34.396H32.7386C32.7386 34.0162 32.6725 33.6668 32.5388 33.3492L32.3545 33.4268ZM32.5386 34.396C32.5386 34.7281 32.4807 35.0525 32.3647 35.3696L32.5525 35.4384C32.6765 35.0995 32.7386 34.7519 32.7386 34.396H32.5386ZM32.3642 35.371C32.2568 35.6778 32.0921 35.9498 31.8696 36.1877L32.0157 36.3243C32.2571 36.0662 32.4364 35.7702 32.553 35.437L32.3642 35.371ZM31.8684 36.189C31.6546 36.4257 31.3862 36.618 31.0614 36.7649L31.1438 36.9471C31.4911 36.79 31.7827 36.5823 32.0168 36.323L31.8684 36.189ZM31.0606 36.7653C30.7483 36.91 30.3792 36.984 29.9506 36.984V37.184C30.4021 37.184 30.801 37.106 31.1447 36.9467L31.0606 36.7653ZM29.8731 32.1722C29.5714 32.1889 29.3 32.2646 29.061 32.4012L29.1602 32.5748C29.3692 32.4554 29.6098 32.3871 29.8842 32.3718L29.8731 32.1722ZM29.0621 32.4006C28.8338 32.5274 28.6392 32.6967 28.479 32.9075L28.6382 33.0285C28.782 32.8393 28.9555 32.6886 29.1592 32.5754L29.0621 32.4006ZM28.4786 32.908C28.3274 33.1096 28.2106 33.3397 28.1275 33.5973L28.3178 33.6587C28.3947 33.4203 28.5018 33.2104 28.6386 33.028L28.4786 32.908ZM28.1266 33.6001C28.052 33.8571 28.0146 34.1185 28.0146 34.384H28.2146C28.2146 34.1375 28.2493 33.8949 28.3187 33.6559L28.1266 33.6001ZM28.0146 34.384C28.0146 34.6901 28.0602 34.9882 28.1512 35.278L28.342 35.218C28.2571 34.9478 28.2146 34.6699 28.2146 34.384H28.0146ZM28.1523 35.2813C28.2517 35.5629 28.3887 35.8165 28.5637 36.0414L28.7216 35.9186C28.5605 35.7115 28.4335 35.4771 28.3409 35.2147L28.1523 35.2813ZM28.5651 36.0432C28.7493 36.2692 28.9676 36.4498 29.2196 36.5842L29.3137 36.4078C29.0857 36.2862 28.888 36.1228 28.7201 35.9168L28.5651 36.0432ZM29.2196 36.5842C29.4753 36.7206 29.7597 36.788 30.0706 36.788V36.588C29.7896 36.588 29.5379 36.5274 29.3137 36.4078L29.2196 36.5842ZM30.0706 36.788C30.3814 36.788 30.659 36.7207 30.9002 36.5828L30.801 36.4092C30.5942 36.5273 30.3518 36.588 30.0706 36.588V36.788ZM30.8989 36.5836C31.1425 36.4492 31.3453 36.2762 31.5062 36.0645L31.347 35.9435C31.2039 36.1318 31.0228 36.2868 30.8023 36.4084L30.8989 36.5836ZM31.5074 36.063C31.6666 35.8451 31.7838 35.6022 31.8589 35.3351L31.6664 35.2809C31.5975 35.5258 31.4906 35.7469 31.3459 35.945L31.5074 36.063ZM31.8581 35.3378C31.9409 35.0726 31.9826 34.8066 31.9826 34.54H31.7826C31.7826 34.7854 31.7443 35.0314 31.6672 35.2782L31.8581 35.3378ZM31.9826 34.54C31.9826 34.2657 31.941 33.992 31.8583 33.719L31.6669 33.777C31.7442 34.032 31.7826 34.2863 31.7826 34.54H31.9826ZM31.8586 33.7198C31.7752 33.4362 31.6455 33.1809 31.4696 32.9546L31.3117 33.0774C31.4717 33.2831 31.5901 33.5158 31.6667 33.7762L31.8586 33.7198ZM31.4706 32.956C31.2935 32.7198 31.07 32.5303 30.8015 32.3877L30.7077 32.5643C30.9512 32.6937 31.1518 32.8642 31.3106 33.076L31.4706 32.956ZM30.8027 32.3883C30.5374 32.2428 30.2283 32.172 29.8786 32.172V32.372C30.201 32.372 30.4758 32.4372 30.7065 32.5637L30.8027 32.3883ZM38.5599 36.436L38.4618 36.4556L38.4623 36.4577L38.5599 36.436ZM38.6319 36.64L38.542 36.6849L38.5471 36.693L38.6319 36.64ZM38.7519 36.808L38.6747 36.8723L38.6812 36.8787L38.7519 36.808ZM38.9199 36.88H39.0199V36.78H38.9199V36.88ZM38.9199 37V37.1H39.0199V37H38.9199ZM37.3719 37H37.2719V37.1H37.3719V37ZM37.3719 36.88V36.78H37.2719V36.88H37.3719ZM37.5279 36.808L37.4572 36.7373L37.5279 36.808ZM37.6479 36.64L37.5627 36.5868L37.5584 36.5953L37.6479 36.64ZM37.7319 36.436L37.8295 36.4577L37.8299 36.4556L37.7319 36.436ZM37.6359 33.232L37.5421 33.2667L37.6359 33.232ZM37.3119 32.692L37.3846 32.6233L37.3119 32.692ZM36.8439 32.38L36.8044 32.4721L36.8097 32.474L36.8439 32.38ZM35.7999 32.38L35.762 32.2874L35.7605 32.2881L35.7999 32.38ZM35.3439 32.668L35.4097 32.7433L35.41 32.743L35.3439 32.668ZM35.0199 33.076L34.9322 33.0278L34.9314 33.0294L35.0199 33.076ZM34.9239 36.436L34.8258 36.4556L34.8263 36.4577L34.9239 36.436ZM34.9959 36.64L34.906 36.6849L34.9111 36.693L34.9959 36.64ZM35.1159 36.808L35.0387 36.8723L35.0452 36.8787L35.1159 36.808ZM35.2839 36.88H35.3839V36.78H35.2839V36.88ZM35.2839 37V37.1H35.3839V37H35.2839ZM33.7239 37H33.6239V37.1H33.7239V37ZM33.7239 36.88V36.78H33.6239V36.88H33.7239ZM33.8799 36.808L33.9506 36.8787L33.8799 36.808ZM33.9999 36.64L33.9147 36.5868L33.9104 36.5953L33.9999 36.64ZM34.0839 36.436L34.1815 36.4577L34.1819 36.4556L34.0839 36.436ZM34.0479 32.524L33.9524 32.5538L33.953 32.5556L34.0479 32.524ZM33.6999 32.32H33.5999V32.4159L33.6957 32.4199L33.6999 32.32ZM33.6999 32.212L33.6694 32.1168L33.5999 32.139V32.212H33.6999ZM34.8999 31.828H34.9999V31.691L34.8694 31.7328L34.8999 31.828ZM34.8999 32.488H34.7999V32.7541L34.9751 32.5539L34.8999 32.488ZM35.1159 32.284L35.1793 32.3615L35.1831 32.358L35.1159 32.284ZM35.4279 32.068L35.4749 32.1563L35.4769 32.1552L35.4279 32.068ZM35.8599 31.9L35.8841 31.9971L35.8873 31.9962L35.8599 31.9ZM38.0559 32.524L37.9781 32.5868L37.9793 32.5883L38.0559 32.524ZM38.4159 33.196L38.3198 33.2239L38.321 33.2276L38.4159 33.196ZM38.4359 36.22C38.4359 36.2921 38.4449 36.3708 38.4618 36.4556L38.6579 36.4164C38.6429 36.3412 38.6359 36.2759 38.6359 36.22H38.4359ZM38.4623 36.4577C38.48 36.5374 38.5067 36.6132 38.5424 36.6847L38.7213 36.5953C38.6931 36.5388 38.6718 36.4786 38.6575 36.4143L38.4623 36.4577ZM38.5471 36.693C38.589 36.7601 38.6316 36.8199 38.6751 36.872L38.8287 36.744C38.7921 36.7001 38.7547 36.6479 38.7167 36.587L38.5471 36.693ZM38.6812 36.8787C38.7467 36.9442 38.8276 36.98 38.9199 36.98V36.78C38.8841 36.78 38.8531 36.7678 38.8226 36.7373L38.6812 36.8787ZM38.8199 36.88V37H39.0199V36.88H38.8199ZM38.9199 36.9H37.3719V37.1H38.9199V36.9ZM37.4719 37V36.88H37.2719V37H37.4719ZM37.3719 36.98C37.4599 36.98 37.5361 36.9412 37.5986 36.8787L37.4572 36.7373C37.4237 36.7708 37.3959 36.78 37.3719 36.78V36.98ZM37.5986 36.8787C37.6546 36.8227 37.7008 36.7578 37.7373 36.6847L37.5584 36.5953C37.531 36.6502 37.4972 36.6973 37.4572 36.7373L37.5986 36.8787ZM37.7327 36.693C37.7786 36.6196 37.811 36.541 37.8295 36.4577L37.6343 36.4143C37.6208 36.475 37.5972 36.5324 37.5631 36.587L37.7327 36.693ZM37.8299 36.4556C37.8469 36.3708 37.8559 36.2921 37.8559 36.22H37.6559C37.6559 36.2759 37.6489 36.3412 37.6338 36.4164L37.8299 36.4556ZM37.8559 36.22V33.988H37.6559V36.22H37.8559ZM37.8559 33.988C37.8559 33.691 37.8147 33.4268 37.7297 33.1973L37.5421 33.2667C37.6171 33.4692 37.6559 33.709 37.6559 33.988H37.8559ZM37.7297 33.1973C37.6457 32.9707 37.5312 32.7786 37.3846 32.6233L37.2392 32.7607C37.3646 32.8934 37.466 33.0613 37.5421 33.2667L37.7297 33.1973ZM37.3846 32.6233C37.2385 32.4687 37.0695 32.3556 36.878 32.286L36.8097 32.474C36.9702 32.5323 37.1132 32.6273 37.2392 32.7607L37.3846 32.6233ZM36.8833 32.2881C36.7033 32.211 36.5179 32.172 36.3279 32.172V32.372C36.4898 32.372 36.6484 32.405 36.8045 32.4719L36.8833 32.2881ZM36.3279 32.172C36.1379 32.172 35.9491 32.2109 35.762 32.2874L35.8377 32.4726C36.0027 32.4051 36.1659 32.372 36.3279 32.372V32.172ZM35.7605 32.2881C35.5828 32.3642 35.4217 32.4659 35.2777 32.593L35.41 32.743C35.538 32.6301 35.681 32.5398 35.8393 32.4719L35.7605 32.2881ZM35.278 32.5927C35.1406 32.713 35.0255 32.8583 34.9323 33.0278L35.1075 33.1242C35.1903 32.9737 35.2911 32.847 35.4097 32.7433L35.278 32.5927ZM34.9314 33.0294C34.844 33.1955 34.7999 33.3714 34.7999 33.556H34.9999C34.9999 33.4046 35.0357 33.2605 35.1084 33.1226L34.9314 33.0294ZM34.7999 33.556V36.22H34.9999V33.556H34.7999ZM34.7999 36.22C34.7999 36.2921 34.8089 36.3708 34.8258 36.4556L35.0219 36.4164C35.0069 36.3412 34.9999 36.2759 34.9999 36.22H34.7999ZM34.8263 36.4577C34.844 36.5374 34.8707 36.6132 34.9064 36.6847L35.0853 36.5953C35.0571 36.5388 35.0358 36.4786 35.0215 36.4143L34.8263 36.4577ZM34.9111 36.693C34.953 36.7601 34.9956 36.8199 35.0391 36.872L35.1927 36.744C35.1561 36.7001 35.1187 36.6479 35.0807 36.587L34.9111 36.693ZM35.0452 36.8787C35.1107 36.9442 35.1916 36.98 35.2839 36.98V36.78C35.2481 36.78 35.2171 36.7678 35.1866 36.7373L35.0452 36.8787ZM35.1839 36.88V37H35.3839V36.88H35.1839ZM35.2839 36.9H33.7239V37.1H35.2839V36.9ZM33.8239 37V36.88H33.6239V37H33.8239ZM33.7239 36.98C33.8119 36.98 33.8881 36.9412 33.9506 36.8787L33.8092 36.7373C33.7757 36.7708 33.7479 36.78 33.7239 36.78V36.98ZM33.9506 36.8787C34.0066 36.8227 34.0528 36.7578 34.0893 36.6847L33.9104 36.5953C33.883 36.6502 33.8492 36.6973 33.8092 36.7373L33.9506 36.8787ZM34.0847 36.693C34.1306 36.6196 34.163 36.541 34.1815 36.4577L33.9863 36.4143C33.9728 36.475 33.9492 36.5324 33.9151 36.587L34.0847 36.693ZM34.1819 36.4556C34.1989 36.3708 34.2079 36.2921 34.2079 36.22H34.0079C34.0079 36.2759 34.0009 36.3412 33.9858 36.4164L34.1819 36.4556ZM34.2079 36.22V32.908H34.0079V36.22H34.2079ZM34.2079 32.908C34.2079 32.7621 34.1864 32.6233 34.1427 32.4924L33.953 32.5556C33.9894 32.6647 34.0079 32.7819 34.0079 32.908H34.2079ZM34.1433 32.4942C34.1159 32.4064 34.0608 32.3373 33.9814 32.2907C33.9046 32.2457 33.8098 32.2245 33.704 32.2201L33.6957 32.4199C33.7819 32.4235 33.8412 32.4403 33.8803 32.4633C33.9169 32.4847 33.9399 32.5136 33.9524 32.5538L34.1433 32.4942ZM33.7999 32.32V32.212H33.5999V32.32H33.7999ZM33.7304 32.3072L34.9304 31.9232L34.8694 31.7328L33.6694 32.1168L33.7304 32.3072ZM34.7999 31.828V32.488H34.9999V31.828H34.7999ZM34.9751 32.5539C35.0265 32.4951 35.0942 32.431 35.1792 32.3614L35.0526 32.2066C34.9616 32.281 34.8853 32.3529 34.8246 32.4221L34.9751 32.5539ZM35.1831 32.358C35.2642 32.2843 35.3612 32.2169 35.4749 32.1562L35.3808 31.9798C35.2545 32.0471 35.1435 32.1237 35.0486 32.21L35.1831 32.358ZM35.4769 32.1552C35.5962 32.088 35.7317 32.0351 35.8841 31.997L35.8356 31.803C35.668 31.8449 35.5155 31.904 35.3788 31.9808L35.4769 32.1552ZM35.8873 31.9962C36.0443 31.9513 36.2307 31.928 36.4479 31.928V31.728C36.2171 31.728 36.0114 31.7527 35.8324 31.8038L35.8873 31.9962ZM36.4479 31.928C36.8129 31.928 37.1171 31.9902 37.3642 32.11L37.4515 31.93C37.1706 31.7938 36.8349 31.728 36.4479 31.728V31.928ZM37.3642 32.11C37.6163 32.2322 37.8202 32.3914 37.9781 32.5868L38.1337 32.4612C37.9555 32.2406 37.7274 32.0638 37.4515 31.93L37.3642 32.11ZM37.9793 32.5883C38.1385 32.7778 38.2518 32.9894 38.3198 33.2239L38.5119 33.1681C38.436 32.9066 38.3093 32.6702 38.1324 32.4597L37.9793 32.5883ZM38.321 33.2276C38.3979 33.4583 38.4359 33.6837 38.4359 33.904H38.6359C38.6359 33.6603 38.5938 33.4137 38.5107 33.1644L38.321 33.2276ZM38.4359 33.904V36.22H38.6359V33.904H38.4359Z" fill="#5B43EA" fill-opacity="0.5"/>
  <g clip-path="url(#clip0_0_1)">
    <path d="M33.7414 15.9545L33.7414 15.9545C32.8708 13.9163 31.0334 9.61589 30.1626 7.57789L30.1626 7.57788C29.7798 6.68151 28.899 6.1 27.9242 6.1H27.9184H27.9126H27.9068H27.9009H27.8951H27.8893H27.8834H27.8776H27.8717H27.8659H27.86H27.8541H27.8482H27.8424H27.8365H27.8306H27.8247H27.8188H27.8129H27.807H27.8011H27.7952H27.7893H27.7833H27.7774H27.7715H27.7655H27.7596H27.7537H27.7477H27.7418H27.7358H27.7299H27.7239H27.7179H27.712H27.706H27.7H27.6941H27.6881H27.6821H27.6761H27.6701H27.6641H27.6581H27.6521H27.6461H27.6401H27.6341H27.6281H27.6221H27.6161H27.6101H27.6041H27.5981H27.5921H27.586H27.58H27.574H27.568H27.5619H27.5559H27.5499H27.5438H27.5378H27.5318H27.5257H27.5197H27.5137H27.5076H27.5016H27.4955H27.4895H27.4834H27.4774H27.4714H27.4653H27.4593H27.4532H27.4472H27.4411H27.4351H27.429H27.423H27.4169H27.4109H27.4048H27.3988H27.3927H27.3867H27.3807H27.3746H27.3686H27.3625H27.3565H27.3504H27.3444H27.3383H27.3323H27.3263H27.3202H27.3142H27.3081H27.3021H27.2961H27.29H27.284H27.278H27.2719H27.2659H27.2599H27.2539H27.2478H27.2418H27.2358H27.2298H27.2238H27.2178H27.2117H27.2057H27.1997H27.1937H27.1877H27.1817H27.1757H27.1697H27.1637H27.1578H27.1518H27.1458H27.1398H27.1338H27.1279H27.1219H27.1159H27.11H27.104H27.098H27.0921H27.0861H27.0802H27.0743H27.0683H27.0624H27.0564H27.0505H27.0446H27.0387H27.0328H27.0269H27.021H27.015H27.0092H27.0033H26.9974H26.9915H26.9856H26.9797H26.9739H26.968H26.9621H26.9563H26.9504H26.9446H26.9388H26.9329H26.9271H26.9213H26.9155H26.9096H26.9038H26.898H26.8922H26.8865H26.8807H26.8749H26.8691H26.8634H26.8576H26.8519H26.8461H26.8404H26.8346H26.8289H26.8232H26.8175H26.8118H26.8061H26.8004H26.7947H26.789H26.7833H26.7777H26.772H26.7664H26.7607H26.7551H26.7495H26.7438H26.7382H26.7326H26.727H26.7214H26.7159H26.7103H26.7047H26.6992H26.6936H26.6881H26.6825H26.677H26.6715H26.666H26.6605H26.655H26.6495H26.644H26.6386H26.6331H26.6277H26.6222H26.6168H26.6114H26.606H26.6005H26.5952H26.5898H26.5844H26.579H26.5737H26.5683H26.563H26.5577H26.5524H26.547H26.5417H26.5365H26.5312H26.5259H26.5207H26.5154H26.5102H26.505H26.4997H26.4945H26.4893H26.4842H26.479H26.4738H26.4687H26.4635H26.4584H26.4533H26.4482H26.4431H26.438H26.4329H26.4279H26.4228H26.4178H26.4128H26.4077H26.4027H26.3977H26.3928H26.3878H26.3828H26.3779H26.373H26.368H26.3631H26.3582H26.3534H26.3485H26.3436H26.3388H26.334H26.3291H26.3243H26.3195H26.3148H26.31H26.3052H26.3005H26.2958H26.2911H26.2864H26.2817H26.277H26.2723H26.2677H26.263H26.2584H26.2538H26.2492H26.2446H26.2401H26.2355H26.231H26.2265H26.222H26.2175H26.213H26.2085H26.2041H26.1996H26.1952H26.1908H26.1864H26.1821H26.1777H26.1733H26.169H26.1647H26.1604H26.1561H26.1518H26.1476H26.1433H26.1391H26.1349H26.1307H26.1265H26.1224H26.1182H26.1141H26.11H26.1059H26.1018H26.0977H26.0937H26.0897H26.0856H26.0816H26.0777H26.0737H26.0697H26.0658H26.0619H26.058H26.0541H26.0502H26.0464H26.0426H26.0388H26.035H26.0312H26.0274H26.0237H26.0199H26.0162H26.0125H26.0089H26.0052H26.0016H25.9979H25.9943H25.9908H25.9872H25.9836H25.9801H25.9766H25.9731H25.9696H25.9662H25.9627H25.9593H25.9559H25.9525H25.9492H25.9458H25.9425H25.9392H25.9359H25.9326H25.9294H25.9262H25.9229H25.9198H25.9166H25.9134H25.9103H25.9072H25.9041H25.901H25.898H25.8949H25.8919H25.8889H25.886H25.883H25.8801H25.8772H25.8743H25.8714H25.8685H25.8657H25.8629H25.8601H25.8574H25.8546H25.8519H25.8492H25.8465H25.8438H25.8412H25.8386H25.836H25.8334H25.8308H25.8283H25.8258H25.8233H25.8208H25.8184H25.816H25.8136H25.8112H25.8088H25.8065H25.8042H25.8019H25.7996H25.7974H25.7951H25.7929H25.7908H25.7886H25.7865H25.7844H25.7823H25.7802H25.7782H25.7761H25.7741H25.7722H25.7702H25.7683H25.7664H25.7645H25.7626H25.7608H25.759H25.7572H25.7555H25.7537H25.752H25.7503H25.7487H25.747H25.7454H25.7438H25.7422H25.7407H25.7392H25.7377H25.7362H25.7348H25.7333H25.7319H25.7306H25.7292H25.7279H25.7266H25.7253H25.7241H25.7229H25.7217H25.7205H25.7194H25.7182H25.7172H25.7161H25.715H25.714H25.713H25.7121H25.7111H25.7102H25.7093H25.7085H25.7077H25.7068H25.7061H25.7053H25.7046H25.7039H25.7032H25.7026H25.7019H25.7013H25.7008H25.7002H25.6997H25.6992H25.6988H25.6983H25.6979H25.6976H25.6972H25.6969H25.6966H25.6963H25.6961H25.6959H25.6957H25.6956H25.6954H25.6953H25.6953H25.6952L25.6952 6V6.1C25.3668 6.1 25.1 6.36665 25.1 6.6952C25.1 7.02353 25.3668 7.2902 25.6952 7.2902V7.3902L25.6952 7.2902H25.6953H25.6953H25.6954H25.6956H25.6957H25.6959H25.6961H25.6963H25.6966H25.6969H25.6972H25.6976H25.6979H25.6983H25.6988H25.6992H25.6997H25.7002H25.7008H25.7013H25.7019H25.7026H25.7032H25.7039H25.7046H25.7053H25.7061H25.7068H25.7077H25.7085H25.7093H25.7102H25.7111H25.7121H25.713H25.714H25.715H25.7161H25.7172H25.7182H25.7194H25.7205H25.7217H25.7229H25.7241H25.7253H25.7266H25.7279H25.7292H25.7306H25.7319H25.7333H25.7348H25.7362H25.7377H25.7392H25.7407H25.7422H25.7438H25.7454H25.747H25.7487H25.7503H25.752H25.7537H25.7555H25.7572H25.759H25.7608H25.7626H25.7645H25.7664H25.7683H25.7702H25.7722H25.7741H25.7761H25.7782H25.7802H25.7823H25.7844H25.7865H25.7886H25.7908H25.7929H25.7951H25.7974H25.7996H25.8019H25.8042H25.8065H25.8088H25.8112H25.8136H25.816H25.8184H25.8208H25.8233H25.8258H25.8283H25.8308H25.8334H25.836H25.8386H25.8412H25.8438H25.8465H25.8492H25.8519H25.8546H25.8574H25.8601H25.8629H25.8657H25.8685H25.8714H25.8743H25.8772H25.8801H25.883H25.886H25.8889H25.8919H25.8949H25.898H25.901H25.9041H25.9072H25.9103H25.9134H25.9166H25.9198H25.9229H25.9262H25.9294H25.9326H25.9359H25.9392H25.9425H25.9458H25.9492H25.9525H25.9559H25.9593H25.9627H25.9662H25.9696H25.9731H25.9766H25.9801H25.9836H25.9872H25.9908H25.9943H25.9979H26.0016H26.0052H26.0089H26.0125H26.0162H26.0199H26.0237H26.0274H26.0312H26.035H26.0388H26.0426H26.0464H26.0502H26.0541H26.058H26.0619H26.0658H26.0697H26.0737H26.0777H26.0816H26.0856H26.0897H26.0937H26.0977H26.1018H26.1059H26.11H26.1141H26.1182H26.1224H26.1265H26.1307H26.1349H26.1391H26.1433H26.1476H26.1518H26.1561H26.1604H26.1647H26.169H26.1733H26.1777H26.1821H26.1864H26.1908H26.1952H26.1996H26.2041H26.2085H26.213H26.2175H26.222H26.2265H26.231H26.2355H26.2401H26.2446H26.2492H26.2538H26.2584H26.263H26.2677H26.2723H26.277H26.2817H26.2864H26.2911H26.2958H26.3005H26.3052H26.31H26.3148H26.3195H26.3243H26.3291H26.334H26.3388H26.3436H26.3485H26.3534H26.3582H26.3631H26.368H26.373H26.3779H26.3828H26.3878H26.3928H26.3977H26.4027H26.4077H26.4128H26.4178H26.4228H26.4279H26.4329H26.438H26.4431H26.4482H26.4533H26.4584H26.4635H26.4687H26.4738H26.479H26.4842H26.4893H26.4945H26.4997H26.505H26.5102H26.5154H26.5207H26.5259H26.5312H26.5365H26.5417H26.547H26.5524H26.5577H26.563H26.5683H26.5737H26.579H26.5844H26.5898H26.5952H26.6005H26.606H26.6114H26.6168H26.6222H26.6277H26.6331H26.6386H26.644H26.6495H26.655H26.6605H26.666H26.6715H26.677H26.6825H26.6881H26.6936H26.6992H26.7047H26.7103H26.7159H26.7214H26.727H26.7326H26.7382H26.7438H26.7495H26.7551H26.7607H26.7664H26.772H26.7777H26.7833H26.789H26.7947H26.8004H26.8061H26.8118H26.8175H26.8232H26.8289H26.8346H26.8404H26.8461H26.8519H26.8576H26.8634H26.8691H26.8749H26.8807H26.8865H26.8922H26.898H26.9038H26.9096H26.9155H26.9213H26.9271H26.9329H26.9388H26.9446H26.9504H26.9563H26.9621H26.968H26.9739H26.9797H26.9856H26.9915H26.9974H27.0033H27.0092H27.015H27.021H27.0269H27.0328H27.0387H27.0446H27.0505H27.0564H27.0624H27.0683H27.0743H27.0802H27.0861H27.0921H27.098H27.104H27.11H27.1159H27.1219H27.1279H27.1338H27.1398H27.1458H27.1518H27.1578H27.1637H27.1697H27.1757H27.1817H27.1877H27.1937H27.1997H27.2057H27.2117H27.2178H27.2238H27.2298H27.2358H27.2418H27.2478H27.2539H27.2599H27.2659H27.2719H27.278H27.284H27.29H27.2961H27.3021H27.3081H27.3142H27.3202H27.3263H27.3323H27.3383H27.3444H27.3504H27.3565H27.3625H27.3686H27.3746H27.3807H27.3867H27.3927H27.3988H27.4048H27.4109H27.4169H27.423H27.429H27.4351H27.4411H27.4472H27.4532H27.4593H27.4653H27.4714H27.4774H27.4834H27.4895H27.4955H27.5016H27.5076H27.5137H27.5197H27.5257H27.5318H27.5378H27.5438H27.5499H27.5559H27.5619H27.568H27.574H27.58H27.586H27.5921H27.5981H27.6041H27.6101H27.6161H27.6221H27.6281H27.6341H27.6401H27.6461H27.6521H27.6581H27.6641H27.6701H27.6761H27.6821H27.6881H27.6941H27.7H27.706H27.712H27.7179H27.7239H27.7299H27.7358H27.7418H27.7477H27.7537H27.7596H27.7655H27.7715H27.7774H27.7833H27.7893H27.7952H27.8011H27.807H27.8129H27.8188H27.8247H27.8306H27.8365H27.8424H27.8482H27.8541H27.86H27.8659H27.8717H27.8776H27.8834H27.8893H27.8951H27.9009H27.9068H27.9126H27.9184H27.9242C28.4223 7.2902 28.8724 7.5875 29.0682 8.0455L29.0682 8.04551L32.647 16.4221C33.03 17.3185 33.9107 17.9 34.8854 17.9L33.7414 15.9545ZM33.7414 15.9545C33.9372 16.4125 34.3873 16.7098 34.8854 16.7098H34.8915M33.7414 15.9545L34.8915 16.7098M34.8915 16.7098H34.8976M34.8915 16.7098H34.8976M34.8976 16.7098H34.9037M34.8976 16.7098H34.9037M34.9037 16.7098H34.9098M34.9037 16.7098H34.9098M34.9098 16.7098H34.916M34.9098 16.7098H34.916M34.916 16.7098H34.9221M34.916 16.7098H34.9221M34.9221 16.7098H34.9282M34.9221 16.7098H34.9282M34.9282 16.7098H34.9344M34.9282 16.7098H34.9344M34.9344 16.7098H34.9405M34.9344 16.7098H34.9405M34.9405 16.7098H34.9467M34.9405 16.7098H34.9467M34.9467 16.7098H34.9529M34.9467 16.7098H34.9529M34.9529 16.7098H34.959M34.9529 16.7098H34.959M34.959 16.7098H34.9652M34.959 16.7098H34.9652M34.9652 16.7098H34.9714M34.9652 16.7098H34.9714M34.9714 16.7098H34.9776M34.9714 16.7098H34.9776M34.9776 16.7098H34.9838M34.9776 16.7098H34.9838M34.9838 16.7098H34.99M34.9838 16.7098H34.99M34.99 16.7098H34.9962M34.99 16.7098H34.9962M34.9962 16.7098H35.0024M34.9962 16.7098H35.0024M35.0024 16.7098H35.0086M35.0024 16.7098H35.0086M35.0086 16.7098H35.0148M35.0086 16.7098H35.0148M35.0148 16.7098H35.021M35.0148 16.7098H35.021M35.021 16.7098H35.0273M35.021 16.7098H35.0273M35.0273 16.7098H35.0335M35.0273 16.7098H35.0335M35.0335 16.7098H35.0397M35.0335 16.7098H35.0397M35.0397 16.7098H35.046M35.0397 16.7098H35.046M35.046 16.7098H35.0522M35.046 16.7098H35.0522M35.0522 16.7098H35.0585M35.0522 16.7098H35.0585M35.0585 16.7098H35.0647M35.0585 16.7098H35.0647M35.0647 16.7098H35.071M35.0647 16.7098H35.071M35.071 16.7098H35.0773M35.071 16.7098H35.0773M35.0773 16.7098H35.0835M35.0773 16.7098H35.0835M35.0835 16.7098H35.0898M35.0835 16.7098H35.0898M35.0898 16.7098H35.0961M35.0898 16.7098H35.0961M35.0961 16.7098H35.1024M35.0961 16.7098H35.1024M35.1024 16.7098H35.1087M35.1024 16.7098H35.1087M35.1087 16.7098H35.1149M35.1087 16.7098H35.1149M35.1149 16.7098H35.1212M35.1149 16.7098H35.1212M35.1212 16.7098H35.1275M35.1212 16.7098H35.1275M35.1275 16.7098H35.1338M35.1275 16.7098H35.1338M35.1338 16.7098H35.1402M35.1338 16.7098H35.1402M35.1402 16.7098H35.1465M35.1402 16.7098H35.1465M35.1465 16.7098H35.1528M35.1465 16.7098H35.1528M35.1528 16.7098H35.1591M35.1528 16.7098H35.1591M35.1591 16.7098H35.1654M35.1591 16.7098H35.1654M35.1654 16.7098H35.1717M35.1654 16.7098H35.1717M35.1717 16.7098H35.1781M35.1717 16.7098H35.1781M35.1781 16.7098H35.1844M35.1781 16.7098H35.1844M35.1844 16.7098H35.1907M35.1844 16.7098H35.1907M35.1907 16.7098H35.1971M35.1907 16.7098H35.1971M35.1971 16.7098H35.2034M35.1971 16.7098H35.2034M35.2034 16.7098H35.2098M35.2034 16.7098H35.2098M35.2098 16.7098H35.2161M35.2098 16.7098H35.2161M35.2161 16.7098H35.2225M35.2161 16.7098H35.2225M35.2225 16.7098H35.2288M35.2225 16.7098H35.2288M35.2288 16.7098H35.2352M35.2288 16.7098H35.2352M35.2352 16.7098H35.2415M35.2352 16.7098H35.2415M35.2415 16.7098H35.2479M35.2415 16.7098H35.2479M35.2479 16.7098H35.2543M35.2479 16.7098H35.2543M35.2543 16.7098H35.2606M35.2543 16.7098H35.2606M35.2606 16.7098H35.267M35.2606 16.7098H35.267M35.267 16.7098H35.2734M35.267 16.7098H35.2734M35.2734 16.7098H35.2797M35.2734 16.7098H35.2797M35.2797 16.7098H35.2861M35.2797 16.7098H35.2861M35.2861 16.7098H35.2925M35.2861 16.7098H35.2925M35.2925 16.7098H35.2989M35.2925 16.7098H35.2989M35.2989 16.7098H35.3052M35.2989 16.7098H35.3052M35.3052 16.7098H35.3116M35.3052 16.7098H35.3116M35.3116 16.7098H35.318M35.3116 16.7098H35.318M35.318 16.7098H35.3244M35.318 16.7098H35.3244M35.3244 16.7098H35.3308M35.3244 16.7098H35.3308M35.3308 16.7098H35.3372M35.3308 16.7098H35.3372M35.3372 16.7098H35.3436M35.3372 16.7098H35.3436M35.3436 16.7098H35.3499M35.3436 16.7098H35.3499M35.3499 16.7098H35.3563M35.3499 16.7098H35.3563M35.3563 16.7098H35.3627M35.3563 16.7098H35.3627M35.3627 16.7098H35.3691M35.3627 16.7098H35.3691M35.3691 16.7098H35.3755M35.3691 16.7098H35.3755M35.3755 16.7098H35.3819M35.3755 16.7098H35.3819M35.3819 16.7098H35.3883M35.3819 16.7098H35.3883M35.3883 16.7098H35.3947M35.3883 16.7098H35.3947M35.3947 16.7098H35.4011M35.3947 16.7098H35.4011M35.4011 16.7098H35.4075M35.4011 16.7098H35.4075M35.4075 16.7098H35.4139M35.4075 16.7098H35.4139M35.4139 16.7098H35.4203M35.4139 16.7098H35.4203M35.4203 16.7098H35.4267M35.4203 16.7098H35.4267M35.4267 16.7098H35.4331M35.4267 16.7098H35.4331M35.4331 16.7098H35.4395M35.4331 16.7098H35.4395M35.4395 16.7098H35.4459M35.4395 16.7098H35.4459M35.4459 16.7098H35.4523M35.4459 16.7098H35.4523M35.4523 16.7098H35.4587M35.4523 16.7098H35.4587M35.4587 16.7098H35.4651M35.4587 16.7098H35.4651M35.4651 16.7098H35.4715M35.4651 16.7098H35.4715M35.4715 16.7098H35.4779M35.4715 16.7098H35.4779M35.4779 16.7098H35.4843M35.4779 16.7098H35.4843M35.4843 16.7098H35.4908M35.4843 16.7098H35.4908M35.4908 16.7098H35.4972M35.4908 16.7098H35.4972M35.4972 16.7098H35.5036M35.4972 16.7098H35.5036M35.5036 16.7098H35.51M35.5036 16.7098H35.51M35.51 16.7098H35.5164M35.51 16.7098H35.5164M35.5164 16.7098H35.5228M35.5164 16.7098H35.5228M35.5228 16.7098H35.5292M35.5228 16.7098H35.5292M35.5292 16.7098H35.5356M35.5292 16.7098H35.5356M35.5356 16.7098H35.542M35.5356 16.7098H35.542M35.542 16.7098H35.5484M35.542 16.7098H35.5484M35.5484 16.7098H35.5548M35.5484 16.7098H35.5548M35.5548 16.7098H35.5611M35.5548 16.7098H35.5611M35.5611 16.7098H35.5675M35.5611 16.7098H35.5675M35.5675 16.7098H35.5739M35.5675 16.7098H35.5739M35.5739 16.7098H35.5803M35.5739 16.7098H35.5803M35.5803 16.7098H35.5867M35.5803 16.7098H35.5867M35.5867 16.7098H35.5931M35.5867 16.7098H35.5931M35.5931 16.7098H35.5995M35.5931 16.7098H35.5995M35.5995 16.7098H35.6059M35.5995 16.7098H35.6059M35.6059 16.7098H35.6123M35.6059 16.7098H35.6123M35.6123 16.7098H35.6187M35.6123 16.7098H35.6187M35.6187 16.7098H35.625M35.6187 16.7098H35.625M35.625 16.7098H35.6314M35.625 16.7098H35.6314M35.6314 16.7098H35.6378M35.6314 16.7098H35.6378M35.6378 16.7098H35.6442M35.6378 16.7098H35.6442M35.6442 16.7098H35.6505M35.6442 16.7098H35.6505M35.6505 16.7098H35.6569M35.6505 16.7098H35.6569M35.6569 16.7098H35.6633M35.6569 16.7098H35.6633M35.6633 16.7098H35.6696M35.6633 16.7098H35.6696M35.6696 16.7098H35.676M35.6696 16.7098H35.676M35.676 16.7098H35.6824M35.676 16.7098H35.6824M35.6824 16.7098H35.6887M35.6824 16.7098H35.6887M35.6887 16.7098H35.6951M35.6887 16.7098H35.6951M35.6951 16.7098H35.7014M35.6951 16.7098H35.7014M35.7014 16.7098H35.7078M35.7014 16.7098H35.7078M35.7078 16.7098H35.7141M35.7078 16.7098H35.7141M35.7141 16.7098H35.7205M35.7141 16.7098H35.7205M35.7205 16.7098H35.7268M35.7205 16.7098H35.7268M35.7268 16.7098H35.7332M35.7268 16.7098H35.7332M35.7332 16.7098H35.7395M35.7332 16.7098H35.7395M35.7395 16.7098H35.7458M35.7395 16.7098H35.7458M35.7458 16.7098H35.7522M35.7458 16.7098H35.7522M35.7522 16.7098H35.7585M35.7522 16.7098H35.7585M35.7585 16.7098H35.7648M35.7585 16.7098H35.7648M35.7648 16.7098H35.7712M35.7648 16.7098H35.7712M35.7712 16.7098H35.7775M35.7712 16.7098H35.7775M35.7775 16.7098H35.7838M35.7775 16.7098H35.7838M35.7838 16.7098H35.7901M35.7838 16.7098H35.7901M35.7901 16.7098H35.7964M35.7901 16.7098H35.7964M35.7964 16.7098H35.8027M35.7964 16.7098H35.8027M35.8027 16.7098H35.809M35.8027 16.7098H35.809M35.809 16.7098H35.8153M35.809 16.7098H35.8153M35.8153 16.7098H35.8216M35.8153 16.7098H35.8216M35.8216 16.7098H35.8279M35.8216 16.7098H35.8279M35.8279 16.7098H35.8342M35.8279 16.7098H35.8342M35.8342 16.7098H35.8404M35.8342 16.7098H35.8404M35.8404 16.7098H35.8467M35.8404 16.7098H35.8467M35.8467 16.7098H35.853M35.8467 16.7098H35.853M35.853 16.7098H35.8592M35.853 16.7098H35.8592M35.8592 16.7098H35.8655M35.8592 16.7098H35.8655M35.8655 16.7098H35.8718M35.8655 16.7098H35.8718M35.8718 16.7098H35.878M35.8718 16.7098H35.878M35.878 16.7098H35.8843M35.878 16.7098H35.8843M35.8843 16.7098H35.8905M35.8843 16.7098H35.8905M35.8905 16.7098H35.8967M35.8905 16.7098H35.8967M35.8967 16.7098H35.903M35.8967 16.7098H35.903M35.903 16.7098H35.9092M35.903 16.7098H35.9092M35.9092 16.7098H35.9154M35.9092 16.7098H35.9154M35.9154 16.7098H35.9216M35.9154 16.7098H35.9216M35.9216 16.7098H35.9279M35.9216 16.7098H35.9279M35.9279 16.7098H35.9341M35.9279 16.7098H35.9341M35.9341 16.7098H35.9403M35.9341 16.7098H35.9403M35.9403 16.7098H35.9465M35.9403 16.7098H35.9465M35.9465 16.7098H35.9527M35.9465 16.7098H35.9527M35.9527 16.7098H35.9588M35.9527 16.7098H35.9588M35.9588 16.7098H35.965M35.9588 16.7098H35.965M35.965 16.7098H35.9712M35.965 16.7098H35.9712M35.9712 16.7098H35.9774M35.9712 16.7098H35.9774M35.9774 16.7098H35.9835M35.9774 16.7098H35.9835M35.9835 16.7098H35.9897M35.9835 16.7098H35.9897M35.9897 16.7098H35.9958M35.9897 16.7098H35.9958M35.9958 16.7098H36.002M35.9958 16.7098H36.002M36.002 16.7098H36.0081M36.002 16.7098H36.0081M36.0081 16.7098H36.0142M36.0081 16.7098H36.0142M36.0142 16.7098H36.0204M36.0142 16.7098H36.0204M36.0204 16.7098H36.0265M36.0204 16.7098H36.0265M36.0265 16.7098H36.0326M36.0265 16.7098H36.0326M36.0326 16.7098H36.0387M36.0326 16.7098H36.0387M36.0387 16.7098H36.0448M36.0387 16.7098H36.0448M36.0448 16.7098H36.0509M36.0448 16.7098H36.0509M36.0509 16.7098H36.057M36.0509 16.7098H36.057M36.057 16.7098H36.0631M36.057 16.7098H36.0631M36.0631 16.7098H36.0691M36.0631 16.7098H36.0691M36.0691 16.7098H36.0752M36.0691 16.7098H36.0752M36.0752 16.7098H36.0812M36.0752 16.7098H36.0812M36.0812 16.7098H36.0873M36.0812 16.7098H36.0873M36.0873 16.7098H36.0933M36.0873 16.7098H36.0933M36.0933 16.7098H36.0994M36.0933 16.7098H36.0994M36.0994 16.7098H36.1054M36.0994 16.7098H36.1054M36.1054 16.7098H36.1114M36.1054 16.7098H36.1114M36.1114 16.7098H36.1174M36.1114 16.7098H36.1174M36.1174 16.7098H36.1234M36.1174 16.7098H36.1234M36.1234 16.7098H36.1294M36.1234 16.7098H36.1294M36.1294 16.7098H36.1354M36.1294 16.7098H36.1354M36.1354 16.7098H36.1414M36.1354 16.7098H36.1414M36.1414 16.7098H36.1474M36.1414 16.7098H36.1474M36.1474 16.7098H36.1534M36.1474 16.7098H36.1534M36.1534 16.7098H36.1593M36.1534 16.7098H36.1593M36.1593 16.7098H36.1653M36.1593 16.7098H36.1653M36.1653 16.7098H36.1712M36.1653 16.7098H36.1712M36.1712 16.7098H36.1771M36.1712 16.7098H36.1771M36.1771 16.7098H36.1831M36.1771 16.7098H36.1831M36.1831 16.7098H36.189M36.1831 16.7098H36.189M36.189 16.7098H36.1949M36.189 16.7098H36.1949M36.1949 16.7098H36.2008M36.1949 16.7098H36.2008M36.2008 16.7098H36.2067M36.2008 16.7098H36.2067M36.2067 16.7098H36.2126M36.2067 16.7098H36.2126M36.2126 16.7098H36.2185M36.2126 16.7098H36.2185M36.2185 16.7098H36.2243M36.2185 16.7098H36.2243M36.2243 16.7098H36.2302M36.2243 16.7098H36.2302M36.2302 16.7098H36.236M36.2302 16.7098H36.236M36.236 16.7098H36.2419M36.236 16.7098H36.2419M36.2419 16.7098H36.2477M36.2419 16.7098H36.2477M36.2477 16.7098H36.2535M36.2477 16.7098H36.2535M36.2535 16.7098H36.2593M36.2535 16.7098H36.2593M36.2593 16.7098H36.2651M36.2593 16.7098H36.2651M36.2651 16.7098H36.2709M36.2651 16.7098H36.2709M36.2709 16.7098H36.2767M36.2709 16.7098H36.2767M36.2767 16.7098H36.2825M36.2767 16.7098H36.2825M36.2825 16.7098H36.2883M36.2825 16.7098H36.2883M36.2883 16.7098H36.294M36.2883 16.7098H36.294M36.294 16.7098H36.2998M36.294 16.7098H36.2998M36.2998 16.7098H36.3055M36.2998 16.7098H36.3055M36.3055 16.7098H36.3112M36.3055 16.7098H36.3112M36.3112 16.7098H36.3169M36.3112 16.7098H36.3169M36.3169 16.7098H36.3226M36.3169 16.7098H36.3226M36.3226 16.7098H36.3283M36.3226 16.7098H36.3283M36.3283 16.7098H36.334M36.3283 16.7098H36.334M36.334 16.7098H36.3397M36.334 16.7098H36.3397M36.3397 16.7098H36.3454M36.3397 16.7098H36.3454M36.3454 16.7098H36.351M36.3454 16.7098H36.351M36.351 16.7098H36.3567M36.351 16.7098H36.3567M36.3567 16.7098H36.3623M36.3567 16.7098H36.3623M36.3623 16.7098H36.3679M36.3623 16.7098H36.3679M36.3679 16.7098H36.3735M36.3679 16.7098H36.3735M36.3735 16.7098H36.3791M36.3735 16.7098H36.3791M36.3791 16.7098H36.3847M36.3791 16.7098H36.3847M36.3847 16.7098H36.3903M36.3847 16.7098H36.3903M36.3903 16.7098H36.3959M36.3903 16.7098H36.3959M36.3959 16.7098H36.4014M36.3959 16.7098H36.4014M36.4014 16.7098H36.407M36.4014 16.7098H36.407M36.407 16.7098H36.4125M36.407 16.7098H36.4125M36.4125 16.7098H36.418M36.4125 16.7098H36.418M36.418 16.7098H36.4236M36.418 16.7098H36.4236M36.4236 16.7098H36.4291M36.4236 16.7098H36.4291M36.4291 16.7098H36.4345M36.4291 16.7098H36.4345M36.4345 16.7098H36.44M36.4345 16.7098H36.44M36.44 16.7098H36.4455M36.44 16.7098H36.4455M36.4455 16.7098H36.4509M36.4455 16.7098H36.4509M36.4509 16.7098H36.4564M36.4509 16.7098H36.4564M36.4564 16.7098H36.4618M36.4564 16.7098H36.4618M36.4618 16.7098H36.4672M36.4618 16.7098H36.4672M36.4672 16.7098H36.4727M36.4672 16.7098H36.4727M36.4727 16.7098H36.478M36.4727 16.7098H36.478M36.478 16.7098H36.4834M36.478 16.7098H36.4834M36.4834 16.7098H36.4888M36.4834 16.7098H36.4888M36.4888 16.7098H36.4942M36.4888 16.7098H36.4942M36.4942 16.7098H36.4995M36.4942 16.7098H36.4995M36.4995 16.7098H36.5048M36.4995 16.7098H36.5048M36.5048 16.7098H36.5102M36.5048 16.7098H36.5102M36.5102 16.7098H36.5155M36.5102 16.7098H36.5155M36.5155 16.7098H36.5208M36.5155 16.7098H36.5208M36.5208 16.7098H36.5261M36.5208 16.7098H36.5261M36.5261 16.7098H36.5313M36.5261 16.7098H36.5313M36.5313 16.7098H36.5366M36.5313 16.7098H36.5366M36.5366 16.7098H36.5418M36.5366 16.7098H36.5418M36.5418 16.7098H36.5471M36.5418 16.7098H36.5471M36.5471 16.7098H36.5523M36.5471 16.7098H36.5523M36.5523 16.7098H36.5575M36.5523 16.7098H36.5575M36.5575 16.7098H36.5627M36.5575 16.7098H36.5627M36.5627 16.7098H36.5679M36.5627 16.7098H36.5679M36.5679 16.7098H36.573M36.5679 16.7098H36.573M36.573 16.7098H36.5782M36.573 16.7098H36.5782M36.5782 16.7098H36.5833M36.5782 16.7098H36.5833M36.5833 16.7098H36.5885M36.5833 16.7098H36.5885M36.5885 16.7098H36.5936M36.5885 16.7098H36.5936M36.5936 16.7098H36.5987M36.5936 16.7098H36.5987M36.5987 16.7098H36.6038M36.5987 16.7098H36.6038M36.6038 16.7098H36.6088M36.6038 16.7098H36.6088M36.6088 16.7098H36.6139M36.6088 16.7098H36.6139M36.6139 16.7098H36.6189M36.6139 16.7098H36.6189M36.6189 16.7098H36.624M36.6189 16.7098H36.624M36.624 16.7098H36.629M36.624 16.7098H36.629M36.629 16.7098H36.634M36.629 16.7098H36.634M36.634 16.7098H36.639M36.634 16.7098H36.639M36.639 16.7098H36.6439M36.639 16.7098H36.6439M36.6439 16.7098H36.6489M36.6439 16.7098H36.6489M36.6489 16.7098H36.6538M36.6489 16.7098H36.6538M36.6538 16.7098H36.6588M36.6538 16.7098H36.6588M36.6588 16.7098H36.6637M36.6588 16.7098H36.6637M36.6637 16.7098H36.6686M36.6637 16.7098H36.6686M36.6686 16.7098H36.6735M36.6686 16.7098H36.6735M36.6735 16.7098H36.6783M36.6735 16.7098H36.6783M36.6783 16.7098H36.6832M36.6783 16.7098H36.6832M36.6832 16.7098H36.688M36.6832 16.7098H36.688M36.688 16.7098H36.6928M36.688 16.7098H36.6928M36.6928 16.7098H36.6976M36.6928 16.7098H36.6976M36.6976 16.7098H36.7024M36.6976 16.7098H36.7024M36.7024 16.7098H36.7072M36.7024 16.7098H36.7072M36.7072 16.7098H36.712M36.7072 16.7098H36.712M36.712 16.7098H36.7167M36.712 16.7098H36.7167M36.7167 16.7098H36.7215M36.7167 16.7098H36.7215M36.7215 16.7098H36.7262M36.7215 16.7098H36.7262M36.7262 16.7098H36.7309M36.7262 16.7098H36.7309M36.7309 16.7098H36.7356M36.7309 16.7098H36.7356M36.7356 16.7098H36.7402M36.7356 16.7098H36.7402M36.7402 16.7098H36.7449M36.7402 16.7098H36.7449M36.7449 16.7098H36.7495M36.7449 16.7098H36.7495M36.7495 16.7098H36.7541M36.7495 16.7098H36.7541M36.7541 16.7098H36.7588M36.7541 16.7098H36.7588M36.7588 16.7098H36.7633M36.7588 16.7098H36.7633M36.7633 16.7098H36.7679M36.7633 16.7098H36.7679M36.7679 16.7098H36.7725M36.7679 16.7098H36.7725M36.7725 16.7098H36.777M36.7725 16.7098H36.777M36.777 16.7098H36.7815M36.777 16.7098H36.7815M36.7815 16.7098H36.786M36.7815 16.7098H36.786M36.786 16.7098H36.7905M36.786 16.7098H36.7905M36.7905 16.7098H36.795M36.7905 16.7098H36.795M36.795 16.7098H36.7995M36.795 16.7098H36.7995M36.7995 16.7098H36.8039M36.7995 16.7098H36.8039M36.8039 16.7098H36.8083M36.8039 16.7098H36.8083M36.8083 16.7098H36.8127M36.8083 16.7098H36.8127M36.8127 16.7098H36.8171M36.8127 16.7098H36.8171M36.8171 16.7098H36.8215M36.8171 16.7098H36.8215M36.8215 16.7098H36.8258M36.8215 16.7098H36.8258M36.8258 16.7098H36.8302M36.8258 16.7098H36.8302M36.8302 16.7098H36.8345M36.8302 16.7098H36.8345M36.8345 16.7098H36.8388M36.8345 16.7098H36.8388M36.8388 16.7098H36.8431M36.8388 16.7098H36.8431M36.8431 16.7098H36.8474M36.8431 16.7098H36.8474M36.8474 16.7098H36.8516M36.8474 16.7098H36.8516M36.8516 16.7098H36.8558M36.8516 16.7098H36.8558M36.8558 16.7098H36.8601M36.8558 16.7098H36.8601M36.8601 16.7098H36.8643M36.8601 16.7098H36.8643M36.8643 16.7098H36.8684M36.8643 16.7098H36.8684M36.8684 16.7098H36.8726M36.8684 16.7098H36.8726M36.8726 16.7098H36.8767M36.8726 16.7098H36.8767M36.8767 16.7098H36.8809M36.8767 16.7098H36.8809M36.8809 16.7098H36.885M36.8809 16.7098H36.885M36.885 16.7098H36.8891M36.885 16.7098H36.8891M36.8891 16.7098H36.8931M36.8891 16.7098H36.8931M36.8931 16.7098H36.8972M36.8931 16.7098H36.8972M36.8972 16.7098H36.9012M36.8972 16.7098H36.9012M36.9012 16.7098H36.9052M36.9012 16.7098H36.9052M36.9052 16.7098H36.9092M36.9052 16.7098H36.9092M36.9092 16.7098H36.9132M36.9092 16.7098H36.9132M36.9132 16.7098H36.9172M36.9132 16.7098H36.9172M36.9172 16.7098H36.9211M36.9172 16.7098H36.9211M36.9211 16.7098H36.925M36.9211 16.7098H36.925M36.925 16.7098H36.9289M36.925 16.7098H36.9289M36.9289 16.7098H36.9328M36.9289 16.7098H36.9328M36.9328 16.7098H36.9367M36.9328 16.7098H36.9367M36.9367 16.7098H36.9405M36.9367 16.7098H36.9405M36.9405 16.7098H36.9443M36.9405 16.7098H36.9443M36.9443 16.7098H36.9481M36.9443 16.7098H36.9481M36.9481 16.7098H36.9519M36.9481 16.7098H36.9519M36.9519 16.7098H36.9557M36.9519 16.7098H36.9557M36.9557 16.7098H36.9594M36.9557 16.7098H36.9594M36.9594 16.7098H36.9632M36.9594 16.7098H36.9632M36.9632 16.7098H36.9669M36.9632 16.7098H36.9669M36.9669 16.7098H36.9706M36.9669 16.7098H36.9706M36.9706 16.7098H36.9742M36.9706 16.7098H36.9742M36.9742 16.7098H36.9779M36.9742 16.7098H36.9779M36.9779 16.7098H36.9815M36.9779 16.7098H36.9815M36.9815 16.7098H36.9851M36.9815 16.7098H36.9851M36.9851 16.7098H36.9887M36.9851 16.7098H36.9887M36.9887 16.7098H36.9923M36.9887 16.7098H36.9923M36.9923 16.7098H36.9958M36.9923 16.7098H36.9958M36.9958 16.7098H36.9993M36.9958 16.7098H36.9993M36.9993 16.7098H37.0028M36.9993 16.7098H37.0028M37.0028 16.7098H37.0063M37.0028 16.7098H37.0063M37.0063 16.7098H37.0098M37.0063 16.7098H37.0098M37.0098 16.7098H37.0132M37.0098 16.7098H37.0132M37.0132 16.7098H37.0166M37.0132 16.7098H37.0166M37.0166 16.7098H37.02M37.0166 16.7098H37.02M37.02 16.7098H37.0234M37.02 16.7098H37.0234M37.0234 16.7098H37.0268M37.0234 16.7098H37.0268M37.0268 16.7098H37.0301M37.0268 16.7098H37.0301M37.0301 16.7098H37.0334M37.0301 16.7098H37.0334M37.0334 16.7098H37.0367M37.0334 16.7098H37.0367M37.0367 16.7098H37.04M37.0367 16.7098H37.04M37.04 16.7098H37.0433M37.04 16.7098H37.0433M37.0433 16.7098H37.0465M37.0433 16.7098H37.0465M37.0465 16.7098H37.0497M37.0465 16.7098H37.0497M37.0497 16.7098H37.0529M37.0497 16.7098H37.0529M37.0529 16.7098H37.0561M37.0529 16.7098H37.0561M37.0561 16.7098H37.0592M37.0561 16.7098H37.0592M37.0592 16.7098H37.0623M37.0592 16.7098H37.0623M37.0623 16.7098H37.0654M37.0623 16.7098H37.0654M37.0654 16.7098H37.0685M37.0654 16.7098H37.0685M37.0685 16.7098H37.0716M37.0685 16.7098H37.0716M37.0716 16.7098H37.0746M37.0716 16.7098H37.0746M37.0746 16.7098H37.0776M37.0746 16.7098H37.0776M37.0776 16.7098H37.0806M37.0776 16.7098H37.0806M37.0806 16.7098H37.0836M37.0806 16.7098H37.0836M37.0836 16.7098H37.0866M37.0836 16.7098H37.0866M37.0866 16.7098H37.0895M37.0866 16.7098H37.0895M37.0895 16.7098H37.0924M37.0895 16.7098H37.0924M37.0924 16.7098H37.0953M37.0924 16.7098H37.0953M37.0953 16.7098H37.0981M37.0953 16.7098H37.0981M37.0981 16.7098H37.101M37.0981 16.7098H37.101M37.101 16.7098H37.1038M37.101 16.7098H37.1038M37.1038 16.7098H37.1066M37.1038 16.7098H37.1066M37.1066 16.7098H37.1093M37.1066 16.7098H37.1093M37.1093 16.7098H37.1121M37.1093 16.7098H37.1121M37.1121 16.7098H37.1148M37.1121 16.7098H37.1148M37.1148 16.7098H37.1175M37.1148 16.7098H37.1175M37.1175 16.7098H37.1202M37.1175 16.7098H37.1202M37.1202 16.7098H37.1228M37.1202 16.7098H37.1228M37.1228 16.7098H37.1254M37.1228 16.7098H37.1254M37.1254 16.7098H37.128M37.1254 16.7098H37.128M37.128 16.7098H37.1306M37.128 16.7098H37.1306M37.1306 16.7098H37.1332M37.1306 16.7098H37.1332M37.1332 16.7098H37.1357M37.1332 16.7098H37.1357M37.1357 16.7098H37.1382M37.1357 16.7098H37.1382M37.1382 16.7098H37.1407M37.1382 16.7098H37.1407M37.1407 16.7098H37.1432M37.1407 16.7098H37.1432M37.1432 16.7098H37.1456M37.1432 16.7098H37.1456M37.1456 16.7098H37.148M37.1456 16.7098H37.148M37.148 16.7098H37.1504M37.148 16.7098H37.1504M37.1504 16.7098H37.1528M37.1504 16.7098H37.1528M37.1528 16.7098H37.1551M37.1528 16.7098H37.1551M37.1551 16.7098H37.1574M37.1551 16.7098H37.1574M37.1574 16.7098H37.1597M37.1574 16.7098H37.1597M37.1597 16.7098H37.162M37.1597 16.7098H37.162M37.162 16.7098H37.1642M37.162 16.7098H37.1642M37.1642 16.7098H37.1664M37.1642 16.7098H37.1664M37.1664 16.7098H37.1686M37.1664 16.7098H37.1686M37.1686 16.7098H37.1708M37.1686 16.7098H37.1708M37.1708 16.7098H37.173M37.1708 16.7098H37.173M37.173 16.7098H37.1751M37.173 16.7098H37.1751M37.1751 16.7098H37.1772M37.1751 16.7098H37.1772M37.1772 16.7098H37.1792M37.1772 16.7098H37.1792M37.1792 16.7098H37.1813M37.1792 16.7098H37.1813M37.1813 16.7098H37.1833M37.1813 16.7098H37.1833M37.1833 16.7098H37.1853M37.1833 16.7098H37.1853M37.1853 16.7098H37.1873M37.1853 16.7098H37.1873M37.1873 16.7098H37.1892M37.1873 16.7098H37.1892M37.1892 16.7098H37.1911M37.1892 16.7098H37.1911M37.1911 16.7098H37.193M37.1911 16.7098H37.193M37.193 16.7098H37.1949M37.193 16.7098H37.1949M37.1949 16.7098H37.1967M37.1949 16.7098H37.1967M37.1967 16.7098H37.1985M37.1967 16.7098H37.1985M37.1985 16.7098H37.2003M37.1985 16.7098H37.2003M37.2003 16.7098H37.2021M37.2003 16.7098H37.2021M37.2021 16.7098H37.2038M37.2021 16.7098H37.2038M37.2038 16.7098H37.2055M37.2038 16.7098H37.2055M37.2055 16.7098H37.2072M37.2055 16.7098H37.2072M37.2072 16.7098H37.2089M37.2072 16.7098H37.2089M37.2089 16.7098H37.2105M37.2089 16.7098H37.2105M37.2105 16.7098H37.2121M37.2105 16.7098H37.2121M37.2121 16.7098H37.2137M37.2121 16.7098H37.2137M37.2137 16.7098H37.2153M37.2137 16.7098H37.2153M37.2153 16.7098H37.2168M37.2153 16.7098H37.2168M37.2168 16.7098H37.2183M37.2168 16.7098H37.2183M37.2183 16.7098H37.2198M37.2183 16.7098H37.2198M37.2198 16.7098H37.2212M37.2198 16.7098H37.2212M37.2212 16.7098H37.2226M37.2212 16.7098H37.2226M37.2226 16.7098H37.224M37.2226 16.7098H37.224M37.224 16.7098H37.2254M37.224 16.7098H37.2254M37.2254 16.7098H37.2267M37.2254 16.7098H37.2267M37.2267 16.7098H37.228M37.2267 16.7098H37.228M37.228 16.7098H37.2293M37.228 16.7098H37.2293M37.2293 16.7098H37.2306M37.2293 16.7098H37.2306M37.2306 16.7098H37.2318M37.2306 16.7098H37.2318M37.2318 16.7098H37.233M37.2318 16.7098H37.233M37.233 16.7098H37.2342M37.233 16.7098H37.2342M37.2342 16.7098H37.2353M37.2342 16.7098H37.2353M37.2353 16.7098H37.2365M37.2353 16.7098H37.2365M37.2365 16.7098H37.2375M37.2365 16.7098H37.2375M37.2375 16.7098H37.2386M37.2375 16.7098H37.2386M37.2386 16.7098H37.2396M37.2386 16.7098H37.2396M37.2396 16.7098H37.2407M37.2396 16.7098H37.2407M37.2407 16.7098H37.2416M37.2407 16.7098H37.2416M37.2416 16.7098H37.2426M37.2416 16.7098H37.2426M37.2426 16.7098H37.2435M37.2426 16.7098H37.2435M37.2435 16.7098H37.2444M37.2435 16.7098H37.2444M37.2444 16.7098H37.2453M37.2444 16.7098H37.2453M37.2453 16.7098H37.2461M37.2453 16.7098H37.2461M37.2461 16.7098H37.2469M37.2461 16.7098H37.2469M37.2469 16.7098H37.2477M37.2469 16.7098H37.2477M37.2477 16.7098H37.2485M37.2477 16.7098H37.2485M37.2485 16.7098H37.2492M37.2485 16.7098H37.2492M37.2492 16.7098H37.2499M37.2492 16.7098H37.2499M37.2499 16.7098H37.2506M37.2499 16.7098H37.2506M37.2506 16.7098H37.2512M37.2506 16.7098H37.2512M37.2512 16.7098H37.2518M37.2512 16.7098H37.2518M37.2518 16.7098H37.2524M37.2518 16.7098H37.2524M37.2524 16.7098H37.2529M37.2524 16.7098H37.2529M37.2529 16.7098H37.2535M37.2529 16.7098H37.2535M37.2535 16.7098H37.2539M37.2535 16.7098H37.2539M37.2539 16.7098H37.2544M37.2539 16.7098H37.2544M37.2544 16.7098H37.2548M37.2544 16.7098H37.2548M37.2548 16.7098H37.2553M37.2548 16.7098H37.2553M37.2553 16.7098H37.2556M37.2553 16.7098H37.2556M37.2556 16.7098H37.256M37.2556 16.7098H37.256M37.256 16.7098H37.2563M37.256 16.7098H37.2563M37.2563 16.7098H37.2566M37.2563 16.7098H37.2566M37.2566 16.7098H37.2568M37.2566 16.7098H37.2568M37.2568 16.7098H37.2571M37.2568 16.7098H37.2571M37.2571 16.7098H37.2573M37.2571 16.7098H37.2573M37.2573 16.7098H37.2574M37.2573 16.7098H37.2574M37.2574 16.7098H37.2576M37.2574 16.7098H37.2576M37.2576 16.7098H37.2577M37.2576 16.7098H37.2577M37.2577 16.7098H37.2577M37.2577 16.7098H37.2577M37.2577 16.7098H37.2578M37.2577 16.7098H37.2578M37.2578 16.7098L37.2578 16.6098L37.2578 16.7098ZM37.2578 17.9L37.2578 18L37.2578 17.9ZM37.2578 17.9H37.2577M37.2578 17.9H37.2577M37.2577 17.9H37.2577M37.2577 17.9H37.2577M37.2577 17.9H37.2576M37.2577 17.9H37.2576M37.2576 17.9H37.2574M37.2576 17.9H37.2574M37.2574 17.9H37.2573M37.2574 17.9H37.2573M37.2573 17.9H37.2571M37.2573 17.9H37.2571M37.2571 17.9H37.2568M37.2571 17.9H37.2568M37.2568 17.9H37.2566M37.2568 17.9H37.2566M37.2566 17.9H37.2563M37.2566 17.9H37.2563M37.2563 17.9H37.256M37.2563 17.9H37.256M37.256 17.9H37.2556M37.256 17.9H37.2556M37.2556 17.9H37.2553M37.2556 17.9H37.2553M37.2553 17.9H37.2548M37.2553 17.9H37.2548M37.2548 17.9H37.2544M37.2548 17.9H37.2544M37.2544 17.9H37.2539M37.2544 17.9H37.2539M37.2539 17.9H37.2535M37.2539 17.9H37.2535M37.2535 17.9H37.2529M37.2535 17.9H37.2529M37.2529 17.9H37.2524M37.2529 17.9H37.2524M37.2524 17.9H37.2518M37.2524 17.9H37.2518M37.2518 17.9H37.2512M37.2518 17.9H37.2512M37.2512 17.9H37.2506M37.2512 17.9H37.2506M37.2506 17.9H37.2499M37.2506 17.9H37.2499M37.2499 17.9H37.2492M37.2499 17.9H37.2492M37.2492 17.9H37.2485M37.2492 17.9H37.2485M37.2485 17.9H37.2477M37.2485 17.9H37.2477M37.2477 17.9H37.2469M37.2477 17.9H37.2469M37.2469 17.9H37.2461M37.2469 17.9H37.2461M37.2461 17.9H37.2453M37.2461 17.9H37.2453M37.2453 17.9H37.2444M37.2453 17.9H37.2444M37.2444 17.9H37.2435M37.2444 17.9H37.2435M37.2435 17.9H37.2426M37.2435 17.9H37.2426M37.2426 17.9H37.2416M37.2426 17.9H37.2416M37.2416 17.9H37.2407M37.2416 17.9H37.2407M37.2407 17.9H37.2396M37.2407 17.9H37.2396M37.2396 17.9H37.2386M37.2396 17.9H37.2386M37.2386 17.9H37.2375M37.2386 17.9H37.2375M37.2375 17.9H37.2365M37.2375 17.9H37.2365M37.2365 17.9H37.2353M37.2365 17.9H37.2353M37.2353 17.9H37.2342M37.2353 17.9H37.2342M37.2342 17.9H37.233M37.2342 17.9H37.233M37.233 17.9H37.2318M37.233 17.9H37.2318M37.2318 17.9H37.2306M37.2318 17.9H37.2306M37.2306 17.9H37.2293M37.2306 17.9H37.2293M37.2293 17.9H37.228M37.2293 17.9H37.228M37.228 17.9H37.2267M37.228 17.9H37.2267M37.2267 17.9H37.2254M37.2267 17.9H37.2254M37.2254 17.9H37.224M37.2254 17.9H37.224M37.224 17.9H37.2226M37.224 17.9H37.2226M37.2226 17.9H37.2212M37.2226 17.9H37.2212M37.2212 17.9H37.2198M37.2212 17.9H37.2198M37.2198 17.9H37.2183M37.2198 17.9H37.2183M37.2183 17.9H37.2168M37.2183 17.9H37.2168M37.2168 17.9H37.2153M37.2168 17.9H37.2153M37.2153 17.9H37.2137M37.2153 17.9H37.2137M37.2137 17.9H37.2121M37.2137 17.9H37.2121M37.2121 17.9H37.2105M37.2121 17.9H37.2105M37.2105 17.9H37.2089M37.2105 17.9H37.2089M37.2089 17.9H37.2072M37.2089 17.9H37.2072M37.2072 17.9H37.2055M37.2072 17.9H37.2055M37.2055 17.9H37.2038M37.2055 17.9H37.2038M37.2038 17.9H37.2021M37.2038 17.9H37.2021M37.2021 17.9H37.2003M37.2021 17.9H37.2003M37.2003 17.9H37.1985M37.2003 17.9H37.1985M37.1985 17.9H37.1967M37.1985 17.9H37.1967M37.1967 17.9H37.1949M37.1967 17.9H37.1949M37.1949 17.9H37.193M37.1949 17.9H37.193M37.193 17.9H37.1911M37.193 17.9H37.1911M37.1911 17.9H37.1892M37.1911 17.9H37.1892M37.1892 17.9H37.1873M37.1892 17.9H37.1873M37.1873 17.9H37.1853M37.1873 17.9H37.1853M37.1853 17.9H37.1833M37.1853 17.9H37.1833M37.1833 17.9H37.1813M37.1833 17.9H37.1813M37.1813 17.9H37.1792M37.1813 17.9H37.1792M37.1792 17.9H37.1772M37.1792 17.9H37.1772M37.1772 17.9H37.1751M37.1772 17.9H37.1751M37.1751 17.9H37.173M37.1751 17.9H37.173M37.173 17.9H37.1708M37.173 17.9H37.1708M37.1708 17.9H37.1686M37.1708 17.9H37.1686M37.1686 17.9H37.1664M37.1686 17.9H37.1664M37.1664 17.9H37.1642M37.1664 17.9H37.1642M37.1642 17.9H37.162M37.1642 17.9H37.162M37.162 17.9H37.1597M37.162 17.9H37.1597M37.1597 17.9H37.1574M37.1597 17.9H37.1574M37.1574 17.9H37.1551M37.1574 17.9H37.1551M37.1551 17.9H37.1528M37.1551 17.9H37.1528M37.1528 17.9H37.1504M37.1528 17.9H37.1504M37.1504 17.9H37.148M37.1504 17.9H37.148M37.148 17.9H37.1456M37.148 17.9H37.1456M37.1456 17.9H37.1432M37.1456 17.9H37.1432M37.1432 17.9H37.1407M37.1432 17.9H37.1407M37.1407 17.9H37.1382M37.1407 17.9H37.1382M37.1382 17.9H37.1357M37.1382 17.9H37.1357M37.1357 17.9H37.1332M37.1357 17.9H37.1332M37.1332 17.9H37.1306M37.1332 17.9H37.1306M37.1306 17.9H37.128M37.1306 17.9H37.128M37.128 17.9H37.1254M37.128 17.9H37.1254M37.1254 17.9H37.1228M37.1254 17.9H37.1228M37.1228 17.9H37.1202M37.1228 17.9H37.1202M37.1202 17.9H37.1175M37.1202 17.9H37.1175M37.1175 17.9H37.1148M37.1175 17.9H37.1148M37.1148 17.9H37.1121M37.1148 17.9H37.1121M37.1121 17.9H37.1093M37.1121 17.9H37.1093M37.1093 17.9H37.1066M37.1093 17.9H37.1066M37.1066 17.9H37.1038M37.1066 17.9H37.1038M37.1038 17.9H37.101M37.1038 17.9H37.101M37.101 17.9H37.0981M37.101 17.9H37.0981M37.0981 17.9H37.0953M37.0981 17.9H37.0953M37.0953 17.9H37.0924M37.0953 17.9H37.0924M37.0924 17.9H37.0895M37.0924 17.9H37.0895M37.0895 17.9H37.0866M37.0895 17.9H37.0866M37.0866 17.9H37.0836M37.0866 17.9H37.0836M37.0836 17.9H37.0806M37.0836 17.9H37.0806M37.0806 17.9H37.0776M37.0806 17.9H37.0776M37.0776 17.9H37.0746M37.0776 17.9H37.0746M37.0746 17.9H37.0716M37.0746 17.9H37.0716M37.0716 17.9H37.0685M37.0716 17.9H37.0685M37.0685 17.9H37.0654M37.0685 17.9H37.0654M37.0654 17.9H37.0623M37.0654 17.9H37.0623M37.0623 17.9H37.0592M37.0623 17.9H37.0592M37.0592 17.9H37.0561M37.0592 17.9H37.0561M37.0561 17.9H37.0529M37.0561 17.9H37.0529M37.0529 17.9H37.0497M37.0529 17.9H37.0497M37.0497 17.9H37.0465M37.0497 17.9H37.0465M37.0465 17.9H37.0433M37.0465 17.9H37.0433M37.0433 17.9H37.04M37.0433 17.9H37.04M37.04 17.9H37.0367M37.04 17.9H37.0367M37.0367 17.9H37.0334M37.0367 17.9H37.0334M37.0334 17.9H37.0301M37.0334 17.9H37.0301M37.0301 17.9H37.0268M37.0301 17.9H37.0268M37.0268 17.9H37.0234M37.0268 17.9H37.0234M37.0234 17.9H37.02M37.0234 17.9H37.02M37.02 17.9H37.0166M37.02 17.9H37.0166M37.0166 17.9H37.0132M37.0166 17.9H37.0132M37.0132 17.9H37.0098M37.0132 17.9H37.0098M37.0098 17.9H37.0063M37.0098 17.9H37.0063M37.0063 17.9H37.0028M37.0063 17.9H37.0028M37.0028 17.9H36.9993M37.0028 17.9H36.9993M36.9993 17.9H36.9958M36.9993 17.9H36.9958M36.9958 17.9H36.9923M36.9958 17.9H36.9923M36.9923 17.9H36.9887M36.9923 17.9H36.9887M36.9887 17.9H36.9851M36.9887 17.9H36.9851M36.9851 17.9H36.9815M36.9851 17.9H36.9815M36.9815 17.9H36.9779M36.9815 17.9H36.9779M36.9779 17.9H36.9742M36.9779 17.9H36.9742M36.9742 17.9H36.9706M36.9742 17.9H36.9706M36.9706 17.9H36.9669M36.9706 17.9H36.9669M36.9669 17.9H36.9632M36.9669 17.9H36.9632M36.9632 17.9H36.9594M36.9632 17.9H36.9594M36.9594 17.9H36.9557M36.9594 17.9H36.9557M36.9557 17.9H36.9519M36.9557 17.9H36.9519M36.9519 17.9H36.9481M36.9519 17.9H36.9481M36.9481 17.9H36.9443M36.9481 17.9H36.9443M36.9443 17.9H36.9405M36.9443 17.9H36.9405M36.9405 17.9H36.9367M36.9405 17.9H36.9367M36.9367 17.9H36.9328M36.9367 17.9H36.9328M36.9328 17.9H36.9289M36.9328 17.9H36.9289M36.9289 17.9H36.925M36.9289 17.9H36.925M36.925 17.9H36.9211M36.925 17.9H36.9211M36.9211 17.9H36.9172M36.9211 17.9H36.9172M36.9172 17.9H36.9132M36.9172 17.9H36.9132M36.9132 17.9H36.9092M36.9132 17.9H36.9092M36.9092 17.9H36.9052M36.9092 17.9H36.9052M36.9052 17.9H36.9012M36.9052 17.9H36.9012M36.9012 17.9H36.8972M36.9012 17.9H36.8972M36.8972 17.9H36.8931M36.8972 17.9H36.8931M36.8931 17.9H36.8891M36.8931 17.9H36.8891M36.8891 17.9H36.885M36.8891 17.9H36.885M36.885 17.9H36.8809M36.885 17.9H36.8809M36.8809 17.9H36.8767M36.8809 17.9H36.8767M36.8767 17.9H36.8726M36.8767 17.9H36.8726M36.8726 17.9H36.8684M36.8726 17.9H36.8684M36.8684 17.9H36.8643M36.8684 17.9H36.8643M36.8643 17.9H36.8601M36.8643 17.9H36.8601M36.8601 17.9H36.8558M36.8601 17.9H36.8558M36.8558 17.9H36.8516M36.8558 17.9H36.8516M36.8516 17.9H36.8474M36.8516 17.9H36.8474M36.8474 17.9H36.8431M36.8474 17.9H36.8431M36.8431 17.9H36.8388M36.8431 17.9H36.8388M36.8388 17.9H36.8345M36.8388 17.9H36.8345M36.8345 17.9H36.8302M36.8345 17.9H36.8302M36.8302 17.9H36.8258M36.8302 17.9H36.8258M36.8258 17.9H36.8215M36.8258 17.9H36.8215M36.8215 17.9H36.8171M36.8215 17.9H36.8171M36.8171 17.9H36.8127M36.8171 17.9H36.8127M36.8127 17.9H36.8083M36.8127 17.9H36.8083M36.8083 17.9H36.8039M36.8083 17.9H36.8039M36.8039 17.9H36.7995M36.8039 17.9H36.7995M36.7995 17.9H36.795M36.7995 17.9H36.795M36.795 17.9H36.7905M36.795 17.9H36.7905M36.7905 17.9H36.786M36.7905 17.9H36.786M36.786 17.9H36.7815M36.786 17.9H36.7815M36.7815 17.9H36.777M36.7815 17.9H36.777M36.777 17.9H36.7725M36.777 17.9H36.7725M36.7725 17.9H36.7679M36.7725 17.9H36.7679M36.7679 17.9H36.7633M36.7679 17.9H36.7633M36.7633 17.9H36.7588M36.7633 17.9H36.7588M36.7588 17.9H36.7541M36.7588 17.9H36.7541M36.7541 17.9H36.7495M36.7541 17.9H36.7495M36.7495 17.9H36.7449M36.7495 17.9H36.7449M36.7449 17.9H36.7402M36.7449 17.9H36.7402M36.7402 17.9H36.7356M36.7402 17.9H36.7356M36.7356 17.9H36.7309M36.7356 17.9H36.7309M36.7309 17.9H36.7262M36.7309 17.9H36.7262M36.7262 17.9H36.7215M36.7262 17.9H36.7215M36.7215 17.9H36.7167M36.7215 17.9H36.7167M36.7167 17.9H36.712M36.7167 17.9H36.712M36.712 17.9H36.7072M36.712 17.9H36.7072M36.7072 17.9H36.7024M36.7072 17.9H36.7024M36.7024 17.9H36.6976M36.7024 17.9H36.6976M36.6976 17.9H36.6928M36.6976 17.9H36.6928M36.6928 17.9H36.688M36.6928 17.9H36.688M36.688 17.9H36.6832M36.688 17.9H36.6832M36.6832 17.9H36.6783M36.6832 17.9H36.6783M36.6783 17.9H36.6735M36.6783 17.9H36.6735M36.6735 17.9H36.6686M36.6735 17.9H36.6686M36.6686 17.9H36.6637M36.6686 17.9H36.6637M36.6637 17.9H36.6588M36.6637 17.9H36.6588M36.6588 17.9H36.6538M36.6588 17.9H36.6538M36.6538 17.9H36.6489M36.6538 17.9H36.6489M36.6489 17.9H36.6439M36.6489 17.9H36.6439M36.6439 17.9H36.639M36.6439 17.9H36.639M36.639 17.9H36.634M36.639 17.9H36.634M36.634 17.9H36.629M36.634 17.9H36.629M36.629 17.9H36.624M36.629 17.9H36.624M36.624 17.9H36.6189M36.624 17.9H36.6189M36.6189 17.9H36.6139M36.6189 17.9H36.6139M36.6139 17.9H36.6088M36.6139 17.9H36.6088M36.6088 17.9H36.6038M36.6088 17.9H36.6038M36.6038 17.9H36.5987M36.6038 17.9H36.5987M36.5987 17.9H36.5936M36.5987 17.9H36.5936M36.5936 17.9H36.5885M36.5936 17.9H36.5885M36.5885 17.9H36.5833M36.5885 17.9H36.5833M36.5833 17.9H36.5782M36.5833 17.9H36.5782M36.5782 17.9H36.573M36.5782 17.9H36.573M36.573 17.9H36.5679M36.573 17.9H36.5679M36.5679 17.9H36.5627M36.5679 17.9H36.5627M36.5627 17.9H36.5575M36.5627 17.9H36.5575M36.5575 17.9H36.5523M36.5575 17.9H36.5523M36.5523 17.9H36.5471M36.5523 17.9H36.5471M36.5471 17.9H36.5418M36.5471 17.9H36.5418M36.5418 17.9H36.5366M36.5418 17.9H36.5366M36.5366 17.9H36.5313M36.5366 17.9H36.5313M36.5313 17.9H36.5261M36.5313 17.9H36.5261M36.5261 17.9H36.5208M36.5261 17.9H36.5208M36.5208 17.9H36.5155M36.5208 17.9H36.5155M36.5155 17.9H36.5102M36.5155 17.9H36.5102M36.5102 17.9H36.5048M36.5102 17.9H36.5048M36.5048 17.9H36.4995M36.5048 17.9H36.4995M36.4995 17.9H36.4942M36.4995 17.9H36.4942M36.4942 17.9H36.4888M36.4942 17.9H36.4888M36.4888 17.9H36.4834M36.4888 17.9H36.4834M36.4834 17.9H36.478M36.4834 17.9H36.478M36.478 17.9H36.4727M36.478 17.9H36.4727M36.4727 17.9H36.4672M36.4727 17.9H36.4672M36.4672 17.9H36.4618M36.4672 17.9H36.4618M36.4618 17.9H36.4564M36.4618 17.9H36.4564M36.4564 17.9H36.4509M36.4564 17.9H36.4509M36.4509 17.9H36.4455M36.4509 17.9H36.4455M36.4455 17.9H36.44M36.4455 17.9H36.44M36.44 17.9H36.4345M36.44 17.9H36.4345M36.4345 17.9H36.4291M36.4345 17.9H36.4291M36.4291 17.9H36.4236M36.4291 17.9H36.4236M36.4236 17.9H36.418M36.4236 17.9H36.418M36.418 17.9H36.4125M36.418 17.9H36.4125M36.4125 17.9H36.407M36.4125 17.9H36.407M36.407 17.9H36.4014M36.407 17.9H36.4014M36.4014 17.9H36.3959M36.4014 17.9H36.3959M36.3959 17.9H36.3903M36.3959 17.9H36.3903M36.3903 17.9H36.3847M36.3903 17.9H36.3847M36.3847 17.9H36.3791M36.3847 17.9H36.3791M36.3791 17.9H36.3735M36.3791 17.9H36.3735M36.3735 17.9H36.3679M36.3735 17.9H36.3679M36.3679 17.9H36.3623M36.3679 17.9H36.3623M36.3623 17.9H36.3567M36.3623 17.9H36.3567M36.3567 17.9H36.351M36.3567 17.9H36.351M36.351 17.9H36.3454M36.351 17.9H36.3454M36.3454 17.9H36.3397M36.3454 17.9H36.3397M36.3397 17.9H36.334M36.3397 17.9H36.334M36.334 17.9H36.3283M36.334 17.9H36.3283M36.3283 17.9H36.3226M36.3283 17.9H36.3226M36.3226 17.9H36.3169M36.3226 17.9H36.3169M36.3169 17.9H36.3112M36.3169 17.9H36.3112M36.3112 17.9H36.3055M36.3112 17.9H36.3055M36.3055 17.9H36.2998M36.3055 17.9H36.2998M36.2998 17.9H36.294M36.2998 17.9H36.294M36.294 17.9H36.2883M36.294 17.9H36.2883M36.2883 17.9H36.2825M36.2883 17.9H36.2825M36.2825 17.9H36.2767M36.2825 17.9H36.2767M36.2767 17.9H36.2709M36.2767 17.9H36.2709M36.2709 17.9H36.2651M36.2709 17.9H36.2651M36.2651 17.9H36.2593M36.2651 17.9H36.2593M36.2593 17.9H36.2535M36.2593 17.9H36.2535M36.2535 17.9H36.2477M36.2535 17.9H36.2477M36.2477 17.9H36.2419M36.2477 17.9H36.2419M36.2419 17.9H36.236M36.2419 17.9H36.236M36.236 17.9H36.2302M36.236 17.9H36.2302M36.2302 17.9H36.2243M36.2302 17.9H36.2243M36.2243 17.9H36.2185M36.2243 17.9H36.2185M36.2185 17.9H36.2126M36.2185 17.9H36.2126M36.2126 17.9H36.2067M36.2126 17.9H36.2067M36.2067 17.9H36.2008M36.2067 17.9H36.2008M36.2008 17.9H36.1949M36.2008 17.9H36.1949M36.1949 17.9H36.189M36.1949 17.9H36.189M36.189 17.9H36.1831M36.189 17.9H36.1831M36.1831 17.9H36.1771M36.1831 17.9H36.1771M36.1771 17.9H36.1712M36.1771 17.9H36.1712M36.1712 17.9H36.1653M36.1712 17.9H36.1653M36.1653 17.9H36.1593M36.1653 17.9H36.1593M36.1593 17.9H36.1534M36.1593 17.9H36.1534M36.1534 17.9H36.1474M36.1534 17.9H36.1474M36.1474 17.9H36.1414M36.1474 17.9H36.1414M36.1414 17.9H36.1354M36.1414 17.9H36.1354M36.1354 17.9H36.1294M36.1354 17.9H36.1294M36.1294 17.9H36.1234M36.1294 17.9H36.1234M36.1234 17.9H36.1174M36.1234 17.9H36.1174M36.1174 17.9H36.1114M36.1174 17.9H36.1114M36.1114 17.9H36.1054M36.1114 17.9H36.1054M36.1054 17.9H36.0994M36.1054 17.9H36.0994M36.0994 17.9H36.0933M36.0994 17.9H36.0933M36.0933 17.9H36.0873M36.0933 17.9H36.0873M36.0873 17.9H36.0812M36.0873 17.9H36.0812M36.0812 17.9H36.0752M36.0812 17.9H36.0752M36.0752 17.9H36.0691M36.0752 17.9H36.0691M36.0691 17.9H36.0631M36.0691 17.9H36.0631M36.0631 17.9H36.057M36.0631 17.9H36.057M36.057 17.9H36.0509M36.057 17.9H36.0509M36.0509 17.9H36.0448M36.0509 17.9H36.0448M36.0448 17.9H36.0387M36.0448 17.9H36.0387M36.0387 17.9H36.0326M36.0387 17.9H36.0326M36.0326 17.9H36.0265M36.0326 17.9H36.0265M36.0265 17.9H36.0204M36.0265 17.9H36.0204M36.0204 17.9H36.0142M36.0204 17.9H36.0142M36.0142 17.9H36.0081M36.0142 17.9H36.0081M36.0081 17.9H36.002M36.0081 17.9H36.002M36.002 17.9H35.9958M36.002 17.9H35.9958M35.9958 17.9H35.9897M35.9958 17.9H35.9897M35.9897 17.9H35.9835M35.9897 17.9H35.9835M35.9835 17.9H35.9774M35.9835 17.9H35.9774M35.9774 17.9H35.9712M35.9774 17.9H35.9712M35.9712 17.9H35.965M35.9712 17.9H35.965M35.965 17.9H35.9588M35.965 17.9H35.9588M35.9588 17.9H35.9527M35.9588 17.9H35.9527M35.9527 17.9H35.9465M35.9527 17.9H35.9465M35.9465 17.9H35.9403M35.9465 17.9H35.9403M35.9403 17.9H35.9341M35.9403 17.9H35.9341M35.9341 17.9H35.9279M35.9341 17.9H35.9279M35.9279 17.9H35.9216M35.9279 17.9H35.9216M35.9216 17.9H35.9154M35.9216 17.9H35.9154M35.9154 17.9H35.9092M35.9154 17.9H35.9092M35.9092 17.9H35.903M35.9092 17.9H35.903M35.903 17.9H35.8967M35.903 17.9H35.8967M35.8967 17.9H35.8905M35.8967 17.9H35.8905M35.8905 17.9H35.8843M35.8905 17.9H35.8843M35.8843 17.9H35.878M35.8843 17.9H35.878M35.878 17.9H35.8718M35.878 17.9H35.8718M35.8718 17.9H35.8655M35.8718 17.9H35.8655M35.8655 17.9H35.8592M35.8655 17.9H35.8592M35.8592 17.9H35.853M35.8592 17.9H35.853M35.853 17.9H35.8467M35.853 17.9H35.8467M35.8467 17.9H35.8404M35.8467 17.9H35.8404M35.8404 17.9H35.8342M35.8404 17.9H35.8342M35.8342 17.9H35.8279M35.8342 17.9H35.8279M35.8279 17.9H35.8216M35.8279 17.9H35.8216M35.8216 17.9H35.8153M35.8216 17.9H35.8153M35.8153 17.9H35.809M35.8153 17.9H35.809M35.809 17.9H35.8027M35.809 17.9H35.8027M35.8027 17.9H35.7964M35.8027 17.9H35.7964M35.7964 17.9H35.7901M35.7964 17.9H35.7901M35.7901 17.9H35.7838M35.7901 17.9H35.7838M35.7838 17.9H35.7775M35.7838 17.9H35.7775M35.7775 17.9H35.7712M35.7775 17.9H35.7712M35.7712 17.9H35.7648M35.7712 17.9H35.7648M35.7648 17.9H35.7585M35.7648 17.9H35.7585M35.7585 17.9H35.7522M35.7585 17.9H35.7522M35.7522 17.9H35.7458M35.7522 17.9H35.7458M35.7458 17.9H35.7395M35.7458 17.9H35.7395M35.7395 17.9H35.7332M35.7395 17.9H35.7332M35.7332 17.9H35.7268M35.7332 17.9H35.7268M35.7268 17.9H35.7205M35.7268 17.9H35.7205M35.7205 17.9H35.7141M35.7205 17.9H35.7141M35.7141 17.9H35.7078M35.7141 17.9H35.7078M35.7078 17.9H35.7014M35.7078 17.9H35.7014M35.7014 17.9H35.6951M35.7014 17.9H35.6951M35.6951 17.9H35.6887M35.6951 17.9H35.6887M35.6887 17.9H35.6824M35.6887 17.9H35.6824M35.6824 17.9H35.676M35.6824 17.9H35.676M35.676 17.9H35.6696M35.676 17.9H35.6696M35.6696 17.9H35.6633M35.6696 17.9H35.6633M35.6633 17.9H35.6569M35.6633 17.9H35.6569M35.6569 17.9H35.6505M35.6569 17.9H35.6505M35.6505 17.9H35.6442M35.6505 17.9H35.6442M35.6442 17.9H35.6378M35.6442 17.9H35.6378M35.6378 17.9H35.6314M35.6378 17.9H35.6314M35.6314 17.9H35.625M35.6314 17.9H35.625M35.625 17.9H35.6187M35.625 17.9H35.6187M35.6187 17.9H35.6123M35.6187 17.9H35.6123M35.6123 17.9H35.6059M35.6123 17.9H35.6059M35.6059 17.9H35.5995M35.6059 17.9H35.5995M35.5995 17.9H35.5931M35.5995 17.9H35.5931M35.5931 17.9H35.5867M35.5931 17.9H35.5867M35.5867 17.9H35.5803M35.5867 17.9H35.5803M35.5803 17.9H35.5739M35.5803 17.9H35.5739M35.5739 17.9H35.5675M35.5739 17.9H35.5675M35.5675 17.9H35.5611M35.5675 17.9H35.5611M35.5611 17.9H35.5548M35.5611 17.9H35.5548M35.5548 17.9H35.5484M35.5548 17.9H35.5484M35.5484 17.9H35.542M35.5484 17.9H35.542M35.542 17.9H35.5356M35.542 17.9H35.5356M35.5356 17.9H35.5292M35.5356 17.9H35.5292M35.5292 17.9H35.5228M35.5292 17.9H35.5228M35.5228 17.9H35.5164M35.5228 17.9H35.5164M35.5164 17.9H35.51M35.5164 17.9H35.51M35.51 17.9H35.5036M35.51 17.9H35.5036M35.5036 17.9H35.4972M35.5036 17.9H35.4972M35.4972 17.9H35.4908M35.4972 17.9H35.4908M35.4908 17.9H35.4843M35.4908 17.9H35.4843M35.4843 17.9H35.4779M35.4843 17.9H35.4779M35.4779 17.9H35.4715M35.4779 17.9H35.4715M35.4715 17.9H35.4651M35.4715 17.9H35.4651M35.4651 17.9H35.4587M35.4651 17.9H35.4587M35.4587 17.9H35.4523M35.4587 17.9H35.4523M35.4523 17.9H35.4459M35.4523 17.9H35.4459M35.4459 17.9H35.4395M35.4459 17.9H35.4395M35.4395 17.9H35.4331M35.4395 17.9H35.4331M35.4331 17.9H35.4267M35.4331 17.9H35.4267M35.4267 17.9H35.4203M35.4267 17.9H35.4203M35.4203 17.9H35.4139M35.4203 17.9H35.4139M35.4139 17.9H35.4075M35.4139 17.9H35.4075M35.4075 17.9H35.4011M35.4075 17.9H35.4011M35.4011 17.9H35.3947M35.4011 17.9H35.3947M35.3947 17.9H35.3883M35.3947 17.9H35.3883M35.3883 17.9H35.3819M35.3883 17.9H35.3819M35.3819 17.9H35.3755M35.3819 17.9H35.3755M35.3755 17.9H35.3691M35.3755 17.9H35.3691M35.3691 17.9H35.3627M35.3691 17.9H35.3627M35.3627 17.9H35.3563M35.3627 17.9H35.3563M35.3563 17.9H35.3499M35.3563 17.9H35.3499M35.3499 17.9H35.3436M35.3499 17.9H35.3436M35.3436 17.9H35.3372M35.3436 17.9H35.3372M35.3372 17.9H35.3308M35.3372 17.9H35.3308M35.3308 17.9H35.3244M35.3308 17.9H35.3244M35.3244 17.9H35.318M35.3244 17.9H35.318M35.318 17.9H35.3116M35.318 17.9H35.3116M35.3116 17.9H35.3052M35.3116 17.9H35.3052M35.3052 17.9H35.2989M35.3052 17.9H35.2989M35.2989 17.9H35.2925M35.2989 17.9H35.2925M35.2925 17.9H35.2861M35.2925 17.9H35.2861M35.2861 17.9H35.2797M35.2861 17.9H35.2797M35.2797 17.9H35.2734M35.2797 17.9H35.2734M35.2734 17.9H35.267M35.2734 17.9H35.267M35.267 17.9H35.2606M35.267 17.9H35.2606M35.2606 17.9H35.2543M35.2606 17.9H35.2543M35.2543 17.9H35.2479M35.2543 17.9H35.2479M35.2479 17.9H35.2415M35.2479 17.9H35.2415M35.2415 17.9H35.2352M35.2415 17.9H35.2352M35.2352 17.9H35.2288M35.2352 17.9H35.2288M35.2288 17.9H35.2225M35.2288 17.9H35.2225M35.2225 17.9H35.2161M35.2225 17.9H35.2161M35.2161 17.9H35.2098M35.2161 17.9H35.2098M35.2098 17.9H35.2034M35.2098 17.9H35.2034M35.2034 17.9H35.1971M35.2034 17.9H35.1971M35.1971 17.9H35.1907M35.1971 17.9H35.1907M35.1907 17.9H35.1844M35.1907 17.9H35.1844M35.1844 17.9H35.1781M35.1844 17.9H35.1781M35.1781 17.9H35.1717M35.1781 17.9H35.1717M35.1717 17.9H35.1654H35.1717Z" fill="black" stroke="white" stroke-width="0.2"/>
    <path d="M33.6712 6.1H37.2578C37.5862 6.1 37.853 6.36665 37.853 6.6952C37.853 7.02353 37.5862 7.2902 37.2578 7.2902H33.6712C33.3428 7.2902 33.0762 7.02357 33.0762 6.6952C33.0762 6.36661 33.3428 6.1 33.6712 6.1Z" fill="black" stroke="white" stroke-width="0.2"/>
  </g>
  <defs>
    <clipPath id="clip0_0_1">
      <rect width="16" height="16" fill="white" transform="translate(24 4)"/>
    </clipPath>
  </defs>
</svg>
