<svg width="13" height="116" viewBox="0 0 13 116" fill="black" xmlns="http://www.w3.org/2000/svg">
  <path d="M0.9 111.927C0.9 114.607 3.04 115.747 5.07 115.667C7.38 115.567 5.15 110.737 6.07 109.777C7.32 108.487 11.71 110.877 11.71 111.947C11.71 114.447 9.25 114.457 9.25 114.457L9.25 115.607C9.59 115.607 12 115.537 12 112.287C12 110.407 9.67 108.247 7.36 108.247C4.25 108.247 6.22 114.217 4.68 114.517C3.19 114.817 1.36 114.177 1.36 112.927C1.36 110.637 3.14 110.277 3.14 110.277L3.14 108.927C2.72 109.007 0.9 109.927 0.9 111.927ZM0.899999 100.769L6.25 100.769L6.25 104.649L1.51 104.649L0.899999 105.619L12 105.619L12 104.649L6.78 104.649L6.78 100.769L12 100.769L12 99.789L1.51 99.789L0.899999 100.769ZM8.19 92.8769L8.19 96.6569L2.52 94.5469L8.19 92.8769ZM8.81 96.8869L8.81 92.6969L12 91.7969L11.6 90.6969L0.899999 93.9869L1.25 94.5369L11.79 98.6569L12 98.1069L8.81 96.8869ZM6.56 86.4722C6.6 86.8822 6.55 87.8322 6.53 87.8322L1.25 87.8322L1.25 86.9322C1.25 84.8322 2.66 84.1622 3.9 84.1622C5.97 84.1622 6.51 85.9122 6.56 86.4722ZM0.899998 85.7522L0.899999 88.7822L12 88.7822L12 87.8322L7.25 87.8322C7.25 87.8322 7.21 87.6122 7.2 87.5022C6.96 85.5422 6.18 84.7822 5.91 84.4922C5.91 84.4922 4.89 83.4522 3.23 83.4622C1.98 83.4722 0.899998 84.4022 0.899998 85.7522ZM11.56 80.342L6.79 80.342L6.79 76.432L6.36 76.432L6.36 80.342L1.36 80.342L1.36 75.042L0.899998 75.042L0.899998 81.422L11.33 81.422L12 80.342L12 75.002L11.56 75.002L11.56 80.342ZM0.899998 70.0223C0.899998 72.7023 3.04 73.8423 5.07 73.7623C7.38 73.6623 5.15 68.8323 6.07 67.8723C7.32 66.5823 11.71 68.9723 11.71 70.0423C11.71 72.5423 9.25 72.5523 9.25 72.5523L9.25 73.7023C9.59 73.7023 12 73.6323 12 70.3823C12 68.5023 9.67 66.3423 7.36 66.3423C4.25 66.3423 6.22 72.3123 4.68 72.6123C3.19 72.9123 1.36 72.2723 1.36 71.0223C1.36 68.7323 3.14 68.3723 3.14 68.3723L3.14 67.0223C2.72 67.1023 0.899998 68.0223 0.899998 70.0223ZM5.96 54.6743L5.96 55.2943L4.55 55.2943L5.96 56.2343L5.96 57.1943C5.96 57.9543 5.83 59.2143 4.14 59.4943C3.24 59.6343 1.28 59.3343 1.28 56.6843C1.28 56.6843 0.909997 57.2343 0.909997 57.8443C0.929998 59.0743 1.85 60.1843 3.25 60.1843C4.89 60.1843 5.83 58.9143 5.83 58.9143C5.83 58.9143 6.57 60.5943 8.51 60.8843C10.12 61.1243 11.99 60.1643 11.99 58.3143C11.99 57.4843 11.34 56.5143 10.68 56.2443L12.01 56.2443L12.01 55.2943L6.3 55.2943L6.3 54.6743L5.96 54.6743ZM11.65 58.6943C11.63 59.7143 10.46 60.1443 9.42 60.1443C8.35 60.1443 6.3 59.5043 6.3 57.1943L6.29 56.2343C6.29 56.2443 11.7 55.7343 11.65 58.6943ZM12 47.5206L0.899997 47.5206L0.899997 48.4606L12 48.4606L12 47.5206ZM0.899996 37.0732L10.41 40.5832L0.899997 44.1332L0.899997 45.1732L12 45.1732L12 44.6332L3.01 44.6332L12 41.1332L11.74 40.4532L2.75 37.1232L12 37.1732L12 36.5832L0.899996 36.5832L0.899996 37.0732ZM8.19 29.332L8.19 33.112L2.52 31.002L8.19 29.332ZM8.81 33.342L8.81 29.152L12 28.252L11.6 27.152L0.899996 30.442L1.25 30.992L11.79 35.112L12 34.562L8.81 33.342ZM8 18.7473L8 22.3173L8.55 22.3173C8.55 22.3173 8.51 19.4773 8.67 19.4773C10.1 19.3873 10.85 19.5073 11.1 20.1973C12.55 24.1773 3.02 27.3373 1.64 23.9273C1.32 23.1273 1.3 21.4973 3.32 20.1673L3.32 18.9173C0.439996 20.2573 0.899996 22.8873 0.899996 22.8873C0.899996 22.8873 1.21 26.1173 5.64 26.1173C10.05 26.1173 12 23.4073 12 21.4373C12 20.4073 11.34 18.9773 8.85 18.7673C8.54 18.7173 8 18.7473 8 18.7473ZM11.56 14.9806L6.79 14.9806L6.79 11.0706L6.36 11.0706L6.36 14.9806L1.36 14.9806L1.36 9.68062L0.899995 9.68062L0.899995 16.0606L11.33 16.0606L12 14.9806L12 9.64062L11.56 9.64062L11.56 14.9806ZM0.899995 4.66102C0.899995 7.34102 3.03999 8.48102 5.07 8.40102C7.38 8.30102 5.14999 3.47102 6.06999 2.51102C7.31999 1.22102 11.71 3.61102 11.71 4.68102C11.71 7.18102 9.25 7.19102 9.25 7.19102L9.25 8.34102C9.59 8.34102 12 8.27102 12 5.02102C12 3.14102 9.66999 0.981015 7.35999 0.981015C4.24999 0.981015 6.22 6.95102 4.67999 7.25102C3.18999 7.55102 1.36 6.91102 1.36 5.66102C1.35999 3.37102 3.13999 3.01102 3.13999 3.01102L3.13999 1.66102C2.71999 1.74102 0.899995 2.66102 0.899995 4.66102Z" />
  <path d="M5.07 115.667L5.07394 115.767L5.07432 115.767L5.07 115.667ZM6.07 109.777L5.99818 109.707L5.9978 109.707L6.07 109.777ZM9.25 114.457L9.24959 114.357L9.15 114.357L9.15 114.457L9.25 114.457ZM9.25 115.607L9.15 115.607L9.15 115.707L9.25 115.707L9.25 115.607ZM4.68 114.517L4.66088 114.418L4.66026 114.419L4.68 114.517ZM3.14 110.277L3.15982 110.375L3.24 110.358L3.24 110.277L3.14 110.277ZM3.14 108.927L3.24 108.927L3.24 108.806L3.12129 108.828L3.14 108.927ZM0.8 111.927C0.8 113.296 1.34846 114.281 2.16257 114.911C2.97352 115.538 4.04047 115.807 5.07394 115.767L5.06606 115.567C4.06953 115.606 3.05148 115.345 2.28493 114.753C1.52154 114.162 1 113.237 1 111.927L0.8 111.927ZM5.07432 115.767C5.38174 115.753 5.62277 115.66 5.80479 115.499C5.98565 115.339 6.09954 115.118 6.16795 114.865C6.30364 114.363 6.26741 113.702 6.1906 113.033C6.11261 112.353 5.9937 111.669 5.9502 111.081C5.9286 110.789 5.92654 110.529 5.95666 110.315C5.98698 110.1 6.04823 109.944 6.1422 109.846L5.9978 109.707C5.86177 109.849 5.79146 110.054 5.75861 110.287C5.72557 110.522 5.72874 110.798 5.75074 111.095C5.79443 111.686 5.91614 112.395 5.9919 113.056C6.06884 113.726 6.09948 114.352 5.97487 114.813C5.91312 115.042 5.81505 115.223 5.67212 115.349C5.53035 115.475 5.33575 115.555 5.06567 115.567L5.07432 115.767ZM6.14181 109.846C6.42218 109.557 6.89168 109.462 7.46854 109.521C8.04151 109.578 8.69654 109.785 9.31736 110.068C9.93776 110.35 10.5178 110.704 10.941 111.052C11.1528 111.226 11.3226 111.396 11.4386 111.553C11.5563 111.712 11.61 111.845 11.61 111.947L11.81 111.947C11.81 111.781 11.7265 111.605 11.5993 111.434C11.4703 111.26 11.2874 111.078 11.068 110.898C10.6291 110.537 10.0335 110.174 9.40014 109.886C8.76721 109.598 8.09036 109.382 7.48865 109.322C6.89082 109.261 6.34282 109.351 5.99818 109.707L6.14181 109.846ZM11.61 111.947C11.61 112.554 11.4607 113.004 11.2419 113.339C11.0228 113.674 10.73 113.899 10.4344 114.05C10.1384 114.202 9.84126 114.279 9.61729 114.317C9.50553 114.337 9.41263 114.347 9.34806 114.352C9.31579 114.354 9.29066 114.355 9.27384 114.356C9.26543 114.356 9.2591 114.356 9.25501 114.357C9.25297 114.357 9.25148 114.357 9.25057 114.357C9.25012 114.357 9.2498 114.357 9.24964 114.357C9.24956 114.357 9.24951 114.357 9.24951 114.357C9.2495 114.357 9.24952 114.357 9.24952 114.357C9.24955 114.357 9.24959 114.357 9.25 114.457C9.25041 114.557 9.25047 114.557 9.25053 114.557C9.25057 114.557 9.25065 114.557 9.25072 114.557C9.25086 114.557 9.25104 114.557 9.25125 114.557C9.25169 114.557 9.25227 114.557 9.253 114.557C9.25445 114.557 9.25649 114.557 9.2591 114.557C9.26432 114.556 9.27181 114.556 9.28142 114.556C9.30063 114.555 9.32835 114.554 9.36335 114.551C9.43331 114.546 9.53259 114.535 9.65146 114.515C9.88874 114.473 10.2066 114.392 10.5256 114.228C10.845 114.065 11.1672 113.818 11.4093 113.448C11.6518 113.078 11.81 112.589 11.81 111.947L11.61 111.947ZM9.15 114.457L9.15 115.607L9.35 115.607L9.35 114.457L9.15 114.457ZM9.25 115.707C9.42617 115.707 10.1377 115.689 10.8074 115.249C11.4845 114.804 12.1 113.94 12.1 112.287L11.9 112.287C11.9 113.883 11.3105 114.679 10.6976 115.082C10.0773 115.489 9.41383 115.507 9.25 115.507L9.25 115.707ZM12.1 112.287C12.1 111.308 11.4961 110.273 10.6127 109.487C9.72763 108.7 8.54489 108.147 7.36 108.147L7.36 108.347C8.4851 108.347 9.62237 108.874 10.4798 109.636C11.3389 110.401 11.9 111.385 11.9 112.287L12.1 112.287ZM7.36 108.147C6.95454 108.147 6.62527 108.244 6.35979 108.42C6.09485 108.596 5.90015 108.846 5.75599 109.14C5.46958 109.724 5.37581 110.498 5.33142 111.263C5.28643 112.039 5.29186 112.8 5.21198 113.397C5.17223 113.694 5.11255 113.939 5.02098 114.115C4.93098 114.289 4.81506 114.388 4.66088 114.418L4.69912 114.615C4.92993 114.57 5.08933 114.418 5.19851 114.207C5.30612 114 5.36949 113.728 5.41021 113.424C5.49126 112.817 5.48731 112.029 5.53108 111.275C5.57544 110.51 5.66854 109.773 5.93557 109.228C6.06813 108.958 6.24179 108.739 6.47041 108.587C6.69848 108.436 6.98796 108.347 7.36 108.347L7.36 108.147ZM4.66026 114.419C3.93425 114.565 3.12509 114.481 2.50099 114.211C1.87479 113.94 1.46 113.495 1.46 112.927L1.26 112.927C1.26 113.609 1.76021 114.108 2.42151 114.395C3.08491 114.682 3.93575 114.768 4.69974 114.615L4.66026 114.419ZM1.46 112.927C1.46 111.812 1.89157 111.177 2.31456 110.819C2.52761 110.639 2.74075 110.527 2.90034 110.461C2.98005 110.428 3.04613 110.406 3.09173 110.393C3.11453 110.386 3.13217 110.381 3.14382 110.378C3.14964 110.377 3.15395 110.376 3.15666 110.375C3.15801 110.375 3.15896 110.375 3.15949 110.375C3.15976 110.375 3.15992 110.375 3.15997 110.375C3.16 110.375 3.16 110.375 3.15998 110.375C3.15997 110.375 3.15993 110.375 3.15992 110.375C3.15988 110.375 3.15982 110.375 3.14 110.277C3.12018 110.179 3.12011 110.179 3.12004 110.179C3.12 110.179 3.11992 110.179 3.11986 110.179C3.11972 110.179 3.11956 110.179 3.11938 110.179C3.119 110.179 3.11852 110.179 3.11793 110.179C3.11675 110.179 3.11514 110.18 3.11313 110.18C3.1091 110.181 3.10342 110.182 3.0962 110.184C3.08177 110.188 3.06117 110.193 3.0353 110.201C2.98356 110.216 2.91057 110.24 2.82341 110.276C2.64925 110.349 2.41739 110.47 2.18543 110.667C1.71843 111.061 1.26 111.752 1.26 112.927L1.46 112.927ZM3.24 110.277L3.24 108.927L3.04 108.927L3.04 110.277L3.24 110.277ZM3.12129 108.828C3.00125 108.851 2.79801 108.929 2.56392 109.061C2.32772 109.193 2.05371 109.383 1.79304 109.635C1.27113 110.139 0.8 110.893 0.8 111.927L1 111.927C0.999999 110.96 1.43887 110.255 1.93196 109.779C2.17879 109.54 2.43853 109.36 2.66171 109.235C2.88699 109.109 3.06875 109.042 3.15871 109.025L3.12129 108.828ZM0.899999 100.769L0.815102 100.716L0.719965 100.869L0.899999 100.869L0.899999 100.769ZM6.25 100.769L6.35 100.769L6.35 100.669L6.25 100.669L6.25 100.769ZM6.25 104.649L6.25 104.749L6.35 104.749L6.35 104.649L6.25 104.649ZM1.51 104.649L1.51 104.549L1.45476 104.549L1.42535 104.596L1.51 104.649ZM0.899999 105.619L0.815347 105.566L0.718983 105.719L0.899999 105.719L0.899999 105.619ZM12 105.619L12 105.719L12.1 105.719L12.1 105.619L12 105.619ZM12 104.649L12.1 104.649L12.1 104.549L12 104.549L12 104.649ZM6.78 104.649L6.68 104.649L6.68 104.749L6.78 104.749L6.78 104.649ZM6.78 100.769L6.78 100.669L6.68 100.669L6.68 100.769L6.78 100.769ZM12 100.769L12 100.869L12.1 100.869L12.1 100.769L12 100.769ZM12 99.789L12.1 99.789L12.1 99.689L12 99.689L12 99.789ZM1.51 99.789L1.51 99.689L1.45445 99.689L1.4251 99.7361L1.51 99.789ZM0.899999 100.869L6.25 100.869L6.25 100.669L0.899999 100.669L0.899999 100.869ZM6.15 100.769L6.15 104.649L6.35 104.649L6.35 100.769L6.15 100.769ZM6.25 104.549L1.51 104.549L1.51 104.749L6.25 104.749L6.25 104.549ZM1.42535 104.596L0.815347 105.566L0.984652 105.672L1.59465 104.702L1.42535 104.596ZM0.899999 105.719L12 105.719L12 105.519L0.899999 105.519L0.899999 105.719ZM12.1 105.619L12.1 104.649L11.9 104.649L11.9 105.619L12.1 105.619ZM12 104.549L6.78 104.549L6.78 104.749L12 104.749L12 104.549ZM6.88 104.649L6.88 100.769L6.68 100.769L6.68 104.649L6.88 104.649ZM6.78 100.869L12 100.869L12 100.669L6.78 100.669L6.78 100.869ZM12.1 100.769L12.1 99.789L11.9 99.789L11.9 100.769L12.1 100.769ZM12 99.689L1.51 99.689L1.51 99.889L12 99.889L12 99.689ZM1.4251 99.7361L0.815102 100.716L0.984896 100.822L1.5949 99.8418L1.4251 99.7361ZM8.19 92.8769L8.29 92.8769L8.29 92.7432L8.16175 92.7809L8.19 92.8769ZM8.19 96.6569L8.15512 96.7506L8.29 96.8008L8.29 96.6569L8.19 96.6569ZM2.52 94.5469L2.49174 94.4509L2.20358 94.5358L2.48512 94.6406L2.52 94.5469ZM8.81 96.8869L8.71 96.8869L8.71 96.9557L8.77428 96.9803L8.81 96.8869ZM8.81 92.6969L8.78285 92.6006L8.71 92.6212L8.71 92.6969L8.81 92.6969ZM12 91.7969L12.0272 91.8931L12.1308 91.8639L12.094 91.7627L12 91.7969ZM11.6 90.6969L11.694 90.6627L11.6615 90.5733L11.5706 90.6013L11.6 90.6969ZM0.899999 93.9869L0.870609 93.8913L0.745184 93.9299L0.815633 94.0406L0.899999 93.9869ZM1.25 94.5369L1.16563 94.5906L1.18317 94.6181L1.21359 94.63L1.25 94.5369ZM11.79 98.6569L11.7536 98.75L11.8475 98.7867L11.8834 98.6925L11.79 98.6569ZM12 98.1069L12.0934 98.1425L12.1291 98.0492L12.0357 98.0135L12 98.1069ZM8.09 92.8769L8.09 96.6569L8.29 96.6569L8.29 92.8769L8.09 92.8769ZM8.22488 96.5632L2.55487 94.4532L2.48512 94.6406L8.15512 96.7506L8.22488 96.5632ZM2.54825 94.6428L8.21825 92.9728L8.16175 92.7809L2.49174 94.4509L2.54825 94.6428ZM8.91 96.8869L8.91 92.6969L8.71 92.6969L8.71 96.8869L8.91 96.8869ZM8.83715 92.7931L12.0272 91.8931L11.9728 91.7006L8.78285 92.6006L8.83715 92.7931ZM12.094 91.7627L11.694 90.6627L11.506 90.731L11.906 91.831L12.094 91.7627ZM11.5706 90.6013L0.870609 93.8913L0.929389 94.0825L11.6294 90.7925L11.5706 90.6013ZM0.815633 94.0406L1.16563 94.5906L1.33436 94.4832L0.984365 93.9332L0.815633 94.0406ZM1.21359 94.63L11.7536 98.75L11.8264 98.5637L1.28641 94.4437L1.21359 94.63ZM11.8834 98.6925L12.0934 98.1425L11.9066 98.0712L11.6966 98.6212L11.8834 98.6925ZM12.0357 98.0135L8.84572 96.7935L8.77428 96.9803L11.9643 98.2003L12.0357 98.0135ZM6.56 86.4722L6.46039 86.4811L6.46047 86.4819L6.56 86.4722ZM1.25 87.8322L1.15 87.8322L1.15 87.9322L1.25 87.9322L1.25 87.8322ZM0.899999 88.7822L0.799999 88.7822L0.799999 88.8822L0.899999 88.8822L0.899999 88.7822ZM12 88.7822L12 88.8822L12.1 88.8822L12.1 88.7822L12 88.7822ZM12 87.8322L12.1 87.8322L12.1 87.7322L12 87.7322L12 87.8322ZM7.25 87.8322L7.15161 87.8501L7.16654 87.9322L7.25 87.9322L7.25 87.8322ZM7.2 87.5022L7.29964 87.4931L7.29926 87.49L7.2 87.5022ZM5.91 84.4922L5.98321 84.424L5.98139 84.4222L5.91 84.4922ZM3.23 83.4622L3.2294 83.3622L3.2292 83.3622L3.23 83.4622ZM6.46047 86.4819C6.47976 86.6797 6.47756 87.0138 6.46756 87.3025C6.46259 87.4459 6.45577 87.5762 6.44901 87.6702C6.44561 87.7174 6.4423 87.7542 6.43938 87.7787C6.43786 87.7913 6.43671 87.7984 6.43613 87.8012C6.4357 87.8033 6.43623 87.7999 6.43834 87.7943C6.43917 87.7921 6.44244 87.7834 6.44954 87.7734C6.45318 87.7683 6.47895 87.7322 6.53 87.7322L6.53 87.9322C6.58167 87.9322 6.60808 87.8956 6.61238 87.8896C6.62012 87.8787 6.62407 87.8686 6.62557 87.8646C6.62905 87.8554 6.63099 87.8466 6.63201 87.8416C6.63434 87.8303 6.63627 87.8166 6.63796 87.8024C6.64144 87.7733 6.64501 87.7328 
  6.64849 87.6845C6.65548 87.5875 6.66241 87.4547 6.66744 87.3094C6.67744 87.0206 6.68023 86.6747 6.65953 86.4625L6.46047 86.4819ZM6.53 87.7322L1.25 87.7322L1.25 87.9322L6.53 87.9322L6.53 87.7322ZM1.35 87.8322L1.35 86.9322L1.15 86.9322L1.15 87.8322L1.35 87.8322ZM1.35 86.9322C1.35 85.9065 1.6932 85.2439 2.17464 84.836C2.65912 84.4255 3.29624 84.2622 3.9 84.2622L3.9 84.0622C3.26376 84.0622 2.57588 84.2339 2.04535 84.6834C1.5118 85.1355 1.15 85.8579 1.15 86.9322L1.35 86.9322ZM3.9 84.2622C4.90209 84.2622 5.52646 84.6838 5.90896 85.1691C6.29501 85.6589 6.43682 86.2171 6.46039 86.4811L6.6596 86.4633C6.63317 86.1673 6.47998 85.5705 6.06604 85.0453C5.64853 84.5156 4.96791 84.0622 3.9 84.0622L3.9 84.2622ZM0.799999 85.7522L0.799999 88.7822L0.999999 88.7822L0.999998 85.7522L0.799999 85.7522ZM0.899999 88.8822L12 88.8822L12 88.6822L0.899999 88.6822L0.899999 88.8822ZM12.1 88.7822L12.1 87.8322L11.9 87.8322L11.9 88.7822L12.1 88.7822ZM12 87.7322L7.25 87.7322L7.25 87.9322L12 87.9322L12 87.7322ZM7.25 87.8322C7.34839 87.8143 7.34839 87.8143 7.34839 87.8143C7.34839 87.8143 7.34839 87.8143 7.34839 87.8143C7.34838 87.8143 7.34838 87.8143 7.34838 87.8143C7.34838 87.8143 7.34837 87.8142 7.34836 87.8142C7.34835 87.8141 7.34832 87.8139 7.34828 87.8137C7.34821 87.8133 7.3481 87.8127 7.34796 87.8119C7.34767 87.8104 7.34725 87.808 7.3467 87.8049C7.34561 87.7988 7.34403 87.7899 7.3421 87.7789C7.33824 87.7568 7.33299 87.7262 7.32744 87.6923C7.31617 87.6234 7.30423 87.5441 7.29959 87.4931L7.10041 87.5112C7.10577 87.5702 7.11883 87.656 7.13006 87.7246C7.13576 87.7594 7.14114 87.7907 7.14509 87.8133C7.14706 87.8246 7.14869 87.8338 7.14982 87.8401C7.15039 87.8433 7.15083 87.8457 7.15113 87.8474C7.15129 87.8483 7.1514 87.8489 7.15148 87.8494C7.15152 87.8496 7.15155 87.8498 7.15158 87.8499C7.15159 87.8499 7.1516 87.85 7.1516 87.85C7.1516 87.85 7.15161 87.85 7.15161 87.8501C7.15161 87.8501 7.15161 87.8501 7.15161 87.8501C7.15161 87.8501 7.15161 87.8501 7.25 87.8322ZM7.29926 87.49C7.17781 86.4982 6.91915 85.8059 6.6539 85.3228C6.38852 84.8395 6.11808 84.5689 5.98319 84.424L5.83681 84.5603C5.97192 84.7054 6.22647 84.9599 6.47859 85.4191C6.73085 85.8785 6.98219 86.5462 7.10074 87.5143L7.29926 87.49ZM5.91 84.4922C5.98139 84.4222 5.98136 84.4221 5.98132 84.4221C5.98131 84.4221 5.98127 84.422 5.98123 84.422C5.98116 84.4219 5.98108 84.4218 5.98098 84.4217C5.98078 84.4215 5.98052 84.4213 5.98019 84.421C5.97954 84.4203 5.97864 84.4194 5.9775 84.4183C5.9752 84.416 5.97191 84.4127 5.96765 84.4086C5.95911 84.4004 5.94665 84.3885 5.93035 84.3737C5.89775 84.3439 5.84979 84.3019 5.78719 84.2518C5.66206 84.1516 5.47813 84.0186 5.24132 83.8862C4.76782 83.6213 4.08085 83.3571 3.2294 83.3622L3.2306 83.5622C4.03915 83.5573 4.69217 83.8081 5.14367 84.0607C5.36937 84.187 5.54419 84.3134 5.66218 84.4079C5.72115 84.4551 5.76584 84.4943 5.79551 84.5214C5.81034 84.5349 5.82141 84.5454 5.82863 84.5524C5.83224 84.5559 5.83488 84.5585 5.83655 84.5602C5.83738 84.561 5.83797 84.5616 5.83831 84.5619C5.83848 84.5621 5.83859 84.5622 5.83864 84.5622C5.83867 84.5623 5.83868 84.5623 5.83867 84.5623C5.83867 84.5623 5.83865 84.5623 5.83865 84.5623C5.83863 84.5622 5.8386 84.5622 5.91 84.4922ZM3.2292 83.3622C1.93051 83.3726 0.799999 84.3412 0.799999 85.7522L0.999998 85.7522C0.999998 84.4631 2.02948 83.5718 3.2308 83.5622L3.2292 83.3622ZM11.56 80.342L11.56 80.442L11.66 80.442L11.66 80.342L11.56 80.342ZM6.79 80.342L6.69 80.342L6.69 80.442L6.79 80.442L6.79 80.342ZM6.79 76.432L6.89 76.432L6.89 76.332L6.79 76.332L6.79 76.432ZM6.36 76.432L6.36 76.332L6.26 76.332L6.26 76.432L6.36 76.432ZM6.36 80.342L6.36 80.442L6.46 80.442L6.46 80.342L6.36 80.342ZM1.36 80.342L1.26 80.342L1.26 80.442L1.36 80.442L1.36 80.342ZM1.36 75.042L1.46 75.042L1.46 74.942L1.36 74.942L1.36 75.042ZM0.899998 75.042L0.899998 74.942L0.799998 74.942L0.799998 75.042L0.899998 75.042ZM0.899998 81.422L0.799998 81.422L0.799998 81.522L0.899998 81.522L0.899998 81.422ZM11.33 81.422L11.33 81.522L11.3856 81.522L11.415 81.4747L11.33 81.422ZM12 80.342L12.085 80.3947L12.1 80.3705L12.1 80.342L12 80.342ZM12 75.002L12.1 75.002L12.1 74.902L12 74.902L12 75.002ZM11.56 75.002L11.56 74.902L11.46 74.902L11.46 75.002L11.56 75.002ZM11.56 80.242L6.79 80.242L6.79 80.442L11.56 80.442L11.56 80.242ZM6.89 80.342L6.89 76.432L6.69 76.432L6.69 80.342L6.89 80.342ZM6.79 76.332L6.36 76.332L6.36 76.532L6.79 76.532L6.79 76.332ZM6.26 76.432L6.26 80.342L6.46 80.342L6.46 76.432L6.26 76.432ZM6.36 80.242L1.36 80.242L1.36 80.442L6.36 80.442L6.36 80.242ZM1.46 80.342L1.46 75.042L1.26 75.042L1.26 80.342L1.46 80.342ZM1.36 74.942L0.899998 74.942L0.899998 75.142L1.36 75.142L1.36 74.942ZM0.799998 75.042L0.799998 81.422L0.999998 81.422L0.999998 75.042L0.799998 75.042ZM0.899998 81.522L11.33 81.522L11.33 81.322L0.899998 81.322L0.899998 81.522ZM11.415 81.4747L12.085 80.3947L11.915 80.2892L11.245 81.3692L11.415 81.4747ZM12.1 80.342L12.1 75.002L11.9 75.002L11.9 80.342L12.1 80.342ZM12 74.902L11.56 74.902L11.56 75.102L12 75.102L12 74.902ZM11.46 75.002L11.46 80.342L11.66 80.342L11.66 75.002L11.46 75.002ZM5.07 73.7623L5.07394 73.8623L5.07432 73.8623L5.07 73.7623ZM6.07 67.8723L5.99818 67.8028L5.9978 67.8032L6.07 67.8723ZM9.25 72.5523L9.24959 72.4523L9.15 72.4528L9.15 72.5523L9.25 72.5523ZM9.25 73.7023L9.15 73.7023L9.15 73.8023L9.25 73.8023L9.25 73.7023ZM4.68 72.6123L4.66088 72.5142L4.66026 72.5143L4.68 72.6123ZM3.14 68.3723L3.15982 68.4704L3.24 68.4541L3.24 68.3723L3.14 68.3723ZM3.14 67.0223L3.24 67.0223L3.24 66.9015L3.12129 66.9241L3.14 67.0223ZM0.799998 70.0223C0.799998 71.3922 1.34846 72.3768 2.16257 73.0064C2.97352 73.6336 4.04047 73.903 5.07394 73.8623L5.06606 73.6624C4.06953 73.7017 3.05147 73.4411 2.28492 72.8482C1.52153 72.2579 0.999998 71.3325 0.999998 70.0223L0.799998 70.0223ZM5.07432 73.8623C5.38174 73.8489 5.62277 73.7561 5.80479 73.5948C5.98565 73.4344 6.09954 73.2142 6.16794 72.9609C6.30364 72.4585 6.26741 71.7979 6.1906 71.1284C6.11261 70.4487 5.9937 69.7644 5.95019 69.1762C5.9286 68.8843 5.92654 68.6247 5.95666 68.4109C5.98698 68.1957 6.04822 68.0396 6.1422 67.9415L5.9978 67.8032C5.86177 67.9451 5.79145 68.1499 5.75861 68.383C5.72557 68.6175 5.72874 68.8935 5.75074 69.191C5.79442 69.7816 5.91614 70.4909 5.9919 71.1512C6.06884 71.8218 6.09948 72.4474 5.97486 72.9088C5.91311 73.1374 5.81505 73.3184 5.67212 73.4451C5.53035 73.5708 5.33575 73.6507 5.06567 73.6624L5.07432 73.8623ZM6.14181 67.9419C6.42217 67.6526 6.89167 67.5579 7.46853 67.6162C8.04151 67.6741 8.69654 67.8811 9.31736 68.1634C9.93776 68.4454 10.5178 68.7998 10.941 69.1477C11.1528 69.3218 11.3226 69.4921 11.4386 69.6485C11.5563 69.8073 11.61 69.9404 11.61 70.0423L11.81 70.0423C11.81 69.8768 11.7265 69.7011 11.5993 69.5294C11.4703 69.3554 11.2874 69.1735 11.068 68.9932C10.6291 68.6324 10.0335 68.2693 9.40013 67.9813C8.7672 67.6936 8.09036 67.4781 7.48865 67.4172C6.89082 67.3568 6.34282 67.4471 5.99818 67.8028L6.14181 67.9419ZM11.61 70.0423C11.61 70.6502 11.4607 71.1 11.2419 71.4345C11.0228 71.7694 10.73 71.9944 10.4344 72.1458C10.1384 72.2974 9.84126 72.3743 9.61728 72.4132C9.50553 72.4326 9.41262 72.4424 9.34806 72.4473C9.31579 72.4498 9.29065 72.4511 9.27383 72.4517C9.26543 72.452 9.2591 72.4522 9.25501 72.4523C9.25296 72.4523 9.25148 72.4523 9.25057 72.4523C9.25011 72.4523 9.2498 72.4523 9.24964 72.4523C9.24956 72.4523 9.24951 72.4523 9.2495 72.4523C9.2495 72.4523 9.24952 72.4523 9.24952 72.4523C9.24955 72.4523 9.24959 72.4523 9.25 72.5523C9.2504 72.6523 9.25046 72.6523 9.25053 72.6523C9.25057 72.6523 9.25065 72.6523 9.25072 72.6523C9.25086 72.6523 9.25104 72.6523 9.25125 72.6523C9.25169 72.6523 9.25227 72.6523 9.25299 72.6523C9.25445 72.6523 9.25649 72.6523 9.2591 72.6522C9.26432 72.6521 9.27181 72.6519 9.28142 72.6516C9.30063 72.6508 9.32834 72.6494 9.36334 72.6467C9.43331 72.6414 9.53259 72.6309 9.65146 72.6102C9.88874 72.5691 10.2066 72.4872 10.5256 72.3238C10.845 72.1602 11.1672 71.914 11.4093 71.544C11.6518 71.1734 11.81 70.6845 11.81 70.0423L11.61 70.0423ZM9.15 72.5523L9.15 73.7023L9.35 73.7023L9.35 72.5523L9.15 72.5523ZM9.25 73.8023C9.42617 73.8023 10.1377 73.7847 10.8074 73.3447C11.4845 72.8998 12.1 72.036 12.1 70.3823L11.9 70.3823C11.9 71.9787 11.3105 72.7748 10.6976 73.1775C10.0773 73.585 9.41383 73.6023 9.25 73.6023L9.25 73.8023ZM12.1 70.3823C12.1 69.4035 11.4961 68.3685 10.6127 67.5826C9.72763 66.7953 8.54489 66.2423 7.36 66.2423L7.36 66.4423C8.4851 66.4423 9.62237 66.9694 10.4798 67.7321C11.3389 68.4962 11.9 69.4812 11.9 70.3823L12.1 70.3823ZM7.36 66.2423C6.95454 66.2423 6.62527 66.3399 6.35979 66.5161C6.09485 66.692 5.90015 66.9418 5.75599 67.2358C5.46958 67.82 5.37581 68.5938 5.33142 69.3591C5.28643 70.1345 5.29186 70.8953 5.21197 71.4928C5.17223 71.7901 5.11255 72.0343 5.02098 72.2107C4.93098 72.3842 4.81506 72.4842 4.66088 72.5142L4.69912 72.7105C4.92993 72.6655 5.08933 72.5133 5.19851 72.3028C5.30612 72.0954 5.36949 71.8239 5.41021 71.5193C5.49126 70.9131 5.48731 70.1252 5.53108 69.3706C5.57544 68.6059 5.66854 67.8685 5.93557 67.3239C6.06813 67.0535 6.24179 66.8345 6.4704 66.6828C6.69848 66.5314 6.98795 66.4423 7.36 66.4423L7.36 66.2423ZM4.66026 72.5143C3.93425 72.6605 3.12509 72.5771 2.50098 72.3068C1.87479 72.0357 1.46 71.5902 1.46 71.0223L1.26 71.0223C1.26 71.7045 1.7602 72.204 2.42151 72.4904C3.08491 72.7776 3.93575 72.8642 4.69974 72.7104L4.66026 72.5143ZM1.46 71.0223C1.46 69.9074 1.89157 69.2726 2.31456 68.915C2.52761 68.7348 2.74074 68.6232 2.90033 68.5567C2.98005 68.5235 3.04612 68.5016 3.09173 68.4882C3.11453 68.4815 3.13217 68.4769 3.14382 68.4741C3.14964 68.4726 3.15395 68.4717 3.15666 68.4711C3.15801 68.4707 3.15896 68.4705 3.15949 68.4704C3.15976 68.4704 3.15992 68.4703 3.15997 68.4703C3.16 68.4703 3.16 68.4703 3.15998 68.4703C3.15996 68.4703 3.15993 68.4703 3.15992 68.4703C3.15987 68.4703 3.15982 68.4704 3.14 68.3723C3.12017 68.2743 3.12011 68.2743 3.12004 68.2744C3.12 68.2744 3.11992 68.2744 3.11986 68.2744C3.11972 68.2744 3.11956 68.2745 3.11937 68.2745C3.119 68.2746 3.11852 68.2747 3.11793 68.2748C3.11675 68.275 3.11514 68.2754 3.11313 68.2758C3.10909 68.2767 3.10342 68.2781 
  3.0962 68.2798C3.08177 68.2834 3.06117 68.2887 3.03529 68.2963C2.98356 68.3116 2.91057 68.3358 2.82341 68.3721C2.64925 68.4446 2.41739 68.5661 2.18543 68.7622C1.71842 69.1571 1.26 69.8473 1.26 71.0223L1.46 71.0223ZM3.24 68.3723L3.24 67.0223L3.04 67.0223L3.04 68.3723L3.24 68.3723ZM3.12129 66.9241C3.00125 66.947 2.79801 67.0251 2.56391 67.1564C2.32772 67.2888 2.05371 67.4787 1.79304 67.7304C1.27113 68.2343 0.799998 68.9889 0.799998 70.0223L0.999998 70.0223C0.999998 69.0558 1.43887 68.3504 1.93196 67.8743C2.17878 67.636 2.43853 67.4559 2.66171 67.3308C2.88698 67.2045 3.06875 67.1377 3.15871 67.1206L3.12129 66.9241ZM5.96 54.6743L5.96 54.5743L5.86 54.5743L5.86 54.6743L5.96 54.6743ZM5.96 55.2943L5.96 55.3943L6.06 55.3943L6.06 55.2943L5.96 55.2943ZM4.55 55.2943L4.55 55.1943L4.21972 55.1943L4.49453 55.3775L4.55 55.2943ZM5.96 56.2343L6.06 56.2343L6.06 56.1808L6.01547 56.1511L5.96 56.2343ZM4.14 59.4943L4.15537 59.5931L4.15634 59.593L4.14 59.4943ZM1.28 56.6843L1.38 56.6843L1.38 56.3565L1.19702 56.6285L1.28 56.6843ZM0.909997 57.8443L0.809983 57.8443L0.81001 57.8459L0.909997 57.8443ZM5.83 58.9143L5.92151 58.874L5.85208 58.7164L5.74962 58.8548L5.83 58.9143ZM8.51 60.8843L8.49521 60.9832L8.49525 60.9832L8.51 60.8843ZM10.68 56.2443L10.68 56.1443L10.6421 56.3369L10.68 56.2443ZM12.01 56.2443L12.01 56.3443L12.11 56.3443L12.11 56.2443L12.01 56.2443ZM12.01 55.2943L12.11 55.2943L12.11 55.1943L12.01 55.1943L12.01 55.2943ZM6.3 55.2943L6.2 55.2943L6.2 55.3943L6.3 55.3943L6.3 55.2943ZM6.3 54.6743L6.4 54.6743L6.4 54.5743L6.3 54.5743L6.3 54.6743ZM11.65 58.6943L11.75 58.6963L11.75 58.696L11.65 58.6943ZM6.3 57.1943L6.4 57.1943L6.39999 57.1933L6.3 57.1943ZM6.29 56.2343L6.38999 56.2333L6.19 56.2343L6.29 56.2343ZM5.86 54.6743L5.86 55.2943L6.06 55.2943L6.06 54.6743L5.86 54.6743ZM5.96 55.1943L4.55 55.1943L4.55 55.3943L5.96 55.3943L5.96 55.1943ZM4.49453 55.3775L5.90453 56.3175L6.01547 56.1511L4.60547 55.2111L4.49453 55.3775ZM5.86 56.2343L5.86 57.1943L6.06 57.1943L6.06 56.2343L5.86 56.2343ZM5.86 57.1943C5.86 57.5709 5.8271 58.0544 5.59604 58.4763C5.36852 58.8916 4.94152 59.2601 4.12365 59.3956L4.15634 59.593C5.02847 59.4485 5.51147 59.047 5.77145 58.5723C6.0279 58.1042 6.06 57.5777 6.06 57.1943L5.86 57.1943ZM4.12463 59.3955C3.69133 59.4629 3.00301 59.4234 2.42671 59.0515C1.85746 58.6842 1.38 57.9813 1.38 56.6843L1.18 56.6843C1.18 58.0373 1.68253 58.8094 2.31828 59.2196C2.94699 59.6252 3.68867 59.6657 4.15537 59.5931L4.12463 59.3955ZM1.28 56.6843C1.19702 56.6285 1.19701 56.6285 1.19699 56.6285C1.19699 56.6285 1.19697 56.6286 1.19695 56.6286C1.19692 56.6286 1.19689 56.6287 1.19685 56.6287C1.19676 56.6289 1.19666 56.629 1.19653 56.6292C1.19628 56.6296 1.19594 56.6301 1.19551 56.6308C1.19466 56.632 1.19346 56.6339 1.19195 56.6362C1.18892 56.6409 1.18463 56.6476 1.17924 56.6562C1.16846 56.6735 1.1533 56.6986 1.13522 56.7304C1.09911 56.794 1.05116 56.8851 1.00322 56.9958C0.907874 57.2162 0.809997 57.5204 0.809997 57.8443L1.01 57.8443C1.01 57.5582 1.09712 57.2824 1.18677 57.0753C1.23134 56.9723 1.27589 56.8877 1.30915 56.8291C1.32576 56.7999 1.3395 56.7772 1.34896 56.762C1.35369 56.7544 1.35734 56.7487 1.35973 56.745C1.36093 56.7432 1.36182 56.7419 1.36236 56.741C1.36264 56.7406 1.36282 56.7403 1.36293 56.7402C1.36298 56.7401 1.36301 56.7401 1.36301 56.74C1.36302 56.74 1.36302 56.74 1.36301 56.7401C1.363 56.7401 1.36299 56.7401 1.36299 56.7401C1.36298 56.7401 1.36297 56.7401 1.28 56.6843ZM0.81001 57.8459C0.830786 59.1236 1.78871 60.2843 3.25 60.2843L3.25 60.0843C1.91128 60.0843 1.02921 59.025 1.00998 57.8427L0.81001 57.8459ZM3.25 60.2843C4.09686 60.2843 4.76194 59.9562 5.21351 59.6304C5.43938 59.4674 5.61269 59.3044 5.7298 59.1818C5.7884 59.1205 5.83303 59.0692 5.86326 59.0328C5.87838 59.0147 5.8899 59.0003 5.89777 58.9902C5.9017 58.9852 5.90473 58.9813 5.90683 58.9785C5.90788 58.9771 5.9087 58.976 5.90929 58.9752C5.90959 58.9748 5.90983 58.9745 5.91001 58.9743C5.9101 58.9742 5.91017 58.9741 5.91023 58.974C5.91027 58.9739 5.9103 58.9739 5.91032 58.9739C5.91035 58.9738 5.91038 58.9738 5.83 58.9143C5.74962 58.8548 5.74964 58.8548 5.74966 58.8548C5.74966 58.8548 5.74967 58.8547 5.74967 58.8547C5.74968 58.8547 5.74967 58.8547 5.74964 58.8548C5.74959 58.8548 5.74949 58.855 5.74932 58.8552C5.749 58.8556 5.74845 58.8564 5.74767 58.8574C5.74612 58.8594 5.74366 58.8626 5.74031 58.8669C5.73361 58.8755 5.72334 58.8883 5.70955 58.9049C5.68196 58.938 5.64035 58.9859 5.58519 59.0437C5.4748 59.1592 5.31061 59.3137 5.09648 59.4682C4.66806 59.7774 4.04313 60.0843 3.25 60.0843L3.25 60.2843ZM5.83 58.9143C5.73848 58.9546 5.7385 58.9547 5.73853 58.9547C5.73854 58.9547 5.73856 58.9548 5.73859 58.9548C5.73863 58.955 5.73869 58.9551 5.73876 58.9552C5.7389 58.9556 5.73908 58.956 5.73932 58.9565C5.73978 58.9575 5.74042 58.9589 5.74126 58.9608C5.74292 58.9644 5.74533 58.9696 5.7485 58.9762C5.75483 58.9895 5.76421 59.0087 5.77674 59.0329C5.80179 59.0814 5.83949 59.1504 5.89076 59.2337C5.99324 59.4003 6.15032 59.625 6.36952 59.8589C6.80813 60.327 7.49742 60.834 8.49521 60.9832L8.52478 60.7854C7.58257 60.6446 6.93187 60.1666 6.51547 59.7222C6.30717 59.4999 6.158 59.2864 6.06111 59.1289C6.01269 59.0502 5.97742 58.9857 5.95443 58.9412C5.94293 58.9189 5.93452 58.9017 5.92907 58.8902C5.92634 58.8845 5.92436 58.8802 5.9231 58.8775C5.92248 58.8761 5.92203 58.8751 5.92177 58.8746C5.92163 58.8743 5.92155 58.8741 5.9215 58.874C5.92148 58.8739 5.92147 58.8739 5.92147 58.8739C5.92148 58.8739 5.92149 58.8739 5.92149 58.8739C5.9215 58.874 5.92151 58.874 5.83 58.9143ZM8.49525 60.9832C9.32338 61.1067 10.2185 60.922 10.9088 60.4665C11.6016 60.0094 12.09 59.2774 12.09 58.3143L11.89 58.3143C11.89 59.2012 11.4434 59.8742 10.7987 60.2996C10.1515 60.7266 9.30661 60.9019 8.52474 60.7854L8.49525 60.9832ZM12.09 58.3143C12.09 57.8751 11.9189 57.4065 11.6665 57.0151C11.4147 56.6245 11.073 56.297 10.7179 56.1517L10.6421 56.3369C10.947 56.4616 11.2603 56.7541 11.4985 57.1235C11.7361 57.4921 11.89 57.9235 11.89 58.3143L12.09 58.3143ZM10.68 56.3443L12.01 56.3443L12.01 56.1443L10.68 56.1443L10.68 56.3443ZM12.11 56.2443L12.11 55.2943L11.91 55.2943L11.91 56.2443L12.11 56.2443ZM12.01 55.1943L6.3 55.1943L6.3 55.3943L12.01 55.3943L12.01 55.1943ZM6.4 55.2943L6.4 54.6743L6.2 54.6743L6.2 55.2943L6.4 55.2943ZM6.3 54.5743L5.96 54.5743L5.96 54.7743L6.3 54.7743L6.3 54.5743ZM11.55 58.6923C11.5409 59.1567 11.2726 59.4911 10.8691 59.7143C10.463 59.9388 9.92845 60.0443 9.42 60.0443L9.42 60.2443C9.95155 60.2443 10.522 60.1348 10.9659 59.8893C11.4123 59.6424 11.7391 59.2518 11.75 58.6963L11.55 58.6923ZM9.42 60.0443C8.90098 60.0443 8.142 59.8882 7.51578 59.4534C6.89451 59.022 6.4 58.3142 6.4 57.1943L6.2 57.1943C6.2 58.3843 6.73048 59.1516 7.40171 59.6177C8.06799 60.0803 8.86901 60.2443 9.42 60.2443L9.42 60.0443ZM6.39999 57.1933L6.38999 56.2333L6.19 56.2353L6.2 57.1953L6.39999 57.1933ZM6.19 56.2343C6.19923 56.2763 6.23918 56.3204 6.25465 56.3279C6.26154 56.3302 6.27231 56.3328 6.27614 56.3334C6.28227 56.3343 6.28726 56.3344 6.28846 56.3344C6.2921 56.3345 6.29543 56.3344 6.29709 56.3344C6.30105 56.3342 6.30602 56.334 6.31119 56.3337C6.32178 56.3331 6.33746 56.3321 6.35695 56.3309C6.39635 56.3284 6.45395 56.3249 6.52723 56.3213C6.67382 56.3142 6.8833 56.3067 7.13456 56.3066C7.63762 56.3065 8.30582 56.336 8.97093 56.4564C9.63767 56.5772 10.2919 56.7876 10.7743 57.1431C11.252 57.4951 11.5619 57.9892 11.55 58.6926L11.75 58.696C11.7631 57.9194 11.4155 57.3672 10.8929 56.9821C10.375 56.6004 9.68608 56.3827 9.00656 56.2596C8.32542 56.1363 7.64425 56.1065 7.1345 56.1066C6.87935 56.1067 6.66656 56.1143 6.51749 56.1216C6.44294 56.1252 6.38436 56.1288 6.34453 56.1312C6.32441 56.1325 6.30972 56.1334 6.29984 56.134C6.29477 56.1343 6.29199 56.1344 6.29075 56.1344C6.2898 56.1345 6.29118 56.1344 6.29351 56.1345C6.29405 56.1345 6.29855 56.1346 6.30435 56.1354C6.30801 56.136 6.31866 56.1385 6.32546 56.1408C6.34085 56.1482 6.38077 56.1924 6.39 56.2343L6.19 56.2343ZM12 47.5206L12.1 47.5206L12.1 47.4206L12 47.4206L12 47.5206ZM0.899997 47.5206L0.899997 47.4206L0.799997 47.4206L0.799997 47.5206L0.899997 47.5206ZM0.899997 48.4606L0.799997 48.4606L0.799997 48.5606L0.899997 48.5606L0.899997 48.4606ZM12 48.4606L12 48.5606L12.1 48.5606L12.1 48.4606L12 48.4606ZM12 47.4206L0.899997 47.4206L0.899997 47.6206L12 47.6206L12 47.4206ZM0.799997 47.5206L0.799997 48.4606L0.999997 48.4606L0.999997 47.5206L0.799997 47.5206ZM0.899997 48.5606L12 48.5606L12 48.3606L0.899997 48.3606L0.899997 48.5606ZM12.1 48.4606L12.1 47.5206L11.9 47.5206L11.9 48.4606L12.1 48.4606ZM0.899996 37.0732L0.799996 37.0732L0.799996 37.1429L0.865371 37.167L0.899996 37.0732ZM10.41 40.5832L10.445 40.6769L10.6974 40.5827L10.4446 40.4894L10.41 40.5832ZM0.899997 44.1332L0.865025 44.0395L0.799997 44.0638L0.799997 44.1332L0.899997 44.1332ZM0.899997 45.1732L0.799997 45.1732L0.799997 45.2732L0.899997 45.2732L0.899997 45.1732ZM12 45.1732L12 45.2732L12.1 45.2732L12.1 45.1732L12 45.1732ZM12 44.6332L12.1 44.6332L12.1 44.5332L12 44.5332L12 44.6332ZM3.01 44.6332L2.97372 44.54L3.01 44.7332L3.01 44.6332ZM12 41.1332L12.0363 41.2264L12.1289 41.1903L12.0934 41.0975L12 41.1332ZM11.74 40.4532L11.8334 40.4175L11.8172 40.3752L11.7747 40.3594L11.74 40.4532ZM2.75 37.1232L2.75054 37.0232L2.71526 37.217L2.75 37.1232ZM12 37.1732L11.9995 37.2732L12.1 37.2737L12.1 37.1732L12 37.1732ZM12 36.5832L12.1 36.5832L12.1 36.4832L12 36.4832L12 36.5832ZM0.899996 36.5832L0.899996 36.4832L0.799996 36.4832L0.799996 36.5832L0.899996 36.5832ZM0.865371 37.167L10.3754 40.677L10.4446 40.4894L0.934622 36.9794L0.865371 37.167ZM10.375 40.4895L0.865025 44.0395L0.934969 44.2269L10.445 40.6769L10.375 40.4895ZM0.799997 44.1332L0.799997 45.1732L0.999997 45.1732L0.999997 44.1332L0.799997 44.1332ZM0.899997 45.2732L12 45.2732L12 45.0732L0.899997 45.0732L0.899997 45.2732ZM12.1 45.1732L12.1 44.6332L11.9 44.6332L11.9 45.1732L12.1 45.1732ZM12 44.5332L3.01 44.5332L3.01 44.7332L12 44.7332L12 44.5332ZM3.04628 44.7264L12.0363 41.2264L11.9637 41.04L2.97372 44.54L3.04628 44.7264ZM12.0934 41.0975L11.8334 40.4175L11.6466 40.4889L11.9066 41.1689L12.0934 41.0975ZM11.7747 
  40.3594L2.78473 37.0294L2.71526 37.217L11.7053 40.547L11.7747 40.3594ZM2.74946 37.2232L11.9995 37.2732L12.0005 37.0732L2.75054 37.0232L2.74946 37.2232ZM12.1 37.1732L12.1 36.5832L11.9 36.5832L11.9 37.1732L12.1 37.1732ZM12 36.4832L0.899996 36.4832L0.899996 36.6832L12 36.6832L12 36.4832ZM0.799996 36.5832L0.799996 37.0732L0.999996 37.0732L0.999996 36.5832L0.799996 36.5832ZM8.19 29.332L8.29 29.332L8.29 29.1982L8.16174 29.236L8.19 29.332ZM8.19 33.112L8.15512 33.2057L8.29 33.2559L8.29 33.112L8.19 33.112ZM2.52 31.002L2.49174 30.906L2.20357 30.9909L2.48512 31.0957L2.52 31.002ZM8.81 33.3419L8.71 33.3419L8.71 33.4108L8.77427 33.4354L8.81 33.3419ZM8.81 29.152L8.78284 29.0557L8.71 29.0763L8.71 29.152L8.81 29.152ZM12 28.252L12.0271 28.3482L12.1308 28.319L12.094 28.2178L12 28.252ZM11.6 27.152L11.694 27.1178L11.6615 27.0284L11.5706 27.0564L11.6 27.152ZM0.899996 30.442L0.870606 30.3464L0.745181 30.3849L0.81563 30.4956L0.899996 30.442ZM1.25 30.992L1.16563 31.0456L1.18317 31.0732L1.21359 31.0851L1.25 30.992ZM11.79 35.112L11.7536 35.2051L11.8475 35.2418L11.8834 35.1476L11.79 35.112ZM12 34.562L12.0934 34.5976L12.1291 34.5042L12.0357 34.4686L12 34.562ZM8.09 29.332L8.09 33.112L8.29 33.112L8.29 29.332L8.09 29.332ZM8.22487 33.0182L2.55487 30.9082L2.48512 31.0957L8.15512 33.2057L8.22487 33.0182ZM2.54825 31.0979L8.21825 29.4279L8.16174 29.236L2.49174 30.906L2.54825 31.0979ZM8.91 33.3419L8.91 29.152L8.71 29.152L8.71 33.3419L8.91 33.3419ZM8.83715 29.2482L12.0271 28.3482L11.9728 28.1557L8.78284 29.0557L8.83715 29.2482ZM12.094 28.2178L11.694 27.1178L11.506 27.1861L11.906 28.2861L12.094 28.2178ZM11.5706 27.0564L0.870606 30.3464L0.929386 30.5375L11.6294 27.2475L11.5706 27.0564ZM0.81563 30.4956L1.16563 31.0456L1.33436 30.9383L0.984362 30.3883L0.81563 30.4956ZM1.21359 31.0851L11.7536 35.2051L11.8264 35.0188L1.2864 30.8988L1.21359 31.0851ZM11.8834 35.1476L12.0934 34.5976L11.9066 34.5263L11.6966 35.0763L11.8834 35.1476ZM12.0357 34.4686L8.84572 33.2486L8.77427 33.4354L11.9643 34.6554L12.0357 34.4686ZM8 18.7473L7.99445 18.6474L7.9 18.6527L7.9 18.7473L8 18.7473ZM8 22.3173L7.9 22.3173L7.9 22.4173L8 22.4173L8 22.3173ZM8.55 22.3173L8.55 22.4173L8.65141 22.4173L8.64999 22.3159L8.55 22.3173ZM8.67 19.4773L8.67 19.5775L8.67628 19.5771L8.67 19.4773ZM11.1 20.1973L11.006 20.2313L11.006 20.2315L11.1 20.1973ZM1.64 23.9273L1.54715 23.9644L1.5473 23.9648L1.64 23.9273ZM3.32 20.1673L3.37499 20.2508L3.42 20.2212L3.42 20.1673L3.32 20.1673ZM3.32 18.9173L3.42 18.9173L3.42 18.7604L3.27781 18.8266L3.32 18.9173ZM0.899996 22.8873L0.999838 22.8777L0.9985 22.87L0.899996 22.8873ZM8.85 18.7673L8.83403 18.8663L8.84159 18.8669L8.85 18.7673ZM7.9 18.7473L7.9 22.3173L8.1 22.3173L8.1 18.7473L7.9 18.7473ZM8 22.4173L8.55 22.4173L8.55 22.2173L8 22.2173L8 22.4173ZM8.55 22.3173C8.64999 22.3159 8.64999 22.3158 8.64999 22.3158C8.64998 22.3158 8.64998 22.3158 8.64998 22.3157C8.64998 22.3157 8.64998 22.3155 8.64998 22.3154C8.64997 22.315 8.64997 22.3145 8.64996 22.3138C8.64994 22.3125 8.64991 22.3105 8.64988 22.3078C8.64981 22.3025 8.6497 22.2945 8.64958 22.2841C8.64933 22.2634 8.64897 22.233 8.64858 22.1942C8.6478 22.1167 8.64687 22.006 8.64624 21.873C8.645 21.6071 8.645 21.2528 8.64999 20.8987C8.65498 20.5441 8.66495 20.1914 8.6835 19.928C8.69281 19.7958 8.70408 19.6893 8.71727 19.6173C8.72402 19.5804 8.73033 19.5581 8.73486 19.547C8.73729 19.541 8.73686 19.5443 8.73142 19.5506C8.72603 19.5569 8.70558 19.5773 8.67 19.5773L8.67 19.3773C8.62442 19.3773 8.59435 19.4032 8.57972 19.4202C8.56506 19.4373 8.55577 19.4565 8.54971 19.4713C8.53724 19.5019 8.52801 19.5405 8.52054 19.5813C8.50529 19.6646 8.49343 19.78 8.48399 19.914C8.46504 20.1831 8.45501 20.5404 8.45001 20.8959C8.44499 21.2517 8.445 21.6074 8.44625 21.874C8.44687 22.0073 8.44781 22.1184 8.44859 22.1962C8.44899 22.2351 8.44934 22.2657 8.44959 22.2866C8.44972 22.297 8.44982 22.305 8.44989 22.3104C8.44993 22.3131 8.44996 22.3152 8.44998 22.3166C8.44999 22.3173 8.44999 22.3178 8.45 22.3181C8.45 22.3183 8.45 22.3184 8.45 22.3185C8.45 22.3186 8.45 22.3186 8.45 22.3186C8.45001 22.3187 8.45001 22.3187 8.55 22.3173ZM8.67628 19.5771C9.39083 19.5321 9.9215 19.541 10.302 19.6414C10.6745 19.7398 10.8943 19.9232 11.006 20.2313L11.194 20.1632C11.0557 19.7814 10.7755 19.5597 10.353 19.4481C9.93849 19.3386 9.37916 19.3324 8.66371 19.3775L8.67628 19.5771ZM11.006 20.2315C11.3522 21.1816 11.0479 22.0878 10.3528 22.8724C9.65604 23.6588 8.57374 24.3126 7.39714 24.7395C6.2208 25.1663 4.96129 25.3623 3.91551 25.2434C2.86813 25.1243 2.05803 24.6936 1.73269 23.8898L1.5473 23.9648C1.91197 24.8659 2.81061 25.319 3.89292 25.4421C4.97682 25.5654 6.26794 25.362 7.46535 24.9275C8.6625 24.4932 9.77708 23.8238 10.5025 23.005C11.2296 22.1843 11.5728 21.2029 11.194 20.163L11.006 20.2315ZM1.73284 23.8901C1.58066 23.5097 1.49781 22.9257 1.69807 22.2755C1.8978 21.6269 2.38158 20.9049 3.37499 20.2508L3.265 20.0837C2.23841 20.7597 1.72219 21.5176 1.50693 22.2166C1.29218 22.9139 1.37933 23.5449 1.54715 23.9644L1.73284 23.8901ZM3.42 20.1673L3.42 18.9173L3.22 18.9173L3.22 20.1673L3.42 20.1673ZM3.27781 18.8266C1.80948 19.5098 1.18652 20.5264 0.934133 21.3763C0.808399 21.7997 0.775049 22.18 0.773123 22.4547C0.77216 22.5921 0.779061 22.7035 0.786287 22.7809C0.789902 22.8197 0.793601 22.85 0.796446 22.8709C0.797869 22.8813 0.799079 22.8895 0.799958 22.8951C0.800398 22.8979 0.800756 22.9001 0.801016 22.9017C0.801146 22.9025 0.801252 22.9031 0.801332 22.9036C0.801372 22.9038 0.801405 22.904 0.801432 22.9042C0.801445 22.9042 0.80146 22.9043 0.801467 22.9044C0.80148 22.9044 0.801491 22.9045 0.899996 22.8873C0.9985 22.87 0.998508 22.8701 0.998514 22.8701C0.998514 22.8701 0.998519 22.8701 0.998518 22.8701C0.998517 22.8701 0.998509 22.8701 0.998495 22.87C0.998466 22.8698 0.998411 22.8695 0.998331 22.869C0.998171 22.8681 0.997912 22.8665 0.997569 22.8643C0.996884 22.8599 0.995863 22.8531 0.99462 22.8439C0.992133 22.8256 0.988761 22.7981 0.985423 22.7624C0.978743 22.6908 0.972207 22.5861 0.973118 22.4561C0.974943 22.1958 1.00659 21.8348 1.12586 21.4332C1.36347 20.6331 1.95051 19.6647 3.36218 19.0079L3.27781 18.8266ZM0.899996 22.8873C0.800453 22.8968 0.800461 22.8969 0.80047 22.897C0.800474 22.897 0.800484 22.8971 0.800493 22.8972C0.800512 22.8974 0.800535 22.8977 0.800564 22.8979C0.800622 22.8985 0.800701 22.8993 0.800803 22.9002C0.801008 22.9021 0.801305 22.9048 0.80171 22.9083C0.80252 22.9151 0.80376 22.9249 0.805548 22.9376C0.809123 22.9628 0.814892 22.9992 0.823798 23.0451C0.841605 23.1369 0.871987 23.2671 0.922536 23.4228C1.02358 23.7342 1.20563 24.149 1.52996 24.5639C2.18185 25.3978 3.39708 26.2173 5.64 26.2173L5.64 26.0173C3.45292 26.0173 2.29814 25.2218 1.68753 24.4407C1.38061 24.0481 1.20828 23.6554 1.11277 23.3611C1.06504 23.214 1.03659 23.0918 1.02014 23.007C1.01192 22.9646 1.0067 22.9316 1.00357 22.9095C1.00201 22.8985 1.00096 22.8902 1.00033 22.8848C1.00001 22.8821 0.999798 22.8802 0.999671 22.879C0.999608 22.8784 0.999566 22.878 0.999544 22.8778C0.999534 22.8777 0.999528 22.8776 0.999527 22.8776C0.999526 22.8776 0.999529 22.8776 0.999529 22.8776C0.999533 22.8777 0.999538 22.8777 0.899996 22.8873ZM5.64 26.2173C10.0939 26.2173 12.1 23.4732 12.1 21.4373L11.9 21.4373C11.9 23.3413 10.0061 26.0173 5.64 26.0173L5.64 26.2173ZM12.1 21.4373C12.1 20.9017 11.9284 20.2608 11.432 19.7267C10.935 19.1918 10.1219 18.7742 8.8584 18.6676L8.84159 18.8669C10.0681 18.9704 10.83 19.3727 11.2855 19.8628C11.7416 20.3537 11.9 20.9428 11.9 21.4373L12.1 21.4373ZM8.86592 18.6685C8.70203 18.6421 8.48232 18.6373 8.30803 18.6385C8.21995 18.6392 8.14175 18.6414 8.08556 18.6434C8.05744 18.6445 8.03479 18.6454 8.01911 18.6462C8.01127 18.6466 8.00517 18.6469 8.00099 18.6471C7.99891 18.6472 7.9973 18.6473 7.99621 18.6473C7.99566 18.6474 7.99523 18.6474 7.99494 18.6474C7.99479 18.6474 7.99468 18.6474 7.9946 18.6474C7.99455 18.6474 7.99452 18.6474 7.9945 18.6474C7.99449 18.6474 7.99447 18.6474 7.99447 18.6474C7.99446 18.6474 7.99445 18.6474 8 18.7473C8.00554 18.8471 8.00554 18.8471 8.00554 18.8471C8.00554 18.8471 8.00554 18.8471 8.00554 18.8471C8.00555 18.8471 8.00557 18.8471 8.00559 18.8471C8.00564 18.8471 8.00572 18.8471 8.00584 18.8471C8.00606 18.8471 8.00642 18.8471 8.0069 18.847C8.00787 18.847 8.00933 18.8469 8.01128 18.8468C8.01517 18.8466 8.02097 18.8463 8.0285 18.846C8.04356 18.8453 8.06552 18.8443 8.09287 18.8433C8.14762 18.8413 8.22379 18.8391 8.30946 18.8385C8.48267 18.8373 8.68796 18.8424 8.83407 18.866L8.86592 18.6685ZM11.56 14.9806L11.56 15.0806L11.66 15.0806L11.66 14.9806L11.56 14.9806ZM6.79 14.9806L6.69 14.9806L6.69 15.0806L6.79 15.0806L6.79 14.9806ZM6.79 11.0706L6.88999 11.0706L6.88999 10.9706L6.79 10.9706L6.79 11.0706ZM6.36 11.0706L6.36 10.9706L6.26 10.9706L6.26 11.0706L6.36 11.0706ZM6.36 14.9806L6.36 15.0806L6.46 15.0806L6.46 14.9806L6.36 14.9806ZM1.36 14.9806L1.26 14.9806L1.26 15.0806L1.36 15.0806L1.36 14.9806ZM1.36 9.68063L1.46 9.68063L1.46 9.58063L1.36 9.58063L1.36 9.68063ZM0.899995 9.68063L0.899995 9.58063L0.799995 9.58063L0.799995 9.68063L0.899995 9.68063ZM0.899995 16.0606L0.799996 16.0606L0.799996 16.1606L0.899995 16.1606L0.899995 16.0606ZM11.33 16.0606L11.33 16.1606L11.3856 16.1606L11.415 16.1133L11.33 16.0606ZM12 14.9806L12.085 15.0333L12.1 15.0091L12.1 14.9806L12 14.9806ZM12 9.64062L12.1 9.64062L12.1 9.54063L12 9.54063L12 9.64062ZM11.56 9.64062L11.56 9.54063L11.46 9.54063L11.46 9.64062L11.56 9.64062ZM11.56 14.8806L6.79 14.8806L6.79 15.0806L11.56 15.0806L11.56 14.8806ZM6.89 14.9806L6.88999 11.0706L6.69 11.0706L6.69 14.9806L6.89 14.9806ZM6.79 10.9706L6.36 10.9706L6.36 11.1706L6.79 11.1706L6.79 10.9706ZM6.26 11.0706L6.26 14.9806L6.46 14.9806L6.46 11.0706L6.26 11.0706ZM6.36 14.8806L1.36 14.8806L1.36 15.0806L6.36 15.0806L6.36 14.8806ZM1.46 14.9806L1.46 9.68063L1.26 9.68063L1.26 14.9806L1.46 14.9806ZM1.36 9.58063L0.899995 9.58063L0.899995 9.78062L1.36 9.78062L1.36 9.58063ZM0.799995 9.68063L0.799996 16.0606L0.999995 16.0606L0.999995 9.68063L0.799995 9.68063ZM0.899995 16.1606L11.33 16.1606L11.33 15.9606L0.899995 15.9606L0.899995 16.1606ZM11.415 16.1133L12.085 15.0333L11.915 14.9279L11.245 
  16.0079L11.415 16.1133ZM12.1 14.9806L12.1 9.64062L11.9 9.64062L11.9 14.9806L12.1 14.9806ZM12 9.54063L11.56 9.54063L11.56 9.74062L12 9.74062L12 9.54063ZM11.46 9.64062L11.46 14.9806L11.66 14.9806L11.66 9.64062L11.46 9.64062ZM5.07 8.40102L5.07393 8.50094L5.07432 8.50092L5.07 8.40102ZM6.06999 2.51102L5.99818 2.44143L5.9978 2.44183L6.06999 2.51102ZM9.25 7.19102L9.24959 7.09102L9.15 7.09142L9.15 7.19102L9.25 7.19102ZM9.25 8.34102L9.15 8.34102L9.15 8.44102L9.25 8.44102L9.25 8.34102ZM4.67999 7.25101L4.66087 7.15285L4.66026 7.15298L4.67999 7.25101ZM3.13999 3.01102L3.15982 3.10903L3.23999 3.09281L3.23999 3.01102L3.13999 3.01102ZM3.13999 1.66102L3.23999 1.66102L3.23999 1.54017L3.12128 1.56278L3.13999 1.66102ZM0.799995 4.66102C0.799995 6.03085 1.34846 7.01551 2.16257 7.64512C2.97352 8.27229 4.04047 8.54166 5.07393 8.50094L5.06606 8.30109C4.06952 8.34036 3.05147 8.07974 2.28492 7.48692C1.52153 6.89652 0.999995 5.97118 0.999995 4.66102L0.799995 4.66102ZM5.07432 8.50092C5.38174 8.48762 5.62277 8.39478 5.80479 8.23342C5.98565 8.0731 6.09954 7.85285 6.16794 7.59959C6.30364 7.09721 6.26741 6.43657 6.19059 5.76711C6.11261 5.08742 5.99369 4.40303 5.95019 3.81489C5.9286 3.52296 5.92653 3.26334 5.95665 3.04958C5.98697 2.83438 6.04822 2.67826 6.14219 2.58021L5.9978 2.44183C5.86177 2.58377 5.79145 2.78859 5.75861 3.02168C5.72557 3.25619 5.72874 3.5322 5.75074 3.82964C5.79442 4.42025 5.91613 5.12961 5.9919 5.78992C6.06883 6.46046 6.09948 7.08607 5.97486 7.54744C5.91311 7.77605 5.81505 7.95706 5.67212 8.08376C5.53035 8.20944 5.33575 8.28942 5.06567 8.30111L5.07432 8.50092ZM6.14181 2.5806C6.42217 2.29127 6.89167 2.19657 7.46853 2.25488C8.04151 2.3128 8.69654 2.51981 9.31736 2.80205C9.93776 3.08411 10.5178 3.43849 10.941 3.78639C11.1528 3.96046 11.3226 4.13072 11.4386 4.28721C11.5563 4.446 11.61 4.57908 11.61 4.68101L11.81 4.68101C11.81 4.51545 11.7265 4.33978 11.5993 4.16811C11.4703 3.99412 11.2874 3.81219 11.068 3.63189C10.6291 3.27104 10.0335 2.90793 9.40013 2.61998C8.7672 2.33223 8.09036 2.11672 7.48865 2.0559C6.89082 1.99546 6.34282 2.08576 5.99818 2.44143L6.14181 2.5806ZM11.61 4.68101C11.61 5.28884 11.4607 5.73872 11.2419 6.07314C11.0228 6.40811 10.73 6.63312 10.4344 6.78451C10.1384 6.93612 9.84125 7.01302 9.61728 7.05186C9.50553 7.07124 9.41262 7.08105 9.34806 7.086C9.31579 7.08847 9.29065 7.08973 9.27383 7.09036C9.26542 7.09068 9.2591 7.09085 9.25501 7.09093C9.25296 7.09097 9.25147 7.091 9.25057 7.091C9.25011 7.09101 9.2498 7.09101 9.24964 7.09102C9.24956 7.09102 9.24951 7.09102 9.2495 7.09102C9.2495 7.09102 9.24952 7.09102 9.24952 7.09102C9.24955 7.09102 9.24959 7.09102 9.25 7.19102C9.2504 7.29102 9.25046 7.29102 9.25053 7.29102C9.25056 7.29102 9.25064 7.29102 9.25071 7.29102C9.25085 7.29102 9.25103 7.29101 9.25125 7.29101C9.25168 7.29101 9.25226 7.291 9.25299 7.29099C9.25445 7.29098 9.25649 7.29094 9.2591 7.29089C9.26432 7.29078 9.2718 7.29059 9.28141 7.29022C9.30063 7.28949 9.32834 7.28809 9.36334 7.28541C9.43331 7.28004 9.53259 7.26954 9.65146 7.24892C9.88874 7.20776 10.2066 7.12592 10.5256 6.96252C10.845 6.79891 11.1672 6.55267 11.4093 6.18264C11.6518 5.81206 11.81 5.32319 11.81 4.68101L11.61 4.68101ZM9.15 7.19102L9.15 8.34102L9.35 8.34102L9.35 7.19102L9.15 7.19102ZM9.25 8.44102C9.42617 8.44102 10.1377 8.42332 10.8074 7.98334C11.4845 7.53851 12.1 6.67469 12.1 5.02102L11.9 5.02102C11.9 6.61734 11.3105 7.41351 10.6976 7.81618C10.0773 8.22371 9.41382 8.24101 9.25 8.24101L9.25 8.44102ZM12.1 5.02102C12.1 4.04216 11.4961 3.00713 10.6127 2.2213C9.72762 1.43399 8.54489 0.881012 7.35999 0.881012L7.35999 1.08102C8.4851 1.08102 9.62237 1.60804 10.4798 2.37073C11.3389 3.1349 11.9 4.11987 11.9 5.02102L12.1 5.02102ZM7.35999 0.881012C6.95454 0.881012 6.62526 0.978569 6.35978 1.15482C6.09484 1.3307 5.90014 1.58048 5.75599 1.87449C5.46958 2.45863 5.3758 3.23244 5.33141 3.99773C5.28643 4.7732 5.29186 5.534 5.21197 6.13152C5.17222 6.4288 5.11254 6.67293 5.02098 6.84942C4.93098 7.02288 4.81506 7.12283 4.66087 7.15286L4.69912 7.34917C4.92993 7.30421 5.08932 7.15196 5.19851 6.94152C5.30612 6.73411 5.36948 6.46261 5.41021 6.15802C5.49126 5.55178 5.48731 4.76383 5.53108 4.00931C5.57544 3.2446 5.66854 2.50715 5.93556 1.96254C6.06813 1.69217 6.24179 1.47321 6.4704 1.32143C6.69847 1.17003 6.98795 1.08102 7.35999 1.08102L7.35999 0.881012ZM4.66026 7.15298C3.93425 7.29916 3.12508 7.21574 2.50098 6.9455C1.87479 6.67435 1.45999 6.22887 1.45999 5.66102L1.26 5.66102C1.26 6.34316 1.7602 6.84268 2.42151 7.12903C3.0849 7.41629 3.93574 7.50287 4.69973 7.34904L4.66026 7.15298ZM1.45999 5.66102C1.45999 4.54604 1.89157 3.91127 2.31456 3.55363C2.52761 3.3735 2.74074 3.26185 2.90033 3.19535C2.98005 3.16214 3.04612 3.1403 3.09173 3.12689C3.11452 3.12019 3.13217 3.11559 3.14381 3.11274C3.14963 3.11131 3.15395 3.11032 3.15665 3.10972C3.15801 3.10942 3.15895 3.10921 3.15949 3.1091C3.15975 3.10905 3.15991 3.10901 3.15997 3.109C3.16 3.10899 3.16 3.10899 3.15997 3.109C3.15996 3.109 3.15992 3.10901 3.15992 3.10901C3.15987 3.10902 3.15982 3.10903 3.13999 3.01102C3.12017 2.913 3.12011 2.91301 3.12003 2.91302C3.12 2.91303 3.11992 2.91305 3.11985 2.91306C3.11972 2.91309 3.11956 2.91312 3.11937 2.91316C3.119 2.91324 3.11851 2.91335 3.11792 2.91347C3.11674 2.91372 3.11514 2.91406 3.11312 2.91451C3.10909 2.91541 3.10341 2.91673 3.0962 2.9185C3.08177 2.92203 3.06117 2.92741 3.03529 2.93502C2.98356 2.95024 2.91057 2.97443 2.82341 3.01074C2.64925 3.08331 2.41738 3.20478 2.18543 3.4009C1.71842 3.79576 1.26 4.48598 1.26 5.66102L1.45999 5.66102ZM3.23999 3.01102L3.23999 1.66102L3.03999 1.66102L3.03999 3.01102L3.23999 3.01102ZM3.12128 1.56278C3.00125 1.58565 2.79801 1.66381 2.56391 1.79504C2.32771 1.92744 2.05371 2.11739 1.79304 2.36907C1.27112 2.87299 0.799995 3.62753 0.799995 4.66102L0.999995 4.66102C0.999995 3.6945 1.43887 2.98904 1.93195 2.51295C2.17878 2.27464 2.43853 2.0946 2.6617 1.9695C2.88698 1.84322 3.06874 1.77638 3.15871 1.75925L3.12128 1.56278Z" />
</svg>
