<svg width="132" height="26" viewBox="0 0 132 26" fill="black" xmlns="http://www.w3.org/2000/svg">
  <path d="M16.32 1.8H0.32V2.88H7.32V22.68L9.32 24V2.88H16.3C16.32 2.54 16.32 2.14 16.32 1.8ZM21.5042 24L30.2242 2.22L29.1242 1.8L24.7442 12.96L19.1442 1.8L17.3242 2.9L23.7042 15.54L20.4042 24H21.5042ZM40.0713 13.12C39.2513 13.2 37.3513 13.1 37.3513 13.06V2.5H39.1513C43.3513 2.5 44.6913 5.32 44.6913 7.8C44.6913 11.94 41.1913 13.02 40.0713 13.12ZM41.5113 1.8H35.4513V24H37.3513V14.5C37.3513 14.5 37.7913 14.42 38.0113 14.4C41.9313 13.92 43.4513 12.36 44.0313 11.82C44.0313 11.82 46.1113 9.78 46.0913 6.46C46.0713 3.96 44.2113 1.8 41.5113 1.8ZM52.3317 23.12V13.58H60.1517V12.72H52.3317V2.72H62.9317V1.8H50.1717V22.66L52.3317 24H63.0117V23.12H52.3317ZM69.4909 13.58H77.3109V12.52H69.4909V2.84H80.0909V1.8H67.3309V22.68L69.4909 24V13.58ZM91.4416 16.38H83.8816L88.1016 5.04L91.4416 16.38ZM83.4216 17.62H91.8016L93.6016 24L95.8016 23.2L89.2216 1.8L88.1216 2.5L79.8816 23.58L80.9816 24L83.4216 17.62ZM110.671 22.22C102.731 25.1 96.3909 6.06 103.211 3.3C104.811 2.64 108.091 2.62 110.731 6.64H113.231C110.551 0.88 105.291 1.8 105.291 1.8C105.291 1.8 98.8509 2.44 98.8509 11.3C98.8509 20.12 104.271 24 108.211 24C110.311 24 113.271 22.64 113.571 17.36H112.131C112.291 20.22 112.051 21.72 110.671 22.22ZM120.379 23.12V13.58H128.199V12.72H120.379V2.72H130.979V1.8H118.219V22.66L120.379 24H131.059V23.12H120.379Z" />
  <path d="M16.32 1.8H16.52V1.6H16.32V1.8ZM0.32 1.8V1.6H0.12V1.8H0.32ZM0.32 2.88H0.12V3.08H0.32V2.88ZM7.32 2.88H7.52V2.68H7.32V2.88ZM7.32 22.68H7.12V22.7876L7.20983 22.8469L7.32 22.68ZM9.32 24L9.20983 24.1669L9.52 24.3716V24H9.32ZM9.32 2.88V2.68H9.12V2.88H9.32ZM16.3 2.88V3.08H16.4886L16.4997 2.89174L16.3 2.88ZM16.32 1.6H0.32V2H16.32V1.6ZM0.12 1.8V2.88H0.52V1.8H0.12ZM0.32 3.08H7.32V2.68H0.32V3.08ZM7.12 2.88V22.68H7.52V2.88H7.12ZM7.20983 22.8469L9.20983 24.1669L9.43017 23.8331L7.43017 22.5131L7.20983 22.8469ZM9.52 24V2.88H9.12V24H9.52ZM9.32 3.08H16.3V2.68H9.32V3.08ZM16.4997 2.89174C16.5201 2.54475 16.52 2.13854 16.52 1.8H16.12C16.12 2.14146 16.1199 2.53525 16.1003 2.86826L16.4997 2.89174ZM21.5042 24V24.2H21.6396L21.6899 24.0743L21.5042 24ZM30.2242 2.22L30.4099 2.29433L30.4854 2.10565L30.2956 2.03315L30.2242 2.22ZM29.1242 1.8L29.1956 1.61316L29.0104 1.54247L28.938 1.72693L29.1242 1.8ZM24.7442 12.96L24.5655 13.0497L24.7666 13.4505L24.9304 13.0331L24.7442 12.96ZM19.1442 1.8L19.323 1.7103L19.2259 1.51692L19.0408 1.62883L19.1442 1.8ZM17.3242 2.9L17.2208 2.72883L17.0622 2.82469L17.1457 2.99012L17.3242 2.9ZM23.7042 15.54L23.8905 15.6127L23.923 15.5295L23.8828 15.4499L23.7042 15.54ZM20.4042 24L20.2179 23.9273L20.1115 24.2H20.4042V24ZM21.6899 24.0743L30.4099 2.29433L30.0385 2.14566L21.3185 23.9257L21.6899 24.0743ZM30.2956 2.03315L29.1956 1.61316L29.0529 1.98684L30.1529 2.40684L30.2956 2.03315ZM28.938 1.72693L24.558 12.8869L24.9304 13.0331L29.3104 1.87307L28.938 1.72693ZM24.923 12.8703L19.323 1.7103L18.9655 1.8897L24.5655 13.0497L24.923 12.8703ZM19.0408 1.62883L17.2208 2.72883L17.4277 3.07116L19.2477 1.97117L19.0408 1.62883ZM17.1457 2.99012L23.5257 15.6301L23.8828 15.4499L17.5028 2.80988L17.1457 2.99012ZM23.5179 15.4673L20.2179 23.9273L20.5905 24.0727L23.8905 15.6127L23.5179 15.4673ZM20.4042 24.2H21.5042V23.8H20.4042V24.2ZM40.0713 13.12L40.0535 12.9208L40.0518 12.9209L40.0713 13.12ZM37.3512 2.5V2.3H37.1512V2.5H37.3512ZM35.4512 1.8V1.6H35.2513V1.8H35.4512ZM35.4512 24H35.2513V24.2H35.4512V24ZM37.3512 24V24.2H37.5513V24H37.3512ZM37.3512 14.5L37.3155 14.3032L37.1512 14.3331V14.5H37.3512ZM38.0112 14.4L38.0294 14.5993L38.0356 14.5985L38.0112 14.4ZM44.0312 11.82L44.1676 11.9664L44.1713 11.9628L44.0312 11.82ZM46.0913 6.46L46.2912 6.45879L46.2912 6.4584L46.0913 6.46ZM40.0518 12.9209C39.6563 12.9595 38.9881 12.9551 38.4107 12.9351C38.1237 12.9252 37.8632 12.9115 37.6753 12.898C37.5809 12.8912 37.5071 12.8846 37.4582 12.8788C37.4329 12.8757 37.4188 12.8734 37.4132 12.8723C37.409 12.8714 37.4158 12.8725 37.4271 12.8767C37.4314 12.8783 37.4488 12.8849 37.4687 12.8991C37.479 12.9064 37.5513 12.9579 37.5513 13.06H37.1512C37.1512 13.1633 37.2245 13.2162 37.2365 13.2248C37.2582 13.2403 37.2784 13.2481 37.2864 13.2511C37.3049 13.2581 37.3225 13.262 37.3324 13.264C37.355 13.2687 37.3825 13.2725 37.4107 13.2759C37.4689 13.2829 37.55 13.29 37.6466 13.297C37.8406 13.311 38.1063 13.3248 38.3968 13.3349C38.9744 13.3549 39.6662 13.3605 40.0907 13.3191L40.0518 12.9209ZM37.5513 13.06V2.5H37.1512V13.06H37.5513ZM37.3512 2.7H39.1512V2.3H37.3512V2.7ZM39.1512 2.7C41.2027 2.7 42.5278 3.38639 43.3437 4.34929C44.1646 5.31824 44.4912 6.59248 44.4912 7.8H44.8913C44.8913 6.52752 44.5479 5.15176 43.6488 4.09071C42.7447 3.0236 41.2998 2.3 39.1512 2.3V2.7ZM44.4912 7.8C44.4912 9.80417 43.648 11.0529 42.6774 11.8179C41.6978 12.59 40.5815 12.8736 40.0535 12.9208L40.089 13.3192C40.681 13.2664 41.8747 12.96 42.9251 12.1321C43.9845 11.2971 44.8913 9.93582 44.8913 7.8H44.4912ZM41.5112 1.6H35.4512V2H41.5112V1.6ZM35.2513 1.8V24H35.6512V1.8H35.2513ZM35.4512 24.2H37.3512V23.8H35.4512V24.2ZM37.5513 24V14.5H37.1512V24H37.5513ZM37.3512 14.5C37.387 14.6968 37.387 14.6968 37.387 14.6968C37.387 14.6968 37.387 14.6968 37.387 14.6968C37.387 14.6968 37.3871 14.6968 37.3871 14.6968C37.3871 14.6968 37.3872 14.6967 37.3873 14.6967C37.3875 14.6967 37.3878 14.6966 37.3882 14.6966C37.389 14.6964 37.3901 14.6962 37.3917 14.6959C37.3949 14.6953 37.3996 14.6945 37.4058 14.6934C37.418 14.6912 37.4358 14.6881 37.4579 14.6842C37.5021 14.6765 37.5632 14.666 37.631 14.6549C37.7688 14.6323 37.9273 14.6085 38.0294 14.5992L37.9931 14.2008C37.8752 14.2115 37.7037 14.2377 37.5665 14.2601C37.4968 14.2715 37.4342 14.2823 37.389 14.2902C37.3664 14.2941 37.3481 14.2974 37.3354 14.2996C37.3291 14.3008 37.3241 14.3017 37.3208 14.3023C37.3191 14.3026 37.3178 14.3028 37.3169 14.303C37.3164 14.3031 37.3161 14.3031 37.3159 14.3032C37.3157 14.3032 37.3157 14.3032 37.3156 14.3032C37.3156 14.3032 37.3155 14.3032 37.3155 14.3032C37.3155 14.3032 37.3155 14.3032 37.3155 14.3032C37.3155 14.3032 37.3155 14.3032 37.3512 14.5ZM38.0356 14.5985C40.0192 14.3556 41.4039 13.8383 42.37 13.3078C43.3367 12.777 43.8778 12.2362 44.1675 11.9664L43.895 11.6736C43.6047 11.9438 43.0958 12.453 42.1775 12.9572C41.2586 13.4617 39.9233 13.9644 37.9869 14.2015L38.0356 14.5985ZM44.0312 11.82C44.1713 11.9628 44.1714 11.9627 44.1714 11.9627C44.1715 11.9626 44.1715 11.9625 44.1716 11.9625C44.1718 11.9623 44.1719 11.9622 44.1721 11.962C44.1725 11.9616 44.1731 11.961 44.1737 11.9604C44.175 11.9591 44.1768 11.9573 44.1791 11.955C44.1837 11.9504 44.1901 11.9438 44.1984 11.9353C44.2149 11.9182 44.2385 11.8933 44.2683 11.8607C44.3278 11.7955 44.4118 11.6996 44.5121 11.5744C44.7125 11.3241 44.9783 10.9563 45.2433 10.4826C45.7731 9.53565 46.3015 8.16171 46.2912 6.45879L45.8913 6.4612C45.901 8.07829 45.3994 9.38435 44.8942 10.2874C44.6417 10.7387 44.3888 11.0884 44.1998 11.3244C44.1054 11.4423 44.027 11.5317 43.9729 11.591C43.9458 11.6207 43.9248 11.6428 43.9108 11.6573C43.9038 11.6645 43.8986 11.6698 43.8953 11.6731C43.8937 11.6748 43.8925 11.6759 43.8918 11.6766C43.8915 11.677 43.8912 11.6772 43.8911 11.6773C43.8911 11.6773 43.8911 11.6774 43.8911 11.6773C43.8911 11.6773 43.8911 11.6773 43.8911 11.6773C43.8912 11.6773 43.8912 11.6772 44.0312 11.82ZM46.2912 6.4584C46.2705 3.86103 44.3331 1.6 41.5112 1.6V2C44.0894 2 45.872 4.05896 45.8913 6.4616L46.2912 6.4584ZM52.3317 23.12H52.1317V23.32H52.3317V23.12ZM52.3317 13.58V13.38H52.1317V13.58H52.3317ZM60.1517 13.58V13.78H60.3517V13.58H60.1517ZM60.1517 12.72H60.3517V12.52H60.1517V12.72ZM52.3317 12.72H52.1317V12.92H52.3317V12.72ZM52.3317 2.72V2.52H52.1317V2.72H52.3317ZM62.9317 2.72V2.92H63.1317V2.72H62.9317ZM62.9317 1.8H63.1317V1.6H62.9317V1.8ZM50.1717 1.8V1.6H49.9717V1.8H50.1717ZM50.1717 22.66H49.9717V22.7713L50.0663 22.83L50.1717 22.66ZM52.3317 24L52.2263 24.17L52.2747 24.2H52.3317V24ZM63.0117 24V24.2H63.2117V24H63.0117ZM63.0117 23.12H63.2117V22.92H63.0117V23.12ZM52.5317 23.12V13.58H52.1317V23.12H52.5317ZM52.3317 13.78H60.1517V13.38H52.3317V13.78ZM60.3517 13.58V12.72H59.9517V13.58H60.3517ZM60.1517 12.52H52.3317V12.92H60.1517V12.52ZM52.5317 12.72V2.72H52.1317V12.72H52.5317ZM52.3317 2.92H62.9317V2.52H52.3317V2.92ZM63.1317 2.72V1.8H62.7317V2.72H63.1317ZM62.9317 1.6H50.1717V2H62.9317V1.6ZM49.9717 1.8V22.66H50.3717V1.8H49.9717ZM50.0663 22.83L52.2263 24.17L52.4372 23.83L50.2772 22.49L50.0663 22.83ZM52.3317 24.2H63.0117V23.8H52.3317V24.2ZM63.2117 24V23.12H62.8117V24H63.2117ZM63.0117 22.92H52.3317V23.32H63.0117V22.92ZM69.4909 13.58V13.38H69.2909V13.58H69.4909ZM77.3109 13.58V13.78H77.5109V13.58H77.3109ZM77.3109 12.52H77.5109V12.32H77.3109V12.52ZM69.4909 12.52H69.2909V12.72H69.4909V12.52ZM69.4909 2.84V2.64H69.2909V2.84H69.4909ZM80.0909 2.84V3.04H80.2909V2.84H80.0909ZM80.0909 1.8H80.2909V1.6H80.0909V1.8ZM67.3309 1.8V1.6H67.1309V1.8H67.3309ZM67.3309 22.68H67.1309V22.7922L67.2266 22.8507L67.3309 22.68ZM69.4909 24L69.3867 24.1707L69.6909 24.3566V24H69.4909ZM69.4909 13.78H77.3109V13.38H69.4909V13.78ZM77.5109 13.58V12.52H77.1109V13.58H77.5109ZM77.3109 12.32H69.4909V12.72H77.3109V12.32ZM69.6909 12.52V2.84H69.2909V12.52H69.6909ZM69.4909 3.04H80.0909V2.64H69.4909V3.04ZM80.2909 2.84V1.8H79.8909V2.84H80.2909ZM80.0909 1.6H67.3309V2H80.0909V1.6ZM67.1309 1.8V22.68H67.5309V1.8H67.1309ZM67.2266 22.8507L69.3867 24.1707L69.5952 23.8293L67.4352 22.5093L67.2266 22.8507ZM69.6909 24V13.58H69.2909V24H69.6909ZM91.4416 16.38V16.58H91.709L91.6334 16.3235L91.4416 16.38ZM83.8816 16.38L83.6941 16.3102L83.5937 16.58H83.8816V16.38ZM88.1016 5.04L88.2934 4.98349L88.1237 4.40716L87.9141 4.97024L88.1016 5.04ZM83.4216 17.62V17.42H83.2839L83.2348 17.5486L83.4216 17.62ZM91.8016 17.62L91.994 17.5657L91.9529 17.42H91.8016V17.62ZM93.6016 24L93.4091 24.0543L93.4675 24.2615L93.6699 24.188L93.6016 24ZM95.8016 23.2L95.8699 23.388L96.0486 23.323L95.9927 23.1412L95.8016 23.2ZM89.2216 1.8L89.4127 1.74122L89.3356 1.49037L89.1142 1.63127L89.2216 1.8ZM88.1216 2.5L88.0142 2.33127L87.9591 2.36634L87.9353 2.42719L88.1216 2.5ZM79.8816 23.58L79.6953 23.5072L79.6219 23.6949L79.8102 23.7668L79.8816 23.58ZM80.9816 24L80.9102 24.1868L81.097 24.2581L81.1684 24.0714L80.9816 24ZM91.4416 16.18H83.8816V16.58H91.4416V16.18ZM84.069 16.4498L88.289 5.10975L87.9141 4.97024L83.6941 16.3102L84.069 16.4498ZM87.9097 5.09651L91.2497 16.4365L91.6334 16.3235L88.2934 4.98349L87.9097 5.09651ZM83.4216 17.82H91.8016V17.42H83.4216V17.82ZM91.6091 17.6743L93.4091 24.0543L93.7941 23.9457L91.994 17.5657L91.6091 17.6743ZM93.6699 24.188L95.8699 23.388L95.7332 23.012L93.5332 23.812L93.6699 24.188ZM95.9927 23.1412L89.4127 1.74122L89.0304 1.85878L95.6104 23.2588L95.9927 23.1412ZM89.1142 1.63127L88.0142 2.33127L88.2289 2.66873L89.3289 1.96873L89.1142 1.63127ZM87.9353 2.42719L79.6953 23.5072L80.0678 23.6528L88.3078 2.57281L87.9353 2.42719ZM79.8102 23.7668L80.9102 24.1868L81.0529 23.8132L79.9529 23.3932L79.8102 23.7668ZM81.1684 24.0714L83.6084 17.6914L83.2348 17.5486L80.7948 23.9286L81.1684 24.0714ZM110.671 22.22L110.603 22.032L110.603 22.032L110.671 22.22ZM103.211 3.3L103.286 3.4854L103.287 3.48489L103.211 3.3ZM110.731 6.64L110.564 6.74979L110.623 6.84H110.731V6.64ZM113.231 6.64V6.84H113.545L113.412 6.55563L113.231 6.64ZM105.291 1.8L105.311 1.99902L105.318 1.99829L105.325 1.99701L105.291 1.8ZM113.571 17.36L113.771 17.3713L113.783 17.16H113.571V17.36ZM112.131 17.36V17.16H111.919L111.931 17.3712L112.131 17.36ZM110.603 22.032C108.708 22.7194 106.898 22.1086 105.329 20.7173C103.757 19.3227 102.449 17.1586 101.594 14.8067C100.739 12.4552 100.345 9.93806 100.582 7.84809C100.818 5.75498 101.678 4.13605 103.286 3.48539L103.136 3.1146C101.334 3.84395 100.429 5.64002 100.184 7.80315C99.9391 9.96944 100.348 12.5498 101.218 14.9433C102.088 17.3364 103.427 19.5648 105.064 21.0165C106.704 22.4714 108.664 23.1606 110.739 22.408L110.603 22.032ZM103.287 3.48489C104.799 2.86133 107.977 2.81024 110.564 6.74979L110.898 6.53021C108.205 2.42976 104.823 2.41867 103.135 3.11511L103.287 3.48489ZM110.731 6.84H113.231V6.44H110.731V6.84ZM113.412 6.55563C112.046 3.61897 110.013 2.37305 108.313 1.86828C107.466 1.61681 106.706 1.55011 106.156 1.54625C105.881 1.54433 105.659 1.55813 105.504 1.57258C105.426 1.57981 105.366 1.58721 105.324 1.5929C105.303 1.59575 105.287 1.59817 105.275 1.59993C105.27 1.60081 105.265 1.60152 105.262 1.60204C105.261 1.6023 105.259 1.60251 105.258 1.60267C105.258 1.60275 105.257 1.60282 105.257 1.60287C105.257 1.6029 105.257 1.60293 105.257 1.60294C105.257 1.60297 105.256 1.60299 105.291 1.8C105.325 1.99701 105.325 1.99702 105.325 1.99704C105.325 1.99704 105.325 1.99705 105.325 1.99704C105.325 1.99704 105.325 1.99703 105.325 1.997C105.326 1.99694 105.326 1.99683 105.327 1.99667C105.329 1.99635 105.333 1.99583 105.337 1.99515C105.346 1.99378 105.359 1.99173 105.378 1.98925C105.414 1.98427 105.469 1.97753 105.541 1.97085C105.684 1.9575 105.893 1.94442 106.153 1.94624C106.674 1.94989 107.396 2.01319 108.199 2.25172C109.799 2.72695 111.736 3.90103 113.05 6.72437L113.412 6.55563ZM105.291 1.8C105.271 1.60098 105.271 1.601 105.271 1.60101C105.271 1.60102 105.271 1.60104 105.27 1.60106C105.27 1.6011 105.269 1.60115 105.269 1.60121C105.268 1.60133 105.266 1.60149 105.264 1.6017C105.261 1.60212 105.255 1.60274 105.248 1.60357C105.235 1.60523 105.215 1.60777 105.19 1.61143C105.14 1.61874 105.067 1.6305 104.975 1.6486C104.792 1.68479 104.533 1.74637 104.222 1.84844C103.601 2.05248 102.774 2.41916 101.947 3.07035C100.285 4.37917 98.6509 6.8144 98.6509 11.3H99.0509C99.0509 6.9256 100.637 4.61083 102.195 3.38464C102.977 2.76834 103.76 2.42127 104.347 2.22844C104.64 2.13207 104.884 2.07443 105.053 2.04101C105.138 2.0243 105.203 2.01367 105.247 2.00727C105.269 2.00408 105.286 2.00194 105.297 2.00064C105.302 1.99999 105.306 1.99955 105.308 1.99929C105.309 1.99916 105.31 1.99908 105.311 1.99903C105.311 1.99901 105.311 1.999 105.311 1.999C105.311 1.99899 105.311 1.999 105.311 1.999C105.311 1.99901 105.311 1.99902 105.291 1.8ZM98.6509 11.3C98.6509 20.2082 104.139 24.2 108.211 24.2V23.8C104.402 23.8 99.0509 20.0318 99.0509 11.3H98.6509ZM108.211 24.2C109.302 24.2 110.621 23.8465 111.705 22.8042C112.79 21.7606 113.619 20.0478 113.771 17.3713L113.371 17.3487C113.223 19.9522 112.422 21.5594 111.427 22.5158C110.431 23.4735 109.219 23.8 108.211 23.8V24.2ZM113.571 17.16H112.131V17.56H113.571V17.16ZM111.931 17.3712C112.011 18.8005 111.989 19.8621 111.785 20.6234C111.586 21.3688 111.219 21.8087 110.603 22.032L110.739 22.408C111.503 22.1313 111.946 21.5712 112.172 20.7266C112.393 19.8979 112.411 18.7795 112.331 17.3488L111.931 17.3712ZM120.379 23.12H120.179V23.32H120.379V23.12ZM120.379 13.58V13.38H120.179V13.58H120.379ZM128.199 13.58V13.78H128.399V13.58H128.199ZM128.199 12.72H128.399V12.52H128.199V12.72ZM120.379 12.72H120.179V12.92H120.379V12.72ZM120.379 2.72V2.52H120.179V2.72H120.379ZM130.979 2.72V2.92H131.179V2.72H130.979ZM130.979 1.8H131.179V1.6H130.979V1.8ZM118.219 1.8V1.6H118.019V1.8H118.219ZM118.219 22.66H118.019V22.7713L118.113 22.83L118.219 22.66ZM120.379 24L120.273 24.17L120.322 24.2H120.379V24ZM131.059 24V24.2H131.259V24H131.059ZM131.059 23.12H131.259V22.92H131.059V23.12ZM120.579 23.12V13.58H120.179V23.12H120.579ZM120.379 13.78H128.199V13.38H120.379V13.78ZM128.399 13.58V12.72H127.999V13.58H128.399ZM128.199 12.52H120.379V12.92H128.199V12.52ZM120.579 12.72V2.72H120.179V12.72H120.579ZM120.379 2.92H130.979V2.52H120.379V2.92ZM131.179 2.72V1.8H130.779V2.72H131.179ZM130.979 1.6H118.219V2H130.979V1.6ZM118.019 1.8V22.66H118.419V1.8H118.019ZM118.113 22.83L120.273 24.17L120.484 23.83L118.324 22.49L118.113 22.83ZM120.379 24.2H131.059V23.8H120.379V24.2ZM131.259 24V23.12H130.859V24H131.259ZM131.059 22.92H120.379V23.32H131.059V22.92Z" />
</svg>
