<svg width="14" height="175" viewBox="0 0 14 175" fill="black" xmlns="http://www.w3.org/2000/svg">
  <path d="M0.899999 166.454L0.9 174.454L1.44 174.454L1.44 170.954L11.34 170.954L12 169.954L1.44 169.954L1.44 166.464C1.27 166.454 1.07 166.454 0.899999 166.454ZM12 163.862L1.11 159.502L0.899999 160.052L6.48 162.242L0.899999 165.042L1.45 165.952L7.77 162.762L12 164.412L12 163.862ZM6.56 154.579C6.6 154.989 6.55 155.939 6.53 155.939L1.25 155.939L1.25 155.039C1.25 152.939 2.66 152.269 3.9 152.269C5.97 152.269 6.51 154.019 6.56 154.579ZM0.899999 153.859L0.899999 156.889L12 156.889L12 155.939L7.25 155.939C7.25 155.939 7.21 155.719 7.2 155.609C6.96 153.649 6.18 152.889 5.91 152.599C5.91 152.599 4.89 151.559 3.23 151.569C1.98 151.579 0.899999 152.509 0.899999 153.859ZM11.56 148.448L6.79 148.448L6.79 144.538L6.36 144.538L6.36 148.448L1.36 148.448L1.36 143.148L0.899998 143.148L0.899999 149.528L11.33 149.528L12 148.448L12 143.108L11.56 143.108L11.56 148.448ZM5.96 131.628L5.96 132.248L4.55 132.248L5.96 133.188L5.96 134.148C5.96 134.908 5.83 136.168 4.14 136.448C3.24 136.588 1.28 136.288 1.28 133.638C1.28 133.638 0.909997 134.188 0.909997 134.798C0.929998 136.028 1.85 137.138 3.25 137.138C4.89 137.138 5.83 135.868 5.83 135.868C5.83 135.868 6.57 137.548 8.51 137.838C10.12 138.078 11.99 137.118 11.99 135.268C11.99 134.438 11.34 133.468 10.68 133.198L12.01 133.198L12.01 132.248L6.3 132.248L6.3 131.628L5.96 131.628ZM11.65 135.648C11.63 136.668 10.46 137.098 9.42 137.098C8.35 137.098 6.3 136.458 6.3 134.148L6.29 133.188C6.29 133.198 11.7 132.688 11.65 135.648ZM11.11 119.865C12.55 123.835 3.03 127.005 1.65 123.595C1.32 122.795 1.31 121.155 3.32 119.835L3.32 118.585C0.439997 119.925 0.899998 122.555 0.899998 122.555C0.899998 122.555 1.22 125.775 5.65 125.775C10.06 125.775 12 123.065 12 121.095C12 120.045 11.32 118.565 8.68 118.415L8.68 119.135C10.11 119.055 10.86 119.175 11.11 119.865ZM11.05 110.881C13.95 114.591 2.87 118.531 1.43 114.291C0.769997 112.361 3.14 110.871 3.66 110.601C6.16 109.271 9.97 109.511 11.05 110.881ZM2.85 109.641C0.759996 110.831 0.759997 112.751 0.759997 112.751C0.759997 112.751 0.269996 116.021 4.66 116.791C9.02 117.561 11.93 114.931 12.11 113.161C12.17 112.601 12.08 111.891 11.75 111.291C11.75 111.291 11.06 109.881 9.23 109.231C6.59 108.311 4.17 108.891 2.85 109.641ZM11.5 105.414L0.899997 105.414L0.899997 106.444L12 106.444L12 100.994L11.5 100.994L11.5 105.414ZM11.05 93.4004C13.95 97.1104 2.87 101.05 1.43 96.8104C0.769996 94.8804 3.14 93.3904 3.66 93.1204C6.16 91.7904 9.97 92.0304 11.05 93.4004ZM2.85 92.1604C0.759996 93.3504 0.759996 95.2704 0.759996 95.2704C0.759996 95.2704 0.269996 98.5404 4.66 99.3104C9.02 100.08 11.93 97.4504 12.11 95.6804C12.17 95.1204 12.08 94.4104 11.75 93.8104C11.75 93.8104 11.06 92.4004 9.23 91.7504C6.59 90.8304 4.17 91.4104 2.85 92.1604ZM0.899996 82.3136L0.899996 82.9736L6.69 82.9736C10.12 82.9736 10.93 83.8836 11.33 84.6736C11.5 85.0136 11.54 85.4136 11.54 85.8136C11.53 87.4236 10.06 88.4436 6.52 88.4436L0.899996 88.4436L0.899996 89.5636L6.6 89.5636C9.5 89.5636 12.1 88.9536 12.1 86.1236C12.1 82.7236 9.31 82.3136 6.17 82.3136L0.899996 82.3136ZM1.26 78.2593L1.26 77.3493C1.26 75.2593 3.23 74.6793 4.1 74.6793C6.28 74.6793 6.29 76.7593 6.39 77.3293C6.45 77.6893 6.45 78.2593 6.45 78.2593L1.26 78.2593ZM6.41 75.8293C6.41 75.8293 6.09 75.2493 5.94 75.0593C5.57 74.5993 4.93 73.8593 3.2 73.8593C2 73.8593 0.899995 74.8293 0.899996 76.1793L0.899996 79.2093L12 79.2093L12 78.2593L6.89 78.2593C6.89 78.2593 6.67 76.7893 7.24 76.2293C7.96 75.4993 12 74.3593 12 73.2293L11.42 72.7293C11.42 73.6593 6.41 74.9293 6.41 75.8293ZM5.95999 61.1206L5.95999 61.7406L4.54999 61.7406L5.95999 62.6806L5.95999 63.6406C5.95999 64.4006 5.82999 65.6606 4.14 65.9406C3.23999 66.0806 1.27999 65.7806 1.27999 63.1306C1.27999 63.1306 0.909994 63.6806 0.909994 64.2906C0.929995 65.5206 1.84999 66.6306 3.24999 66.6306C4.89 66.6306 5.82999 65.3606 5.82999 65.3606C5.82999 65.3606 6.56999 67.0406 8.51 67.3306C10.12 67.5706 11.99 66.6106 11.99 64.7606C11.99 63.9306 11.34 62.9606 10.68 62.6906L12.01 62.6906L12.01 61.7406L6.29999 61.7406L6.29999 61.1206L5.95999 61.1206ZM11.65 65.1406C11.63 66.1606 10.46 66.5906 9.42 66.5906C8.35 66.5906 6.29999 65.9506 6.29999 63.6406L6.28999 62.6806C6.28999 62.6906 11.7 62.1806 11.65 65.1406ZM12.03 52.4369L11.66 51.8869L1.09999 47.7569L0.899994 48.3169L10.4 51.8769L0.899995 54.6269L1.27999 55.7369L12.03 52.4369ZM12 45.0411L0.899994 45.0411L0.899994 45.9811L12 45.9811L12 45.0411ZM0.899994 39.1737C0.899994 41.8537 3.03999 42.9937 5.06999 42.9137C7.37999 42.8137 5.14999 37.9837 6.06999 37.0237C7.31999 35.7337 11.71 38.1237 11.71 39.1937C11.71 41.6937 9.24999 41.7037 9.24999 41.7037L9.24999 42.8537C9.58999 42.8537 12 42.7837 12 39.5337C12 37.6537 9.66999 35.4937 7.35999 35.4937C4.24999 35.4937 6.21999 41.4637 4.67999 41.7637C3.18999 42.0637 1.35999 41.4237 1.35999 40.1737C1.35999 37.8837 3.13999 37.5237 3.13999 37.5237L3.13999 36.1737C2.71999 36.2537 0.899994 37.1737 0.899994 39.1737ZM0.899993 26.7961L0.899993 27.4561L6.68999 27.4561C10.12 27.4561 10.93 28.3661 11.33 29.1561C11.5 29.4961 11.54 29.8961 11.54 30.2961C11.53 31.9061 10.06 32.9261 6.51999 32.9261L0.899994 32.9261L0.899994 34.0461L6.59999 34.0461C9.49999 34.0461 12.1 33.4361 12.1 30.6061C12.1 27.2061 9.30999 26.7961 6.16999 26.7961L0.899993 26.7961ZM8.18999 19.3818L8.18999 23.1618L2.51999 21.0518L8.18999 19.3818ZM8.80999 23.3918L8.80999 19.2018L12 18.3018L11.6 17.2018L0.899993 20.4918L1.24999 21.0418L11.79 25.1618L12 24.6118L8.80999 23.3918ZM11.5 14.4571L0.899993 14.4571L0.899993 15.4871L12 15.4871L12 10.0371L11.5 10.0371L11.5 14.4571ZM0.899992 4.6034C0.899993 7.2834 3.03999 8.4234 5.06999 8.3434C7.37999 8.2434 5.14999 3.4134 6.06999 2.4534C7.31999 1.1634 11.71 3.5534 11.71 4.6234C11.71 7.1234 9.24999 7.1334 9.24999 7.1334L9.24999 8.2834C9.58999 8.2834 12 8.2134 12 4.9634C12 3.0834 9.66999 0.923398 7.35999 0.923398C4.24999 0.923398 6.21999 6.8934 4.67999 7.1934C3.18999 7.4934 1.35999 6.8534 1.35999 5.6034C1.35999 3.3134 3.13999 2.9534 3.13999 2.9534L3.13999 1.6034C2.71999 1.6834 0.899992 2.6034 0.899992 4.6034Z" />
  <path d="M0.899999 166.454L0.899999 166.354L0.8 166.354L0.8 166.454L0.899999 166.454ZM0.9 174.454L0.8 174.454L0.8 174.554L0.9 174.554L0.9 174.454ZM1.44 174.454L1.44 174.554L1.54 174.554L1.54 174.454L1.44 174.454ZM1.44 170.954L1.44 170.854L1.34 170.854L1.34 170.954L1.44 170.954ZM11.34 170.954L11.34 171.054L11.3938 171.054L11.4235 171.009L11.34 170.954ZM12 169.954L12.0835 170.009L12.1858 169.854L12 169.854L12 169.954ZM1.44 169.954L1.34 169.954L1.34 170.054L1.44 170.054L1.44 169.954ZM1.44 166.464L1.54 166.464L1.54 166.37L1.44587 166.364L1.44 166.464ZM0.8 166.454L0.8 174.454L1 174.454L0.999999 166.454L0.8 166.454ZM0.9 174.554L1.44 174.554L1.44 174.354L0.9 174.354L0.9 174.554ZM1.54 174.454L1.54 170.954L1.34 170.954L1.34 174.454L1.54 174.454ZM1.44 171.054L11.34 171.054L11.34 170.854L1.44 170.854L1.44 171.054ZM11.4235 171.009L12.0835 170.009L11.9165 169.899L11.2565 170.899L11.4235 171.009ZM12 169.854L1.44 169.854L1.44 170.054L12 170.054L12 169.854ZM1.54 169.954L1.54 166.464L1.34 166.464L1.34 169.954L1.54 169.954ZM1.44587 166.364C1.27237 166.354 1.06927 166.354 0.899999 166.354L0.899999 166.554C1.07073 166.554 1.26762 166.554 1.43413 166.564L1.44587 166.364ZM12 163.862L12.1 163.862L12.1 163.794L12.0372 163.769L12 163.862ZM1.11 159.502L1.14717 159.409L1.05283 159.372L1.01658 159.466L1.11 159.502ZM0.899999 160.052L0.806577 160.016L0.771236 160.109L0.863465 160.145L0.899999 160.052ZM6.48 162.242L6.52485 162.332L6.72524 162.231L6.51653 162.149L6.48 162.242ZM0.899999 165.042L0.85515 164.953L0.758458 165.001L0.814416 165.094L0.899999 165.042ZM1.45 165.952L1.36442 166.004L1.41234 166.083L1.49506 166.041L1.45 165.952ZM7.77 162.762L7.80634 162.669L7.76477 162.653L7.72494 162.673L7.77 162.762ZM12 164.412L11.9637 164.505L12.1 164.558L12.1 164.412L12 164.412ZM12.0372 163.769L1.14717 159.409L1.07283 159.595L11.9628 163.955L12.0372 163.769ZM1.01658 159.466L0.806577 160.016L0.993421 160.088L1.20342 159.538L1.01658 159.466ZM0.863465 160.145L6.44346 162.335L6.51653 162.149L0.936534 159.959L0.863465 160.145ZM6.43515 162.153L0.85515 164.953L0.944849 165.132L6.52485 162.332L6.43515 162.153ZM0.814416 165.094L1.36442 166.004L1.53558 165.9L0.985582 164.99L0.814416 165.094ZM1.49506 166.041L7.81506 162.851L7.72494 162.673L1.40494 165.863L1.49506 166.041ZM7.73366 162.855L11.9637 164.505L12.0363 164.319L7.80634 162.669L7.73366 162.855ZM12.1 164.412L12.1 163.862L11.9 163.862L11.9 164.412L12.1 164.412ZM6.56 154.579L6.46039 154.588L6.46047 154.588L6.56 154.579ZM1.25 155.939L1.15 155.939L1.15 156.039L1.25 156.039L1.25 155.939ZM0.899999 156.889L0.799999 156.889L0.799999 156.989L0.899999 156.989L0.899999 156.889ZM12 156.889L12 156.989L12.1 156.989L12.1 156.889L12 156.889ZM12 155.939L12.1 155.939L12.1 155.839L12 155.839L12 155.939ZM7.25 155.939L7.15161 155.957L7.16654 156.039L7.25 156.039L7.25 155.939ZM7.2 155.609L7.29964 155.6L7.29926 155.596L7.2 155.609ZM5.91 152.599L5.98321 152.53L5.98139 152.529L5.91 152.599ZM3.23 151.569L3.2294 151.469L3.2292 151.469L3.23 151.569ZM6.46047 154.588C6.47977 154.786 6.47756 155.12 6.46756 155.409C6.46259 155.552 6.45577 155.683 6.44901 155.777C6.44561 155.824 6.4423 155.861 6.43938 155.885C6.43786 155.898 6.43672 155.905 6.43613 155.908C6.4357 155.91 6.43623 155.906 6.43835 155.901C6.43917 155.899 6.44244 155.89 6.44954 155.88C6.45318 155.875 6.47895 155.839 6.53 155.839L6.53 156.039C6.58167 156.039 6.60808 156.002 6.61238 155.996C6.62012 155.985 6.62407 155.975 6.62557 155.971C6.62905 155.962 6.63099 155.953 6.63201 155.948C6.63434 155.937 6.63627 155.923 6.63796 155.909C6.64144 155.88 6.64501 155.839 6.64849 155.791C6.65548 155.694 6.66241 155.561 6.66744 155.416C6.67744 155.127 6.68023 154.781 6.65953 154.569L6.46047 154.588ZM6.53 155.839L1.25 155.839L1.25 156.039L6.53 156.039L6.53 155.839ZM1.35 155.939L1.35 155.039L1.15 155.039L1.15 155.939L1.35 155.939ZM1.35 155.039C1.35 154.013 1.6932 153.35 2.17464 152.942C2.65912 152.532 3.29624 152.369 3.9 152.369L3.9 152.169C3.26376 152.169 2.57588 152.34 2.04535 152.79C1.5118 153.242 1.15 153.964 1.15 155.039L1.35 155.039ZM3.9 152.369C4.90209 152.369 5.52647 152.79 5.90896 153.276C6.29501 153.765 6.43682 154.324 6.46039 154.588L6.6596 154.57C6.63318 154.274 6.47998 153.677 6.06604 153.152C5.64853 152.622 4.96791 152.169 3.9 152.169L3.9 152.369ZM0.799999 153.859L0.799999 156.889L0.999999 156.889L0.999999 153.859L0.799999 153.859ZM0.899999 156.989L12 156.989L12 156.789L0.899999 156.789L0.899999 156.989ZM12.1 156.889L12.1 155.939L11.9 155.939L11.9 156.889L12.1 156.889ZM12 155.839L7.25 155.839L7.25 156.039L12 156.039L12 155.839ZM7.25 155.939C7.34839 155.921 7.34839 155.921 7.34839 155.921C7.34839 155.921 7.34839 155.921 7.34839 155.921C7.34838 155.921 7.34838 155.921 7.34838 155.921C7.34838 155.921 7.34837 155.921 7.34836 155.921C7.34835 155.921 7.34832 155.92 7.34828 155.92C7.34821 155.92 7.3481 155.919 7.34796 155.918C7.34767 155.917 7.34725 155.914 7.3467 155.911C7.34561 155.905 7.34403 155.896 7.3421 155.885C7.33824 155.863 7.33299 155.833 7.32744 155.799C7.31617 155.73 7.30423 155.651 7.29959 155.6L7.10041 155.618C7.10577 155.677 7.11883 155.762 7.13006 155.831C7.13576 155.866 7.14114 155.897 7.14509 155.92C7.14706 155.931 7.14869 155.94 7.14982 155.947C7.15039 155.95 7.15083 155.952 7.15113 155.954C7.15129 155.955 7.1514 155.955 7.15148 155.956C7.15152 155.956 7.15156 155.956 7.15158 155.956C7.15159 155.956 7.1516 155.956 7.1516 155.956C7.1516 155.956 7.15161 155.956 7.15161 155.957C7.15161 155.957 7.15161 155.957 7.15161 155.957C7.15161 155.957 7.15161 155.957 7.25 155.939ZM7.29926 155.596C7.17781 154.605 6.91915 153.912 6.6539 153.429C6.38852 152.946 6.11808 152.675 5.98319 152.53L5.83681 152.667C5.97192 152.812 6.22647 153.066 6.47859 153.526C6.73085 153.985 6.98219 154.653 7.10074 155.621L7.29926 155.596ZM5.91 152.599C5.98139 152.529 5.98136 152.529 5.98132 152.529C5.98131 152.529 5.98127 152.528 5.98123 152.528C5.98117 152.528 5.98108 152.528 5.98098 152.528C5.98078 152.528 5.98052 152.528 5.98019 152.527C5.97954 152.527 5.97864 152.526 5.9775 152.525C5.9752 152.522 5.97192 152.519 5.96765 152.515C5.95911 152.507 5.94665 152.495 5.93035 152.48C5.89775 152.45 5.84979 152.408 5.78719 152.358C5.66206 152.258 5.47813 152.125 5.24132 151.993C4.76782 151.728 4.08085 151.464 3.2294 151.469L3.2306 151.669C4.03915 151.664 4.69217 151.915 5.14367 152.167C5.36937 152.293 5.54419 152.42 5.66218 152.514C5.72115 152.562 5.76584 152.601 5.79551 152.628C5.81034 152.641 5.82141 152.652 5.82863 152.659C5.83224 152.662 5.83488 152.665 5.83655 152.667C5.83738 152.667 5.83797 152.668 5.83831 152.668C5.83848 152.669 5.83859 152.669 5.83864 152.669C5.83867 152.669 5.83868 152.669 5.83867 152.669C5.83867 152.669 5.83865 152.669 5.83865 152.669C5.83863 152.669 5.8386 152.669 5.91 152.599ZM3.2292 151.469C1.93051 151.479 0.799999 152.448 0.799999 153.859L0.999999 153.859C0.999999 152.57 2.02948 151.678 3.2308 151.669L3.2292 151.469ZM11.56 148.448L11.56 148.548L11.66 148.548L11.66 148.448L11.56 148.448ZM6.79 148.448L6.69 148.448L6.69 148.548L6.79 148.548L6.79 148.448ZM6.79 144.538L6.89 144.538L6.89 144.438L6.79 144.438L6.79 144.538ZM6.36 144.538L6.36 144.438L6.26 144.438L6.26 144.538L6.36 144.538ZM6.36 148.448L6.36 148.548L6.46 148.548L6.46 148.448L6.36 148.448ZM1.36 148.448L1.26 148.448L1.26 148.548L1.36 148.548L1.36 148.448ZM1.36 143.148L1.46 143.148L1.46 143.048L1.36 143.048L1.36 143.148ZM0.899998 143.148L0.899998 143.048L0.799999 143.048L0.799999 143.148L0.899998 143.148ZM0.899999 149.528L0.799999 149.528L0.799999 149.628L0.899999 149.628L0.899999 149.528ZM11.33 149.528L11.33 149.628L11.3856 149.628L11.415 149.581L11.33 149.528ZM12 148.448L12.085 148.501L12.1 148.477L12.1 148.448L12 148.448ZM12 143.108L12.1 143.108L12.1 143.008L12 143.008L12 143.108ZM11.56 143.108L11.56 143.008L11.46 143.008L11.46 143.108L11.56 143.108ZM11.56 148.348L6.79 148.348L6.79 148.548L11.56 148.548L11.56 148.348ZM6.89 148.448L6.89 144.538L6.69 144.538L6.69 148.448L6.89 148.448ZM6.79 144.438L6.36 144.438L6.36 144.638L6.79 144.638L6.79 144.438ZM6.26 144.538L6.26 148.448L6.46 148.448L6.46 144.538L6.26 144.538ZM6.36 148.348L1.36 148.348L1.36 148.548L6.36 148.548L6.36 148.348ZM1.46 148.448L1.46 143.148L1.26 143.148L1.26 148.448L1.46 148.448ZM1.36 143.048L0.899998 143.048L0.899998 143.248L1.36 143.248L1.36 143.048ZM0.799999 143.148L0.799999 149.528L0.999999 149.528L0.999998 143.148L0.799999 143.148ZM0.899999 149.628L11.33 149.628L11.33 149.428L0.899999 149.428L0.899999 149.628ZM11.415 149.581L12.085 148.501L11.915 148.396L11.245 149.476L11.415 149.581ZM12.1 148.448L12.1 143.108L11.9 143.108L11.9 148.448L12.1 148.448ZM12 143.008L11.56 143.008L11.56 143.208L12 143.208L12 143.008ZM11.46 143.108L11.46 148.448L11.66 148.448L11.66 143.108L11.46 143.108ZM5.96 131.628L5.96 131.528L5.86 131.528L5.86 131.628L5.96 131.628ZM5.96 132.248L5.96 132.348L6.06 132.348L6.06 132.248L5.96 132.248ZM4.55 132.248L4.55 132.148L4.21972 132.148L4.49453 132.332L4.55 132.248ZM5.96 133.188L6.06 133.188L6.06 133.135L6.01547 133.105L5.96 133.188ZM4.14 136.448L4.15537 136.547L4.15634 136.547L4.14 136.448ZM1.28 133.638L1.38 133.638L1.38 133.311L1.19703 133.583L1.28 133.638ZM0.909997 134.798L0.809984 134.798L0.810011 134.8L0.909997 134.798ZM5.83 135.868L5.92151 135.828L5.85209 135.67L5.74962 135.809L5.83 135.868ZM8.51 137.838L8.49521 137.937L8.49525 137.937L8.51 137.838ZM10.68 133.198L10.68 133.098L10.6421 133.291L10.68 133.198ZM12.01 133.198L12.01 133.298L12.11 133.298L12.11 133.198L12.01 133.198ZM12.01 132.248L12.11 132.248L12.11 132.148L12.01 132.148L12.01 132.248ZM6.3 132.248L6.2 132.248L6.2 132.348L6.3 132.348L6.3 132.248ZM6.3 131.628L6.4 131.628L6.4 131.528L6.3 131.528L6.3 131.628ZM11.65 135.648L11.75 135.65L11.75 135.65L11.65 135.648ZM6.3 134.148L6.4 134.148L6.39999 134.147L6.3 134.148ZM6.29 133.188L6.38999 133.187L6.19 133.188L6.29 133.188ZM5.86 131.628L5.86 132.248L6.06 132.248L6.06 131.628L5.86 131.628ZM5.96 132.148L4.55 132.148L4.55 132.348L5.96 132.348L5.96 132.148ZM4.49453 132.332L5.90453 133.272L6.01547 133.105L4.60547 132.165L4.49453 132.332ZM5.86 133.188L5.86 134.148L6.06 134.148L6.06 133.188L5.86 133.188ZM5.86 134.148C5.86 134.525 5.8271 135.009 5.59604 135.43C5.36852 135.846 4.94152 136.214 4.12365 136.35L4.15634 136.547C5.02847 136.403 5.51147 136.001 5.77145 135.526C6.0279 135.058 6.06 134.532 6.06 134.148L5.86 134.148ZM4.12463 136.35C3.69133 136.417 3.00301 136.377 2.42671 136.006C1.85746 135.638 1.38 134.935 1.38 133.638L1.18 133.638C1.18 134.991 1.68253 135.763 2.31828 136.174C2.94699 136.579 3.68867 136.62 4.15537 136.547L4.12463 136.35ZM1.28 133.638C1.19703 133.583 1.19701 133.583 1.19699 133.583C1.19699 133.583 1.19697 133.583 1.19695 133.583C1.19692 133.583 1.19689 133.583 1.19685 133.583C1.19676 133.583 1.19666 133.583 1.19653 133.583C1.19628 133.584 1.19594 133.584 1.19551 133.585C1.19466 133.586 1.19346 133.588 1.19195 133.59C1.18893 133.595 1.18463 133.602 1.17924 133.61C1.16846 133.628 1.1533 133.653 1.13522 133.684C1.09911 133.748 1.05116 133.839 1.00322 133.95C0.907874 134.17 0.809997 134.474 0.809997 134.798L1.01 134.798C1.01 134.512 1.09712 134.237 1.18677 134.029C1.23134 133.926 1.27589 133.842 1.30915 133.783C1.32576 133.754 1.33951 133.731 1.34896 133.716C1.35369 133.709 1.35734 133.703 1.35974 133.699C1.36093 133.697 1.36182 133.696 1.36236 133.695C1.36264 133.695 1.36283 133.694 1.36293 133.694C1.36298 133.694 1.36301 133.694 1.36302 133.694C1.36302 133.694 1.36302 133.694 1.36301 133.694C1.36301 133.694 1.363 133.694 1.36299 133.694C1.36298 133.694 1.36297 133.694 1.28 133.638ZM0.810011 134.8C0.830786 136.078 1.78871 137.238 3.25 137.238L3.25 137.038C1.91128 137.038 1.02921 135.979 1.00998 134.797L0.810011 134.8ZM3.25 137.238C4.09686 137.238 4.76194 136.91 5.21351 136.584C5.43938 136.422 5.61269 136.258 5.7298 136.136C5.7884 136.075 5.83304 136.023 5.86326 135.987C5.87838 135.969 5.8899 135.954 5.89777 135.944C5.9017 135.939 5.90473 135.935 5.90683 135.933C5.90788 135.931 5.9087 135.93 5.90929 135.929C5.90959 135.929 5.90983 135.929 5.91001 135.928C5.9101 135.928 5.91017 135.928 5.91024 135.928C5.91027 135.928 5.9103 135.928 5.91032 135.928C5.91035 135.928 5.91038 135.928 5.83 135.868C5.74962 135.809 5.74964 135.809 5.74966 135.809C5.74966 135.809 5.74967 135.809 5.74967 135.809C5.74968 135.809 5.74967 135.809 5.74964 135.809C5.74959 135.809 5.74949 135.809 5.74933 135.809C5.749 135.81 5.74845 135.81 5.74767 135.811C5.74612 135.814 5.74366 135.817 5.74031 135.821C5.73361 135.83 5.72334 135.842 5.70955 135.859C5.68196 135.892 5.64035 135.94 5.58519 135.998C5.4748 136.113 5.31061 136.268 5.09648 136.422C4.66806 136.731 4.04313 137.038 3.25 137.038L3.25 137.238ZM5.83 135.868C5.73848 135.909 5.7385 135.909 5.73853 135.909C5.73854 135.909 5.73856 135.909 5.73859 135.909C5.73863 135.909 5.73869 135.909 5.73876 135.909C5.7389 135.91 5.73909 135.91 5.73932 135.911C5.73978 135.912 5.74042 135.913 5.74126 135.915C5.74292 135.918 5.74533 135.924 5.7485 135.93C5.75483 135.944 5.76421 135.963 5.77674 135.987C5.80179 136.036 5.83949 136.104 5.89076 136.188C5.99324 136.354 6.15032 136.579 6.36953 136.813C6.80813 137.281 7.49742 137.788 8.49521 137.937L8.52478 137.739C7.58257 137.599 6.93187 137.121 6.51547 136.676C6.30717 136.454 6.158 136.241 6.06111 136.083C6.01269 136.004 5.97742 135.94 5.95443 135.895C5.94294 135.873 5.93452 135.856 5.92907 135.844C5.92634 135.839 5.92436 135.834 5.9231 135.832C5.92248 135.83 5.92203 135.829 5.92177 135.829C5.92163 135.828 5.92155 135.828 5.92151 135.828C5.92148 135.828 5.92147 135.828 5.92148 135.828C5.92148 135.828 5.92149 135.828 5.92149 135.828C5.9215 135.828 5.92151 135.828 5.83 135.868ZM8.49525 137.937C9.32339 138.061 10.2185 137.876 10.9088 137.421C11.6016 136.964 12.09 136.232 12.09 135.268L11.89 135.268C11.89 136.155 11.4434 136.828 10.7987 137.254C10.1515 137.681 9.30661 137.856 8.52474 137.739L8.49525 137.937ZM12.09 135.268C12.09 134.829 11.9189 134.361 11.6665 133.969C11.4147 133.579 11.073 133.251 10.7179 133.106L10.6421 133.291C10.947 133.416 11.2603 133.708 11.4985 134.078C11.7361 134.446 11.89 134.878 11.89 135.268L12.09 135.268ZM10.68 133.298L12.01 133.298L12.01 133.098L10.68 133.098L10.68 133.298ZM12.11 133.198L12.11 132.248L11.91 132.248L11.91 133.198L12.11 133.198ZM12.01 132.148L6.3 132.148L6.3 132.348L12.01 132.348L12.01 132.148ZM6.4 132.248L6.4 131.628L6.2 131.628L6.2 132.248L6.4 132.248ZM6.3 131.528L5.96 131.528L5.96 131.728L6.3 131.728L6.3 131.528ZM11.55 135.646C11.5409 136.111 11.2726 136.445 10.8691 136.668C10.463 136.893 9.92845 136.998 9.42 136.998L9.42 137.198C9.95155 137.198 10.522 137.089 10.9659 136.843C11.4123 136.597 11.7391 136.206 11.75 135.65L11.55 135.646ZM9.42 136.998C8.90099 136.998 8.142 136.842 7.51578 136.408C6.89452 135.976 6.4 135.268 6.4 134.148L6.2 134.148C6.2 135.338 6.73048 136.106 7.40171 136.572C8.06799 137.034 8.86901 137.198 9.42 137.198L9.42 136.998ZM6.39999 134.147L6.38999 133.187L6.19 133.189L6.2 134.149L6.39999 134.147ZM6.19 133.188C6.19923 133.23 6.23918 133.275 6.25466 133.282C6.26154 133.284 6.27231 133.287 6.27614 133.287C6.28227 133.288 6.28726 133.288 6.28846 133.289C6.2921 133.289 6.29543 133.289 6.29709 133.288C6.30105 133.288 6.30602 133.288 6.31119 133.288C6.32178 133.287 6.33746 133.286 6.35695 133.285C6.39635 133.283 6.45395 133.279 6.52723 133.275C6.67382 133.268 6.8833 133.261 7.13456 133.261C7.63762 133.261 8.30582 133.29 8.97093 133.411C9.63767 133.531 10.2919 133.742 10.7743 134.097C11.252 134.449 11.5619 134.943 11.55 135.647L11.75 135.65C11.7631 134.873 11.4155 134.321 10.8929 133.936C10.375 133.554 9.68608 133.337 9.00656 133.214C8.32542 133.09 7.64425 133.061 7.1345 133.061C6.87935 133.061 6.66656 133.068 6.51749 133.076C6.44294 133.079 6.38436 133.083 6.34454 133.085C6.32441 133.087 6.30972 133.088 6.29984 133.088C6.29477 133.088 6.29199 133.089 6.29075 133.089C6.2898 133.089 6.29118 133.089 6.29351 133.089C6.29405 133.089 6.29855 133.089 6.30435 133.089C6.30801 133.09 6.31866 133.093 6.32546 133.095C6.34085 133.102 6.38077 133.146 6.39 133.188L6.19 133.188ZM11.11 119.865L11.016 119.899L11.016 119.899L11.11 119.865ZM1.65 123.595L1.7427 123.557L1.74244 123.557L1.65 123.595ZM3.32 119.835L3.37489 119.918L3.42 119.889L3.42 119.835L3.32 119.835ZM3.32 118.585L3.42 118.585L3.42 118.428L3.27781 118.494L3.32 118.585ZM0.899998 122.555L0.999781 122.545L0.998502 122.537L0.899998 122.555ZM8.68 118.415L8.68567 118.315L8.58 118.309L8.58 118.415L8.68 118.415ZM8.68 119.135L8.58 119.135L8.58 119.24L8.68558 119.235L8.68 119.135ZM11.016 119.899C11.3597 120.846 11.0543 121.751 10.3586 122.536C9.66136 123.322 8.57932 123.976 7.40333 124.403C6.22759 124.831 4.96903 125.028 3.92405 124.909C2.87749 124.791 2.06802 124.361 1.74269 123.557L1.5573 123.632C1.92197 124.533 2.82001 124.986 3.90157 125.108C4.98472 125.231 6.2749 125.026 7.47166 124.591C8.66818 124.156 9.78239 123.487 10.5082 122.668C11.2357 121.848 11.5803 120.868 11.204 119.831L11.016 119.899ZM1.74244 123.557C1.43066 122.801 1.40512 121.212 3.37489 119.918L3.2651 119.751C1.21488 121.098 1.20933 122.789 1.55755 123.633L1.74244 123.557ZM3.42 119.835L3.42 118.585L3.22 118.585L3.22 119.835L3.42 119.835ZM3.27781 118.494C1.80948 119.177 1.18652 120.194 0.934135 121.044C0.8084 121.467 0.775051 121.847 0.773125 122.122C0.772162 122.26 0.779062 122.371 0.786289 122.448C0.789904 122.487 0.793603 122.517 0.796448 122.538C0.797871 122.549 0.799081 122.557 0.79996 122.563C0.8004 122.565 0.800758 122.568 0.801018 122.569C0.801148 122.57 0.801254 122.571 0.801334 122.571C0.801374 122.571 0.801407 122.571 0.801434 122.572C0.801447 122.572 0.801462 122.572 0.801468 122.572C0.801482 122.572 0.801493 122.572 0.899998 122.555C0.998502 122.537 0.99851 122.538 0.998516 122.538C0.998516 122.538 0.99852 122.538 0.99852 122.538C0.998519 122.538 0.998511 122.538 0.998497 122.537C0.998468 122.537 0.998412 122.537 0.998332 122.536C0.998173 122.536 0.997914 122.534 0.997571 122.532C0.996886 122.527 0.995864 122.521 0.994621 122.511C0.992135 122.493 0.988763 122.466 0.985425 122.43C0.978745 122.358 0.972209 122.254 0.97312 122.124C0.974944 121.863 1.00659 121.502 1.12586 121.101C1.36347 120.301 1.95051 119.332 3.36218 118.675L3.27781 118.494ZM0.899998 122.555C0.800488 122.565 0.800495 122.565 0.800505 122.565C0.800509 122.565 0.80052 122.565 0.800529 122.565C0.800548 122.565 0.800573 122.565 0.800603 122.566C0.800662 122.566 0.800744 122.567 0.800849 122.568C0.80106 122.57 0.801366 122.573 0.801782 122.576C0.802613 122.583 0.803884 122.593 0.805711 122.605C0.809365 122.63 0.815248 122.667 0.824298 122.712C0.842392 122.804 0.873181 122.934 0.924216 123.089C1.02624 123.399 1.20958 123.813 1.53517 124.227C2.18958 125.058 3.4072 125.875 5.65 125.875L5.65 125.675C3.4628 125.675 2.30541 124.882 1.69232 124.103C1.38417 123.711 1.21063 123.32 1.11422 123.027C1.06603 122.88 1.03721 122.758 1.0205 122.674C1.01215 122.631 1.00683 122.599 1.00363 122.577C1.00204 122.566 1.00097 122.557 1.00032 122.552C0.999995 122.549 0.999774 122.547 0.999644 122.546C0.999578 122.546 0.999535 122.545 0.999513 122.545C0.999502 122.545 0.999496 122.545 0.999496 122.545C0.999495 122.545 0.999498 122.545 0.999498 122.545C0.999502 122.545 0.999507 122.545 0.899998 122.555ZM5.65 125.875C10.1041 125.875 12.1 123.13 12.1 121.095L11.9 121.095C11.9 122.999 10.0159 125.675 5.65 125.675L5.65 125.875ZM12.1 121.095C12.1 120.549 11.9232 119.89 11.4021 119.348C10.8803 118.805 10.0239 118.391 8.68567 118.315L8.67432 118.515C9.97608 118.589 10.7797 118.989 11.2579 119.487C11.7367 119.985 11.9 120.59 11.9 121.095L12.1 121.095ZM8.58 118.415L8.58 119.135L8.78 119.135L8.78 118.415L8.58 118.415ZM8.68558 119.235C9.40027 119.195 9.93104 119.206 10.3117 119.308C10.6844 119.407 10.9043 119.591 11.016 119.899L11.204 119.831C11.0657 119.449 10.7856 119.227 10.3633 119.114C9.94895 119.004 9.38973 118.995 8.67441 119.035L8.68558 119.235ZM11.05 110.881L11.1288 110.819L11.1285 110.819L11.05 110.881ZM1.43 114.291L1.52469 114.259L1.52462 114.259L1.43 114.291ZM3.66 110.601L3.70608 110.69L3.70696 110.689L3.66 110.601ZM2.85 109.641L2.8006 109.554L2.80052 109.554L2.85 109.641ZM0.759997 112.751L0.858892 112.766L0.859996 112.758L0.859996 112.751L0.759997 112.751ZM4.66 116.791L4.67739 116.692L4.67727 116.692L4.66 116.791ZM12.11 113.161L12.0106 113.15L12.0105 113.151L12.11 113.161ZM11.75 111.291L11.6601 111.335L11.6624 111.339L11.75 111.291ZM9.23 109.231L9.26347 109.137L9.2629 109.136L9.23 109.231ZM10.9712 110.942C11.3208 111.39 11.455 111.833 11.4285 112.26C11.4019 112.689 11.2123 113.112 10.8944 113.513C10.257 114.318 9.1182 115.017 7.83404 115.473C6.55108 115.928 5.13833 116.136 3.96242 115.97C2.78662 115.803 1.86782 115.269 1.52469 114.259L1.33531 114.323C1.71217 115.433 2.71837 115.996 3.93445 116.168C5.15042 116.339 6.59641 116.125 7.90096 115.661C9.2043 115.199 10.3817 114.482 11.0512 113.637C11.3867 113.214 11.5983 112.753 11.6281 112.273C11.6581 111.791 11.5042 111.3 11.1288 110.819L10.9712 110.942ZM1.52462 114.259C1.21169 113.343 1.61249 112.526 2.17727 111.89C2.74154 111.254 3.45278 110.821 3.70608 110.69L3.61392 110.512C3.34721 110.651 2.61345 111.097 2.02772 111.757C1.4425 112.416 0.988302 113.308 1.33538 114.323L1.52462 114.259ZM3.70696 110.689C4.93804 110.034 6.49695 109.764 7.88286 109.828C8.57524 109.86 9.22083 109.976 9.75782 110.166C10.2961 110.357 10.7175 110.621 10.9715 110.943L11.1285 110.819C10.8425 110.456 10.3826 110.176 9.82467 109.978C9.26541 109.78 8.59976 109.661 7.89213 109.629C6.47804 109.563 4.88196 109.838 3.61303 110.513L3.70696 110.689ZM2.80052 109.554C1.73372 110.161 1.19748 110.957 0.928901 111.604C0.794842 111.926 0.727664 112.211 0.693978 112.416C0.677129 112.519 0.668636 112.601 0.664355 112.659C0.662213 112.687 0.661124 112.71 0.66057 112.725C0.660293 112.733 0.660149 112.739 0.660075 112.744C0.660038 112.746 0.660019 112.747 0.660008 112.749C0.660003 112.749 0.66 112.75 0.659999 112.75C0.659998 112.75 0.659997 112.75 0.659997 112.751C0.659997 112.751 0.659997 112.751 0.659997 112.751C0.659997 112.751 0.659997 112.751 0.759997 112.751C0.859996 112.751 0.859996 112.751 0.859996 112.751C0.859996 112.751 0.859996 112.751 0.859996 112.751C0.859996 112.751 0.859996 112.751 0.859997 112.751C0.859997 112.751 0.859998 112.751 0.860001 112.75C0.860006 112.75 0.860018 112.749 0.860045 112.747C0.860099 112.744 0.860211 112.739 0.860444 112.733C0.86091 112.719 0.861862 112.7 0.863803 112.674C0.867685 112.621 0.875521 112.545 0.891328 112.449C0.922954 112.256 0.986401 111.987 1.11359 111.681C1.36752 111.069 1.87627 110.31 2.89948 109.728L2.80052 109.554ZM0.759997 112.751C0.661101 112.736 0.661089 112.736 0.661076 112.736C0.661069 112.736 0.661054 112.736 0.66104 112.736C0.661012 112.737 0.660978 112.737 0.660936 112.737C0.660854 112.738 0.660744 112.739 0.66061 112.74C0.660341 112.741 0.659974 112.744 0.659531 112.748C0.658643 112.755 0.657446 112.765 0.656105 112.777C0.653423 112.803 0.650164 112.84 0.647657 112.888C0.642643 112.982 0.640621 113.117 0.65228 113.281C0.675581 113.609 0.753658 114.054 0.973122 114.524C1.41479 115.471 2.41951 116.499 4.64272 116.889L4.67727 116.692C2.51049 116.312 1.56521 115.321 1.15437 114.44C0.947585 113.997 0.873787 113.576 0.851776 113.267C0.840778 113.112 0.842741 112.986 0.847376 112.898C0.849692 112.855 0.852673 112.821 0.855026 112.798C0.856202 112.787 0.857221 112.778 0.857919 112.773C0.858269 112.77 0.858538 112.768 0.858707 112.767C0.858791 112.766 0.858851 112.766 0.858883 112.766C0.858898 112.766 0.858907 112.766 0.858909 112.766C0.85891 112.766 0.858906 112.766 0.858906 112.766C0.8589 112.766 0.858892 112.766 0.759997 112.751ZM4.64261 116.889C6.84647 117.279 8.68852 116.809 10.0042 116.014C11.3145 115.222 12.1151 114.099 12.2095 113.171L12.0105 113.151C11.9248 113.993 11.1805 115.07 9.90078 115.843C8.62647 116.613 6.83352 117.073 4.67739 116.692L4.64261 116.889ZM12.2094 113.172C12.2712 112.595 12.1791 111.864 11.8376 111.243L11.6624 111.339C11.9809 111.918 12.0688 112.607 12.0106 113.15L12.2094 113.172ZM11.75 111.291C11.8398 111.247 11.8398 111.247 11.8398 111.247C11.8398 111.247 11.8397 111.247 11.8397 111.247C11.8397 111.247 11.8396 111.247 11.8395 111.246C11.8394 111.246 11.8392 111.246 11.839 111.245C11.8386 111.244 11.838 111.243 11.8372 111.242C11.8356 111.239 11.8333 111.234 11.8304 111.228C11.8244 111.217 11.8156 111.201 11.8039 111.18C11.7804 111.138 11.7452 111.079 11.6972 111.006C11.6014 110.859 11.4546 110.658 11.2497 110.437C10.8398 109.994 10.1967 109.468 9.26347 109.137L9.19653 109.325C10.0933 109.644 10.7102 110.148 11.1028 110.573C11.2992 110.785 11.4393 110.977 11.53 111.115C11.5753 111.184 11.6082 111.24 11.6297 111.278C11.6404 111.297 11.6482 111.312 11.6532 111.321C11.6558 111.326 11.6576 111.33 11.6588 111.332C11.6593 111.333 11.6597 111.334 11.66 111.334C11.6601 111.335 11.6602 111.335 11.6602 111.335C11.6602 111.335 11.6602 111.335 11.6602 111.335C11.6602 111.335 11.6602 111.335 11.6602 111.335C11.6602 111.335 11.6602 111.335 11.75 111.291ZM9.2629 109.136C6.59279 108.206 4.14289 108.791 2.8006 109.554L2.8994 109.728C4.1971 108.991 6.5872 108.416 9.19709 109.325L9.2629 109.136ZM11.5 105.414L11.5 105.514L11.6 105.514L11.6 105.414L11.5 105.414ZM0.899997 105.414L0.899997 105.314L0.799997 105.314L0.799997 105.414L0.899997 105.414ZM0.899997 106.444L0.799997 106.444L0.799997 106.544L0.899997 106.544L0.899997 106.444ZM12 106.444L12 106.544L12.1 106.544L12.1 106.444L12 106.444ZM12 100.994L12.1 100.994L12.1 100.894L12 100.894L12 100.994ZM11.5 100.994L11.5 100.894L11.4 100.894L11.4 100.994L11.5 100.994ZM11.5 105.314L0.899997 105.314L0.899997 105.514L11.5 105.514L11.5 105.314ZM0.799997 105.414L0.799997 106.444L0.999997 106.444L0.999997 105.414L0.799997 105.414ZM0.899997 106.544L12 106.544L12 106.344L0.899997 106.344L0.899997 106.544ZM12.1 106.444L12.1 100.994L11.9 100.994L11.9 106.444L12.1 106.444ZM12 100.894L11.5 100.894L11.5 101.094L12 101.094L12 100.894ZM11.4 100.994L11.4 105.414L11.6 105.414L11.6 100.994L11.4 100.994ZM11.05 93.4004L11.1288 93.3388L11.1285 93.3385L11.05 93.4004ZM1.43 96.8104L1.52468 96.7783L1.52462 96.7781L1.43 96.8104ZM3.66 93.1204L3.70608 93.2092L3.70696 93.2087L3.66 93.1204ZM2.85 92.1604L2.8006 92.0735L2.80052 92.0735L2.85 92.1604ZM0.759996 95.2704L0.858892 95.2852L0.859996 95.2779L0.859996 95.2704L0.759996 95.2704ZM4.66 99.3104L4.67739 99.212L4.67727 99.2119L4.66 99.3104ZM12.11 95.6804L12.0106 95.6698L12.0105 95.6703L12.11 95.6804ZM11.75 93.8104L11.6601 93.8544L11.6624 93.8586L11.75 93.8104ZM9.23 91.7504L9.26347 91.6562L9.2629 91.656L9.23 91.7504ZM10.9712 93.462C11.3208 93.9092 11.455 94.353 11.4285 94.7798C11.4019 95.2085 11.2123 95.6313 10.8944 96.0326C10.257 96.8371 9.1182 97.5365 7.83404 97.9924C6.55108 98.448 5.13832 98.6551 3.96242 98.4891C2.78662 98.323 1.86782 97.7886 1.52468 96.7783L1.33531 96.8426C1.71217 97.9522 2.71837 98.5154 3.93445 98.6871C5.15042 98.8588 6.59641 98.6441 7.90096 98.1809C9.20429 97.7181 10.3817 97.0018 11.0512 96.1567C11.3867 95.7332 11.5983 95.2726 11.6281 94.7922C11.6581 94.3101 11.5042 93.8192 11.1288 93.3388L10.9712 93.462ZM1.52462 96.7781C1.21169 95.863 1.61249 95.0453 2.17727 94.4093C2.74154 93.7739 3.45278 93.3407 3.70608 93.2092L3.61391 93.0317C3.34721 93.1702 2.61345 93.6169 2.02772 94.2765C1.4425 94.9355 0.988301 95.8279 1.33538 96.8428L1.52462 96.7781ZM3.70696 93.2087C4.93804 92.5538 6.49695 92.2835 7.88286 92.3478C8.57524 92.38 9.22083 92.4955 9.75782 92.6859C10.2961 92.8768 10.7175 93.1401 10.9715 93.4623L11.1285 93.3385C10.8425 92.9757 10.3826 92.6953 9.82467 92.4974C9.26541 92.2991 8.59976 92.1809 7.89213 92.148C6.47804 92.0824 4.88196 92.3571 3.61303 93.0321L3.70696 93.2087ZM2.80052 92.0735C1.73372 92.6809 1.19748 93.4769 0.9289 94.1233C0.794842 94.4459 0.727664 94.7308 0.693977 94.9356C0.677128 95.0381 0.668635 95.1207 0.664354 95.1782C0.662213 95.2069 0.661123 95.2294 0.660569 95.245C0.660292 95.2528 0.660149 95.2589 0.660075 95.2631C0.660038 95.2653 0.660018 95.267 0.660008 95.2682C0.660002 95.2688 0.659999 95.2693 0.659998 95.2697C0.659997 95.2698 0.659996 95.27 0.659996 95.2701C0.659996 95.2702 0.659996 95.2703 0.659996 95.2703C0.659996 95.2704 0.659996 95.2704 0.759996 95.2704C0.859996 95.2704 0.859996 95.2705 0.859996 95.2705C0.859996 95.2705 0.859996 95.2705 0.859996 95.2706C0.859996 95.2706 0.859996 95.2706 0.859996 95.2705C0.859996 95.2704 0.859997 95.2702 0.86 95.2699C0.860005 95.2693 0.860018 95.2682 0.860045 95.2666C0.860098 95.2635 0.86021 95.2587 0.860443 95.2521C0.860909 95.239 0.861861 95.2191 0.863802 95.193C0.867684 95.1409 0.87552 95.0642 0.891327 94.9681C0.922953 94.7757 0.9864 94.5062 1.11359 94.2001C1.36751 93.5889 1.87627 92.8299 2.89948 92.2473L2.80052 92.0735ZM0.759996 95.2704C0.6611 95.2556 0.661088 95.2557 0.661075 95.2558C0.661068 95.2558 0.661053 95.2559 0.661039 95.256C0.661012 95.2562 0.660977 95.2564 0.660935 95.2567C0.660853 95.2573 0.660743 95.2581 0.660609 95.259C0.66034 95.261 0.659974 95.2637 0.65953 95.2672C0.658642 95.2741 0.657445 95.2841 0.656104 95.297C0.653422 95.3227 0.650164 95.3599 0.647656 95.4071C0.642642 95.5016 0.64062 95.6365 0.652279 95.8005C0.67558 96.1282 0.753657 96.5735 0.973121 97.044C1.41479 97.9908 2.41951 99.019 4.64272 99.4089L4.67727 99.2119C2.51049 98.8319 1.5652 97.8401 1.15437 96.9594C0.947584 96.5161 0.873787 96.0958 0.851775 95.7863C0.840778 95.6317 0.84274 95.5051 0.847375 95.4177C0.849691 95.3741 0.852673 95.3403 0.855025 95.3177C0.856202 95.3064 0.85722 95.298 0.857919 95.2925C0.858268 95.2898 0.858537 95.2878 0.858706 95.2866C0.85879 95.286 0.85885 95.2855 0.858882 95.2853C0.858898 95.2852 0.858907 95.2851 0.858908 95.2851C0.858909 95.2851 0.858905 95.2852 0.858906 95.2852C0.858899 95.2852 0.858892 95.2852 0.759996 95.2704ZM4.6426 99.4089C6.84647 99.7981 8.68852 99.3285 10.0042 98.5335C11.3145 97.7418 12.1151 96.6182 12.2095 95.6905L12.0105 95.6703C11.9248 96.5126 11.1805 97.5891 9.90078 98.3623C8.62647 99.1323 6.83352 99.5927 4.67739 99.212L4.6426 99.4089ZM12.2094 95.6911C12.2712 95.1144 12.1791 94.3832 11.8376 93.7622L11.6624 93.8586C11.9809 94.4377 12.0688 95.1265 12.0106 95.6698L12.2094 95.6911ZM11.75 93.8104C11.8398 93.7665 11.8398 93.7664 11.8398 93.7664C11.8398 93.7664 11.8397 93.7663 11.8397 93.7663C11.8397 93.7662 11.8396 93.7661 11.8395 93.7659C11.8394 93.7656 11.8392 93.7653 11.839 93.7648C11.8386 93.764 11.838 93.7627 11.8372 93.7612C11.8356 93.7581 11.8333 93.7537 11.8304 93.748C11.8244 93.7366 11.8156 93.7203 11.8039 93.6995C11.7804 93.6579 11.7452 93.5983 11.6972 93.5251C11.6014 93.3788 11.4546 93.1778 11.2497 92.9563C10.8398 92.5132 10.1967 91.9877 9.26347 91.6562L9.19653 91.8447C10.0933 92.1632 10.7102 92.6677 11.1028 93.0921C11.2992 93.3043 11.4393 93.4964 11.5299 93.6348C11.5753 93.7039 11.6082 93.7596 11.6297 93.7977C11.6404 93.8167 11.6482 93.8313 11.6532 93.8409C11.6558 93.8457 11.6576 93.8493 11.6588 93.8516C11.6593 93.8527 11.6597 93.8535 11.66 93.854C11.6601 93.8542 11.6602 93.8544 11.6602 93.8544C11.6602 93.8545 11.6602 93.8545 11.6602 93.8545C11.6602 93.8545 11.6602 93.8544 11.6602 93.8544C11.6602 93.8544 11.6602 93.8544 11.75 93.8104ZM9.2629 91.656C6.59279 90.7255 4.14289 91.3108 2.8006 92.0735L2.8994 92.2474C4.1971 91.51 6.5872 90.9354 9.19709 91.8449L9.2629 91.656ZM0.899996 82.3136L0.899996 82.2136L0.799996 82.2136L0.799996 82.3136L0.899996 82.3136ZM0.899996 82.9736L0.799996 82.9736L0.799996 83.0736L0.899996 83.0736L0.899996 82.9736ZM11.33 84.6736L11.4194 84.6289L11.4192 84.6285L11.33 84.6736ZM11.54 85.8136L11.64 85.8143L11.64 85.8136L11.54 85.8136ZM0.899996 88.4436L0.899996 88.3436L0.799996 88.3436L0.799996 88.4436L0.899996 88.4436ZM0.899996 89.5636L0.799996 89.5636L0.799996 89.6636L0.899996 89.6636L0.899996 89.5636ZM0.799996 82.3136L0.799996 82.9736L0.999996 82.9736L0.999996 82.3136L0.799996 82.3136ZM0.899996 83.0736L6.69 83.0736L6.69 82.8736L0.899996 82.8736L0.899996 83.0736ZM6.69 83.0736C8.39797 83.0736 9.44096 83.3005 10.1031 83.6176C10.7598 83.9321 11.0481 84.3383 11.2408 84.7188L11.4192 84.6285C11.2119 84.2189 10.8952 83.7752 10.1894 83.4372C9.48903 83.1018 8.41202 82.8736 6.69 82.8736L6.69 83.0736ZM11.2406 84.7184C11.3999 85.0371 11.44 85.418 11.44 85.8136L11.64 85.8136C11.64 85.4093 11.6001 84.9902 11.4194 84.6289L11.2406 84.7184ZM11.44 85.813C11.4352 86.5804 11.0862 87.2057 10.3047 87.6452C9.51558 88.089 8.28348 88.3436 6.52 88.3436L6.52 88.5436C8.29651 88.5436 9.56941 88.2882 10.4028 87.8195C11.2438 87.3465 11.6348 86.6569 11.64 85.8143L11.44 85.813ZM6.52 88.3436L0.899996 88.3436L0.899996 88.5436L6.52 88.5436L6.52 88.3436ZM0.799996 88.4436L0.799996 89.5636L0.999996 89.5636L0.999996 88.4436L0.799996 88.4436ZM0.899996 89.6636L6.6 89.6636L6.6 89.4636L0.899996 89.4636L0.899996 89.6636ZM6.6 89.6636C8.05319 89.6636 9.44791 89.5115 10.4822 88.9943C11.0012 88.7348 11.4322 88.3821 11.7328 87.9087C12.0337 87.435 12.2 86.8469 12.2 86.1236L12 86.1236C12 86.8153 11.8413 87.3648 11.564 87.8014C11.2866 88.2383 10.8862 88.5687 10.3928 88.8154C9.40208 89.3108 8.04681 89.4636 6.6 89.4636L6.6 89.6636ZM12.2 86.1236C12.2 85.2599 12.0227 84.578 11.7007 84.0424C11.3784 83.5064 10.9153 83.1243 10.3561 82.8536C9.24316 82.315 7.73925 82.2136 6.17 82.2136L6.17 82.4136C7.74074 82.4136 9.20184 82.5172 10.2689 83.0336C10.7997 83.2905 11.2304 83.6484 11.5293 84.1455C11.8285 84.6431 12 85.2873 12 86.1236L12.2 86.1236ZM6.17 82.2136L0.899996 82.2136L0.899996 82.4136L6.17 82.4136L6.17 82.2136ZM1.26 78.2593L1.16 78.2593L1.16 78.3593L1.26 78.3593L1.26 78.2593ZM6.39 77.3293L6.48864 77.3129L6.48849 77.3121L6.39 77.3293ZM6.45 78.2593L6.45 78.3593L6.55 78.3593L6.55 78.2593L6.45 78.2593ZM6.41 75.8293L6.32244 75.8776L6.51 75.8293L6.41 75.8293ZM5.94 75.0593L6.01849 74.9974L6.01792 74.9967L5.94 75.0593ZM0.899996 79.2093L0.799996 79.2093L0.799996 79.3093L0.899996 79.3093L0.899996 79.2093ZM12 79.2093L12 79.3093L12.1 79.3093L12.1 79.2093L12 79.2093ZM12 78.2593L12.1 78.2593L12.1 78.1593L12 78.1593L12 78.2593ZM6.89 78.2593L6.7911 78.2741L6.80385 78.3593L6.89 78.3593L6.89 78.2593ZM7.24 76.2293L7.31009 76.3007L7.31119 76.2996L7.24 76.2293ZM12 73.2293L12.1 73.2293L12.1 73.1835L12.0653 73.1536L12 73.2293ZM11.42 72.7293L11.4853 72.6536L11.32 72.5111L11.32 72.7293L11.42 72.7293ZM1.36 78.2593L1.36 77.3493L1.16 77.3493L1.16 78.2593L1.36 78.2593ZM1.36 77.3493C1.36 76.3418 1.83224 75.7036 2.40973 75.3134C2.99212 74.9199 3.68194 74.7793 4.1 74.7793L4.1 74.5793C3.64805 74.5793 2.91787 74.7287 2.29776 75.1477C1.67275 75.57 1.16 76.2668 1.16 77.3493L1.36 77.3493ZM4.1 74.7793C4.62845 74.7793 5.01801 74.9051 5.30836 75.0967C5.59914 75.2886 5.79722 75.5508 5.93506 75.8343C6.21438 76.4087 6.23839 77.0439 6.2915 77.3466L6.48849 77.3121C6.4416 77.0448 6.41061 76.3549 6.11493 75.7469C5.96527 75.4391 5.74585 75.1457 5.4185 74.9298C5.09073 74.7135 4.66154 74.5793 4.1 74.5793L4.1 74.7793ZM6.29136 77.3458C6.32028 77.5193 6.33511 77.7466 6.34258 77.9333C6.34629 78.0261 6.34814 78.1078 6.34907 78.1662C6.34953 78.1954 6.34977 78.2188 6.34988 78.2349C6.34994 78.2429 6.34997 78.249 6.34998 78.2532C6.34999 78.2553 6.34999 78.2568 6.34999 78.2579C6.34999 78.2584 6.35 78.2588 6.35 78.259C6.35 78.2591 6.35 78.2592 6.35 78.2593C6.35 78.2593 6.35 78.2593 6.35 78.2593C6.35 78.2593 6.35 78.2593 6.35 78.2593C6.35 78.2593 6.35 78.2593 6.45 78.2593C6.55 78.2593 6.55 78.2593 6.55 78.2593C6.55 78.2593 6.55 78.2593 6.55 78.2593C6.55 78.2593 6.55 78.2592 6.55 78.2592C6.55 78.2591 6.55 78.259 6.55 78.2588C6.55 78.2585 6.54999 78.2581 6.54999 78.2575C6.54999 78.2564 6.54999 78.2547 6.54998 78.2525C6.54997 78.2481 6.54994 78.2417 6.54988 78.2334C6.54976 78.2169 6.54952 78.1929 6.54905 78.1631C6.5481 78.1034 6.5462 78.0201 6.54242 77.9253C6.53488 77.7371 6.51971 77.4994 6.48863 77.3129L6.29136 77.3458ZM6.45 78.1593L1.26 78.1593L1.26 78.3593L6.45 78.3593L6.45 78.1593ZM6.41 75.8293C6.49755 75.781 6.49755 75.781 6.49755 75.781C6.49754 75.781 6.49754 75.781 6.49753 75.781C6.49752 75.781 6.4975 75.7809 6.49748 75.7809C6.49744 75.7808 6.49738 75.7807 6.4973 75.7806C6.49714 75.7803 6.4969 75.7798 6.49658 75.7793C6.49596 75.7781 6.49503 75.7765 6.49383 75.7743C6.49141 75.7699 6.48787 75.7636 6.48331 75.7554C6.47419 75.739 6.46102 75.7155 6.44475 75.6866C6.41223 75.629 6.36727 75.55 6.31755 75.4651C6.21959 75.2977 6.09859 75.0988 6.01848 74.9974L5.86151 75.1213C5.9314 75.2098 6.0454 75.396 6.14494 75.5661C6.19397 75.6499 6.23839 75.7278 6.27055 75.7849C6.28663 75.8134 6.29963 75.8366 6.3086 75.8527C6.31308 75.8608 6.31656 75.867 6.3189 75.8713C6.32008 75.8734 6.32097 75.875 6.32156 75.8761C6.32186 75.8766 6.32208 75.877 6.32223 75.8773C6.3223 75.8774 6.32236 75.8775 6.32239 75.8776C6.32241 75.8776 6.32242 75.8776 6.32243 75.8776C6.32243 75.8776 6.32243 75.8776 6.32244 75.8776C6.32244 75.8776 6.32244 75.8776 6.41 75.8293ZM6.01792 74.9967C5.83101 74.7643 5.56899 74.4522 5.12978 74.2001C4.69008 73.9477 4.07994 73.7593 3.2 73.7593L3.2 73.9593C4.05005 73.9593 4.62491 74.1409 5.03022 74.3736C5.436 74.6065 5.67898 74.8944 5.86207 75.122L6.01792 74.9967ZM3.2 73.7593C1.94789 73.7593 0.799996 74.771 0.799996 76.1793L0.999995 76.1793C0.999995 74.8876 2.0521 73.9593 3.2 73.9593L3.2 73.7593ZM0.799996 76.1793L0.799996 79.2093L0.999996 79.2093L0.999995 76.1793L0.799996 76.1793ZM0.899996 79.3093L12 79.3093L12 79.1093L0.899996 79.1093L0.899996 79.3093ZM12.1 79.2093L12.1 78.2593L11.9 78.2593L11.9 79.2093L12.1 79.2093ZM12 78.1593L6.89 78.1593L6.89 78.3593L12 78.3593L12 78.1593ZM6.89 78.2593C6.98889 78.2445 6.9889 78.2446 6.9889 78.2446C6.9889 78.2446 6.9889 78.2446 6.9889 78.2446C6.98889 78.2445 6.98889 78.2445 6.98888 78.2444C6.98886 78.2443 6.98883 78.2441 6.98879 78.2438C6.9887 78.2432 6.98856 78.2423 6.98838 78.241C6.98802 78.2384 6.98747 78.2345 6.98676 78.2293C6.98536 78.2189 6.98334 78.2034 6.98096 78.1833C6.97619 78.1431 6.96995 78.0848 6.96421 78.0129C6.9527 77.869 6.94324 77.6718 6.95118 77.458C6.95913 77.2438 6.98448 77.0158 7.04126 76.8093C7.09828 76.6019 7.18492 76.4236 7.31008 76.3007L7.16991 76.158C7.01007 76.315 6.91046 76.5306 6.84842 76.7563C6.78614 76.9828 6.75961 77.2274 6.75131 77.4506C6.74301 77.6743 6.75291 77.8796 6.76484 78.0289C6.77082 78.1036 6.77732 78.1645 6.78235 78.2069C6.78487 78.2281 6.78702 78.2447 6.78856 78.2561C6.78933 78.2618 6.78995 78.2662 6.79038 78.2692C6.7906 78.2707 6.79077 78.2719 6.79089 78.2727C6.79095 78.2731 6.791 78.2735 6.79103 78.2737C6.79105 78.2738 6.79106 78.2739 6.79107 78.274C6.79108 78.274 6.79109 78.2741 6.79109 78.2741C6.79109 78.2741 6.7911 78.2741 6.89 78.2593ZM7.31119 76.2996C7.39142 76.2182 7.5237 76.126 7.70113 76.0239C7.87708 75.9226 8.09117 75.8151 8.33028 75.7019C8.56924 75.5888 8.83144 75.4709 9.10352 75.3485C9.37527 75.2262 9.65667 75.0996 9.93257 74.9698C10.4832 74.7108 11.0176 74.4364 11.4154 74.1537C11.6143 74.0123 11.7833 73.866 11.9033 73.715C12.0232 73.5641 12.1 73.4013 12.1 73.2293L11.9 73.2293C11.9 73.3399 11.8506 73.4598 11.7467 73.5905C11.643 73.721 11.4907 73.8548 11.2996 73.9906C10.9174 74.2623 10.3968 74.5304 9.84743 74.7888C9.57332 74.9178 9.29347 75.0437 9.02147 75.1661C8.74981 75.2883 8.48575 75.4071 8.24471 75.5211C8.00382 75.6352 7.78416 75.7453 7.60136 75.8505C7.42004 75.9549 7.26857 76.058 7.1688 76.1591L7.31119 76.2996ZM12.0653 73.1536L11.4853 72.6536L11.3547 72.8051L11.9347 73.3051L12.0653 73.1536ZM11.32 72.7293C11.32 72.8015 11.2694 72.8977 11.1372 73.0189C11.0086 73.1367 10.8206 73.2617 10.5882 73.3923C10.1238 73.6532 9.50271 73.9252 8.87502 74.1989C8.25038 74.4713 7.61912 74.7456 7.14435 75.0086C6.90722 75.1399 6.70386 75.2713 6.55856 75.4014C6.41744 75.5278 6.31 75.6716 6.31 75.8293L6.51 75.8293C6.51 75.7621 6.55912 75.6694 6.69198 75.5504C6.82066 75.4351 7.00871 75.3123 7.24126 75.1835C7.70587 74.9262 8.32711 74.6561 8.95497 74.3822C9.57978 74.1097 10.2112 73.8336 10.6862 73.5667C10.9234 73.4334 11.1269 73.2995 11.2723 73.1664C11.414 73.0366 11.52 72.8897 11.52 72.7293L11.32 72.7293ZM5.95999 61.1206L5.95999 61.0206L5.85999 61.0206L5.85999 61.1206L5.95999 61.1206ZM5.95999 61.7406L5.95999 61.8406L6.05999 61.8406L6.05999 61.7406L5.95999 61.7406ZM4.54999 61.7406L4.54999 61.6406L4.21972 61.6406L4.49452 61.8238L4.54999 61.7406ZM5.95999 62.6806L6.05999 62.6806L6.05999 62.6271L6.01546 62.5974L5.95999 62.6806ZM4.14 65.9406L4.15537 66.0394L4.15634 66.0392L4.14 65.9406ZM1.27999 63.1306L1.37999 63.1306L1.37999 62.8028L1.19702 63.0748L1.27999 63.1306ZM0.909994 64.2906L0.809981 64.2906L0.810008 64.2922L0.909994 64.2906ZM5.82999 65.3606L5.92151 65.3203L5.85208 65.1627L5.74962 65.3011L5.82999 65.3606ZM8.51 67.3306L8.49521 67.4295L8.49525 67.4295L8.51 67.3306ZM10.68 62.6906L10.68 62.5906L10.6421 62.7831L10.68 62.6906ZM12.01 62.6906L12.01 62.7906L12.11 62.7906L12.11 62.6906L12.01 62.6906ZM12.01 61.7406L12.11 61.7406L12.11 61.6406L12.01 61.6406L12.01 61.7406ZM6.29999 61.7406L6.19999 61.7406L6.19999 61.8406L6.29999 61.8406L6.29999 61.7406ZM6.29999 61.1206L6.39999 61.1206L6.39999 61.0206L6.29999 61.0206L6.29999 61.1206ZM11.65 65.1406L11.75 65.1425L11.75 65.1423L11.65 65.1406ZM6.29999 63.6406L6.4 63.6406L6.39999 63.6395L6.29999 63.6406ZM6.28999 62.6806L6.38999 62.6795L6.18999 62.6806L6.28999 62.6806ZM5.85999 61.1206L5.85999 61.7406L6.05999 61.7406L6.05999 61.1206L5.85999 61.1206ZM5.95999 61.6406L4.54999 61.6406L4.54999 61.8406L5.95999 61.8406L5.95999 61.6406ZM4.49452 61.8238L5.90452 62.7638L6.01546 62.5974L4.60546 61.6574L4.49452 61.8238ZM5.85999 62.6806L5.85999 63.6406L6.05999 63.6406L6.05999 62.6806L5.85999 62.6806ZM5.85999 63.6406C5.85999 64.0172 5.82709 64.5007 5.59604 64.9225C5.36852 65.3379 4.94152 65.7064 4.12365 65.8419L4.15634 66.0392C5.02847 65.8947 5.51147 65.4933 5.77145 65.0186C6.0279 64.5504 6.05999 64.024 6.05999 63.6406L5.85999 63.6406ZM4.12462 65.8418C3.69133 65.9092 3.00301 65.8697 2.42671 65.4978C1.85746 65.1305 1.37999 64.4276 1.37999 63.1306L1.17999 63.1306C1.17999 64.4835 1.68253 65.2557 2.31828 65.6659C2.94698 66.0715 3.68866 66.112 4.15537 66.0394L4.12462 65.8418ZM1.27999 63.1306C1.19702 63.0748 1.19701 63.0748 1.19699 63.0748C1.19698 63.0748 1.19696 63.0749 1.19695 63.0749C1.19692 63.0749 1.19688 63.075 1.19684 63.075C1.19676 63.0752 1.19666 63.0753 1.19653 63.0755C1.19628 63.0759 1.19593 63.0764 1.19551 63.077C1.19465 63.0783 1.19346 63.0802 1.19195 63.0825C1.18892 63.0872 1.18462 63.0939 1.17923 63.1025C1.16846 63.1198 1.1533 63.1448 1.13522 63.1767C1.09911 63.2403 1.05115 63.3314 1.00322 63.4421C0.907871 63.6625 0.809994 63.9667 0.809994 64.2906L1.00999 64.2906C1.00999 64.0045 1.09712 63.7287 1.18677 63.5216C1.23133 63.4186 1.27588 63.334 1.30914 63.2754C1.32576 63.2462 1.3395 63.2235 1.34896 63.2083C1.35369 63.2007 1.35734 63.195 1.35973 63.1913C1.36093 63.1895 1.36181 63.1881 1.36236 63.1873C1.36263 63.1869 1.36282 63.1866 1.36292 63.1865C1.36298 63.1864 1.363 63.1863 1.36301 63.1863C1.36302 63.1863 1.36301 63.1863 1.36301 63.1863C1.363 63.1863 1.36299 63.1864 1.36299 63.1864C1.36298 63.1864 1.36297 63.1864 1.27999 63.1306ZM0.810008 64.2922C0.830783 65.5699 1.78871 66.7306 3.24999 66.7306L3.24999 66.5306C1.91128 66.5306 1.02921 65.4713 1.00998 64.289L0.810008 64.2922ZM3.24999 66.7306C4.09686 66.7306 4.76194 66.4025 5.21351 66.0767C5.43938 65.9137 5.61269 65.7507 5.7298 65.6281C5.78839 65.5668 5.83303 65.5154 5.86326 65.4791C5.87837 65.461 5.8899 65.4466 5.89777 65.4365C5.9017 65.4315 5.90472 65.4276 5.90683 65.4248C5.90788 65.4234 5.9087 65.4223 5.90929 65.4215C5.90959 65.4211 5.90983 65.4208 5.91001 65.4206C5.9101 65.4204 5.91017 65.4203 5.91023 65.4203C5.91026 65.4202 5.9103 65.4202 5.91031 65.4202C5.91035 65.4201 5.91037 65.4201 5.82999 65.3606C5.74962 65.3011 5.74964 65.3011 5.74965 65.301C5.74966 65.301 5.74967 65.301 5.74967 65.301C5.74967 65.301 5.74966 65.301 5.74964 65.3011C5.74959 65.3011 5.74949 65.3013 5.74932 65.3015C5.749 65.3019 5.74845 65.3027 5.74767 65.3037C5.74612 65.3057 5.74366 65.3089 5.74031 65.3132C5.73361 65.3217 5.72333 65.3346 5.70954 65.3512C5.68196 65.3843 5.64035 65.4322 5.58519 65.4899C5.4748 65.6055 5.31061 65.76 5.09648 65.9145C4.66805 66.2236 4.04313 66.5306 3.24999 66.5306L3.24999 66.7306ZM5.82999 65.3606C5.73848 65.4009 5.7385 65.4009 5.73852 65.401C5.73854 65.401 5.73856 65.4011 5.73858 65.4011C5.73863 65.4012 5.73869 65.4014 5.73876 65.4015C5.7389 65.4018 5.73908 65.4023 5.73931 65.4028C5.73977 65.4038 5.74042 65.4052 5.74125 65.407C5.74292 65.4107 5.74533 65.4159 5.74849 65.4225C5.75483 65.4358 5.76421 65.455 5.77674 65.4792C5.80179 65.5277 5.83949 65.5967 5.89076 65.68C5.99324 65.8466 6.15032 66.0713 6.36952 66.3052C6.80813 66.7733 7.49742 67.2803 8.49521 67.4295L8.52478 67.2317C7.58257 67.0908 6.93186 66.6129 6.51547 66.1685C6.30717 65.9462 6.158 65.7327 6.0611 65.5752C6.01269 65.4965 5.97742 65.432 5.95443 65.3874C5.94293 65.3652 5.93451 65.348 5.92906 65.3365C5.92634 65.3308 5.92436 65.3265 5.9231 65.3238C5.92247 65.3224 5.92203 65.3214 5.92176 65.3208C5.92163 65.3205 5.92154 65.3204 5.9215 65.3203C5.92148 65.3202 5.92147 65.3202 5.92147 65.3202C5.92147 65.3202 5.92148 65.3202 5.92148 65.3202C5.9215 65.3202 5.92151 65.3203 5.82999 65.3606ZM8.49525 67.4295C9.32338 67.5529 10.2185 67.3683 10.9088 66.9128C11.6016 66.4557 12.09 65.7237 12.09 64.7606L11.89 64.7606C11.89 65.6474 11.4434 66.3205 10.7987 66.7459C10.1515 67.1729 9.30661 67.3482 8.52474 67.2317L8.49525 67.4295ZM12.09 64.7606C12.09 64.3214 11.9189 63.8528 11.6665 63.4614C11.4147 63.0708 11.073 62.7433 10.7179 62.598L10.6421 62.7831C10.947 62.9079 11.2603 63.2004 11.4984 63.5698C11.7361 63.9384 11.89 64.3698 11.89 64.7606L12.09 64.7606ZM10.68 62.7906L12.01 62.7906L12.01 62.5906L10.68 62.5906L10.68 62.7906ZM12.11 62.6906L12.11 61.7406L11.91 61.7406L11.91 62.6906L12.11 62.6906ZM12.01 61.6406L6.29999 61.6406L6.29999 61.8406L12.01 61.8406L12.01 61.6406ZM6.39999 61.7406L6.39999 61.1206L6.19999 61.1206L6.19999 61.7406L6.39999 61.7406ZM6.29999 61.0206L5.95999 61.0206L5.95999 61.2206L6.29999 61.2206L6.29999 61.0206ZM11.55 65.1386C11.5409 65.603 11.2726 65.9374 10.8691 66.1606C10.463 66.3851 9.92844 66.4906 9.42 66.4906L9.42 66.6906C9.95155 66.6906 10.522 66.581 10.9659 66.3356C11.4123 66.0887 11.7391 65.6981 11.75 65.1425L11.55 65.1386ZM9.42 66.4906C8.90098 66.4906 8.142 66.3345 7.51578 65.8997C6.89451 65.4683 6.39999 64.7605 6.39999 63.6406L6.19999 63.6406C6.19999 64.8306 6.73048 65.5979 7.40171 66.064C8.06799 66.5266 8.86901 66.6906 9.42 66.6906L9.42 66.4906ZM6.39999 63.6395L6.38999 62.6795L6.19 62.6816L6.2 63.6416L6.39999 63.6395ZM6.18999 62.6806C6.19923 62.7226 6.23918 62.7667 6.25465 62.7742C6.26154 62.7765 6.27231 62.7791 6.27614 62.7797C6.28227 62.7806 6.28726 62.7807 6.28845 62.7807C6.2921 62.7808 6.29543 62.7807 6.29708 62.7806C6.30105 62.7805 6.30602 62.7803 6.31118 62.78C6.32177 62.7794 6.33746 62.7784 6.35695 62.7771C6.39635 62.7747 6.45394 62.7712 6.52723 62.7676C6.67382 62.7605 6.8833 62.753 7.13456 62.7529C7.63762 62.7528 8.30582 62.7823 8.97093 62.9027C9.63766 63.0235 10.2919 63.2339 10.7743 63.5894C11.252 63.9414 11.5619 64.4355 11.55 65.1389L11.75 65.1423C11.7631 64.3657 11.4155 63.8135 10.8929 63.4284C10.375 63.0467 9.68608 62.829 9.00656 62.7059C8.32542 62.5826 7.64425 62.5528 7.1345 62.5529C6.87934 62.553 6.66656 62.5606 6.51749 62.5679C6.44294 62.5715 6.38435 62.5751 6.34453 62.5775C6.32441 62.5788 6.30972 62.5797 6.29984 62.5803C6.29477 62.5806 6.29198 62.5807 6.29075 62.5807C6.2898 62.5808 6.29118 62.5807 6.29351 62.5808C6.29405 62.5808 6.29854 62.5808 6.30435 62.5817C6.30801 62.5823 6.31866 62.5848 6.32546 62.5871C6.34085 62.5945 6.38076 62.6386 6.38999 62.6806L6.18999 62.6806ZM12.03 52.4369L12.0593 52.5325L12.1882 52.493L12.113 52.3811L12.03 52.4369ZM11.66 51.8869L11.743 51.8311L11.7255 51.8052L11.6964 51.7938L11.66 51.8869ZM1.09999 47.7569L1.13642 47.6638L1.04047 47.6263L1.00582 47.7233L1.09999 47.7569ZM0.899994 48.3169L0.80582 48.2833L0.772704 48.376L0.864904 48.4106L0.899994 48.3169ZM10.4 51.8769L10.4278 51.973L10.7175 51.8891L10.4351 51.7833L10.4 51.8769ZM0.899995 54.6269L0.872189 54.5309L0.771401 54.56L0.805385 54.6593L0.899995 54.6269ZM1.27999 55.7369L1.18539 55.7693L1.21675 55.8609L1.30934 55.8325L1.27999 55.7369ZM12.113 52.3811L11.743 51.8311L11.577 51.9427L11.947 52.4927L12.113 52.3811ZM11.6964 51.7938L1.13642 47.6638L1.06357 47.85L11.6236 51.98L11.6964 51.7938ZM1.00582 47.7233L0.80582 48.2833L0.994168 48.3505L1.19417 47.7906L1.00582 47.7233ZM0.864904 48.4106L10.3649 51.9706L10.4351 51.7833L0.935085 48.2233L0.864904 48.4106ZM10.3722 51.7809L0.872189 54.5309L0.9278 54.723L10.4278 51.973L10.3722 51.7809ZM0.805385 54.6593L1.18539 55.7693L1.3746 55.7045L0.994604 54.5945L0.805385 54.6593ZM1.30934 55.8325L12.0593 52.5325L12.0006 52.3413L1.25065 55.6413L1.30934 55.8325ZM12 45.0411L12.1 45.0411L12.1 44.9411L12 44.9411L12 45.0411ZM0.899994 45.0411L0.899994 44.9411L0.799994 44.9411L0.799994 45.0411L0.899994 45.0411ZM0.899994 45.9811L0.799994 45.9811L0.799994 46.0811L0.899994 46.0811L0.899994 45.9811ZM12 45.9811L12 46.0811L12.1 46.0811L12.1 45.9811L12 45.9811ZM12 44.9411L0.899994 44.9411L0.899994 45.1411L12 45.1411L12 44.9411ZM0.799994 45.0411L0.799994 45.9811L0.999994 45.9811L0.999994 45.0411L0.799994 45.0411ZM0.899994 46.0811L12 46.0811L12 45.8811L0.899994 45.8811L0.899994 46.0811ZM12.1 45.9811L12.1 45.0411L11.9 45.0411L11.9 45.9811L12.1 45.9811ZM5.06999 42.9137L5.07393 43.0136L5.07432 43.0136L5.06999 42.9137ZM6.06999 37.0237L5.99818 36.9541L5.99779 36.9545L6.06999 37.0237ZM9.24999 41.7037L9.24959 41.6037L9.14999 41.6041L9.14999 41.7037L9.24999 41.7037ZM9.24999 42.8537L9.14999 42.8537L9.14999 42.9537L9.24999 42.9537L9.24999 42.8537ZM4.67999 41.7637L4.66087 41.6656L4.66026 41.6657L4.67999 41.7637ZM3.13999 37.5237L3.15982 37.6217L3.23999 37.6055L3.23999 37.5237L3.13999 37.5237ZM3.13999 36.1737L3.23999 36.1737L3.23999 36.0529L3.12128 36.0755L3.13999 36.1737ZM0.799994 39.1737C0.799994 40.5435 1.34846 41.5282 2.16257 42.1578C2.97352 42.785 4.04047 43.0544 5.07393 43.0136L5.06606 42.8138C4.06952 42.8531 3.05147 42.5924 2.28492 41.9996C1.52153 41.4092 0.999994 40.4839 0.999994 39.1737L0.799994 39.1737ZM5.07432 43.0136C5.38174 43.0003 5.62277 42.9075 5.80479 42.7461C5.98564 42.5858 6.09953 42.3655 6.16794 42.1123C6.30364 41.6099 6.2674 40.9493 6.19059 40.2798C6.1126 39.6001 5.99369 38.9157 5.95019 38.3276C5.9286 38.0356 5.92653 37.776 5.95665 37.5623C5.98697 37.3471 6.04822 37.191 6.14219 37.0929L5.99779 36.9545C5.86177 37.0965 5.79145 37.3013 5.75861 37.5344C5.72557 37.7689 5.72873 38.0449 5.75073 38.3423C5.79442 38.9329 5.91613 39.6423 5.9919 40.3026C6.06883 40.9732 6.09948 41.5988 5.97486 42.0601C5.91311 42.2888 5.81505 42.4698 5.67212 42.5965C5.53034 42.7221 5.33575 42.8021 5.06567 42.8138L5.07432 43.0136ZM6.14181 37.0933C6.42217 36.804 6.89167 36.7093 7.46853 36.7676C8.0415 36.8255 8.69654 37.0325 9.31736 37.3147C9.93775 37.5968 10.5178 37.9512 10.941 38.2991C11.1528 38.4732 11.3226 38.6434 11.4386 38.7999C11.5563 38.9587 11.61 39.0918 11.61 39.1937L11.81 39.1937C11.81 39.0282 11.7265 38.8525 11.5993 38.6808C11.4703 38.5068 11.2874 38.3249 11.068 38.1446C10.6291 37.7837 10.0335 37.4206 9.40013 37.1327C8.7672 36.8449 8.09036 36.6294 7.48865 36.5686C6.89082 36.5082 6.34282 36.5984 5.99818 36.9541L6.14181 37.0933ZM11.61 39.1937C11.61 39.8015 11.4607 40.2514 11.2419 40.5858C11.0228 40.9208 10.73 41.1458 10.4344 41.2972C10.1384 41.4488 9.84125 41.5257 9.61728 41.5646C9.50553 41.5839 9.41262 41.5937 9.34805 41.5987C9.31579 41.6012 9.29065 41.6024 9.27383 41.6031C9.26542 41.6034 9.2591 41.6035 9.25501 41.6036C9.25296 41.6037 9.25147 41.6037 9.25056 41.6037C9.25011 41.6037 9.2498 41.6037 9.24964 41.6037C9.24955 41.6037 9.24951 41.6037 9.2495 41.6037C9.2495 41.6037 9.24952 41.6037 9.24952 41.6037C9.24955 41.6037 9.24959 41.6037 9.24999 41.7037C9.2504 41.8037 9.25046 41.8037 9.25053 41.8037C9.25056 41.8037 9.25064 41.8037 9.25071 41.8037C9.25085 41.8037 9.25103 41.8037 9.25125 41.8037C9.25168 41.8037 9.25226 41.8037 9.25299 41.8037C9.25445 41.8037 9.25649 41.8036 9.2591 41.8036C9.26431 41.8035 9.2718 41.8033 9.28141 41.8029C9.30063 41.8022 9.32834 41.8008 9.36334 41.7981C9.43331 41.7927 9.53259 41.7822 9.65146 41.7616C9.88874 41.7205 10.2066 41.6386 10.5256 41.4752C10.845 41.3116 11.1672 41.0654 11.4093 40.6953C11.6518 40.3248 11.81 39.8359 11.81 39.1937L11.61 39.1937ZM9.14999 41.7037L9.14999 42.8537L9.34999 42.8537L9.34999 41.7037L9.14999 41.7037ZM9.24999 42.9537C9.42616 42.9537 10.1377 42.936 10.8074 42.496C11.4845 42.0512 12.1 41.1874 12.1 39.5337L11.9 39.5337C11.9 41.13 11.3105 41.9262 10.6976 42.3289C10.0773 42.7364 9.41382 42.7537 9.24999 42.7537L9.24999 42.9537ZM12.1 39.5337C12.1 38.5549 11.4961 37.5198 10.6127 36.734C9.72762 35.9467 8.54489 35.3937 7.35999 35.3937L7.35999 35.5937C8.4851 35.5937 9.62236 36.1207 10.4798 36.8834C11.3388 37.6476 11.9 38.6326 11.9 39.5337L12.1 39.5337ZM7.35999 35.3937C6.95454 35.3937 6.62526 35.4913 6.35978 35.6675C6.09484 35.8434 5.90014 36.0932 5.75599 36.3872C5.46958 36.9713 5.3758 37.7451 5.33141 38.5104C5.28643 39.2859 5.29186 40.0467 5.21197 40.6442C5.17222 40.9415 5.11254 41.1856 5.02098 41.3621C4.93098 41.5356 4.81506 41.6355 4.66087 41.6656L4.69911 41.8619C4.92993 41.8169 5.08932 41.6647 5.1985 41.4542C5.30612 41.2468 5.36948 40.9753 5.41021 40.6707C5.49126 40.0645 5.48731 39.2765 5.53108 38.522C5.57543 37.7573 5.66854 37.0198 5.93556 36.4752C6.06813 36.2049 6.24179 35.9859 6.4704 35.8341C6.69847 35.6827 6.98795 35.5937 7.35999 35.5937L7.35999 35.3937ZM4.66026 41.6657C3.93424 41.8119 3.12508 41.7284 2.50098 41.4582C1.87479 41.187 1.45999 40.7416 1.45999 40.1737L1.25999 40.1737C1.25999 40.8559 1.7602 41.3554 2.42151 41.6417C3.0849 41.929 3.93574 42.0156 4.69973 41.8617L4.66026 41.6657ZM1.45999 40.1737C1.45999 39.0587 1.89157 38.424 2.31456 38.0663C2.52761 37.8862 2.74074 37.7746 2.90033 37.7081C2.98005 37.6748 3.04612 37.653 3.09173 37.6396C3.11452 37.6329 3.13217 37.6283 3.14381 37.6254C3.14963 37.624 3.15395 37.623 3.15665 37.6224C3.158 37.6221 3.15895 37.6219 3.15949 37.6218C3.15975 37.6217 3.15991 37.6217 3.15997 37.6217C3.16 37.6217 3.16 37.6217 3.15997 37.6217C3.15996 37.6217 3.15992 37.6217 3.15992 37.6217C3.15987 37.6217 3.15982 37.6217 3.13999 37.5237C3.12017 37.4257 3.1201 37.4257 3.12003 37.4257C3.12 37.4257 3.11992 37.4258 3.11985 37.4258C3.11972 37.4258 3.11956 37.4258 3.11937 37.4259C3.11899 37.4259 3.11851 37.426 3.11792 37.4262C3.11674 37.4264 3.11514 37.4268 3.11312 37.4272C3.10909 37.4281 3.10341 37.4294 3.0962 37.4312C3.08176 37.4347 3.06117 37.4401 3.03529 37.4477C2.98356 37.4629 2.91057 37.4871 2.82341 37.5234C2.64925 37.596 2.41738 37.7175 2.18543 37.9136C1.71842 38.3085 1.25999 38.9987 1.25999 40.1737L1.45999 40.1737ZM3.23999 37.5237L3.23999 36.1737L3.03999 36.1737L3.03999 37.5237L3.23999 37.5237ZM3.12128 36.0755C3.00124 36.0983 2.79801 36.1765 2.56391 36.3077C2.32771 36.4401 2.05371 36.6301 1.79303 36.8818C1.27112 37.3857 0.799994 38.1402 0.799994 39.1737L0.999994 39.1737C0.999994 38.2072 1.43887 37.5017 1.93195 37.0257C2.17878 36.7873 2.43853 36.6073 2.6617 36.4822C2.88698 36.3559 3.06874 36.2891 3.1587 36.2719L3.12128 36.0755ZM0.899993 26.7961L0.899993 26.6961L0.799993 26.6961L0.799993 26.7961L0.899993 26.7961ZM0.899993 27.4561L0.799994 27.4561L0.799994 27.5561L0.899993 27.5561L0.899993 27.4561ZM11.33 29.1561L11.4194 29.1113L11.4192 29.1109L11.33 29.1561ZM11.54 30.2961L11.64 30.2967L11.64 30.2961L11.54 30.2961ZM0.899994 32.9261L0.899994 32.826L0.799994 32.826L0.799994 32.9261L0.899994 32.9261ZM0.899994 34.0461L0.799994 34.0461L0.799994 34.1461L0.899994 34.1461L0.899994 34.0461ZM0.799993 26.7961L0.799994 27.4561L0.999993 27.4561L0.999993 26.7961L0.799993 26.7961ZM0.899993 27.5561L6.68999 27.5561L6.68999 27.356L0.899993 27.356L0.899993 27.5561ZM6.68999 27.5561C8.39797 27.5561 9.44096 27.7829 10.1031 28.1C10.7598 28.4145 11.0481 28.8207 11.2408 29.2012L11.4192 29.1109C11.2119 28.7014 10.8952 28.2576 10.1894 27.9196C9.48902 27.5842 8.41202 27.356 6.68999 27.356L6.68999 27.5561ZM11.2406 29.2008C11.3999 29.5195 11.44 29.9004 11.44 30.2961L11.64 30.2961C11.64 29.8917 11.6001 29.4726 11.4194 29.1113L11.2406 29.2008ZM11.44 30.2954C11.4352 31.0628 11.0862 31.6882 10.3047 32.1276C9.51558 32.5715 8.28348 32.826 6.51999 32.826L6.51999 33.0261C8.29651 33.0261 9.56941 32.7706 10.4028 32.302C11.2438 31.829 11.6348 31.1393 11.64 30.2967L11.44 30.2954ZM6.51999 32.826L0.899994 32.826L0.899994 33.0261L6.51999 33.0261L6.51999 32.826ZM0.799994 32.9261L0.799994 34.0461L0.999994 34.0461L0.999994 32.9261L0.799994 32.9261ZM0.899994 34.1461L6.59999 34.1461L6.59999 33.9461L0.899994 33.9461L0.899994 34.1461ZM6.59999 34.1461C8.05318 34.1461 9.44791 33.9939 10.4822 33.4767C11.0012 33.2172 11.4322 32.8645 11.7328 32.3911C12.0337 31.9174 12.2 31.3294 12.2 30.606L12 30.606C12 31.2977 11.8413 31.8472 11.564 32.2838C11.2866 32.7207 10.8862 33.0511 10.3928 33.2979C9.40208 33.7932 8.0468 33.9461 6.59999 33.9461L6.59999 34.1461ZM12.2 30.606C12.2 29.7424 12.0227 29.0604 11.7007 28.5248C11.3784 27.9888 10.9153 27.6067 10.3561 27.336C9.24315 26.7975 7.73925 26.6961 6.16999 26.6961L6.16999 26.8961C7.74074 26.8961 9.20183 26.9996 10.2689 27.5161C10.7997 27.7729 11.2304 28.1308 11.5293 28.6279C11.8285 29.1255 12 29.7697 12 30.606L12.2 30.606ZM6.16999 26.6961L0.899993 26.6961L0.899993 26.8961L6.16999 26.8961L6.16999 26.6961ZM8.18999 19.3818L8.28999 19.3818L8.28999 19.2481L8.16174 19.2858L8.18999 19.3818ZM8.18999 23.1618L8.15512 23.2555L8.28999 23.3057L8.28999 23.1618L8.18999 23.1618ZM2.51999 21.0518L2.49174 20.9558L2.20357 21.0407L2.48512 21.1455L2.51999 21.0518ZM8.80999 23.3918L8.70999 23.3918L8.70999 23.4606L8.77427 23.4852L8.80999 23.3918ZM8.80999 19.2018L8.78284 19.1055L8.70999 19.1261L8.70999 19.2018L8.80999 19.2018ZM12 18.3018L12.0271 18.398L12.1308 18.3688L12.094 18.2676L12 18.3018ZM11.6 17.2018L11.694 17.1676L11.6615 17.0782L11.5706 17.1062L11.6 17.2018ZM0.899993 20.4918L0.870603 20.3962L0.745178 20.4347L0.815627 20.5454L0.899993 20.4918ZM1.24999 21.0418L1.16563 21.0954L1.18316 21.123L1.21359 21.1349L1.24999 21.0418ZM11.79 25.1618L11.7536 25.2549L11.8475 25.2916L11.8834 25.1974L11.79 25.1618ZM12 24.6118L12.0934 24.6474L12.1291 24.5541L12.0357 24.5184L12 24.6118ZM8.08999 19.3818L8.08999 23.1618L8.28999 23.1618L8.28999 19.3818L8.08999 19.3818ZM8.22487 23.068L2.55487 20.958L2.48512 21.1455L8.15512 23.2555L8.22487 23.068ZM2.54825 21.1477L8.21825 19.4777L8.16174 19.2858L2.49174 20.9558L2.54825 21.1477ZM8.90999 23.3918L8.90999 19.2018L8.70999 19.2018L8.70999 23.3918L8.90999 23.3918ZM8.83715 19.298L12.0271 18.398L11.9728 18.2055L8.78284 19.1055L8.83715 19.298ZM12.094 18.2676L11.694 17.1676L11.506 17.2359L11.906 18.3359L12.094 18.2676ZM11.5706 17.1062L0.870603 20.3962L0.929383 20.5873L11.6294 17.2973L11.5706 17.1062ZM0.815627 20.5454L1.16563 21.0954L1.33436 20.9881L0.984359 20.4381L0.815627 20.5454ZM1.21359 21.1349L11.7536 25.2549L11.8264 25.0686L1.2864 20.9486L1.21359 21.1349ZM11.8834 25.1974L12.0934 24.6474L11.9066 24.5761L11.6966 25.1261L11.8834 25.1974ZM12.0357 24.5184L8.84571 23.2984L8.77427 23.4852L11.9643 24.7052L12.0357 24.5184ZM11.5 14.4571L11.5 14.5571L11.6 14.5571L11.6 14.4571L11.5 14.4571ZM0.899993 14.4571L0.899993 14.3571L0.799993 14.3571L0.799993 14.4571L0.899993 14.4571ZM0.899993 15.4871L0.799993 15.4871L0.799993 15.5871L0.899993 15.5871L0.899993 15.4871ZM12 15.4871L12 15.5871L12.1 15.5871L12.1 15.4871L12 15.4871ZM12 10.0371L12.1 10.0371L12.1 9.93707L12 9.93707L12 10.0371ZM11.5 10.0371L11.5 9.93707L11.4 9.93707L11.4 10.0371L11.5 10.0371ZM11.5 14.3571L0.899993 14.3571L0.899993 14.5571L11.5 14.5571L11.5 14.3571ZM0.799993 14.4571L0.799993 15.4871L0.999993 15.4871L0.999993 14.4571L0.799993 14.4571ZM0.899993 15.5871L12 15.5871L12 15.3871L0.899993 15.3871L0.899993 15.5871ZM12.1 15.4871L12.1 10.0371L11.9 10.0371L11.9 15.4871L12.1 15.4871ZM12 9.93707L11.5 9.93707L11.5 10.1371L12 10.1371L12 9.93707ZM11.4 10.0371L11.4 14.4571L11.6 14.4571L11.6 10.0371L11.4 10.0371ZM5.06999 8.3434L5.07393 8.44333L5.07432 8.4433L5.06999 8.3434ZM6.06999 2.4534L5.99818 2.3838L5.99779 2.3842L6.06999 2.4534ZM9.24999 7.13339L9.24959 7.0334L9.14999 7.0338L9.14999 7.13339L9.24999 7.13339ZM9.24999 8.2834L9.14999 8.2834L9.14999 8.38339L9.24999 8.38339L9.24999 8.2834ZM4.67999 7.19341L4.66087 7.09525L4.66025 7.09537L4.67999 7.19341ZM3.13999 2.9534L3.15982 3.05141L3.23999 3.0352L3.23999 2.9534L3.13999 2.9534ZM3.13999 1.60339L3.23999 1.60339L3.23999 1.48256L3.12128 1.50516L3.13999 1.60339ZM0.799993 4.60339C0.799993 5.97324 1.34846 6.95789 2.16257 7.58751C2.97352 8.21468 4.04047 8.48405 5.07393 8.44331L5.06605 8.24347C4.06952 8.28275 3.05147 8.02213 2.28492 7.42929C1.52153 6.83891 0.999992 5.91356 0.999992 4.60339L0.799993 4.60339ZM5.07432 8.4433C5.38174 8.42999 5.62277 8.33716 5.80478 8.17581C5.98564 8.01549 6.09953 7.79523 6.16794 7.54198C6.30364 7.03958 6.2674 6.37895 6.19059 5.7095C6.1126 5.0298 5.99369 4.34541 5.95019 3.75728C5.9286 3.46533 5.92653 3.20573 5.95665 2.99196C5.98697 2.77676 6.04822 2.62065 6.14219 2.52258L5.99779 2.3842C5.86176 2.52615 5.79145 2.73097 5.75861 2.96405C5.72556 3.19856 5.72873 3.47458 5.75073 3.77202C5.79442 4.36263 5.91613 5.07199 5.99189 5.7323C6.06883 6.40285 6.09947 7.02846 5.97486 7.48982C5.91311 7.71844 5.81505 7.89944 5.67211 8.02615C5.53034 8.15182 5.33575 8.2318 5.06567 8.24348L5.07432 8.4433ZM6.14181 2.52298C6.42217 2.23366 6.89167 2.13895 7.46853 2.19727C8.0415 2.25519 8.69654 2.46219 9.31736 2.74443C9.93775 3.02649 10.5178 3.38087 10.941 3.72877C11.1528 3.90285 11.3226 4.0731 11.4386 4.22958C11.5563 4.38838 11.61 4.52147 11.61 4.6234L11.81 4.6234C11.81 4.45784 11.7265 4.28217 11.5993 4.11049C11.4703 3.93651 11.2874 3.75458 11.068 3.57428C10.6291 3.21342 10.0335 2.85031 9.40013 2.56236C8.7672 2.27461 8.09036 2.05911 7.48864 1.99828C6.89081 1.93785 6.34281 2.02814 5.99818 2.3838L6.14181 2.52298ZM11.61 4.6234C11.61 5.23122 11.4607 5.68111 11.2419 6.01552C11.0228 6.35049 10.73 6.5755 10.4344 6.7269C10.1384 6.87849 9.84125 6.9554 9.61728 6.99425C9.50552 7.01363 9.41262 7.02342 9.34805 7.02838C9.31579 7.03085 9.29065 7.0321 9.27383 7.03275C9.26542 7.03307 9.2591 7.03323 9.255 7.03331C9.25296 7.03336 9.25147 7.03337 9.25056 7.03339C9.25011 7.0334 9.2498 7.0334 9.24963 7.0334C9.24955 7.0334 9.24951 7.0334 9.2495 7.0334C9.24949 7.0334 9.24952 7.0334 9.24951 7.0334C9.24955 7.0334 9.24959 7.0334 9.24999 7.13339C9.2504 7.2334 9.25046 7.2334 9.25053 7.2334C9.25056 7.2334 9.25064 7.2334 9.25071 7.2334C9.25085 7.2334 9.25103 7.2334 9.25125 7.2334C9.25168 7.23338 9.25226 7.23338 9.25299 7.23337C9.25444 7.23335 9.25649 7.23332 9.25909 7.23328C9.26431 7.23317 9.2718 7.23297 9.28141 7.2326C9.30063 7.23187 9.32834 7.23047 9.36334 7.2278C9.4333 7.22243 9.53259 7.21191 9.65146 7.1913C9.88873 7.15015 10.2066 7.0683 10.5256 6.90491C10.845 6.74129 11.1672 6.49504 11.4093 6.12501C11.6518 5.75444 11.81 5.26558 11.81 4.6234L11.61 4.6234ZM9.14999 7.13339L9.14999 8.2834L9.34999 8.2834L9.34999 7.13339L9.14999 7.13339ZM9.24999 8.38339C9.42616 8.38339 10.1377 8.36571 10.8074 7.92572C11.4845 7.4809 12.1 6.61707 12.1 4.96339L11.9 4.96339C11.9 6.55972 11.3105 7.3559 10.6976 7.75858C10.0773 8.16609 9.41382 8.1834 9.24999 8.1834L9.24999 8.38339ZM12.1 4.96339C12.1 3.98454 11.4961 2.94952 10.6127 2.16368C9.72762 1.37637 8.54489 0.823395 7.35999 0.823395L7.35999 1.02339C8.4851 1.02339 9.62236 1.55041 10.4798 2.31311C11.3388 3.07729 11.9 4.06226 11.9 4.96339L12.1 4.96339ZM7.35999 0.823395C6.95454 0.823395 6.62526 0.920944 6.35978 1.0972C6.09484 1.27309 5.90014 1.52287 5.75599 1.81688C5.46957 2.40102 5.3758 3.17482 5.33141 3.94011C5.28643 4.71558 5.29185 5.47638 5.21197 6.0739C5.17222 6.37119 5.11254 6.61531 5.02097 6.79179C4.93097 6.96527 4.81506 7.0652 4.66087 7.09525L4.69911 7.29155C4.92993 7.24658 5.08932 7.09435 5.1985 6.88391C5.30612 6.67648 5.36948 6.40498 5.4102 6.1004C5.49126 5.49417 5.48731 4.70621 5.53107 3.95169C5.57543 3.18698 5.66854 2.44952 5.93556 1.90492C6.06813 1.63455 6.24178 1.41559 6.4704 1.26382C6.69847 1.11241 6.98795 1.02339 7.35999 1.02339L7.35999 0.823395ZM4.66025 7.09537C3.93424 7.24155 3.12508 7.15813 2.50098 6.88788C1.87479 6.61673 1.45999 6.17126 1.45999 5.60339L1.25999 5.60339C1.25999 6.28554 1.7602 6.78506 2.42151 7.07141C3.0849 7.35867 3.93574 7.44525 4.69973 7.29143L4.66025 7.09537ZM1.45999 5.60339C1.45999 4.48843 1.89157 3.85365 2.31456 3.49602C2.5276 3.31587 2.74074 3.20424 2.90033 3.13774C2.98004 3.10452 3.04612 3.08269 3.09173 3.06927C3.11452 3.06258 3.13217 3.05798 3.14381 3.05513C3.14963 3.0537 3.15395 3.0527 3.15665 3.05211C3.158 3.0518 3.15895 3.05161 3.15948 3.05148C3.15975 3.05142 3.15991 3.05139 3.15997 3.05138C3.16 3.05138 3.16 3.05138 3.15997 3.05138C3.15996 3.05139 3.15992 3.05139 3.15991 3.05139C3.15987 3.05141 3.15982 3.05141 3.13999 2.9534C3.12017 2.85538 3.1201 2.85539 3.12003 2.85541C3.12 2.85542 3.11992 2.85544 3.11985 2.85545C3.11972 2.85547 3.11956 2.85551 3.11937 2.85555C3.11899 2.85562 3.11851 2.85573 3.11792 2.85585C3.11674 2.85609 3.11514 2.85645 3.11312 2.8569C3.10909 2.8578 3.10341 2.8591 3.09619 2.86087C3.08176 2.86441 3.06117 2.8698 3.03529 2.87741C2.98355 2.89262 2.91057 2.91681 2.82341 2.95313C2.64925 3.0257 2.41738 3.14717 2.18543 3.34329C1.71842 3.73814 1.25999 4.42838 1.25999 5.60339L1.45999 5.60339ZM3.23999 2.9534L3.23999 1.60339L3.03999 1.60339L3.03999 2.9534L3.23999 2.9534ZM3.12128 1.50516C3.00124 1.52803 2.798 1.6062 2.56391 1.73741C2.32771 1.86981 2.05371 2.05977 1.79303 2.31146C1.27112 2.81537 0.799992 3.56992 0.799993 4.60339L0.999992 4.60339C0.999992 3.63689 1.43886 2.93143 1.93195 2.45534C2.17878 2.21703 2.43852 2.03697 2.6617 1.91188C2.88698 1.7856 3.06874 1.71877 3.1587 1.70163L3.12128 1.50516Z" />
</svg>
