<svg width="14" height="103" viewBox="0 0 14 103" fill="black" xmlns="http://www.w3.org/2000/svg">
  <path d="M0.899999 94.5216L0.9 102.522L1.44 102.522L1.44 99.0216L11.34 99.0216L12 98.0216L1.44 98.0216L1.44 94.5316C1.27 94.5216 1.07 94.5216 0.899999 94.5216ZM12 91.9295L1.11 87.5695L0.899999 88.1195L6.48 90.3095L0.899999 93.1095L1.45 94.0195L7.77 90.8295L12 92.4795L12 91.9295ZM6.56 82.646C6.6 83.056 6.55 84.006 6.53 84.006L1.25 84.006L1.25 83.106C1.25 81.006 2.66 80.336 3.9 80.336C5.97 80.336 6.51 82.086 6.56 82.646ZM0.899999 81.926L0.899999 84.956L12 84.956L12 84.006L7.25 84.006C7.25 84.006 7.21 83.786 7.2 83.676C6.96 81.716 6.18 80.956 5.91 80.666C5.91 80.666 4.89 79.626 3.23 79.636C1.98 79.646 0.899999 80.576 0.899999 81.926ZM11.56 76.5158L6.79 76.5158L6.79 72.6058L6.36 72.6058L6.36 76.5158L1.36 76.5158L1.36 71.2158L0.899998 71.2158L0.899999 77.5958L11.33 77.5958L12 76.5158L12 71.1758L11.56 71.1758L11.56 76.5158ZM5.96 59.6958L5.96 60.3158L4.55 60.3158L5.96 61.2558L5.96 62.2158C5.96 62.9758 5.83 64.2358 4.14 64.5158C3.24 64.6558 1.28 64.3558 1.28 61.7058C1.28 61.7058 0.909997 62.2558 0.909997 62.8658C0.929998 64.0958 1.85 65.2058 3.25 65.2058C4.89 65.2058 5.83 63.9358 5.83 63.9358C5.83 63.9358 6.57 65.6158 8.51 65.9058C10.12 66.1458 11.99 65.1858 11.99 63.3358C11.99 62.5058 11.34 61.5358 10.68 61.2658L12.01 61.2658L12.01 60.3158L6.3 60.3158L6.3 59.6958L5.96 59.6958ZM11.65 63.7158C11.63 64.7358 10.46 65.1658 9.42 65.1658C8.35 65.1658 6.3 64.5258 6.3 62.2158L6.29 61.2558C6.29 61.2658 11.7 60.7558 11.65 63.7158ZM11.11 47.9321C12.55 51.9021 3.03 55.0721 1.65 51.6621C1.32 50.8621 1.31 49.2221 3.32 47.9021L3.32 46.6521C0.439997 47.9921 0.899998 50.6221 0.899998 50.6221C0.899998 50.6221 1.22 53.8421 5.65 53.8421C10.06 53.8421 12 51.1321 12 49.1621C12 48.1121 11.32 46.6321 8.68 46.4821L8.68 47.2021C10.11 47.1221 10.86 47.2421 11.11 47.9321ZM11.05 38.9483C13.95 42.6583 2.87 46.5983 1.43 42.3583C0.769997 40.4283 3.14 38.9383 3.66 38.6683C6.16 37.3383 9.97 37.5783 11.05 38.9483ZM2.85 37.7083C0.759996 38.8983 0.759997 40.8183 0.759997 40.8183C0.759997 40.8183 0.269996 44.0883 4.66 44.8583C9.02 45.6283 11.93 42.9983 12.11 41.2283C12.17 40.6683 12.08 39.9583 11.75 39.3583C11.75 39.3583 11.06 37.9483 9.23 37.2983C6.59 36.3783 4.17 36.9583 2.85 37.7083ZM11.5 33.4815L0.899997 33.4815L0.899997 34.5115L12 34.5115L12 29.0615L11.5 29.0615L11.5 33.4815ZM11.05 21.4678C13.95 25.1778 2.87 29.1178 1.43 24.8778C0.769996 22.9478 3.14 21.4578 3.66 21.1878C6.16 19.8578 9.97 20.0978 11.05 21.4678ZM2.85 20.2278C0.759996 21.4178 0.759996 23.3378 0.759996 23.3378C0.759996 23.3378 0.269996 26.6078 4.66 27.3778C9.02 28.1478 11.93 25.5178 12.11 23.7478C12.17 23.1878 12.08 22.4778 11.75 21.8778C11.75 21.8778 11.06 20.4678 9.23 19.8178C6.59 18.8978 4.17 19.4778 2.85 20.2278ZM0.899996 10.381L0.899996 11.041L6.69 11.041C10.12 11.041 10.93 11.951 11.33 12.741C11.5 13.081 11.54 13.481 11.54 13.881C11.53 15.491 10.06 16.511 6.52 16.511L0.899996 16.511L0.899996 17.631L6.6 17.631C9.5 17.631 12.1 17.021 12.1 14.191C12.1 10.791 9.31 10.381 6.17 10.381L0.899996 10.381ZM1.26 6.32672L1.26 5.41672C1.26 3.32672 3.23 2.74672 4.1 2.74672C6.28 2.74672 6.29 4.82672 6.39 5.39672C6.45 5.75672 6.45 6.32672 6.45 6.32672L1.26 6.32672ZM6.41 3.89672C6.41 3.89672 6.09 3.31672 5.94 3.12672C5.57 2.66672 4.93 1.92672 3.2 1.92672C2 1.92672 0.899995 2.89672 0.899996 4.24672L0.899996 7.27672L12 7.27672L12 6.32672L6.89 6.32672C6.89 6.32672 6.67 4.85672 7.24 4.29672C7.96 3.56672 12 2.42672 12 1.29672L11.42 0.796718C11.42 1.72672 6.41 2.99672 6.41 3.89672Z" />
  <path d="M0.899999 94.5216L0.899999 94.4216L0.8 94.4216L0.8 94.5216L0.899999 94.5216ZM0.9 102.522L0.8 102.522L0.8 102.622L0.9 102.622L0.9 102.522ZM1.44 102.522L1.44 102.622L1.54 102.622L1.54 102.522L1.44 102.522ZM1.44 99.0216L1.44 98.9216L1.34 98.9216L1.34 99.0216L1.44 99.0216ZM11.34 99.0216L11.34 99.1216L11.3938 99.1216L11.4235 99.0767L11.34 99.0216ZM12 98.0216L12.0835 98.0767L12.1858 97.9216L12 97.9216L12 98.0216ZM1.44 98.0216L1.34 98.0216L1.34 98.1216L1.44 98.1216L1.44 98.0216ZM1.44 94.5316L1.54 94.5316L1.54 94.4373L1.44587 94.4318L1.44 94.5316ZM0.8 94.5216L0.8 102.522L1 102.522L0.999999 94.5216L0.8 94.5216ZM0.9 102.622L1.44 102.622L1.44 102.422L0.9 102.422L0.9 102.622ZM1.54 102.522L1.54 99.0216L1.34 99.0216L1.34 102.522L1.54 102.522ZM1.44 99.1216L11.34 99.1216L11.34 98.9216L1.44 98.9216L1.44 99.1216ZM11.4235 99.0767L12.0835 98.0767L11.9165 97.9666L11.2565 98.9666L11.4235 99.0767ZM12 97.9216L1.44 97.9216L1.44 98.1216L12 98.1216L12 97.9216ZM1.54 98.0216L1.54 94.5316L1.34 94.5316L1.34 98.0216L1.54 98.0216ZM1.44587 94.4318C1.27237 94.4216 1.06927 94.4216 0.899999 94.4216L0.899999 94.6216C1.07073 94.6216 1.26762 94.6217 1.43413 94.6315L1.44587 94.4318ZM12 91.9295L12.1 91.9295L12.1 91.8619L12.0372 91.8367L12 91.9295ZM1.11 87.5695L1.14717 87.4767L1.05283 87.4389L1.01658 87.5339L1.11 87.5695ZM0.899999 88.1195L0.806577 88.0839L0.771236 88.1764L0.863465 88.2126L0.899999 88.1195ZM6.48 90.3095L6.52485 90.3989L6.72524 90.2984L6.51653 90.2164L6.48 90.3095ZM0.899999 93.1095L0.85515 93.0202L0.758458 93.0687L0.814416 93.1613L0.899999 93.1095ZM1.45 94.0195L1.36442 94.0713L1.41234 94.1506L1.49506 94.1088L1.45 94.0195ZM7.77 90.8295L7.80634 90.7364L7.76477 90.7202L7.72494 90.7403L7.77 90.8295ZM12 92.4795L11.9637 92.5727L12.1 92.6259L12.1 92.4795L12 92.4795ZM12.0372 91.8367L1.14717 87.4767L1.07283 87.6624L11.9628 92.0224L12.0372 91.8367ZM1.01658 87.5339L0.806577 88.0839L0.993421 88.1552L1.20342 87.6052L1.01658 87.5339ZM0.863465 88.2126L6.44346 90.4026L6.51653 90.2164L0.936534 88.0264L0.863465 88.2126ZM6.43515 90.2202L0.85515 93.0202L0.944849 93.1989L6.52485 90.3989L6.43515 90.2202ZM0.814416 93.1613L1.36442 94.0713L1.53558 93.9678L0.985582 93.0578L0.814416 93.1613ZM1.49506 94.1088L7.81506 90.9188L7.72494 90.7403L1.40494 93.9303L1.49506 94.1088ZM7.73366 90.9227L11.9637 92.5727L12.0363 92.3864L7.80634 90.7364L7.73366 90.9227ZM12.1 92.4795L12.1 91.9295L11.9 91.9295L11.9 92.4795L12.1 92.4795ZM6.56 82.646L6.46039 82.6549L6.46047 82.6557L6.56 82.646ZM1.25 84.006L1.15 84.006L1.15 84.106L1.25 84.106L1.25 84.006ZM0.899999 84.956L0.799999 84.956L0.799999 85.056L0.899999 85.056L0.899999 84.956ZM12 84.956L12 85.056L12.1 85.056L12.1 84.956L12 84.956ZM12 84.006L12.1 84.006L12.1 83.906L12 83.906L12 84.006ZM7.25 84.006L7.15161 84.0239L7.16654 84.106L7.25 84.106L7.25 84.006ZM7.2 83.676L7.29964 83.667L7.29926 83.6639L7.2 83.676ZM5.91 80.666L5.98321 80.5979L5.98139 80.596L5.91 80.666ZM3.23 79.636L3.2294 79.536L3.2292 79.536L3.23 79.636ZM6.46047 82.6557C6.47977 82.8535 6.47756 83.1876 6.46756 83.4763C6.46259 83.6198 6.45577 83.7501 6.44901 83.844C6.44561 83.8912 6.4423 83.9281 6.43938 83.9525C6.43786 83.9652 6.43672 83.9722 6.43613 83.9751C6.4357 83.9772 6.43623 83.9737 6.43835 83.9681C6.43917 83.9659 6.44244 83.9572 6.44954 83.9473C6.45318 83.9422 6.47895 83.906 6.53 83.906L6.53 84.106C6.58167 84.106 6.60808 84.0694 6.61238 84.0634C6.62012 84.0525 6.62407 84.0424 6.62557 84.0384C6.62905 84.0292 6.63099 84.0204 6.63201 84.0154C6.63434 84.0042 6.63627 83.9904 6.63796 83.9763C6.64144 83.9472 6.64501 83.9066 6.64849 83.8584C6.65548 83.7614 6.66241 83.6285 6.66744 83.4832C6.67744 83.1944 6.68023 82.8485 6.65953 82.6363L6.46047 82.6557ZM6.53 83.906L1.25 83.906L1.25 84.106L6.53 84.106L6.53 83.906ZM1.35 84.006L1.35 83.106L1.15 83.106L1.15 84.006L1.35 84.006ZM1.35 83.106C1.35 82.0803 1.6932 81.4177 2.17464 81.0098C2.65912 80.5993 3.29624 80.436 3.9 80.436L3.9 80.236C3.26376 80.236 2.57588 80.4077 2.04535 80.8572C1.5118 81.3093 1.15 82.0317 1.15 83.106L1.35 83.106ZM3.9 80.436C4.90209 80.436 5.52647 80.8576 5.90896 81.3429C6.29501 81.8327 6.43682 82.3909 6.46039 82.6549L6.6596 82.6371C6.63318 82.3411 6.47998 81.7443 6.06604 81.2191C5.64853 80.6894 4.96791 80.236 3.9 80.236L3.9 80.436ZM0.799999 81.926L0.799999 84.956L0.999999 84.956L0.999999 81.926L0.799999 81.926ZM0.899999 85.056L12 85.056L12 84.856L0.899999 84.856L0.899999 85.056ZM12.1 84.956L12.1 84.006L11.9 84.006L11.9 84.956L12.1 84.956ZM12 83.906L7.25 83.906L7.25 84.106L12 84.106L12 83.906ZM7.25 84.006C7.34839 83.9881 7.34839 83.9881 7.34839 83.9881C7.34839 83.9881 7.34839 83.9881 7.34839 83.9881C7.34838 83.9881 7.34838 83.9881 7.34838 83.9881C7.34838 83.9881 7.34837 83.988 7.34836 83.988C7.34835 83.9879 7.34832 83.9878 7.34828 83.9876C7.34821 83.9872 7.3481 83.9866 7.34796 83.9858C7.34767 83.9842 7.34725 83.9818 7.3467 83.9788C7.34561 83.9726 7.34403 83.9637 7.3421 83.9527C7.33824 83.9306 7.33299 83.9 7.32744 83.8661C7.31617 83.7972 7.30423 83.718 7.29959 83.667L7.10041 83.6851C7.10577 83.7441 7.11883 83.8298 7.13006 83.8984C7.13576 83.9332 7.14114 83.9645 7.14509 83.9871C7.14706 83.9985 7.14869 84.0076 7.14982 84.0139C7.15039 84.0171 7.15083 84.0196 7.15113 84.0213C7.15129 84.0221 7.1514 84.0228 7.15148 84.0232C7.15152 84.0234 7.15156 84.0236 7.15158 84.0237C7.15159 84.0238 7.1516 84.0238 7.1516 84.0238C7.1516 84.0239 7.15161 84.0239 7.15161 84.0239C7.15161 84.0239 7.15161 84.0239 7.15161 84.0239C7.15161 84.0239 7.15161 84.0239 7.25 84.006ZM7.29926 83.6639C7.17781 82.672 6.91915 81.9797 6.6539 81.4966C6.38852 81.0133 6.11808 80.7428 5.98319 80.5979L5.83681 80.7342C5.97192 80.8793 6.22647 81.1337 6.47859 81.5929C6.73085 82.0523 6.98219 82.72 7.10074 83.6882L7.29926 83.6639ZM5.91 80.666C5.98139 80.596 5.98136 80.596 5.98132 80.5959C5.98131 80.5959 5.98127 80.5959 5.98123 80.5958C5.98117 80.5958 5.98108 80.5957 5.98098 80.5956C5.98078 80.5954 5.98052 80.5951 5.98019 80.5948C5.97954 80.5941 5.97864 80.5932 5.9775 80.5921C5.9752 80.5898 5.97192 80.5866 5.96765 80.5824C5.95911 80.5742 5.94665 80.5624 5.93035 80.5475C5.89775 80.5177 5.84979 80.4757 5.78719 80.4256C5.66206 80.3254 5.47813 80.1925 5.24132 80.06C4.76782 79.7951 4.08085 79.5309 3.2294 79.536L3.2306 79.736C4.03915 79.7311 4.69217 79.9819 5.14367 80.2345C5.36937 80.3608 5.54419 80.4872 5.66218 80.5817C5.72115 80.629 5.76584 80.6681 5.79551 80.6952C5.81034 80.7087 5.82141 80.7193 5.82863 80.7262C5.83224 80.7297 5.83488 80.7323 5.83655 80.734C5.83738 80.7348 5.83797 80.7354 5.83831 80.7357C5.83848 80.7359 5.83859 80.736 5.83864 80.7361C5.83867 80.7361 5.83868 80.7361 5.83867 80.7361C5.83867 80.7361 5.83865 80.7361 5.83865 80.7361C5.83863 80.7361 5.8386 80.736 5.91 80.666ZM3.2292 79.536C1.93051 79.5464 0.799999 80.5151 0.799999 81.926L0.999999 81.926C0.999999 80.637 2.02948 79.7456 3.2308 79.736L3.2292 79.536ZM11.56 76.5158L11.56 76.6158L11.66 76.6158L11.66 76.5158L11.56 76.5158ZM6.79 76.5158L6.69 76.5158L6.69 76.6158L6.79 76.6158L6.79 76.5158ZM6.79 72.6058L6.89 72.6058L6.89 72.5058L6.79 72.5058L6.79 72.6058ZM6.36 72.6058L6.36 72.5058L6.26 72.5058L6.26 72.6058L6.36 72.6058ZM6.36 76.5158L6.36 76.6158L6.46 76.6158L6.46 76.5158L6.36 76.5158ZM1.36 76.5158L1.26 76.5158L1.26 76.6158L1.36 76.6158L1.36 76.5158ZM1.36 71.2158L1.46 71.2158L1.46 71.1158L1.36 71.1158L1.36 71.2158ZM0.899998 71.2158L0.899998 71.1158L0.799999 71.1158L0.799999 71.2158L0.899998 71.2158ZM0.899999 77.5958L0.799999 77.5958L0.799999 77.6958L0.899999 77.6958L0.899999 77.5958ZM11.33 77.5958L11.33 77.6958L11.3856 77.6958L11.415 77.6485L11.33 77.5958ZM12 76.5158L12.085 76.5685L12.1 76.5443L12.1 76.5158L12 76.5158ZM12 71.1758L12.1 71.1758L12.1 71.0758L12 71.0758L12 71.1758ZM11.56 71.1758L11.56 71.0758L11.46 71.0758L11.46 71.1758L11.56 71.1758ZM11.56 76.4158L6.79 76.4158L6.79 76.6158L11.56 76.6158L11.56 76.4158ZM6.89 76.5158L6.89 72.6058L6.69 72.6058L6.69 76.5158L6.89 76.5158ZM6.79 72.5058L6.36 72.5058L6.36 72.7058L6.79 72.7058L6.79 72.5058ZM6.26 72.6058L6.26 76.5158L6.46 76.5158L6.46 72.6058L6.26 72.6058ZM6.36 76.4158L1.36 76.4158L1.36 76.6158L6.36 76.6158L6.36 76.4158ZM1.46 76.5158L1.46 71.2158L1.26 71.2158L1.26 76.5158L1.46 76.5158ZM1.36 71.1158L0.899998 71.1158L0.899998 71.3158L1.36 71.3158L1.36 71.1158ZM0.799999 71.2158L0.799999 77.5958L0.999999 77.5958L0.999998 71.2158L0.799999 71.2158ZM0.899999 77.6958L11.33 77.6958L11.33 77.4958L0.899999 77.4958L0.899999 77.6958ZM11.415 77.6485L12.085 76.5685L11.915 76.4631L11.245 77.5431L11.415 77.6485ZM12.1 76.5158L12.1 71.1758L11.9 71.1758L11.9 76.5158L12.1 76.5158ZM12 71.0758L11.56 71.0758L11.56 71.2758L12 71.2758L12 71.0758ZM11.46 71.1758L11.46 76.5158L11.66 76.5158L11.66 71.1758L11.46 71.1758ZM5.96 59.6958L5.96 59.5958L5.86 59.5958L5.86 59.6958L5.96 59.6958ZM5.96 60.3158L5.96 60.4158L6.06 60.4158L6.06 60.3158L5.96 60.3158ZM4.55 60.3158L4.55 60.2158L4.21972 60.2158L4.49453 60.399L4.55 60.3158ZM5.96 61.2558L6.06 61.2558L6.06 61.2023L6.01547 61.1726L5.96 61.2558ZM4.14 64.5158L4.15537 64.6146L4.15634 64.6144L4.14 64.5158ZM1.28 61.7058L1.38 61.7058L1.38 61.378L1.19703 61.65L1.28 61.7058ZM0.909997 62.8658L0.809984 62.8658L0.810011 62.8674L0.909997 62.8658ZM5.83 63.9358L5.92151 63.8955L5.85209 63.7379L5.74962 63.8763L5.83 63.9358ZM8.51 65.9058L8.49521 66.0047L8.49525 66.0047L8.51 65.9058ZM10.68 61.2658L10.68 61.1658L10.6421 61.3583L10.68 61.2658ZM12.01 61.2658L12.01 61.3658L12.11 61.3658L12.11 61.2658L12.01 61.2658ZM12.01 60.3158L12.11 60.3158L12.11 60.2158L12.01 60.2158L12.01 60.3158ZM6.3 60.3158L6.2 60.3158L6.2 60.4158L6.3 60.4158L6.3 60.3158ZM6.3 59.6958L6.4 59.6958L6.4 59.5958L6.3 59.5958L6.3 59.6958ZM11.65 63.7158L11.75 63.7177L11.75 63.7175L11.65 63.7158ZM6.3 62.2158L6.4 62.2158L6.39999 62.2147L6.3 62.2158ZM6.29 61.2558L6.38999 61.2547L6.19 61.2558L6.29 61.2558ZM5.86 59.6958L5.86 60.3158L6.06 60.3158L6.06 59.6958L5.86 59.6958ZM5.96 60.2158L4.55 60.2158L4.55 60.4158L5.96 60.4158L5.96 60.2158ZM4.49453 60.399L5.90453 61.339L6.01547 61.1726L4.60547 60.2326L4.49453 60.399ZM5.86 61.2558L5.86 62.2158L6.06 62.2158L6.06 61.2558L5.86 61.2558ZM5.86 
  62.2158C5.86 62.5924 5.8271 63.0759 5.59604 63.4977C5.36852 63.9131 4.94152 64.2816 4.12365 64.4171L4.15634 64.6144C5.02847 64.4699 5.51147 64.0685 5.77145 63.5938C6.0279 63.1256 6.06 62.5992 6.06 62.2158L5.86 62.2158ZM4.12463 64.417C3.69133 64.4844 3.00301 64.4448 2.42671 64.073C1.85746 63.7057 1.38 63.0028 1.38 61.7058L1.18 61.7058C1.18 63.0587 1.68253 63.8309 2.31828 64.2411C2.94699 64.6467 3.68867 64.6872 4.15537 64.6146L4.12463 64.417ZM1.28 61.7058C1.19703 61.65 1.19701 61.65 1.19699 61.65C1.19699 61.65 1.19697 61.6501 1.19695 61.6501C1.19692 61.6501 1.19689 61.6502 1.19685 61.6502C1.19676 61.6504 1.19666 61.6505 1.19653 61.6507C1.19628 61.6511 1.19594 61.6516 1.19551 61.6522C1.19466 61.6535 1.19346 61.6553 1.19195 61.6577C1.18893 61.6623 1.18463 61.6691 1.17924 61.6777C1.16846 61.695 1.1533 61.72 1.13522 61.7519C1.09911 61.8155 1.05116 61.9065 1.00322 62.0173C0.907874 62.2376 0.809997 62.5419 0.809997 62.8658L1.01 62.8658C1.01 62.5797 1.09712 62.3039 1.18677 62.0967C1.23134 61.9938 1.27589 61.9092 1.30915 61.8506C1.32576 61.8214 1.33951 61.7987 1.34896 61.7835C1.35369 61.7759 1.35734 61.7702 1.35974 61.7665C1.36093 61.7647 1.36182 61.7633 1.36236 61.7625C1.36264 61.7621 1.36283 61.7618 1.36293 61.7617C1.36298 61.7616 1.36301 61.7615 1.36302 61.7615C1.36302 61.7615 1.36302 61.7615 1.36301 61.7615C1.36301 61.7615 1.363 61.7616 1.36299 61.7616C1.36298 61.7616 1.36297 61.7616 1.28 61.7058ZM0.810011 62.8674C0.830786 64.1451 1.78871 65.3058 3.25 65.3058L3.25 65.1058C1.91128 65.1058 1.02921 64.0465 1.00998 62.8642L0.810011 62.8674ZM3.25 65.3058C4.09686 65.3058 4.76194 64.9777 5.21351 64.6519C5.43938 64.4889 5.61269 64.3259 5.7298 64.2033C5.7884 64.142 5.83304 64.0906 5.86326 64.0543C5.87838 64.0362 5.8899 64.0218 5.89777 64.0117C5.9017 64.0067 5.90473 64.0027 5.90683 64C5.90788 63.9986 5.9087 63.9975 5.90929 63.9967C5.90959 63.9963 5.90983 63.996 5.91001 63.9958C5.9101 63.9956 5.91017 63.9955 5.91024 63.9955C5.91027 63.9954 5.9103 63.9954 5.91032 63.9954C5.91035 63.9953 5.91038 63.9953 5.83 63.9358C5.74962 63.8763 5.74964 63.8763 5.74966 63.8762C5.74966 63.8762 5.74967 63.8762 5.74967 63.8762C5.74968 63.8762 5.74967 63.8762 5.74964 63.8763C5.74959 63.8763 5.74949 63.8765 5.74933 63.8767C5.749 63.8771 5.74845 63.8778 5.74767 63.8789C5.74612 63.8809 5.74366 63.8841 5.74031 63.8884C5.73361 63.8969 5.72334 63.9098 5.70955 63.9264C5.68196 63.9595 5.64035 64.0074 5.58519 64.0651C5.4748 64.1807 5.31061 64.3352 5.09648 64.4897C4.66806 64.7988 4.04313 65.1058 3.25 65.1058L3.25 65.3058ZM5.83 63.9358C5.73848 63.9761 5.7385 63.9761 5.73853 63.9762C5.73854 63.9762 5.73856 63.9763 5.73859 63.9763C5.73863 63.9764 5.73869 63.9766 5.73876 63.9767C5.7389 63.977 5.73909 63.9774 5.73932 63.978C5.73978 63.979 5.74042 63.9804 5.74126 63.9822C5.74292 63.9859 5.74533 63.9911 5.7485 63.9977C5.75483 64.011 5.76421 64.0302 5.77674 64.0544C5.80179 64.1029 5.83949 64.1719 5.89076 64.2552C5.99324 64.4218 6.15032 64.6465 6.36953 64.8804C6.80813 65.3485 7.49742 65.8555 8.49521 66.0047L8.52478 65.8069C7.58257 65.666 6.93187 65.1881 6.51547 64.7437C6.30717 64.5214 6.158 64.3079 6.06111 64.1504C6.01269 64.0717 5.97742 64.0071 5.95443 63.9626C5.94294 63.9404 5.93452 63.9232 5.92907 63.9117C5.92634 63.906 5.92436 63.9017 5.9231 63.899C5.92248 63.8976 5.92203 63.8966 5.92177 63.896C5.92163 63.8957 5.92155 63.8955 5.92151 63.8955C5.92148 63.8954 5.92147 63.8954 5.92148 63.8954C5.92148 63.8954 5.92149 63.8954 5.92149 63.8954C5.9215 63.8954 5.92151 63.8955 5.83 63.9358ZM8.49525 66.0047C9.32339 66.1281 10.2185 65.9435 10.9088 65.488C11.6016 65.0309 12.09 64.2989 12.09 63.3358L11.89 63.3358C11.89 64.2226 11.4434 64.8957 10.7987 65.3211C10.1515 65.7481 9.30661 65.9234 8.52474 65.8069L8.49525 66.0047ZM12.09 63.3358C12.09 62.8966 11.9189 62.428 11.6665 62.0366C11.4147 61.646 11.073 61.3185 10.7179 61.1732L10.6421 61.3583C10.947 61.4831 11.2603 61.7756 11.4985 62.145C11.7361 62.5135 11.89 62.9449 11.89 63.3358L12.09 63.3358ZM10.68 61.3658L12.01 61.3658L12.01 61.1658L10.68 61.1658L10.68 61.3658ZM12.11 61.2658L12.11 60.3158L11.91 60.3158L11.91 61.2658L12.11 61.2658ZM12.01 60.2158L6.3 60.2158L6.3 60.4158L12.01 60.4158L12.01 60.2158ZM6.4 60.3158L6.4 59.6958L6.2 59.6958L6.2 60.3158L6.4 60.3158ZM6.3 59.5958L5.96 59.5958L5.96 59.7958L6.3 59.7958L6.3 59.5958ZM11.55 63.7138C11.5409 64.1782 11.2726 64.5126 10.8691 64.7358C10.463 64.9603 9.92845 65.0658 9.42 65.0658L9.42 65.2658C9.95155 65.2658 10.522 65.1562 10.9659 64.9108C11.4123 64.6639 11.7391 64.2733 11.75 63.7177L11.55 63.7138ZM9.42 65.0658C8.90099 65.0658 8.142 64.9097 7.51578 64.4749C6.89452 64.0435 6.4 63.3357 6.4 62.2158L6.2 62.2158C6.2 63.4058 6.73048 64.1731 7.40171 64.6392C8.06799 65.1018 8.86901 65.2658 9.42 65.2658L9.42 65.0658ZM6.39999 62.2147L6.38999 61.2547L6.19 61.2568L6.2 62.2168L6.39999 62.2147ZM6.19 61.2558C6.19923 61.2978 6.23918 61.3419 6.25466 61.3494C6.26154 61.3517 6.27231 61.3543 6.27614 61.3549C6.28227 61.3557 6.28726 61.3559 6.28846 61.3559C6.2921 61.356 6.29543 61.3559 6.29709 61.3558C6.30105 61.3557 6.30602 61.3554 6.31119 61.3552C6.32178 61.3546 6.33746 61.3536 6.35695 61.3523C6.39635 61.3499 6.45395 61.3464 6.52723 61.3428C6.67382 61.3357 6.8833 61.3282 7.13456 61.3281C7.63762 61.328 8.30582 61.3575 8.97093 61.4779C9.63767 61.5986 10.2919 61.8091 10.7743 62.1646C11.252 62.5166 11.5619 63.0107 11.55 63.7141L11.75 63.7175C11.7631 62.9409 11.4155 62.3887 10.8929 62.0036C10.375 61.6218 9.68608 61.4042 9.00656 61.2811C8.32542 61.1578 7.64425 61.128 7.1345 61.1281C6.87935 61.1282 6.66656 61.1358 6.51749 61.1431C6.44294 61.1467 6.38436 61.1503 6.34454 61.1527C6.32441 61.154 6.30972 61.1549 6.29984 61.1555C6.29477 61.1558 6.29199 61.1559 6.29075 61.1559C6.2898 61.156 6.29118 61.1559 6.29351 61.156C6.29405 61.156 6.29855 61.156 6.30435 61.1569C6.30801 61.1575 6.31866 61.16 6.32546 61.1623C6.34085 61.1697 6.38077 61.2138 6.39 61.2558L6.19 61.2558ZM11.11 47.9321L11.016 47.9662L11.016 47.9662L11.11 47.9321ZM1.65 51.6621L1.7427 51.6246L1.74244 51.624L1.65 51.6621ZM3.32 47.9021L3.37489 47.9857L3.42 47.9561L3.42 47.9021L3.32 47.9021ZM3.32 46.6521L3.42 46.6521L3.42 46.4953L3.27781 46.5614L3.32 46.6521ZM0.899998 50.6221L0.999781 50.6122L0.998502 50.6049L0.899998 50.6221ZM8.68 46.4821L8.68567 46.3823L8.58 46.3763L8.58 46.4821L8.68 46.4821ZM8.68 47.2021L8.58 47.2021L8.58 47.3079L8.68558 47.302L8.68 47.2021ZM11.016 47.9662C11.3597 48.9137 11.0543 49.8187 10.3586 50.6029C9.66136 51.389 8.57932 52.0431 7.40333 52.4706C6.22759 52.8981 4.96903 53.095 3.92405 52.9768C2.87749 52.8585 2.06802 52.4285 1.74269 51.6246L1.5573 51.6996C1.92197 52.6007 2.82001 53.0532 3.90157 53.1755C4.98472 53.298 6.2749 53.0937 7.47166 52.6586C8.66818 52.2236 9.78239 51.554 10.5082 50.7357C11.2357 49.9155 11.5803 48.9355 11.204 47.898L11.016 47.9662ZM1.74244 51.624C1.43066 50.8681 1.40512 49.2793 3.37489 47.9857L3.2651 47.8185C1.21488 49.1649 1.20933 50.8561 1.55755 51.7002L1.74244 51.624ZM3.42 47.9021L3.42 46.6521L3.22 46.6521L3.22 47.9021L3.42 47.9021ZM3.27781 46.5614C1.80948 47.2446 1.18652 48.2613 0.934135 49.1111C0.8084 49.5345 0.775051 49.9148 0.773125 50.1895C0.772162 50.327 0.779062 50.4383 0.786289 50.5158C0.789904 50.5545 0.793603 50.5848 0.796448 50.6057C0.797871 50.6162 0.799081 50.6243 0.79996 50.6299C0.8004 50.6328 0.800758 50.635 0.801018 50.6365C0.801148 50.6373 0.801254 50.6379 0.801334 50.6384C0.801374 50.6386 0.801407 50.6388 0.801434 50.639C0.801447 50.6391 0.801462 50.6392 0.801468 50.6392C0.801482 50.6393 0.801493 50.6393 0.899998 50.6221C0.998502 50.6049 0.99851 50.6049 0.998516 50.605C0.998516 50.605 0.99852 50.605 0.99852 50.605C0.998519 50.605 0.998511 50.6049 0.998497 50.6048C0.998468 50.6047 0.998412 50.6043 0.998332 50.6039C0.998173 50.6029 0.997914 50.6013 0.997571 50.5991C0.996886 50.5947 0.995864 50.5879 0.994621 50.5788C0.992135 50.5605 0.988763 50.533 0.985425 50.4972C0.978745 50.4256 0.972209 50.321 0.97312 50.1909C0.974944 49.9307 1.00659 49.5697 1.12586 49.1681C1.36347 48.368 1.95051 47.3996 3.36218 46.7428L3.27781 46.5614ZM0.899998 50.6221C0.800488 50.632 0.800495 50.6321 0.800505 50.6322C0.800509 50.6322 0.80052 50.6323 0.800529 50.6324C0.800548 50.6326 0.800573 50.6328 0.800603 50.6331C0.800662 50.6337 0.800744 50.6344 0.800849 50.6354C0.80106 50.6373 0.801366 50.64 0.801782 50.6434C0.802613 50.6503 0.803884 50.6601 0.805711 50.6726C0.809365 50.6978 0.815248 50.7341 0.824298 50.7799C0.842392 50.8714 0.873181 51.0012 0.924216 51.1565C1.02624 51.4669 1.20958 51.8804 1.53517 52.294C2.18958 53.1252 3.4072 53.9421 5.65 53.9421L5.65 53.7421C3.4628 53.7421 2.30541 52.949 1.69232 52.1703C1.38417 51.7788 1.21063 51.3874 1.11422 51.094C1.06603 50.9474 1.03721 50.8256 1.0205 50.7411C1.01215 50.6988 1.00683 50.6659 1.00363 50.6439C1.00204 50.6329 1.00097 50.6246 1.00032 50.6193C0.999995 50.6166 0.999774 50.6147 0.999644 50.6135C0.999578 50.6129 0.999535 50.6125 0.999513 50.6123C0.999502 50.6122 0.999496 50.6121 0.999496 50.6121C0.999495 50.6121 0.999498 50.6121 0.999498 50.6121C0.999502 50.6122 0.999507 50.6122 0.899998 50.6221ZM5.65 53.9421C10.1041 53.9421 12.1 51.1978 12.1 49.1621L11.9 49.1621C11.9 51.0664 10.0159 53.7421 5.65 53.7421L5.65 53.9421ZM12.1 49.1621C12.1 48.6164 11.9232 47.9573 11.4021 47.4153C10.8803 46.8726 10.0239 46.4583 8.68567 46.3823L8.67432 46.5819C9.97608 46.6559 10.7797 47.0566 11.2579 47.5539C11.7367 48.0519 11.9 48.6578 11.9 49.1621L12.1 49.1621ZM8.58 46.4821L8.58 47.2021L8.78 47.2021L8.78 46.4821L8.58 46.4821ZM8.68558 47.302C9.40027 47.262 9.93104 47.2732 10.3117 47.375C10.6844 47.4746 10.9043 47.658 11.016 47.9662L11.204 47.898C11.0657 47.5162 10.7856 47.2946 10.3633 47.1818C9.94895 47.071 9.38973 47.0622 8.67441 47.1023L8.68558 47.302ZM11.05 38.9483L11.1288 38.8867L11.1285 38.8864L11.05 38.9483ZM1.43 42.3583L1.52469 42.3261L1.52462 42.3259L1.43 42.3583ZM3.66 38.6683L3.70608 38.757L3.70696 38.7566L3.66 38.6683ZM2.85 37.7083L2.8006 37.6213L2.80052 37.6214L2.85 37.7083ZM0.759997 40.8183L0.858892 40.8331L0.859996 40.8257L0.859996 40.8183L0.759997 40.8183ZM4.66 
  44.8583L4.67739 44.7598L4.67727 44.7598L4.66 44.8583ZM12.11 41.2283L12.0106 41.2176L12.0105 41.2182L12.11 41.2283ZM11.75 39.3583L11.6601 39.4023L11.6624 39.4065L11.75 39.3583ZM9.23 37.2983L9.26347 37.204L9.2629 37.2038L9.23 37.2983ZM10.9712 39.0099C11.3208 39.4571 11.455 39.9008 11.4285 40.3277C11.4019 40.7564 11.2123 41.1791 10.8944 41.5804C10.257 42.385 9.1182 43.0843 7.83404 43.5403C6.55108 43.9958 5.13833 44.203 3.96242 44.0369C2.78662 43.8709 1.86782 43.3365 1.52469 42.3261L1.33531 42.3904C1.71217 43.5001 2.71837 44.0632 3.93445 44.235C5.15042 44.4067 6.59641 44.192 7.90096 43.7288C9.2043 43.266 10.3817 42.5497 11.0512 41.7046C11.3867 41.281 11.5983 40.8204 11.6281 40.3401C11.6581 39.858 11.5042 39.367 11.1288 38.8867L10.9712 39.0099ZM1.52462 42.3259C1.21169 41.4109 1.61249 40.5932 2.17727 39.9572C2.74154 39.3218 3.45278 38.8885 3.70608 38.757L3.61392 38.5795C3.34721 38.718 2.61345 39.1648 2.02772 39.8244C1.4425 40.4834 0.988302 41.3757 1.33538 42.3906L1.52462 42.3259ZM3.70696 38.7566C4.93804 38.1016 6.49695 37.8313 7.88286 37.8957C8.57524 37.9278 9.22083 38.0433 9.75782 38.2338C10.2961 38.4247 10.7175 38.688 10.9715 39.0102L11.1285 38.8864C10.8425 38.5236 10.3826 38.2431 9.82467 38.0453C9.26541 37.847 8.59976 37.7287 7.89213 37.6959C6.47804 37.6302 4.88196 37.9049 3.61303 38.58L3.70696 38.7566ZM2.80052 37.6214C1.73372 38.2288 1.19748 39.0248 0.928901 39.6712C0.794842 39.9938 0.727664 40.2786 0.693978 40.4835C0.677129 40.5859 0.668636 40.6685 0.664355 40.726C0.662213 40.7548 0.661124 40.7773 0.66057 40.7929C0.660293 40.8007 0.660149 40.8067 0.660075 40.811C0.660038 40.8131 0.660019 40.8148 0.660008 40.816C0.660003 40.8166 0.66 40.8171 0.659999 40.8175C0.659998 40.8177 0.659997 40.8179 0.659997 40.818C0.659997 40.818 0.659997 40.8181 0.659997 40.8182C0.659997 40.8182 0.659997 40.8183 0.759997 40.8183C0.859996 40.8183 0.859996 40.8183 0.859996 40.8184C0.859996 40.8184 0.859996 40.8184 0.859996 40.8184C0.859996 40.8184 0.859996 40.8184 0.859997 40.8184C0.859997 40.8183 0.859998 40.8181 0.860001 40.8177C0.860006 40.8171 0.860018 40.816 0.860045 40.8145C0.860099 40.8114 0.860211 40.8065 0.860444 40.8C0.86091 40.7869 0.861862 40.7669 0.863803 40.7409C0.867685 40.6887 0.875521 40.612 0.891328 40.5159C0.922954 40.3236 0.986401 40.054 1.11359 39.7479C1.36752 39.1368 1.87627 38.3778 2.89948 37.7952L2.80052 37.6214ZM0.759997 40.8183C0.661101 40.8035 0.661089 40.8035 0.661076 40.8036C0.661069 40.8037 0.661054 40.8038 0.66104 40.8039C0.661012 40.8041 0.660978 40.8043 0.660936 40.8046C0.660854 40.8052 0.660744 40.8059 0.66061 40.8069C0.660341 40.8088 0.659974 40.8115 0.659531 40.815C0.658643 40.822 0.657446 40.832 0.656105 40.8448C0.653423 40.8705 0.650164 40.9077 0.647657 40.955C0.642643 41.0495 0.640621 41.1844 0.65228 41.3483C0.675581 41.676 0.753658 42.1213 0.973122 42.5918C1.41479 43.5386 2.41951 44.5668 4.64272 44.9568L4.67727 44.7598C2.51049 44.3797 1.56521 43.388 1.15437 42.5073C0.947585 42.064 0.873787 41.6437 0.851776 41.3342C0.840778 41.1795 0.842741 41.0529 0.847376 40.9656C0.849692 40.9219 0.852673 40.8881 0.855026 40.8656C0.856202 40.8543 0.857221 40.8458 0.857919 40.8404C0.858269 40.8376 0.858538 40.8356 0.858707 40.8344C0.858791 40.8338 0.858851 40.8334 0.858883 40.8332C0.858898 40.8331 0.858907 40.833 0.858909 40.833C0.85891 40.833 0.858906 40.833 0.858906 40.833C0.8589 40.833 0.858892 40.8331 0.759997 40.8183ZM4.64261 44.9568C6.84647 45.346 8.68852 44.8764 10.0042 44.0814C11.3145 43.2896 12.1151 42.1661 12.2095 41.2384L12.0105 41.2182C11.9248 42.0605 11.1805 43.1369 9.90078 43.9102C8.62647 44.6802 6.83352 45.1406 4.67739 44.7598L4.64261 44.9568ZM12.2094 41.2389C12.2712 40.6622 12.1791 39.931 11.8376 39.3101L11.6624 39.4065C11.9809 39.9855 12.0688 40.6743 12.0106 41.2176L12.2094 41.2389ZM11.75 39.3583C11.8398 39.3143 11.8398 39.3143 11.8398 39.3142C11.8398 39.3142 11.8397 39.3142 11.8397 39.3141C11.8397 39.314 11.8396 39.3139 11.8395 39.3138C11.8394 39.3135 11.8392 39.3131 11.839 39.3127C11.8386 39.3118 11.838 39.3106 11.8372 39.309C11.8356 39.3059 11.8333 39.3015 11.8304 39.2958C11.8244 39.2845 11.8156 39.2681 11.8039 39.2473C11.7804 39.2057 11.7452 39.1462 11.6972 39.073C11.6014 38.9267 11.4546 38.7256 11.2497 38.5041C10.8398 38.061 10.1967 37.5355 9.26347 37.204L9.19653 37.3925C10.0933 37.711 10.7102 38.2155 11.1028 38.6399C11.2992 38.8522 11.4393 39.0442 11.53 39.1826C11.5753 39.2518 11.6082 39.3075 11.6297 39.3455C11.6404 39.3645 11.6482 39.3791 11.6532 39.3887C11.6558 39.3936 11.6576 39.3971 11.6588 39.3994C11.6593 39.4005 11.6597 39.4013 11.66 39.4018C11.6601 39.4021 11.6602 39.4022 11.6602 39.4023C11.6602 39.4023 11.6602 39.4023 11.6602 39.4023C11.6602 39.4023 11.6602 39.4023 11.6602 39.4023C11.6602 39.4023 11.6602 39.4022 11.75 39.3583ZM9.2629 37.2038C6.59279 36.2734 4.14289 36.8587 2.8006 37.6213L2.8994 37.7952C4.1971 37.0579 6.5872 36.4832 9.19709 37.3927L9.2629 37.2038ZM11.5 33.4815L11.5 33.5815L11.6 33.5815L11.6 33.4815L11.5 33.4815ZM0.899997 33.4815L0.899997 33.3815L0.799997 33.3815L0.799997 33.4815L0.899997 33.4815ZM0.899997 34.5115L0.799997 34.5115L0.799997 34.6115L0.899997 34.6115L0.899997 34.5115ZM12 34.5115L12 34.6115L12.1 34.6115L12.1 34.5115L12 34.5115ZM12 29.0615L12.1 29.0615L12.1 28.9615L12 28.9615L12 29.0615ZM11.5 29.0615L11.5 28.9615L11.4 28.9615L11.4 29.0615L11.5 29.0615ZM11.5 33.3815L0.899997 33.3815L0.899997 33.5815L11.5 33.5815L11.5 33.3815ZM0.799997 33.4815L0.799997 34.5115L0.999997 34.5115L0.999997 33.4815L0.799997 33.4815ZM0.899997 34.6115L12 34.6115L12 34.4115L0.899997 34.4115L0.899997 34.6115ZM12.1 34.5115L12.1 29.0615L11.9 29.0615L11.9 34.5115L12.1 34.5115ZM12 28.9615L11.5 28.9615L11.5 29.1615L12 29.1615L12 28.9615ZM11.4 29.0615L11.4 33.4815L11.6 33.4815L11.6 29.0615L11.4 29.0615ZM11.05 21.4678L11.1288 21.4062L11.1285 21.4059L11.05 21.4678ZM1.43 24.8778L1.52468 24.8457L1.52462 24.8455L1.43 24.8778ZM3.66 21.1878L3.70608 21.2766L3.70696 21.2761L3.66 21.1878ZM2.85 20.2278L2.8006 20.1409L2.80052 20.1409L2.85 20.2278ZM0.759996 23.3378L0.858892 23.3526L0.859996 23.3453L0.859996 23.3378L0.759996 23.3378ZM4.66 27.3778L4.67739 27.2793L4.67727 27.2793L4.66 27.3778ZM12.11 23.7478L12.0106 23.7372L12.0105 23.7377L12.11 23.7478ZM11.75 21.8778L11.6601 21.9218L11.6624 21.926L11.75 21.8778ZM9.23 19.8178L9.26347 19.7236L9.2629 19.7234L9.23 19.8178ZM10.9712 21.5294C11.3208 21.9766 11.455 22.4203 11.4285 22.8472C11.4019 23.2759 11.2123 23.6986 10.8944 24.0999C10.257 24.9045 9.1182 25.6039 7.83404 26.0598C6.55108 26.5154 5.13832 26.7225 3.96242 26.5564C2.78662 26.3904 1.86782 25.856 1.52468 24.8457L1.33531 24.91C1.71217 26.0196 2.71837 26.5827 3.93445 26.7545C5.15042 26.9262 6.59641 26.7115 7.90096 26.2483C9.20429 25.7855 10.3817 25.0692 11.0512 24.2241C11.3867 23.8006 11.5983 23.3399 11.6281 22.8596C11.6581 22.3775 11.5042 21.8865 11.1288 21.4062L10.9712 21.5294ZM1.52462 24.8455C1.21169 23.9304 1.61249 23.1127 2.17727 22.4767C2.74154 21.8413 3.45278 21.4081 3.70608 21.2766L3.61391 21.0991C3.34721 21.2375 2.61345 21.6843 2.02772 22.3439C1.4425 23.0029 0.988301 23.8952 1.33538 24.9102L1.52462 24.8455ZM3.70696 21.2761C4.93804 20.6212 6.49695 20.3509 7.88286 20.4152C8.57524 20.4473 9.22083 20.5629 9.75782 20.7533C10.2961 20.9442 10.7175 21.2075 10.9715 21.5297L11.1285 21.4059C10.8425 21.0431 10.3826 20.7627 9.82467 20.5648C9.26541 20.3665 8.59976 20.2483 7.89213 20.2154C6.47804 20.1498 4.88196 20.4245 3.61303 21.0995L3.70696 21.2761ZM2.80052 20.1409C1.73372 20.7483 1.19748 21.5443 0.9289 22.1907C0.794842 22.5133 0.727664 22.7981 0.693977 23.003C0.677128 23.1055 0.668635 23.1881 0.664354 23.2456C0.662213 23.2743 0.661123 23.2968 0.660569 23.3124C0.660292 23.3202 0.660149 23.3263 0.660075 23.3305C0.660038 23.3327 0.660018 23.3343 0.660008 23.3356C0.660002 23.3362 0.659999 23.3367 0.659998 23.337C0.659997 23.3372 0.659996 23.3374 0.659996 23.3375C0.659996 23.3376 0.659996 23.3377 0.659996 23.3377C0.659996 23.3378 0.659996 23.3378 0.759996 23.3378C0.859996 23.3378 0.859996 23.3379 0.859996 23.3379C0.859996 23.3379 0.859996 23.3379 0.859996 23.3379C0.859996 23.338 0.859996 23.3379 0.859996 23.3379C0.859996 23.3378 0.859997 23.3376 0.86 23.3373C0.860005 23.3366 0.860018 23.3355 0.860045 23.334C0.860098 23.3309 0.86021 23.3261 0.860443 23.3195C0.860909 23.3064 0.861861 23.2865 0.863802 23.2604C0.867684 23.2083 0.87552 23.1316 0.891327 23.0354C0.922953 22.8431 0.9864 22.5735 1.11359 22.2674C1.36751 21.6563 1.87627 20.8973 2.89948 20.3147L2.80052 20.1409ZM0.759996 23.3378C0.6611 23.323 0.661088 23.3231 0.661075 23.3232C0.661068 23.3232 0.661053 23.3233 0.661039 23.3234C0.661012 23.3236 0.660977 23.3238 0.660935 23.3241C0.660853 23.3247 0.660743 23.3255 0.660609 23.3264C0.66034 23.3284 0.659974 23.3311 0.65953 23.3345C0.658642 23.3415 0.657445 23.3515 0.656104 23.3643C0.653422 23.3901 0.650164 23.4273 0.647656 23.4745C0.642642 23.569 0.64062 23.7039 0.652279 23.8679C0.67558 24.1955 0.753657 24.6409 0.973121 25.1113C1.41479 26.0581 2.41951 27.0864 4.64272 27.4763L4.67727 27.2793C2.51049 26.8993 1.5652 25.9075 1.15437 25.0268C0.947584 24.5835 0.873787 24.1632 0.851775 23.8537C0.840778 23.699 0.84274 23.5725 0.847375 23.4851C0.849691 23.4415 0.852673 23.4077 0.855025 23.3851C0.856202 23.3738 0.85722 23.3654 0.857919 23.3599C0.858268 23.3571 0.858537 23.3552 0.858706 23.3539C0.85879 23.3533 0.85885 23.3529 0.858882 23.3527C0.858898 23.3526 0.858907 23.3525 0.858908 23.3525C0.858909 23.3525 0.858905 23.3525 0.858906 23.3525C0.858899 23.3526 0.858892 23.3526 0.759996 23.3378ZM4.6426 27.4763C6.84647 27.8655 8.68852 27.3959 10.0042 26.6009C11.3145 25.8092 12.1151 24.6856 12.2095 23.7579L12.0105 23.7377C11.9248 24.58 11.1805 25.6565 9.90078 26.4297C8.62647 27.1997 6.83352 27.6601 4.67739 27.2793L4.6426 27.4763ZM12.2094 23.7585C12.2712 23.1818 12.1791 22.4505 11.8376 21.8296L11.6624 21.926C11.9809 22.5051 12.0688 23.1939 12.0106 23.7372L12.2094 23.7585ZM11.75 21.8778C11.8398 21.8339 11.8398 21.8338 11.8398 21.8338C11.8398 21.8337 11.8397 21.8337 11.8397 21.8336C11.8397 21.8335 11.8396 21.8334 11.8395 
  21.8333C11.8394 21.833 11.8392 21.8327 11.839 21.8322C11.8386 21.8313 11.838 21.8301 11.8372 21.8286C11.8356 21.8255 11.8333 21.821 11.8304 21.8154C11.8244 21.804 11.8156 21.7877 11.8039 21.7669C11.7804 21.7252 11.7452 21.6657 11.6972 21.5925C11.6014 21.4462 11.4546 21.2452 11.2497 21.0237C10.8398 20.5806 10.1967 20.055 9.26347 19.7236L9.19653 19.912C10.0933 20.2306 10.7102 20.735 11.1028 21.1595C11.2992 21.3717 11.4393 21.5638 11.5299 21.7022C11.5753 21.7713 11.6082 21.827 11.6297 21.8651C11.6404 21.8841 11.6482 21.8986 11.6532 21.9083C11.6558 21.9131 11.6576 21.9167 11.6588 21.9189C11.6593 21.9201 11.6597 21.9209 11.66 21.9214C11.6601 21.9216 11.6602 21.9217 11.6602 21.9218C11.6602 21.9219 11.6602 21.9219 11.6602 21.9219C11.6602 21.9219 11.6602 21.9218 11.6602 21.9218C11.6602 21.9218 11.6602 21.9218 11.75 21.8778ZM9.2629 19.7234C6.59279 18.7929 4.14289 19.3782 2.8006 20.1409L2.8994 20.3148C4.1971 19.5774 6.5872 19.0027 9.19709 19.9122L9.2629 19.7234ZM0.899996 10.381L0.899996 10.281L0.799996 10.281L0.799996 10.381L0.899996 10.381ZM0.899996 11.041L0.799996 11.041L0.799996 11.141L0.899996 11.141L0.899996 11.041ZM11.33 12.741L11.4194 12.6963L11.4192 12.6958L11.33 12.741ZM11.54 13.881L11.64 13.8816L11.64 13.881L11.54 13.881ZM0.899996 16.511L0.899996 16.411L0.799996 16.411L0.799996 16.511L0.899996 16.511ZM0.899996 17.631L0.799996 17.631L0.799996 17.731L0.899996 17.731L0.899996 17.631ZM0.799996 10.381L0.799996 11.041L0.999996 11.041L0.999996 10.381L0.799996 10.381ZM0.899996 11.141L6.69 11.141L6.69 10.941L0.899996 10.941L0.899996 11.141ZM6.69 11.141C8.39797 11.141 9.44096 11.3679 10.1031 11.685C10.7598 11.9995 11.0481 12.4057 11.2408 12.7862L11.4192 12.6958C11.2119 12.2863 10.8952 11.8426 10.1894 11.5046C9.48903 11.1692 8.41202 10.941 6.69 10.941L6.69 11.141ZM11.2406 12.7857C11.3999 13.1045 11.44 13.4854 11.44 13.881L11.64 13.881C11.64 13.4767 11.6001 13.0576 11.4194 12.6963L11.2406 12.7857ZM11.44 13.8804C11.4352 14.6478 11.0862 15.2731 10.3047 15.7126C9.51558 16.1564 8.28348 16.411 6.52 16.411L6.52 16.611C8.29651 16.611 9.56941 16.3556 10.4028 15.8869C11.2438 15.4139 11.6348 14.7242 11.64 13.8816L11.44 13.8804ZM6.52 16.411L0.899996 16.411L0.899996 16.611L6.52 16.611L6.52 16.411ZM0.799996 16.511L0.799996 17.631L0.999996 17.631L0.999996 16.511L0.799996 16.511ZM0.899996 17.731L6.6 17.731L6.6 17.531L0.899996 17.531L0.899996 17.731ZM6.6 17.731C8.05319 17.731 9.44791 17.5789 10.4822 17.0617C11.0012 16.8022 11.4322 16.4495 11.7328 15.976C12.0337 15.5024 12.2 14.9143 12.2 14.191L12 14.191C12 14.8827 11.8413 15.4322 11.564 15.8688C11.2866 16.3057 10.8862 16.6361 10.3928 16.8828C9.40208 17.3782 8.04681 17.531 6.6 17.531L6.6 17.731ZM12.2 14.191C12.2 13.3273 12.0227 12.6453 11.7007 12.1098C11.3784 11.5738 10.9153 11.1917 10.3561 10.921C9.24316 10.3824 7.73925 10.281 6.17 10.281L6.17 10.481C7.74074 10.481 9.20184 10.5846 10.2689 11.101C10.7997 11.3579 11.2304 11.7158 11.5293 12.2129C11.8285 12.7104 12 13.3547 12 14.191L12.2 14.191ZM6.17 10.281L0.899996 10.281L0.899996 10.481L6.17 10.481L6.17 10.281ZM1.26 6.32672L1.16 6.32672L1.16 6.42672L1.26 6.42672L1.26 6.32672ZM6.39 5.39672L6.48864 5.38028L6.48849 5.37944L6.39 5.39672ZM6.45 6.32672L6.45 6.42672L6.55 6.42672L6.55 6.32672L6.45 6.32672ZM6.41 3.89672L6.32244 3.94502L6.51 3.89672L6.41 3.89672ZM5.94 3.12672L6.01849 3.06475L6.01792 3.06404L5.94 3.12672ZM0.899996 7.27672L0.799996 7.27672L0.799996 7.37672L0.899996 7.37672L0.899996 7.27672ZM12 7.27672L12 7.37672L12.1 7.37672L12.1 7.27672L12 7.27672ZM12 6.32672L12.1 6.32672L12.1 6.22671L12 6.22671L12 6.32672ZM6.89 6.32672L6.7911 6.34152L6.80385 6.42672L6.89 6.42672L6.89 6.32672ZM7.24 4.29671L7.31009 4.36806L7.31119 4.36694L7.24 4.29671ZM12 1.29671L12.1 1.29671L12.1 1.25089L12.0653 1.22098L12 1.29671ZM11.42 0.796714L11.4853 0.720977L11.32 0.578483L11.32 0.796714L11.42 0.796714ZM1.36 6.32672L1.36 5.41672L1.16 5.41672L1.16 6.32672L1.36 6.32672ZM1.36 5.41672C1.36 4.40923 1.83224 3.77102 2.40973 3.38083C2.99212 2.98733 3.68194 2.84672 4.1 2.84672L4.1 2.64672C3.64805 2.64672 2.91787 2.79611 2.29776 3.21511C1.67275 3.63741 1.16 4.33421 1.16 5.41672L1.36 5.41672ZM4.1 2.84672C4.62845 2.84672 5.01801 2.97253 5.30836 3.16409C5.59914 3.35593 5.79722 3.61822 5.93506 3.9017C6.21438 4.47612 6.23839 5.11129 6.2915 5.414L6.48849 5.37944C6.4416 5.11214 6.41061 4.42232 6.11493 3.81424C5.96527 3.50647 5.74585 3.21313 5.4185 2.99715C5.09073 2.78091 4.66154 2.64672 4.1 2.64672L4.1 2.84672ZM6.29136 5.41316C6.32028 5.58668 6.33511 5.814 6.34258 6.00072C6.34629 6.09349 6.34814 6.17516 6.34907 6.23362C6.34953 6.26283 6.34977 6.28622 6.34988 6.30225C6.34994 6.31026 6.34997 6.31643 6.34998 6.32057C6.34999 6.32265 6.34999 6.32421 6.34999 6.32524C6.34999 6.32576 6.35 6.32614 6.35 6.32639C6.35 6.32651 6.35 6.3266 6.35 6.32665C6.35 6.32668 6.35 6.32671 6.35 6.32671C6.35 6.32672 6.35 6.32672 6.35 6.32672C6.35 6.32672 6.35 6.32672 6.45 6.32672C6.55 6.32672 6.55 6.32671 6.55 6.3267C6.55 6.3267 6.55 6.32668 6.55 6.32668C6.55 6.32664 6.55 6.32661 6.55 6.32658C6.55 6.32649 6.55 6.32637 6.55 6.32622C6.55 6.32592 6.54999 6.32548 6.54999 6.32491C6.54999 6.32376 6.54999 6.32207 6.54998 6.31989C6.54997 6.31551 6.54994 6.30908 6.54988 6.3008C6.54976 6.28426 6.54952 6.26029 6.54905 6.23045C6.5481 6.17078 6.5462 6.08745 6.54242 5.99272C6.53488 5.80444 6.51971 5.56676 6.48863 5.38028L6.29136 5.41316ZM6.45 6.22671L1.26 6.22672L1.26 6.42672L6.45 6.42672L6.45 6.22671ZM6.41 3.89672C6.49755 3.84841 6.49755 3.8484 6.49755 3.8484C6.49754 3.8484 6.49754 3.84838 6.49753 3.84837C6.49752 3.84835 6.4975 3.84832 6.49748 3.84828C6.49744 3.84821 6.49738 3.84809 6.4973 3.84795C6.49714 3.84766 6.4969 3.84722 6.49658 3.84666C6.49596 3.84553 6.49503 3.84386 6.49383 3.84167C6.49141 3.83733 6.48787 3.83094 6.48331 3.82275C6.47419 3.80639 6.46102 3.78284 6.44475 3.754C6.41223 3.69633 6.36727 3.61742 6.31755 3.53246C6.21959 3.36506 6.09859 3.16622 6.01848 3.06475L5.86151 3.18868C5.9314 3.27722 6.0454 3.46338 6.14494 3.63348C6.19397 3.71727 6.23839 3.79523 6.27055 3.85225C6.28663 3.88075 6.29963 3.904 6.3086 3.9201C6.31308 3.92815 6.31656 3.9344 6.3189 3.93864C6.32008 3.94076 6.32097 3.94237 6.32156 3.94344C6.32186 3.94398 6.32208 3.94438 6.32223 3.94465C6.3223 3.94478 6.32236 3.94488 6.32239 3.94494C6.32241 3.94497 6.32242 3.94499 6.32243 3.94501C6.32243 3.94501 6.32243 3.94502 6.32244 3.94502C6.32244 3.94502 6.32244 3.94502 6.41 3.89672ZM6.01792 3.06404C5.83101 2.83167 5.56899 2.51958 5.12978 2.26749C4.69008 2.01512 4.07994 1.82672 3.2 1.82672L3.2 2.02672C4.05005 2.02672 4.62491 2.20832 5.03022 2.44095C5.436 2.67385 5.67898 2.96176 5.86207 3.18939L6.01792 3.06404ZM3.2 1.82672C1.94789 1.82672 0.799996 2.83842 0.799996 4.24672L0.999995 4.24672C0.999995 2.95502 2.0521 2.02672 3.2 2.02672L3.2 1.82672ZM0.799996 4.24672L0.799996 7.27672L0.999996 7.27672L0.999995 4.24672L0.799996 4.24672ZM0.899996 7.37672L12 7.37672L12 7.17672L0.899996 7.17672L0.899996 7.37672ZM12.1 7.27672L12.1 6.32672L11.9 6.32672L11.9 7.27672L12.1 7.27672ZM12 6.22671L6.89 6.22671L6.89 6.42672L12 6.42672L12 6.22671ZM6.89 6.32672C6.98889 6.31192 6.9889 6.31194 6.9889 6.31194C6.9889 6.31194 6.9889 6.31194 6.9889 6.31194C6.98889 6.31192 6.98889 6.31188 6.98888 6.31182C6.98886 6.3117 6.98883 6.31149 6.98879 6.31119C6.9887 6.3106 6.98856 6.30965 6.98838 6.30837C6.98802 6.30581 6.98747 6.3019 6.98676 6.29669C6.98536 6.28629 6.98334 6.27075 6.98096 6.25067C6.97619 6.21049 6.96995 6.15216 6.96421 6.08031C6.9527 5.93641 6.94324 5.73923 6.95118 5.52543C6.95913 5.3112 6.98448 5.08323 7.04126 4.87666C7.09828 4.66924 7.18492 4.49102 7.31008 4.36805L7.16991 4.22539C7.01007 4.38242 6.91046 4.59795 6.84842 4.82365C6.78614 5.0502 6.75961 5.29475 6.75131 5.51801C6.74301 5.74171 6.75291 5.94703 6.76484 6.09625C6.77082 6.17096 6.77732 6.23185 6.78235 6.27425C6.78487 6.29546 6.78702 6.31205 6.78856 6.32346C6.78933 6.32915 6.78995 6.33356 6.79038 6.33659C6.7906 6.33811 6.79077 6.33929 6.79089 6.34011C6.79095 6.34052 6.791 6.34085 6.79103 6.34108C6.79105 6.3412 6.79106 6.34129 6.79107 6.34137C6.79108 6.34141 6.79109 6.34145 6.79109 6.34146C6.79109 6.34149 6.7911 6.34152 6.89 6.32672ZM7.31119 4.36694C7.39142 4.2856 7.5237 4.19336 7.70113 4.09124C7.87708 3.98997 8.09117 3.88246 8.33028 3.76929C8.56924 3.65619 8.83144 3.53825 9.10352 3.41585C9.37527 3.29359 9.65667 3.167 9.93257 3.03721C10.4832 2.77817 11.0176 2.50377 11.4154 2.22104C11.6143 2.07967 11.7833 1.93333 11.9033 1.78234C12.0232 1.63152 12.1 1.46868 12.1 1.29671L11.9 1.29671C11.9 1.40726 11.8506 1.52723 11.7467 1.65789C11.643 1.78838 11.4907 1.9222 11.2996 2.05802C10.9174 2.32967 10.3968 2.59776 9.84743 2.85623C9.57332 2.98518 9.29347 3.11109 9.02147 3.23345C8.74981 3.35566 8.48575 3.47443 8.24471 3.58852C8.00382 3.70254 7.78416 3.81269 7.60136 3.9179C7.42004 4.02226 7.26857 4.12534 7.1688 4.22649L7.31119 4.36694ZM12.0653 1.22098L11.4853 0.720977L11.3547 0.872459L11.9347 1.37246L12.0653 1.22098ZM11.32 0.796714C11.32 0.86885 11.2694 0.965118 11.1372 1.08628C11.0086 1.20409 10.8206 1.32909 10.5882 1.45969C10.1238 1.72061 9.50271 1.99255 8.87502 2.2663C8.25038 2.53873 7.61912 2.813 7.14435 3.07596C6.90722 3.20731 6.70386 3.33865 6.55856 3.46877C6.41744 3.59514 6.31 3.73896 6.31 3.89672L6.51 3.89672C6.51 3.82948 6.55912 3.73674 6.69198 3.61776C6.82066 3.50253 7.00871 3.37972 7.24126 3.25092C7.70587 2.99357 8.32711 2.72346 8.95497 2.44963C9.57978 2.17713 10.2112 1.90095 10.6862 1.63406C10.9234 1.50075 11.1269 1.36692 11.2723 1.23376C11.414 1.10394 11.52 0.957084 11.52 0.796714L11.32 0.796714Z" />
</svg>
