<svg width="91" height="24" viewBox="0 0 91 24" fill="black" xmlns="http://www.w3.org/2000/svg">
  <path d="M15.32 0.8H14V12.38C14 19.24 12.18 20.86 10.6 21.66C9.92 22 9.12 22.08 8.32 22.08C5.1 22.06 3.06 19.12 3.06 12.04V0.8H0.82V12.2C0.82 18 2.04 23.2 7.7 23.2C14.5 23.2 15.32 17.62 15.32 11.34V0.8ZM23.0486 23V0.8H21.1686V23H23.0486ZM41.7242 11.96C40.9642 11.3 39.1842 11.94 39.0442 12C41.6242 10.16 45.2242 6.46 45.2242 3.7C45.2242 1.86 43.8442 0.8 43.8442 0.8L42.0042 1.42C42.7842 2.2 43.3042 3.3 43.3042 4.04C43.2042 8.94 37.5042 12.26 36.8442 12.66L36.8242 0.8H34.9642V23H36.8642L36.8442 13.6L36.8642 13.72C36.8642 13.72 39.2842 12.58 40.4242 13.72C41.5642 14.86 42.7642 15.68 46.7042 23H48.8842C47.8242 20.66 43.6442 13.64 41.7242 11.96ZM54.3181 23V0.8H52.4381V23H54.3181ZM73.113 0.8H57.113V1.88H64.113V21.68L66.113 23V1.88H73.093C73.113 1.54 73.113 1.14 73.113 0.8ZM83.3772 0.8C78.0172 0.8 75.7372 5.08 75.8972 9.14C76.0972 13.76 85.7572 9.3 87.6772 11.14C90.2572 13.64 85.4772 22.42 83.3372 22.42C78.3372 22.42 78.3172 17.5 78.3172 17.5H76.0172C76.0172 18.18 76.1572 23 82.6572 23C86.4172 23 90.7372 18.34 90.7372 13.72C90.7372 7.5 78.7972 11.44 78.1972 8.36C77.5972 5.38 78.8772 1.72 81.3772 1.72C85.9572 1.72 86.6772 5.28 86.6772 5.28H89.3772C89.2172 4.44 87.3772 0.8 83.3772 0.8Z" />
  <path d="M15.32 0.8H15.52V0.6H15.32V0.8ZM14 0.8V0.6H13.8V0.8H14ZM10.6 21.66L10.6894 21.8389L10.6903 21.8384L10.6 21.66ZM8.32 22.08L8.31876 22.28H8.32V22.08ZM3.06 0.8H3.26V0.6H3.06V0.8ZM0.82 0.8V0.6H0.62V0.8H0.82ZM15.32 0.6H14V1H15.32V0.6ZM13.8 0.8V12.38H14.2V0.8H13.8ZM13.8 12.38C13.8 15.7959 13.3463 17.8819 12.7121 19.2061C12.0831 20.5195 11.2706 21.0963 10.5097 21.4816L10.6903 21.8384C11.5094 21.4237 12.3969 20.7905 13.0729 19.3789C13.7437 17.9781 14.2 15.8241 14.2 12.38H13.8ZM10.5106 21.4811C9.87308 21.7999 9.11127 21.88 8.32 21.88V22.28C9.12873 22.28 9.96692 22.2001 10.6894 21.8389L10.5106 21.4811ZM8.32124 21.88C6.78644 21.8705 5.53581 21.1724 4.65682 19.6095C3.76919 18.0312 3.26 15.567 3.26 12.04H2.86C2.86 15.593 3.37081 18.1388 4.30818 19.8055C5.25419 21.4876 6.63356 22.2695 8.31876 22.28L8.32124 21.88ZM3.26 12.04V0.8H2.86V12.04H3.26ZM3.06 0.6H0.82V1H3.06V0.6ZM0.62 0.8V12.2H1.02V0.8H0.62ZM0.62 12.2C0.62 15.1064 0.924306 17.8958 1.95861 19.9644C2.47764 21.0025 3.18307 21.8643 4.12997 22.4657C5.0773 23.0673 6.25337 23.4 7.7 23.4V23C6.31663 23 5.2177 22.6827 4.34441 22.128C3.47068 21.5732 2.80986 20.7725 2.31639 19.7856C1.32569 17.8042 1.02 15.0936 1.02 12.2H0.62ZM7.7 23.4C9.42739 23.4 10.7913 23.0455 11.8624 22.4014C12.9345 21.7567 13.6987 20.8307 14.24 19.7121C15.3172 17.4863 15.52 14.4785 15.52 11.34H15.12C15.12 14.4815 14.9128 17.4037 13.88 19.5379C13.3663 20.5993 12.6505 21.4608 11.6563 22.0586C10.6612 22.657 9.37261 23 7.7 23V23.4ZM15.52 11.34V0.8H15.12V11.34H15.52ZM23.0486 23V23.2H23.2486V23H23.0486ZM23.0486 0.8H23.2486V0.6H23.0486V0.8ZM21.1686 0.8V0.6H20.9686V0.8H21.1686ZM21.1686 23H20.9686V23.2H21.1686V23ZM23.2486 23V0.8H22.8486V23H23.2486ZM23.0486 0.6H21.1686V1H23.0486V0.6ZM20.9686 0.8V23H21.3686V0.8H20.9686ZM21.1686 23.2H23.0486V22.8H21.1686V23.2ZM41.7242 11.96L41.8559 11.8095L41.8554 11.809L41.7242 11.96ZM39.0442 12L38.9281 11.8372L39.123 12.1838L39.0442 12ZM43.8442 0.8L43.966 0.641389L43.8815 0.576406L43.7804 0.61047L43.8442 0.8ZM42.0042 1.42L41.9404 1.23047L41.6348 1.33343L41.8628 1.56142L42.0042 1.42ZM43.3042 4.04L43.5042 4.04408V4.04H43.3042ZM36.8442 12.66L36.6442 12.6603L36.6448 13.0147L36.9479 12.831L36.8442 12.66ZM36.8242 0.8L37.0242 0.799662L37.0239 0.6H36.8242V0.8ZM34.9642 0.8V0.6H34.7642V0.8H34.9642ZM34.9642 23H34.7642V23.2H34.9642V23ZM36.8642 23V23.2H37.0646L37.0642 22.9996L36.8642 23ZM36.8442 13.6L37.0415 13.5671L36.6442 13.6004L36.8442 13.6ZM36.8642 13.72L36.6669 13.7529L36.7104 14.0135L36.9495 13.9009L36.8642 13.72ZM40.4242 13.72L40.2828 13.8614L40.4242 13.72ZM46.7042 23L46.5281 23.0948L46.5847 23.2H46.7042V23ZM48.8842 23V23.2H49.1944L49.0664 22.9175L48.8842 23ZM41.8554 11.809C41.624 11.6081 41.3262 11.5152 41.0275 11.4807C40.7276 11.4461 40.4104 11.4683 40.1216 11.5123C39.5456 11.6001 39.0493 11.7802 38.9654 11.8162L39.123 12.1838C39.1792 12.1598 39.6429 11.9899 40.1819 11.9077C40.4506 11.8667 40.7295 11.8489 40.9816 11.8781C41.2347 11.9073 41.4444 11.9819 41.5931 12.111L41.8554 11.809ZM39.1603 12.1628C40.4635 11.2334 42.022 9.83643 43.2568 8.32135C44.4839 6.81563 45.4242 5.15373 45.4242 3.7H45.0242C45.0242 5.00627 44.1645 6.57437 42.9467 8.06865C41.7365 9.55357 40.2049 10.9266 38.9281 11.8372L39.1603 12.1628ZM45.4242 3.7C45.4242 2.72807 45.0595 1.96384 44.6983 1.44564C44.5176 1.18642 44.3369 0.987231 44.2006 0.852268C44.1324 0.784714 44.0751 0.733034 44.0342 0.697755C44.0138 0.680109 43.9974 0.666547 43.9858 0.657135C43.98 0.652428 43.9754 0.648758 43.9721 0.646131C43.9705 0.644818 43.9691 0.643765 43.9681 0.642975C43.9676 0.64258 43.9672 0.64225 43.9668 0.641985C43.9667 0.641853 43.9665 0.641738 43.9664 0.641638C43.9663 0.641589 43.9662 0.641526 43.9662 0.641502C43.9661 0.641443 43.966 0.641389 43.8442 0.8C43.7224 0.95861 43.7223 0.958564 43.7223 0.958522C43.7223 0.958513 43.7222 0.958476 43.7222 0.958458C43.7221 0.958424 43.7221 0.958405 43.7221 0.958402C43.7221 0.958396 43.7222 0.958454 43.7223 0.958575C43.7227 0.958817 43.7233 0.959313 43.7242 0.960062C43.7261 0.961559 43.7293 0.964065 43.7336 0.967571C43.7422 0.974586 43.7555 0.985594 43.7728 1.00053C43.8074 1.0304 43.8579 1.07591 43.9191 1.13648C44.0416 1.25777 44.2058 1.43858 44.3701 1.67436C44.699 2.14616 45.0242 2.83192 45.0242 3.7H45.4242ZM43.7804 0.61047L41.9404 1.23047L42.0681 1.60953L43.9081 0.989529L43.7804 0.61047ZM41.8628 1.56142C42.2362 1.9348 42.5486 2.3864 42.7671 2.83289C42.9869 3.28221 43.1042 3.71124 43.1042 4.04H43.5042C43.5042 3.62876 43.3615 3.13779 43.1264 2.6571C42.8898 2.1736 42.5523 1.6852 42.1456 1.27858L41.8628 1.56142ZM43.1043 4.03592C43.0558 6.40861 41.6497 8.41647 40.1441 9.89479C38.6421 11.3696 37.0699 12.2894 36.7406 12.489L36.9479 12.831C37.2786 12.6306 38.8863 11.6904 40.4243 10.1802C41.9588 8.67353 43.4526 6.57139 43.5042 4.04408L43.1043 4.03592ZM37.0442 12.6597L37.0242 0.799662L36.6242 0.800337L36.6442 12.6603L37.0442 12.6597ZM36.8242 0.6H34.9642V1H36.8242V0.6ZM34.7642 0.8V23H35.1642V0.8H34.7642ZM34.9642 23.2H36.8642V22.8H34.9642V23.2ZM37.0642 22.9996L37.0442 13.5996L36.6442 13.6004L36.6642 23.0004L37.0642 22.9996ZM36.6469 13.6329L36.6669 13.7529L37.0615 13.6871L37.0415 13.5671L36.6469 13.6329ZM36.8642 13.72C36.9495 13.9009 36.9494 13.9009 36.9494 13.901C36.9494 13.901 36.9494 13.901 36.9494 13.901C36.9494 13.901 36.9494 13.9009 36.9495 13.9009C36.9496 13.9008 36.9499 13.9007 36.9504 13.9005C36.9513 13.9001 36.9528 13.8994 36.9548 13.8985C36.9588 13.8966 36.9651 13.8937 36.9735 13.89C36.9903 13.8824 37.0156 13.8713 37.0484 13.8574C37.1141 13.8296 37.2098 13.7908 37.3286 13.7476C37.5666 13.661 37.894 13.5576 38.2542 13.489C38.9915 13.3484 39.7887 13.3673 40.2828 13.8614L40.5656 13.5786C39.9198 12.9327 38.9369 12.9516 38.1793 13.096C37.792 13.1699 37.4431 13.2803 37.1917 13.3717C37.0658 13.4176 36.9636 13.459 36.8925 13.4891C36.8569 13.5041 36.8291 13.5164 36.8099 13.525C36.8003 13.5293 36.7928 13.5327 36.7876 13.5351C36.785 13.5363 36.783 13.5372 36.7816 13.5379C36.7808 13.5382 36.7803 13.5385 36.7798 13.5387C36.7796 13.5388 36.7794 13.5389 36.7793 13.5389C36.7792 13.539 36.7792 13.539 36.7791 13.539C36.779 13.539 36.779 13.5391 36.8642 13.72ZM40.2828 13.8614C40.8581 14.4367 41.4296 14.914 42.3535 16.1615C43.2802 17.4128 44.56 19.4382 46.5281 23.0948L46.8803 22.9052C44.9085 19.2418 43.6182 17.1972 42.6749 15.9235C41.7289 14.646 41.1303 14.1433 40.5656 13.5786L40.2828 13.8614ZM46.7042 23.2H48.8842V22.8H46.7042V23.2ZM49.0664 22.9175C48.5308 21.7351 47.2151 19.3861 45.7961 17.1261C45.0858 15.995 44.3475 14.8827 43.6655 13.9469C42.9863 13.0149 42.354 12.2453 41.8559 11.8095L41.5925 12.1105C42.0544 12.5147 42.6646 13.2526 43.3423 14.1825C44.0171 15.1085 44.7501 16.2125 45.4573 17.3389C46.8733 19.5939 48.1776 21.9249 48.702 23.0825L49.0664 22.9175ZM54.3181 23V23.2H54.5181V23H54.3181ZM54.3181 0.8H54.5181V0.6H54.3181V0.8ZM52.4381 0.8V0.6H52.2381V0.8H52.4381ZM52.4381 23H52.2381V23.2H52.4381V23ZM54.5181 23V0.8H54.1181V23H54.5181ZM54.3181 0.6H52.4381V1H54.3181V0.6ZM52.2381 0.8V23H52.6381V0.8H52.2381ZM52.4381 23.2H54.3181V22.8H52.4381V23.2ZM73.113 0.8H73.313V0.6H73.113V0.8ZM57.113 0.8V0.6H56.913V0.8H57.113ZM57.113 1.88H56.913V2.08H57.113V1.88ZM64.113 1.88H64.313V1.68H64.113V1.88ZM64.113 21.68H63.913V21.7876L64.0028 21.8469L64.113 21.68ZM66.113 23L66.0028 23.1669L66.313 23.3716V23H66.113ZM66.113 1.88V1.68H65.913V1.88H66.113ZM73.093 1.88V2.08H73.2815L73.2926 1.89174L73.093 1.88ZM73.113 0.6H57.113V1H73.113V0.6ZM56.913 0.8V1.88H57.313V0.8H56.913ZM57.113 2.08H64.113V1.68H57.113V2.08ZM63.913 1.88V21.68H64.313V1.88H63.913ZM64.0028 21.8469L66.0028 23.1669L66.2231 22.8331L64.2231 21.5131L64.0028 21.8469ZM66.313 23V1.88H65.913V23H66.313ZM66.113 2.08H73.093V1.68H66.113V2.08ZM73.2926 1.89174C73.313 1.54475 73.313 1.13854 73.313 0.8H72.913C72.913 1.14146 72.9129 1.53525 72.8933 1.86826L73.2926 1.89174ZM75.8972 9.14L75.6973 9.14788L75.6974 9.14865L75.8972 9.14ZM87.6772 11.14L87.8164 10.9964L87.8156 10.9956L87.6772 11.14ZM78.3172 17.5L78.5172 17.4992L78.5164 17.3H78.3172V17.5ZM76.0172 17.5V17.3H75.8172V17.5H76.0172ZM78.1972 8.36L78.3935 8.32176L78.3932 8.32052L78.1972 8.36ZM86.6772 5.28L86.4812 5.31965L86.5136 5.48H86.6772V5.28ZM89.3772 5.28V5.48H89.6189L89.5737 5.24258L89.3772 5.28ZM83.3772 0.6C80.6375 0.6 78.6682 1.69693 77.409 3.32515C76.1546 4.94705 75.6159 7.08095 75.6973 9.14787L76.097 9.13212C76.0185 7.13905 76.5397 5.10295 77.7254 3.56985C78.9062 2.04307 80.7569 1 83.3772 1V0.6ZM75.6974 9.14865C75.724 9.76349 75.9097 10.2455 76.2324 10.6096C76.553 10.9713 76.9935 11.1991 77.5 11.3359C78.5048 11.6073 79.8261 11.5348 81.165 11.3812C82.5244 11.2252 83.8932 10.9874 85.0694 10.9004C85.6533 10.8572 86.1725 10.8531 86.6001 10.9133C87.0305 10.974 87.3427 11.0965 87.5388 11.2844L87.8156 10.9956C87.5317 10.7235 87.122 10.5829 86.6559 10.5172C86.1869 10.4511 85.6348 10.4575 85.0399 10.5015C83.8587 10.5889 82.44 10.8323 81.1194 10.9838C79.7783 11.1377 78.5271 11.199 77.6043 10.9497C77.1471 10.8262 76.7851 10.6301 76.5317 10.3442C76.2803 10.0607 76.1204 9.67151 76.097 9.13135L75.6974 9.14865ZM87.538 11.2836C88.1167 11.8444 88.3061 12.7834 88.1895 13.9371C88.0736 15.083 87.6596 16.3931 87.0951 17.6347C86.531 18.8755 85.8222 20.0356 85.1264 20.8821C84.7783 21.3056 84.4378 21.6452 84.1248 21.8772C83.8072 22.1126 83.5411 22.22 83.3372 22.22V22.62C83.6683 22.62 84.0197 22.453 84.363 22.1985C84.711 21.9406 85.0748 21.5747 85.4354 21.1361C86.1571 20.2581 86.8834 19.067 87.4593 17.8003C88.0348 16.5344 88.4658 15.1807 88.5874 13.9773C88.7083 12.7816 88.5277 11.6856 87.8164 10.9964L87.538 11.2836ZM83.3372 22.22C82.1215 22.22 81.2218 21.9215 80.5529 21.4839C79.883 21.0456 79.433 20.46 79.1302 19.8688C78.827 19.2768 78.6732 18.6825 78.5955 18.2346C78.5567 18.0111 78.5371 17.8253 78.5272 17.6961C78.5223 17.6316 78.5198 17.5813 78.5185 17.5477C78.5179 17.5309 78.5175 17.5182 78.5174 17.51C78.5173 17.5059 78.5172 17.503 78.5172 17.5011C78.5172 17.5002 78.5172 17.4996 78.5172 17.4993C78.5172 17.4991 78.5172 17.499 78.5172 17.499C78.5172 17.499 78.5172 17.499 78.5172 17.499C78.5172 17.4991 78.5172 17.4992 78.3172 17.5C78.1172 17.5008 78.1172 17.5009 78.1172 17.5011C78.1172 17.5011 78.1172 17.5013 78.1172 17.5014C78.1172 17.5017 78.1172 17.5021 78.1172 17.5025C78.1172 17.5034 78.1172 17.5045 78.1172 17.506C78.1173 17.5089 78.1173 17.513 78.1174 17.5182C78.1177 17.5286 78.118 17.5436 78.1188 17.5628C78.1202 17.6013 78.123 17.6567 78.1284 17.7267C78.1391 17.8666 78.1601 18.0652 78.2014 18.3029C78.2837 18.7775 78.4474 19.4132 78.7742 20.0512C79.1014 20.69 79.5939 21.3344 80.3339 21.8186C81.0751 22.3035 82.0528 22.62 83.3372 22.62V22.22ZM78.3172 17.3H76.0172V17.7H78.3172V17.3ZM75.8172 17.5C75.8172 17.8523 75.8526 19.2754 76.7325 20.6148C77.6222 21.969 79.3498 23.2 82.6572 23.2V22.8C79.4645 22.8 77.8722 21.621 77.0668 20.3952C76.2518 19.1546 76.2172 17.8277 76.2172 17.5H75.8172ZM82.6572 23.2C84.6149 23.2 86.685 21.9923 88.2566 20.2254C89.8312 18.4553 90.9372 16.0898 90.9372 13.72H90.5372C90.5372 15.9702 89.4831 18.2447 87.9578 19.9596C86.4294 21.6777 84.4595 22.8 82.6572 22.8V23.2ZM90.9372 13.72C90.9372 12.9091 90.7421 12.2505 90.3896 11.7196C90.0378 11.1897 89.5383 10.8003 88.9502 10.512C87.782 9.93916 86.2344 9.75162 84.7038 9.66284C83.1528 9.57287 81.6312 9.58372 80.4362 9.42395C79.8416 9.34446 79.3534 9.2251 79.0004 9.04196C78.6535 8.86196 78.4536 8.63013 78.3935 8.32176L78.0009 8.39824C78.0908 8.85987 78.3953 9.17866 78.8162 9.39702C79.231 9.61225 79.774 9.73898 80.3832 9.82042C81.5957 9.98253 83.1716 9.97463 84.6806 10.0622C86.21 10.1509 87.6849 10.3371 88.7741 10.8711C89.3149 11.1363 89.7528 11.4836 90.0563 11.9408C90.3592 12.397 90.5372 12.9759 90.5372 13.72H90.9372ZM78.3932 8.32052C78.1009 6.8685 78.2677 5.25018 78.8082 4.00197C79.3505 2.74959 80.2415 1.92 81.3772 1.92V1.52C80.0129 1.52 79.0139 2.52041 78.4412 3.84303C77.8666 5.16982 77.6935 6.8715 78.0011 8.39948L78.3932 8.32052ZM81.3772 1.92C83.6071 1.92 84.8767 2.78315 85.592 3.62913C85.9522 4.05522 86.1755 4.48149 86.3085 4.80067C86.3749 4.9601 86.4186 5.09225 86.4454 5.18347C86.4588 5.22905 86.468 5.26435 86.4737 5.28763C86.4766 5.29928 86.4786 5.30791 86.4798 5.31332C86.4804 5.31602 86.4808 5.31792 86.481 5.31898C86.4811 5.31952 86.4812 5.31984 86.4812 5.31995C86.4812 5.32001 86.4812 5.32001 86.4812 5.31996C86.4812 5.31993 86.4812 5.31985 86.4812 5.31984C86.4812 5.31975 86.4812 5.31965 86.6772 5.28C86.8732 5.24035 86.8732 5.24022 86.8732 5.24008C86.8731 5.24001 86.8731 5.23985 86.8731 5.23972C86.873 5.23945 86.873 5.23913 86.8729 5.23875C86.8727 5.238 86.8725 5.23703 86.8723 5.23586C86.8718 5.2335 86.8711 5.23029 86.8702 5.22626C86.8684 5.21819 86.8658 5.20684 86.8622 5.1924C86.8552 5.16354 86.8444 5.12235 86.8292 5.07059C86.7987 4.96712 86.7504 4.82115 86.6777 4.64683C86.5326 4.29851 86.2896 3.83478 85.8974 3.37087C85.1077 2.43685 83.7272 1.52 81.3772 1.52V1.92ZM86.6772 5.48H89.3772V5.08H86.6772V5.48ZM89.5737 5.24258C89.5279 5.0025 89.3716 4.59602 89.1091 4.12783C88.8444 3.65544 88.4644 3.10743 87.9611 2.58608C86.9532 1.54226 85.4442 0.6 83.3772 0.6V1C85.3102 1 86.7211 1.87774 87.6733 2.86392C88.1499 3.35757 88.51 3.87706 88.7602 4.32342C89.0128 4.77397 89.1464 5.1375 89.1807 5.31742L89.5737 5.24258Z" />
</svg>

