<svg width="140" height="57" viewBox="0 0 140 57" fill="black" xmlns="http://www.w3.org/2000/svg">
  <path d="M15.32 0.8H14V12.38C14 19.24 12.18 20.86 10.6 21.66C9.92 22 9.12 22.08 8.32 22.08C5.1 22.06 3.06 19.12 3.06 12.04V0.8H0.82V12.2C0.82 18 2.04 23.2 7.7 23.2C14.5 23.2 15.32 17.62 15.32 11.34V0.8ZM22.8886 22V0.8H20.8286V23H31.7286V22H22.8886ZM49.6559 0.8H33.6559V1.88H40.6559V21.68L42.6559 23V1.88H49.6359C49.6559 1.54 49.6559 1.14 49.6559 0.8ZM55.9002 23V0.8H54.0202V23H55.9002ZM76.795 0.8L69.775 19.82L62.675 0.8H60.595V23H61.675V5.02L68.675 23L70.035 22.48L76.695 4.5L76.595 23H77.775V0.8H76.795ZM92.2775 15.38H84.7175L88.9375 4.04L92.2775 15.38ZM84.2575 16.62H92.6375L94.4375 23L96.6375 22.2L90.0575 0.8L88.9575 1.5L80.7175 22.58L81.8175 23L84.2575 16.62ZM113.367 0.8H97.3669V1.88H104.367V21.68L106.367 23V1.88H113.347C113.367 1.54 113.367 1.14 113.367 0.8ZM119.691 22.12V12.58H127.511V11.72H119.691V1.72H130.291V0.8H117.531V21.66L119.691 23H130.371V22.12H119.691ZM2.98 52.94L2.96 33.74H6C10.92 33.74 14.42 38.58 14.42 44.5C14.42 53.04 9.76 54.08 6.18 53.58L2.98 52.94ZM6.44 32.8H1.08V55H4.76C20.92 55 20.34 32.8 6.44 32.8ZM23.5192 54.12V44.58H31.3392V43.72H23.5192V33.72H34.1192V32.8H21.3592V53.66L23.5192 55H34.1992V54.12H23.5192ZM44.1584 32.8C38.7984 32.8 36.5184 37.08 36.6784 41.14C36.8784 45.76 46.5384 41.3 48.4584 43.14C51.0384 45.64 46.2584 54.42 44.1184 54.42C39.1184 54.42 39.0984 49.5 39.0984 49.5H36.7984C36.7984 50.18 36.9384 55 43.4384 55C47.1984 55 51.5184 50.34 51.5184 45.72C51.5184 39.5 39.5784 43.44 38.9784 40.36C38.3784 37.38 39.6584 33.72 42.1584 33.72C46.7384 33.72 47.4584 37.28 47.4584 37.28H50.1584C49.9984 36.44 48.1584 32.8 44.1584 32.8ZM57.8338 55V32.8H55.9538V55H57.8338ZM76.7086 47H69.5686V48.1C69.5686 48.1 75.2486 48.02 75.2486 48.34C75.4286 51.2 75.1886 52.7 73.8086 53.2C65.8486 56.1 59.5286 37.04 66.3486 34.28C67.9486 33.64 71.2086 33.6 73.8686 37.64H76.3686C73.6886 31.88 68.4286 32.8 68.4286 32.8C68.4286 32.8 61.9686 33.42 61.9686 42.28C61.9686 51.1 67.3886 55 71.3286 55C73.3886 55 76.2486 53.68 76.6686 48.7C76.7686 48.08 76.7086 47 76.7086 47ZM91.7619 32.8L91.6619 52.12L83.3419 32.8H81.7019V55H82.7019V37.22L90.5219 55L92.8219 53.8V32.8H91.7619ZM117.117 32.8H101.117V33.88H108.117V53.68L110.117 55V33.88H117.097C117.117 33.54 117.117 33.14 117.117 32.8ZM123.361 55V32.8H121.481V55H123.361ZM133.876 44.12C133.056 44.2 131.156 44.1 131.156 44.06V33.5H132.956C137.156 33.5 138.496 36.32 138.496 38.8C138.496 42.94 134.996 44.02 133.876 44.12ZM135.316 32.8H129.256V55H131.156V45.5C131.156 45.5 131.596 45.42 131.816 45.4C135.736 44.92 137.256 43.36 137.836 42.82C137.836 42.82 139.916 40.78 139.896 37.46C139.876 34.96 138.016 32.8 135.316 32.8Z" />
  <path d="M15.32 0.8H15.52V0.6H15.32V0.8ZM14 0.8V0.6H13.8V0.8H14ZM10.6 21.66L10.6894 21.8389L10.6903 21.8384L10.6 21.66ZM8.32 22.08L8.31876 22.28H8.32V22.08ZM3.06 0.8H3.26V0.6H3.06V0.8ZM0.82 0.8V0.6H0.62V0.8H0.82ZM15.32 0.6H14V1H15.32V0.6ZM13.8 0.8V12.38H14.2V0.8H13.8ZM13.8 12.38C13.8 15.7959 13.3463 17.8819 12.7121 19.2061C12.0831 20.5195 11.2706 21.0963 10.5097 21.4816L10.6903 21.8384C11.5094 21.4237 12.3969 20.7905 13.0729 19.3789C13.7437 17.9781 14.2 15.8241 14.2 12.38H13.8ZM10.5106 21.4811C9.87308 21.7999 9.11127 21.88 8.32 21.88V22.28C9.12873 22.28 9.96692 22.2001 10.6894 21.8389L10.5106 21.4811ZM8.32124 21.88C6.78644 21.8705 5.53581 21.1724 4.65682 19.6095C3.76919 18.0312 3.26 15.567 3.26 12.04H2.86C2.86 15.593 3.37081 18.1388 4.30818 19.8055C5.25419 21.4876 6.63356 22.2695 8.31876 22.28L8.32124 21.88ZM3.26 12.04V0.8H2.86V12.04H3.26ZM3.06 0.6H0.82V1H3.06V0.6ZM0.62 0.8V12.2H1.02V0.8H0.62ZM0.62 12.2C0.62 15.1064 0.924306 17.8958 1.95861 19.9644C2.47764 21.0025 3.18307 21.8643 4.12997 22.4657C5.0773 23.0673 6.25337 23.4 7.7 23.4V23C6.31663 23 5.2177 22.6827 4.34441 22.128C3.47068 21.5732 2.80986 20.7725 2.31639 19.7856C1.32569 17.8042 1.02 15.0936 1.02 12.2H0.62ZM7.7 23.4C9.42739 23.4 10.7913 23.0455 11.8624 22.4014C12.9345 21.7567 13.6987 20.8307 14.24 19.7121C15.3172 17.4863 15.52 14.4785 15.52 11.34H15.12C15.12 14.4815 14.9128 17.4037 13.88 19.5379C13.3663 20.5993 12.6505 21.4608 11.6563 22.0586C10.6612 22.657 9.37261 23 7.7 23V23.4ZM15.52 11.34V0.8H15.12V11.34H15.52ZM22.8886 22H22.6886V22.2H22.8886V22ZM22.8886 0.8H23.0886V0.6H22.8886V0.8ZM20.8286 0.8V0.6H20.6286V0.8H20.8286ZM20.8286 23H20.6286V23.2H20.8286V23ZM31.7286 23V23.2H31.9286V23H31.7286ZM31.7286 22H31.9286V21.8H31.7286V22ZM23.0886 22V0.8H22.6886V22H23.0886ZM22.8886 0.6H20.8286V1H22.8886V0.6ZM20.6286 0.8V23H21.0286V0.8H20.6286ZM20.8286 23.2H31.7286V22.8H20.8286V23.2ZM31.9286 23V22H31.5286V23H31.9286ZM31.7286 21.8H22.8886V22.2H31.7286V21.8ZM49.6559 0.8H49.8559V0.6H49.6559V0.8ZM33.6559 0.8V0.6H33.4559V0.8H33.6559ZM33.6559 1.88H33.4559V2.08H33.6559V1.88ZM40.6559 1.88H40.8559V1.68H40.6559V1.88ZM40.6559 21.68H40.4559V21.7876L40.5458 21.8469L40.6559 21.68ZM42.6559 23L42.5458 23.1669L42.8559 23.3716V23H42.6559ZM42.6559 1.88V1.68H42.4559V1.88H42.6559ZM49.6359 1.88V2.08H49.8245L49.8356 1.89174L49.6359 1.88ZM49.6559 0.6H33.6559V1H49.6559V0.6ZM33.4559 0.8V1.88H33.8559V0.8H33.4559ZM33.6559 2.08H40.6559V1.68H33.6559V2.08ZM40.4559 1.88V21.68H40.8559V1.88H40.4559ZM40.5458 21.8469L42.5458 23.1669L42.7661 22.8331L40.7661 21.5131L40.5458 21.8469ZM42.8559 23V1.88H42.4559V23H42.8559ZM42.6559 2.08H49.6359V1.68H42.6559V2.08ZM49.8356 1.89174C49.856 1.54475 49.8559 1.13854 49.8559 0.8H49.4559C49.4559 1.14146 49.4559 1.53525 49.4363 1.86826L49.8356 1.89174ZM55.9002 23V23.2H56.1002V23H55.9002ZM55.9002 0.8H56.1002V0.6H55.9002V0.8ZM54.0202 0.8V0.6H53.8202V0.8H54.0202ZM54.0202 23H53.8202V23.2H54.0202V23ZM56.1002 23V0.8H55.7002V23H56.1002ZM55.9002 0.6H54.0202V1H55.9002V0.6ZM53.8202 0.8V23H54.2202V0.8H53.8202ZM54.0202 23.2H55.9002V22.8H54.0202V23.2ZM76.795 0.8V0.6H76.6556L76.6074 0.730749L76.795 0.8ZM69.775 19.82L69.5876 19.8899L69.7761 20.3947L69.9626 19.8892L69.775 19.82ZM62.675 0.8L62.8624 0.730056L62.8138 0.6H62.675V0.8ZM60.595 0.8V0.6H60.395V0.8H60.595ZM60.595 23H60.395V23.2H60.595V23ZM61.675 23V23.2H61.875V23H61.675ZM61.675 5.02L61.8614 4.94744L61.475 5.02H61.675ZM68.675 23L68.4886 23.0726L68.5607 23.2578L68.7464 23.1868L68.675 23ZM70.035 22.48L70.1064 22.6668L70.1911 22.6344L70.2225 22.5495L70.035 22.48ZM76.695 4.5L76.895 4.50108L76.5075 4.43053L76.695 4.5ZM76.595 23L76.395 22.9989L76.3939 23.2H76.595V23ZM77.775 23V23.2H77.975V23H77.775ZM77.775 0.8H77.975V0.6H77.775V0.8ZM76.6074 0.730749L69.5874 19.7507L69.9626 19.8892L76.9826 0.869251L76.6074 0.730749ZM69.9624 19.7501L62.8624 0.730056L62.4876 0.869944L69.5876 19.8899L69.9624 19.7501ZM62.675 0.6H60.595V1H62.675V0.6ZM60.395 0.8V23H60.795V0.8H60.395ZM60.595 23.2H61.675V22.8H60.595V23.2ZM61.875 23V5.02H61.475V23H61.875ZM61.4886 5.09256L68.4886 23.0726L68.8614 22.9274L61.8614 4.94744L61.4886 5.09256ZM68.7464 23.1868L70.1064 22.6668L69.9636 22.2932L68.6036 22.8132L68.7464 23.1868ZM70.2225 22.5495L76.8825 4.56947L76.5075 4.43053L69.8475 22.4105L70.2225 22.5495ZM76.495 4.49892L76.395 22.9989L76.795 23.0011L76.895 4.50108L76.495 4.49892ZM76.595 23.2H77.775V22.8H76.595V23.2ZM77.975 23V0.8H77.575V23H77.975ZM77.775 0.6H76.795V1H77.775V0.6ZM92.2775 15.38V15.58H92.5449L92.4694 15.3235L92.2775 15.38ZM84.7175 15.38L84.5301 15.3102L84.4297 15.58H84.7175V15.38ZM88.9375 4.04L89.1293 3.98349L88.9596 3.40716L88.7501 3.97024L88.9375 4.04ZM84.2575 16.62V16.42H84.1199L84.0707 16.5486L84.2575 16.62ZM92.6375 16.62L92.83 16.5657L92.7889 16.42H92.6375V16.62ZM94.4375 23L94.245 23.0543L94.3035 23.2615L94.5059 23.188L94.4375 23ZM96.6375 22.2L96.7058 22.388L96.8846 22.323L96.8287 22.1412L96.6375 22.2ZM90.0575 0.8L90.2487 0.74122L90.1715 0.490369L89.9501 0.631267L90.0575 0.8ZM88.9575 1.5L88.8501 1.33127L88.795 1.36634L88.7712 1.42719L88.9575 1.5ZM80.7175 22.58L80.5312 22.5072L80.4578 22.6949L80.6462 22.7668L80.7175 22.58ZM81.8175 23L81.7462 23.1868L81.9329 23.2581L82.0043 23.0714L81.8175 23ZM92.2775 15.18H84.7175V15.58H92.2775V15.18ZM84.9049 15.4498L89.1249 4.10975L88.7501 3.97024L84.5301 15.3102L84.9049 15.4498ZM88.7457 4.09651L92.0856 15.4365L92.4694 15.3235L89.1293 3.98349L88.7457 4.09651ZM84.2575 16.82H92.6375V16.42H84.2575V16.82ZM92.445 16.6743L94.245 23.0543L94.63 22.9457L92.83 16.5657L92.445 16.6743ZM94.5059 23.188L96.7058 22.388L96.5692 22.012L94.3691 22.812L94.5059 23.188ZM96.8287 22.1412L90.2487 0.74122L89.8663 0.858779L96.4463 22.2588L96.8287 22.1412ZM89.9501 0.631267L88.8501 1.33127L89.0649 1.66873L90.1649 0.968732L89.9501 0.631267ZM88.7712 1.42719L80.5312 22.5072L80.9038 22.6528L89.1438 1.57281L88.7712 1.42719ZM80.6462 22.7668L81.7462 23.1868L81.8888 22.8132L80.7888 22.3932L80.6462 22.7668ZM82.0043 23.0714L84.4443 16.6914L84.0707 16.5486L81.6307 22.9286L82.0043 23.0714ZM113.367 0.8H113.567V0.6H113.367V0.8ZM97.3669 0.8V0.6H97.1669V0.8H97.3669ZM97.3669 1.88H97.1669V2.08H97.3669V1.88ZM104.367 1.88H104.567V1.68H104.367V1.88ZM104.367 21.68H104.167V21.7876L104.257 21.8469L104.367 21.68ZM106.367 23L106.257 23.1669L106.567 23.3716V23H106.367ZM106.367 1.88V1.68H106.167V1.88H106.367ZM113.347 1.88V2.08H113.535L113.547 1.89174L113.347 1.88ZM113.367 0.6H97.3669V1H113.367V0.6ZM97.1669 0.8V1.88H97.5669V0.8H97.1669ZM97.3669 2.08H104.367V1.68H97.3669V2.08ZM104.167 1.88V21.68H104.567V1.88H104.167ZM104.257 21.8469L106.257 23.1669L106.477 22.8331L104.477 21.5131L104.257 21.8469ZM106.567 23V1.88H106.167V23H106.567ZM106.367 2.08H113.347V1.68H106.367V2.08ZM113.547 1.89174C113.567 1.54475 113.567 1.13854 113.567 0.8H113.167C113.167 1.14146 113.167 1.53525 113.147 1.86826L113.547 1.89174ZM119.691 22.12H119.491V22.32H119.691V22.12ZM119.691 12.58V12.38H119.491V12.58H119.691ZM127.511 12.58V12.78H127.711V12.58H127.511ZM127.511 11.72H127.711V11.52H127.511V11.72ZM119.691 11.72H119.491V11.92H119.691V11.72ZM119.691 1.72V1.52H119.491V1.72H119.691ZM130.291 1.72V1.92H130.491V1.72H130.291ZM130.291 0.8H130.491V0.6H130.291V0.8ZM117.531 0.8V0.6H117.331V0.8H117.531ZM117.531 21.66H117.331V21.7713L117.426 21.83L117.531 21.66ZM119.691 23L119.586 23.17L119.634 23.2H119.691V23ZM130.371 23V23.2H130.571V23H130.371ZM130.371 22.12H130.571V21.92H130.371V22.12ZM119.891 22.12V12.58H119.491V22.12H119.891ZM119.691 12.78H127.511V12.38H119.691V12.78ZM127.711 12.58V11.72H127.311V12.58H127.711ZM127.511 11.52H119.691V11.92H127.511V11.52ZM119.891 11.72V1.72H119.491V11.72H119.891ZM119.691 1.92H130.291V1.52H119.691V1.92ZM130.491 1.72V0.8H130.091V1.72H130.491ZM130.291 0.6H117.531V1H130.291V0.6ZM117.331 0.8V21.66H117.731V0.8H117.331ZM117.426 21.83L119.586 23.17L119.797 22.83L117.637 21.49L117.426 21.83ZM119.691 23.2H130.371V22.8H119.691V23.2ZM130.571 23V22.12H130.171V23H130.571ZM130.371 21.92H119.691V22.32H130.371V21.92ZM2.98 52.94L2.78 52.9402L2.78017 53.104L2.94078 53.1361L2.98 52.94ZM2.96 33.74V33.54H2.75979L2.76 33.7402L2.96 33.74ZM6.18 53.58L6.14071 53.7765L6.15234 53.7781L6.18 53.58ZM1.08 32.8V32.6H0.88V32.8H1.08ZM1.08 55H0.88V55.2H1.08V55ZM3.18 52.9398L3.16 33.7398L2.76 33.7402L2.78 52.9402L3.18 52.9398ZM2.96 33.94H6V33.54H2.96V33.94ZM6 33.94C10.7629 33.94 14.22 38.6371 14.22 44.5H14.62C14.62 38.5229 11.0771 33.54 6 33.54V33.94ZM14.22 44.5C14.22 48.737 13.0646 51.0602 11.5191 52.2726C9.96834 53.4892 7.97378 53.6286 6.20766 53.3819L6.15234 53.7781C7.96622 54.0314 10.0917 53.9008 11.7659 52.5874C13.4454 51.2698 14.62 48.803 14.62 44.5H14.22ZM6.21922 53.3839L3.01922 52.7439L2.94078 53.1361L6.14078 53.7761L6.21922 53.3839ZM6.44 32.6H1.08V33H6.44V32.6ZM0.88 32.8V55H1.28V32.8H0.88ZM1.08 55.2H4.76V54.8H1.08V55.2ZM4.76 55.2C8.84883 55.2 11.8965 53.7942 13.9389 51.6699C15.9785 49.5484 17.0026 46.7237 17.0724 43.905C17.1423 41.0868 16.2586 38.2626 14.4669 36.1398C12.6719 34.013 9.97324 32.6 6.44 32.6V33C9.85676 33 12.4431 34.362 14.1612 36.3977C15.8827 38.4374 16.7402 41.1632 16.6726 43.895C16.6049 46.6263 15.6127 49.3516 13.6505 51.3926C11.691 53.4308 8.75117 54.8 4.76 54.8V55.2ZM23.5192 54.12H23.3192V54.32H23.5192V54.12ZM23.5192 44.58V44.38H23.3192V44.58H23.5192ZM31.3392 44.58V44.78H31.5392V44.58H31.3392ZM31.3392 43.72H31.5392V43.52H31.3392V43.72ZM23.5192 43.72H23.3192V43.92H23.5192V43.72ZM23.5192 33.72V33.52H23.3192V33.72H23.5192ZM34.1192 33.72V33.92H34.3192V33.72H34.1192ZM34.1192 32.8H34.3192V32.6H34.1192V32.8ZM21.3592 32.8V32.6H21.1592V32.8H21.3592ZM21.3592 53.66H21.1592V53.7713L21.2538 53.83L21.3592 53.66ZM23.5192 55L23.4138 55.17L23.4622 55.2H23.5192V55ZM34.1992 55V55.2H34.3992V55H34.1992ZM34.1992 54.12H34.3992V53.92H34.1992V54.12ZM23.7192 54.12V44.58H23.3192V54.12H23.7192ZM23.5192 44.78H31.3392V44.38H23.5192V44.78ZM31.5392 44.58V43.72H31.1392V44.58H31.5392ZM31.3392 43.52H23.5192V43.92H31.3392V43.52ZM23.7192 43.72V33.72H23.3192V43.72H23.7192ZM23.5192 33.92H34.1192V33.52H23.5192V33.92ZM34.3192 33.72V32.8H33.9192V33.72H34.3192ZM34.1192 32.6H21.3592V33H34.1192V32.6ZM21.1592 32.8V53.66H21.5592V32.8H21.1592ZM21.2538 53.83L23.4138 55.17L23.6247 54.83L21.4647 53.49L21.2538 53.83ZM23.5192 55.2H34.1992V54.8H23.5192V55.2ZM34.3992 55V54.12H33.9992V55H34.3992ZM34.1992 53.92H23.5192V54.32H34.1992V53.92ZM36.6784 41.14L36.4786 41.1479L36.4786 41.1487L36.6784 41.14ZM48.4584 43.14L48.5976 42.9964L48.5968 42.9956L48.4584 43.14ZM39.0984 49.5L39.2984 49.4992L39.2976 49.3H39.0984V49.5ZM36.7984 49.5V49.3H36.5984V49.5H36.7984ZM38.9784 40.36L39.1748 40.3218L39.1745 40.3205L38.9784 40.36ZM47.4584 37.28L47.2624 37.3196L47.2948 37.48H47.4584V37.28ZM50.1584 37.28V37.48H50.4001L50.3549 37.2426L50.1584 37.28ZM44.1584 32.6C41.4188 32.6 39.4495 33.6969 38.1902 35.3251C36.9359 36.947 36.3971 39.0809 36.4786 41.1479L36.8783 41.1321C36.7997 39.1391 37.321 37.103 38.5066 35.5699C39.6874 34.0431 41.5381 33 44.1584 33V32.6ZM36.4786 41.1487C36.5052 41.7635 36.6909 42.2455 37.0136 42.6096C37.3343 42.9713 37.7748 43.1991 38.2813 43.3359C39.2861 43.6073 40.6073 43.5348 41.9462 43.3812C43.3056 43.2252 44.6744 42.9874 45.8507 42.9004C46.4346 42.8572 46.9538 42.8531 47.3813 42.9133C47.8117 42.974 48.1239 43.0965 48.3201 43.2844L48.5968 42.9956C48.3129 42.7235 47.9033 42.5829 47.4371 42.5172C46.9681 42.4511 46.4161 42.4575 45.8212 42.5015C44.64 42.5889 43.2212 42.8323 41.9006 42.9838C40.5596 43.1377 39.3083 43.199 38.3856 42.9497C37.9284 42.8262 37.5664 42.6301 37.3129 42.3442C37.0616 42.0607 36.9016 41.6715 36.8783 41.1314L36.4786 41.1487ZM48.3193 43.2836C48.8979 43.8444 49.0873 44.7834 48.9707 45.9371C48.8549 47.083 48.4409 48.3931 47.8764 49.6347C47.3123 50.8755 46.6035 52.0356 45.9077 52.8821C45.5595 53.3056 45.219 53.6452 44.9061 53.8772C44.5885 54.1126 44.3223 54.22 44.1184 54.22V54.62C44.4496 54.62 44.8009 54.453 45.1443 54.1985C45.4922 53.9406 45.8561 53.5747 46.2167 53.1361C46.9384 52.2581 47.6646 51.067 48.2405 49.8003C48.816 48.5344 49.247 47.1807 49.3687 45.9773C49.4895 44.7816 49.3089 43.6856 48.5976 42.9964L48.3193 43.2836ZM44.1184 54.22C42.9028 54.22 42.003 53.9215 41.3342 53.4839C40.6642 53.0456 40.2142 52.46 39.9114 51.8688C39.6082 51.2768 39.4544 50.6825 39.3767 50.2346C39.338 50.0111 39.3184 49.8253 39.3085 49.6961C39.3035 49.6316 39.301 49.5813 39.2997 49.5477C39.2991 49.5309 39.2988 49.5182 39.2986 49.51C39.2985 49.5059 39.2985 49.503 39.2985 49.5011C39.2984 49.5002 39.2984 49.4996 39.2984 49.4993C39.2984 49.4991 39.2984 49.499 39.2984 49.499C39.2984 49.499 39.2984 49.4991 39.2984 49.499C39.2984 49.4991 39.2984 49.4992 39.0984 49.5C38.8984 49.5008 38.8984 49.5009 38.8984 49.5011C38.8984 49.5011 38.8984 49.5013 38.8984 49.5014C38.8984 49.5017 38.8984 49.5021 38.8984 49.5025C38.8985 49.5034 38.8985 49.5045 38.8985 49.506C38.8985 49.5089 38.8986 49.513 38.8987 49.5182C38.8989 49.5286 38.8993 49.5436 38.9 49.5628C38.9015 49.6013 38.9043 49.6567 38.9096 49.7267C38.9204 49.8666 38.9414 50.0652 38.9826 50.3029C39.0649 50.7775 39.2286 51.4132 39.5554 52.0512C39.8826 52.69 40.3751 53.3344 41.1152 53.8186C41.8563 54.3035 42.8341 54.62 44.1184 54.62V54.22ZM39.0984 49.3H36.7984V49.7H39.0984V49.3ZM36.5984 49.5C36.5984 49.8523 36.6338 51.2754 37.5138 52.6148C38.4034 53.969 40.1311 55.2 43.4384 55.2V54.8C40.2458 54.8 38.6534 53.621 37.8481 52.3952C37.0331 51.1546 36.9984 49.8277 36.9984 49.5H36.5984ZM43.4384 55.2C45.3962 55.2 47.4662 53.9923 49.0379 52.2254C50.6125 50.4553 51.7184 48.0898 51.7184 45.72H51.3184C51.3184 47.9702 50.2644 50.2447 48.739 51.9596C47.2107 53.6777 45.2407 54.8 43.4384 54.8V55.2ZM51.7184 45.72C51.7184 44.9091 51.5233 44.2505 51.1708 43.7196C50.8191 43.1897 50.3195 42.8003 49.7315 42.512C48.5632 41.9392 47.0156 41.7516 45.485 41.6628C43.9341 41.5729 42.4125 41.5837 41.2174 41.424C40.6229 41.3445 40.1346 41.2251 39.7816 41.042C39.4347 40.862 39.2348 40.6301 39.1747 40.3218L38.7821 40.3982C38.8721 40.8599 39.1765 41.1787 39.5974 41.397C40.0123 41.6122 40.5553 41.739 41.1644 41.8204C42.3769 41.9825 43.9528 41.9746 45.4619 42.0622C46.9913 42.1509 48.4662 42.3371 49.5554 42.8711C50.0961 43.1363 50.5341 43.4836 50.8376 43.9408C51.1404 44.397 51.3184 44.9759 51.3184 45.72H51.7184ZM39.1745 40.3205C38.8821 38.8685 39.049 37.2502 39.5895 36.002C40.1318 34.7496 41.0227 33.92 42.1584 33.92V33.52C40.7942 33.52 39.7951 34.5204 39.2224 35.843C38.6479 37.1698 38.4747 38.8715 38.7824 40.3995L39.1745 40.3205ZM42.1584 33.92C44.3884 33.92 45.6579 34.7831 46.3732 35.6291C46.7335 36.0552 46.9568 36.4815 47.0898 36.8007C47.1562 36.9601 47.1999 37.0923 47.2267 37.1835C47.2401 37.2291 47.2493 37.2644 47.255 37.2876C47.2578 37.2993 47.2598 37.3079 47.261 37.3133C47.2616 37.316 47.262 37.3179 47.2623 37.319C47.2624 37.3195 47.2624 37.3198 47.2625 37.32C47.2625 37.32 47.2625 37.32 47.2625 37.32C47.2625 37.3199 47.2625 37.3199 47.2624 37.3198C47.2624 37.3198 47.2624 37.3196 47.4584 37.28C47.6545 37.2404 47.6544 37.2402 47.6544 37.2401C47.6544 37.24 47.6544 37.2398 47.6543 37.2397C47.6543 37.2394 47.6542 37.2391 47.6541 37.2388C47.654 37.238 47.6538 37.237 47.6535 37.2359C47.653 37.2335 47.6523 37.2303 47.6514 37.2263C47.6496 37.2182 47.647 37.2068 47.6435 37.1924C47.6364 37.1635 47.6257 37.1223 47.6104 37.0706C47.58 36.9671 47.5316 36.8211 47.459 36.6468C47.3139 36.2985 47.0709 35.8348 46.6787 35.3709C45.8889 34.4369 44.5085 33.52 42.1584 33.52V33.92ZM47.4584 37.48H50.1584V37.08H47.4584V37.48ZM50.3549 37.2426C50.3092 37.0025 50.1528 36.596 49.8904 36.1278C49.6256 35.6554 49.2457 35.1074 48.7423 34.5861C47.7345 33.5423 46.2254 32.6 44.1584 32.6V33C46.0915 33 47.5024 33.8777 48.4546 34.8639C48.9312 35.3576 49.2913 35.8771 49.5415 36.3234C49.794 36.774 49.9277 37.1375 49.962 37.3174L50.3549 37.2426ZM57.8338 55V55.2H58.0337V55H57.8338ZM57.8338 32.8H58.0337V32.6H57.8338V32.8ZM55.9538 32.8V32.6H55.7537V32.8H55.9538ZM55.9538 55H55.7537V55.2H55.9538V55ZM58.0337 55V32.8H57.6338V55H58.0337ZM57.8338 32.6H55.9538V33H57.8338V32.6ZM55.7537 32.8V55H56.1538V32.8H55.7537ZM55.9538 55.2H57.8338V54.8H55.9538V55.2ZM76.7086 47L76.9083 46.9889L76.8978 46.8H76.7086V47ZM69.5686 47V46.8H69.3686V47H69.5686ZM69.5686 48.1H69.3686V48.3028L69.5714 48.3L69.5686 48.1ZM75.2486 48.34H75.0482L75.049 48.3526L75.2486 48.34ZM73.8086 53.2L73.7405 53.012L73.7401 53.0121L73.8086 53.2ZM66.3486 34.28L66.2743 34.0943L66.2736 34.0946L66.3486 34.28ZM73.8686 37.64L73.7016 37.75L73.7608 37.84H73.8686V37.64ZM76.3686 37.64V37.84H76.6822L76.5499 37.5556L76.3686 37.64ZM68.4286 32.8L68.4477 32.9991L68.4554 32.9983L68.4631 32.997L68.4286 32.8ZM76.6686 48.7L76.4711 48.6682L76.4699 48.6756L76.4693 48.6832L76.6686 48.7ZM76.7086 46.8H69.5686V47.2H76.7086V46.8ZM69.3686 47V48.1H69.7686V47H69.3686ZM69.5686 48.1C69.5714 48.3 69.5714 48.3 69.5715 48.3C69.5715 48.3 69.5716 48.3 69.5716 48.3C69.5718 48.3 69.5721 48.3 69.5724 48.3C69.5731 48.3 69.5741 48.2999 69.5754 48.2999C69.5781 48.2999 69.5822 48.2998 69.5875 48.2998C69.5982 48.2996 69.6141 48.2994 69.6348 48.2992C69.6763 48.2987 69.7372 48.298 69.8147 48.2972C69.9697 48.2956 70.1912 48.2937 70.457 48.2925C70.9888 48.29 71.6975 48.29 72.4058 48.3C73.1149 48.31 73.8204 48.3299 74.347 48.367C74.6115 48.3856 74.8244 48.4082 74.9685 48.4345C75.0423 48.448 75.087 48.4607 75.1092 48.4697C75.1211 48.4746 75.1146 48.4737 75.102 48.4629C75.0894 48.4521 75.0486 48.4112 75.0486 48.34H75.4486C75.4486 48.2488 75.3967 48.1887 75.3626 48.1595C75.3285 48.1301 75.2901 48.1116 75.2604 48.0994C75.1994 48.0745 75.1221 48.056 75.0406 48.0411C74.874 48.0106 74.6431 47.9869 74.3751 47.968C73.8368 47.9301 73.1223 47.91 72.4114 47.9C71.6997 47.89 70.9884 47.89 70.4552 47.8925C70.1885 47.8938 69.9663 47.8956 69.8106 47.8972C69.7328 47.898 69.6717 47.8987 69.6299 47.8992C69.6091 47.8994 69.5931 47.8997 69.5823 47.8998C69.5769 47.8999 69.5727 47.8999 69.57 47.9C69.5686 47.9 69.5676 47.9 69.5669 47.9C69.5665 47.9 69.5662 47.9 69.5661 47.9C69.566 47.9 69.5659 47.9 69.5659 47.9C69.5658 47.9 69.5658 47.9 69.5686 48.1ZM75.049 48.3526C75.1389 49.7817 75.1212 50.843 74.9202 51.6039C74.7234 52.3489 74.3568 52.7887 73.7405 53.012L73.8767 53.388C74.6404 53.1113 75.0838 52.5511 75.307 51.7061C75.526 50.877 75.5383 49.7583 75.4482 48.3274L75.049 48.3526ZM73.7401 53.0121C71.8399 53.7044 70.0276 53.0958 68.4584 51.7056C66.8854 50.3121 65.5779 48.1475 64.7241 45.7943C63.8705 43.4416 63.4785 40.9226 63.7164 38.831C63.9546 36.7363 64.8158 35.1161 66.4236 34.4654L66.2736 34.0946C64.4714 34.8239 63.5651 36.6212 63.3189 38.7858C63.0724 40.9537 63.4792 43.5359 64.3481 45.9307C65.2168 48.325 66.5555 50.5542 68.1932 52.005C69.8346 53.4592 71.7973 54.1456 73.8771 53.3879L73.7401 53.0121ZM66.4229 34.4657C67.1838 34.1613 68.3518 33.9956 69.6522 34.3961C70.9493 34.7956 72.3934 35.7632 73.7016 37.75L74.0356 37.53C72.6838 35.4768 71.1679 34.4444 69.77 34.0139C68.3754 33.5844 67.1134 33.7587 66.2743 34.0943L66.4229 34.4657ZM73.8686 37.84H76.3686V37.44H73.8686V37.84ZM76.5499 37.5556C75.1836 34.619 73.1503 33.3731 71.4505 32.8683C70.6037 32.6168 69.8432 32.5501 69.2937 32.5463C69.0188 32.5443 68.7962 32.5581 68.6413 32.5726C68.5638 32.5798 68.5032 32.5872 68.4613 32.5929C68.4404 32.5957 68.4242 32.5982 68.4129 32.5999C68.4073 32.6008 68.4029 32.6015 68.3997 32.602C68.3982 32.6023 68.3969 32.6025 68.396 32.6027C68.3955 32.6028 68.3951 32.6028 68.3948 32.6029C68.3947 32.6029 68.3945 32.6029 68.3944 32.6029C68.3943 32.603 68.3941 32.603 68.4286 32.8C68.4631 32.997 68.463 32.997 68.4629 32.997L68.4628 32.997C68.4629 32.997 68.463 32.997 68.4631 32.997C68.4635 32.9969 68.4641 32.9968 68.4651 32.9967C68.467 32.9963 68.4702 32.9958 68.4746 32.9951C68.4834 32.9938 68.497 32.9917 68.5153 32.9892C68.5518 32.9843 68.6068 32.9775 68.6784 32.9709C68.8216 32.9575 69.0308 32.9444 69.2909 32.9462C69.8115 32.9499 70.5334 33.0132 71.3367 33.2517C72.9369 33.7269 74.8736 34.901 76.1873 37.7244L76.5499 37.5556ZM68.4286 32.8C68.4095 32.6009 68.4093 32.6009 68.4091 32.6009C68.4091 32.601 68.4089 32.601 68.4087 32.601C68.4083 32.601 68.4078 32.6011 68.4072 32.6011C68.4061 32.6013 68.4046 32.6014 68.4027 32.6016C68.3988 32.602 68.3935 32.6026 68.3866 32.6034C68.3729 32.605 68.3532 32.6075 68.328 32.6111C68.2775 32.6183 68.2048 32.6298 68.1129 32.6476C67.9293 32.6832 67.669 32.744 67.3575 32.8451C66.7348 33.0472 65.9052 33.4113 65.0754 34.0599C63.4076 35.3637 61.7686 37.7942 61.7686 42.28H62.1686C62.1686 37.9058 63.7596 35.5963 65.3218 34.3751C66.107 33.7612 66.8924 33.4166 67.481 33.2255C67.7751 33.1301 68.0194 33.0732 68.1891 33.0403C68.2739 33.0238 68.3399 33.0134 68.3841 33.0071C68.4062 33.004 68.4228 33.0019 68.4335 33.0007C68.4389 33 68.4428 32.9996 68.4452 32.9994C68.4464 32.9992 68.4472 32.9991 68.4476 32.9991C68.4478 32.9991 68.4479 32.9991 68.4479 32.9991C68.4479 32.9991 68.4479 32.9991 68.4479 32.9991C68.4478 32.9991 68.4477 32.9991 68.4286 32.8ZM61.7686 42.28C61.7686 51.1877 67.2567 55.2 71.3286 55.2V54.8C67.5205 54.8 62.1686 51.0122 62.1686 42.28H61.7686ZM71.3286 55.2C72.3998 55.2 73.6814 54.8568 74.7497 53.864C75.8195 52.8699 76.6548 51.2438 76.8679 48.7168L76.4693 48.6832C76.2624 51.1362 75.4577 52.6601 74.4774 53.571C73.4958 54.4832 72.3174 54.8 71.3286 54.8V55.2ZM76.866 48.7318C76.9189 48.4041 76.9286 47.9647 76.9261 47.6161C76.9248 47.4399 76.9204 47.2835 76.9163 47.1711C76.9142 47.1149 76.9122 47.0696 76.9108 47.0382C76.91 47.0225 76.9094 47.0103 76.909 47.002C76.9088 46.9978 76.9086 46.9946 76.9085 46.9924C76.9084 46.9913 76.9084 46.9905 76.9083 46.9899C76.9083 46.9896 76.9083 46.9894 76.9083 46.9892C76.9083 46.9891 76.9083 46.9891 76.9083 46.989C76.9083 46.989 76.9083 46.989 76.9083 46.9889C76.9083 46.9889 76.9083 46.9889 76.7086 47C76.5089 47.0111 76.5089 47.0111 76.5089 47.0111C76.5089 47.0111 76.5089 47.0111 76.5089 47.0111C76.5089 47.0111 76.5089 47.0111 76.5089 47.0112C76.5089 47.0113 76.5089 47.0115 76.5089 47.0117C76.509 47.0121 76.509 47.0129 76.509 47.0138C76.5092 47.0157 76.5093 47.0187 76.5095 47.0226C76.5099 47.0303 76.5105 47.042 76.5112 47.057C76.5126 47.0871 76.5145 47.1311 76.5165 47.1858C76.5206 47.2952 76.5249 47.4476 76.5261 47.6189C76.5286 47.9653 76.5183 48.3759 76.4711 48.6682L76.866 48.7318ZM91.7619 32.8V32.6H91.5629L91.5619 32.799L91.7619 32.8ZM91.6619 52.12L91.4782 52.1991L91.8619 52.121L91.6619 52.12ZM83.3419 32.8L83.5256 32.7209L83.4735 32.6H83.3419V32.8ZM81.7019 32.8V32.6H81.5019V32.8H81.7019ZM81.7019 55H81.5019V55.2H81.7019V55ZM82.7019 55V55.2H82.9019V55H82.7019ZM82.7019 37.22L82.8849 37.1395L82.5019 37.22H82.7019ZM90.5219 55L90.3388 55.0805L90.4249 55.2762L90.6144 55.1773L90.5219 55ZM92.8219 53.8L92.9144 53.9773L93.0219 53.9212V53.8H92.8219ZM92.8219 32.8H93.0219V32.6H92.8219V32.8ZM91.5619 32.799L91.4619 52.119L91.8619 52.121L91.9619 32.801L91.5619 32.799ZM91.8456 52.0409L83.5256 32.7209L83.1582 32.8791L91.4782 52.1991L91.8456 52.0409ZM83.3419 32.6H81.7019V33H83.3419V32.6ZM81.5019 32.8V55H81.9019V32.8H81.5019ZM81.7019 55.2H82.7019V54.8H81.7019V55.2ZM82.9019 55V37.22H82.5019V55H82.9019ZM82.5188 37.3005L90.3388 55.0805L90.7049 54.9195L82.8849 37.1395L82.5188 37.3005ZM90.6144 55.1773L92.9144 53.9773L92.7294 53.6227L90.4294 54.8227L90.6144 55.1773ZM93.0219 53.8V32.8H92.6219V53.8H93.0219ZM92.8219 32.6H91.7619V33H92.8219V32.6ZM117.117 32.8H117.317V32.6H117.117V32.8ZM101.117 32.8V32.6H100.917V32.8H101.117ZM101.117 33.88H100.917V34.08H101.117V33.88ZM108.117 33.88H108.317V33.68H108.117V33.88ZM108.117 53.68H107.917V53.7876L108.007 53.8469L108.117 53.68ZM110.117 55L110.007 55.1669L110.317 55.3716V55H110.117ZM110.117 33.88V33.68H109.917V33.88H110.117ZM117.097 33.88V34.08H117.285L117.297 33.8917L117.097 33.88ZM117.117 32.6H101.117V33H117.117V32.6ZM100.917 32.8V33.88H101.317V32.8H100.917ZM101.117 34.08H108.117V33.68H101.117V34.08ZM107.917 33.88V53.68H108.317V33.88H107.917ZM108.007 53.8469L110.007 55.1669L110.227 54.8331L108.227 53.5131L108.007 53.8469ZM110.317 55V33.88H109.917V55H110.317ZM110.117 34.08H117.097V33.68H110.117V34.08ZM117.297 33.8917C117.317 33.5447 117.317 33.1385 117.317 32.8H116.917C116.917 33.1415 116.917 33.5352 116.897 33.8683L117.297 33.8917ZM123.361 55V55.2H123.561V55H123.361ZM123.361 32.8H123.561V32.6H123.361V32.8ZM121.481 32.8V32.6H121.281V32.8H121.481ZM121.481 55H121.281V55.2H121.481V55ZM123.561 55V32.8H123.161V55H123.561ZM123.361 32.6H121.481V33H123.361V32.6ZM121.281 32.8V55H121.681V32.8H121.281ZM121.481 55.2H123.361V54.8H121.481V55.2ZM133.876 44.12L133.858 43.9208L133.857 43.9209L133.876 44.12ZM131.156 33.5V33.3H130.956V33.5H131.156ZM129.256 32.8V32.6H129.056V32.8H129.256ZM129.256 55H129.056V55.2H129.256V55ZM131.156 55V55.2H131.356V55H131.156ZM131.156 45.5L131.12 45.3032L130.956 45.3331V45.5H131.156ZM131.816 45.4L131.834 45.5993L131.84 45.5985L131.816 45.4ZM137.836 42.82L137.972 42.9664L137.976 42.9628L137.836 42.82ZM139.896 37.46L140.096 37.4588V37.4584L139.896 37.46ZM133.857 43.9209C133.461 43.9595 132.793 43.9551 132.215 43.9351C131.928 43.9252 131.668 43.9115 131.48 43.898C131.386 43.8912 131.312 43.8846 131.263 43.8788C131.238 43.8757 131.224 43.8734 131.218 43.8723C131.214 43.8714 131.22 43.8725 131.232 43.8767C131.236 43.8783 131.254 43.8849 131.273 43.8991C131.284 43.9064 131.356 43.9579 131.356 44.06H130.956C130.956 44.1633 131.029 44.2162 131.041 44.2248C131.063 44.2402 131.083 44.2481 131.091 44.2511C131.11 44.2581 131.127 44.262 131.137 44.264C131.16 44.2687 131.187 44.2725 131.215 44.2759C131.274 44.2829 131.355 44.29 131.451 44.297C131.645 44.311 131.911 44.3248 132.202 44.3349C132.779 44.3549 133.471 44.3605 133.895 44.3191L133.857 43.9209ZM131.356 44.06V33.5H130.956V44.06H131.356ZM131.156 33.7H132.956V33.3H131.156V33.7ZM132.956 33.7C135.007 33.7 136.332 34.3864 137.148 35.3493C137.969 36.3182 138.296 37.5925 138.296 38.8H138.696C138.696 37.5275 138.353 36.1518 137.454 35.0907C136.549 34.0236 135.104 33.3 132.956 33.3V33.7ZM138.296 38.8C138.296 40.8042 137.453 42.0529 136.482 42.8179C135.503 43.59 134.386 43.8736 133.858 43.9208L133.894 44.3192C134.486 44.2664 135.679 43.96 136.73 43.1321C137.789 42.2971 138.696 40.9358 138.696 38.8H138.296ZM135.316 32.6H129.256V33H135.316V32.6ZM129.056 32.8V55H129.456V32.8H129.056ZM129.256 55.2H131.156V54.8H129.256V55.2ZM131.356 55V45.5H130.956V55H131.356ZM131.156 45.5C131.192 45.6968 131.192 45.6968 131.192 45.6968C131.192 45.6968 131.192 45.6968 131.192 45.6968C131.192 45.6968 131.192 45.6967 131.192 45.6967C131.192 45.6967 131.192 45.6966 131.193 45.6966C131.194 45.6964 131.195 45.6962 131.196 45.6959C131.2 45.6953 131.204 45.6945 131.21 45.6934C131.223 45.6912 131.24 45.6881 131.263 45.6842C131.307 45.6765 131.368 45.666 131.436 45.6549C131.573 45.6323 131.732 45.6085 131.834 45.5992L131.798 45.2008C131.68 45.2115 131.508 45.2377 131.371 45.2601C131.301 45.2715 131.239 45.2823 131.194 45.2902C131.171 45.2941 131.153 45.2974 131.14 45.2996C131.134 45.3008 131.129 45.3017 131.125 45.3023C131.124 45.3026 131.122 45.3028 131.122 45.303C131.121 45.3031 131.121 45.3031 131.121 45.3032C131.12 45.3032 131.12 45.3032 131.12 45.3032C131.12 45.3032 131.12 45.3032 131.12 45.3032L131.12 45.3032C131.12 45.3032 131.12 45.3032 131.156 45.5ZM131.84 45.5985C133.824 45.3556 135.209 44.8383 136.175 44.3078C137.141 43.7771 137.682 43.2362 137.972 42.9664L137.7 42.6736C137.409 42.9438 136.901 43.4529 135.982 43.9572C135.063 44.4617 133.728 44.9644 131.792 45.2015L131.84 45.5985ZM137.836 42.82C137.976 42.9628 137.976 42.9627 137.976 42.9627C137.976 42.9626 137.976 42.9625 137.976 42.9625C137.976 42.9623 137.977 42.9622 137.977 42.962C137.977 42.9616 137.978 42.961 137.978 42.9604C137.98 42.9591 137.982 42.9573 137.984 42.955C137.988 42.9504 137.995 42.9438 138.003 42.9353C138.02 42.9182 138.043 42.8933 138.073 42.8607C138.132 42.7955 138.216 42.6996 138.317 42.5744C138.517 42.3241 138.783 41.9563 139.048 41.4826C139.578 40.5356 140.106 39.1617 140.096 37.4588L139.696 37.4612C139.706 39.0783 139.204 40.3844 138.699 41.2873C138.446 41.7387 138.193 42.0884 138.005 42.3244C137.91 42.4423 137.832 42.5317 137.778 42.591C137.75 42.6207 137.729 42.6428 137.715 42.6573C137.709 42.6645 137.703 42.6698 137.7 42.6731C137.698 42.6748 137.697 42.6759 137.696 42.6766C137.696 42.677 137.696 42.6772 137.696 42.6773C137.696 42.6773 137.696 42.6774 137.696 42.6773C137.696 42.6773 137.696 42.6773 137.696 42.6773C137.696 42.6773 137.696 42.6772 137.836 42.82ZM140.096 37.4584C140.075 34.861 138.138 32.6 135.316 32.6V33C137.894 33 139.677 35.059 139.696 37.4616L140.096 37.4584Z" />
</svg>
